<svg width="720" height="800" viewBox="0 0 720 800" fill="none" xmlns="http://www.w3.org/2000/svg">
<path d="M373.501 518.5C372.25 510.66 362.362 504.138 365.001 495.5L327.501 495C327.66 504.535 321.486 507.522 323.001 518.5C307.226 519.445 295.001 522.5 284.377 530.692C261.531 555.097 254.093 601.323 261.627 644.056C263.564 655.064 271.157 669.427 275.786 681.655C285.678 707.787 297.588 719.5 315.088 736C315.088 736 325.588 747.5 346.588 755C367.872 741.507 393.102 715.956 407.631 693.24C412.766 685.202 419.219 676.403 422.94 668.385C435.461 641.411 437.834 597.569 429.834 568.989C421.573 539.484 404.487 525.457 373.501 518.5Z" fill="#828EFF"/>
<path d="M382.176 338.704C379.123 326.422 354.014 319.929 348.003 311.499C343.303 319.903 322.025 320.971 317.277 329.322C311.906 341 309.222 371.419 317.003 387.5C326.91 398.94 322.666 422.067 319.502 439C317.967 443.603 327.503 452.999 327.237 459.013C325.61 464.513 324.856 468.214 324.303 473.554C323.75 478.895 327.078 484.946 327.237 494.481C327.396 504.016 321.328 506.905 322.844 517.884C324.003 522.499 363.515 528.484 373.002 518.999C376.003 515.999 362.363 504.137 365.002 495.5C362.502 492.5 373.049 476.432 370.442 475.073C371.471 461.542 375.109 450.824 376.216 437.225C371.983 426.575 371.224 413.373 371.502 398.5C375.34 386.884 385.192 350.859 382.176 338.704Z" fill="#545CA6"/>
<path d="M407.606 284.604C402.957 296.536 378.177 319.772 375.562 329.131C373.5 332.999 366.684 342.043 363 345.999C350.155 359.77 344.867 348.226 333.5 339.499C328.35 333.761 320.479 317.726 316.102 311.163C306.532 302.738 294.509 283.552 289.223 264.953C286.599 255.722 289.339 248.919 289.324 240.497C289.307 235.421 287.3 230.395 287.942 226.052C291.262 203.533 314.69 195.657 340.485 198.964C351.152 203.715 381.811 198.897 390.332 200.04C407.636 202.364 411.348 216.546 414.985 233.644C416.223 239.47 419.381 245.811 419.17 250.714C418.73 260.907 411.689 274.13 407.606 284.604Z" fill="#828EFF"/>
<path d="M402.867 264.506C407.465 255.237 403.26 243.789 393.475 238.936C383.691 234.083 372.032 237.663 367.435 246.933C362.838 256.202 362.264 277.286 372.048 282.138C381.832 286.991 398.27 273.776 402.867 264.506Z" fill="#075CFF"/>
<path d="M300.656 264.733C296.059 255.463 300.264 244.015 310.048 239.162C319.832 234.31 331.491 237.89 336.088 247.159C340.686 256.429 341.26 277.512 331.475 282.365C321.691 287.218 305.254 274.002 300.656 264.733Z" fill="#075CFF"/>
<path d="M343 332L352 335L361 332" stroke="#4F4D98" stroke-width="2" stroke-linecap="round"/>
<path d="M343 332L352 335L361 332" stroke="#4F4D98" stroke-width="2" stroke-linecap="round"/>
</svg>
