<svg width="4320" height="800" viewBox="0 0 4320 800" fill="none" xmlns="http://www.w3.org/2000/svg">
<path d="M411.377 336.964C399.882 344.385 392.293 362.585 379.503 365.5L375.003 375.5L376.003 382.5C379.003 381.5 403.398 362.926 418.197 349.868C428.468 340.803 444.617 321.445 449.452 308.331C458.237 284.479 452.408 260.237 462.541 240.837C465.521 235.134 472.872 229.932 477.612 223.22C484.077 214.059 487.05 207.178 492.89 199.27C502.375 186.414 510.325 175.109 522.912 167.654C518.912 165.696 511.141 158.421 508.646 160.845C505.114 161.136 508.077 168.353 505.634 169.802C503.897 169.378 505.69 165.658 502.105 166.969C497.535 178.009 489.201 183.42 483.177 191.705C480.321 195.631 479.163 200.996 476.398 205.066C472.274 211.129 467.698 216.388 464.041 222.773C460.646 228.704 458.004 238.348 449.905 239.515C449.185 231.748 459.481 226.2 454.179 219.731C449.362 220.71 447.268 226.553 446.584 230.349C443.635 246.725 447.911 282.051 442.571 297.236C440.24 303.862 430.374 310.123 425.662 315.699C419.333 323.179 415.551 329.696 411.377 336.964Z" fill="#828EFF"/>
<path d="M266.455 321.067C283.501 349 288.001 363.5 314.501 379.501C314.501 377.5 314.877 370.243 313.001 368C295.804 347.444 288.717 323.697 268.682 308.461C271.13 285.749 259.993 259.229 262.862 237.628C263.557 232.403 267.289 228.179 266.957 223.272C266.567 217.539 261.192 210.559 257.512 207.565C251.946 212.811 265.178 222.152 259.571 227.557C252.652 225.906 250.459 217.763 244.668 212.576C239.829 208.246 233.748 205.585 232.33 202.208C230.351 197.504 224.199 196.537 220.837 193.679C217.166 190.564 213.317 186.126 209.433 182.435C205.491 178.693 200.38 174.087 198.03 171.192C192.387 164.249 196.588 155 184.588 160.5C175.59 159.5 191.703 176.906 199.422 183.917C205.949 189.848 209.554 198.485 215.051 204.356C225.997 216.052 244.355 222.382 250.197 237.211C250.658 262.333 250.506 284.97 257.945 304.485C260.107 310.162 264.148 315.054 266.455 321.067Z" fill="#828EFF"/>
<path d="M322 373.5C322 377.09 318.537 380 315.5 380C312 378.5 310 377.09 310 373.5C310 369.91 308 366.5 314 365.5C320.999 365.5 322 369.91 322 373.5Z" fill="#828EFF"/>
<path d="M370 373.535C370 377.125 371.963 383.035 375 383.035C378.5 381.535 382.001 377.125 382.001 373.535C382.001 369.945 384 366.035 378 365.035C371.001 365.035 370 369.945 370 373.535Z" fill="#828EFF"/>
<path d="M986.455 321.067C1003.5 349 1008 363.5 1034.5 379.501C1034.5 377.5 1034.88 370.243 1033 368C1015.8 347.444 1008.72 323.697 988.682 308.461C991.13 285.749 979.993 259.229 982.862 237.628C983.557 232.403 987.289 228.179 986.957 223.272C986.567 217.539 981.192 210.559 977.512 207.565C971.946 212.811 985.178 222.152 979.571 227.557C972.652 225.906 970.459 217.763 964.668 212.576C959.829 208.246 953.748 205.585 952.33 202.208C950.351 197.504 944.199 196.537 940.837 193.679C937.166 190.564 933.317 186.126 929.433 182.435C925.491 178.693 920.38 174.087 918.03 171.192C912.387 164.249 916.588 155 904.588 160.5C895.59 159.5 911.703 176.906 919.422 183.917C925.949 189.848 929.554 198.485 935.051 204.356C945.997 216.052 964.355 222.382 970.197 237.211C970.658 262.333 970.506 284.97 977.945 304.485C980.107 310.162 984.148 315.054 986.455 321.067Z" fill="#828EFF"/>
<path d="M1042 373.5C1042 377.09 1038.54 380 1035.5 380C1032 378.5 1030 377.09 1030 373.5C1030 369.91 1028 366.5 1034 365.5C1041 365.5 1042 369.91 1042 373.5Z" fill="#828EFF"/>
<path d="M1142.09 360.805C1128.42 360.285 1111.75 370.834 1099.61 365.88L1090.5 372L1092.5 378.5C1095.53 379.403 1120.65 377.486 1140.27 375.287C1153.88 373.757 1178.22 367.173 1189.7 359.208C1210.58 344.717 1219.72 321.519 1239.15 311.448C1244.87 308.487 1253.87 308.446 1261.61 305.669C1272.16 301.878 1278.54 297.95 1287.86 294.825C1303.01 289.741 1316.01 285.045 1330.59 286.164C1328.44 282.264 1326.25 271.847 1322.82 272.4C1319.76 270.612 1318.04 278.222 1315.21 278.007C1314.03 276.663 1317.64 274.646 1313.95 273.661C1303.87 280.079 1293.94 279.728 1284.25 283.055C1279.66 284.631 1275.63 288.361 1271.03 290.107C1264.17 292.705 1257.41 294.385 1250.75 297.516C1244.57 300.424 1236.87 306.805 1229.57 303.114C1233.43 296.339 1245.05 297.705 1244.42 289.365C1239.91 287.402 1234.84 290.985 1232.11 293.701C1220.29 305.42 1203.52 336.803 1190.43 346.174C1184.72 350.261 1173.05 349.726 1165.99 351.588C1156.51 354.081 1149.68 357.248 1142.09 360.805Z" fill="#828EFF"/>
<path d="M1090 373.535C1090 377.125 1091.96 383.035 1095 383.035C1098.5 381.535 1102 377.125 1102 373.535C1102 369.945 1104 366.035 1098 365.035C1091 365.035 1090 369.945 1090 373.535Z" fill="#828EFF"/>
<path d="M3203 373.5C3203 377.09 3199.53 380 3196.5 380C3193 378.5 3191 377.09 3191 373.5C3191 369.91 3189 366.5 3195 365.5C3202 365.5 3203 369.91 3203 373.5Z" fill="#828EFF"/>
<path d="M3251 373.535C3251 377.125 3252.96 383.035 3256 383.035C3259.5 381.535 3263 377.125 3263 373.535C3263 369.945 3265 366.035 3259 365.035C3252 365.035 3251 369.945 3251 373.535Z" fill="#828EFF"/>
<path d="M3214.53 352.117C3227.98 354.607 3241.92 368.551 3254.86 366.382L3262.4 374.348L3259.03 380.252C3255.87 380.468 3231.78 373.091 3213.13 366.645C3200.18 362.168 3177.88 350.409 3168.42 340.12C3151.22 321.404 3147.39 296.767 3130.64 282.68C3125.71 278.539 3116.94 276.525 3110 272.12C3100.54 266.108 3095.17 260.876 3086.76 255.783C3073.1 247.503 3061.44 240.072 3046.97 237.966C3049.92 234.633 3054.34 224.949 3057.57 226.241C3060.95 225.167 3060.95 232.968 3063.76 233.379C3065.21 232.326 3062.14 229.568 3065.95 229.417C3074.38 237.888 3084.14 239.722 3092.86 245.092C3097 247.636 3100.11 252.158 3104.22 254.87C3110.34 258.909 3116.57 262.031 3122.38 266.545C3127.78 270.739 3133.89 278.652 3141.82 276.651C3139.53 269.194 3127.9 267.98 3130.34 259.98C3135.17 259.053 3139.33 263.66 3141.41 266.911C3150.36 280.934 3159.85 315.23 3170.56 327.243C3175.24 332.483 3186.75 334.52 3193.22 337.884C3201.92 342.394 3207.9 346.982 3214.53 352.117Z" fill="#828EFF"/>
<path d="M3128.52 363.096C3159.59 373.361 3170.94 381.449 3201.5 376.5C3200.2 374.974 3197.26 369.253 3194.37 368.757C3167.96 364.214 3147.19 350.695 3122.06 352.044C3109.23 333.145 3083.57 320.133 3071.78 301.807C3068.93 297.374 3069.04 291.738 3065.62 288.212C3061.61 284.093 3052.99 282.251 3048.25 282.349C3047.4 289.951 3063.53 288.51 3062.76 296.259C3056.41 299.477 3049.47 294.688 3041.7 294.481C3035.21 294.311 3028.85 296.218 3025.59 294.561C3021.03 292.255 3015.72 295.498 3011.3 295.495C3006.49 295.496 3000.68 294.603 2995.33 294.303C2989.91 294 2983.03 293.796 2979.36 293.11C2970.57 291.468 2967.79 281.698 2962.2 293.657C2954.69 298.717 2978.24 301.56 2988.66 301.91C2997.47 302.208 3005.81 306.46 3013.8 307.379C3029.72 309.213 3047.81 302.16 3061.86 309.685C3078.47 328.54 3093 345.896 3111.3 355.961C3116.62 358.889 3122.87 360.005 3128.52 363.096Z" fill="#828EFF"/>
<path d="M2482 373.5C2482 377.09 2478.54 380 2475.5 380C2472 378.5 2470 377.09 2470 373.5C2470 369.91 2468 366.5 2474 365.5C2481 365.5 2482 369.91 2482 373.5Z" fill="#828EFF"/>
<path d="M2582.09 360.805C2568.42 360.285 2551.75 370.834 2539.61 365.88L2530.5 372L2532.5 378.5C2535.53 379.403 2560.65 377.486 2580.27 375.287C2593.88 373.757 2618.22 367.173 2629.7 359.208C2650.58 344.717 2659.72 321.519 2679.15 311.448C2684.87 308.487 2693.87 308.446 2701.61 305.669C2712.16 301.878 2718.54 297.95 2727.86 294.825C2743.01 289.741 2756.01 285.045 2770.59 286.164C2768.44 282.264 2766.25 271.847 2762.82 272.4C2759.76 270.612 2758.04 278.222 2755.21 278.007C2754.03 276.663 2757.64 274.646 2753.95 273.661C2743.87 280.079 2733.94 279.728 2724.25 283.055C2719.66 284.631 2715.63 288.361 2711.03 290.107C2704.17 292.705 2697.41 294.385 2690.75 297.516C2684.57 300.424 2676.87 306.805 2669.57 303.114C2673.43 296.339 2685.05 297.705 2684.42 289.365C2679.91 287.402 2674.84 290.985 2672.11 293.701C2660.29 305.42 2643.52 336.803 2630.43 346.174C2624.72 350.261 2613.05 349.726 2605.99 351.588C2596.51 354.081 2589.68 357.248 2582.09 360.805Z" fill="#828EFF"/>
<path d="M2530 373.535C2530 377.125 2531.96 383.035 2535 383.035C2538.5 381.535 2542 377.125 2542 373.535C2542 369.945 2544 366.035 2538 365.035C2531 365.035 2530 369.945 2530 373.535Z" fill="#828EFF"/>
<path d="M2539.9 356.911C2509.81 369.783 2502.87 377.991 2472 375.659C2473.16 374.03 2471.93 368.895 2474.76 368.156C2500.69 361.381 2520.23 346.144 2545.39 345.35C2556.57 325.427 2581.02 310.28 2591.21 291.018C2593.67 286.358 2593.08 280.752 2596.2 276.947C2599.84 272.502 2608.27 269.933 2613 269.628C2614.49 277.13 2598.3 277.067 2599.73 284.722C2606.32 287.389 2612.83 282.026 2620.56 281.159C2627.01 280.437 2633.51 281.796 2636.62 279.867C2640.96 277.182 2646.54 279.961 2650.93 279.583C2655.73 279.174 2661.44 277.79 2666.74 277.036C2672.12 276.273 2678.96 275.485 2682.55 274.489C2691.18 272.105 2693.12 262.134 2699.7 273.573C2707.62 277.976 2684.39 282.812 2674.04 284.048C2665.28 285.095 2657.34 290.041 2649.45 291.637C2633.75 294.818 2615.13 289.329 2601.77 298.023C2586.83 318.222 2573.82 336.752 2556.44 348.337C2551.39 351.708 2545.26 353.351 2539.9 356.911Z" fill="#828EFF"/>
<path d="M3922 373.5C3922 377.09 3918.53 380 3915.5 380C3912 378.5 3910 377.09 3910 373.5C3910 369.91 3908 366.5 3914 365.5C3921 365.5 3922 369.91 3922 373.5Z" fill="#828EFF"/>
<path d="M3970 373.535C3970 377.125 3971.96 383.035 3975 383.035C3978.5 381.535 3982 377.125 3982 373.535C3982 369.945 3984 366.035 3978 365.035C3971 365.035 3970 369.945 3970 373.535Z" fill="#828EFF"/>
<path d="M3847.52 363.096C3878.59 373.361 3889.94 381.449 3920.5 376.5C3919.2 374.974 3916.26 369.253 3913.37 368.757C3886.96 364.214 3866.19 350.695 3841.06 352.044C3828.23 333.145 3802.57 320.133 3790.78 301.807C3787.93 297.374 3788.04 291.738 3784.62 288.212C3780.61 284.093 3771.99 282.251 3767.25 282.349C3766.4 289.951 3782.53 288.51 3781.76 296.259C3775.41 299.477 3768.47 294.688 3760.7 294.481C3754.21 294.311 3747.85 296.218 3744.59 294.561C3740.03 292.255 3734.72 295.498 3730.3 295.495C3725.49 295.496 3719.68 294.603 3714.33 294.303C3708.91 294 3702.03 293.796 3698.36 293.11C3689.57 291.468 3686.79 281.698 3681.2 293.657C3673.69 298.717 3697.24 301.56 3707.66 301.91C3716.47 302.208 3724.81 306.46 3732.8 307.379C3748.72 309.213 3766.81 302.16 3780.86 309.685C3797.47 328.54 3812 345.896 3830.3 355.961C3835.62 358.889 3841.87 360.005 3847.52 363.096Z" fill="#828EFF"/>
<path d="M4011.37 336.964C3999.87 344.385 3992.29 362.585 3979.49 365.5L3974.99 375.5L3976 382.5C3979 381.5 4003.39 362.926 4018.19 349.868C4028.46 340.803 4044.61 321.445 4049.44 308.331C4058.23 284.479 4052.4 260.237 4062.53 240.837C4065.51 235.134 4072.86 229.932 4077.6 223.22C4084.07 214.059 4087.04 207.178 4092.88 199.27C4102.37 186.414 4110.32 175.109 4122.9 167.654C4118.9 165.696 4111.13 158.421 4108.64 160.845C4105.11 161.136 4108.07 168.353 4105.63 169.802C4103.89 169.378 4105.68 165.658 4102.1 166.969C4097.53 178.009 4089.19 183.42 4083.17 191.705C4080.31 195.631 4079.16 200.996 4076.39 205.066C4072.27 211.129 4067.69 216.388 4064.03 222.773C4060.64 228.704 4058 238.348 4049.9 239.515C4049.18 231.748 4059.47 226.2 4054.17 219.731C4049.35 220.71 4047.26 226.553 4046.58 230.349C4043.63 246.725 4047.9 282.051 4042.56 297.236C4040.23 303.862 4030.37 310.123 4025.65 315.699C4019.32 323.179 4015.54 329.696 4011.37 336.964Z" fill="#828EFF"/>
<path d="M1762 373.5C1762 377.09 1758.54 380 1755.5 380C1752 378.5 1750 377.09 1750 373.5C1750 369.91 1748 366.5 1754 365.5C1761 365.5 1762 369.91 1762 373.5Z" fill="#828EFF"/>
<path d="M1862.09 360.805C1848.42 360.285 1831.75 370.834 1819.61 365.88L1810.5 372L1812.5 378.5C1815.53 379.403 1840.65 377.486 1860.27 375.287C1873.88 373.757 1898.22 367.173 1909.7 359.208C1930.58 344.717 1939.72 321.519 1959.15 311.448C1964.87 308.487 1973.87 308.446 1981.61 305.669C1992.16 301.878 1998.54 297.95 2007.86 294.825C2023.01 289.741 2036.01 285.045 2050.59 286.164C2048.44 282.264 2046.25 271.847 2042.82 272.4C2039.76 270.612 2038.04 278.222 2035.21 278.007C2034.03 276.663 2037.64 274.646 2033.95 273.661C2023.87 280.079 2013.94 279.728 2004.25 283.055C1999.66 284.631 1995.63 288.361 1991.03 290.107C1984.17 292.705 1977.41 294.385 1970.75 297.516C1964.57 300.424 1956.87 306.805 1949.57 303.114C1953.43 296.339 1965.05 297.705 1964.42 289.365C1959.91 287.402 1954.84 290.985 1952.11 293.701C1940.29 305.42 1923.52 336.803 1910.43 346.174C1904.72 350.261 1893.05 349.726 1885.99 351.588C1876.51 354.081 1869.68 357.248 1862.09 360.805Z" fill="#828EFF"/>
<path d="M1810 373.535C1810 377.125 1811.96 383.035 1815 383.035C1818.5 381.535 1822 377.125 1822 373.535C1822 369.945 1824 366.035 1818 365.035C1811 365.035 1810 369.945 1810 373.535Z" fill="#828EFF"/>
<path d="M1689.52 363.096C1720.59 373.361 1731.94 381.449 1762.5 376.5C1761.21 374.974 1758.26 369.253 1755.38 368.757C1728.96 364.214 1708.2 350.695 1683.06 352.044C1670.23 333.145 1644.58 320.133 1632.79 301.807C1629.94 297.374 1630.05 291.738 1626.62 288.212C1622.61 284.093 1614 282.251 1609.25 282.349C1608.41 289.951 1624.54 288.51 1623.76 296.259C1617.42 299.477 1610.48 294.688 1602.71 294.481C1596.21 294.311 1589.86 296.218 1586.59 294.561C1582.04 292.255 1576.72 295.498 1572.31 295.495C1567.49 295.496 1561.69 294.603 1556.34 294.303C1550.91 294 1544.03 293.796 1540.37 293.11C1531.57 291.468 1528.79 281.698 1523.2 293.657C1515.69 298.717 1539.24 301.56 1549.66 301.91C1558.48 302.208 1566.82 306.46 1574.81 307.379C1590.72 309.213 1608.81 302.16 1622.86 309.685C1639.47 328.54 1654 345.896 1672.3 355.961C1677.62 358.889 1683.87 360.005 1689.52 363.096Z" fill="#828EFF"/>
</svg>
