<svg width="3600" height="800" viewBox="0 0 3600 800" fill="none" xmlns="http://www.w3.org/2000/svg">
<path d="M312.308 484.257C306.59 482.501 305.023 483.479 302.416 482.12L298.5 504C308 503.5 314.832 509.532 321.605 504.487C331.335 522.689 351.243 530.092 372.129 537.848C384.288 542.364 416.644 550.489 419.333 562.044C420.642 567.667 417.028 582.401 417.416 592.773C417.841 604.158 417.921 618.405 416.225 628.961C414.776 637.99 409.898 651.811 414.219 662.404C416.369 667.677 423.207 672.884 424.569 678.141C428.364 692.777 435.944 708.292 443.887 724.06C449.045 734.303 465.13 757.46 465.089 766.501C465.06 772.447 457.854 771.528 460.089 777C467.089 777 467.589 777 474.089 775.001C471.92 760.967 467.859 741.423 460.838 731.863C456.008 725.284 456.946 716.495 452.566 708.044C450.853 704.747 447.451 702.16 445.626 698.759C441.193 690.502 433.059 673.802 431.288 666.589C426.363 646.542 433.674 618.722 432.736 595.089C432.119 579.607 427.708 565.806 426.958 550.521C398.896 518.921 348.08 508.634 312.308 484.257Z" fill="#828EFF"/>
<path d="M231.676 518.396C239.706 512.457 262.009 500.404 273.592 502.853L276.083 481.927C275.381 487.13 258.66 480.441 258.109 485.757C246.262 487.067 240.671 494.435 233.206 499.427C223.735 505.762 211.397 509.759 200.977 515.574C178.742 527.974 160.627 540.102 145.267 557.212C133.774 571.606 135.324 604.754 136.641 626.664C137.654 643.583 144.839 660.403 143.324 671.262C141.025 687.755 124.788 693.57 118.611 706.675C117.641 711.091 122.287 710.247 121.992 714.031C103.458 725.129 100.586 754.147 92.7964 775.561C91.3916 779.414 95.5869 778.5 99.587 778.501C110.587 779 101.087 775.561 103.087 771C106.211 758.716 110.365 736.74 117.086 730.059C121.724 722.292 128.457 713.298 134.485 705.054C140.686 696.564 150.341 689.515 154.757 681.6C163.89 665.227 155.094 651.035 152.687 634.438C149.591 613.098 148.405 591.479 150.397 566.437C168.42 554.336 188.723 547.905 206.625 536.59C215.083 531.243 223.322 524.571 231.676 518.396Z" fill="#828EFF"/>
<path d="M394.304 441.542C370.659 435.818 353.49 457.401 331.613 447.63L303.797 441.542L299.297 465.605C312.587 449 325.837 477.583 339.618 479.591C343.056 477.239 340.484 473.149 340.88 468.765C350.625 468.638 355.103 461.157 364.729 459.587C374.27 458.03 384.121 462.611 394.554 461.475C403.466 460.505 412.737 452.332 422.986 450.637C431.389 449.243 439.156 452.971 443.098 444.959C456.824 475.655 460.594 515.669 471.367 549.135C472.474 554.163 478.002 547.492 478.604 549.374C479.931 553.392 483.849 554.98 486.478 557.784C498.008 570.083 507.827 583.453 526.206 588.978C532.371 601.332 543.353 609.165 555.197 616.197C552.781 624.49 558.152 628.546 557.376 632.57C562.898 628.35 566.132 632.839 570.976 632.112C561.312 609.596 547.868 590.617 524.665 580.777C525.362 577.495 524.211 575.938 523.065 574.386L523.064 574.384C512.274 562.859 497.631 554.941 486.02 544.184C480.229 504.305 467.937 470.507 452.323 439.829C440.224 431.074 406.435 433.277 394.304 441.542Z" fill="#828EFF"/>
<path d="M313.5 527.5C312.249 519.661 302.361 513.138 305 504.5L267.5 504C267.659 513.535 261.485 516.522 263 527.5C247.225 528.445 235 531.5 224.376 539.692C201.53 564.097 194.092 610.323 201.626 653.057C203.563 664.064 211.156 678.427 215.785 690.655C225.677 716.787 237.587 728.5 255.087 745C255.087 745 265.587 756.5 286.587 764.001C307.871 750.507 333.101 724.957 347.63 702.24C352.765 694.203 359.218 685.404 362.939 677.385C375.46 650.411 377.833 606.57 369.833 577.989C361.572 548.485 344.486 534.458 313.5 527.5Z" fill="#828EFF"/>
<path d="M351.374 345.965C339.879 353.385 332.29 371.586 319.5 374.501L315 384.5L316 391.5C319 390.5 343.395 371.926 358.195 358.869C368.465 349.803 384.614 330.445 389.449 317.331C398.234 293.48 392.405 269.237 402.538 249.837C405.518 244.134 412.869 238.932 417.609 232.22C424.074 223.059 427.047 216.179 432.888 208.27C442.372 195.415 450.322 184.109 462.91 176.654C458.909 174.696 451.138 167.422 448.643 169.845C445.111 170.136 448.074 177.354 445.631 178.803C443.894 178.378 445.687 174.659 442.102 175.97C437.532 187.009 429.198 192.42 423.174 200.705C420.318 204.631 419.16 209.997 416.395 214.067C412.271 220.13 407.695 225.388 404.038 231.773C400.643 237.704 398.001 247.348 389.902 248.516C389.182 240.749 399.478 235.201 394.176 228.732C389.359 229.71 387.265 235.553 386.581 239.35C383.632 255.726 387.909 291.052 382.568 306.237C380.237 312.862 370.371 319.124 365.659 324.699C359.33 332.179 355.548 338.696 351.374 345.965Z" fill="#828EFF"/>
<path d="M206.454 330.068C223.5 358 228 372.5 254.5 388.501C254.5 386.5 254.876 379.244 253 377.001C235.803 356.444 228.716 332.697 208.681 317.462C211.129 294.75 199.992 268.23 202.861 246.629C203.556 241.404 207.288 237.179 206.956 232.273C206.566 226.539 201.191 219.56 197.511 216.566C191.945 221.811 205.177 231.153 199.57 236.558C192.651 234.906 190.458 226.764 184.667 221.577C179.828 217.246 173.747 214.586 172.329 211.208C170.35 206.504 164.198 205.537 160.836 202.679C157.165 199.565 153.316 195.126 149.432 191.436C145.49 187.694 140.379 183.088 138.029 180.193C132.386 173.25 136.587 164.001 124.587 169.501C115.589 168.5 131.702 185.906 139.421 192.918C145.948 198.848 149.553 207.485 155.051 213.357C165.996 225.053 184.354 231.383 190.196 246.212C190.657 271.334 190.505 293.97 197.944 313.486C200.106 319.162 204.147 324.055 206.454 330.068Z" fill="#828EFF"/>
<path d="M174.847 158.426C173.659 190.977 241.311 185.626 254.287 212.75L267.137 208.423C250.368 190.267 213.581 172.22 185.202 164.64C189.715 150.519 188.384 142.432 188.068 129.409C187.424 102.829 189.041 71.1252 184.285 50.1478C182.868 43.8887 180 33.9597 170.696 33.3679C165.852 48.5446 171.789 63.9895 174.205 78.2811C178.379 103.008 181.686 128.305 174.847 158.426Z" fill="#828EFF"/>
<path d="M408.611 158.426C409.799 190.977 342.147 185.626 329.171 212.75L316 209.5C332.769 191.345 369.877 172.22 398.256 164.64C393.743 150.519 395.074 142.432 395.39 129.409C396.034 102.829 394.417 71.1252 399.173 50.1478C400.59 43.8887 403.458 33.9597 412.762 33.3679C417.606 48.5446 411.669 63.9895 409.253 78.2811C405.079 103.008 401.772 128.305 408.611 158.426Z" fill="#828EFF"/>
<path d="M322.174 347.705C319.121 335.423 294.012 328.93 288.001 320.5C283.301 328.904 262.023 329.971 257.275 338.323C251.904 350.001 249.22 380.42 257.001 396.5C266.908 407.941 262.664 431.068 259.5 448C257.965 452.604 267.501 462 267.235 468.014C265.608 473.514 264.854 477.215 264.301 482.555C263.748 487.896 267.076 493.947 267.235 503.482C267.394 513.017 261.326 515.906 262.842 526.885C264.001 531.5 303.514 537.485 313 528C316.001 525 302.361 513.138 305 504.5C302.5 501.5 313.047 485.433 310.44 484.074C311.469 470.543 315.107 459.825 316.214 446.226C311.981 435.576 311.222 422.374 311.5 407.5C315.338 395.885 325.19 359.86 322.174 347.705Z" fill="#545CA6"/>
<path d="M347.606 293.606C342.957 305.538 318.177 328.774 315.562 338.133C313.5 342 306.684 351.045 303 355C290.155 368.772 284.867 357.228 273.5 348.5C268.35 342.763 260.479 326.728 256.102 320.165C246.532 311.74 234.509 292.554 229.223 273.955C226.599 264.724 229.339 257.921 229.324 249.499C229.307 244.423 227.3 239.397 227.942 235.054C231.262 212.535 254.69 204.659 280.485 207.966C291.152 212.717 321.811 207.899 330.332 209.042C347.636 211.366 351.348 225.548 354.985 242.646C356.223 248.472 359.381 254.813 359.17 259.716C358.73 269.909 351.689 283.132 347.606 293.606Z" fill="#828EFF"/>
<path d="M342.865 273.508C347.463 264.238 343.258 252.79 333.473 247.937C323.689 243.085 312.03 246.665 307.433 255.934C302.836 265.204 302.262 286.287 312.046 291.14C321.83 295.992 338.268 282.777 342.865 273.508Z" fill="#075CFF"/>
<path d="M240.654 273.734C236.057 264.465 240.262 253.017 250.046 248.164C259.83 243.311 271.489 246.892 276.086 256.161C280.684 265.43 281.258 286.514 271.473 291.366C261.689 296.219 245.252 283.004 240.654 273.734Z" fill="#075CFF"/>
<path d="M262.001 382.5C262.001 386.09 258.538 389 255.501 389C252.001 387.5 250.001 386.09 250.001 382.5C250.001 378.911 248.001 375.5 254.001 374.5C261 374.5 262.001 378.911 262.001 382.5Z" fill="#828EFF"/>
<path d="M272 455.38C272 459.589 269.205 463 266 463C261.859 462 259.338 459.589 259.338 455.38C259.338 451.171 257.227 447.173 263.558 446C270.944 446 272 451.171 272 455.38Z" fill="#828EFF"/>
<path d="M274 494.035C274 498.986 267.5 504 267 502.5C267 503 260.279 499.486 260.279 494.535C260.279 489.583 258.169 484.88 264.5 483.5C271.885 483.5 274 489.083 274 494.035Z" fill="#828EFF"/>
<path d="M299 494.481C299 499.877 304.5 505.5 306.5 504.5C309 503 313.64 500.422 313.64 495.026C313.64 489.63 315.891 484.504 309.136 483C301.256 483 299 489.085 299 494.481Z" fill="#828EFF"/>
<path d="M322.163 454.762C322.163 459.218 318.368 462.831 315.162 462.831C311.021 461.772 308.5 459.218 308.5 454.762C308.5 450.305 309.169 445.242 315.5 444C323.338 447.17 321.163 450.36 322.163 454.762Z" fill="#828EFF"/>
<path d="M310 382.536C310 386.126 311.963 392.036 315 392.036C318.5 390.536 322.001 386.126 322.001 382.536C322.001 378.946 324 375.036 318 374.036C311.001 374.036 310 378.946 310 382.536Z" fill="#828EFF"/>
<path d="M230.9 475.697C243.33 473.796 257.715 457.105 270.084 461.311L271.757 450.968L241.048 442.521C204.922 446.046 164.151 418.571 131.82 431.68C120.443 436.292 108.827 472.302 105.607 485.157C102.091 499.19 106.748 515.897 102.338 529.427C100.419 535.306 89.0856 543.945 81.7802 548.675C76.8397 551.874 71.0241 554.294 66.1623 555.407C54.4281 573.778 36.2292 585.244 22.0938 601.05C36.0869 601.05 33.0867 604.501 40.5866 604.5C39.5866 601.05 38.2865 599.002 40.5866 594C65.227 580.049 88.4507 552.99 111.147 536.963C120.488 527.413 117.128 507.343 121.623 493.836C125.845 481.134 137.186 470.901 137.438 453.601C150.571 435.226 171.03 455.225 191.659 457.197C206.591 458.625 219.963 450.738 226.793 462.882C229.541 462.696 230.117 460.189 234.09 461.311C232.169 464.805 228.374 470.491 230.9 475.697Z" fill="#828EFF"/>
<path d="M283 341L292 344L301 341" stroke="#4F4D98" stroke-width="2" stroke-linecap="round"/>
<path d="M283 341L292 344L301 341" stroke="#4F4D98" stroke-width="2" stroke-linecap="round"/>
<path d="M3312.31 483.807C3306.59 482.051 3305.02 483.028 3302.42 481.67L3298.5 503.55C3308 503.05 3314.83 509.082 3321.6 504.037C3331.34 522.239 3351.24 529.642 3372.13 537.398C3384.29 541.914 3416.64 550.038 3419.33 561.594C3420.64 567.217 3417.03 581.95 3417.42 592.323C3417.84 603.708 3417.92 617.955 3416.22 628.51C3414.78 637.539 3409.9 651.361 3414.22 661.954C3416.37 667.227 3423.21 672.433 3424.57 677.691C3428.36 692.326 3435.94 707.841 3443.89 723.61C3449.04 733.853 3465.13 757.01 3465.09 766.05C3465.06 771.997 3457.85 771.078 3460.09 776.55C3467.09 776.55 3467.59 776.55 3474.09 774.55C3471.92 760.517 3467.86 740.972 3460.84 731.413C3456.01 724.834 3456.95 716.045 3452.57 707.593C3450.85 704.297 3447.45 701.709 3445.63 698.308C3441.19 690.052 3433.06 673.351 3431.29 666.138C3426.36 646.092 3433.67 618.272 3432.74 594.639C3432.12 579.157 3427.71 565.356 3426.96 550.071C3398.9 518.47 3348.08 508.184 3312.31 483.807Z" fill="#828EFF"/>
<path d="M3231.68 517.946C3239.71 512.007 3262.01 499.954 3273.59 502.403L3276.08 481.477C3275.38 486.68 3258.66 479.991 3258.11 485.307C3246.26 486.617 3240.67 493.985 3233.21 498.977C3223.74 505.312 3211.4 509.309 3200.98 515.124C3178.74 527.525 3160.63 539.652 3145.27 556.762C3133.77 571.156 3135.32 604.304 3136.64 626.214C3137.65 643.133 3144.84 659.953 3143.32 670.812C3141.03 687.305 3124.79 693.12 3118.61 706.225C3117.64 710.641 3122.29 709.797 3121.99 713.581C3103.46 724.68 3100.59 753.697 3092.8 775.111C3091.39 778.964 3095.59 778.05 3099.59 778.051C3110.59 778.551 3101.09 775.111 3103.09 770.551C3106.21 758.266 3110.36 736.29 3117.09 729.609C3121.72 721.842 3128.46 712.849 3134.48 704.604C3140.69 696.114 3150.34 689.065 3154.76 681.15C3163.89 664.777 3155.09 650.585 3152.69 633.988C3149.59 612.648 3148.41 591.029 3150.4 565.987C3168.42 553.886 3188.72 547.455 3206.62 536.14C3215.08 530.793 3223.32 524.121 3231.68 517.946Z" fill="#828EFF"/>
<path d="M3394.3 441.092C3370.66 435.368 3353.49 456.952 3331.61 447.18L3303.8 441.092L3299.3 465.156C3312.59 448.551 3325.84 477.133 3339.62 479.141C3343.06 476.789 3340.48 472.7 3340.88 468.315C3350.62 468.188 3355.1 460.708 3364.73 459.138C3374.27 457.58 3384.12 462.161 3394.55 461.025C3403.47 460.056 3412.74 451.883 3422.99 450.187C3431.39 448.794 3439.16 452.521 3443.1 444.51C3456.82 475.206 3460.59 515.219 3471.37 548.686C3472.47 553.713 3478 547.043 3478.6 548.924C3479.93 552.942 3483.85 554.531 3486.48 557.334C3498.01 569.633 3507.83 583.003 3526.21 588.529C3532.37 600.883 3543.35 608.716 3555.2 615.747C3552.78 624.04 3558.15 628.096 3557.38 632.121C3562.9 627.9 3566.13 632.389 3570.98 631.663C3561.31 609.146 3547.87 590.167 3524.67 580.327C3525.36 577.045 3524.21 575.488 3523.07 573.936L3523.06 573.935C3512.27 562.41 3497.63 554.491 3486.02 543.734C3480.23 503.855 3467.94 470.057 3452.32 439.379C3440.22 430.624 3406.44 432.827 3394.3 441.092Z" fill="#828EFF"/>
<path d="M3313.5 527.05C3312.25 519.21 3302.36 512.688 3305 504.05L3267.5 503.55C3267.66 513.085 3261.48 516.072 3263 527.05C3247.23 527.995 3235 531.05 3224.38 539.242C3201.53 563.647 3194.09 609.873 3201.63 652.607C3203.56 663.614 3211.16 677.977 3215.78 690.205C3225.68 716.337 3237.59 728.05 3255.09 744.55C3255.09 744.55 3265.59 756.05 3286.59 763.55C3307.87 750.057 3333.1 724.507 3347.63 701.79C3352.77 693.753 3359.22 684.954 3362.94 676.935C3375.46 649.961 3377.83 606.12 3369.83 577.539C3361.57 548.035 3344.49 534.007 3313.5 527.05Z" fill="#828EFF"/>
<path d="M3351.37 345.516C3339.88 352.936 3332.29 371.136 3319.5 374.051L3315 384.051L3316 391.051C3319 390.051 3343.39 371.477 3358.19 358.42C3368.47 349.354 3384.61 329.996 3389.45 316.882C3398.23 293.03 3392.41 268.788 3402.54 249.388C3405.52 243.685 3412.87 238.483 3417.61 231.771C3424.07 222.61 3427.05 215.729 3432.89 207.821C3442.37 194.966 3450.32 183.66 3462.91 176.205C3458.91 174.247 3451.14 166.972 3448.64 169.396C3445.11 169.687 3448.07 176.904 3445.63 178.353C3443.89 177.929 3445.69 174.209 3442.1 175.52C3437.53 186.56 3429.2 191.971 3423.17 200.256C3420.32 204.182 3419.16 209.548 3416.39 213.618C3412.27 219.681 3407.7 224.939 3404.04 231.324C3400.64 237.255 3398 246.899 3389.9 248.066C3389.18 240.299 3399.48 234.751 3394.18 228.283C3389.36 229.261 3387.26 235.104 3386.58 238.901C3383.63 255.277 3387.91 290.602 3382.57 305.788C3380.24 312.413 3370.37 318.674 3365.66 324.25C3359.33 331.73 3355.55 338.247 3351.37 345.516Z" fill="#828EFF"/>
<path d="M3206.45 329.618C3223.5 357.55 3228 372.05 3254.5 388.051C3254.5 386.05 3254.88 378.793 3253 376.551C3235.8 355.994 3228.72 332.247 3208.68 317.012C3211.13 294.3 3199.99 267.78 3202.86 246.178C3203.56 240.953 3207.29 236.729 3206.96 231.823C3206.57 226.089 3201.19 219.11 3197.51 216.115C3191.94 221.361 3205.18 230.702 3199.57 236.108C3192.65 234.456 3190.46 226.313 3184.67 221.127C3179.83 216.796 3173.75 214.136 3172.33 210.758C3170.35 206.054 3164.2 205.087 3160.84 202.229C3157.16 199.114 3153.32 194.676 3149.43 190.986C3145.49 187.243 3140.38 182.637 3138.03 179.742C3132.39 172.799 3136.59 163.551 3124.59 169.051C3115.59 168.05 3131.7 185.456 3139.42 192.468C3145.95 198.398 3149.55 207.035 3155.05 212.906C3166 224.603 3184.35 230.933 3190.2 245.762C3190.66 270.884 3190.51 293.52 3197.94 313.036C3200.11 318.712 3204.15 323.605 3206.45 329.618Z" fill="#828EFF"/>
<path d="M3322.17 347.255C3319.12 334.974 3294.01 328.48 3288 320.051C3283.3 328.454 3262.02 329.522 3257.27 337.874C3251.9 349.551 3249.22 379.97 3257 396.051C3266.91 407.491 3262.66 430.618 3259.5 447.551C3257.96 452.154 3267.5 461.551 3267.23 467.564C3265.61 473.064 3264.85 476.765 3264.3 482.106C3263.75 487.446 3267.08 493.498 3267.23 503.032C3267.39 512.567 3261.33 515.457 3262.84 526.435C3264 531.051 3303.51 537.035 3313 527.551C3316 524.551 3302.36 512.688 3305 504.051C3302.5 501.051 3313.05 484.983 3310.44 483.624C3311.47 470.093 3315.11 459.375 3316.21 445.776C3311.98 435.126 3311.22 421.925 3311.5 407.051C3315.34 395.435 3325.19 359.41 3322.17 347.255Z" fill="#545CA6"/>
<path d="M3347.61 293.156C3342.96 305.087 3318.18 328.323 3315.56 337.682C3313.5 341.55 3306.68 350.595 3303 354.55C3290.16 368.322 3284.87 356.778 3273.5 348.05C3268.35 342.313 3260.48 326.278 3256.1 319.715C3246.53 311.29 3234.51 292.104 3229.22 273.505C3226.6 264.273 3229.34 257.471 3229.32 249.049C3229.31 243.973 3227.3 238.947 3227.94 234.604C3231.26 212.084 3254.69 204.209 3280.48 207.516C3291.15 212.267 3321.81 207.449 3330.33 208.592C3347.64 210.916 3351.35 225.098 3354.99 242.196C3356.22 248.022 3359.38 254.363 3359.17 259.266C3358.73 269.459 3351.69 282.682 3347.61 293.156Z" fill="#828EFF"/>
<path d="M3342.87 273.058C3347.46 263.788 3343.26 252.34 3333.47 247.487C3323.69 242.634 3312.03 246.215 3307.43 255.484C3302.84 264.753 3302.26 285.837 3312.05 290.69C3321.83 295.542 3338.27 282.327 3342.87 273.058Z" fill="#075CFF"/>
<path d="M3240.65 273.284C3236.06 264.015 3240.26 252.566 3250.05 247.714C3259.83 242.861 3271.49 246.441 3276.09 255.711C3280.68 264.98 3281.26 286.063 3271.47 290.916C3261.69 295.769 3245.25 282.553 3240.65 273.284Z" fill="#075CFF"/>
<path d="M3262 382.05C3262 385.64 3258.54 388.55 3255.5 388.55C3252 387.05 3250 385.64 3250 382.05C3250 378.46 3248 375.05 3254 374.05C3261 374.05 3262 378.46 3262 382.05Z" fill="#828EFF"/>
<path d="M3272 454.93C3272 459.138 3269.21 462.55 3266 462.55C3261.86 461.55 3259.34 459.138 3259.34 454.93C3259.34 450.721 3257.23 446.723 3263.56 445.55C3270.94 445.55 3272 450.721 3272 454.93Z" fill="#828EFF"/>
<path d="M3274 493.585C3274 498.536 3267.5 503.55 3267 502.05C3267 502.55 3260.28 499.036 3260.28 494.085C3260.28 489.133 3258.17 484.43 3264.5 483.05C3271.89 483.05 3274 488.633 3274 493.585Z" fill="#828EFF"/>
<path d="M3299 494.03C3299 499.426 3304.5 505.05 3306.5 504.05C3309 502.55 3313.64 499.971 3313.64 494.575C3313.64 489.179 3315.89 484.053 3309.14 482.55C3301.26 482.55 3299 488.634 3299 494.03Z" fill="#828EFF"/>
<path d="M3322.16 454.311C3322.16 458.768 3318.37 462.38 3315.16 462.38C3311.02 461.322 3308.5 458.768 3308.5 454.311C3308.5 449.855 3309.17 444.792 3315.5 443.55C3323.34 446.72 3321.16 449.91 3322.16 454.311Z" fill="#828EFF"/>
<path d="M3310 382.086C3310 385.676 3311.96 391.586 3315 391.586C3318.5 390.086 3322 385.676 3322 382.086C3322 378.497 3324 374.586 3318 373.586C3311 373.586 3310 378.497 3310 382.086Z" fill="#828EFF"/>
<path d="M3206.8 131.254C3192.49 160.518 3256.49 183.102 3257.33 213.158L3270.96 216.543C3263.01 193.143 3236.59 159.589 3213.73 141.138C3223.59 130.067 3225.66 122.136 3230.66 110.107C3240.87 85.5562 3255.22 57.2408 3259.39 36.1397C3260.64 29.8449 3262.05 19.6065 3253.79 15.2876C3243.2 27.1888 3242.35 43.7141 3238.76 57.755C3232.53 82.0463 3225.28 106.506 3206.8 131.254Z" fill="#828EFF"/>
<path d="M3230.9 475.247C3243.33 473.347 3257.71 456.655 3270.08 460.861L3271.76 450.519L3241.05 442.071C3204.92 445.597 3164.15 418.121 3131.82 431.231C3120.44 435.842 3108.83 471.853 3105.61 484.708C3102.09 498.74 3106.75 515.447 3102.34 528.978C3100.42 534.857 3089.09 543.495 3081.78 548.226C3076.84 551.424 3071.02 553.844 3066.16 554.957C3054.43 573.328 3036.23 584.794 3022.09 600.601C3036.09 600.6 3033.09 604.051 3040.59 604.05C3039.59 600.601 3038.29 598.552 3040.59 593.55C3065.23 579.599 3088.45 552.541 3111.15 536.513C3120.49 526.964 3117.13 506.893 3121.62 493.386C3125.84 480.685 3137.19 470.452 3137.44 453.152C3150.57 434.776 3171.03 454.776 3191.66 456.748C3206.59 458.175 3219.96 450.288 3226.79 462.432C3229.54 462.246 3230.12 459.739 3234.09 460.861C3232.17 464.355 3228.37 470.042 3230.9 475.247Z" fill="#828EFF"/>
<path d="M3408.61 157.976C3409.8 190.528 3342.15 185.177 3329.17 212.3L3316 209.051C3332.77 190.895 3369.88 171.77 3398.26 164.191C3393.74 150.07 3395.07 141.982 3395.39 128.959C3396.03 102.379 3394.42 70.6755 3399.17 49.6981C3400.59 43.439 3403.46 33.51 3412.76 32.9182C3417.61 48.0949 3411.67 63.5398 3409.25 77.8314C3405.08 102.559 3401.77 127.856 3408.61 157.976Z" fill="#828EFF"/>
<path d="M3283 340.55L3292 343.55L3301 340.55" stroke="#4F4D98" stroke-width="2" stroke-linecap="round"/>
<path d="M2712.31 483.807C2706.59 482.051 2705.02 483.028 2702.42 481.67L2698.5 503.55C2708 503.05 2714.83 509.082 2721.6 504.037C2731.34 522.239 2751.24 529.642 2772.13 537.398C2784.29 541.914 2816.64 550.038 2819.33 561.594C2820.64 567.217 2817.03 581.95 2817.42 592.323C2817.84 603.708 2817.92 617.955 2816.22 628.51C2814.78 637.539 2809.9 651.361 2814.22 661.954C2816.37 667.227 2823.21 672.433 2824.57 677.691C2828.36 692.326 2835.94 707.841 2843.89 723.61C2849.04 733.853 2865.13 757.01 2865.09 766.05C2865.06 771.997 2857.85 771.078 2860.09 776.55C2867.09 776.55 2867.59 776.55 2874.09 774.55C2871.92 760.517 2867.86 740.972 2860.84 731.413C2856.01 724.834 2856.95 716.045 2852.57 707.593C2850.85 704.297 2847.45 701.709 2845.63 698.308C2841.19 690.052 2833.06 673.351 2831.29 666.138C2826.36 646.092 2833.67 618.272 2832.74 594.639C2832.12 579.157 2827.71 565.356 2826.96 550.071C2798.9 518.47 2748.08 508.184 2712.31 483.807Z" fill="#828EFF"/>
<path d="M2631.68 517.946C2639.71 512.007 2662.01 499.954 2673.59 502.403L2676.08 481.477C2675.38 486.68 2658.66 479.991 2658.11 485.307C2646.26 486.617 2640.67 493.985 2633.21 498.977C2623.74 505.312 2611.4 509.309 2600.98 515.124C2578.74 527.525 2560.63 539.652 2545.27 556.762C2533.77 571.156 2535.32 604.304 2536.64 626.214C2537.65 643.133 2544.84 659.953 2543.32 670.812C2541.03 687.305 2524.79 693.12 2518.61 706.225C2517.64 710.641 2522.29 709.797 2521.99 713.581C2503.46 724.68 2500.59 753.697 2492.8 775.111C2491.39 778.964 2495.59 778.05 2499.59 778.051C2510.59 778.551 2501.09 775.111 2503.09 770.551C2506.21 758.266 2510.36 736.29 2517.09 729.609C2521.72 721.842 2528.46 712.849 2534.48 704.604C2540.69 696.114 2550.34 689.065 2554.76 681.15C2563.89 664.777 2555.09 650.585 2552.69 633.988C2549.59 612.648 2548.41 591.029 2550.4 565.987C2568.42 553.886 2588.72 547.455 2606.62 536.14C2615.08 530.793 2623.32 524.121 2631.68 517.946Z" fill="#828EFF"/>
<path d="M2794.3 441.092C2770.66 435.368 2753.49 456.952 2731.61 447.18L2703.8 441.092L2699.3 465.156C2712.59 448.551 2725.84 477.133 2739.62 479.141C2743.06 476.789 2740.48 472.7 2740.88 468.315C2750.62 468.188 2755.1 460.708 2764.73 459.138C2774.27 457.58 2784.12 462.161 2794.55 461.025C2803.47 460.056 2812.74 451.883 2822.99 450.187C2831.39 448.794 2839.16 452.521 2843.1 444.51C2856.82 475.206 2860.59 515.219 2871.37 548.686C2872.47 553.713 2878 547.043 2878.6 548.924C2879.93 552.942 2883.85 554.531 2886.48 557.334C2898.01 569.633 2907.83 583.003 2926.21 588.529C2932.37 600.883 2943.35 608.716 2955.2 615.747C2952.78 624.04 2958.15 628.096 2957.38 632.121C2962.9 627.9 2966.13 632.389 2970.98 631.663C2961.31 609.146 2947.87 590.167 2924.67 580.327C2925.36 577.045 2924.21 575.488 2923.07 573.936L2923.06 573.935C2912.27 562.41 2897.63 554.491 2886.02 543.734C2880.23 503.855 2867.94 470.057 2852.32 439.379C2840.22 430.624 2806.44 432.827 2794.3 441.092Z" fill="#828EFF"/>
<path d="M2713.5 527.05C2712.25 519.21 2702.36 512.688 2705 504.05L2667.5 503.55C2667.66 513.085 2661.48 516.072 2663 527.05C2647.23 527.995 2635 531.05 2624.38 539.242C2601.53 563.647 2594.09 609.873 2601.63 652.607C2603.56 663.614 2611.16 677.977 2615.78 690.205C2625.68 716.337 2637.59 728.05 2655.09 744.55C2655.09 744.55 2665.59 756.05 2686.59 763.55C2707.87 750.057 2733.1 724.507 2747.63 701.79C2752.77 693.753 2759.22 684.954 2762.94 676.935C2775.46 649.961 2777.83 606.12 2769.83 577.539C2761.57 548.035 2744.49 534.007 2713.5 527.05Z" fill="#828EFF"/>
<path d="M2751.37 345.516C2739.88 352.936 2732.29 371.136 2719.5 374.051L2715 384.051L2716 391.051C2719 390.051 2743.39 371.477 2758.19 358.42C2768.47 349.354 2784.61 329.996 2789.45 316.882C2798.23 293.03 2792.41 268.788 2802.54 249.388C2805.52 243.685 2812.87 238.483 2817.61 231.771C2824.07 222.61 2827.05 215.729 2832.89 207.821C2842.37 194.966 2850.32 183.66 2862.91 176.205C2858.91 174.247 2851.14 166.972 2848.64 169.396C2845.11 169.687 2848.07 176.904 2845.63 178.353C2843.89 177.929 2845.69 174.209 2842.1 175.52C2837.53 186.56 2829.2 191.971 2823.17 200.256C2820.32 204.182 2819.16 209.548 2816.39 213.618C2812.27 219.681 2807.7 224.939 2804.04 231.324C2800.64 237.255 2798 246.899 2789.9 248.066C2789.18 240.299 2799.48 234.751 2794.18 228.283C2789.36 229.261 2787.26 235.104 2786.58 238.901C2783.63 255.277 2787.91 290.602 2782.57 305.788C2780.24 312.413 2770.37 318.674 2765.66 324.25C2759.33 331.73 2755.55 338.247 2751.37 345.516Z" fill="#828EFF"/>
<path d="M2606.45 329.618C2623.5 357.55 2628 372.05 2654.5 388.051C2654.5 386.05 2654.88 378.793 2653 376.551C2635.8 355.994 2628.72 332.247 2608.68 317.012C2611.13 294.3 2599.99 267.78 2602.86 246.178C2603.56 240.953 2607.29 236.729 2606.96 231.823C2606.57 226.089 2601.19 219.11 2597.51 216.115C2591.94 221.361 2605.18 230.702 2599.57 236.108C2592.65 234.456 2590.46 226.313 2584.67 221.127C2579.83 216.796 2573.75 214.136 2572.33 210.758C2570.35 206.054 2564.2 205.087 2560.84 202.229C2557.16 199.114 2553.32 194.676 2549.43 190.986C2545.49 187.243 2540.38 182.637 2538.03 179.742C2532.39 172.799 2536.59 163.551 2524.59 169.051C2515.59 168.05 2531.7 185.456 2539.42 192.468C2545.95 198.398 2549.55 207.035 2555.05 212.906C2566 224.603 2584.35 230.933 2590.2 245.762C2590.66 270.884 2590.51 293.52 2597.94 313.036C2600.11 318.712 2604.15 323.605 2606.45 329.618Z" fill="#828EFF"/>
<path d="M2722.17 347.255C2719.12 334.974 2694.01 328.48 2688 320.051C2683.3 328.454 2662.02 329.522 2657.27 337.874C2651.9 349.551 2649.22 379.97 2657 396.051C2666.91 407.491 2662.66 430.618 2659.5 447.551C2657.96 452.154 2667.5 461.551 2667.23 467.564C2665.61 473.064 2664.85 476.765 2664.3 482.106C2663.75 487.446 2667.08 493.498 2667.23 503.032C2667.39 512.567 2661.33 515.457 2662.84 526.435C2664 531.051 2703.51 537.035 2713 527.551C2716 524.551 2702.36 512.688 2705 504.051C2702.5 501.051 2713.05 484.983 2710.44 483.624C2711.47 470.093 2715.11 459.375 2716.21 445.776C2711.98 435.126 2711.22 421.925 2711.5 407.051C2715.34 395.435 2725.19 359.41 2722.17 347.255Z" fill="#545CA6"/>
<path d="M2747.61 293.156C2742.96 305.087 2718.18 328.323 2715.56 337.682C2713.5 341.55 2706.68 350.595 2703 354.55C2690.16 368.322 2684.87 356.778 2673.5 348.05C2668.35 342.313 2660.48 326.278 2656.1 319.715C2646.53 311.29 2634.51 292.104 2629.22 273.505C2626.6 264.273 2629.34 257.471 2629.32 249.049C2629.31 243.973 2627.3 238.947 2627.94 234.604C2631.26 212.084 2654.69 204.209 2680.48 207.516C2691.15 212.267 2721.81 207.449 2730.33 208.592C2747.64 210.916 2751.35 225.098 2754.99 242.196C2756.22 248.022 2759.38 254.363 2759.17 259.266C2758.73 269.459 2751.69 282.682 2747.61 293.156Z" fill="#828EFF"/>
<path d="M2742.87 273.058C2747.46 263.788 2743.26 252.34 2733.47 247.487C2723.69 242.634 2712.03 246.215 2707.43 255.484C2702.84 264.753 2702.26 285.837 2712.05 290.69C2721.83 295.542 2738.27 282.327 2742.87 273.058Z" fill="#075CFF"/>
<path d="M2640.65 273.284C2636.06 264.015 2640.26 252.566 2650.05 247.714C2659.83 242.861 2671.49 246.441 2676.09 255.711C2680.68 264.98 2681.26 286.063 2671.47 290.916C2661.69 295.769 2645.25 282.553 2640.65 273.284Z" fill="#075CFF"/>
<path d="M2662 382.05C2662 385.64 2658.54 388.55 2655.5 388.55C2652 387.05 2650 385.64 2650 382.05C2650 378.46 2648 375.05 2654 374.05C2661 374.05 2662 378.46 2662 382.05Z" fill="#828EFF"/>
<path d="M2672 454.93C2672 459.138 2669.21 462.55 2666 462.55C2661.86 461.55 2659.34 459.138 2659.34 454.93C2659.34 450.721 2657.23 446.723 2663.56 445.55C2670.94 445.55 2672 450.721 2672 454.93Z" fill="#828EFF"/>
<path d="M2674 493.585C2674 498.536 2667.5 503.55 2667 502.05C2667 502.55 2660.28 499.036 2660.28 494.085C2660.28 489.133 2658.17 484.43 2664.5 483.05C2671.89 483.05 2674 488.633 2674 493.585Z" fill="#828EFF"/>
<path d="M2699 494.03C2699 499.426 2704.5 505.05 2706.5 504.05C2709 502.55 2713.64 499.971 2713.64 494.575C2713.64 489.179 2715.89 484.053 2709.14 482.55C2701.26 482.55 2699 488.634 2699 494.03Z" fill="#828EFF"/>
<path d="M2722.16 454.311C2722.16 458.768 2718.37 462.38 2715.16 462.38C2711.02 461.322 2708.5 458.768 2708.5 454.311C2708.5 449.855 2709.17 444.792 2715.5 443.55C2723.34 446.72 2721.16 449.91 2722.16 454.311Z" fill="#828EFF"/>
<path d="M2710 382.086C2710 385.676 2711.96 391.586 2715 391.586C2718.5 390.086 2722 385.676 2722 382.086C2722 378.497 2724 374.586 2718 373.586C2711 373.586 2710 378.497 2710 382.086Z" fill="#828EFF"/>
<path d="M2606.8 131.254C2592.49 160.518 2656.49 183.102 2657.33 213.158L2670.96 216.543C2663.01 193.143 2636.59 159.589 2613.73 141.138C2623.59 130.067 2625.66 122.136 2630.66 110.107C2640.87 85.5562 2655.22 57.2408 2659.39 36.1397C2660.64 29.8449 2662.05 19.6065 2653.79 15.2876C2643.2 27.1888 2642.35 43.7141 2638.76 57.755C2632.53 82.0463 2625.28 106.506 2606.8 131.254Z" fill="#828EFF"/>
<path d="M2776.81 131.254C2791.11 160.518 2727.12 183.102 2726.28 213.158L2712.64 216.543C2720.59 193.143 2747.01 159.589 2769.87 141.138C2760.01 130.067 2757.94 122.136 2752.94 110.107C2742.74 85.5562 2728.38 57.2408 2724.21 36.1397C2722.96 29.8449 2721.55 19.6065 2729.81 15.2876C2740.4 27.1888 2741.25 43.7141 2744.85 57.755C2751.08 82.0463 2758.33 106.506 2776.81 131.254Z" fill="#828EFF"/>
<path d="M2630.9 475.247C2643.33 473.347 2657.71 456.655 2670.08 460.861L2671.76 450.519L2641.05 442.071C2604.92 445.597 2564.15 418.121 2531.82 431.231C2520.44 435.842 2508.83 471.853 2505.61 484.708C2502.09 498.74 2506.75 515.447 2502.34 528.978C2500.42 534.857 2489.09 543.495 2481.78 548.226C2476.84 551.424 2471.02 553.844 2466.16 554.957C2454.43 573.328 2436.23 584.794 2422.09 600.601C2436.09 600.6 2433.09 604.051 2440.59 604.05C2439.59 600.601 2438.29 598.552 2440.59 593.55C2465.23 579.599 2488.45 552.541 2511.15 536.513C2520.49 526.964 2517.13 506.893 2521.62 493.386C2525.84 480.685 2537.19 470.452 2537.44 453.152C2550.57 434.776 2571.03 454.776 2591.66 456.748C2606.59 458.175 2619.96 450.288 2626.79 462.432C2629.54 462.246 2630.12 459.739 2634.09 460.861C2632.17 464.355 2628.37 470.042 2630.9 475.247Z" fill="#828EFF"/>
<path d="M2683 340.55L2692 343.55L2701 340.55" stroke="#4F4D98" stroke-width="2" stroke-linecap="round"/>
<path d="M2112.31 484.13C2106.59 482.375 2105.02 483.352 2102.42 481.993L2098.5 503.874C2108 503.374 2114.83 509.406 2121.6 504.361C2131.34 522.563 2151.24 529.965 2172.13 537.722C2184.29 542.238 2216.64 550.362 2219.33 561.917C2220.64 567.54 2217.03 582.274 2217.42 592.647C2217.84 604.032 2217.92 618.279 2216.22 628.834C2214.78 637.863 2209.9 651.685 2214.22 662.278C2216.37 667.551 2223.21 672.757 2224.57 678.014C2228.36 692.65 2235.94 708.165 2243.89 723.934C2249.04 734.176 2265.13 757.334 2265.09 766.374C2265.06 772.32 2257.85 771.402 2260.09 776.874C2267.09 776.874 2267.59 776.874 2274.09 774.874C2271.92 760.84 2267.86 741.296 2260.84 731.737C2256.01 725.158 2256.95 716.368 2252.57 707.917C2250.85 704.621 2247.45 702.033 2245.63 698.632C2241.19 690.376 2233.06 673.675 2231.29 666.462C2226.36 646.416 2233.67 618.596 2232.74 594.962C2232.12 579.48 2227.71 565.68 2226.96 550.395C2198.9 518.794 2148.08 508.508 2112.31 484.13Z" fill="#828EFF"/>
<path d="M2031.68 518.27C2039.71 512.33 2062.01 500.277 2073.59 502.727L2076.08 481.801C2075.38 487.004 2058.66 480.315 2058.11 485.63C2046.26 486.941 2040.67 494.309 2033.21 499.301C2023.74 505.636 2011.4 509.632 2000.98 515.448C1978.74 527.848 1960.63 539.976 1945.27 557.085C1933.77 571.48 1935.32 604.628 1936.64 626.538C1937.65 643.456 1944.84 660.277 1943.32 671.135C1941.03 687.628 1924.79 693.443 1918.61 706.548C1917.64 710.964 1922.29 710.121 1921.99 713.905C1903.46 725.003 1900.59 754.021 1892.8 775.435C1891.39 779.288 1895.59 778.374 1899.59 778.374C1910.59 778.874 1901.09 775.434 1903.09 770.874C1906.21 758.59 1910.36 736.613 1917.09 729.932C1921.72 722.166 1928.46 713.172 1934.48 704.928C1940.69 696.437 1950.34 689.389 1954.76 681.474C1963.89 665.1 1955.09 650.909 1952.69 634.311C1949.59 612.971 1948.41 591.352 1950.4 566.311C1968.42 554.21 1988.72 547.779 2006.62 536.463C2015.08 531.117 2023.32 524.445 2031.68 518.27Z" fill="#828EFF"/>
<path d="M2194.3 441.416C2170.66 435.691 2153.49 457.275 2131.61 447.503L2103.8 441.416L2099.3 465.479C2112.59 448.874 2125.84 477.456 2139.62 479.465C2143.06 477.112 2140.48 473.023 2140.88 468.638C2150.62 468.511 2155.1 461.031 2164.73 459.461C2174.27 457.903 2184.12 462.484 2194.55 461.348C2203.47 460.379 2212.74 452.206 2222.99 450.511C2231.39 449.117 2239.16 452.844 2243.1 444.833C2256.82 475.529 2260.59 515.542 2271.37 549.009C2272.47 554.037 2278 547.366 2278.6 549.247C2279.93 553.266 2283.85 554.854 2286.48 557.657C2298.01 569.956 2307.83 583.326 2326.21 588.852C2332.37 601.206 2343.35 609.039 2355.2 616.07C2352.78 624.363 2358.15 628.419 2357.38 632.444C2362.9 628.223 2366.13 632.712 2370.98 631.986C2361.31 609.469 2347.87 590.491 2324.67 580.65C2325.36 577.369 2324.21 575.811 2323.07 574.259L2323.06 574.258C2312.27 562.733 2297.63 554.814 2286.02 544.057C2280.23 504.179 2267.94 470.38 2252.32 439.703C2240.22 430.947 2206.44 433.151 2194.3 441.416Z" fill="#828EFF"/>
<path d="M2113.5 527.374C2112.25 519.534 2102.36 513.012 2105 504.374L2067.5 503.874C2067.66 513.409 2061.48 516.396 2063 527.374C2047.23 528.319 2035 531.374 2024.38 539.566C2001.53 563.971 1994.09 610.197 2001.63 652.93C2003.56 663.938 2011.16 678.301 2015.78 690.529C2025.68 716.661 2037.59 728.374 2055.09 744.874C2055.09 744.874 2065.59 756.374 2086.59 763.874C2107.87 750.381 2133.1 724.83 2147.63 702.114C2152.77 694.076 2159.22 685.277 2162.94 677.259C2175.46 650.285 2177.83 606.443 2169.83 577.863C2161.57 548.358 2144.49 534.331 2113.5 527.374Z" fill="#828EFF"/>
<path d="M2151.37 345.839C2139.88 353.259 2132.29 371.46 2119.5 374.375L2115 384.374L2116 391.374C2119 390.374 2143.39 371.8 2158.19 358.743C2168.47 349.677 2184.61 330.319 2189.45 317.205C2198.23 293.354 2192.41 269.111 2202.54 249.711C2205.52 244.008 2212.87 238.806 2217.61 232.094C2224.07 222.933 2227.05 216.053 2232.89 208.144C2242.37 195.289 2250.32 183.983 2262.91 176.528C2258.91 174.57 2251.14 167.296 2248.64 169.719C2245.11 170.011 2248.07 177.228 2245.63 178.677C2243.89 178.252 2245.69 174.533 2242.1 175.844C2237.53 186.883 2229.2 192.294 2223.17 200.579C2220.32 204.505 2219.16 209.871 2216.39 213.941C2212.27 220.004 2207.7 225.262 2204.04 231.647C2200.64 237.578 2198 247.222 2189.9 248.39C2189.18 240.623 2199.48 235.075 2194.18 228.606C2189.36 229.584 2187.26 235.427 2186.58 239.224C2183.63 255.6 2187.91 290.926 2182.57 306.111C2180.24 312.736 2170.37 318.998 2165.66 324.573C2159.33 332.053 2155.55 338.57 2151.37 345.839Z" fill="#828EFF"/>
<path d="M2006.45 329.941C2023.5 357.874 2028 372.374 2054.5 388.375C2054.5 386.374 2054.88 379.117 2053 376.874C2035.8 356.318 2028.72 332.571 2008.68 317.335C2011.13 294.623 1999.99 268.103 2002.86 246.502C2003.56 241.277 2007.29 237.053 2006.96 232.146C2006.57 226.413 2001.19 219.433 1997.51 216.439C1991.94 221.685 2005.18 231.026 1999.57 236.432C1992.65 234.78 1990.46 226.637 1984.67 221.45C1979.83 217.12 1973.75 214.46 1972.33 211.082C1970.35 206.378 1964.2 205.411 1960.84 202.553C1957.16 199.438 1953.32 195 1949.43 191.309C1945.49 187.567 1940.38 182.961 1938.03 180.066C1932.39 173.123 1936.59 163.874 1924.59 169.374C1915.59 168.374 1931.7 185.78 1939.42 192.791C1945.95 198.722 1949.55 207.359 1955.05 213.23C1966 224.926 1984.35 231.256 1990.2 246.085C1990.66 271.207 1990.51 293.844 1997.94 313.359C2000.11 319.036 2004.15 323.928 2006.45 329.941Z" fill="#828EFF"/>
<path d="M2122.17 347.578C2119.12 335.297 2094.01 328.803 2088 320.374C2083.3 328.778 2062.02 329.845 2057.27 338.197C2051.9 349.874 2049.22 380.293 2057 396.374C2066.91 407.815 2062.66 430.942 2059.5 447.874C2057.96 452.478 2067.5 461.874 2067.23 467.888C2065.61 473.388 2064.85 477.088 2064.3 482.429C2063.75 487.769 2067.08 493.821 2067.23 503.356C2067.39 512.89 2061.33 515.78 2062.84 526.758C2064 531.374 2103.51 537.358 2113 527.874C2116 524.874 2102.36 513.012 2105 504.374C2102.5 501.374 2113.05 485.306 2110.44 483.947C2111.47 470.416 2115.11 459.699 2116.21 446.1C2111.98 435.45 2111.22 422.248 2111.5 407.374C2115.34 395.758 2125.19 359.733 2122.17 347.578Z" fill="#545CA6"/>
<path d="M2147.61 293.48C2142.96 305.411 2118.18 328.647 2115.56 338.006C2113.5 341.874 2106.68 350.919 2103 354.874C2090.16 368.645 2084.87 357.102 2073.5 348.374C2068.35 342.637 2060.48 326.601 2056.1 320.039C2046.53 311.614 2034.51 292.427 2029.22 273.829C2026.6 264.597 2029.34 257.795 2029.32 249.373C2029.31 244.297 2027.3 239.271 2027.94 234.928C2031.26 212.408 2054.69 204.533 2080.48 207.84C2091.15 212.59 2121.81 207.772 2130.33 208.916C2147.64 211.239 2151.35 225.422 2154.99 242.52C2156.22 248.345 2159.38 254.687 2159.17 259.589C2158.73 269.782 2151.69 283.006 2147.61 293.48Z" fill="#828EFF"/>
<path d="M2142.87 273.381C2147.46 264.112 2143.26 252.664 2133.47 247.811C2123.69 242.958 2112.03 246.538 2107.43 255.808C2102.84 265.077 2102.26 286.161 2112.05 291.013C2121.83 295.866 2138.27 282.651 2142.87 273.381Z" fill="#075CFF"/>
<path d="M2040.65 273.608C2036.06 264.338 2040.26 252.89 2050.05 248.037C2059.83 243.185 2071.49 246.765 2076.09 256.034C2080.68 265.304 2081.26 286.387 2071.47 291.24C2061.69 296.093 2045.25 282.877 2040.65 273.608Z" fill="#075CFF"/>
<path d="M2062 382.374C2062 385.964 2058.54 388.874 2055.5 388.874C2052 387.374 2050 385.964 2050 382.374C2050 378.784 2048 375.374 2054 374.374C2061 374.374 2062 378.784 2062 382.374Z" fill="#828EFF"/>
<path d="M2072 455.253C2072 459.462 2069.21 462.874 2066 462.874C2061.86 461.874 2059.34 459.462 2059.34 455.253C2059.34 451.045 2057.23 447.046 2063.56 445.874C2070.94 445.874 2072 451.045 2072 455.253Z" fill="#828EFF"/>
<path d="M2074 493.908C2074 498.86 2067.5 503.874 2067 502.374C2067 502.874 2060.28 499.36 2060.28 494.409C2060.28 489.457 2058.17 484.753 2064.5 483.374C2071.89 483.374 2074 488.957 2074 493.908Z" fill="#828EFF"/>
<path d="M2099 494.354C2099 499.75 2104.5 505.374 2106.5 504.374C2109 502.874 2113.64 500.295 2113.64 494.899C2113.64 489.503 2115.89 484.377 2109.14 482.874C2101.26 482.874 2099 488.958 2099 494.354Z" fill="#828EFF"/>
<path d="M2122.16 454.635C2122.16 459.092 2118.37 462.704 2115.16 462.704C2111.02 461.645 2108.5 459.092 2108.5 454.635C2108.5 450.179 2109.17 445.115 2115.5 443.874C2123.34 447.044 2121.16 450.233 2122.16 454.635Z" fill="#828EFF"/>
<path d="M2110 382.41C2110 386 2111.96 391.91 2115 391.91C2118.5 390.41 2122 386 2122 382.41C2122 378.82 2124 374.91 2118 373.91C2111 373.91 2110 378.82 2110 382.41Z" fill="#828EFF"/>
<path d="M1968.06 187.738C1976.37 219.235 2039.56 194.491 2059.85 216.684L2072.38 210.334C2051.06 197.823 2009.13 189.704 1979.78 190.682C1980 175.859 1976.38 168.505 1972.3 156.133C1963.97 130.883 1956.32 100.074 1945.69 81.3775C1942.52 75.7982 1936.89 67.1283 1927.82 69.2603C1927.58 85.1898 1937.75 98.2485 1944.2 111.225C1955.37 133.678 1965.87 156.929 1968.06 187.738Z" fill="#828EFF"/>
<path d="M2161.35 121.236C2180.93 147.271 2122.35 181.537 2127.2 211.211L2114.45 217.111C2117.84 192.629 2137.45 154.689 2156.41 132.253C2144.63 123.243 2141.1 115.846 2133.92 104.978C2119.26 82.7969 2099.82 57.7021 2091.74 37.769C2089.32 31.8232 2086 22.0355 2093.3 16.234C2105.95 25.9205 2109.9 41.9885 2116.08 55.0974C2126.79 77.7751 2138.53 100.425 2161.35 121.236Z" fill="#828EFF"/>
<path d="M2030.9 475.57C2043.33 473.67 2057.71 456.979 2070.08 461.184L2071.76 450.842L2041.05 442.395C2004.92 445.92 1964.15 418.445 1931.82 431.554C1920.44 436.166 1908.83 472.176 1905.61 485.031C1902.09 499.064 1906.75 515.771 1902.34 529.301C1900.42 535.18 1889.09 543.818 1881.78 548.549C1876.84 551.747 1871.02 554.167 1866.16 555.28C1854.43 573.651 1836.23 585.118 1822.09 600.924C1836.09 600.923 1833.09 604.374 1840.59 604.373C1839.59 600.924 1838.29 598.875 1840.59 593.873C1865.23 579.922 1888.45 552.864 1911.15 536.836C1920.49 527.287 1917.13 507.217 1921.62 493.709C1925.84 481.008 1937.19 470.775 1937.44 453.475C1950.57 435.1 1971.03 455.099 1991.66 457.071C2006.59 458.498 2019.96 450.611 2026.79 462.756C2029.54 462.569 2030.12 460.063 2034.09 461.184C2032.17 464.678 2028.37 470.365 2030.9 475.57Z" fill="#828EFF"/>
<path d="M2083 340.874L2092 343.874L2101 340.874" stroke="#4F4D98" stroke-width="2" stroke-linecap="round"/>
<path d="M1512.31 484.257C1506.59 482.501 1505.02 483.479 1502.42 482.12L1498.5 504C1508 503.5 1514.83 509.532 1521.6 504.487C1531.34 522.689 1551.24 530.092 1572.13 537.848C1584.29 542.364 1616.64 550.489 1619.33 562.044C1620.64 567.667 1617.03 582.401 1617.42 592.773C1617.84 604.158 1617.92 618.405 1616.22 628.961C1614.78 637.99 1609.9 651.811 1614.22 662.404C1616.37 667.677 1623.21 672.884 1624.57 678.141C1628.36 692.777 1635.94 708.292 1643.89 724.06C1649.04 734.303 1665.13 757.46 1665.09 766.501C1665.06 772.447 1657.85 771.528 1660.09 777C1667.09 777 1667.59 777 1674.09 775.001C1671.92 760.967 1667.86 741.423 1660.84 731.863C1656.01 725.284 1656.95 716.495 1652.57 708.044C1650.85 704.747 1647.45 702.16 1645.63 698.759C1641.19 690.502 1633.06 673.802 1631.29 666.589C1626.36 646.542 1633.67 618.722 1632.74 595.089C1632.12 579.607 1627.71 565.806 1626.96 550.521C1598.9 518.921 1548.08 508.634 1512.31 484.257Z" fill="#828EFF"/>
<path d="M1431.68 518.396C1439.71 512.457 1462.01 500.404 1473.59 502.853L1476.08 481.927C1475.38 487.13 1458.66 480.441 1458.11 485.757C1446.26 487.067 1440.67 494.435 1433.21 499.427C1423.74 505.762 1411.4 509.759 1400.98 515.574C1378.74 527.974 1360.63 540.102 1345.27 557.212C1333.77 571.606 1335.32 604.754 1336.64 626.664C1337.65 643.583 1344.84 660.403 1343.32 671.262C1341.03 687.755 1324.79 693.57 1318.61 706.675C1317.64 711.091 1322.29 710.247 1321.99 714.031C1303.46 725.129 1300.59 754.147 1292.8 775.561C1291.39 779.414 1295.59 778.5 1299.59 778.501C1310.59 779 1301.09 775.561 1303.09 771C1306.21 758.716 1310.36 736.74 1317.09 730.059C1321.72 722.292 1328.46 713.298 1334.48 705.054C1340.69 696.564 1350.34 689.515 1354.76 681.6C1363.89 665.227 1355.09 651.035 1352.69 634.438C1349.59 613.098 1348.41 591.479 1350.4 566.437C1368.42 554.336 1388.72 547.905 1406.62 536.59C1415.08 531.243 1423.32 524.571 1431.68 518.396Z" fill="#828EFF"/>
<path d="M1594.3 441.542C1570.66 435.818 1553.49 457.401 1531.61 447.63L1503.8 441.542L1499.3 465.605C1512.59 449 1525.84 477.583 1539.62 479.591C1543.06 477.239 1540.48 473.149 1540.88 468.765C1550.62 468.638 1555.1 461.157 1564.73 459.587C1574.27 458.03 1584.12 462.611 1594.55 461.475C1603.47 460.505 1612.74 452.332 1622.99 450.637C1631.39 449.243 1639.16 452.971 1643.1 444.959C1656.82 475.655 1660.59 515.669 1671.37 549.135C1672.47 554.163 1678 547.492 1678.6 549.374C1679.93 553.392 1683.85 554.98 1686.48 557.784C1698.01 570.083 1707.83 583.453 1726.21 588.978C1732.37 601.332 1743.35 609.165 1755.2 616.197C1752.78 624.49 1758.15 628.546 1757.38 632.57C1762.9 628.35 1766.13 632.839 1770.98 632.112C1761.31 609.596 1747.87 590.617 1724.67 580.777C1725.36 577.495 1724.21 575.938 1723.07 574.386L1723.06 574.384C1712.27 562.859 1697.63 554.941 1686.02 544.184C1680.23 504.305 1667.94 470.507 1652.32 439.829C1640.22 431.074 1606.44 433.277 1594.3 441.542Z" fill="#828EFF"/>
<path d="M1513.5 527.5C1512.25 519.661 1502.36 513.138 1505 504.5L1467.5 504C1467.66 513.535 1461.48 516.522 1463 527.5C1447.23 528.445 1435 531.5 1424.38 539.692C1401.53 564.097 1394.09 610.323 1401.63 653.057C1403.56 664.064 1411.16 678.427 1415.78 690.655C1425.68 716.787 1437.59 728.5 1455.09 745C1455.09 745 1465.59 756.5 1486.59 764.001C1507.87 750.507 1533.1 724.957 1547.63 702.24C1552.77 694.203 1559.22 685.404 1562.94 677.385C1575.46 650.411 1577.83 606.57 1569.83 577.989C1561.57 548.485 1544.49 534.458 1513.5 527.5Z" fill="#828EFF"/>
<path d="M1551.37 345.965C1539.88 353.386 1532.29 371.586 1519.5 374.501L1515 384.501L1516 391.5C1519 390.5 1543.39 371.927 1558.19 358.869C1568.47 349.803 1584.61 330.446 1589.45 317.332C1598.23 293.48 1592.41 269.238 1602.54 249.838C1605.52 244.135 1612.87 238.933 1617.61 232.221C1624.07 223.06 1627.05 216.179 1632.89 208.271C1642.37 195.415 1650.32 184.11 1662.91 176.655C1658.91 174.697 1651.14 167.422 1648.64 169.846C1645.11 170.137 1648.07 177.354 1645.63 178.803C1643.89 178.379 1645.69 174.659 1642.1 175.97C1637.53 187.01 1629.2 192.421 1623.17 200.706C1620.32 204.632 1619.16 209.997 1616.39 214.067C1612.27 220.13 1607.7 225.389 1604.04 231.774C1600.64 237.705 1598 247.349 1589.9 248.516C1589.18 240.749 1599.48 235.201 1594.18 228.732C1589.36 229.711 1587.26 235.554 1586.58 239.35C1583.63 255.726 1587.91 291.052 1582.57 306.237C1580.24 312.863 1570.37 319.124 1565.66 324.7C1559.33 332.18 1555.55 338.697 1551.37 345.965Z" fill="#828EFF"/>
<path d="M1406.45 330.068C1423.5 358 1428 372.5 1454.5 388.501C1454.5 386.5 1454.88 379.244 1453 377.001C1435.8 356.444 1428.72 332.697 1408.68 317.462C1411.13 294.75 1399.99 268.23 1402.86 246.629C1403.56 241.404 1407.29 237.179 1406.96 232.273C1406.57 226.539 1401.19 219.56 1397.51 216.566C1391.94 221.811 1405.18 231.153 1399.57 236.558C1392.65 234.906 1390.46 226.764 1384.67 221.577C1379.83 217.246 1373.75 214.586 1372.33 211.208C1370.35 206.504 1364.2 205.537 1360.84 202.679C1357.16 199.565 1353.32 195.126 1349.43 191.436C1345.49 187.694 1340.38 183.088 1338.03 180.193C1332.39 173.25 1336.59 164.001 1324.59 169.501C1315.59 168.5 1331.7 185.906 1339.42 192.918C1345.95 198.848 1349.55 207.485 1355.05 213.357C1366 225.053 1384.35 231.383 1390.2 246.212C1390.66 271.334 1390.51 293.97 1397.94 313.486C1400.11 319.162 1404.15 324.055 1406.45 330.068Z" fill="#828EFF"/>
<path d="M1522.17 347.705C1519.12 335.423 1494.01 328.93 1488 320.5C1483.3 328.904 1462.02 329.971 1457.27 338.323C1451.9 350.001 1449.22 380.42 1457 396.5C1466.91 407.941 1462.66 431.068 1459.5 448C1457.96 452.604 1467.5 462 1467.23 468.014C1465.61 473.514 1464.85 477.215 1464.3 482.555C1463.75 487.896 1467.08 493.947 1467.23 503.482C1467.39 513.017 1461.33 515.906 1462.84 526.885C1464 531.5 1503.51 537.485 1513 528C1516 525 1502.36 513.138 1505 504.5C1502.5 501.5 1513.05 485.433 1510.44 484.074C1511.47 470.543 1515.11 459.825 1516.21 446.226C1511.98 435.576 1511.22 422.374 1511.5 407.5C1515.34 395.885 1525.19 359.86 1522.17 347.705Z" fill="#545CA6"/>
<path d="M1547.61 293.606C1542.96 305.538 1518.18 328.774 1515.56 338.133C1513.5 342 1506.68 351.045 1503 355C1490.16 368.772 1484.87 357.228 1473.5 348.5C1468.35 342.763 1460.48 326.728 1456.1 320.165C1446.53 311.74 1434.51 292.554 1429.22 273.955C1426.6 264.724 1429.34 257.921 1429.32 249.499C1429.31 244.423 1427.3 239.397 1427.94 235.054C1431.26 212.535 1454.69 204.659 1480.48 207.966C1491.15 212.717 1521.81 207.899 1530.33 209.042C1547.64 211.366 1551.35 225.548 1554.99 242.646C1556.22 248.472 1559.38 254.813 1559.17 259.716C1558.73 269.909 1551.69 283.132 1547.61 293.606Z" fill="#828EFF"/>
<path d="M1542.87 273.508C1547.46 264.238 1543.26 252.79 1533.47 247.937C1523.69 243.085 1512.03 246.665 1507.43 255.934C1502.84 265.204 1502.26 286.287 1512.05 291.14C1521.83 295.992 1538.27 282.777 1542.87 273.508Z" fill="#075CFF"/>
<path d="M1440.65 273.734C1436.06 264.465 1440.26 253.017 1450.05 248.164C1459.83 243.311 1471.49 246.892 1476.09 256.161C1480.68 265.43 1481.26 286.514 1471.47 291.366C1461.69 296.219 1445.25 283.004 1440.65 273.734Z" fill="#075CFF"/>
<path d="M1462 382.5C1462 386.09 1458.54 389 1455.5 389C1452 387.5 1450 386.09 1450 382.5C1450 378.911 1448 375.5 1454 374.5C1461 374.5 1462 378.911 1462 382.5Z" fill="#828EFF"/>
<path d="M1472 455.38C1472 459.589 1469.21 463 1466 463C1461.86 462 1459.34 459.589 1459.34 455.38C1459.34 451.171 1457.23 447.173 1463.56 446C1470.94 446 1472 451.171 1472 455.38Z" fill="#828EFF"/>
<path d="M1474 494.035C1474 498.986 1467.5 504 1467 502.5C1467 503 1460.28 499.486 1460.28 494.535C1460.28 489.583 1458.17 484.88 1464.5 483.5C1471.89 483.5 1474 489.083 1474 494.035Z" fill="#828EFF"/>
<path d="M1499 494.481C1499 499.877 1504.5 505.5 1506.5 504.5C1509 503 1513.64 500.422 1513.64 495.026C1513.64 489.63 1515.89 484.504 1509.14 483C1501.26 483 1499 489.085 1499 494.481Z" fill="#828EFF"/>
<path d="M1522.16 454.762C1522.16 459.218 1518.37 462.831 1515.16 462.831C1511.02 461.772 1508.5 459.218 1508.5 454.762C1508.5 450.305 1509.17 445.242 1515.5 444C1523.34 447.17 1521.16 450.36 1522.16 454.762Z" fill="#828EFF"/>
<path d="M1510 382.536C1510 386.126 1511.96 392.036 1515 392.036C1518.5 390.536 1522 386.126 1522 382.536C1522 378.946 1524 375.036 1518 374.036C1511 374.036 1510 378.946 1510 382.536Z" fill="#828EFF"/>
<path d="M1618.01 187.865C1609.7 219.361 1546.51 194.617 1526.23 216.811L1513.7 210.46C1535.01 197.949 1576.94 189.831 1606.3 190.809C1606.07 175.985 1609.69 168.632 1613.77 156.26C1622.1 131.01 1629.75 100.2 1640.38 81.504C1643.55 75.9247 1649.18 67.2547 1658.25 69.3868C1658.49 85.3163 1648.33 98.3749 1641.87 111.351C1630.7 133.805 1620.2 157.055 1618.01 187.865Z" fill="#828EFF"/>
<path d="M1368.06 187.865C1376.37 219.361 1439.56 194.617 1459.85 216.811L1472.38 210.46C1451.06 197.949 1409.13 189.831 1379.78 190.809C1380 175.985 1376.38 168.632 1372.3 156.26C1363.97 131.01 1356.32 100.2 1345.69 81.504C1342.52 75.9247 1336.89 67.2547 1327.82 69.3868C1327.58 85.3163 1337.75 98.3749 1344.2 111.351C1355.37 133.805 1365.87 157.055 1368.06 187.865Z" fill="#828EFF"/>
<path d="M1430.9 475.697C1443.33 473.796 1457.71 457.105 1470.08 461.311L1471.76 450.968L1441.05 442.521C1404.92 446.046 1364.15 418.571 1331.82 431.68C1320.44 436.292 1308.83 472.302 1305.61 485.157C1302.09 499.19 1306.75 515.897 1302.34 529.427C1300.42 535.306 1289.09 543.945 1281.78 548.675C1276.84 551.874 1271.02 554.294 1266.16 555.407C1254.43 573.778 1236.23 585.244 1222.09 601.05C1236.09 601.05 1233.09 604.501 1240.59 604.5C1239.59 601.05 1238.29 599.002 1240.59 594C1265.23 580.049 1288.45 552.99 1311.15 536.963C1320.49 527.413 1317.13 507.343 1321.62 493.836C1325.84 481.134 1337.19 470.901 1337.44 453.601C1350.57 435.226 1371.03 455.225 1391.66 457.197C1406.59 458.625 1419.96 450.738 1426.79 462.882C1429.54 462.696 1430.12 460.189 1434.09 461.311C1432.17 464.805 1428.37 470.491 1430.9 475.697Z" fill="#828EFF"/>
<path d="M1483 341L1492 344L1501 341" stroke="#4F4D98" stroke-width="2" stroke-linecap="round"/>
<path d="M912.308 484.257C906.59 482.501 905.023 483.479 902.416 482.12L898.5 504C908 503.5 914.832 509.532 921.605 504.487C931.335 522.689 951.243 530.092 972.129 537.848C984.288 542.364 1016.64 550.489 1019.33 562.044C1020.64 567.667 1017.03 582.401 1017.42 592.773C1017.84 604.158 1017.92 618.405 1016.22 628.961C1014.78 637.99 1009.9 651.811 1014.22 662.404C1016.37 667.677 1023.21 672.884 1024.57 678.141C1028.36 692.777 1035.94 708.292 1043.89 724.06C1049.04 734.303 1065.13 757.46 1065.09 766.501C1065.06 772.447 1057.85 771.528 1060.09 777C1067.09 777 1067.59 777 1074.09 775.001C1071.92 760.967 1067.86 741.423 1060.84 731.863C1056.01 725.284 1056.95 716.495 1052.57 708.044C1050.85 704.747 1047.45 702.16 1045.63 698.759C1041.19 690.502 1033.06 673.802 1031.29 666.589C1026.36 646.542 1033.67 618.722 1032.74 595.089C1032.12 579.607 1027.71 565.806 1026.96 550.521C998.896 518.921 948.08 508.634 912.308 484.257Z" fill="#828EFF"/>
<path d="M831.676 518.396C839.706 512.457 862.009 500.404 873.592 502.853L876.083 481.927C875.381 487.13 858.66 480.441 858.109 485.757C846.262 487.067 840.671 494.435 833.206 499.427C823.735 505.762 811.397 509.759 800.977 515.574C778.742 527.974 760.627 540.102 745.267 557.212C733.774 571.606 735.324 604.754 736.641 626.664C737.654 643.583 744.839 660.403 743.324 671.262C741.025 687.755 724.788 693.57 718.611 706.675C717.641 711.091 722.287 710.247 721.992 714.031C703.458 725.129 700.586 754.147 692.796 775.561C691.392 779.414 695.587 778.5 699.587 778.501C710.587 779 701.087 775.561 703.087 771C706.211 758.716 710.365 736.74 717.086 730.059C721.724 722.292 728.457 713.298 734.485 705.054C740.686 696.564 750.341 689.515 754.757 681.6C763.89 665.227 755.094 651.035 752.687 634.438C749.591 613.098 748.405 591.479 750.397 566.437C768.42 554.336 788.723 547.905 806.625 536.59C815.083 531.243 823.322 524.571 831.676 518.396Z" fill="#828EFF"/>
<path d="M994.304 441.542C970.659 435.818 953.49 457.401 931.613 447.63L903.797 441.542L899.297 465.605C912.587 449 925.837 477.583 939.618 479.591C943.056 477.239 940.484 473.149 940.88 468.765C950.625 468.638 955.103 461.157 964.729 459.587C974.27 458.03 984.121 462.611 994.554 461.475C1003.47 460.505 1012.74 452.332 1022.99 450.637C1031.39 449.243 1039.16 452.971 1043.1 444.959C1056.82 475.655 1060.59 515.669 1071.37 549.135C1072.47 554.163 1078 547.492 1078.6 549.374C1079.93 553.392 1083.85 554.98 1086.48 557.784C1098.01 570.083 1107.83 583.453 1126.21 588.978C1132.37 601.332 1143.35 609.165 1155.2 616.197C1152.78 624.49 1158.15 628.546 1157.38 632.57C1162.9 628.35 1166.13 632.839 1170.98 632.112C1161.31 609.596 1147.87 590.617 1124.67 580.777C1125.36 577.495 1124.21 575.938 1123.07 574.386L1123.06 574.384C1112.27 562.859 1097.63 554.941 1086.02 544.184C1080.23 504.305 1067.94 470.507 1052.32 439.829C1040.22 431.074 1006.44 433.277 994.304 441.542Z" fill="#828EFF"/>
<path d="M913.5 527.5C912.249 519.661 902.361 513.138 905 504.5L867.5 504C867.659 513.535 861.485 516.522 863 527.5C847.225 528.445 835 531.5 824.376 539.692C801.53 564.097 794.092 610.323 801.626 653.057C803.563 664.064 811.156 678.427 815.785 690.655C825.677 716.787 837.587 728.5 855.087 745C855.087 745 865.587 756.5 886.587 764.001C907.871 750.507 933.101 724.957 947.63 702.24C952.765 694.203 959.218 685.404 962.939 677.385C975.46 650.411 977.833 606.57 969.833 577.989C961.572 548.485 944.486 534.458 913.5 527.5Z" fill="#828EFF"/>
<path d="M951.374 345.965C939.879 353.386 932.29 371.586 919.5 374.501L915 384.501L916 391.5C919 390.5 943.395 371.927 958.195 358.869C968.465 349.803 984.614 330.446 989.449 317.332C998.234 293.48 992.405 269.238 1002.54 249.838C1005.52 244.135 1012.87 238.933 1017.61 232.221C1024.07 223.06 1027.05 216.179 1032.89 208.271C1042.37 195.415 1050.32 184.11 1062.91 176.655C1058.91 174.697 1051.14 167.422 1048.64 169.846C1045.11 170.137 1048.07 177.354 1045.63 178.803C1043.89 178.379 1045.69 174.659 1042.1 175.97C1037.53 187.01 1029.2 192.421 1023.17 200.706C1020.32 204.632 1019.16 209.997 1016.39 214.067C1012.27 220.13 1007.7 225.389 1004.04 231.774C1000.64 237.705 998.001 247.349 989.902 248.516C989.182 240.749 999.478 235.201 994.176 228.732C989.359 229.711 987.265 235.554 986.581 239.35C983.632 255.726 987.909 291.052 982.568 306.237C980.237 312.863 970.371 319.124 965.659 324.7C959.33 332.18 955.548 338.697 951.374 345.965Z" fill="#828EFF"/>
<path d="M806.454 330.068C823.5 358 828 372.5 854.5 388.501C854.5 386.5 854.876 379.244 853 377.001C835.803 356.444 828.716 332.697 808.681 317.462C811.129 294.75 799.992 268.23 802.861 246.629C803.556 241.404 807.288 237.179 806.956 232.273C806.566 226.539 801.191 219.56 797.511 216.566C791.945 221.811 805.177 231.153 799.57 236.558C792.651 234.906 790.458 226.764 784.667 221.577C779.828 217.246 773.747 214.586 772.329 211.208C770.35 206.504 764.198 205.537 760.836 202.679C757.165 199.565 753.316 195.126 749.432 191.436C745.49 187.694 740.379 183.088 738.029 180.193C732.386 173.25 736.587 164.001 724.587 169.501C715.589 168.5 731.702 185.906 739.421 192.918C745.948 198.848 749.553 207.485 755.051 213.357C765.996 225.053 784.354 231.383 790.196 246.212C790.657 271.334 790.505 293.97 797.944 313.486C800.106 319.162 804.147 324.055 806.454 330.068Z" fill="#828EFF"/>
<path d="M922.174 347.705C919.121 335.423 894.012 328.93 888.001 320.5C883.301 328.904 862.023 329.971 857.275 338.323C851.904 350.001 849.22 380.42 857.001 396.5C866.908 407.941 862.664 431.068 859.5 448C857.965 452.604 867.501 462 867.235 468.014C865.608 473.514 864.854 477.215 864.301 482.555C863.748 487.896 867.076 493.947 867.235 503.482C867.394 513.017 861.326 515.906 862.842 526.885C864.001 531.5 903.514 537.485 913 528C916.001 525 902.361 513.138 905 504.5C902.5 501.5 913.047 485.433 910.44 484.074C911.469 470.543 915.107 459.825 916.214 446.226C911.981 435.576 911.222 422.374 911.5 407.5C915.338 395.885 925.19 359.86 922.174 347.705Z" fill="#545CA6"/>
<path d="M947.606 293.606C942.957 305.538 918.177 328.774 915.562 338.133C913.5 342 906.684 351.045 903 355C890.155 368.772 884.867 357.228 873.5 348.5C868.35 342.763 860.479 326.728 856.102 320.165C846.532 311.74 834.509 292.554 829.223 273.955C826.599 264.724 829.339 257.921 829.324 249.499C829.307 244.423 827.3 239.397 827.942 235.054C831.262 212.535 854.69 204.659 880.485 207.966C891.152 212.717 921.811 207.899 930.332 209.042C947.636 211.366 951.348 225.548 954.985 242.646C956.223 248.472 959.381 254.813 959.17 259.716C958.73 269.909 951.689 283.132 947.606 293.606Z" fill="#828EFF"/>
<path d="M942.865 273.508C947.463 264.238 943.258 252.79 933.473 247.937C923.689 243.085 912.03 246.665 907.433 255.934C902.836 265.204 902.262 286.287 912.046 291.14C921.83 295.992 938.268 282.777 942.865 273.508Z" fill="#075CFF"/>
<path d="M840.654 273.734C836.057 264.465 840.262 253.017 850.046 248.164C859.83 243.311 871.489 246.892 876.086 256.161C880.684 265.43 881.258 286.514 871.473 291.366C861.689 296.219 845.252 283.004 840.654 273.734Z" fill="#075CFF"/>
<path d="M862.001 382.5C862.001 386.09 858.538 389 855.501 389C852.001 387.5 850.001 386.09 850.001 382.5C850.001 378.911 848.001 375.5 854.001 374.5C861 374.5 862.001 378.911 862.001 382.5Z" fill="#828EFF"/>
<path d="M872 455.38C872 459.589 869.205 463 866 463C861.859 462 859.338 459.589 859.338 455.38C859.338 451.171 857.227 447.173 863.558 446C870.944 446 872 451.171 872 455.38Z" fill="#828EFF"/>
<path d="M874 494.035C874 498.986 867.5 504 867 502.5C867 503 860.279 499.486 860.279 494.535C860.279 489.583 858.169 484.88 864.5 483.5C871.885 483.5 874 489.083 874 494.035Z" fill="#828EFF"/>
<path d="M899 494.481C899 499.877 904.5 505.5 906.5 504.5C909 503 913.64 500.422 913.64 495.026C913.64 489.63 915.891 484.504 909.136 483C901.256 483 899 489.085 899 494.481Z" fill="#828EFF"/>
<path d="M922.163 454.762C922.163 459.218 918.368 462.831 915.162 462.831C911.021 461.772 908.5 459.218 908.5 454.762C908.5 450.305 909.169 445.242 915.5 444C923.338 447.17 921.163 450.36 922.163 454.762Z" fill="#828EFF"/>
<path d="M910 382.536C910 386.126 911.963 392.036 915 392.036C918.5 390.536 922.001 386.126 922.001 382.536C922.001 378.946 924 375.036 918 374.036C911.001 374.036 910 378.946 910 382.536Z" fill="#828EFF"/>
<path d="M1018.01 187.865C1009.7 219.361 946.512 194.617 926.227 216.811L913.697 210.46C935.01 197.949 976.94 189.831 1006.3 190.809C1006.07 175.985 1009.69 168.632 1013.77 156.26C1022.1 131.01 1029.75 100.2 1040.38 81.504C1043.55 75.9247 1049.18 67.2547 1058.25 69.3868C1058.49 85.3163 1048.33 98.3749 1041.87 111.351C1030.7 133.805 1020.2 157.055 1018.01 187.865Z" fill="#828EFF"/>
<path d="M774.847 158.426C773.659 190.977 841.311 185.626 854.287 212.75L867.137 208.423C850.368 190.267 813.581 172.22 785.202 164.64C789.715 150.519 788.384 142.432 788.068 129.409C787.424 102.829 789.041 71.1252 784.285 50.1478C782.868 43.8887 780 33.9597 770.696 33.3679C765.852 48.5446 771.789 63.9895 774.205 78.2811C778.379 103.008 781.686 128.305 774.847 158.426Z" fill="#828EFF"/>
<path d="M830.9 475.697C843.33 473.796 857.715 457.105 870.084 461.311L871.757 450.968L841.048 442.521C804.922 446.046 764.151 418.571 731.82 431.68C720.443 436.292 708.827 472.302 705.607 485.157C702.091 499.19 706.748 515.897 702.338 529.427C700.419 535.306 689.086 543.945 681.78 548.675C676.84 551.874 671.024 554.294 666.162 555.407C654.428 573.778 636.229 585.244 622.094 601.05C636.087 601.05 633.087 604.501 640.587 604.5C639.587 601.05 638.286 599.002 640.587 594C665.227 580.049 688.451 552.99 711.147 536.963C720.488 527.413 717.128 507.343 721.623 493.836C725.845 481.134 737.186 470.901 737.438 453.601C750.571 435.226 771.03 455.225 791.659 457.197C806.591 458.625 819.963 450.738 826.793 462.882C829.541 462.696 830.117 460.189 834.09 461.311C832.169 464.805 828.374 470.491 830.9 475.697Z" fill="#828EFF"/>
<path d="M883 341L892 344L901 341" stroke="#4F4D98" stroke-width="2" stroke-linecap="round"/>
</svg>
