<svg width="87" height="87" viewBox="0 0 87 87" fill="none" xmlns="http://www.w3.org/2000/svg">
<circle cx="43.5" cy="43.5" r="43.5" fill="#878080" fill-opacity="0.24"/>
<circle cx="43.5" cy="43.5" r="33.5" fill="#312F2F"/>
<path d="M38.4034 35.4786C37.319 34.3942 35.561 34.394 34.4768 35.4783C33.3926 36.5625 33.3927 38.3205 34.4771 39.4049L54.1093 59.037C55.1937 60.1214 56.9517 60.1215 58.0359 59.0373C59.1201 57.9531 59.12 56.1951 58.0356 55.1107L38.4034 35.4786Z" stroke="white" stroke-width="2" stroke-miterlimit="10"/>
<path d="M34.4865 35.486C34.2276 35.7448 34.0223 36.0521 33.8821 36.3904C33.742 36.7286 33.6699 37.0911 33.6699 37.4571C33.6699 37.8232 33.742 38.1857 33.8821 38.5239C34.0223 38.8621 34.2276 39.1694 34.4865 39.4283L38.4393 43.3811L42.3816 39.4388L38.4288 35.486C38.1699 35.2271 37.8626 35.0218 37.5244 34.8817C37.1862 34.7415 36.8237 34.6694 36.4576 34.6694C36.0915 34.6694 35.729 34.7415 35.3908 34.8817C35.0526 35.0218 34.7453 35.2271 34.4865 35.486Z" fill="white"/>
<path d="M29.7058 42.6656L26.7158 45.6555Z" fill="white"/>
<path d="M23 36.6857H27.2286M26.7158 27.7158L29.7058 30.7058M35.6857 24V28.2286M44.6555 27.7158L41.6656 30.7058M29.7058 42.6656L26.7158 45.6555" stroke="white" stroke-width="2" stroke-miterlimit="10"/>
</svg>
