<svg width="87" height="87" viewBox="0 0 87 87" fill="none" xmlns="http://www.w3.org/2000/svg">
<circle cx="43.5" cy="43.5" r="43.5" fill="#878080" fill-opacity="0.24"/>
<circle cx="43.5" cy="43.5" r="33.5" fill="#312F2F"/>
<path d="M38.4034 35.4786C37.319 34.3942 35.561 34.394 34.4768 35.4783C33.3926 36.5625 33.3927 38.3205 34.4771 39.4049L54.1093 59.037C55.1937 60.1214 56.9517 60.1215 58.0359 59.0373C59.1201 57.9531 59.12 56.1951 58.0356 55.1107L38.4034 35.4786Z" stroke="white" stroke-width="2" stroke-miterlimit="10"/>
<path d="M34.4865 35.4855C34.2276 35.7444 34.0223 36.0517 33.8821 36.3899C33.742 36.7281 33.6699 37.0906 33.6699 37.4566C33.6699 37.8227 33.742 38.1852 33.8821 38.5234C34.0223 38.8616 34.2276 39.1689 34.4865 39.4278L38.4393 43.3806L42.3816 39.4383L38.4288 35.4855C38.1699 35.2266 37.8626 35.0213 37.5244 34.8812C37.1862 34.7411 36.8237 34.6689 36.4576 34.6689C36.0915 34.6689 35.729 34.7411 35.3908 34.8812C35.0526 35.0213 34.7453 35.2266 34.4865 35.4855Z" fill="white"/>
<path d="M23 36.6857H27.2286H23ZM26.7158 27.7158L29.7058 30.7058L26.7158 27.7158ZM35.6857 24V28.2286V24ZM44.6555 27.7158L41.6656 30.7058L44.6555 27.7158ZM29.7058 42.6656L26.7158 45.6555L29.7058 42.6656Z" fill="white"/>
<path d="M29.7058 42.6656L26.7158 45.6555M23 36.6857H27.2286H23ZM26.7158 27.7158L29.7058 30.7058L26.7158 27.7158ZM35.6857 24V28.2286V24ZM44.6555 27.7158L41.6656 30.7058L44.6555 27.7158Z" stroke="white" stroke-width="2" stroke-miterlimit="10" stroke-linecap="round"/>
</svg>
