<svg width="87" height="87" viewBox="0 0 87 87" fill="none" xmlns="http://www.w3.org/2000/svg">
<circle cx="43.5" cy="43.5" r="43.5" fill="#878080" fill-opacity="0.24"/>
<circle cx="43.5" cy="43.5" r="33.5" fill="#312F2F"/>
<path d="M43.2971 29C35.1787 29 26.8509 33.6988 20.2949 43.0963C20.1077 43.3675 20.0052 43.6881 20.0002 44.0176C19.9952 44.347 20.0879 44.6706 20.2668 44.9473C25.3041 52.8324 33.5204 58.9989 43.2971 58.9989C52.9676 58.9989 61.3527 52.8137 66.3994 44.9109C66.574 44.6395 66.6669 44.3237 66.6669 44.001C66.6669 43.6783 66.574 43.3625 66.3994 43.0911C61.3412 35.2789 52.8947 29 43.2971 29Z" stroke="white" stroke-width="2" stroke-linecap="round" stroke-linejoin="round"/>
<path d="M43.3311 52.333C47.9333 52.333 51.6641 48.6022 51.6641 44C51.6641 39.3978 47.9333 35.667 43.3311 35.667C38.7289 35.667 34.998 39.3978 34.998 44C34.998 48.6022 38.7289 52.333 43.3311 52.333Z" fill="#075CFF" stroke="white" stroke-width="2" stroke-miterlimit="10"/>
</svg>
