<svg width="87" height="87" viewBox="0 0 87 87" fill="none" xmlns="http://www.w3.org/2000/svg">
<circle cx="43.5" cy="43.5" r="43.5" fill="#312F2F"/>
<circle cx="43.5" cy="43.5" r="33.5" fill="#878080" fill-opacity="0.24"/>
<path d="M51.3311 43.0745V33.2397C51.3311 32.4945 51.6298 31.7798 52.1613 31.2528C52.6929 30.7258 53.4139 30.4298 54.1656 30.4298C54.9174 30.4298 55.6383 30.7258 56.1699 31.2528C56.7015 31.7798 57.0001 32.4945 57.0001 33.2397V48.6944L51.3311 43.0745ZM51.3311 43.0745V27.6199C51.3311 26.8746 51.0325 26.1599 50.5009 25.6329C49.9694 25.106 49.2484 24.8099 48.4966 24.8099C47.7449 24.8099 47.0239 25.106 46.4924 25.6329C45.9608 26.1599 45.6622 26.8746 45.6622 27.6199V41.6695M51.3311 43.0745L45.6622 41.6695M45.6622 41.6695V24.8099C45.6622 24.0647 45.3635 23.35 44.832 22.823C44.3004 22.296 43.5794 22 42.8277 22C42.0759 22 41.355 22.296 40.8234 22.823C40.2918 23.35 39.9932 24.0647 39.9932 24.8099V41.6695M45.6622 41.6695L39.9932 41.7574M39.9932 41.7574V29.0248C39.9932 28.2796 39.6946 27.5649 39.163 27.0379C38.6314 26.5109 37.9105 26.2149 37.1587 26.2149C36.407 26.2149 35.686 26.5109 35.1544 27.0379C34.6229 27.5649 34.3242 28.2796 34.3242 29.0248V48.6944L39.9932 41.7574Z" stroke="white" stroke-width="2" stroke-linecap="round" stroke-linejoin="round"/>
<path d="M56.9999 48.6807C56.9999 59.0294 51.3636 64.1949 43.6136 64.1949C35.8636 64.1949 32.7187 60.7042 30.9318 56.4378L26.2933 43.7444C25.7067 42.1533 25.9727 40.6777 27.3386 39.9011C28.7055 39.1236 30.5012 39.5238 31.2409 40.9307L34.4545 48.6807" stroke="white" stroke-width="2" stroke-linecap="round" stroke-linejoin="round"/>
<path d="M46.04 59H43.5V49.209L40.4678 50.1494V48.084L45.7676 46.1855H46.04V59Z" fill="white"/>
</svg>
