<svg width="87" height="87" viewBox="0 0 87 87" fill="none" xmlns="http://www.w3.org/2000/svg">
<circle cx="43.5" cy="43.5" r="43.5" fill="#312F2F"/>
<circle cx="43.5" cy="43.5" r="33.5" fill="#878080" fill-opacity="0.24"/>
<path d="M52.3311 43.0745V33.2397C52.3311 32.4945 52.6298 31.7798 53.1613 31.2528C53.6929 30.7258 54.4139 30.4298 55.1656 30.4298C55.9174 30.4298 56.6383 30.7258 57.1699 31.2528C57.7015 31.7798 58.0001 32.4945 58.0001 33.2397V48.6944L52.3311 43.0745ZM52.3311 43.0745V27.6199C52.3311 26.8746 52.0325 26.1599 51.5009 25.6329C50.9694 25.106 50.2484 24.8099 49.4966 24.8099C48.7449 24.8099 48.0239 25.106 47.4924 25.6329C46.9608 26.1599 46.6622 26.8746 46.6622 27.6199V41.6695M52.3311 43.0745L46.6622 41.6695M46.6622 41.6695V24.8099C46.6622 24.0647 46.3635 23.35 45.832 22.823C45.3004 22.296 44.5794 22 43.8277 22C43.0759 22 42.355 22.296 41.8234 22.823C41.2918 23.35 40.9932 24.0647 40.9932 24.8099V41.6695M46.6622 41.6695L40.9932 41.7574M40.9932 41.7574V29.0248C40.9932 28.2796 40.6946 27.5649 40.163 27.0379C39.6314 26.5109 38.9105 26.2149 38.1587 26.2149C37.407 26.2149 36.686 26.5109 36.1544 27.0379C35.6229 27.5649 35.3242 28.2796 35.3242 29.0248V48.6944L40.9932 41.7574Z" stroke="white" stroke-width="2" stroke-linecap="round" stroke-linejoin="round"/>
<path d="M57.9999 48.6807C57.9999 59.0294 52.3636 64.1949 44.6136 64.1949C36.8636 64.1949 33.7187 60.7042 31.9318 56.4378L27.2933 43.7444C26.7067 42.1533 26.9727 40.6777 28.3386 39.9011C29.7055 39.1236 31.5012 39.5238 32.2409 40.9307L35.4545 48.6807" stroke="white" stroke-width="2" stroke-linecap="round" stroke-linejoin="round"/>
<path d="M48.6416 59H39.8701V57.2598L44.0098 52.8477C44.5781 52.2266 44.9971 51.6846 45.2666 51.2217C45.542 50.7588 45.6797 50.3193 45.6797 49.9033C45.6797 49.335 45.5361 48.8896 45.249 48.5674C44.9619 48.2393 44.5518 48.0752 44.0186 48.0752C43.4443 48.0752 42.9902 48.2744 42.6562 48.6729C42.3281 49.0654 42.1641 49.584 42.1641 50.2285H39.6152C39.6152 49.4492 39.7998 48.7373 40.1689 48.0928C40.5439 47.4482 41.0713 46.9443 41.751 46.5811C42.4307 46.2119 43.2012 46.0273 44.0625 46.0273C45.3809 46.0273 46.4033 46.3438 47.1299 46.9766C47.8623 47.6094 48.2285 48.5029 48.2285 49.6572C48.2285 50.29 48.0645 50.9346 47.7363 51.5908C47.4082 52.2471 46.8457 53.0117 46.0488 53.8848L43.1396 56.9521H48.6416V59Z" fill="white"/>
</svg>
