<svg width="87" height="87" viewBox="0 0 87 87" fill="none" xmlns="http://www.w3.org/2000/svg">
<circle cx="43.5" cy="43.5" r="43.5" fill="#312F2F"/>
<circle cx="43.5" cy="43.5" r="33.5" fill="#6CBEFA"/>
<path d="M44.096 35.056C43.232 35.056 42.512 34.784 41.936 34.24C41.36 33.696 41.072 33.024 41.072 32.224C41.072 31.392 41.36 30.704 41.936 30.16C42.512 29.616 43.232 29.344 44.096 29.344C44.96 29.344 45.664 29.616 46.208 30.16C46.784 30.704 47.072 31.392 47.072 32.224C47.104 33.024 46.832 33.696 46.256 34.24C45.68 34.784 44.96 35.056 44.096 35.056ZM38.96 55.024H42.32V42.016H39.008V39.04H46.784V55.024H49.952V58H38.96V55.024Z" fill="white"/>
</svg>
