<svg width="87" height="87" viewBox="0 0 87 87" fill="none" xmlns="http://www.w3.org/2000/svg">
<circle cx="43.5" cy="43.5" r="43.5" fill="#312F2F"/>
<circle cx="43.5" cy="43.5" r="33.5" fill="#878080" fill-opacity="0.24"/>
<path d="M24.2352 44.1464L41.8298 44.1464M41.8298 44.1464L25.4705 44.1463C24.8153 44.1463 24.1869 43.8847 23.7236 43.4191C23.2603 42.9535 23 42.3219 23 41.6634C23 41.0049 23.2603 40.3734 23.7236 39.9078C24.1869 39.4421 24.8152 39.1806 25.4704 39.1806M41.8298 44.1464V39.1806L25.4704 39.1806M25.4704 39.1806L41.3954 39.1803M41.8298 38.5659V33.3906M41.8298 49.3212L25.4704 49.9361M41.8298 49.3212L41.8298 54.9016L25.4705 54.9019C24.8153 54.9019 24.1869 54.6403 23.7236 54.1747C23.2603 53.709 23 53.0775 23 52.419C23 51.7605 23.2603 51.1289 23.7236 50.6633C24.1869 50.1977 24.8152 49.9361 25.4704 49.9361M41.8298 49.3212L24.365 49.3214M41.8298 49.3212L25.6003 49.3214C24.9451 49.3214 24.3167 49.0598 23.8534 48.5942C23.3901 48.1286 23.1298 47.497 23.1298 46.8385C23.1298 46.18 23.3901 45.5485 23.8534 45.0829C24.3167 44.6172 24.945 44.3557 25.6003 44.3557M41.8298 49.3212V44.3554L25.6003 44.3557M25.4704 49.9361L41.3954 49.9358M25.6003 44.3557L41.5252 44.3554" stroke="white" stroke-width="2" stroke-linecap="round" stroke-linejoin="round"/>
<path d="M42.0009 54.9014C51.0653 54.9014 62.9157 56.4254 62.9157 45.7292C62.9157 40.63 63.7704 32.1757 60.0335 31L41.8301 31V37.3328L41.8301 44.5788" stroke="white" stroke-width="2" stroke-linecap="round" stroke-linejoin="round"/>
</svg>
