<svg width="4320" height="800" viewBox="0 0 4320 800" fill="none" xmlns="http://www.w3.org/2000/svg">
<path d="M454.302 432.542C430.656 426.818 413.488 448.401 391.611 438.629L374 435.5L371.5 450.588C379.203 447.483 385.835 468.583 399.615 470.591C403.054 468.239 400.482 464.149 400.877 459.765C410.623 459.638 415.1 452.157 424.727 450.587C434.267 449.03 444.119 453.61 454.551 452.475C463.464 451.505 472.734 443.332 482.984 441.637C491.387 440.243 499.154 443.97 503.095 435.959C516.822 466.655 520.592 506.669 531.364 540.135C532.472 545.163 538 538.492 538.602 540.373C539.929 544.392 543.846 545.98 546.476 548.784C558.006 561.083 567.825 574.452 586.204 579.978C592.369 592.332 603.351 600.165 615.195 607.197C612.779 615.489 618.15 619.545 617.373 623.57C622.896 619.349 626.129 623.838 630.973 623.112C621.309 600.595 607.866 581.617 584.663 571.776C585.359 568.495 584.209 566.937 583.063 565.386L583.062 565.384C572.271 553.859 557.629 545.941 546.018 535.184C540.226 495.305 527.935 461.506 512.321 430.829C500.221 422.073 466.433 424.277 454.302 432.542Z" fill="#828EFF"/>
<path d="M332 446.379C332 450.588 329.205 454 326 454C321.859 453 319.338 450.588 319.338 446.379C319.338 442.171 317.227 438.172 323.558 437C330.944 437 332 442.171 332 446.379Z" fill="#828EFF"/>
<path d="M382.163 445.761C382.163 450.217 378.368 453.83 375.162 453.83C371.021 452.771 368.5 450.217 368.5 445.761C368.5 441.305 369.169 436.241 375.5 435C383.338 438.17 381.163 441.359 382.163 445.761Z" fill="#828EFF"/>
<path d="M290.9 466.697C303.33 464.796 317.715 448.105 330.084 452.311L331.757 441.968L301.048 433.521C264.922 437.046 224.151 409.571 191.82 422.68C180.443 427.292 168.827 463.302 165.607 476.157C162.091 490.19 166.748 506.897 162.338 520.427C160.419 526.306 149.086 534.945 141.78 539.675C136.84 542.874 131.024 545.294 126.162 546.407C114.428 564.778 96.2292 576.244 82.0938 592.05C96.0869 592.05 93.0867 595.501 100.587 595.5C99.5866 592.05 98.2865 590.002 100.587 585C125.227 571.049 148.451 543.99 171.147 527.963C180.488 518.413 177.128 498.343 181.623 484.836C185.845 472.134 197.186 461.901 197.438 444.601C210.571 426.226 231.03 446.225 251.659 448.197C266.591 449.625 279.963 441.738 286.793 453.882C289.541 453.696 290.117 451.189 294.09 452.311C292.169 455.805 288.374 461.491 290.9 466.697Z" fill="#828EFF"/>
<path d="M1052 446.379C1052 450.588 1049.21 454 1046 454C1041.86 453 1039.34 450.588 1039.34 446.379C1039.34 442.171 1037.23 438.172 1043.56 437C1050.94 437 1052 442.171 1052 446.379Z" fill="#828EFF"/>
<path d="M1102.16 445.761C1102.16 450.217 1098.37 453.83 1095.16 453.83C1091.02 452.771 1088.5 450.217 1088.5 445.761C1088.5 441.305 1089.17 436.241 1095.5 435C1103.34 438.17 1101.16 441.359 1102.16 445.761Z" fill="#828EFF"/>
<path d="M1142.32 367.253C1124.06 383.328 1131.88 409.776 1111.32 422.079L1090.36 441.359L1096 451.001C1113.5 447.5 1132.52 444.004 1142.08 433.874C1142.13 429.708 1137.3 429.466 1133.94 426.625C1139.43 418.573 1135.88 410.612 1140.12 401.829C1144.32 393.123 1153.73 387.686 1158.79 378.492C1163.11 370.638 1161.74 358.356 1166.23 348.99C1169.92 341.309 1177.43 337.09 1173.13 329.263C1206.15 335.646 1241.07 355.531 1274.66 365.924C1279.41 367.903 1277.12 359.547 1279.01 360.135C1283.06 361.355 1286.61 359.059 1290.42 358.515C1307.1 356.136 1323.69 355.772 1338.76 343.895C1352.42 345.94 1365.14 341.445 1377.69 335.784C1383.1 342.523 1389.5 340.454 1392.35 343.4C1392.07 336.455 1397.6 336.385 1399.78 332.002C1375.8 326.988 1352.54 327.099 1331.16 340.449C1328.88 337.994 1326.94 338.042 1325.01 338.09L1325.01 338.09C1309.38 340.308 1294.49 347.752 1279.02 351.083C1243.04 332.931 1208.31 323.591 1174.23 318.764C1160.11 323.645 1142.52 352.575 1142.32 367.253Z" fill="#828EFF"/>
<path d="M1010.9 466.697C1023.33 464.796 1037.71 448.105 1050.08 452.311L1051.76 441.968L1021.05 433.521C984.922 437.046 944.151 409.571 911.82 422.68C900.443 427.292 888.827 463.302 885.607 476.157C882.091 490.19 886.748 506.897 882.338 520.427C880.419 526.306 869.086 534.945 861.78 539.675C856.84 542.874 851.024 545.294 846.162 546.407C834.428 564.778 816.229 576.244 802.094 592.05C816.087 592.05 813.087 595.501 820.587 595.5C819.587 592.05 818.286 590.002 820.587 585C845.227 571.049 868.451 543.99 891.147 527.963C900.488 518.413 897.128 498.343 901.623 484.836C905.845 472.134 917.186 461.901 917.438 444.601C930.571 426.226 951.03 446.225 971.659 448.197C986.591 449.625 999.963 441.738 1006.79 453.882C1009.54 453.696 1010.12 451.189 1014.09 452.311C1012.17 455.805 1008.37 461.491 1010.9 466.697Z" fill="#828EFF"/>
<path d="M3212 446.379C3212 450.588 3209.21 454 3206 454C3201.86 453 3199.34 450.588 3199.34 446.379C3199.34 442.171 3197.23 438.172 3203.56 437C3210.94 437 3212 442.171 3212 446.379Z" fill="#828EFF"/>
<path d="M3262.16 445.761C3262.16 450.217 3258.37 453.83 3255.16 453.83C3251.02 452.771 3248.5 450.217 3248.5 445.761C3248.5 441.305 3249.17 436.241 3255.5 435C3263.34 438.17 3261.16 441.359 3262.16 445.761Z" fill="#828EFF"/>
<path d="M3262.7 445.761C3262.7 450.217 3258.9 453.83 3255.7 453.83C3251.56 452.771 3249.04 450.217 3249.04 445.761C3249.04 441.305 3249.7 436.241 3256.04 435C3263.87 438.17 3261.7 441.359 3262.7 445.761Z" fill="#828EFF"/>
<path d="M3302.86 367.253C3284.59 383.328 3292.41 409.776 3271.85 422.079L3250.9 441.359L3256.54 451.001C3274.04 447.5 3293.06 444.004 3302.62 433.874C3302.66 429.708 3297.84 429.466 3294.48 426.625C3299.97 418.573 3296.41 410.612 3300.65 401.829C3304.85 393.123 3314.26 387.686 3319.32 378.492C3323.64 370.638 3322.27 358.356 3326.77 348.99C3330.45 341.309 3337.96 337.09 3333.67 329.263C3366.68 335.646 3401.61 355.531 3435.19 365.924C3439.95 367.903 3437.66 359.547 3439.54 360.135C3443.6 361.355 3447.15 359.059 3450.95 358.515C3467.64 356.136 3484.22 355.772 3499.3 343.895C3512.95 345.94 3525.67 341.445 3538.23 335.784C3543.63 342.523 3550.04 340.454 3552.89 343.4C3552.6 336.455 3558.13 336.385 3560.32 332.002C3536.33 326.988 3513.08 327.099 3491.7 340.449C3489.41 337.994 3487.48 338.042 3485.55 338.09L3485.55 338.09C3469.92 340.308 3455.03 347.752 3439.55 351.083C3403.57 332.931 3368.84 323.591 3334.76 318.764C3320.65 323.645 3303.05 352.575 3302.86 367.253Z" fill="#828EFF"/>
<path d="M3248.5 443.145C3236.84 447.862 3215.95 440.863 3207.46 450.799L3200.74 442.763L3222.82 419.811C3255.68 404.384 3276.69 359.935 3311.18 354.685C3323.32 352.837 3351.7 377.858 3361.04 387.263C3371.23 397.529 3375.76 414.271 3386.46 423.649C3391.12 427.722 3405.27 429.357 3413.97 429.691C3419.85 429.916 3426.09 429.025 3430.83 427.498C3450.31 437.295 3471.81 437.854 3492.04 444.219C3480.01 451.368 3484.35 452.802 3477.9 456.633C3477 453.157 3477.07 450.731 3472.54 447.607C3444.23 448.203 3410.44 436.809 3382.74 434.627C3369.83 431.19 3362.47 412.221 3351.7 402.906C3341.58 394.144 3326.61 391.142 3317.55 376.4C3296.87 367.314 3289.5 394.958 3272.78 407.194C3260.67 416.05 3245.15 416.102 3245.48 430.031C3243.02 431.275 3241.25 429.414 3238.4 432.409C3241.84 434.431 3248.01 437.38 3248.5 443.145Z" fill="#828EFF"/>
<path d="M2492 446.379C2492 450.588 2489.21 454 2486 454C2481.86 453 2479.34 450.588 2479.34 446.379C2479.34 442.171 2477.23 438.172 2483.56 437C2490.94 437 2492 442.171 2492 446.379Z" fill="#828EFF"/>
<path d="M2542.16 445.761C2542.16 450.217 2538.37 453.83 2535.16 453.83C2531.02 452.771 2528.5 450.217 2528.5 445.761C2528.5 441.305 2529.17 436.241 2535.5 435C2543.34 438.17 2541.16 441.359 2542.16 445.761Z" fill="#828EFF"/>
<path d="M2614.3 432.542C2590.66 426.818 2573.49 448.401 2551.61 438.629L2534.5 435.499L2530 447.5C2531 450.587 2545.84 468.583 2559.62 470.591C2563.05 468.239 2560.48 464.149 2560.88 459.765C2570.62 459.638 2575.1 452.157 2584.73 450.587C2594.27 449.03 2604.12 453.61 2614.55 452.475C2623.46 451.505 2632.73 443.332 2642.98 441.637C2651.39 440.243 2659.15 443.97 2663.1 435.959C2676.82 466.655 2680.59 506.669 2691.36 540.135C2692.47 545.163 2698 538.492 2698.6 540.373C2699.93 544.392 2703.85 545.98 2706.48 548.784C2718.01 561.083 2727.83 574.452 2746.2 579.978C2752.37 592.332 2763.35 600.165 2775.2 607.197C2772.78 615.489 2778.15 619.545 2777.37 623.57C2782.9 619.349 2786.13 623.838 2790.97 623.112C2781.31 600.595 2767.87 581.617 2744.66 571.776C2745.36 568.495 2744.21 566.937 2743.06 565.386L2743.06 565.384C2732.27 553.859 2717.63 545.941 2706.02 535.184C2700.23 495.305 2687.94 461.506 2672.32 430.829C2660.22 422.073 2626.43 424.277 2614.3 432.542Z" fill="#828EFF"/>
<path d="M2446.23 429.824C2455.76 438.032 2477.8 438.108 2482.64 450.24L2491.59 444.786L2478.04 415.963C2451.87 390.809 2446.23 341.968 2415.25 325.929C2404.35 320.284 2369.44 334.875 2357.58 340.787C2344.63 347.24 2334.97 361.642 2321.82 367.089C2316.1 369.454 2302.17 366.461 2293.83 363.986C2288.19 362.313 2282.57 359.468 2278.56 356.498C2256.97 359.528 2236.43 353.158 2215.23 352.697C2224.33 363.327 2219.75 363.292 2224.63 368.989C2226.6 365.987 2227.31 363.667 2232.61 362.162C2259.23 371.81 2294.89 371.86 2321.82 378.681C2335.15 379.569 2348.21 363.966 2361.4 358.598C2373.79 353.546 2388.94 355.508 2402.25 344.451C2424.75 342.481 2422.86 371.028 2434.77 387.983C2443.4 400.256 2458.08 405.286 2453.3 418.372C2455.23 420.339 2457.51 419.146 2459.24 422.894C2455.33 423.707 2448.55 424.521 2446.23 429.824Z" fill="#828EFF"/>
<path d="M4054.84 432.542C4031.19 426.818 4014.02 448.401 3992.15 438.629L3974.5 436L3971.5 450.588C3976.5 450.587 3986.37 468.583 4000.15 470.591C4003.59 468.239 4001.02 464.149 4001.41 459.765C4011.16 459.638 4015.63 452.157 4025.26 450.587C4034.8 449.03 4044.65 453.61 4055.09 452.475C4064 451.505 4073.27 443.332 4083.52 441.637C4091.92 440.243 4099.69 443.97 4103.63 435.959C4117.36 466.655 4121.13 506.669 4131.9 540.135C4133.01 545.163 4138.53 538.492 4139.14 540.373C4140.46 544.392 4144.38 545.98 4147.01 548.784C4158.54 561.083 4168.36 574.452 4186.74 579.978C4192.9 592.332 4203.89 600.165 4215.73 607.197C4213.31 615.489 4218.68 619.545 4217.91 623.57C4223.43 619.349 4226.66 623.838 4231.51 623.112C4221.84 600.595 4208.4 581.617 4185.2 571.776C4185.89 568.495 4184.74 566.937 4183.6 565.386L4183.6 565.384C4172.81 553.859 4158.16 545.941 4146.55 535.184C4140.76 495.305 4128.47 461.506 4112.86 430.829C4100.76 422.073 4066.97 424.277 4054.84 432.542Z" fill="#828EFF"/>
<path d="M3932.54 446.379C3932.54 450.588 3929.74 454 3926.54 454C3922.39 453 3919.87 450.588 3919.87 446.379C3919.87 442.171 3917.76 438.172 3924.09 437C3931.48 437 3932.54 442.171 3932.54 446.379Z" fill="#828EFF"/>
<path d="M3982.7 445.761C3982.7 450.217 3978.9 453.83 3975.7 453.83C3971.56 452.771 3969.04 450.217 3969.04 445.761C3969.04 441.305 3969.7 436.241 3976.04 435C3983.87 438.17 3981.7 441.359 3982.7 445.761Z" fill="#828EFF"/>
<path d="M3968.5 443.145C3956.84 447.862 3935.95 440.863 3927.46 450.799L3920.74 442.763L3942.82 419.811C3975.68 404.384 3996.69 359.935 4031.18 354.685C4043.32 352.837 4071.7 377.858 4081.04 387.263C4091.23 397.529 4095.76 414.271 4106.46 423.649C4111.12 427.722 4125.27 429.357 4133.97 429.691C4139.85 429.916 4146.09 429.025 4150.83 427.498C4170.31 437.295 4191.81 437.854 4212.04 444.219C4200.01 451.368 4204.35 452.802 4197.9 456.633C4197 453.157 4197.07 450.731 4192.54 447.607C4164.23 448.203 4130.44 436.809 4102.74 434.627C4089.83 431.19 4082.47 412.221 4071.7 402.906C4061.58 394.144 4046.61 391.142 4037.55 376.4C4016.87 367.314 4009.5 394.958 3992.78 407.194C3980.67 416.05 3965.15 416.102 3965.48 430.031C3963.02 431.275 3961.25 429.414 3958.4 432.409C3961.84 434.431 3968.01 437.38 3968.5 443.145Z" fill="#828EFF"/>
<path d="M3932 446.379C3932 450.588 3929.21 454 3926 454C3921.86 453 3919.34 450.588 3919.34 446.379C3919.34 442.171 3917.23 438.172 3923.56 437C3930.94 437 3932 442.171 3932 446.379Z" fill="#828EFF"/>
<path d="M3982.16 445.761C3982.16 450.217 3978.37 453.83 3975.16 453.83C3971.02 452.771 3968.5 450.217 3968.5 445.761C3968.5 441.305 3969.17 436.241 3975.5 435C3983.34 438.17 3981.16 441.359 3982.16 445.761Z" fill="#828EFF"/>
<path d="M3968.5 443.145C3956.84 447.862 3935.95 440.863 3927.46 450.799L3920.74 442.763L3942.82 419.811C3975.68 404.384 3996.69 359.935 4031.18 354.685C4043.32 352.837 4071.7 377.858 4081.04 387.263C4091.23 397.529 4095.76 414.271 4106.46 423.649C4111.12 427.722 4125.27 429.357 4133.97 429.691C4139.85 429.916 4146.09 429.025 4150.83 427.498C4170.31 437.295 4191.81 437.854 4212.04 444.219C4200.01 451.368 4204.35 452.802 4197.9 456.633C4197 453.157 4197.07 450.731 4192.54 447.607C4164.23 448.203 4130.44 436.809 4102.74 434.627C4089.83 431.19 4082.47 412.221 4071.7 402.906C4061.58 394.144 4046.61 391.142 4037.55 376.4C4016.87 367.314 4009.5 394.958 3992.78 407.194C3980.67 416.05 3965.15 416.102 3965.48 430.031C3963.02 431.275 3961.25 429.414 3958.4 432.409C3961.84 434.431 3968.01 437.38 3968.5 443.145Z" fill="#828EFF"/>
<path d="M1772 446.379C1772 450.588 1769.21 454 1766 454C1761.86 453 1759.34 450.588 1759.34 446.379C1759.34 442.171 1757.23 438.172 1763.56 437C1770.94 437 1772 442.171 1772 446.379Z" fill="#828EFF"/>
<path d="M1822.16 445.761C1822.16 450.217 1818.37 453.83 1815.16 453.83C1811.02 452.771 1808.5 450.217 1808.5 445.761C1808.5 441.305 1809.17 436.241 1815.5 435C1823.34 438.17 1821.16 441.359 1822.16 445.761Z" fill="#828EFF"/>
<path d="M1726.23 429.824C1735.76 438.032 1757.8 438.108 1762.64 450.24L1771.59 444.786L1758.04 415.963C1731.87 390.809 1726.23 341.968 1695.25 325.929C1684.35 320.284 1649.44 334.875 1637.58 340.787C1624.63 347.24 1614.97 361.642 1601.82 367.089C1596.1 369.454 1582.17 366.461 1573.83 363.986C1568.19 362.313 1562.57 359.468 1558.56 356.498C1536.97 359.528 1516.43 353.158 1495.23 352.697C1504.33 363.327 1499.75 363.292 1504.63 368.989C1506.6 365.987 1507.31 363.667 1512.61 362.162C1539.23 371.81 1574.89 371.86 1601.82 378.681C1615.15 379.569 1628.21 363.966 1641.4 358.598C1653.79 353.546 1668.94 355.508 1682.25 344.451C1704.75 342.481 1702.86 371.028 1714.77 387.983C1723.4 400.256 1738.08 405.286 1733.3 418.372C1735.23 420.339 1737.51 419.146 1739.24 422.894C1735.33 423.707 1728.55 424.521 1726.23 429.824Z" fill="#828EFF"/>
<path d="M1862.32 367.253C1844.06 383.328 1851.88 409.776 1831.32 422.079L1810.36 441.359L1816 451.001C1833.5 447.5 1852.52 444.004 1862.08 433.874C1862.13 429.708 1857.3 429.466 1853.94 426.625C1859.43 418.573 1855.88 410.612 1860.12 401.829C1864.32 393.123 1873.73 387.686 1878.79 378.492C1883.11 370.638 1881.74 358.356 1886.23 348.99C1889.92 341.309 1897.43 337.09 1893.13 329.263C1926.15 335.646 1961.07 355.531 1994.66 365.924C1999.41 367.903 1997.12 359.547 1999.01 360.135C2003.06 361.355 2006.61 359.059 2010.42 358.515C2027.1 356.136 2043.69 355.772 2058.76 343.895C2072.42 345.94 2085.14 341.445 2097.69 335.784C2103.1 342.523 2109.5 340.454 2112.35 343.4C2112.07 336.455 2117.6 336.385 2119.78 332.002C2095.8 326.988 2072.54 327.099 2051.16 340.449C2048.88 337.994 2046.94 338.042 2045.01 338.09L2045.01 338.09C2029.38 340.308 2014.49 347.752 1999.02 351.083C1963.04 332.931 1928.31 323.591 1894.23 318.764C1880.11 323.645 1862.52 352.575 1862.32 367.253Z" fill="#828EFF"/>
</svg>
