<svg width="4320" height="800" viewBox="0 0 4320 800" fill="none" xmlns="http://www.w3.org/2000/svg">
<path d="M234.847 149.425C233.659 181.976 301.311 176.625 314.287 203.749L327.137 199.422C310.368 181.266 273.581 163.219 245.202 155.64C249.715 141.518 248.384 133.431 248.068 120.408C247.424 93.8282 249.041 62.1243 244.285 41.1468C242.868 34.8877 240 24.9588 230.696 24.367C225.852 39.5436 231.789 54.9885 234.205 69.2801C238.379 94.0073 241.686 119.304 234.847 149.425Z" fill="#828EFF"/>
<path d="M468.61 149.425C469.798 181.976 402.146 176.625 389.17 203.749L375.999 200.5C392.768 182.344 429.876 163.219 458.255 155.64C453.742 141.518 455.073 133.431 455.389 120.408C456.033 93.8282 454.416 62.1243 459.172 41.1468C460.589 34.8877 463.458 24.9588 472.761 24.367C477.605 39.5436 471.668 54.9885 469.252 69.2801C465.078 94.0073 461.771 119.304 468.61 149.425Z" fill="#828EFF"/>
<path d="M1198.01 178.865C1189.7 210.362 1126.51 185.618 1106.23 207.811L1093.69 201.461C1115.01 188.95 1156.94 180.831 1186.29 181.809C1186.07 166.986 1189.69 159.632 1193.77 147.26C1202.1 122.01 1209.75 91.2005 1220.38 72.5044C1223.55 66.9252 1229.18 58.2552 1238.25 60.3873C1238.49 76.3168 1228.32 89.3754 1221.87 102.352C1210.7 124.805 1200.2 148.056 1198.01 178.865Z" fill="#828EFF"/>
<path d="M954.847 149.425C953.659 181.976 1021.31 176.625 1034.29 203.749L1047.14 199.422C1030.37 181.266 993.581 163.219 965.202 155.64C969.715 141.518 968.384 133.431 968.068 120.408C967.424 93.8282 969.041 62.1243 964.285 41.1468C962.868 34.8877 960 24.9588 950.696 24.367C945.852 39.5436 951.789 54.9885 954.205 69.2801C958.379 94.0073 961.686 119.304 954.847 149.425Z" fill="#828EFF"/>
<path d="M3146.8 122.253C3132.49 151.517 3196.49 174.102 3197.33 204.157L3210.96 207.543C3203.01 184.142 3176.59 150.589 3153.73 132.138C3163.59 121.066 3165.66 113.136 3170.66 101.106C3180.87 76.5557 3195.22 48.2403 3199.39 27.1392C3200.64 20.8444 3202.05 10.606 3193.79 6.28706C3183.2 18.1883 3182.35 34.7136 3178.76 48.7545C3172.53 73.0458 3165.28 97.5058 3146.8 122.253Z" fill="#828EFF"/>
<path d="M3301.35 112.235C3320.93 138.27 3262.35 172.536 3267.2 202.21L3254.45 208.11C3257.84 183.628 3277.45 145.688 3296.4 123.252C3284.63 114.242 3281.1 106.845 3273.92 95.9767C3259.26 73.7959 3239.82 48.7011 3231.74 28.7681C3229.32 22.8222 3226 13.0346 3233.3 7.233C3245.95 16.9195 3249.9 32.9875 3256.08 46.0964C3266.79 68.7741 3278.53 91.424 3301.35 112.235Z" fill="#828EFF"/>
<path d="M2388.06 178.738C2396.37 210.235 2459.56 185.491 2479.85 207.684L2492.38 201.334C2471.06 188.823 2429.13 180.704 2399.78 181.682C2400 166.859 2396.38 159.505 2392.3 147.133C2383.97 121.883 2376.32 91.0736 2365.69 72.3775C2362.52 66.7982 2356.89 58.1283 2347.82 60.2603C2347.58 76.1898 2357.75 89.2485 2364.2 102.225C2375.37 124.678 2385.87 147.929 2388.06 178.738Z" fill="#828EFF"/>
<path d="M2581.35 112.235C2600.93 138.27 2542.35 172.536 2547.2 202.21L2534.45 208.11C2537.84 183.628 2557.45 145.688 2576.4 123.252C2564.63 114.242 2561.1 106.845 2553.92 95.9767C2539.26 73.7959 2519.82 48.7011 2511.74 28.7681C2509.32 22.8222 2506 13.0346 2513.3 7.233C2525.95 16.9195 2529.9 32.9875 2536.08 46.0964C2546.79 68.7741 2558.53 91.424 2581.35 112.235Z" fill="#828EFF"/>
<path d="M3866.8 122.253C3852.49 151.517 3916.49 174.102 3917.33 204.157L3930.96 207.543C3923.01 184.142 3896.59 150.589 3873.73 132.138C3883.59 121.066 3885.66 113.136 3890.66 101.106C3900.87 76.5557 3915.22 48.2403 3919.39 27.1392C3920.64 20.8444 3922.05 10.606 3913.79 6.28706C3903.2 18.1883 3902.35 34.7136 3898.76 48.7545C3892.53 73.0458 3885.28 97.5058 3866.8 122.253Z" fill="#828EFF"/>
<path d="M4068.61 149.425C4069.8 181.976 4002.15 176.625 3989.17 203.749L3976 200.5C3992.77 182.344 4029.88 163.219 4058.26 155.64C4053.74 141.518 4055.07 133.431 4055.39 120.408C4056.03 93.8282 4054.42 62.1243 4059.17 41.1468C4060.59 34.8877 4063.46 24.9588 4072.76 24.367C4077.61 39.5436 4071.67 54.9885 4069.25 69.2801C4065.08 94.0073 4061.77 119.304 4068.61 149.425Z" fill="#828EFF"/>
<path d="M1918.01 178.863C1909.7 210.36 1846.51 185.616 1826.23 207.809L1813.69 201.459C1835.01 188.948 1876.94 180.829 1906.29 181.807C1906.07 166.984 1909.69 159.63 1913.77 147.258C1922.1 122.008 1929.75 91.1986 1940.38 72.5025C1943.55 66.9232 1949.18 58.2533 1958.25 60.3853C1958.49 76.3148 1948.32 89.3735 1941.87 102.35C1930.7 124.803 1920.2 148.054 1918.01 178.863Z" fill="#828EFF"/>
<path d="M1668.06 178.863C1676.37 210.36 1739.56 185.616 1759.85 207.809L1772.38 201.459C1751.06 188.948 1709.13 180.829 1679.78 181.807C1680 166.984 1676.38 159.63 1672.3 147.258C1663.97 122.008 1656.32 91.1986 1645.69 72.5025C1642.52 66.9232 1636.89 58.2533 1627.82 60.3853C1627.58 76.3148 1637.75 89.3735 1644.2 102.35C1655.37 124.803 1665.87 148.054 1668.06 178.863Z" fill="#828EFF"/>
</svg>
