<svg width="4320" height="800" viewBox="0 0 4320 800" fill="none" xmlns="http://www.w3.org/2000/svg">
<path d="M372.308 475.256C366.59 473.5 365.607 477.859 363 476.5L360.5 489.5C366 497.5 374.832 500.532 381.604 495.487C391.335 513.689 411.242 521.091 432.129 528.848C444.287 533.364 476.644 541.488 479.333 553.043C480.642 558.666 477.028 573.4 477.416 583.772C477.841 595.158 477.92 609.404 476.225 619.96C474.775 628.989 469.898 642.811 474.218 653.403C476.369 658.677 483.207 663.883 484.568 669.14C488.363 683.776 495.943 699.291 503.887 715.059C509.044 725.302 525.13 748.46 525.089 757.5C525.059 763.446 517.854 762.527 520.089 768C527.089 768 527.589 768 534.089 766C531.919 751.966 527.859 732.422 520.838 722.862C516.008 716.283 516.946 707.494 512.565 699.043C510.852 695.746 507.451 693.159 505.626 689.758C501.193 681.501 493.058 664.801 491.288 657.588C486.363 637.541 493.674 609.722 492.736 586.088C492.118 570.606 487.707 556.805 486.958 541.52C458.896 509.92 408.079 499.633 372.308 475.256Z" fill="#828EFF"/>
<path d="M291.676 509.396C299.706 503.456 330 488.5 331.5 489.5L330.193 478.394C330.213 478.3 330.205 478.139 330.14 477.942L330 476.756C329.968 477.068 329.953 477.331 329.95 477.55C329.208 476.383 326.527 474.766 318.109 476.756C306.262 478.067 300.671 485.435 293.206 490.427C283.735 496.762 271.397 500.758 260.977 506.574C238.742 518.974 220.627 531.102 205.267 548.211C193.774 562.605 195.324 595.753 196.641 617.664C197.654 634.582 204.839 651.403 203.324 662.261C201.025 678.754 184.788 684.569 178.611 697.674C177.641 702.09 182.287 701.247 181.992 705.031C163.458 716.129 160.586 745.146 152.796 766.561C151.392 770.414 155.587 769.5 159.587 769.5C170.587 770 161.087 766.56 163.087 762C166.211 749.715 170.365 727.739 177.086 721.058C181.724 713.291 188.457 704.298 194.485 696.054C200.686 687.563 210.341 680.515 214.757 672.6C223.89 656.226 215.094 642.034 212.687 625.437C209.591 604.097 208.405 582.478 210.397 557.437C228.42 545.336 248.723 538.905 266.625 527.589C275.083 522.243 283.322 515.571 291.676 509.396Z" fill="#828EFF"/>
<path d="M334 485.034C334 489.986 327.5 495 327 493.5C327 494 320.279 490.486 320.279 485.534C320.279 480.583 318.169 475.879 324.5 474.5C331.885 474.5 334 480.083 334 485.034Z" fill="#828EFF"/>
<path d="M359 485.48C359 490.876 364.5 496.5 366.5 495.5C369 494 373.64 491.421 373.64 486.025C373.64 480.629 375.891 475.503 369.136 474C361.256 474 359 480.084 359 485.48Z" fill="#828EFF"/>
<path d="M1010.19 492.376C1020.04 490.733 1039.36 485.556 1048.57 493L1052.65 483.781C1052.79 484.03 1052.89 483.848 1053 483L1052.65 483.781C1052.16 482.856 1051.27 475.99 1048.57 475.31C1037.42 471.095 1029.09 475.118 1020.17 476.174C1008.86 477.513 996.049 475.468 984.124 475.913C958.683 476.857 937.036 479.43 915.578 487.693C898.8 495.293 885.12 525.526 876.338 545.643C869.553 561.174 868.311 579.423 862.028 588.407C852.486 602.055 835.38 599.858 823.923 608.725C821.052 612.218 825.574 613.578 823.592 616.815C802.039 618.28 786.296 642.824 769.627 658.361C766.625 661.156 770.778 662.248 774.341 664.065C783.913 669.509 777.013 662.128 780.866 658.974C789.231 649.45 802.917 631.761 811.94 628.864C819.6 624.052 829.684 619.1 838.8 614.494C848.182 609.749 859.985 607.856 867.515 602.812C883.09 592.376 881.703 575.737 887.1 559.858C894.038 539.441 902.805 519.644 915.957 498.242C937.511 495.651 958.518 499.147 979.607 497.201C989.571 496.281 999.942 494.081 1010.19 492.376Z" fill="#828EFF"/>
<path d="M1092.31 475.256C1086.59 473.5 1085.11 477.859 1082.5 476.5L1081.5 492C1087.5 496.5 1094.83 500.531 1101.6 495.486C1111.34 513.688 1131.24 521.091 1152.13 528.847C1164.29 533.363 1196.64 541.487 1199.33 553.043C1200.64 558.666 1197.03 573.399 1197.42 583.772C1197.84 595.157 1197.92 609.404 1196.22 619.959C1194.78 628.988 1189.9 642.81 1194.22 653.403C1196.37 658.676 1203.21 663.882 1204.57 669.14C1208.36 683.775 1215.94 699.29 1223.89 715.059C1229.04 725.302 1245.13 748.459 1245.09 757.499C1245.06 763.446 1237.85 762.527 1240.09 767.999C1247.09 767.999 1247.59 767.999 1254.09 765.999C1251.92 751.966 1247.86 732.421 1240.84 722.862C1236.01 716.283 1236.95 707.494 1232.57 699.043C1230.85 695.746 1227.45 693.158 1225.63 689.757C1221.19 681.501 1213.06 664.8 1211.29 657.587C1206.36 637.541 1213.67 609.721 1212.74 586.088C1212.12 570.606 1207.71 556.805 1206.96 541.52C1178.9 509.919 1128.08 499.633 1092.31 475.256Z" fill="#828EFF"/>
<path d="M1054 485.034C1054 489.986 1047.5 495 1047 493.5C1047 494 1040.28 490.486 1040.28 485.534C1040.28 480.583 1038.17 475.879 1044.5 474.5C1051.89 474.5 1054 480.083 1054 485.034Z" fill="#828EFF"/>
<path d="M1079 485.48C1079 490.876 1084.5 496.5 1086.5 495.5C1089 494 1093.64 491.421 1093.64 486.025C1093.64 480.629 1095.89 475.503 1089.14 474C1081.26 474 1079 480.084 1079 485.48Z" fill="#828EFF"/>
<path d="M3252.31 475.255C3246.59 473.499 3246.11 477.358 3243.5 476L3240 489.5C3245 498 3254.83 500.531 3261.61 495.485C3271.34 513.688 3291.24 521.09 3312.13 528.847C3324.29 533.363 3356.65 541.487 3359.33 553.042C3360.64 558.665 3357.03 573.399 3357.42 583.771C3357.84 595.156 3357.92 609.403 3356.23 619.959C3354.78 628.988 3349.9 642.81 3354.22 653.402C3356.37 658.676 3363.21 663.882 3364.57 669.139C3368.36 683.775 3375.94 699.29 3383.89 715.058C3389.05 725.301 3405.13 748.459 3405.09 757.499C3405.06 763.445 3397.85 762.526 3400.09 767.999C3407.09 767.999 3407.59 767.999 3414.09 765.999C3411.92 751.965 3407.86 732.421 3400.84 722.861C3396.01 716.282 3396.95 707.493 3392.57 699.042C3390.85 695.745 3387.45 693.158 3385.63 689.757C3381.19 681.5 3373.06 664.8 3371.29 657.587C3366.36 637.54 3373.67 609.72 3372.74 586.087C3372.12 570.605 3367.71 556.804 3366.96 541.519C3338.9 509.919 3288.08 499.632 3252.31 475.255Z" fill="#828EFF"/>
<path d="M3171.68 509.396C3179.71 503.456 3207.5 492 3210.5 492L3212 479C3210.5 475.5 3198.66 471.416 3198.11 476.756C3186.26 478.067 3180.67 485.435 3173.21 490.427C3163.74 496.762 3151.4 500.758 3140.98 506.574C3118.74 518.974 3100.63 531.102 3085.27 548.211C3073.77 562.605 3075.32 595.753 3076.64 617.664C3077.65 634.582 3084.84 651.403 3083.32 662.261C3081.03 678.754 3064.79 684.569 3058.61 697.674C3057.64 702.09 3062.29 701.247 3061.99 705.031C3043.46 716.129 3040.59 745.146 3032.8 766.561C3031.39 770.414 3035.59 769.5 3039.59 769.5C3050.59 770 3041.09 766.56 3043.09 762C3046.21 749.715 3050.36 727.739 3057.09 721.058C3061.72 713.291 3068.46 704.298 3074.48 696.054C3080.69 687.563 3090.34 680.515 3094.76 672.6C3103.89 656.226 3095.09 642.034 3092.69 625.437C3089.59 604.097 3088.41 582.478 3090.4 557.437C3108.42 545.336 3128.72 538.905 3146.62 527.589C3155.08 522.243 3163.32 515.571 3171.68 509.396Z" fill="#828EFF"/>
<path d="M3214 485.034C3214 489.986 3207.5 495 3207 493.5C3207 494 3200.28 490.486 3200.28 485.534C3200.28 480.583 3198.17 475.879 3204.5 474.5C3211.89 474.5 3214 480.083 3214 485.034Z" fill="#828EFF"/>
<path d="M3239 485.48C3239 490.876 3244.5 496.5 3246.5 495.5C3249 494 3253.64 491.421 3253.64 486.025C3253.64 480.629 3255.89 475.503 3249.14 474C3241.26 474 3239 480.084 3239 485.48Z" fill="#828EFF"/>
<path d="M2532.31 475.255C2526.59 473.499 2527.11 476.614 2524.5 475.255L2521.5 491C2525.5 497.5 2534.83 500.53 2541.6 495.485C2551.33 513.687 2571.24 521.09 2592.13 528.846C2604.29 533.362 2636.64 541.487 2639.33 553.042C2640.64 558.665 2637.03 573.399 2637.42 583.771C2637.84 595.156 2637.92 609.403 2636.22 619.959C2634.77 628.988 2629.9 642.809 2634.22 653.402C2636.37 658.675 2643.21 663.882 2644.57 669.139C2648.36 683.775 2655.94 699.29 2663.89 715.058C2669.04 725.301 2685.13 748.458 2685.09 757.499C2685.06 763.445 2677.85 762.526 2680.09 767.999C2687.09 767.999 2687.59 767.999 2694.09 765.999C2691.92 751.965 2687.86 732.421 2680.84 722.861C2676.01 716.282 2676.95 707.493 2672.56 699.042C2670.85 695.745 2667.45 693.158 2665.63 689.757C2661.19 681.5 2653.06 664.8 2651.29 657.587C2646.36 637.54 2653.67 609.72 2652.74 586.087C2652.12 570.605 2647.71 556.804 2646.96 541.519C2618.9 509.919 2568.08 499.632 2532.31 475.255Z" fill="#828EFF"/>
<path d="M2451.68 509.396C2459.71 503.456 2487 494.5 2489.5 491L2492 480.5C2491 475 2478.66 471.416 2478.11 476.756C2466.26 478.067 2460.67 485.435 2453.21 490.427C2443.74 496.762 2431.4 500.758 2420.98 506.574C2398.74 518.974 2380.63 531.102 2365.27 548.211C2353.77 562.605 2355.32 595.753 2356.64 617.664C2357.65 634.582 2364.84 651.403 2363.32 662.261C2361.03 678.754 2344.79 684.569 2338.61 697.674C2337.64 702.09 2342.29 701.247 2341.99 705.031C2323.46 716.129 2320.59 745.146 2312.8 766.561C2311.39 770.414 2315.59 769.5 2319.59 769.5C2330.59 770 2321.09 766.56 2323.09 762C2326.21 749.715 2330.36 727.739 2337.09 721.058C2341.72 713.291 2348.46 704.298 2354.48 696.054C2360.69 687.563 2370.34 680.515 2374.76 672.6C2383.89 656.226 2375.09 642.034 2372.69 625.437C2369.59 604.097 2368.41 582.478 2370.4 557.437C2388.42 545.336 2408.72 538.905 2426.62 527.589C2435.08 522.243 2443.32 515.571 2451.68 509.396Z" fill="#828EFF"/>
<path d="M2494 485.034C2494 489.986 2487.5 495 2487 493.5C2487 494 2480.28 490.486 2480.28 485.534C2480.28 480.583 2478.17 475.879 2484.5 474.5C2491.89 474.5 2494 480.083 2494 485.034Z" fill="#828EFF"/>
<path d="M2519 485.48C2519 490.876 2524.5 496.5 2526.5 495.5C2529 494 2533.64 491.421 2533.64 486.025C2533.64 480.629 2535.89 475.503 2529.14 474C2521.26 474 2519 480.084 2519 485.48Z" fill="#828EFF"/>
<path d="M3963.5 476.5C3957.75 478.152 3962.93 483.715 3960 484L3964.5 493.999C3972.19 488.392 3972 491.499 3977.02 486.173C3995.11 496.107 4015.83 491.437 4037.57 486.528C4050.22 483.672 4081.76 472.807 4090.32 481.019C4094.49 485.015 4099.51 499.331 4105.5 507.809C4112.07 517.114 4119.92 529.005 4124.26 538.774C4127.98 547.129 4131.44 561.372 4140.85 567.886C4145.53 571.129 4154.1 571.756 4158.11 575.417C4169.28 585.605 4184.1 594.463 4199.37 603.334C4209.28 609.098 4235.41 619.714 4240.31 627.309C4243.53 632.306 4236.99 635.472 4241.85 638.835C4247.72 635.013 4248.14 634.74 4252.49 629.515C4243.01 618.943 4228.93 604.788 4217.83 600.614C4210.19 597.74 4206.18 589.865 4197.89 585.178C4194.66 583.351 4190.4 583.042 4187.01 581.189C4178.79 576.693 4162.85 567.145 4157.43 562.069C4142.36 547.966 4133.29 520.668 4119.6 501.382C4110.62 488.75 4099.39 479.598 4090.42 467.202C4049.65 456.055 3998 469 3963.5 476.5Z" fill="#828EFF"/>
<path d="M3891.68 509.396C3899.71 503.456 3929.5 491.5 3932 489L3931 478C3930.5 475.5 3918.66 471.416 3918.11 476.756C3906.26 478.067 3900.67 485.435 3893.21 490.427C3883.74 496.762 3871.4 500.758 3860.98 506.574C3838.74 518.974 3820.63 531.102 3805.27 548.211C3793.77 562.605 3795.32 595.753 3796.64 617.664C3797.65 634.582 3804.84 651.403 3803.32 662.261C3801.03 678.754 3784.79 684.569 3778.61 697.674C3777.64 702.09 3782.29 701.247 3781.99 705.031C3763.46 716.129 3760.59 745.146 3752.8 766.561C3751.39 770.414 3755.59 769.5 3759.59 769.5C3770.59 770 3761.09 766.56 3763.09 762C3766.21 749.715 3770.36 727.739 3777.09 721.058C3781.72 713.291 3788.46 704.298 3794.48 696.054C3800.69 687.563 3810.34 680.515 3814.76 672.6C3823.89 656.226 3815.09 642.034 3812.69 625.437C3809.59 604.097 3808.41 582.478 3810.4 557.437C3828.42 545.336 3848.72 538.905 3866.62 527.589C3875.08 522.243 3883.32 515.571 3891.68 509.396Z" fill="#828EFF"/>
<path d="M3934 485.034C3934 489.986 3927.5 495 3927 493.5C3927 494 3920.28 490.486 3920.28 485.534C3920.28 480.583 3918.17 475.879 3924.5 474.5C3931.89 474.5 3934 480.083 3934 485.034Z" fill="#828EFF"/>
<path d="M3959 485.48C3959 490.876 3964.5 496.5 3966.5 495.5C3969 494 3973.64 491.421 3973.64 486.025C3973.64 480.629 3975.89 475.503 3969.14 474C3961.26 474 3959 480.084 3959 485.48Z" fill="#828EFF"/>
<path d="M1807 474.5C1801.25 476.152 1803.93 482.215 1801 482.5L1805 493.001C1807 493.001 1814.1 494.097 1817.02 486.173C1835.11 496.107 1855.83 491.437 1877.57 486.528C1890.22 483.672 1921.76 472.807 1930.32 481.019C1934.49 485.014 1939.51 499.331 1945.5 507.809C1952.07 517.114 1959.92 529.005 1964.26 538.774C1967.98 547.129 1971.44 561.372 1980.84 567.886C1985.53 571.129 1994.1 571.756 1998.11 575.417C2009.28 585.605 2024.1 594.463 2039.37 603.334C2049.28 609.098 2075.41 619.713 2080.31 627.309C2083.53 632.306 2076.99 635.472 2081.85 638.835C2087.72 635.013 2088.14 634.74 2092.49 629.515C2083.01 618.943 2068.93 604.788 2057.83 600.614C2050.19 597.74 2046.18 589.865 2037.89 585.178C2034.66 583.351 2030.4 583.041 2027.01 581.189C2018.79 576.693 2002.85 567.145 1997.43 562.069C1982.36 547.966 1973.29 520.668 1959.6 501.382C1950.62 488.75 1939.39 479.598 1930.42 467.202C1889.65 456.055 1850.28 475.387 1807 474.5Z" fill="#828EFF"/>
<path d="M1731.68 509.396C1739.71 503.456 1772 497 1772 486L1770 476.756C1771 476 1758.66 471.416 1758.11 476.756C1746.26 478.067 1740.67 485.435 1733.21 490.427C1723.74 496.762 1711.4 500.758 1700.98 506.574C1678.74 518.974 1660.63 531.102 1645.27 548.211C1633.77 562.605 1635.32 595.753 1636.64 617.664C1637.65 634.582 1644.84 651.403 1643.32 662.261C1641.03 678.754 1624.79 684.569 1618.61 697.674C1617.64 702.09 1622.29 701.247 1621.99 705.031C1603.46 716.129 1600.59 745.146 1592.8 766.561C1591.39 770.414 1595.59 769.5 1599.59 769.5C1610.59 770 1601.09 766.56 1603.09 762C1606.21 749.715 1610.36 727.739 1617.09 721.058C1621.72 713.291 1628.46 704.298 1634.48 696.054C1640.69 687.563 1650.34 680.515 1654.76 672.6C1663.89 656.226 1655.09 642.034 1652.69 625.437C1649.59 604.097 1648.41 582.478 1650.4 557.437C1668.42 545.336 1688.72 538.905 1706.62 527.589C1715.08 522.243 1723.32 515.571 1731.68 509.396Z" fill="#828EFF"/>
<path d="M1774 485.034C1774 489.986 1767.5 495 1767 493.5C1767 494 1760.28 490.486 1760.28 485.534C1760.28 480.583 1758.17 475.879 1764.5 474.5C1771.89 474.5 1774 480.083 1774 485.034Z" fill="#828EFF"/>
<path d="M1799 485.48C1799 490.876 1804.5 496.5 1806.5 495.5C1809 494 1813.64 491.421 1813.64 486.025C1813.64 480.629 1815.89 475.503 1809.14 474C1801.26 474 1799 480.084 1799 485.48Z" fill="#828EFF"/>
</svg>
