<svg width="469" height="520" viewBox="0 0 469 520" fill="none" xmlns="http://www.w3.org/2000/svg">
<path fill-rule="evenodd" clip-rule="evenodd" d="M208.295 5.93809C258.535 -6.70246 319.327 4.26639 357.342 39.4618C395.388 74.6863 392.162 134.747 402.337 185.588C409.806 222.905 400.096 260.618 409.008 297.618C421.591 349.858 483.559 395.404 465.026 445.842C447.639 493.162 379.625 496.94 330.949 510.061C290.756 520.895 249.921 515.446 208.295 515.044C167.09 514.646 121.886 529.638 87.0021 507.704C52.1773 485.806 43.7631 439.704 28.028 401.695C14.048 367.926 -0.748488 334.158 0.0294 297.618C0.798689 261.481 16.1481 228.35 32.4055 196.068C49.4467 162.229 71.3297 132.761 97.0582 104.95C131.352 67.8795 159.321 18.26 208.295 5.93809Z" fill="#170B9B"/>
</svg>
