<svg width="378" height="419" viewBox="0 0 378 419" fill="none" xmlns="http://www.w3.org/2000/svg">
<path fill-rule="evenodd" clip-rule="evenodd" d="M168.239 4.69575C208.619 -5.47511 257.479 3.35066 288.033 31.6696C318.612 60.012 316.019 108.338 324.197 149.246C330.2 179.272 322.395 209.617 329.558 239.388C339.672 281.421 389.477 318.069 374.582 358.652C360.608 396.726 305.943 399.767 266.82 410.324C234.516 419.041 201.695 414.657 168.239 414.333C135.122 414.013 98.7898 426.076 70.7524 408.427C42.7627 390.808 35.9999 353.713 23.3532 323.13C12.117 295.959 0.224589 268.789 0.849802 239.388C1.4681 210.312 13.8049 183.653 26.8715 157.678C40.568 130.451 58.156 106.74 78.8348 84.3626C106.398 54.5351 128.878 14.6102 168.239 4.69575Z" fill="#1848C1"/>
</svg>
