<svg width="321" height="357" viewBox="0 0 321 357" fill="none" xmlns="http://www.w3.org/2000/svg">
<path fill-rule="evenodd" clip-rule="evenodd" d="M142.319 4.37761C176.641 -4.27759 218.172 3.23297 244.143 27.3319C270.135 51.4507 267.931 92.5752 274.883 127.387C279.985 152.939 273.351 178.761 279.44 204.096C288.037 239.865 330.371 271.052 317.71 305.587C305.832 337.988 259.367 340.575 226.113 349.559C198.654 356.978 170.756 353.247 142.319 352.971C114.169 352.699 83.2867 362.964 59.4549 347.945C35.6636 332.952 29.9153 301.384 19.1655 275.359C9.6148 252.237 -0.493767 229.116 0.0376634 204.096C0.563219 179.353 11.0495 156.667 22.1561 134.563C33.7982 111.393 48.748 91.2156 66.3249 72.1726C89.7535 46.7899 108.861 12.8146 142.319 4.37761Z" fill="#0019FE"/>
</svg>
