<svg width="199" height="222" viewBox="0 0 199 222" fill="none" xmlns="http://www.w3.org/2000/svg">
<path fill-rule="evenodd" clip-rule="evenodd" d="M88.4554 2.18452C109.786 -3.20006 135.597 1.47241 151.737 16.4648C167.891 31.4696 166.522 57.054 170.842 78.7109C174.013 94.6075 169.89 110.672 173.674 126.433C179.017 148.686 205.327 168.088 197.458 189.573C190.076 209.73 161.199 211.34 140.532 216.929C123.467 221.544 106.129 219.223 88.4554 219.052C70.9606 218.882 51.7679 225.268 36.9569 215.925C22.171 206.597 18.5985 186.958 11.9177 170.768C5.98209 156.383 -0.300214 141.998 0.0300608 126.433C0.356685 111.04 6.87375 96.9266 13.7763 83.1753C21.0116 68.7609 30.3027 56.2082 41.2265 44.3611C55.7869 28.5701 67.6621 7.43336 88.4554 2.18452Z" fill="#5DD7FD"/>
</svg>
