<svg width="578" height="319" viewBox="0 0 578 319" fill="none" xmlns="http://www.w3.org/2000/svg">
<path fill-rule="evenodd" clip-rule="evenodd" d="M307.292 -202.92C354.17 -199.325 403.497 -219.272 445.878 -198.896C489.003 -178.163 515.027 -133.96 538.045 -91.9783C560.72 -50.6218 581.064 -5.67039 577.617 41.3789C574.254 87.2795 544.537 125.432 519.298 163.902C495.273 200.521 469.096 234.795 433.76 260.645C395.633 288.538 354.515 318.918 307.292 319C260.052 319.081 217.838 290.142 180.571 261.082C146.381 234.42 130.225 193.155 102.815 159.55C69.4319 118.623 10.4697 93.4239 1.36835 41.3789C-7.68734 -10.405 30.1786 -58.0688 56.8378 -103.364C83.3109 -148.342 107.407 -201.87 155.877 -221.137C203.942 -240.243 255.727 -206.875 307.292 -202.92Z" fill="#0038FF"/>
</svg>
