<svg width="457" height="301" viewBox="0 0 457 301" fill="none" xmlns="http://www.w3.org/2000/svg">
<path fill-rule="evenodd" clip-rule="evenodd" d="M242.962 -111.948C280.027 -109.103 319.028 -124.886 352.536 -108.764C386.634 -92.3594 407.21 -57.3863 425.409 -24.1697C443.337 8.55197 459.422 44.1179 456.697 81.3438C454.038 117.661 430.542 147.848 410.587 178.285C391.591 207.259 370.894 234.376 342.956 254.829C312.81 276.898 280.3 300.935 242.962 301C205.612 301.064 172.235 278.167 142.77 255.175C115.737 234.08 102.963 201.431 81.2913 174.842C54.8968 142.46 8.27793 122.522 1.0819 81.3438C-6.07805 40.3719 23.861 2.65987 44.9393 -33.1778C65.8704 -68.7653 84.922 -111.117 123.246 -126.361C161.248 -141.478 202.192 -115.077 242.962 -111.948Z" fill="#533EA5"/>
</svg>
