<svg width="418" height="263" viewBox="0 0 418 263" fill="none" xmlns="http://www.w3.org/2000/svg">
<path fill-rule="evenodd" clip-rule="evenodd" d="M222.228 -115.536C256.13 -112.928 291.802 -127.395 322.451 -112.617C353.639 -97.5794 372.459 -65.5208 389.105 -35.0722C405.503 -5.07736 420.216 27.5248 417.723 61.6484C415.291 94.939 393.8 122.61 375.548 150.511C358.173 177.07 339.242 201.928 313.688 220.677C286.115 240.907 256.38 262.941 222.228 263C188.065 263.059 157.537 242.07 130.586 220.993C105.861 201.657 94.1766 171.728 74.3539 147.355C50.212 117.672 7.5715 99.3953 0.989568 61.6484C-5.55935 24.0909 21.8247 -10.4785 41.1042 -43.3297C60.249 -75.9515 77.6748 -114.774 112.728 -128.748C147.487 -142.605 184.938 -118.404 222.228 -115.536Z" fill="#1F009D"/>
</svg>
