<svg width="590" height="589" viewBox="0 0 590 589" fill="none" xmlns="http://www.w3.org/2000/svg">
<path fill-rule="evenodd" clip-rule="evenodd" d="M201.977 157.476C227.366 115.746 255.614 66.6147 303.464 56.7988C351.318 46.982 395.117 83.2787 436.408 109.385C472.349 132.109 515.122 155.462 524.949 196.834C534.434 236.764 483.728 268.708 484.002 309.748C484.347 361.34 558.022 413.609 526.672 454.584C496.588 493.905 428.683 425.505 382.264 442.723C319.513 465.999 292.904 585.423 229.191 564.929C169.055 545.585 208.877 444.914 196.497 382.968C189.026 345.584 170.187 312.434 171.113 274.322C172.116 233.039 180.512 192.754 201.977 157.476Z" fill="#0E52D5"/>
</svg>
