<svg width="453" height="454" viewBox="0 0 453 454" fill="none" xmlns="http://www.w3.org/2000/svg">
<path fill-rule="evenodd" clip-rule="evenodd" d="M137.396 107.225C154.689 78.8034 173.929 45.3398 206.519 38.6542C239.113 31.968 268.944 56.6897 297.067 74.4704C321.547 89.9479 350.679 105.854 357.373 134.032C363.833 161.228 329.297 182.986 329.484 210.938C329.719 246.077 379.899 281.677 358.546 309.586C338.056 336.367 291.806 289.78 260.19 301.507C217.451 317.36 199.327 398.7 155.932 384.741C114.973 371.566 142.096 302.999 133.664 260.808C128.576 235.346 115.745 212.767 116.375 186.809C117.059 158.691 122.777 131.253 137.396 107.225Z" fill="#1F009D"/>
</svg>
