<svg width="67" height="101" viewBox="0 0 67 101" fill="none" xmlns="http://www.w3.org/2000/svg">
<path d="M4 50.5059C10.0083 49.4135 13.8281 48.321 18.7476 46.6824C23.667 45.0438 26.4087 42.5699 28.0366 40.128C28.4473 39.512 28.87 38.8558 29.2786 38.1603C32.8369 32.105 32.764 24.6565 33.365 17.6589C33.4501 16.6677 33.5008 15.6132 33.5 14.4564C33.4971 8.99441 33.4968 8.99441 33.5 4.07858" stroke="#F5F5F5" stroke-width="7" stroke-linecap="round" stroke-linejoin="round"/>
<path d="M4.00503 50.5059C10.0133 51.5983 13.8281 53.2369 18.7475 54.8755C23.667 56.5141 26.4087 58.988 28.0366 61.4299C28.4473 62.0459 28.87 62.7021 29.2786 63.3976C32.8369 69.4529 32.764 76.9014 33.3649 83.899C33.4501 84.8903 33.5008 85.9447 33.5 87.1015C33.4971 92.5635 33.4967 92.5635 33.5 97.4793" stroke="#F5F5F5" stroke-width="7" stroke-linecap="round" stroke-linejoin="round"/>
<path d="M63 50.5059C56.9917 49.4135 53.1719 48.321 48.2524 46.6824C43.333 45.0438 40.5913 42.5699 38.9634 40.128C38.5527 39.512 38.13 38.8558 37.7214 38.1603C34.1631 32.105 34.236 24.6565 33.635 17.6589C33.5499 16.6677 33.4992 15.6132 33.5 14.4564C33.5029 8.99441 33.5032 8.99441 33.5 4.07858" stroke="#F5F5F5" stroke-width="7" stroke-linecap="round" stroke-linejoin="round"/>
<path d="M62.995 50.5059C56.9867 51.5983 53.1719 53.2369 48.2525 54.8755C43.333 56.5141 40.5913 58.988 38.9634 61.4299C38.5527 62.0459 38.13 62.7021 37.7214 63.3976C34.1631 69.4529 34.236 76.9014 33.6351 83.899C33.5499 84.8903 33.4992 85.9447 33.5 87.1015C33.5029 92.5635 33.5033 92.5635 33.5 97.4793" stroke="#F5F5F5" stroke-width="7" stroke-linecap="round" stroke-linejoin="round"/>
</svg>
