<svg width="68" height="93" viewBox="0 0 68 93" fill="none" xmlns="http://www.w3.org/2000/svg">
<path d="M4.00028 46.4219C9.50035 45.4219 12.997 44.4219 17.5003 42.9219C22.0037 41.4219 24.5134 39.1572 26.0037 36.9219C26.2257 36.5888 26.4517 36.2428 26.6765 35.8841C30.4072 29.9336 30.5309 22.4737 30.9459 15.4626C30.9841 14.8181 31.0054 14.1416 31.0049 13.4219C31.0022 8.42188 31.0019 8.42188 31.0049 3.92188" stroke="#F5F5F5" stroke-width="7" stroke-linecap="round" stroke-linejoin="round"/>
<path d="M4.00488 46.4219C9.50495 47.4219 12.997 48.9219 17.5003 50.4219C22.0037 51.9219 24.5134 54.1865 26.0037 56.4219C26.2257 56.755 26.4516 57.101 26.6765 57.4596C30.4072 63.4102 30.5309 70.8701 30.9459 77.8811C30.9841 78.5256 31.0053 79.2021 31.0049 79.9219C31.0022 84.9219 31.0019 84.9219 31.0049 89.4219" stroke="#F5F5F5" stroke-width="7" stroke-linecap="round" stroke-linejoin="round"/>
<path d="M58.0095 46.4219C52.5094 45.4219 49.0127 44.4219 44.5094 42.9219C40.0061 41.4219 37.4963 39.1572 36.0061 36.9219C35.784 36.5888 35.5581 36.2428 35.3333 35.8841C31.6026 29.9336 31.4789 22.4737 31.0638 15.4626C31.0257 14.8181 31.0044 14.1416 31.0049 13.4219C31.0075 8.42188 31.0079 8.42188 31.0049 3.92188" stroke="#F5F5F5" stroke-width="7" stroke-linecap="round" stroke-linejoin="round"/>
<path d="M58.0049 46.4219C52.5048 47.4219 49.0127 48.9219 44.5094 50.4219C40.0061 51.9219 37.4963 54.1865 36.0061 56.4219C35.784 56.755 35.5581 57.101 35.3333 57.4596C31.6026 63.4102 31.4789 70.8701 31.0639 77.8811C31.0257 78.5256 31.0044 79.2021 31.0049 79.9219C31.0075 84.9219 31.0079 84.9219 31.0049 89.4219" stroke="#F5F5F5" stroke-width="7" stroke-linecap="round" stroke-linejoin="round"/>
<path d="M51 13.9385C52.4257 13.6793 53.3321 13.42 54.4994 13.0312C55.6667 12.6424 56.3173 12.0554 56.7036 11.4759V11.4759C57.8317 9.78375 57.9523 7.6262 57.9978 5.59296C57.9993 5.52495 58 5.45548 58 5.38438C57.9993 4.0883 57.9992 4.0883 58 2.92184" stroke="#F5F5F5" stroke-width="5" stroke-linecap="round" stroke-linejoin="round"/>
<path d="M51.0012 13.9385C52.4269 14.1977 53.3321 14.5865 54.4994 14.9753C55.6667 15.3642 56.3173 15.9512 56.7036 16.5306V16.5306C57.8317 18.2228 57.9523 20.3804 57.9978 22.4136C57.9993 22.4816 58 22.5511 58 22.6222C57.9993 23.9183 57.9992 23.9183 58 25.0847" stroke="#F5F5F5" stroke-width="5" stroke-linecap="round" stroke-linejoin="round"/>
<path d="M65 13.9385C63.5743 13.6793 62.6679 13.42 61.5006 13.0312C60.3333 12.6424 59.6827 12.0554 59.2964 11.4759V11.4759C58.1683 9.78375 58.0477 7.6262 58.0022 5.59296C58.0007 5.52495 58 5.45548 58 5.38438C58.0007 4.0883 58.0008 4.0883 58 2.92184" stroke="#F5F5F5" stroke-width="5" stroke-linecap="round" stroke-linejoin="round"/>
<path d="M64.9988 13.9385C63.5731 14.1977 62.6679 14.5865 61.5006 14.9753C60.3333 15.3642 59.6827 15.9512 59.2964 16.5306V16.5306C58.1683 18.2228 58.0477 20.3804 58.0022 22.4136C58.0007 22.4816 58 22.5511 58 22.6222C58.0007 23.9183 58.0008 23.9183 58 25.0847" stroke="#F5F5F5" stroke-width="5" stroke-linecap="round" stroke-linejoin="round"/>
</svg>
