<svg width="48" height="65" viewBox="0 0 48 65" fill="none" xmlns="http://www.w3.org/2000/svg">
<path d="M3.99976 32.418C7.69652 31.7458 10.0468 31.0737 13.0736 30.0655C16.1004 29.0573 17.7873 27.5352 18.7889 26.0327V26.0327C21.7141 21.645 22.0266 16.0506 22.1446 10.7785C22.1485 10.6021 22.1505 10.422 22.1504 10.2376C22.1486 6.87698 22.1484 6.87698 22.1504 3.85239" stroke="#F5F5F5" stroke-width="7" stroke-linecap="round" stroke-linejoin="round"/>
<path d="M4.00285 32.418C7.69961 33.0901 10.0467 34.0983 13.0736 35.1065C16.1004 36.1147 17.7873 37.6368 18.7889 39.1393V39.1393C21.7141 43.527 22.0266 49.1214 22.1446 54.3935C22.1485 54.5699 22.1505 54.75 22.1504 54.9344C22.1486 58.295 22.1484 58.295 22.1504 61.3196" stroke="#F5F5F5" stroke-width="7" stroke-linecap="round" stroke-linejoin="round"/>
<path d="M40.301 32.418C36.6043 31.7458 34.254 31.0737 31.2272 30.0655C28.2004 29.0573 26.5135 27.5352 25.5119 26.0327V26.0327C22.5867 21.645 22.2742 16.0506 22.1562 10.7785C22.1523 10.6021 22.1503 10.422 22.1504 10.2376C22.1522 6.87698 22.1524 6.87698 22.1504 3.85239" stroke="#F5F5F5" stroke-width="7" stroke-linecap="round" stroke-linejoin="round"/>
<path d="M40.2979 32.418C36.6012 33.0901 34.254 34.0983 31.2272 35.1065C28.2004 36.1147 26.5135 37.6368 25.5119 39.1393V39.1393C22.5867 43.527 22.2742 49.1214 22.1562 54.3935C22.1523 54.5699 22.1503 54.75 22.1504 54.9344C22.1522 58.295 22.1524 58.295 22.1504 61.3196" stroke="#F5F5F5" stroke-width="7" stroke-linecap="round" stroke-linejoin="round"/>
<path d="M35.59 10.585C36.5483 10.4107 37.1575 10.2365 37.9421 9.97517C38.7267 9.71383 39.1639 9.31927 39.4236 8.92981V8.92981C40.1818 7.79244 40.2628 6.34228 40.2934 4.97568C40.2944 4.92997 40.295 4.88327 40.2949 4.83549C40.2945 3.96435 40.2944 3.96435 40.2949 3.18033" stroke="#F5F5F5" stroke-width="5" stroke-linecap="round" stroke-linejoin="round"/>
<path d="M35.5908 10.585C36.5491 10.7592 37.1575 11.0205 37.9421 11.2819C38.7267 11.5432 39.1639 11.9378 39.4236 12.3272V12.3272C40.1818 13.4646 40.2628 14.9148 40.2934 16.2814C40.2944 16.3271 40.295 16.3738 40.2949 16.4215C40.2945 17.2927 40.2944 17.2927 40.2949 18.0767" stroke="#F5F5F5" stroke-width="5" stroke-linecap="round" stroke-linejoin="round"/>
<path d="M44.9998 10.585C44.0416 10.4107 43.4324 10.2365 42.6478 9.97517C41.8632 9.71383 41.4259 9.31927 41.1663 8.92981V8.92981C40.408 7.79244 40.327 6.34228 40.2964 4.97568C40.2954 4.92997 40.2949 4.88327 40.2949 4.83549C40.2954 3.96435 40.2954 3.96435 40.2949 3.18033" stroke="#F5F5F5" stroke-width="5" stroke-linecap="round" stroke-linejoin="round"/>
<path d="M44.999 10.585C44.0408 10.7592 43.4324 11.0205 42.6478 11.2819C41.8632 11.5432 41.4259 11.9378 41.1663 12.3272V12.3272C40.408 13.4646 40.327 14.9148 40.2964 16.2814C40.2954 16.3271 40.2949 16.3738 40.2949 16.4215C40.2954 17.2927 40.2954 17.2927 40.2949 18.0767" stroke="#F5F5F5" stroke-width="5" stroke-linecap="round" stroke-linejoin="round"/>
</svg>
