<svg width="768" height="245" viewBox="0 0 768 245" fill="none" xmlns="http://www.w3.org/2000/svg">
<path d="M0 244.053L0 -0.000133634H55.04H73.8133H89.1733H122.027L278.187 -0.000133634H302.507H312.747H391.68V244.053L192.427 244.053L137.813 218.453L73.8133 244.053H0Z" fill="#1D1C1C"/>
<path fill-rule="evenodd" clip-rule="evenodd" d="M587.912 0.0409848C583.679 0.426353 579.002 1.7534 576.483 2.79041C575.8 3.07167 574.964 3.32557 574.097 3.58901C571.291 4.44158 568.155 5.39415 568.795 7.69804C569.178 9.07655 570.035 10.481 571.042 12.1291C572.46 14.4526 574.175 17.2603 575.272 21.1622C575.308 21.2897 575.343 21.4173 575.379 21.5451C576.327 24.9228 577.301 28.3965 579.641 30.9991C594.985 48.068 621.178 44.1676 644.081 40.7568C656.036 38.9767 667.094 37.3299 675.247 38.8677C695.133 42.6188 699.982 51.2175 702.165 55.0891C702.416 55.5345 702.632 55.9174 702.832 56.2231C705.265 59.953 708.868 52.3035 712.892 43.7627C716.532 36.0339 720.517 27.5753 724.289 26.1582C725.017 25.8849 724.962 26.1177 724.916 26.317C724.871 26.5075 724.834 26.6674 725.493 26.3255C729.444 24.2769 739.015 18.3127 734.104 18.0761C724.671 17.6218 705.121 13.2149 697.596 3.3336C695.232 0.797371 640.423 0.0410839 633.596 0.0410839C633.043 0.0410878 632.626 0.101421 632.311 0.206451C631.074 0.618675 630.414 1.74429 629.75 2.87515C629.107 3.97116 628.461 5.07211 627.285 5.53331C626.042 6.02026 624.806 6.05083 623.609 5.58026C622.001 4.94773 620.484 3.94675 619.026 2.98362C615.914 0.929077 613.063 -0.953179 610.129 1.28109C608.192 2.75625 606.989 4.13073 605.9 5.37434C605.257 6.10842 604.654 6.79691 603.964 7.4336C602.286 8.98168 599.701 8.84706 598.551 6.87461C597.83 5.63757 597.194 4.11239 596.548 2.55184C595.928 1.05144 594.272 0.301414 592.131 0.0409848H587.912Z" fill="#1D1C1C"/>
<path d="M391.68 244.053V-0.000133634H575.574H591.361L587.947 20.4799L629.761 9.38653L633.601 -0.000133634H668.161H729.601H768V244.053L391.68 244.053Z" fill="#1D1C1C"/>
<path fill-rule="evenodd" clip-rule="evenodd" d="M106.463 244.093C106.675 243.866 106.885 243.637 107.091 243.407C108.112 242.271 109.156 241.01 110.218 239.727C115.471 233.381 121.157 226.511 126.526 231.822C127.142 232.431 127.738 233.084 128.327 233.729C129.37 234.872 130.394 235.993 131.479 236.819C134.26 238.937 137.598 237.849 140.657 236.853C144.021 235.758 147.048 234.772 148.625 238.276C148.94 238.975 149.27 239.674 149.619 240.344C150.724 242.462 152.7 243.699 154.998 244.093H193.426C193.787 242.393 190.526 238.337 187.328 234.36C183.955 230.166 180.652 226.059 181.741 224.893C172.02 226.596 157.147 220.837 141.133 214.638C118.773 205.981 94.1903 196.463 78.3038 205.194C71.1314 209.136 68.9548 217.723 68.1885 225.871C67.4992 233.201 68.9123 239.417 71.6958 244.093H106.463Z" fill="#1D1C1C"/>
<path fill-rule="evenodd" clip-rule="evenodd" d="M407.671 129.536L431.335 105.872L407.668 82.2056V129.536V129.539V129.542V174.07H407.665V129.542H407.668L407.665 129.54V129.539V129.538L407.668 129.536H407.665V82.2056L384 105.871L360.334 82.2056V129.536V129.539V129.542V174.07H360.331V129.542H360.333L360.331 129.54V129.539V129.538L360.333 129.536H360.331V82.2056L336.665 105.872L360.328 129.536H360.327L336.667 105.876L313.006 129.536H313L313.003 129.539L313 129.542H313.006L336.666 153.202L336.665 153.203L357.532 174.07H357.377L384.002 200.695L410.627 174.07H410.468L431.335 153.203L454.995 129.542H455.002L454.998 129.539L455.002 129.536H454.995L431.335 105.876L407.675 129.536H407.671ZM404.866 174.07L384 153.204L363.134 174.07H404.866ZM407.662 129.536L384 105.873L360.337 129.536H360.34L384.001 105.876L407.661 129.536H407.662Z" fill="#858383"/>
<path d="M407.669 175.995L360.336 176.203L384.176 146.62L407.669 175.995Z" fill="#858383"/>
<path d="M373.727 181.905L383.825 192.003L383.644 181.902L373.727 181.905Z" fill="#1D1C1C"/>
<path d="M394.684 181.905L384.585 192.003L384.766 181.902L394.684 181.905Z" fill="#1D1C1C"/>
<path d="M314.388 41.923L352.818 54.9317L361.684 89.9696" stroke="#858383" stroke-width="2"/>
<path d="M453.667 41.8695L415.263 54.9605L406.318 89.9695" stroke="#858383" stroke-width="2"/>
<rect x="330.031" y="130.082" width="34.1651" height="34.1651" transform="rotate(-45 330.031 130.082)" fill="#1D1C1C"/>
<rect x="389.82" y="129.811" width="34.1651" height="34.1651" transform="rotate(-45 389.82 129.811)" fill="#1D1C1C"/>
</svg>
