<svg width="370" height="900" viewBox="0 0 370 900" fill="none" xmlns="http://www.w3.org/2000/svg">
<path d="M0 0H286V64.5V86.5V104.5V143V326V354.5L266 363L286 459H0V225.5L30 161.5L0 86.5V0Z" fill="black"/>
<path d="M277.816 369.995C277.927 370.6 278.151 371.267 278.5 372C280.796 376.825 281.561 382.329 285.499 387.501C286.079 388.262 285.454 389.838 284.29 391.727C279.444 399.585 272.398 406.865 280.644 411.016C283.361 412.384 285.573 415.595 285.707 418.633C286.177 429.341 285.999 455.166 285.999 458.501C285.999 466.5 268.125 444.737 265.15 447.501C270.038 421.584 231.789 390.192 249.523 365.685C254.757 358.452 263.888 356.087 272.767 355.146C275.626 354.843 277.905 354.467 279.698 354.066C290.402 351.668 283.786 348.347 279.698 354.066C277.708 356.85 276.317 361.776 277.816 369.995Z" fill="black"/>
<path d="M0.152693 131.09C-0.536973 130.483 -1.21845 129.855 -1.89173 129.207C-22.3504 109.525 -8.90885 84.7333 19.322 87.7246C28.2012 88.6654 37.4488 91.0925 41.9633 98.7961C59.8064 129.244 16.6506 188.015 21.5768 214.136C18.601 211.371 -0.740182 233.135 -0.740179 225.135C-0.740181 221.823 -0.915786 196.313 -0.456864 185.48C-0.321949 182.296 1.13313 179.486 3.983 178.059C4.65091 177.724 5.34242 177.407 6.03491 177.104C13.5881 173.793 2.50344 164.561 7.5 158C8.97748 156.06 11.3279 154.309 13.2353 152.35C20.1728 145.225 7.61989 137.658 0.152693 131.09Z" fill="black"/>
<path d="M0 458.999H286V674.5V693L262 689L275 738L286 742.5V783V855V899.999H0V458.999Z" fill="#1D1C1C"/>
<g clip-path="url(#clip0)">
<path d="M106.429 841.811L105.209 835.112L106.86 834.535L109.3 837.417L109.372 833.599L111.022 833.022L114.324 838.93L112.673 839.506L110.807 836.048L110.664 840.227L110.018 840.443L107.29 837.345L108.08 841.163L106.429 841.811Z" fill="#878080" fill-opacity="0.24"/>
<path d="M119.707 844.116L121.717 844.404L122.65 847.142L124.516 844.909L126.454 845.197L121.142 851.176L119.42 850.888L121.43 848.583L119.707 844.116Z" fill="#878080" fill-opacity="0.24"/>
<path d="M139.661 849.664L137.938 849.952L136.934 843.325L139.661 842.892C140.379 842.748 141.025 842.892 141.455 843.181C141.886 843.541 142.173 844.045 142.316 844.693C142.46 845.342 142.316 845.99 141.958 846.422C141.599 846.855 141.096 847.143 140.307 847.287L139.302 847.431L139.661 849.664ZM139.159 846.062L139.733 845.99C140.379 845.918 140.666 845.558 140.522 845.054C140.45 844.477 140.092 844.261 139.446 844.405L138.871 844.477L139.159 846.062Z" fill="#878080" fill-opacity="0.24"/>
<path d="M154.016 838.786L151.576 839.218L151.36 840.443L149.494 840.731L150.93 833.671L152.796 833.383L156.384 839.578L154.518 839.867L154.016 838.786ZM153.298 837.489L152.15 835.4L151.719 837.705L153.298 837.489Z" fill="#878080" fill-opacity="0.24"/>
<path d="M163.059 844.189L165.571 843.468C166.145 843.324 166.647 843.324 167.006 843.468C167.365 843.685 167.652 844.045 167.867 844.549C167.939 844.837 168.011 845.125 167.939 845.414C167.867 845.63 167.796 845.918 167.58 846.134C167.867 846.134 168.083 846.134 168.226 846.134C168.441 846.206 168.585 846.278 168.729 846.35C168.872 846.422 169.016 846.566 169.087 846.71C169.159 846.854 169.231 847.07 169.303 847.215C169.374 847.503 169.446 847.791 169.375 848.079C169.375 848.367 169.231 848.583 169.087 848.799C168.944 849.016 168.729 849.232 168.513 849.376C168.298 849.52 167.939 849.664 167.652 849.808L164.996 850.6L163.059 844.189ZM165.499 846.206L165.786 846.134C166.288 845.99 166.504 845.702 166.36 845.269C166.217 844.837 165.929 844.693 165.355 844.909L165.068 844.981L165.499 846.206ZM166.288 848.799L166.647 848.655C167.078 848.511 167.365 848.367 167.508 848.223C167.652 848.079 167.724 847.863 167.652 847.647C167.58 847.431 167.437 847.287 167.221 847.215C167.006 847.143 166.719 847.215 166.288 847.359L165.929 847.431L166.288 848.799Z" fill="#878080" fill-opacity="0.24"/>
<path d="M180.57 838.137L178.489 837.849L178.346 838.93L180.283 839.218L180.068 840.659L178.13 840.371L177.987 841.523L180.068 841.811L179.853 843.252L176.049 842.748L176.982 836.12L180.786 836.624L180.57 838.137Z" fill="#878080" fill-opacity="0.24"/>
<path d="M117.842 865.441L118.775 869.475L120.928 864.72L122.65 864.288L124.229 870.844L122.507 871.276L121.574 867.314L119.421 872.068L117.698 872.501L116.119 865.945L117.842 865.441ZM118.201 863.063C118.344 863.423 118.703 863.567 119.134 863.423C119.564 863.351 119.779 863.063 119.779 862.631L120.856 862.343C120.928 862.847 120.856 863.207 120.569 863.567C120.282 863.928 119.923 864.144 119.349 864.288C118.775 864.432 118.344 864.432 117.913 864.216C117.555 864 117.267 863.712 117.124 863.207L118.201 863.063Z" fill="#878080" fill-opacity="0.24"/>
<path d="M137.077 871.132L139.589 871.492L139.948 868.898L141.671 869.187L140.666 875.814L138.944 875.526L139.374 872.789L136.862 872.428L136.431 875.166L134.709 874.878L135.714 868.25L137.436 868.538L137.077 871.132Z" fill="#878080" fill-opacity="0.24"/>
<path d="M148.058 857.733L148.489 861.839L151.288 857.445L153.011 857.301L153.657 864.001L151.934 864.145L151.503 860.038L148.704 864.433L146.982 864.577L146.336 857.877L148.058 857.733Z" fill="#878080" fill-opacity="0.24"/>
<path d="M164.782 868.755L167.438 866.522L169.519 867.026L166.217 869.547L168.227 873.654L166.002 873.149L164.423 869.764L163.777 872.573L162.055 872.213L163.562 865.657L165.284 866.017L164.782 868.755Z" fill="#878080" fill-opacity="0.24"/>
</g>
<path d="M46.1698 67L49.2418 48.904H53.8978L57.5218 58.552L61.1218 48.904H65.7778L68.8498 67H64.1698L62.6098 56.584L58.3378 67H56.4658L52.4098 56.584L50.8498 67H46.1698ZM70.0056 48.904H75.5976L79.2696 55.72L83.3256 48.904H88.5336L76.7496 67H72.0216L76.4376 59.992L70.0056 48.904ZM94.7914 57.208H96.3514C98.0794 57.208 98.9434 56.456 98.9434 54.952C98.9434 53.448 98.0794 52.696 96.3514 52.696H94.7914V57.208ZM94.7914 67H90.0874V48.904H97.5754C99.6074 48.904 101.159 49.432 102.231 50.488C103.319 51.544 103.863 53.032 103.863 54.952C103.863 56.872 103.319 58.36 102.231 59.416C101.159 60.472 99.6074 61 97.5754 61H94.7914V67ZM115.185 60.28L113.073 54.256L110.961 60.28H115.185ZM116.433 63.856H109.713L108.633 67H103.617L110.505 48.904H115.641L122.529 67H117.513L116.433 63.856ZM129.315 63.352H130.347C131.531 63.352 132.379 63.2 132.891 62.896C133.403 62.592 133.659 62.104 133.659 61.432C133.659 60.76 133.403 60.272 132.891 59.968C132.379 59.664 131.531 59.512 130.347 59.512H129.315V63.352ZM129.315 56.008H130.179C131.651 56.008 132.387 55.424 132.387 54.256C132.387 53.088 131.651 52.504 130.179 52.504H129.315V56.008ZM124.611 48.904H131.619C133.283 48.904 134.547 49.304 135.411 50.104C136.275 50.904 136.707 52.056 136.707 53.56C136.707 54.472 136.539 55.232 136.203 55.84C135.883 56.432 135.387 56.936 134.715 57.352C135.387 57.48 135.955 57.68 136.419 57.952C136.899 58.208 137.283 58.528 137.571 58.912C137.875 59.296 138.091 59.728 138.219 60.208C138.347 60.688 138.411 61.2 138.411 61.744C138.411 62.592 138.259 63.344 137.955 64C137.667 64.656 137.251 65.208 136.707 65.656C136.179 66.104 135.531 66.44 134.763 66.664C133.995 66.888 133.131 67 132.171 67H124.611V48.904ZM151.524 52.888H145.932V55.912H151.212V59.896H145.932V63.016H151.524V67H141.228V48.904H151.524V52.888ZM159.62 48.904V59.992L168.284 48.904H172.988V67H168.284V55.936L159.62 67H154.916V48.904H159.62ZM161.996 43C162.236 44.072 162.94 44.608 164.108 44.608C165.292 44.608 166.004 44.072 166.244 43H169.292C169.228 44.296 168.732 45.32 167.804 46.072C166.924 46.808 165.692 47.176 164.108 47.176C162.572 47.176 161.34 46.808 160.412 46.072C159.516 45.336 159.028 44.312 158.948 43H161.996ZM181.487 55.888H188.279V48.904H192.983V67H188.279V59.536H181.487V67H176.783V48.904H181.487V55.888ZM201.479 48.904V59.992L210.143 48.904H214.847V67H210.143V55.936L201.479 67H196.775V48.904H201.479ZM223.346 56.368L229.082 48.904H234.89L227.714 57.472L235.562 67H229.466L223.346 59.152V67H218.642V48.904H223.346V56.368ZM118.071 92.92C118.327 92.952 118.535 92.968 118.695 92.968C118.887 92.968 119.047 92.968 119.175 92.968C120.359 92.968 121.319 92.616 122.055 91.912C122.791 91.208 123.159 90.296 123.159 89.176C123.159 88.088 122.807 87.208 122.103 86.536C121.431 85.864 120.551 85.528 119.463 85.528C118.311 85.528 117.383 85.912 116.679 86.68C115.975 87.448 115.623 88.44 115.623 89.656H106.935C107.159 87.768 107.623 86.088 108.327 84.616C109.063 83.144 109.991 81.912 111.111 80.92C112.231 79.896 113.543 79.128 115.047 78.616C116.551 78.072 118.215 77.8 120.039 77.8C121.831 77.8 123.447 78.056 124.887 78.568C126.359 79.048 127.607 79.752 128.631 80.68C129.687 81.576 130.487 82.68 131.031 83.992C131.607 85.272 131.895 86.712 131.895 88.312C131.895 90.04 131.559 91.464 130.887 92.584C130.247 93.672 129.319 94.616 128.103 95.416C129.959 95.992 131.399 97.032 132.423 98.536C133.479 100.008 134.007 101.832 134.007 104.008C134.007 105.8 133.655 107.432 132.951 108.904C132.247 110.376 131.255 111.64 129.975 112.696C128.727 113.752 127.223 114.568 125.463 115.144C123.735 115.72 121.831 116.008 119.751 116.008C116.967 116.008 114.455 115.464 112.215 114.376C109.975 113.288 108.183 111.56 106.839 109.192C106.231 108.136 105.815 107.08 105.591 106.024C105.399 104.968 105.303 103.896 105.303 102.808H114.615C114.679 104.504 115.175 105.8 116.103 106.696C117.031 107.56 118.279 107.992 119.847 107.992C121.511 107.992 122.727 107.544 123.495 106.648C124.263 105.752 124.647 104.648 124.647 103.336C124.647 101.768 124.183 100.584 123.255 99.784C122.327 98.984 121.223 98.584 119.943 98.584C119.623 98.584 119.319 98.616 119.031 98.68C118.743 98.712 118.423 98.76 118.071 98.824V92.92ZM138.888 110.392C138.888 109.624 139.032 108.904 139.32 108.232C139.608 107.528 140.008 106.92 140.52 106.408C141.032 105.896 141.624 105.496 142.296 105.208C143 104.92 143.736 104.776 144.504 104.776C145.272 104.776 145.992 104.92 146.664 105.208C147.368 105.496 147.976 105.896 148.488 106.408C149 106.92 149.4 107.528 149.688 108.232C149.976 108.904 150.12 109.624 150.12 110.392C150.12 111.16 149.976 111.896 149.688 112.6C149.4 113.272 149 113.864 148.488 114.376C147.976 114.888 147.368 115.288 146.664 115.576C145.992 115.864 145.272 116.008 144.504 116.008C143.736 116.008 143 115.864 142.296 115.576C141.624 115.288 141.032 114.888 140.52 114.376C140.008 113.864 139.608 113.272 139.32 112.6C139.032 111.896 138.888 111.16 138.888 110.392ZM162.928 96.856C162.928 98.456 163.072 99.912 163.36 101.224C163.648 102.536 164.048 103.672 164.56 104.632C165.104 105.592 165.744 106.344 166.48 106.888C167.216 107.4 168.048 107.656 168.976 107.656C169.872 107.656 170.688 107.4 171.424 106.888C172.192 106.344 172.832 105.592 173.344 104.632C173.856 103.672 174.256 102.536 174.544 101.224C174.832 99.912 174.976 98.456 174.976 96.856C174.976 95.288 174.832 93.848 174.544 92.536C174.256 91.192 173.856 90.056 173.344 89.128C172.832 88.168 172.192 87.432 171.424 86.92C170.688 86.376 169.872 86.104 168.976 86.104C168.048 86.104 167.216 86.376 166.48 86.92C165.744 87.432 165.104 88.168 164.56 89.128C164.048 90.056 163.648 91.192 163.36 92.536C163.072 93.848 162.928 95.288 162.928 96.856ZM153.616 96.856C153.616 93.976 153.984 91.368 154.72 89.032C155.488 86.664 156.544 84.648 157.888 82.984C159.264 81.32 160.88 80.04 162.736 79.144C164.624 78.216 166.704 77.752 168.976 77.752C171.216 77.752 173.28 78.216 175.168 79.144C177.056 80.04 178.672 81.32 180.016 82.984C181.36 84.648 182.4 86.664 183.136 89.032C183.904 91.368 184.288 93.976 184.288 96.856C184.288 99.736 183.904 102.36 183.136 104.728C182.4 107.064 181.36 109.08 180.016 110.776C178.672 112.44 177.056 113.736 175.168 114.664C173.28 115.56 171.216 116.008 168.976 116.008C166.704 116.008 164.624 115.56 162.736 114.664C160.88 113.736 159.264 112.44 157.888 110.776C156.544 109.08 155.488 107.064 154.72 104.728C153.984 102.36 153.616 99.736 153.616 96.856Z" fill="#363434"/>
<path fill-rule="evenodd" clip-rule="evenodd" d="M118.336 235.375L140.502 213.21L140.502 213.211L118.337 235.375H118.336ZM118.336 235.375V191.042L140.502 213.208L162.667 191.043V191.042L162.667 191.042L162.667 191.042V191.043L184.834 213.209L162.668 235.375L162.668 235.375L184.834 213.21L206.999 235.375H207.001L207 235.376L207.001 235.377H206.999L184.834 257.542L165.291 277.085H165.438L140.501 302.023L115.563 277.085H115.709L96.1663 257.542L96.1666 257.542L74.0014 235.377H74L74.0007 235.376L74 235.375H74.0014L96.1669 213.21L118.332 235.375H118.333L96.1663 213.209L118.333 191.042V235.375H118.334L118.333 235.376V235.376L118.334 235.377H118.333V277.085H118.336V235.377V235.376V235.375ZM140.502 257.543L120.96 277.085H160.043L140.502 257.543Z" fill="#858383"/>
<path d="M134.584 235.96L112.417 258.127L90.25 235.96H134.584Z" fill="black"/>
<path d="M134.584 235.959H90.25L112.417 213.792L134.584 235.959Z" fill="black"/>
<path d="M162.67 278.887L118.336 279.082L140.666 251.373L162.67 278.887Z" fill="#858383"/>
<path d="M190.814 235.96L168.647 258.127L146.48 235.96H190.814Z" fill="black"/>
<path d="M190.814 235.959H146.48L168.647 213.792L190.814 235.959Z" fill="black"/>
<path d="M130.879 284.419L140.337 293.877L140.168 284.416L130.879 284.419Z" fill="black"/>
<path d="M150.508 284.419L141.05 293.877L141.219 284.416L150.508 284.419Z" fill="black"/>
<path d="M75.3029 153.31L111.298 165.495L119.601 198.312" stroke="#858383" stroke-width="2"/>
<path d="M205.752 153.26L169.781 165.522L161.404 198.312" stroke="#858383" stroke-width="2"/>
<path d="M141.539 238.903C141.539 238.29 141.304 237.764 140.962 237.508V238.273L141.528 239.122C141.534 239.052 141.539 238.98 141.539 238.903V238.903ZM142.116 238.903C142.116 239.229 142.07 239.534 141.992 239.818L142.34 240.341C142.493 239.911 142.578 239.423 142.578 238.903C142.578 237.421 141.888 236.181 140.962 235.866V236.579C141.629 236.877 142.116 237.805 142.116 238.903ZM138.715 235.786L138.422 236.226L139.514 237.864H138.422V239.942H139.345L140.5 241.674V239.343L141.481 240.815C141.327 240.995 141.153 241.137 140.962 241.224V241.937C141.28 241.83 141.569 241.608 141.814 241.311L142.285 242.021L142.578 241.581L140.5 238.463L138.715 235.786ZM140.5 236.132L140.017 236.856L140.5 237.58V236.132Z" fill="#858383"/>
<path d="M284.5 715C281.745 711.383 279.29 709.949 277.278 707.762C275.474 705.802 275.614 702.796 277.849 701.346C279.464 700.299 281.504 699.356 283.528 698.365C288.819 695.777 284.68 680.878 282.554 675.385C281.301 672.148 280.705 665.702 277.322 666.475C273.323 667.388 269.247 671.889 261.202 674.151C257.104 675.303 252.84 676.426 249.674 679.271C219.231 706.638 245.708 763.451 240.453 791.31C235.552 817.295 223.587 821.37 220.115 823.636C211.789 829.068 251.851 839.474 255.347 848.781C255.974 850.449 254.331 848.611 255.151 850.192C257.552 854.822 264.541 866.038 264.818 860.282C265.351 849.229 270.515 826.319 282.095 817.5C285.067 814.73 283.095 749.501 283.095 741.5C283.095 739.194 281.081 738.082 279.969 736.062C278.99 734.285 278.79 732.507 279.462 730.797C281.784 724.89 288.346 720.05 284.5 715Z" fill="#1D1C1C"/>
<defs>
<clipPath id="clip0">
<rect width="61" height="86" fill="white" transform="translate(100 885.001) rotate(-90)"/>
</clipPath>
</defs>
</svg>
