<svg width="287" height="900" viewBox="0 0 287 900" fill="none" xmlns="http://www.w3.org/2000/svg">
<path d="M0.046875 0H286.047V64.5V86.5V104.5V143V326V354.5V366.5V459H0.046875V225.5L30.0469 161.5L0.046875 86.5V0Z" fill="black"/>
<path fill-rule="evenodd" clip-rule="evenodd" d="M286 688.963C285.548 684.002 283.993 678.523 282.778 675.571C282.448 674.77 282.151 673.791 281.842 672.775C280.843 669.486 279.726 665.811 277.027 666.561C275.411 667.01 273.765 668.015 271.834 669.194C269.111 670.857 265.821 672.866 261.248 674.151C261.099 674.193 260.949 674.235 260.799 674.277C256.841 675.387 252.771 676.529 249.721 679.271C229.718 697.253 234.289 727.947 238.286 754.788C240.372 768.797 242.302 781.756 240.5 791.31C236.104 814.614 226.027 820.296 221.49 822.854C220.968 823.149 220.52 823.402 220.161 823.636C215.79 826.487 224.755 830.71 234.763 835.425C243.82 839.691 253.733 844.36 255.394 848.781C255.714 849.634 255.441 849.57 255.207 849.515C254.984 849.463 254.797 849.419 255.198 850.192C257.598 854.822 264.588 866.038 264.865 860.282C265.397 849.229 270.562 826.319 282.141 817.5C285.113 814.73 286 750.5 286 742.5C286 741.852 285.929 741.364 285.806 740.994C285.323 739.545 284.004 738.771 282.678 737.993C281.394 737.24 280.104 736.483 279.563 735.104C278.993 733.648 278.957 732.2 279.508 730.797C280.25 728.912 281.423 727.135 282.551 725.426C284.959 721.779 287.165 718.438 284.546 715C282.818 712.73 281.207 711.32 279.75 710.044C278.889 709.291 278.083 708.584 277.336 707.775C275.522 705.809 275.68 702.779 277.992 701.432C279.441 700.586 281.229 699.841 283.057 699.085C284.815 698.358 285.694 696.418 286 693.909V688.963Z" fill="#1D1C1C"/>
<path d="M46.2167 67L49.2887 48.904H53.9447L57.5687 58.552L61.1687 48.904H65.8247L68.8967 67H64.2167L62.6567 56.584L58.3847 67H56.5127L52.4567 56.584L50.8967 67H46.2167ZM70.0525 48.904H75.6445L79.3165 55.72L83.3725 48.904H88.5805L76.7965 67H72.0685L76.4845 59.992L70.0525 48.904ZM94.8383 57.208H96.3983C98.1263 57.208 98.9903 56.456 98.9903 54.952C98.9903 53.448 98.1263 52.696 96.3983 52.696H94.8383V57.208ZM94.8383 67H90.1343V48.904H97.6223C99.6543 48.904 101.206 49.432 102.278 50.488C103.366 51.544 103.91 53.032 103.91 54.952C103.91 56.872 103.366 58.36 102.278 59.416C101.206 60.472 99.6543 61 97.6223 61H94.8383V67ZM115.232 60.28L113.12 54.256L111.008 60.28H115.232ZM116.48 63.856H109.76L108.68 67H103.664L110.552 48.904H115.688L122.576 67H117.56L116.48 63.856ZM129.362 63.352H130.394C131.578 63.352 132.426 63.2 132.938 62.896C133.45 62.592 133.706 62.104 133.706 61.432C133.706 60.76 133.45 60.272 132.938 59.968C132.426 59.664 131.578 59.512 130.394 59.512H129.362V63.352ZM129.362 56.008H130.226C131.698 56.008 132.434 55.424 132.434 54.256C132.434 53.088 131.698 52.504 130.226 52.504H129.362V56.008ZM124.658 48.904H131.666C133.33 48.904 134.594 49.304 135.458 50.104C136.322 50.904 136.754 52.056 136.754 53.56C136.754 54.472 136.586 55.232 136.25 55.84C135.93 56.432 135.434 56.936 134.762 57.352C135.434 57.48 136.002 57.68 136.466 57.952C136.946 58.208 137.33 58.528 137.618 58.912C137.922 59.296 138.138 59.728 138.266 60.208C138.394 60.688 138.458 61.2 138.458 61.744C138.458 62.592 138.306 63.344 138.002 64C137.714 64.656 137.298 65.208 136.754 65.656C136.226 66.104 135.578 66.44 134.81 66.664C134.042 66.888 133.178 67 132.218 67H124.658V48.904ZM151.571 52.888H145.979V55.912H151.259V59.896H145.979V63.016H151.571V67H141.275V48.904H151.571V52.888ZM159.666 48.904V59.992L168.33 48.904H173.034V67H168.33V55.936L159.666 67H154.962V48.904H159.666ZM162.042 43C162.282 44.072 162.986 44.608 164.154 44.608C165.338 44.608 166.05 44.072 166.29 43H169.338C169.274 44.296 168.778 45.32 167.85 46.072C166.97 46.808 165.738 47.176 164.154 47.176C162.618 47.176 161.386 46.808 160.458 46.072C159.562 45.336 159.074 44.312 158.994 43H162.042ZM181.534 55.888H188.326V48.904H193.03V67H188.326V59.536H181.534V67H176.83V48.904H181.534V55.888ZM201.526 48.904V59.992L210.19 48.904H214.894V67H210.19V55.936L201.526 67H196.822V48.904H201.526ZM223.393 56.368L229.129 48.904H234.937L227.761 57.472L235.609 67H229.513L223.393 59.152V67H218.689V48.904H223.393V56.368ZM118.118 92.92C118.374 92.952 118.582 92.968 118.742 92.968C118.934 92.968 119.094 92.968 119.222 92.968C120.406 92.968 121.366 92.616 122.102 91.912C122.838 91.208 123.206 90.296 123.206 89.176C123.206 88.088 122.854 87.208 122.15 86.536C121.478 85.864 120.598 85.528 119.51 85.528C118.358 85.528 117.43 85.912 116.726 86.68C116.022 87.448 115.67 88.44 115.67 89.656H106.982C107.206 87.768 107.67 86.088 108.374 84.616C109.11 83.144 110.038 81.912 111.158 80.92C112.278 79.896 113.59 79.128 115.094 78.616C116.598 78.072 118.262 77.8 120.086 77.8C121.878 77.8 123.494 78.056 124.934 78.568C126.406 79.048 127.654 79.752 128.678 80.68C129.734 81.576 130.534 82.68 131.078 83.992C131.654 85.272 131.942 86.712 131.942 88.312C131.942 90.04 131.606 91.464 130.934 92.584C130.294 93.672 129.366 94.616 128.15 95.416C130.006 95.992 131.446 97.032 132.47 98.536C133.526 100.008 134.054 101.832 134.054 104.008C134.054 105.8 133.702 107.432 132.998 108.904C132.294 110.376 131.302 111.64 130.022 112.696C128.774 113.752 127.27 114.568 125.51 115.144C123.782 115.72 121.878 116.008 119.798 116.008C117.014 116.008 114.502 115.464 112.262 114.376C110.022 113.288 108.23 111.56 106.886 109.192C106.278 108.136 105.862 107.08 105.638 106.024C105.446 104.968 105.35 103.896 105.35 102.808H114.662C114.726 104.504 115.222 105.8 116.15 106.696C117.078 107.56 118.326 107.992 119.894 107.992C121.558 107.992 122.774 107.544 123.542 106.648C124.31 105.752 124.694 104.648 124.694 103.336C124.694 101.768 124.23 100.584 123.302 99.784C122.374 98.984 121.27 98.584 119.99 98.584C119.67 98.584 119.366 98.616 119.078 98.68C118.79 98.712 118.47 98.76 118.118 98.824V92.92ZM138.935 110.392C138.935 109.624 139.079 108.904 139.367 108.232C139.655 107.528 140.055 106.92 140.567 106.408C141.079 105.896 141.671 105.496 142.343 105.208C143.047 104.92 143.783 104.776 144.551 104.776C145.319 104.776 146.039 104.92 146.711 105.208C147.415 105.496 148.023 105.896 148.535 106.408C149.047 106.92 149.447 107.528 149.735 108.232C150.023 108.904 150.167 109.624 150.167 110.392C150.167 111.16 150.023 111.896 149.735 112.6C149.447 113.272 149.047 113.864 148.535 114.376C148.023 114.888 147.415 115.288 146.711 115.576C146.039 115.864 145.319 116.008 144.551 116.008C143.783 116.008 143.047 115.864 142.343 115.576C141.671 115.288 141.079 114.888 140.567 114.376C140.055 113.864 139.655 113.272 139.367 112.6C139.079 111.896 138.935 111.16 138.935 110.392ZM162.975 96.856C162.975 98.456 163.119 99.912 163.407 101.224C163.695 102.536 164.095 103.672 164.607 104.632C165.151 105.592 165.791 106.344 166.527 106.888C167.263 107.4 168.095 107.656 169.023 107.656C169.919 107.656 170.735 107.4 171.471 106.888C172.239 106.344 172.879 105.592 173.391 104.632C173.903 103.672 174.303 102.536 174.591 101.224C174.879 99.912 175.023 98.456 175.023 96.856C175.023 95.288 174.879 93.848 174.591 92.536C174.303 91.192 173.903 90.056 173.391 89.128C172.879 88.168 172.239 87.432 171.471 86.92C170.735 86.376 169.919 86.104 169.023 86.104C168.095 86.104 167.263 86.376 166.527 86.92C165.791 87.432 165.151 88.168 164.607 89.128C164.095 90.056 163.695 91.192 163.407 92.536C163.119 93.848 162.975 95.288 162.975 96.856ZM153.663 96.856C153.663 93.976 154.031 91.368 154.767 89.032C155.535 86.664 156.591 84.648 157.935 82.984C159.311 81.32 160.927 80.04 162.783 79.144C164.671 78.216 166.751 77.752 169.023 77.752C171.263 77.752 173.327 78.216 175.215 79.144C177.103 80.04 178.719 81.32 180.063 82.984C181.407 84.648 182.447 86.664 183.183 89.032C183.951 91.368 184.335 93.976 184.335 96.856C184.335 99.736 183.951 102.36 183.183 104.728C182.447 107.064 181.407 109.08 180.063 110.776C178.719 112.44 177.103 113.736 175.215 114.664C173.327 115.56 171.263 116.008 169.023 116.008C166.751 116.008 164.671 115.56 162.783 114.664C160.927 113.736 159.311 112.44 157.935 110.776C156.591 109.08 155.535 107.064 154.767 104.728C154.031 102.36 153.663 99.736 153.663 96.856Z" fill="#363434"/>
<path fill-rule="evenodd" clip-rule="evenodd" d="M118.383 235.375L140.548 213.21L140.549 213.211L118.384 235.375H118.383ZM118.383 235.375V191.042L140.548 213.208L162.714 191.043V191.042L162.714 191.042L162.714 191.042V191.043L184.881 213.209L162.715 235.375L162.715 235.375L184.881 213.21L207.046 235.375H207.047L207.047 235.376L207.047 235.377H207.046L184.881 257.542L165.338 277.085H165.485L140.547 302.023L115.61 277.085H115.756L96.2132 257.542L96.2135 257.542L74.0483 235.377H74.0469L74.0476 235.376L74.0469 235.375H74.0483L96.2138 213.21L118.379 235.375H118.38L96.2132 213.209L118.38 191.042V235.375H118.381L118.38 235.376V235.376L118.381 235.377H118.38V277.085H118.383V235.377V235.376V235.375ZM140.548 257.543L121.007 277.085H160.09L140.548 257.543Z" fill="#858383"/>
<path d="M162.717 278.887L118.383 279.082L140.712 251.373L162.717 278.887Z" fill="#858383"/>
<path d="M130.926 284.419L140.384 293.878L140.215 284.416L130.926 284.419Z" fill="black"/>
<path d="M150.555 284.419L141.096 293.878L141.265 284.416L150.555 284.419Z" fill="black"/>
<path d="M75.3497 153.311L111.344 165.495L119.648 198.313" stroke="#858383" stroke-width="2"/>
<path d="M205.799 153.261L169.828 165.522L161.451 198.313" stroke="#858383" stroke-width="2"/>
<rect x="90" y="235.881" width="32" height="32" transform="rotate(-45 90 235.881)" fill="black"/>
<rect x="146" y="235.627" width="32" height="32" transform="rotate(-45 146 235.627)" fill="black"/>
<path d="M0.046875 459H286.047V674.5V693L262.047 689L275.047 738L286.047 742.5V783V855V900H0.046875V459Z" fill="#1D1C1C"/>
<path fill-rule="evenodd" clip-rule="evenodd" d="M0 124.764C0.266979 125.012 0.535234 125.258 0.804765 125.5C2.13514 126.696 3.61348 127.92 5.11683 129.164C12.5542 135.32 20.604 141.983 14.3809 148.275C13.6665 148.997 12.9021 149.695 12.1456 150.386C10.8069 151.608 9.49293 152.808 8.52494 154.079C6.04328 157.338 7.31735 161.25 8.48496 164.836C9.76868 168.778 10.9237 172.324 6.81719 174.173C5.99821 174.542 5.17928 174.928 4.39399 175.338C1.91102 176.633 0.461722 178.948 0 181.643V226.674C1.99271 227.098 6.74558 223.275 11.4066 219.527C16.3214 215.575 21.134 211.705 22.5009 212.981C20.505 201.589 27.2531 184.159 34.5186 165.393C44.6634 139.19 55.817 110.382 45.5848 91.7649C40.9653 83.3598 30.9032 80.8091 21.3544 79.9111C12.7643 79.1033 5.48043 80.7593 0 84.0214V124.764Z" fill="black"/>
<g clip-path="url(#clip0)">
<path d="M104.429 839.811L103.209 833.111L104.86 832.535L107.3 835.416L107.372 831.598L109.022 831.022L112.324 836.929L110.673 837.506L108.807 834.048L108.664 838.226L108.018 838.442L105.29 835.344L106.08 839.163L104.429 839.811Z" fill="#878080" fill-opacity="0.24"/>
<path d="M117.707 842.116L119.717 842.404L120.65 845.141L122.516 842.908L124.454 843.196L119.142 849.176L117.42 848.888L119.43 846.582L117.707 842.116Z" fill="#878080" fill-opacity="0.24"/>
<path d="M137.661 847.664L135.938 847.952L134.934 841.324L137.661 840.892C138.379 840.748 139.025 840.892 139.455 841.18C139.886 841.54 140.173 842.045 140.316 842.693C140.46 843.341 140.316 843.99 139.958 844.422C139.599 844.854 139.096 845.142 138.307 845.286L137.302 845.431L137.661 847.664ZM137.159 844.062L137.733 843.99C138.379 843.918 138.666 843.557 138.522 843.053C138.45 842.477 138.092 842.261 137.446 842.405L136.871 842.477L137.159 844.062Z" fill="#878080" fill-opacity="0.24"/>
<path d="M152.016 836.785L149.576 837.217L149.36 838.442L147.494 838.73L148.93 831.67L150.796 831.382L154.384 837.577L152.518 837.866L152.016 836.785ZM151.298 835.488L150.15 833.399L149.719 835.704L151.298 835.488Z" fill="#878080" fill-opacity="0.24"/>
<path d="M161.059 842.188L163.571 841.468C164.145 841.324 164.647 841.324 165.006 841.468C165.365 841.684 165.652 842.044 165.867 842.549C165.939 842.837 166.011 843.125 165.939 843.413C165.867 843.629 165.796 843.917 165.58 844.133C165.867 844.133 166.083 844.133 166.226 844.133C166.441 844.205 166.585 844.278 166.729 844.35C166.872 844.422 167.016 844.566 167.087 844.71C167.159 844.854 167.231 845.07 167.303 845.214C167.374 845.502 167.446 845.79 167.375 846.079C167.375 846.367 167.231 846.583 167.087 846.799C166.944 847.015 166.729 847.231 166.513 847.375C166.298 847.519 165.939 847.663 165.652 847.808L162.996 848.6L161.059 842.188ZM163.499 844.205L163.786 844.133C164.288 843.989 164.504 843.701 164.36 843.269C164.217 842.837 163.929 842.693 163.355 842.909L163.068 842.981L163.499 844.205ZM164.288 846.799L164.647 846.655C165.078 846.511 165.365 846.367 165.508 846.223C165.652 846.079 165.724 845.862 165.652 845.646C165.58 845.43 165.437 845.286 165.221 845.214C165.006 845.142 164.719 845.214 164.288 845.358L163.929 845.43L164.288 846.799Z" fill="#878080" fill-opacity="0.24"/>
<path d="M178.57 836.137L176.489 835.849L176.346 836.929L178.283 837.217L178.068 838.658L176.13 838.37L175.987 839.523L178.068 839.811L177.853 841.252L174.049 840.747L174.982 834.12L178.786 834.624L178.57 836.137Z" fill="#878080" fill-opacity="0.24"/>
<path d="M115.842 863.44L116.775 867.474L118.928 862.72L120.65 862.287L122.229 868.843L120.507 869.275L119.574 865.313L117.421 870.068L115.698 870.5L114.119 863.944L115.842 863.44ZM116.201 861.063C116.344 861.423 116.703 861.567 117.134 861.423C117.564 861.351 117.779 861.063 117.779 860.63L118.856 860.342C118.928 860.847 118.856 861.207 118.569 861.567C118.282 861.927 117.923 862.143 117.349 862.287C116.775 862.431 116.344 862.431 115.913 862.215C115.555 861.999 115.267 861.711 115.124 861.207L116.201 861.063Z" fill="#878080" fill-opacity="0.24"/>
<path d="M135.077 869.132L137.589 869.492L137.948 866.898L139.671 867.187L138.666 873.814L136.944 873.526L137.374 870.789L134.862 870.428L134.431 873.166L132.709 872.878L133.714 866.25L135.436 866.538L135.077 869.132Z" fill="#878080" fill-opacity="0.24"/>
<path d="M146.058 855.732L146.489 859.838L149.288 855.444L151.011 855.3L151.657 862L149.934 862.144L149.503 858.037L146.704 862.432L144.982 862.576L144.336 855.876L146.058 855.732Z" fill="#878080" fill-opacity="0.24"/>
<path d="M162.782 866.754L165.438 864.521L167.519 865.025L164.217 867.546L166.227 871.653L164.002 871.149L162.423 867.763L161.777 870.572L160.055 870.212L161.562 863.656L163.284 864.016L162.782 866.754Z" fill="#878080" fill-opacity="0.24"/>
</g>
<defs>
<clipPath id="clip0">
<rect width="61" height="86" fill="white" transform="translate(98 883) rotate(-90)"/>
</clipPath>
</defs>
</svg>
