<svg width="320" height="151" viewBox="0 0 320 151" fill="none" xmlns="http://www.w3.org/2000/svg">
<path d="M0 150.975L0 0.000271797H22.9334H30.7557H37.1557H50.8446H115.912H126.045H130.312H163.201V150.975H80.1781L57.4224 135.139L30.7557 150.975H0Z" fill="#1D1C1C"/>
<path fill-rule="evenodd" clip-rule="evenodd" d="M243.328 0.0246777C242.234 0.452801 241.2 1.02654 240.507 1.52753C240.181 1.76325 239.774 1.98352 239.354 2.21073C238.103 2.88757 236.738 3.626 237.059 5.01763C237.237 5.78952 237.564 6.5853 237.942 7.50327C238.561 9.00858 239.315 10.8425 239.768 13.4384C240.106 15.3793 240.467 17.3675 241.339 18.8631C247.705 29.7828 258.739 27.3433 268.375 25.2128C273.356 24.1115 277.964 23.0928 281.361 24.0441C289.647 26.3646 291.667 31.6838 292.577 34.0789C292.728 34.4777 292.849 34.7954 292.963 35.0047C294.097 37.0935 295.643 32.1821 297.331 26.8201C298.755 22.2952 300.28 17.4495 301.744 16.2189C302.072 15.9431 302.085 16.0586 302.099 16.178C302.113 16.2979 302.127 16.4217 302.461 16.1574C304.191 14.7871 307.866 11.3238 305.885 11.1821C301.954 10.9011 293.809 8.17493 290.673 2.06223C289.688 0.493279 266.851 0.0254292 264.006 0.0254292C263.924 0.0254292 263.849 0.0301632 263.781 0.0391926C263.13 0.125264 262.754 0.947312 262.372 1.7833C262.011 2.57173 261.645 3.37256 261.037 3.58013C260.55 3.74633 260.068 3.65564 259.603 3.28479C259.126 2.90532 258.665 2.42411 258.212 1.95106C256.875 0.557259 255.607 -0.765796 254.228 0.792508C253.421 1.70507 252.92 2.55534 252.466 3.32465C252.266 3.66418 252.075 3.98794 251.871 4.29433C251.074 5.49284 249.84 5.42217 249.34 4.08467C249.057 3.3303 248.805 2.42373 248.548 1.50103C248.482 1.2625 248.415 1.0229 248.347 0.784577C248.26 0.474793 248.122 0.223908 247.943 0.0246777H243.328Z" fill="#1D1C1C"/>
<path d="M163.199 150.978V0.0027132H239.822H246.4L244.978 12.6719L262.4 5.80944L264 0.0027132H278.4H304H320V150.978H163.199Z" fill="#1D1C1C"/>
<path fill-rule="evenodd" clip-rule="evenodd" d="M44.3585 151C44.6067 150.604 44.8461 150.203 45.0758 149.797C45.4495 149.136 45.8322 148.387 46.224 147.62C48.0775 143.991 50.1347 139.965 52.401 142.967C52.7728 143.46 53.1229 144.029 53.4679 144.59C53.9025 145.296 54.3292 145.99 54.7811 146.501C56.0383 147.922 57.4391 147.223 58.7032 146.591C60.0721 145.907 61.2808 145.303 61.9735 147.56C62.0471 147.799 62.1227 148.038 62.2006 148.274C62.7054 149.798 63.6469 150.704 64.7337 151L80.5927 151C80.7422 149.947 79.3838 147.439 78.0515 144.98C76.6463 142.385 75.2702 139.845 75.724 139.123C71.6734 140.177 65.4762 136.615 58.8038 132.779C49.2046 127.262 38.6219 121.179 32.0325 127.461C29.5168 129.859 28.7527 134.348 28.4669 138.835C28.1523 143.771 28.8844 147.946 30.2587 151H44.3585Z" fill="#1D1C1C"/>
<path fill-rule="evenodd" clip-rule="evenodd" d="M180.165 102.649V102.649L171.334 93.8187V93.8159L171.333 93.8173L171.331 93.8159V93.8187L162.501 102.649L171.331 111.48V111.482L162.499 102.649L153.668 111.48V111.48L162.499 102.649L153.668 93.8187V93.8159L153.667 93.8173L153.666 93.8159V93.8187L144.835 102.649L153.666 111.48V111.482L144.833 102.649L136 111.483H153.666H153.667H171.331H171.332H188.998L180.165 102.649ZM153.666 111.482L153.667 111.481L153.667 111.481L153.666 111.482L153.666 111.482ZM188.998 111.483L180.165 120.316L172.378 128.103H172.438L162.5 138.04L152.563 128.103H152.622L144.835 120.316L153.666 111.485V111.484L144.833 120.316L136 111.483H153.666H153.667H153.668H171.331H171.332H171.334H188.998ZM154.712 128.103H170.288L162.501 120.316L171.331 111.485V111.484L162.499 120.316L154.712 128.103Z" fill="#858383"/>
<path d="M160.143 111.717L151.31 120.55L142.477 111.717H160.143Z" fill="#1D1C1C"/>
<path d="M160.143 111.716H142.477L151.31 102.883L160.143 111.716Z" fill="#1D1C1C"/>
<path d="M171.331 128.822L153.664 128.9L162.562 117.858L171.331 128.822Z" fill="#858383"/>
<path d="M182.546 111.717L173.712 120.55L164.879 111.717H182.546Z" fill="#1D1C1C"/>
<path d="M182.546 111.716H164.879L173.712 102.883L182.546 111.716Z" fill="#1D1C1C"/>
<path d="M158.664 131.027L162.433 134.796L162.366 131.026L158.664 131.027Z" fill="#1D1C1C"/>
<path d="M166.488 131.027L162.719 134.796L162.787 131.026L166.488 131.027Z" fill="#1D1C1C"/>
<path d="M136.522 78.781L150.865 83.6363L154.174 96.7137" stroke="#858383" stroke-width="2"/>
<path d="M188.505 78.761L174.171 83.647L170.833 96.7137" stroke="#858383" stroke-width="2"/>
</svg>
