<svg width="375" height="234" viewBox="0 0 375 234" fill="none" xmlns="http://www.w3.org/2000/svg">
<path d="M0 234L0 3.09944e-06H15.317H20.5414H24.8159H33.9586H77.4161H84.1841H87.0338H109L109 234H53.5501H39H20.5414H0Z" fill="#1D1C1C"/>
<path d="M109 234L109 -9.37023e-07H268.231H281.9L278.945 19.6364L315.15 9L318.475 -9.37023e-07L348.4 -9.37023e-07H375V234L109 234Z" fill="#1D1C1C"/>
<path fill-rule="evenodd" clip-rule="evenodd" d="M273.361 0C271.735 0.540774 270.281 1.13291 269.254 1.6182C268.649 1.90427 267.891 2.15813 267.104 2.42179C264.73 3.21703 262.089 4.10147 262.564 6.22816C262.874 7.62177 263.63 9.0348 264.522 10.7028C265.76 13.0156 267.259 15.8185 268.198 19.7395C268.211 19.7933 268.223 19.8471 268.236 19.9009C269.013 23.1475 269.813 26.4915 271.758 28.9953C284.899 45.9071 307.452 42.0741 327.165 38.7239C337.417 36.9814 346.902 35.3696 353.894 36.8748C382.921 43.1237 352.815 0.493816 323.07 1.15655C320.367 1.21677 318.373 1.25854 317.44 1.25855C316.36 1.25855 315.634 1.95556 314.857 2.70131C314.423 3.11853 313.972 3.55099 313.435 3.8852C312.08 4.72789 310.725 4.86481 309.426 4.20622C308.188 3.5784 307.011 2.67453 305.87 1.79856C305.013 1.14029 304.177 0.497777 303.35 0H298.145C298.112 0.0275338 298.079 0.0557326 298.046 0.0846046C296.384 1.52851 295.352 2.87386 294.419 4.09112C293.91 4.75374 293.431 5.37842 292.895 5.96037C291.392 7.59329 289.081 7.4789 288.002 5.54972C287.37 4.41977 286.789 3.0518 286.195 1.65489C286.031 1.26915 285.866 0.881207 285.699 0.495459C285.621 0.317106 285.529 0.152177 285.423 0H273.361Z" fill="#1D1C1C"/>
<path fill-rule="evenodd" clip-rule="evenodd" d="M203.334 171.333L215.667 159L203.334 146.667V171.333ZM154.001 171.334L166.333 183.666L178.663 171.337V171.338L166.334 183.666L177.206 194.538H177.124L190.999 208.413L204.874 194.538H204.795L215.667 183.666L227.999 171.334H228L227.999 171.334L228 171.333H227.999L215.667 159.001L203.334 171.333L203.334 171.333V171.334V194.538H203.333V171.333V146.667L191 159L203.333 171.333L191 183.666L201.872 194.538H180.123L190.996 183.666L203.328 171.334H203.329L203.328 171.334L203.329 171.333H203.328L190.996 159.001L178.667 171.329V171.329L190.996 159L178.667 146.672V146.667L178.665 146.67L178.663 146.667V146.672L166.334 159L178.663 171.329V171.331L166.333 159.001L154.001 171.333H154L154 171.334L154 171.334H154.001ZM178.664 171.332L178.665 171.331L178.665 171.331L178.664 171.332L178.664 171.332Z" fill="#858383"/>
<path d="M187.705 171.66L175.372 183.993L163.039 171.66H187.705Z" fill="black"/>
<path d="M187.705 171.659H163.039L175.372 159.326L187.705 171.659Z" fill="black"/>
<path d="M203.33 195.543L178.664 195.651L191.088 180.235L203.33 195.543Z" fill="#858383"/>
<path d="M218.986 171.66L206.653 183.993L194.32 171.66H218.986Z" fill="black"/>
<path d="M218.986 171.659H194.32L206.653 159.326L218.986 171.659Z" fill="black"/>
<path d="M185.648 198.621L190.911 203.883L190.817 198.619L185.648 198.621Z" fill="black"/>
<path d="M196.566 198.621L191.304 203.883L191.398 198.619L196.566 198.621Z" fill="black"/>
<path d="M154.726 125.676L174.752 132.455L179.372 150.713" stroke="#858383" stroke-width="2"/>
<path d="M227.304 125.648L207.291 132.47L202.63 150.713" stroke="#858383" stroke-width="2"/>
<g clip-path="url(#clip0)">
<path d="M191.578 173.298C191.578 172.957 191.447 172.664 191.257 172.521V172.947L191.572 173.419C191.576 173.381 191.578 173.34 191.578 173.298V173.298ZM191.899 173.298C191.899 173.479 191.874 173.649 191.83 173.807L192.024 174.098C192.109 173.859 192.156 173.587 192.156 173.298C192.156 172.473 191.772 171.783 191.257 171.608V172.005C191.628 172.17 191.899 172.687 191.899 173.298ZM190.007 171.563L189.844 171.808L190.451 172.72H189.844V173.876H190.358L191 174.839V173.543L191.546 174.362C191.46 174.462 191.364 174.541 191.257 174.589V174.986C191.434 174.926 191.595 174.803 191.731 174.637L191.993 175.032L192.156 174.787L191 173.053L190.007 171.563ZM191 171.756L190.731 172.159L191 172.562V171.756Z" fill="#858383"/>
</g>
<defs>
<clipPath id="clip0">
<rect width="3.08325" height="4.62487" fill="white" transform="translate(189.457 170.985)"/>
</clipPath>
</defs>
</svg>
