<svg width="364" height="110" viewBox="0 0 364 110" fill="none" xmlns="http://www.w3.org/2000/svg">
<path fill-rule="evenodd" clip-rule="evenodd" d="M75.8332 49.2119L75.8335 49.2115L60.6671 34.0394V34.0391L60.6669 34.0392L60.6668 34.0391V34.0394L45.501 49.2108L30.335 34.0391V64.384L30.3359 64.383V64.3839V92.9311H30.3328V64.3839H30.3331L30.3332 64.384V64.3839H30.3335L30.3332 64.3836V64.3828L30.3335 64.3825H30.3332V34.0391L15.1664 49.2115L15.1666 49.2117L0.00140519 64.3825H0L0.000702594 64.3832L0 64.3839H0.00140519L15.1664 79.5546L15.166 79.555L28.5371 92.9311H28.4375L45.5001 110L62.5627 92.9311H62.4617L75.8328 79.555L90.9981 64.3839H90.9995L90.9988 64.3832L90.9995 64.3825H90.9981L75.8332 49.2119ZM58.8711 92.9311L45.5013 79.5563L32.1316 92.9311H58.8711ZM30.3373 64.3825H30.3364L45.501 49.2122L45.5015 49.2127L30.3373 64.3825Z" fill="white"/>
<path d="M60.6695 94.1651L30.3359 94.2986L45.614 75.333L60.6695 94.1651Z" fill="white"/>
<path d="M38.918 97.9512L45.3894 104.425L45.2738 97.9491L38.918 97.9512Z" fill="black"/>
<path d="M52.3477 97.9512L45.8763 104.425L45.9919 97.9491L52.3477 97.9512Z" fill="black"/>
<path d="M0.890437 8.21281L25.5182 16.5525L31.1998 39.0149" stroke="white" stroke-width="2"/>
<path d="M90.1451 8.17852L65.5339 16.571L59.8019 39.0149" stroke="white" stroke-width="2"/>
<path d="M46.211 66.7987C46.211 66.3791 46.0498 66.0187 45.816 65.8433V66.3672L46.2031 66.948C46.2078 66.9006 46.211 66.8508 46.211 66.7987V66.7987ZM46.6059 66.7987C46.6059 67.0215 46.5743 67.2301 46.5206 67.4245L46.7592 67.7825C46.8634 67.4885 46.9219 67.1543 46.9219 66.7987C46.9219 65.784 46.4495 64.9353 45.816 64.7196V65.2079C46.2726 65.4118 46.6059 66.0472 46.6059 66.7987ZM44.2788 64.665L44.0781 64.9661L44.8254 66.0875H44.0781V67.5099H44.7101L45.5 68.6952V67.0997L46.1715 68.1073C46.0656 68.2306 45.9471 68.3278 45.816 68.387V68.8754C46.034 68.8019 46.2315 68.6502 46.399 68.4463L46.7213 68.9323L46.9219 68.6312L45.5 66.4976L44.2788 64.665ZM45.5 64.9021L45.1698 65.3976L45.5 65.8931V64.9021Z" fill="white"/>
<rect x="11" y="65.0381" width="21.2665" height="21.2665" transform="rotate(-45 11 65.0381)" fill="#160665"/>
<rect x="50" y="65.0381" width="21.2665" height="21.2665" transform="rotate(-45 50 65.0381)" fill="#160665"/>
<path fill-rule="evenodd" clip-rule="evenodd" d="M166.833 49.2119L166.834 49.2115L151.667 34.0394V34.0391L151.667 34.0392L151.667 34.0391V34.0394L136.501 49.2108L121.335 34.0391V64.384L121.336 64.383V64.3839V92.9311H121.333V64.3839H121.333L121.333 64.384V64.3839H121.334L121.333 64.3836V64.3828L121.334 64.3825H121.333V34.0391L106.166 49.2115L106.167 49.2117L91.0014 64.3825H91L91.0007 64.3832L91 64.3839H91.0014L106.166 79.5546L106.166 79.555L119.537 92.9311H119.438L136.5 110L153.563 92.9311H153.462L166.833 79.555L181.998 64.3839H182L181.999 64.3832L182 64.3825H181.998L166.833 49.2119ZM149.871 92.9311L136.501 79.5563L123.132 92.9311H149.871ZM121.337 64.3825H121.336L136.501 49.2122L136.501 49.2127L121.337 64.3825Z" fill="white"/>
<path d="M151.669 94.1651L121.336 94.2986L136.614 75.333L151.669 94.1651Z" fill="white"/>
<path d="M129.918 97.9512L136.389 104.425L136.274 97.9491L129.918 97.9512Z" fill="black"/>
<path d="M143.348 97.9512L136.876 104.425L136.992 97.9491L143.348 97.9512Z" fill="black"/>
<path d="M91.8904 8.21281L116.518 16.5525L122.2 39.0149" stroke="white" stroke-width="2"/>
<path d="M181.145 8.17852L156.534 16.571L150.802 39.0149" stroke="white" stroke-width="2"/>
<path d="M137.211 66.7987C137.211 66.3791 137.05 66.0187 136.816 65.8433V66.3672L137.203 66.948C137.208 66.9006 137.211 66.8508 137.211 66.7987V66.7987ZM137.606 66.7987C137.606 67.0215 137.574 67.2301 137.521 67.4245L137.759 67.7825C137.863 67.4885 137.922 67.1543 137.922 66.7987C137.922 65.784 137.45 64.9353 136.816 64.7196V65.2079C137.273 65.4118 137.606 66.0472 137.606 66.7987ZM135.279 64.665L135.078 64.9661L135.825 66.0875H135.078V67.5099H135.71L136.5 68.6952V67.0997L137.171 68.1073C137.066 68.2306 136.947 68.3278 136.816 68.387V68.8754C137.034 68.8019 137.231 68.6502 137.399 68.4463L137.721 68.9323L137.922 68.6312L136.5 66.4976L135.279 64.665ZM136.5 64.9021L136.17 65.3976L136.5 65.8931V64.9021Z" fill="white"/>
<rect x="102" y="65.0381" width="21.2665" height="21.2665" transform="rotate(-45 102 65.0381)" fill="#3907FF"/>
<rect x="141" y="65.0381" width="21.2665" height="21.2665" transform="rotate(-45 141 65.0381)" fill="#3907FF"/>
<path fill-rule="evenodd" clip-rule="evenodd" d="M257.833 49.2119L257.834 49.2115L242.667 34.0394V34.0391L242.667 34.0392L242.667 34.0391V34.0394L227.501 49.2108L212.335 34.0391V64.384L212.336 64.383V64.3839V92.9311H212.333V64.3839H212.333L212.333 64.384V64.3839H212.334L212.333 64.3836V64.3828L212.334 64.3825H212.333V34.0391L197.166 49.2115L197.167 49.2117L182.001 64.3825H182L182.001 64.3832L182 64.3839H182.001L197.166 79.5546L197.166 79.555L210.537 92.9311H210.438L227.5 110L244.563 92.9311H244.462L257.833 79.555L272.998 64.3839H273L272.999 64.3832L273 64.3825H272.998L257.833 49.2119ZM240.871 92.9311L227.501 79.5563L214.132 92.9311H240.871ZM212.337 64.3825H212.336L227.501 49.2122L227.501 49.2127L212.337 64.3825Z" fill="white"/>
<path d="M242.669 94.1651L212.336 94.2986L227.614 75.333L242.669 94.1651Z" fill="white"/>
<path d="M220.918 97.9512L227.389 104.425L227.274 97.9491L220.918 97.9512Z" fill="black"/>
<path d="M234.348 97.9512L227.876 104.425L227.992 97.9491L234.348 97.9512Z" fill="black"/>
<path d="M182.89 8.21281L207.518 16.5525L213.2 39.0149" stroke="white" stroke-width="2"/>
<path d="M272.145 8.17852L247.534 16.571L241.802 39.0149" stroke="white" stroke-width="2"/>
<path d="M228.211 66.7987C228.211 66.3791 228.05 66.0187 227.816 65.8433V66.3672L228.203 66.948C228.208 66.9006 228.211 66.8508 228.211 66.7987V66.7987ZM228.606 66.7987C228.606 67.0215 228.574 67.2301 228.521 67.4245L228.759 67.7825C228.863 67.4885 228.922 67.1543 228.922 66.7987C228.922 65.784 228.45 64.9353 227.816 64.7196V65.2079C228.273 65.4118 228.606 66.0472 228.606 66.7987ZM226.279 64.665L226.078 64.9661L226.825 66.0875H226.078V67.5099H226.71L227.5 68.6952V67.0997L228.171 68.1073C228.066 68.2306 227.947 68.3278 227.816 68.387V68.8754C228.034 68.8019 228.231 68.6502 228.399 68.4463L228.721 68.9323L228.922 68.6312L227.5 66.4976L226.279 64.665ZM227.5 64.9021L227.17 65.3976L227.5 65.8931V64.9021Z" fill="white"/>
<rect x="193" y="65.0381" width="21.2665" height="21.2665" transform="rotate(-45 193 65.0381)" fill="#160665"/>
<rect x="232" y="65.0381" width="21.2665" height="21.2665" transform="rotate(-45 232 65.0381)" fill="#160665"/>
<path fill-rule="evenodd" clip-rule="evenodd" d="M257.833 49.2119L257.834 49.2115L242.667 34.0394V34.0391L242.667 34.0392L242.667 34.0391V34.0394L227.501 49.2108L212.335 34.0391V64.384L212.336 64.383V64.3839V92.9311H212.333V64.3839H212.333L212.333 64.384V64.3839H212.334L212.333 64.3836V64.3828L212.334 64.3825H212.333V34.0391L197.166 49.2115L197.167 49.2117L182.001 64.3825H182L182.001 64.3832L182 64.3839H182.001L197.166 79.5546L197.166 79.555L210.537 92.9311H210.438L227.5 110L244.563 92.9311H244.462L257.833 79.555L272.998 64.3839H273L272.999 64.3832L273 64.3825H272.998L257.833 49.2119ZM240.871 92.9311L227.501 79.5563L214.132 92.9311H240.871ZM212.337 64.3825H212.336L227.501 49.2122L227.501 49.2127L212.337 64.3825Z" fill="white"/>
<path d="M242.669 94.1651L212.336 94.2986L227.614 75.333L242.669 94.1651Z" fill="white"/>
<path d="M220.918 97.9512L227.389 104.425L227.274 97.9491L220.918 97.9512Z" fill="black"/>
<path d="M234.348 97.9512L227.876 104.425L227.992 97.9491L234.348 97.9512Z" fill="black"/>
<path d="M182.89 8.21281L207.518 16.5525L213.2 39.0149" stroke="white" stroke-width="2"/>
<path d="M272.145 8.17852L247.534 16.571L241.802 39.0149" stroke="white" stroke-width="2"/>
<path d="M228.211 66.7987C228.211 66.3791 228.05 66.0187 227.816 65.8433V66.3672L228.203 66.948C228.208 66.9006 228.211 66.8508 228.211 66.7987V66.7987ZM228.606 66.7987C228.606 67.0215 228.574 67.2301 228.521 67.4245L228.759 67.7825C228.863 67.4885 228.922 67.1543 228.922 66.7987C228.922 65.784 228.45 64.9353 227.816 64.7196V65.2079C228.273 65.4118 228.606 66.0472 228.606 66.7987ZM226.279 64.665L226.078 64.9661L226.825 66.0875H226.078V67.5099H226.71L227.5 68.6952V67.0997L228.171 68.1073C228.066 68.2306 227.947 68.3278 227.816 68.387V68.8754C228.034 68.8019 228.231 68.6502 228.399 68.4463L228.721 68.9323L228.922 68.6312L227.5 66.4976L226.279 64.665ZM227.5 64.9021L227.17 65.3976L227.5 65.8931V64.9021Z" fill="white"/>
<rect x="193" y="65.0381" width="21.2665" height="21.2665" transform="rotate(-45 193 65.0381)" fill="#32A8FE"/>
<rect x="232" y="65.0381" width="21.2665" height="21.2665" transform="rotate(-45 232 65.0381)" fill="#32A8FE"/>
<path fill-rule="evenodd" clip-rule="evenodd" d="M348.833 49.2119L348.834 49.2115L333.667 34.0394V34.0391L333.667 34.0392L333.667 34.0391V34.0394L318.501 49.2108L303.335 34.0391V64.384L303.336 64.383V64.3839V92.9311H303.333V64.3839H303.333L303.333 64.384V64.3839H303.334L303.333 64.3836V64.3828L303.334 64.3825H303.333V34.0391L288.166 49.2115L288.167 49.2117L273.001 64.3825H273L273.001 64.3832L273 64.3839H273.001L288.166 79.5546L288.166 79.555L301.537 92.9311H301.438L318.5 110L335.563 92.9311H335.462L348.833 79.555L363.998 64.3839H364L363.999 64.3832L364 64.3825H363.998L348.833 49.2119ZM331.871 92.9311L318.501 79.5563L305.132 92.9311H331.871ZM303.337 64.3825H303.336L318.501 49.2122L318.501 49.2127L303.337 64.3825Z" fill="white"/>
<path d="M333.669 94.1651L303.336 94.2986L318.614 75.333L333.669 94.1651Z" fill="white"/>
<path d="M311.918 97.9512L318.389 104.425L318.274 97.9491L311.918 97.9512Z" fill="black"/>
<path d="M325.348 97.9512L318.876 104.425L318.992 97.9491L325.348 97.9512Z" fill="black"/>
<path d="M273.89 8.21281L298.518 16.5525L304.2 39.0149" stroke="white" stroke-width="2"/>
<path d="M363.145 8.17852L338.534 16.571L332.802 39.0149" stroke="white" stroke-width="2"/>
<path d="M319.211 66.7987C319.211 66.3791 319.05 66.0187 318.816 65.8433V66.3672L319.203 66.948C319.208 66.9006 319.211 66.8508 319.211 66.7987V66.7987ZM319.606 66.7987C319.606 67.0215 319.574 67.2301 319.521 67.4245L319.759 67.7825C319.863 67.4885 319.922 67.1543 319.922 66.7987C319.922 65.784 319.45 64.9353 318.816 64.7196V65.2079C319.273 65.4118 319.606 66.0472 319.606 66.7987ZM317.279 64.665L317.078 64.9661L317.825 66.0875H317.078V67.5099H317.71L318.5 68.6952V67.0997L319.171 68.1073C319.066 68.2306 318.947 68.3278 318.816 68.387V68.8754C319.034 68.8019 319.231 68.6502 319.399 68.4463L319.721 68.9323L319.922 68.6312L318.5 66.4976L317.279 64.665ZM318.5 64.9021L318.17 65.3976L318.5 65.8931V64.9021Z" fill="white"/>
<rect x="284" y="65.0381" width="21.2665" height="21.2665" transform="rotate(-45 284 65.0381)" fill="#828EFF"/>
<rect x="323" y="65.0381" width="21.2665" height="21.2665" transform="rotate(-45 323 65.0381)" fill="#828EFF"/>
</svg>
