<svg width="305" height="236" viewBox="0 0 305 236" fill="none" xmlns="http://www.w3.org/2000/svg">
<g filter="url(#filter0_b)">
<mask id="path-1-inside-1" fill="white">
<path fill-rule="evenodd" clip-rule="evenodd" d="M305 50C305 22.3858 282.614 0 255 0H50C22.3858 0 0 22.3857 0 50V160.433C0 188.047 22.3857 210.433 50 210.433H199.843C208.268 210.433 215.882 215.454 219.201 223.198V223.198C226.495 240.217 250.623 240.217 257.917 223.198V223.198C261.236 215.454 268.851 210.433 277.276 210.433H279.923C293.773 210.433 305 199.206 305 185.356V50Z"/>
</mask>
<path fill-rule="evenodd" clip-rule="evenodd" d="M305 50C305 22.3858 282.614 0 255 0H50C22.3858 0 0 22.3857 0 50V160.433C0 188.047 22.3857 210.433 50 210.433H199.843C208.268 210.433 215.882 215.454 219.201 223.198V223.198C226.495 240.217 250.623 240.217 257.917 223.198V223.198C261.236 215.454 268.851 210.433 277.276 210.433H279.923C293.773 210.433 305 199.206 305 185.356V50Z" fill="#A7C5FF"/>
<path d="M50 5H255V-5H50V5ZM5 160.433V50H-5V160.433H5ZM199.843 205.433H50V215.433H199.843V205.433ZM279.923 205.433H277.276V215.433H279.923V205.433ZM300 50V185.356H310V50H300ZM279.923 215.433C296.534 215.433 310 201.967 310 185.356H300C300 196.444 291.011 205.433 279.923 205.433V215.433ZM262.513 225.167C265.044 219.262 270.851 215.433 277.276 215.433V205.433C266.85 205.433 257.428 211.646 253.322 221.228L262.513 225.167ZM214.605 225.167C223.631 246.227 253.487 246.227 262.513 225.167L253.322 221.228C247.759 234.207 229.359 234.207 223.797 221.228L214.605 225.167ZM199.843 215.433C206.268 215.433 212.074 219.262 214.605 225.167L223.797 221.228C219.69 211.646 210.268 205.433 199.843 205.433V215.433ZM-5 160.433C-5 190.809 19.6243 215.433 50 215.433V205.433C25.1472 205.433 5 185.286 5 160.433H-5ZM255 5C279.853 5 300 25.1472 300 50H310C310 19.6243 285.376 -5 255 -5V5ZM50 -5C19.6243 -5 -5 19.6243 -5 50H5C5 25.1472 25.1472 5 50 5V-5Z" fill="white" mask="url(#path-1-inside-1)"/>
</g>
<path d="M170.4 188.18C169.548 188.18 168.786 188.006 168.114 187.658C167.454 187.31 166.932 186.77 166.548 186.038C166.176 185.306 165.99 184.37 165.99 183.23C165.99 182.042 166.188 181.076 166.584 180.332C166.98 179.588 167.514 179.042 168.186 178.694C168.87 178.346 169.644 178.172 170.508 178.172C171 178.172 171.474 178.226 171.93 178.334C172.386 178.43 172.758 178.55 173.046 178.694L172.56 180.008C172.272 179.9 171.936 179.798 171.552 179.702C171.168 179.606 170.808 179.558 170.472 179.558C168.576 179.558 167.628 180.776 167.628 183.212C167.628 184.376 167.856 185.27 168.312 185.894C168.78 186.506 169.47 186.812 170.382 186.812C170.91 186.812 171.372 186.758 171.768 186.65C172.176 186.542 172.548 186.41 172.884 186.254V187.658C172.56 187.826 172.2 187.952 171.804 188.036C171.42 188.132 170.952 188.18 170.4 188.18ZM183.206 183.158C183.206 184.754 182.798 185.99 181.982 186.866C181.178 187.742 180.086 188.18 178.706 188.18C177.854 188.18 177.092 187.988 176.42 187.604C175.76 187.208 175.238 186.638 174.854 185.894C174.47 185.138 174.278 184.226 174.278 183.158C174.278 181.562 174.68 180.332 175.484 179.468C176.288 178.604 177.38 178.172 178.76 178.172C179.636 178.172 180.404 178.37 181.064 178.766C181.736 179.15 182.258 179.714 182.63 180.458C183.014 181.19 183.206 182.09 183.206 183.158ZM175.916 183.158C175.916 184.298 176.138 185.204 176.582 185.876C177.038 186.536 177.758 186.866 178.742 186.866C179.714 186.866 180.428 186.536 180.884 185.876C181.34 185.204 181.568 184.298 181.568 183.158C181.568 182.018 181.34 181.124 180.884 180.476C180.428 179.828 179.708 179.504 178.724 179.504C177.74 179.504 177.026 179.828 176.582 180.476C176.138 181.124 175.916 182.018 175.916 183.158ZM192.701 188H191.099V179.666H188.255C188.099 181.694 187.883 183.332 187.607 184.58C187.331 185.816 186.965 186.716 186.509 187.28C186.053 187.844 185.477 188.126 184.781 188.126C184.625 188.126 184.469 188.114 184.313 188.09C184.169 188.078 184.049 188.048 183.953 188V186.812C184.025 186.836 184.103 186.854 184.187 186.866C184.271 186.878 184.355 186.884 184.439 186.884C185.087 186.884 185.603 186.194 185.987 184.814C186.383 183.434 186.683 181.28 186.887 178.352H192.701V188ZM199.057 178.19C200.233 178.19 201.103 178.448 201.667 178.964C202.231 179.48 202.513 180.302 202.513 181.43V188H201.361L201.055 186.632H200.983C200.563 187.16 200.119 187.55 199.651 187.802C199.195 188.054 198.559 188.18 197.743 188.18C196.867 188.18 196.141 187.952 195.565 187.496C194.989 187.028 194.701 186.302 194.701 185.318C194.701 184.358 195.079 183.62 195.835 183.104C196.591 182.576 197.755 182.288 199.327 182.24L200.965 182.186V181.61C200.965 180.806 200.791 180.248 200.443 179.936C200.095 179.624 199.603 179.468 198.967 179.468C198.463 179.468 197.983 179.546 197.527 179.702C197.071 179.846 196.645 180.014 196.249 180.206L195.763 179.018C196.183 178.79 196.681 178.598 197.257 178.442C197.833 178.274 198.433 178.19 199.057 178.19ZM199.525 183.338C198.325 183.386 197.491 183.578 197.023 183.914C196.567 184.25 196.339 184.724 196.339 185.336C196.339 185.876 196.501 186.272 196.825 186.524C197.161 186.776 197.587 186.902 198.103 186.902C198.919 186.902 199.597 186.68 200.137 186.236C200.677 185.78 200.947 185.084 200.947 184.148V183.284L199.525 183.338ZM212.297 178.352V186.668H213.701V191.348H212.171V188H205.457V191.348H203.945V186.668H204.719C205.547 185.528 206.165 184.232 206.573 182.78C206.993 181.316 207.209 179.84 207.221 178.352H212.297ZM208.625 179.594C208.577 180.41 208.451 181.256 208.247 182.132C208.043 182.996 207.779 183.824 207.455 184.616C207.143 185.408 206.777 186.092 206.357 186.668H210.767V179.594H208.625ZM218.886 178.19C220.062 178.19 220.932 178.448 221.496 178.964C222.06 179.48 222.342 180.302 222.342 181.43V188H221.19L220.884 186.632H220.812C220.392 187.16 219.948 187.55 219.48 187.802C219.024 188.054 218.388 188.18 217.572 188.18C216.696 188.18 215.97 187.952 215.394 187.496C214.818 187.028 214.53 186.302 214.53 185.318C214.53 184.358 214.908 183.62 215.664 183.104C216.42 182.576 217.584 182.288 219.156 182.24L220.794 182.186V181.61C220.794 180.806 220.62 180.248 220.272 179.936C219.924 179.624 219.432 179.468 218.796 179.468C218.292 179.468 217.812 179.546 217.356 179.702C216.9 179.846 216.474 180.014 216.078 180.206L215.592 179.018C216.012 178.79 216.51 178.598 217.086 178.442C217.662 178.274 218.262 178.19 218.886 178.19ZM219.354 183.338C218.154 183.386 217.32 183.578 216.852 183.914C216.396 184.25 216.168 184.724 216.168 185.336C216.168 185.876 216.33 186.272 216.654 186.524C216.99 186.776 217.416 186.902 217.932 186.902C218.748 186.902 219.426 186.68 219.966 186.236C220.506 185.78 220.776 185.084 220.776 184.148V183.284L219.354 183.338ZM231.622 179.684H228.472V188H226.906V179.684H223.792V178.352H231.622V179.684ZM244.456 176.346H237.759V174.43H247.875L239.314 188.466L237.688 187.438L244.456 176.346ZM252.797 173.955L254.3 175.08L251.057 179.492C251.233 179.469 251.382 179.451 251.505 179.439C251.628 179.428 251.725 179.422 251.795 179.422C252.897 179.422 253.849 179.844 254.652 180.688C255.448 181.52 255.847 182.521 255.847 183.693C255.847 184.936 255.402 186.002 254.511 186.893C253.626 187.777 252.563 188.22 251.321 188.22C250.09 188.22 249.012 187.783 248.086 186.91C247.178 186.037 246.724 185.003 246.724 183.808C246.724 182.735 247.166 181.599 248.051 180.397L252.797 173.955ZM253.852 183.825C253.852 183.104 253.603 182.495 253.105 181.997C252.601 181.493 251.994 181.241 251.285 181.241C250.571 181.241 249.964 181.49 249.466 181.988C248.968 182.486 248.719 183.09 248.719 183.799C248.719 184.508 248.968 185.111 249.466 185.609C249.964 186.107 250.573 186.356 251.294 186.356C251.997 186.356 252.598 186.107 253.096 185.609C253.6 185.105 253.852 184.511 253.852 183.825ZM259.609 180.942C258.613 180.239 258.115 179.281 258.115 178.068C258.115 176.967 258.493 176.047 259.249 175.309C260.01 174.57 260.957 174.201 262.088 174.201C263.213 174.201 264.15 174.57 264.9 175.309C265.65 176.041 266.025 176.964 266.025 178.077C266.025 179.243 265.53 180.195 264.54 180.934C265.085 181.227 265.512 181.654 265.823 182.217C266.139 182.779 266.297 183.412 266.297 184.115C266.297 185.316 265.905 186.301 265.12 187.068C264.335 187.836 263.33 188.22 262.105 188.22C260.851 188.22 259.817 187.833 259.003 187.06C258.182 186.286 257.772 185.313 257.772 184.142C257.772 182.618 258.384 181.552 259.609 180.942ZM260.04 178.06C260.04 178.64 260.236 179.126 260.629 179.519C261.027 179.917 261.507 180.116 262.07 180.116C262.627 180.116 263.104 179.917 263.503 179.519C263.901 179.12 264.1 178.643 264.1 178.086C264.1 177.529 263.901 177.052 263.503 176.653C263.104 176.255 262.627 176.056 262.07 176.056C261.513 176.056 261.036 176.255 260.637 176.653C260.239 177.052 260.04 177.521 260.04 178.06ZM259.785 184.071C259.785 184.698 260.002 185.237 260.435 185.688C260.875 186.134 261.408 186.356 262.035 186.356C262.656 186.356 263.186 186.137 263.626 185.697C264.065 185.252 264.285 184.719 264.285 184.098C264.285 183.471 264.065 182.938 263.626 182.498C263.186 182.059 262.656 181.839 262.035 181.839C261.42 181.839 260.889 182.059 260.444 182.498C260.004 182.938 259.785 183.462 259.785 184.071ZM270.358 180.942C269.362 180.239 268.864 179.281 268.864 178.068C268.864 176.967 269.242 176.047 269.998 175.309C270.76 174.57 271.706 174.201 272.837 174.201C273.962 174.201 274.899 174.57 275.649 175.309C276.399 176.041 276.774 176.964 276.774 178.077C276.774 179.243 276.279 180.195 275.289 180.934C275.834 181.227 276.262 181.654 276.572 182.217C276.889 182.779 277.047 183.412 277.047 184.115C277.047 185.316 276.654 186.301 275.869 187.068C275.084 187.836 274.079 188.22 272.854 188.22C271.601 188.22 270.566 187.833 269.752 187.06C268.932 186.286 268.521 185.313 268.521 184.142C268.521 182.618 269.134 181.552 270.358 180.942ZM270.789 178.06C270.789 178.64 270.985 179.126 271.378 179.519C271.776 179.917 272.257 180.116 272.819 180.116C273.376 180.116 273.853 179.917 274.252 179.519C274.65 179.12 274.85 178.643 274.85 178.086C274.85 177.529 274.65 177.052 274.252 176.653C273.853 176.255 273.376 176.056 272.819 176.056C272.263 176.056 271.785 176.255 271.387 176.653C270.988 177.052 270.789 177.521 270.789 178.06ZM270.534 184.071C270.534 184.698 270.751 185.237 271.185 185.688C271.624 186.134 272.157 186.356 272.784 186.356C273.405 186.356 273.936 186.137 274.375 185.697C274.814 185.252 275.034 184.719 275.034 184.098C275.034 183.471 274.814 182.938 274.375 182.498C273.936 182.059 273.405 181.839 272.784 181.839C272.169 181.839 271.639 182.059 271.193 182.498C270.754 182.938 270.534 183.462 270.534 184.071Z" fill="white"/>
<path d="M27.9 86.26C27.9 86.76 27.99 87.23 28.17 87.67C28.35 88.09 28.59 88.46 28.89 88.78C29.21 89.1 29.58 89.35 30 89.53C30.44 89.71 30.91 89.8 31.41 89.8C31.89 89.8 32.34 89.71 32.76 89.53C33.2 89.35 33.57 89.1 33.87 88.78C34.19 88.46 34.44 88.09 34.62 87.67C34.82 87.25 34.92 86.8 34.92 86.32C34.92 85.84 34.82 85.39 34.62 84.97C34.44 84.53 34.19 84.15 33.87 83.83C33.57 83.51 33.2 83.26 32.76 83.08C32.34 82.9 31.89 82.81 31.41 82.81C30.91 82.81 30.44 82.9 30 83.08C29.58 83.26 29.21 83.51 28.89 83.83C28.59 84.15 28.35 84.52 28.17 84.94C27.99 85.34 27.9 85.78 27.9 86.26ZM34.74 78.61H40.2V94H34.74V92.29C33.58 93.75 32.01 94.48 30.03 94.48C28.91 94.48 27.88 94.28 26.94 93.88C26 93.46 25.18 92.88 24.48 92.14C23.78 91.4 23.23 90.53 22.83 89.53C22.45 88.53 22.26 87.44 22.26 86.26C22.26 85.16 22.45 84.12 22.83 83.14C23.21 82.14 23.74 81.27 24.42 80.53C25.1 79.79 25.91 79.21 26.85 78.79C27.79 78.35 28.83 78.13 29.97 78.13C31.89 78.13 33.48 78.8 34.74 80.14V78.61ZM69.2705 94H63.8405V83.14H58.3205V94H52.8905V78.61H69.2705V94ZM77.5181 86.23C77.5181 86.75 77.6081 87.23 77.7881 87.67C77.9881 88.09 78.2381 88.46 78.5381 88.78C78.8581 89.1 79.2281 89.35 79.6481 89.53C80.0881 89.71 80.5481 89.8 81.0281 89.8C81.5081 89.8 81.9581 89.71 82.3781 89.53C82.8181 89.35 83.1881 89.1 83.4881 88.78C83.8081 88.46 84.0581 88.09 84.2381 87.67C84.4381 87.23 84.5381 86.76 84.5381 86.26C84.5381 85.78 84.4381 85.33 84.2381 84.91C84.0581 84.47 83.8081 84.09 83.4881 83.77C83.1881 83.45 82.8181 83.2 82.3781 83.02C81.9581 82.84 81.5081 82.75 81.0281 82.75C80.5481 82.75 80.0881 82.84 79.6481 83.02C79.2281 83.2 78.8581 83.45 78.5381 83.77C78.2381 84.09 77.9881 84.46 77.7881 84.88C77.6081 85.3 77.5181 85.75 77.5181 86.23ZM71.7881 86.17C71.7881 85.03 72.0181 83.97 72.4781 82.99C72.9381 81.99 73.5781 81.13 74.3981 80.41C75.2181 79.67 76.1881 79.09 77.3081 78.67C78.4481 78.25 79.6881 78.04 81.0281 78.04C82.3481 78.04 83.5681 78.25 84.6881 78.67C85.8281 79.07 86.8081 79.64 87.6281 80.38C88.4681 81.1 89.1181 81.97 89.5781 82.99C90.0381 83.99 90.2681 85.1 90.2681 86.32C90.2681 87.54 90.0281 88.66 89.5481 89.68C89.0881 90.68 88.4481 91.55 87.6281 92.29C86.8081 93.01 85.8181 93.57 84.6581 93.97C83.5181 94.37 82.2781 94.57 80.9381 94.57C79.6181 94.57 78.3981 94.37 77.2781 93.97C76.1581 93.57 75.1881 93 74.3681 92.26C73.5681 91.52 72.9381 90.64 72.4781 89.62C72.0181 88.58 71.7881 87.43 71.7881 86.17ZM102.724 78.61H108.514L102.424 85.99L109.324 94H103.114L98.224 87.85V94H92.794V78.61H98.224V84.79L102.724 78.61ZM122.892 86.35C122.892 85.87 122.802 85.42 122.622 85C122.462 84.56 122.222 84.18 121.902 83.86C121.582 83.54 121.202 83.29 120.762 83.11C120.342 82.91 119.882 82.81 119.382 82.81C118.902 82.81 118.452 82.9 118.032 83.08C117.612 83.26 117.242 83.51 116.922 83.83C116.622 84.15 116.372 84.53 116.172 84.97C115.992 85.39 115.902 85.84 115.902 86.32C115.902 86.8 115.992 87.25 116.172 87.67C116.352 88.09 116.602 88.46 116.922 88.78C117.242 89.08 117.612 89.33 118.032 89.53C118.472 89.71 118.932 89.8 119.412 89.8C119.892 89.8 120.342 89.71 120.762 89.53C121.182 89.35 121.542 89.1 121.842 88.78C122.162 88.46 122.412 88.09 122.592 87.67C122.792 87.25 122.892 86.81 122.892 86.35ZM116.052 101.68H110.622V78.61H116.052V80.32C117.212 78.86 118.792 78.13 120.792 78.13C121.892 78.13 122.912 78.35 123.852 78.79C124.812 79.21 125.642 79.79 126.342 80.53C127.042 81.27 127.582 82.14 127.962 83.14C128.362 84.14 128.562 85.21 128.562 86.35C128.562 87.49 128.362 88.55 127.962 89.53C127.582 90.51 127.042 91.37 126.342 92.11C125.662 92.85 124.852 93.43 123.912 93.85C122.972 94.27 121.952 94.48 120.852 94.48C118.932 94.48 117.332 93.82 116.052 92.5V101.68ZM142.307 84.07C142.127 83.31 141.757 82.7 141.197 82.24C140.637 81.78 139.957 81.55 139.157 81.55C138.317 81.55 137.627 81.77 137.087 82.21C136.567 82.65 136.237 83.27 136.097 84.07H142.307ZM135.947 87.22C135.947 89.56 137.047 90.73 139.247 90.73C140.427 90.73 141.317 90.25 141.917 89.29H147.167C146.107 92.81 143.457 94.57 139.217 94.57C137.917 94.57 136.727 94.38 135.647 94C134.567 93.6 133.637 93.04 132.857 92.32C132.097 91.6 131.507 90.74 131.087 89.74C130.667 88.74 130.457 87.62 130.457 86.38C130.457 85.1 130.657 83.95 131.057 82.93C131.457 81.89 132.027 81.01 132.767 80.29C133.507 79.57 134.397 79.02 135.437 78.64C136.497 78.24 137.687 78.04 139.007 78.04C140.307 78.04 141.477 78.24 142.517 78.64C143.557 79.02 144.437 79.58 145.157 80.32C145.877 81.06 146.427 81.97 146.807 83.05C147.187 84.11 147.377 85.31 147.377 86.65V87.22H135.947ZM166.261 94H160.831V83.14H155.311V94H149.881V78.61H166.261V94ZM178.648 90.34C178.288 90.42 177.918 90.49 177.538 90.55C177.178 90.59 176.788 90.61 176.368 90.61C175.008 90.61 173.838 90.43 172.858 90.07C171.878 89.69 171.078 89.15 170.458 88.45C169.838 87.73 169.378 86.85 169.078 85.81C168.798 84.77 168.658 83.58 168.658 82.24V78.61H174.088V82.42C174.088 83.2 174.148 83.84 174.268 84.34C174.408 84.82 174.598 85.19 174.838 85.45C175.078 85.71 175.358 85.89 175.678 85.99C175.998 86.07 176.348 86.11 176.728 86.11C177.508 86.11 178.148 85.86 178.648 85.36V78.61H184.078V94H178.648V90.34ZM198.456 84.07C198.276 83.31 197.906 82.7 197.346 82.24C196.786 81.78 196.106 81.55 195.306 81.55C194.466 81.55 193.776 81.77 193.236 82.21C192.716 82.65 192.386 83.27 192.246 84.07H198.456ZM192.096 87.22C192.096 89.56 193.196 90.73 195.396 90.73C196.576 90.73 197.466 90.25 198.066 89.29H203.316C202.256 92.81 199.606 94.57 195.366 94.57C194.066 94.57 192.876 94.38 191.796 94C190.716 93.6 189.786 93.04 189.006 92.32C188.246 91.6 187.656 90.74 187.236 89.74C186.816 88.74 186.606 87.62 186.606 86.38C186.606 85.1 186.806 83.95 187.206 82.93C187.606 81.89 188.176 81.01 188.916 80.29C189.656 79.57 190.546 79.02 191.586 78.64C192.646 78.24 193.836 78.04 195.156 78.04C196.456 78.04 197.626 78.24 198.666 78.64C199.706 79.02 200.586 79.58 201.306 80.32C202.026 81.06 202.576 81.97 202.956 83.05C203.336 84.11 203.526 85.31 203.526 86.65V87.22H192.096ZM32.13 115.34C31.77 115.42 31.4 115.49 31.02 115.55C30.66 115.59 30.27 115.61 29.85 115.61C28.49 115.61 27.32 115.43 26.34 115.07C25.36 114.69 24.56 114.15 23.94 113.45C23.32 112.73 22.86 111.85 22.56 110.81C22.28 109.77 22.14 108.58 22.14 107.24V103.61H27.57V107.42C27.57 108.2 27.63 108.84 27.75 109.34C27.89 109.82 28.08 110.19 28.32 110.45C28.56 110.71 28.84 110.89 29.16 110.99C29.48 111.07 29.83 111.11 30.21 111.11C30.99 111.11 31.63 110.86 32.13 110.36V103.61H37.56V119H32.13V115.34ZM52.0577 108.14H48.4577V119H43.0277V108.14H39.4277V103.61H52.0577V108.14ZM59.0166 111.23C59.0166 111.75 59.1066 112.23 59.2866 112.67C59.4866 113.09 59.7366 113.46 60.0366 113.78C60.3566 114.1 60.7266 114.35 61.1466 114.53C61.5866 114.71 62.0466 114.8 62.5266 114.8C63.0066 114.8 63.4566 114.71 63.8766 114.53C64.3166 114.35 64.6866 114.1 64.9866 113.78C65.3066 113.46 65.5566 113.09 65.7366 112.67C65.9366 112.23 66.0366 111.76 66.0366 111.26C66.0366 110.78 65.9366 110.33 65.7366 109.91C65.5566 109.47 65.3066 109.09 64.9866 108.77C64.6866 108.45 64.3166 108.2 63.8766 108.02C63.4566 107.84 63.0066 107.75 62.5266 107.75C62.0466 107.75 61.5866 107.84 61.1466 108.02C60.7266 108.2 60.3566 108.45 60.0366 108.77C59.7366 109.09 59.4866 109.46 59.2866 109.88C59.1066 110.3 59.0166 110.75 59.0166 111.23ZM53.2866 111.17C53.2866 110.03 53.5166 108.97 53.9766 107.99C54.4366 106.99 55.0766 106.13 55.8966 105.41C56.7166 104.67 57.6866 104.09 58.8066 103.67C59.9466 103.25 61.1866 103.04 62.5266 103.04C63.8466 103.04 65.0666 103.25 66.1866 103.67C67.3266 104.07 68.3066 104.64 69.1266 105.38C69.9666 106.1 70.6166 106.97 71.0766 107.99C71.5366 108.99 71.7666 110.1 71.7666 111.32C71.7666 112.54 71.5266 113.66 71.0466 114.68C70.5866 115.68 69.9466 116.55 69.1266 117.29C68.3066 118.01 67.3166 118.57 66.1566 118.97C65.0166 119.37 63.7766 119.57 62.4366 119.57C61.1166 119.57 59.8966 119.37 58.7766 118.97C57.6566 118.57 56.6866 118 55.8666 117.26C55.0666 116.52 54.4366 115.64 53.9766 114.62C53.5166 113.58 53.2866 112.43 53.2866 111.17ZM72.4324 108.71H81.0424V113.24H72.4324V108.71ZM93.2557 108.92V103.61H98.6857V119H93.2557V113.39H87.7357V119H82.3057V103.61H87.7357V108.92H93.2557ZM107.233 103.61V112.22L113.683 103.61H119.113V119H113.683V110.42L107.203 119H101.803V103.61H107.233ZM130.879 107.75C130.399 107.75 129.939 107.84 129.499 108.02C129.079 108.2 128.709 108.45 128.389 108.77C128.089 109.09 127.839 109.46 127.639 109.88C127.459 110.3 127.369 110.76 127.369 111.26C127.369 111.74 127.459 112.2 127.639 112.64C127.819 113.06 128.059 113.43 128.359 113.75C128.679 114.07 129.049 114.33 129.469 114.53C129.909 114.71 130.379 114.8 130.879 114.8C131.359 114.8 131.809 114.71 132.229 114.53C132.669 114.33 133.049 114.07 133.369 113.75C133.689 113.43 133.939 113.06 134.119 112.64C134.299 112.2 134.389 111.74 134.389 111.26C134.389 110.78 134.299 110.33 134.119 109.91C133.939 109.47 133.689 109.09 133.369 108.77C133.049 108.45 132.669 108.2 132.229 108.02C131.809 107.84 131.359 107.75 130.879 107.75ZM136.939 99.44C136.659 99.7 136.399 99.92 136.159 100.1C135.939 100.26 135.669 100.41 135.349 100.55C135.029 100.69 134.629 100.84 134.149 101C133.669 101.16 133.039 101.36 132.259 101.6C131.579 101.82 131.029 102 130.609 102.14C130.189 102.28 129.849 102.41 129.589 102.53C129.329 102.65 129.119 102.78 128.959 102.92C128.819 103.04 128.679 103.19 128.539 103.37L128.359 103.61C128.819 103.43 129.279 103.29 129.739 103.19C130.219 103.09 130.759 103.04 131.359 103.04C132.579 103.04 133.719 103.25 134.779 103.67C135.859 104.09 136.799 104.67 137.599 105.41C138.399 106.15 139.019 107.03 139.459 108.05C139.919 109.07 140.149 110.19 140.149 111.41C140.149 112.59 139.919 113.68 139.459 114.68C139.019 115.68 138.389 116.54 137.569 117.26C136.749 117.98 135.749 118.55 134.569 118.97C133.389 119.37 132.069 119.57 130.609 119.57C129.269 119.57 128.049 119.38 126.949 119C125.849 118.62 124.899 118.03 124.099 117.23C123.319 116.43 122.709 115.41 122.269 114.17C121.849 112.91 121.639 111.41 121.639 109.67C121.639 106.87 122.199 104.49 123.319 102.53C124.439 100.55 126.059 99.11 128.179 98.21C128.439 98.09 128.649 98.01 128.809 97.97C128.969 97.91 129.139 97.86 129.319 97.82C129.519 97.76 129.759 97.69 130.039 97.61C130.339 97.51 130.769 97.37 131.329 97.19C132.209 96.91 132.949 96.66 133.549 96.44C134.149 96.22 134.659 96 135.079 95.78C135.499 95.54 135.849 95.29 136.129 95.03C136.409 94.77 136.679 94.46 136.939 94.1V99.44ZM148.224 116.9L140.784 103.61H147.084L151.194 111.5L155.184 103.61H161.424L149.064 126.68H142.974L148.224 116.9ZM174.159 108.14H170.049V112.76C170.049 113.16 170.039 113.48 170.019 113.72C169.999 113.96 169.969 114.21 169.929 114.47H174.159V108.14ZM163.179 114.47C163.719 114.47 164.089 114.29 164.289 113.93C164.489 113.57 164.589 113.01 164.589 112.25V103.61H179.589V114.47H181.419V122.15H175.989V119H167.859V122.15H162.429V114.47H163.179ZM189.385 115.1H191.485C192.565 115.1 193.105 114.59 193.105 113.57C193.105 112.59 192.565 112.1 191.485 112.1H189.385V115.1ZM189.385 103.61V108.17H192.565C194.405 108.17 195.805 108.6 196.765 109.46C197.725 110.3 198.205 111.53 198.205 113.15C198.205 114.03 198.075 114.83 197.815 115.55C197.555 116.25 197.165 116.86 196.645 117.38C196.145 117.9 195.525 118.3 194.785 118.58C194.045 118.86 193.185 119 192.205 119H183.955V103.61H189.385ZM34.11 134.07C33.93 133.31 33.56 132.7 33 132.24C32.44 131.78 31.76 131.55 30.96 131.55C30.12 131.55 29.43 131.77 28.89 132.21C28.37 132.65 28.04 133.27 27.9 134.07H34.11ZM27.75 137.22C27.75 139.56 28.85 140.73 31.05 140.73C32.23 140.73 33.12 140.25 33.72 139.29H38.97C37.91 142.81 35.26 144.57 31.02 144.57C29.72 144.57 28.53 144.38 27.45 144C26.37 143.6 25.44 143.04 24.66 142.32C23.9 141.6 23.31 140.74 22.89 139.74C22.47 138.74 22.26 137.62 22.26 136.38C22.26 135.1 22.46 133.95 22.86 132.93C23.26 131.89 23.83 131.01 24.57 130.29C25.31 129.57 26.2 129.02 27.24 128.64C28.3 128.24 29.49 128.04 30.81 128.04C32.11 128.04 33.28 128.24 34.32 128.64C35.36 129.02 36.24 129.58 36.96 130.32C37.68 131.06 38.23 131.97 38.61 133.05C38.99 134.11 39.18 135.31 39.18 136.65V137.22H27.75ZM53.2938 133.59C52.3538 132.95 51.4038 132.63 50.4438 132.63C49.9238 132.63 49.4338 132.72 48.9738 132.9C48.5338 133.08 48.1438 133.34 47.8038 133.68C47.4638 134 47.1938 134.39 46.9938 134.85C46.8138 135.29 46.7238 135.79 46.7238 136.35C46.7238 136.89 46.8138 137.39 46.9938 137.85C47.1938 138.29 47.4538 138.68 47.7738 139.02C48.1138 139.34 48.5138 139.59 48.9738 139.77C49.4338 139.95 49.9238 140.04 50.4438 140.04C51.4638 140.04 52.4138 139.69 53.2938 138.99V143.61C51.9538 144.19 50.6838 144.48 49.4838 144.48C48.3638 144.48 47.2938 144.29 46.2738 143.91C45.2738 143.53 44.3838 142.99 43.6038 142.29C42.8438 141.57 42.2338 140.72 41.7738 139.74C41.3138 138.74 41.0838 137.63 41.0838 136.41C41.0838 135.19 41.3038 134.08 41.7438 133.08C42.1838 132.06 42.7838 131.19 43.5438 130.47C44.3038 129.73 45.2038 129.16 46.2438 128.76C47.3038 128.34 48.4338 128.13 49.6338 128.13C50.9538 128.13 52.1738 128.41 53.2938 128.97V133.59ZM67.1609 133.14H63.5609V144H58.1309V133.14H54.5309V128.61H67.1609V133.14ZM74.4497 140.1H76.5497C77.6297 140.1 78.1697 139.59 78.1697 138.57C78.1697 137.59 77.6297 137.1 76.5497 137.1H74.4497V140.1ZM74.4497 128.61V133.17H77.6297C79.4697 133.17 80.8697 133.6 81.8297 134.46C82.7897 135.3 83.2697 136.53 83.2697 138.15C83.2697 139.03 83.1397 139.83 82.8797 140.55C82.6197 141.25 82.2297 141.86 81.7097 142.38C81.2097 142.9 80.5897 143.3 79.8497 143.58C79.1097 143.86 78.2497 144 77.2697 144H69.0197V128.61H74.4497ZM89.8498 136.41V130.56C90.0898 130.6 90.3098 130.64 90.5098 130.68C90.7098 130.7 90.8998 130.71 91.0798 130.71C91.6198 130.71 92.1298 130.64 92.6098 130.5C93.0898 130.34 93.4998 130.13 93.8398 129.87C94.1998 129.61 94.4798 129.3 94.6798 128.94C94.8798 128.56 94.9798 128.15 94.9798 127.71C94.9798 127.11 94.7798 126.59 94.3798 126.15C93.9798 125.71 93.4398 125.49 92.7598 125.49C92.1398 125.49 91.6398 125.7 91.2598 126.12C90.8998 126.54 90.7198 127.09 90.7198 127.77H84.7498C84.7498 126.75 84.9498 125.82 85.3498 124.98C85.7698 124.12 86.3398 123.38 87.0598 122.76C87.7998 122.12 88.6598 121.63 89.6398 121.29C90.6398 120.93 91.7198 120.75 92.8798 120.75C94.0598 120.75 95.1298 120.95 96.0898 121.35C97.0698 121.73 97.9098 122.25 98.6098 122.91C99.3098 123.57 99.8498 124.33 100.23 125.19C100.61 126.05 100.8 126.94 100.8 127.86C100.8 130.86 98.9898 132.99 95.3698 134.25V136.41H89.8498ZM89.2498 141.12C89.2498 140.64 89.3398 140.19 89.5198 139.77C89.6998 139.33 89.9498 138.95 90.2698 138.63C90.5898 138.31 90.9598 138.06 91.3798 137.88C91.8198 137.7 92.2798 137.61 92.7598 137.61C93.2398 137.61 93.6898 137.7 94.1098 137.88C94.5498 138.06 94.9298 138.31 95.2498 138.63C95.5698 138.95 95.8198 139.33 95.9998 139.77C96.1798 140.19 96.2698 140.64 96.2698 141.12C96.2698 141.6 96.1798 142.06 95.9998 142.5C95.8198 142.92 95.5698 143.29 95.2498 143.61C94.9298 143.93 94.5498 144.18 94.1098 144.36C93.6898 144.54 93.2398 144.63 92.7598 144.63C92.2798 144.63 91.8198 144.54 91.3798 144.36C90.9598 144.18 90.5898 143.93 90.2698 143.61C89.9498 143.29 89.6998 142.92 89.5198 142.5C89.3398 142.06 89.2498 141.6 89.2498 141.12Z" fill="white"/>
<defs>
<filter id="filter0_b" x="-100" y="-100" width="505" height="435.962" filterUnits="userSpaceOnUse" color-interpolation-filters="sRGB">
<feFlood flood-opacity="0" result="BackgroundImageFix"/>
<feGaussianBlur in="BackgroundImage" stdDeviation="50"/>
<feComposite in2="SourceAlpha" operator="in" result="effect1_backgroundBlur"/>
<feBlend mode="normal" in="SourceGraphic" in2="effect1_backgroundBlur" result="shape"/>
</filter>
</defs>
</svg>
