<svg width="305" height="236" viewBox="0 0 305 236" fill="none" xmlns="http://www.w3.org/2000/svg">
<g filter="url(#filter0_b)">
<mask id="path-1-inside-1" fill="white">
<path fill-rule="evenodd" clip-rule="evenodd" d="M305 50C305 22.3858 282.614 0 255 0H50C22.3858 0 0 22.3857 0 50V160.433C0 188.047 22.3857 210.433 50 210.433H199.843C208.268 210.433 215.882 215.454 219.201 223.198V223.198C226.495 240.217 250.623 240.217 257.917 223.198V223.198C261.236 215.454 268.851 210.433 277.276 210.433H279.923C293.773 210.433 305 199.206 305 185.356V50Z"/>
</mask>
<path fill-rule="evenodd" clip-rule="evenodd" d="M305 50C305 22.3858 282.614 0 255 0H50C22.3858 0 0 22.3857 0 50V160.433C0 188.047 22.3857 210.433 50 210.433H199.843C208.268 210.433 215.882 215.454 219.201 223.198V223.198C226.495 240.217 250.623 240.217 257.917 223.198V223.198C261.236 215.454 268.851 210.433 277.276 210.433H279.923C293.773 210.433 305 199.206 305 185.356V50Z" fill="#6974D1"/>
<path d="M50 5H255V-5H50V5ZM5 160.433V50H-5V160.433H5ZM199.843 205.433H50V215.433H199.843V205.433ZM279.923 205.433H277.276V215.433H279.923V205.433ZM300 50V185.356H310V50H300ZM279.923 215.433C296.534 215.433 310 201.967 310 185.356H300C300 196.444 291.011 205.433 279.923 205.433V215.433ZM262.513 225.167C265.044 219.262 270.851 215.433 277.276 215.433V205.433C266.85 205.433 257.428 211.646 253.322 221.228L262.513 225.167ZM214.605 225.167C223.631 246.227 253.487 246.227 262.513 225.167L253.322 221.228C247.759 234.207 229.359 234.207 223.797 221.228L214.605 225.167ZM199.843 215.433C206.268 215.433 212.074 219.262 214.605 225.167L223.797 221.228C219.69 211.646 210.268 205.433 199.843 205.433V215.433ZM-5 160.433C-5 190.809 19.6243 215.433 50 215.433V205.433C25.1472 205.433 5 185.286 5 160.433H-5ZM255 5C279.853 5 300 25.1472 300 50H310C310 19.6243 285.376 -5 255 -5V5ZM50 -5C19.6243 -5 -5 19.6243 -5 50H5C5 25.1472 25.1472 5 50 5V-5Z" fill="white" mask="url(#path-1-inside-1)"/>
</g>
<path d="M22.14 64.53C22.2 64.55 22.29 64.56 22.41 64.56C22.67 64.56 22.9 64.54 23.1 64.5C23.3 64.46 23.46 64.38 23.58 64.26C23.7 64.12 23.79 63.92 23.85 63.66C23.91 63.4 23.94 63.06 23.94 62.64V53.61H38.94V69H33.51V58.14H29.37V63.24C29.37 64.34 29.2 65.29 28.86 66.09C28.54 66.89 28.09 67.55 27.51 68.07C26.93 68.59 26.22 68.97 25.38 69.21C24.56 69.47 23.66 69.6 22.68 69.6H22.14V64.53ZM47.9377 66.9L40.4977 53.61H46.7977L50.9077 61.5L54.8977 53.61H61.1377L48.7777 76.68H42.6877L47.9377 66.9ZM71.682 65.34C71.322 65.42 70.952 65.49 70.572 65.55C70.212 65.59 69.822 65.61 69.402 65.61C68.042 65.61 66.872 65.43 65.892 65.07C64.912 64.69 64.112 64.15 63.492 63.45C62.872 62.73 62.412 61.85 62.112 60.81C61.832 59.77 61.692 58.58 61.692 57.24V53.61H67.122V57.42C67.122 58.2 67.182 58.84 67.302 59.34C67.442 59.82 67.632 60.19 67.872 60.45C68.112 60.71 68.392 60.89 68.712 60.99C69.032 61.07 69.382 61.11 69.762 61.11C70.542 61.11 71.182 60.86 71.682 60.36V53.61H77.112V69H71.682V65.34ZM80.2397 69V53.61H85.6697V64.47H89.2697V53.61H94.6997V64.47H98.2997V53.61H103.73V69H80.2397ZM118.106 59.07C117.926 58.31 117.556 57.7 116.996 57.24C116.436 56.78 115.756 56.55 114.956 56.55C114.116 56.55 113.426 56.77 112.886 57.21C112.366 57.65 112.036 58.27 111.896 59.07H118.106ZM111.746 62.22C111.746 64.56 112.846 65.73 115.046 65.73C116.226 65.73 117.116 65.25 117.716 64.29H122.966C121.906 67.81 119.256 69.57 115.016 69.57C113.716 69.57 112.526 69.38 111.446 69C110.366 68.6 109.436 68.04 108.656 67.32C107.896 66.6 107.306 65.74 106.886 64.74C106.466 63.74 106.256 62.62 106.256 61.38C106.256 60.1 106.456 58.95 106.856 57.93C107.256 56.89 107.826 56.01 108.566 55.29C109.306 54.57 110.196 54.02 111.236 53.64C112.296 53.24 113.486 53.04 114.806 53.04C116.106 53.04 117.276 53.24 118.316 53.64C119.356 54.02 120.236 54.58 120.956 55.32C121.676 56.06 122.226 56.97 122.606 58.05C122.986 59.11 123.176 60.31 123.176 61.65V62.22H111.746ZM151.656 69H146.226V58.14H140.706V69H135.276V53.61H151.656V69ZM160.203 53.61V62.22L166.653 53.61H172.083V69H166.653V60.42L160.173 69H154.773V53.61H160.203ZM183.248 65.22C183.668 65.22 183.988 65.1 184.208 64.86C184.428 64.62 184.538 64.3 184.538 63.9C184.538 63.04 184.108 62.61 183.248 62.61H180.278V65.22H183.248ZM182.858 59.55C183.438 59.55 183.728 59.18 183.728 58.44C183.728 57.7 183.438 57.33 182.858 57.33H180.278V59.55H182.858ZM175.208 53.61H183.368C184.888 53.61 186.038 53.96 186.818 54.66C187.618 55.34 188.018 56.33 188.018 57.63C188.018 58.39 187.898 59.01 187.658 59.49C187.418 59.97 187.008 60.38 186.428 60.72C188.528 61.14 189.578 62.41 189.578 64.53C189.578 65.95 189.038 67.05 187.958 67.83C186.898 68.61 185.428 69 183.548 69H175.208V53.61ZM201.648 53.61H207.438L201.348 60.99L208.248 69H202.038L197.148 62.85V69H191.718V53.61H197.148V59.79L201.648 53.61ZM214.586 61.26C214.586 61.76 214.676 62.23 214.856 62.67C215.036 63.09 215.276 63.46 215.576 63.78C215.896 64.1 216.266 64.35 216.686 64.53C217.126 64.71 217.596 64.8 218.096 64.8C218.576 64.8 219.026 64.71 219.446 64.53C219.886 64.35 220.256 64.1 220.556 63.78C220.876 63.46 221.126 63.09 221.306 62.67C221.506 62.25 221.606 61.8 221.606 61.32C221.606 60.84 221.506 60.39 221.306 59.97C221.126 59.53 220.876 59.15 220.556 58.83C220.256 58.51 219.886 58.26 219.446 58.08C219.026 57.9 218.576 57.81 218.096 57.81C217.596 57.81 217.126 57.9 216.686 58.08C216.266 58.26 215.896 58.51 215.576 58.83C215.276 59.15 215.036 59.52 214.856 59.94C214.676 60.34 214.586 60.78 214.586 61.26ZM221.426 53.61H226.886V69H221.426V67.29C220.266 68.75 218.696 69.48 216.716 69.48C215.596 69.48 214.566 69.28 213.626 68.88C212.686 68.46 211.866 67.88 211.166 67.14C210.466 66.4 209.916 65.53 209.516 64.53C209.136 63.53 208.946 62.44 208.946 61.26C208.946 60.16 209.136 59.12 209.516 58.14C209.896 57.14 210.426 56.27 211.106 55.53C211.786 54.79 212.596 54.21 213.536 53.79C214.476 53.35 215.516 53.13 216.656 53.13C218.576 53.13 220.166 53.8 221.426 55.14V53.61ZM30.9 90.22C31.32 90.22 31.64 90.1 31.86 89.86C32.08 89.62 32.19 89.3 32.19 88.9C32.19 88.04 31.76 87.61 30.9 87.61H27.93V90.22H30.9ZM30.51 84.55C31.09 84.55 31.38 84.18 31.38 83.44C31.38 82.7 31.09 82.33 30.51 82.33H27.93V84.55H30.51ZM22.86 78.61H31.02C32.54 78.61 33.69 78.96 34.47 79.66C35.27 80.34 35.67 81.33 35.67 82.63C35.67 83.39 35.55 84.01 35.31 84.49C35.07 84.97 34.66 85.38 34.08 85.72C36.18 86.14 37.23 87.41 37.23 89.53C37.23 90.95 36.69 92.05 35.61 92.83C34.55 93.61 33.08 94 31.2 94H22.86V78.61ZM61.2394 78.61V94H55.8094V78.61H61.2394ZM44.7394 90.1H46.8394C47.9194 90.1 48.4594 89.59 48.4594 88.57C48.4594 87.59 47.9194 87.1 46.8394 87.1H44.7394V90.1ZM44.7394 78.61V83.17H47.9194C49.7594 83.17 51.1594 83.6 52.1194 84.46C53.0794 85.3 53.5594 86.53 53.5594 88.15C53.5594 89.03 53.4294 89.83 53.1694 90.55C52.9094 91.25 52.5194 91.86 51.9994 92.38C51.4994 92.9 50.8794 93.3 50.1394 93.58C49.3994 93.86 48.5394 94 47.5594 94H39.3094V78.61H44.7394ZM80.7255 94H75.2955V83.14H69.7755V94H64.3455V78.61H80.7255V94ZM89.2732 78.61V87.22L95.7232 78.61H101.153V94H95.7232V85.42L89.2432 94H83.8432V78.61H89.2732ZM115.648 83.14H112.048V94H106.618V83.14H103.018V78.61H115.648V83.14ZM122.937 90.1H125.037C126.117 90.1 126.657 89.59 126.657 88.57C126.657 87.59 126.117 87.1 125.037 87.1H122.937V90.1ZM122.937 78.61V83.17H126.117C127.957 83.17 129.357 83.6 130.317 84.46C131.277 85.3 131.757 86.53 131.757 88.15C131.757 89.03 131.627 89.83 131.367 90.55C131.107 91.25 130.717 91.86 130.197 92.38C129.697 92.9 129.077 93.3 128.337 93.58C127.597 93.86 126.737 94 125.757 94H117.507V78.61H122.937ZM135.637 88.27H140.737L135.217 98.2H131.737L135.637 88.27ZM158.188 86.26C158.188 86.76 158.278 87.23 158.458 87.67C158.638 88.09 158.878 88.46 159.178 88.78C159.498 89.1 159.868 89.35 160.288 89.53C160.728 89.71 161.198 89.8 161.698 89.8C162.178 89.8 162.628 89.71 163.048 89.53C163.488 89.35 163.858 89.1 164.158 88.78C164.478 88.46 164.728 88.09 164.908 87.67C165.108 87.25 165.208 86.8 165.208 86.32C165.208 85.84 165.108 85.39 164.908 84.97C164.728 84.53 164.478 84.15 164.158 83.83C163.858 83.51 163.488 83.26 163.048 83.08C162.628 82.9 162.178 82.81 161.698 82.81C161.198 82.81 160.728 82.9 160.288 83.08C159.868 83.26 159.498 83.51 159.178 83.83C158.878 84.15 158.638 84.52 158.458 84.94C158.278 85.34 158.188 85.78 158.188 86.26ZM165.028 78.61H170.488V94H165.028V92.29C163.868 93.75 162.298 94.48 160.318 94.48C159.198 94.48 158.168 94.28 157.228 93.88C156.288 93.46 155.468 92.88 154.768 92.14C154.068 91.4 153.518 90.53 153.118 89.53C152.738 88.53 152.548 87.44 152.548 86.26C152.548 85.16 152.738 84.12 153.118 83.14C153.498 82.14 154.028 81.27 154.708 80.53C155.388 79.79 156.198 79.21 157.138 78.79C158.078 78.35 159.118 78.13 160.258 78.13C162.178 78.13 163.768 78.8 165.028 80.14V78.61ZM194.128 83.92V78.61H199.558V94H194.128V88.39H188.608V94H183.178V78.61H188.608V83.92H194.128ZM213.926 84.07C213.746 83.31 213.376 82.7 212.816 82.24C212.256 81.78 211.576 81.55 210.776 81.55C209.936 81.55 209.246 81.77 208.706 82.21C208.186 82.65 207.856 83.27 207.716 84.07H213.926ZM207.566 87.22C207.566 89.56 208.666 90.73 210.866 90.73C212.046 90.73 212.936 90.25 213.536 89.29H218.786C217.726 92.81 215.076 94.57 210.836 94.57C209.536 94.57 208.346 94.38 207.266 94C206.186 93.6 205.256 93.04 204.476 92.32C203.716 91.6 203.126 90.74 202.706 89.74C202.286 88.74 202.076 87.62 202.076 86.38C202.076 85.1 202.276 83.95 202.676 82.93C203.076 81.89 203.646 81.01 204.386 80.29C205.126 79.57 206.016 79.02 207.056 78.64C208.116 78.24 209.306 78.04 210.626 78.04C211.926 78.04 213.096 78.24 214.136 78.64C215.176 79.02 216.056 79.58 216.776 80.32C217.496 81.06 218.046 81.97 218.426 83.05C218.806 84.11 218.996 85.31 218.996 86.65V87.22H207.566ZM30.93 119L27.6 109.94L26.1 119H21.51L24.45 103.61H28.92L32.1 111.92L35.28 103.61H39.75L42.69 119H38.07L36.6 109.94L33.27 119H30.93ZM50.047 116.9L42.607 103.61H48.907L53.017 111.5L57.007 103.61H63.247L50.887 126.68H44.797L50.047 116.9ZM75.2817 108.59C74.3417 107.95 73.3917 107.63 72.4317 107.63C71.9117 107.63 71.4217 107.72 70.9617 107.9C70.5217 108.08 70.1317 108.34 69.7917 108.68C69.4517 109 69.1817 109.39 68.9817 109.85C68.8017 110.29 68.7117 110.79 68.7117 111.35C68.7117 111.89 68.8017 112.39 68.9817 112.85C69.1817 113.29 69.4417 113.68 69.7617 114.02C70.1017 114.34 70.5017 114.59 70.9617 114.77C71.4217 114.95 71.9117 115.04 72.4317 115.04C73.4517 115.04 74.4017 114.69 75.2817 113.99V118.61C73.9417 119.19 72.6717 119.48 71.4717 119.48C70.3517 119.48 69.2817 119.29 68.2617 118.91C67.2617 118.53 66.3717 117.99 65.5917 117.29C64.8317 116.57 64.2217 115.72 63.7617 114.74C63.3017 113.74 63.0717 112.63 63.0717 111.41C63.0717 110.19 63.2917 109.08 63.7317 108.08C64.1717 107.06 64.7717 106.19 65.5317 105.47C66.2917 104.73 67.1917 104.16 68.2317 103.76C69.2917 103.34 70.4217 103.13 71.6217 103.13C72.9417 103.13 74.1617 103.41 75.2817 103.97V108.59ZM82.9088 111.23C82.9088 111.75 82.9988 112.23 83.1788 112.67C83.3788 113.09 83.6288 113.46 83.9288 113.78C84.2488 114.1 84.6188 114.35 85.0388 114.53C85.4788 114.71 85.9388 114.8 86.4188 114.8C86.8988 114.8 87.3488 114.71 87.7688 114.53C88.2088 114.35 88.5788 114.1 88.8788 113.78C89.1988 113.46 89.4488 113.09 89.6288 112.67C89.8288 112.23 89.9288 111.76 89.9288 111.26C89.9288 110.78 89.8288 110.33 89.6288 109.91C89.4488 109.47 89.1988 109.09 88.8788 108.77C88.5788 108.45 88.2088 108.2 87.7688 108.02C87.3488 107.84 86.8988 107.75 86.4188 107.75C85.9388 107.75 85.4788 107.84 85.0388 108.02C84.6188 108.2 84.2488 108.45 83.9288 108.77C83.6288 109.09 83.3788 109.46 83.1788 109.88C82.9988 110.3 82.9088 110.75 82.9088 111.23ZM77.1788 111.17C77.1788 110.03 77.4088 108.97 77.8688 107.99C78.3288 106.99 78.9688 106.13 79.7888 105.41C80.6088 104.67 81.5788 104.09 82.6988 103.67C83.8388 103.25 85.0788 103.04 86.4188 103.04C87.7388 103.04 88.9588 103.25 90.0788 103.67C91.2188 104.07 92.1988 104.64 93.0188 105.38C93.8588 106.1 94.5088 106.97 94.9688 107.99C95.4288 108.99 95.6588 110.1 95.6588 111.32C95.6588 112.54 95.4188 113.66 94.9388 114.68C94.4788 115.68 93.8388 116.55 93.0188 117.29C92.1988 118.01 91.2088 118.57 90.0488 118.97C88.9088 119.37 87.6688 119.57 86.3288 119.57C85.0088 119.57 83.7888 119.37 82.6688 118.97C81.5488 118.57 80.5788 118 79.7588 117.26C78.9588 116.52 78.3288 115.64 77.8688 114.62C77.4088 113.58 77.1788 112.43 77.1788 111.17ZM110.455 111.35C110.455 110.87 110.365 110.42 110.185 110C110.025 109.56 109.785 109.18 109.465 108.86C109.145 108.54 108.765 108.29 108.325 108.11C107.905 107.91 107.445 107.81 106.945 107.81C106.465 107.81 106.015 107.9 105.595 108.08C105.175 108.26 104.805 108.51 104.485 108.83C104.185 109.15 103.935 109.53 103.735 109.97C103.555 110.39 103.465 110.84 103.465 111.32C103.465 111.8 103.555 112.25 103.735 112.67C103.915 113.09 104.165 113.46 104.485 113.78C104.805 114.08 105.175 114.33 105.595 114.53C106.035 114.71 106.495 114.8 106.975 114.8C107.455 114.8 107.905 114.71 108.325 114.53C108.745 114.35 109.105 114.1 109.405 113.78C109.725 113.46 109.975 113.09 110.155 112.67C110.355 112.25 110.455 111.81 110.455 111.35ZM103.615 126.68H98.1846V103.61H103.615V105.32C104.775 103.86 106.355 103.13 108.355 103.13C109.455 103.13 110.475 103.35 111.415 103.79C112.375 104.21 113.205 104.79 113.905 105.53C114.605 106.27 115.145 107.14 115.525 108.14C115.925 109.14 116.125 110.21 116.125 111.35C116.125 112.49 115.925 113.55 115.525 114.53C115.145 115.51 114.605 116.37 113.905 117.11C113.225 117.85 112.415 118.43 111.475 118.85C110.535 119.27 109.515 119.48 108.415 119.48C106.495 119.48 104.895 118.82 103.615 117.5V126.68ZM139.585 108.14H135.985V119H130.555V108.14H126.955V103.61H139.585V108.14ZM146.776 111.26C146.776 111.76 146.866 112.23 147.046 112.67C147.226 113.09 147.466 113.46 147.766 113.78C148.086 114.1 148.456 114.35 148.876 114.53C149.316 114.71 149.786 114.8 150.286 114.8C150.766 114.8 151.216 114.71 151.636 114.53C152.076 114.35 152.446 114.1 152.746 113.78C153.066 113.46 153.316 113.09 153.496 112.67C153.696 112.25 153.796 111.8 153.796 111.32C153.796 110.84 153.696 110.39 153.496 109.97C153.316 109.53 153.066 109.15 152.746 108.83C152.446 108.51 152.076 108.26 151.636 108.08C151.216 107.9 150.766 107.81 150.286 107.81C149.786 107.81 149.316 107.9 148.876 108.08C148.456 108.26 148.086 108.51 147.766 108.83C147.466 109.15 147.226 109.52 147.046 109.94C146.866 110.34 146.776 110.78 146.776 111.26ZM153.616 103.61H159.076V119H153.616V117.29C152.456 118.75 150.886 119.48 148.906 119.48C147.786 119.48 146.756 119.28 145.816 118.88C144.876 118.46 144.056 117.88 143.356 117.14C142.656 116.4 142.106 115.53 141.706 114.53C141.326 113.53 141.136 112.44 141.136 111.26C141.136 110.16 141.326 109.12 141.706 108.14C142.086 107.14 142.616 106.27 143.296 105.53C143.976 104.79 144.786 104.21 145.726 103.79C146.666 103.35 147.706 103.13 148.846 103.13C150.766 103.13 152.356 103.8 153.616 105.14V103.61ZM173.781 108.59C172.841 107.95 171.891 107.63 170.931 107.63C170.411 107.63 169.921 107.72 169.461 107.9C169.021 108.08 168.631 108.34 168.291 108.68C167.951 109 167.681 109.39 167.481 109.85C167.301 110.29 167.211 110.79 167.211 111.35C167.211 111.89 167.301 112.39 167.481 112.85C167.681 113.29 167.941 113.68 168.261 114.02C168.601 114.34 169.001 114.59 169.461 114.77C169.921 114.95 170.411 115.04 170.931 115.04C171.951 115.04 172.901 114.69 173.781 113.99V118.61C172.441 119.19 171.171 119.48 169.971 119.48C168.851 119.48 167.781 119.29 166.761 118.91C165.761 118.53 164.871 117.99 164.091 117.29C163.331 116.57 162.721 115.72 162.261 114.74C161.801 113.74 161.571 112.63 161.571 111.41C161.571 110.19 161.791 109.08 162.231 108.08C162.671 107.06 163.271 106.19 164.031 105.47C164.791 104.73 165.691 104.16 166.731 103.76C167.791 103.34 168.921 103.13 170.121 103.13C171.441 103.13 172.661 103.41 173.781 103.97V108.59ZM186.208 103.61H191.998L185.908 110.99L192.808 119H186.598L181.708 112.85V119H176.278V103.61H181.708V109.79L186.208 103.61ZM199.146 111.26C199.146 111.76 199.236 112.23 199.416 112.67C199.596 113.09 199.836 113.46 200.136 113.78C200.456 114.1 200.826 114.35 201.246 114.53C201.686 114.71 202.156 114.8 202.656 114.8C203.136 114.8 203.586 114.71 204.006 114.53C204.446 114.35 204.816 114.1 205.116 113.78C205.436 113.46 205.686 113.09 205.866 112.67C206.066 112.25 206.166 111.8 206.166 111.32C206.166 110.84 206.066 110.39 205.866 109.97C205.686 109.53 205.436 109.15 205.116 108.83C204.816 108.51 204.446 108.26 204.006 108.08C203.586 107.9 203.136 107.81 202.656 107.81C202.156 107.81 201.686 107.9 201.246 108.08C200.826 108.26 200.456 108.51 200.136 108.83C199.836 109.15 199.596 109.52 199.416 109.94C199.236 110.34 199.146 110.78 199.146 111.26ZM205.986 103.61H211.446V119H205.986V117.29C204.826 118.75 203.256 119.48 201.276 119.48C200.156 119.48 199.126 119.28 198.186 118.88C197.246 118.46 196.426 117.88 195.726 117.14C195.026 116.4 194.476 115.53 194.076 114.53C193.696 113.53 193.506 112.44 193.506 111.26C193.506 110.16 193.696 109.12 194.076 108.14C194.456 107.14 194.986 106.27 195.666 105.53C196.346 104.79 197.156 104.21 198.096 103.79C199.036 103.35 200.076 103.13 201.216 103.13C203.136 103.13 204.726 103.8 205.986 105.14V103.61ZM225.911 108.14H222.311V119H216.881V108.14H213.281V103.61H225.911V108.14ZM233.2 115.1H235.3C236.38 115.1 236.92 114.59 236.92 113.57C236.92 112.59 236.38 112.1 235.3 112.1H233.2V115.1ZM233.2 103.61V108.17H236.38C238.22 108.17 239.62 108.6 240.58 109.46C241.54 110.3 242.02 111.53 242.02 113.15C242.02 114.03 241.89 114.83 241.63 115.55C241.37 116.25 240.98 116.86 240.46 117.38C239.96 117.9 239.34 118.3 238.6 118.58C237.86 118.86 237 119 236.02 119H227.77V103.61H233.2ZM27.9 136.26C27.9 136.76 27.99 137.23 28.17 137.67C28.35 138.09 28.59 138.46 28.89 138.78C29.21 139.1 29.58 139.35 30 139.53C30.44 139.71 30.91 139.8 31.41 139.8C31.89 139.8 32.34 139.71 32.76 139.53C33.2 139.35 33.57 139.1 33.87 138.78C34.19 138.46 34.44 138.09 34.62 137.67C34.82 137.25 34.92 136.8 34.92 136.32C34.92 135.84 34.82 135.39 34.62 134.97C34.44 134.53 34.19 134.15 33.87 133.83C33.57 133.51 33.2 133.26 32.76 133.08C32.34 132.9 31.89 132.81 31.41 132.81C30.91 132.81 30.44 132.9 30 133.08C29.58 133.26 29.21 133.51 28.89 133.83C28.59 134.15 28.35 134.52 28.17 134.94C27.99 135.34 27.9 135.78 27.9 136.26ZM34.74 128.61H40.2V144H34.74V142.29C33.58 143.75 32.01 144.48 30.03 144.48C28.91 144.48 27.88 144.28 26.94 143.88C26 143.46 25.18 142.88 24.48 142.14C23.78 141.4 23.23 140.53 22.83 139.53C22.45 138.53 22.26 137.44 22.26 136.26C22.26 135.16 22.45 134.12 22.83 133.14C23.21 132.14 23.74 131.27 24.42 130.53C25.1 129.79 25.91 129.21 26.85 128.79C27.79 128.35 28.83 128.13 29.97 128.13C31.89 128.13 33.48 128.8 34.74 130.14V128.61ZM60.9605 144L57.6305 134.94L56.1305 144H51.5405L54.4805 128.61H58.9505L62.1305 136.92L65.3105 128.61H69.7805L72.7205 144H68.1005L66.6305 134.94L63.3005 144H60.9605ZM79.6275 136.23C79.6275 136.75 79.7175 137.23 79.8975 137.67C80.0975 138.09 80.3475 138.46 80.6475 138.78C80.9675 139.1 81.3375 139.35 81.7575 139.53C82.1975 139.71 82.6575 139.8 83.1375 139.8C83.6175 139.8 84.0675 139.71 84.4875 139.53C84.9275 139.35 85.2975 139.1 85.5975 138.78C85.9175 138.46 86.1675 138.09 86.3475 137.67C86.5475 137.23 86.6475 136.76 86.6475 136.26C86.6475 135.78 86.5475 135.33 86.3475 134.91C86.1675 134.47 85.9175 134.09 85.5975 133.77C85.2975 133.45 84.9275 133.2 84.4875 133.02C84.0675 132.84 83.6175 132.75 83.1375 132.75C82.6575 132.75 82.1975 132.84 81.7575 133.02C81.3375 133.2 80.9675 133.45 80.6475 133.77C80.3475 134.09 80.0975 134.46 79.8975 134.88C79.7175 135.3 79.6275 135.75 79.6275 136.23ZM73.8975 136.17C73.8975 135.03 74.1275 133.97 74.5875 132.99C75.0475 131.99 75.6875 131.13 76.5075 130.41C77.3275 129.67 78.2975 129.09 79.4175 128.67C80.5575 128.25 81.7975 128.04 83.1375 128.04C84.4575 128.04 85.6775 128.25 86.7975 128.67C87.9375 129.07 88.9175 129.64 89.7375 130.38C90.5775 131.1 91.2275 131.97 91.6875 132.99C92.1475 133.99 92.3775 135.1 92.3775 136.32C92.3775 137.54 92.1375 138.66 91.6575 139.68C91.1975 140.68 90.5575 141.55 89.7375 142.29C88.9175 143.01 87.9275 143.57 86.7675 143.97C85.6275 144.37 84.3875 144.57 83.0475 144.57C81.7275 144.57 80.5075 144.37 79.3875 143.97C78.2675 143.57 77.2975 143 76.4775 142.26C75.6775 141.52 75.0475 140.64 74.5875 139.62C74.1275 138.58 73.8975 137.43 73.8975 136.17ZM115.213 128.61H121.033L114.613 135.99L121.813 144H115.663L110.293 137.76V144H104.863V137.76L99.4334 144H93.2834L100.513 135.99L94.0934 128.61H99.9134L104.863 134.91V128.61H110.293V134.91L115.213 128.61ZM134.557 134.07C134.377 133.31 134.007 132.7 133.447 132.24C132.887 131.78 132.207 131.55 131.407 131.55C130.567 131.55 129.877 131.77 129.337 132.21C128.817 132.65 128.487 133.27 128.347 134.07H134.557ZM128.197 137.22C128.197 139.56 129.297 140.73 131.497 140.73C132.677 140.73 133.567 140.25 134.167 139.29H139.417C138.357 142.81 135.707 144.57 131.467 144.57C130.167 144.57 128.977 144.38 127.897 144C126.817 143.6 125.887 143.04 125.107 142.32C124.347 141.6 123.757 140.74 123.337 139.74C122.917 138.74 122.707 137.62 122.707 136.38C122.707 135.1 122.907 133.95 123.307 132.93C123.707 131.89 124.277 131.01 125.017 130.29C125.757 129.57 126.647 129.02 127.687 128.64C128.747 128.24 129.937 128.04 131.257 128.04C132.557 128.04 133.727 128.24 134.767 128.64C135.807 129.02 136.687 129.58 137.407 130.32C138.127 131.06 138.677 131.97 139.057 133.05C139.437 134.11 139.627 135.31 139.627 136.65V137.22H128.197ZM153.501 133.14H149.901V144H144.471V133.14H140.871V128.61H153.501V133.14ZM155.06 141.12C155.06 140.64 155.15 140.19 155.33 139.77C155.51 139.33 155.76 138.95 156.08 138.63C156.4 138.31 156.77 138.06 157.19 137.88C157.63 137.7 158.09 137.61 158.57 137.61C159.05 137.61 159.5 137.7 159.92 137.88C160.36 138.06 160.74 138.31 161.06 138.63C161.38 138.95 161.63 139.33 161.81 139.77C161.99 140.19 162.08 140.64 162.08 141.12C162.08 141.6 161.99 142.06 161.81 142.5C161.63 142.92 161.38 143.29 161.06 143.61C160.74 143.93 160.36 144.18 159.92 144.36C159.5 144.54 159.05 144.63 158.57 144.63C158.09 144.63 157.63 144.54 157.19 144.36C156.77 144.18 156.4 143.93 156.08 143.61C155.76 143.29 155.51 142.92 155.33 142.5C155.15 142.06 155.06 141.6 155.06 141.12ZM164.655 141.12C164.655 140.64 164.745 140.19 164.925 139.77C165.105 139.33 165.355 138.95 165.675 138.63C165.995 138.31 166.365 138.06 166.785 137.88C167.225 137.7 167.685 137.61 168.165 137.61C168.645 137.61 169.095 137.7 169.515 137.88C169.955 138.06 170.335 138.31 170.655 138.63C170.975 138.95 171.225 139.33 171.405 139.77C171.585 140.19 171.675 140.64 171.675 141.12C171.675 141.6 171.585 142.06 171.405 142.5C171.225 142.92 170.975 143.29 170.655 143.61C170.335 143.93 169.955 144.18 169.515 144.36C169.095 144.54 168.645 144.63 168.165 144.63C167.685 144.63 167.225 144.54 166.785 144.36C166.365 144.18 165.995 143.93 165.675 143.61C165.355 143.29 165.105 142.92 164.925 142.5C164.745 142.06 164.655 141.6 164.655 141.12ZM174.251 141.12C174.251 140.64 174.341 140.19 174.521 139.77C174.701 139.33 174.951 138.95 175.271 138.63C175.591 138.31 175.961 138.06 176.381 137.88C176.821 137.7 177.281 137.61 177.761 137.61C178.241 137.61 178.691 137.7 179.111 137.88C179.551 138.06 179.931 138.31 180.251 138.63C180.571 138.95 180.821 139.33 181.001 139.77C181.181 140.19 181.271 140.64 181.271 141.12C181.271 141.6 181.181 142.06 181.001 142.5C180.821 142.92 180.571 143.29 180.251 143.61C179.931 143.93 179.551 144.18 179.111 144.36C178.691 144.54 178.241 144.63 177.761 144.63C177.281 144.63 176.821 144.54 176.381 144.36C175.961 144.18 175.591 143.93 175.271 143.61C174.951 143.29 174.701 142.92 174.521 142.5C174.341 142.06 174.251 141.6 174.251 141.12Z" fill="white"/>
<path d="M159.12 178.172C160.308 178.172 161.262 178.586 161.982 179.414C162.714 180.242 163.08 181.49 163.08 183.158C163.08 184.802 162.714 186.05 161.982 186.902C161.262 187.754 160.302 188.18 159.102 188.18C158.358 188.18 157.74 188.042 157.248 187.766C156.768 187.478 156.39 187.148 156.114 186.776H156.006C156.03 186.98 156.054 187.238 156.078 187.55C156.102 187.862 156.114 188.132 156.114 188.36V192.32H154.53V178.352H155.826L156.042 179.666H156.114C156.402 179.246 156.78 178.892 157.248 178.604C157.716 178.316 158.34 178.172 159.12 178.172ZM158.832 179.504C157.848 179.504 157.152 179.78 156.744 180.332C156.348 180.884 156.138 181.724 156.114 182.852V183.158C156.114 184.346 156.306 185.264 156.69 185.912C157.086 186.548 157.812 186.866 158.868 186.866C159.456 186.866 159.936 186.704 160.308 186.38C160.692 186.056 160.974 185.618 161.154 185.066C161.346 184.502 161.442 183.86 161.442 183.14C161.442 182.036 161.226 181.154 160.794 180.494C160.374 179.834 159.72 179.504 158.832 179.504ZM168.898 178.19C170.074 178.19 170.944 178.448 171.508 178.964C172.072 179.48 172.354 180.302 172.354 181.43V188H171.202L170.896 186.632H170.824C170.404 187.16 169.96 187.55 169.492 187.802C169.036 188.054 168.4 188.18 167.584 188.18C166.708 188.18 165.982 187.952 165.406 187.496C164.83 187.028 164.542 186.302 164.542 185.318C164.542 184.358 164.92 183.62 165.676 183.104C166.432 182.576 167.596 182.288 169.168 182.24L170.806 182.186V181.61C170.806 180.806 170.632 180.248 170.284 179.936C169.936 179.624 169.444 179.468 168.808 179.468C168.304 179.468 167.824 179.546 167.368 179.702C166.912 179.846 166.486 180.014 166.09 180.206L165.604 179.018C166.024 178.79 166.522 178.598 167.098 178.442C167.674 178.274 168.274 178.19 168.898 178.19ZM169.366 183.338C168.166 183.386 167.332 183.578 166.864 183.914C166.408 184.25 166.18 184.724 166.18 185.336C166.18 185.876 166.342 186.272 166.666 186.524C167.002 186.776 167.428 186.902 167.944 186.902C168.76 186.902 169.438 186.68 169.978 186.236C170.518 185.78 170.788 185.084 170.788 184.148V183.284L169.366 183.338ZM174.47 182.204C174.47 180.092 174.788 178.448 175.424 177.272C176.06 176.084 177.086 175.34 178.502 175.04C179.282 174.872 180.044 174.722 180.788 174.59C181.532 174.458 182.228 174.338 182.876 174.23L183.146 175.616C182.726 175.676 182.252 175.754 181.724 175.85C181.196 175.934 180.674 176.024 180.158 176.12C179.642 176.204 179.198 176.288 178.826 176.372C178.046 176.54 177.428 176.948 176.972 177.596C176.516 178.232 176.258 179.228 176.198 180.584H176.306C176.474 180.356 176.702 180.122 176.99 179.882C177.29 179.642 177.644 179.438 178.052 179.27C178.472 179.102 178.946 179.018 179.474 179.018C180.722 179.018 181.664 179.42 182.3 180.224C182.936 181.028 183.254 182.072 183.254 183.356C183.254 184.424 183.068 185.318 182.696 186.038C182.324 186.758 181.808 187.298 181.148 187.658C180.488 188.006 179.72 188.18 178.844 188.18C177.512 188.18 176.45 187.67 175.658 186.65C174.866 185.63 174.47 184.148 174.47 182.204ZM178.97 186.866C179.75 186.866 180.38 186.614 180.86 186.11C181.34 185.606 181.58 184.742 181.58 183.518C181.58 182.534 181.394 181.76 181.022 181.196C180.662 180.62 180.062 180.332 179.222 180.332C178.694 180.332 178.214 180.452 177.782 180.692C177.35 180.92 176.99 181.184 176.702 181.484C176.414 181.784 176.21 182.036 176.09 182.24C176.09 182.828 176.132 183.398 176.216 183.95C176.3 184.502 176.444 185 176.648 185.444C176.864 185.876 177.158 186.224 177.53 186.488C177.914 186.74 178.394 186.866 178.97 186.866ZM193.777 183.158C193.777 184.754 193.369 185.99 192.553 186.866C191.749 187.742 190.657 188.18 189.277 188.18C188.425 188.18 187.663 187.988 186.991 187.604C186.331 187.208 185.809 186.638 185.425 185.894C185.041 185.138 184.849 184.226 184.849 183.158C184.849 181.562 185.251 180.332 186.055 179.468C186.859 178.604 187.951 178.172 189.331 178.172C190.207 178.172 190.975 178.37 191.635 178.766C192.307 179.15 192.829 179.714 193.201 180.458C193.585 181.19 193.777 182.09 193.777 183.158ZM186.487 183.158C186.487 184.298 186.709 185.204 187.153 185.876C187.609 186.536 188.329 186.866 189.313 186.866C190.285 186.866 190.999 186.536 191.455 185.876C191.911 185.204 192.139 184.298 192.139 183.158C192.139 182.018 191.911 181.124 191.455 180.476C190.999 179.828 190.279 179.504 189.295 179.504C188.311 179.504 187.597 179.828 187.153 180.476C186.709 181.124 186.487 182.018 186.487 183.158ZM197.138 181.862C197.138 182.966 197.756 183.518 198.992 183.518C199.592 183.518 200.138 183.428 200.63 183.248C201.122 183.056 201.626 182.804 202.142 182.492V178.352H203.726V188H202.142V183.698C201.602 184.046 201.068 184.322 200.54 184.526C200.024 184.718 199.4 184.814 198.668 184.814C197.684 184.814 196.916 184.556 196.364 184.04C195.824 183.524 195.554 182.834 195.554 181.97V178.352H197.138V181.862ZM207.925 184.238C207.925 184.382 207.919 184.598 207.907 184.886C207.895 185.174 207.877 185.462 207.853 185.75C207.841 186.038 207.829 186.266 207.817 186.434L212.983 178.352H214.927V188H213.451V182.312C213.451 182.12 213.451 181.868 213.451 181.556C213.463 181.244 213.475 180.938 213.487 180.638C213.499 180.326 213.511 180.092 213.523 179.936L208.393 188H206.431V178.352H207.925V184.238ZM225.45 174.356C225.366 175.256 225.06 175.94 224.532 176.408C224.016 176.864 223.188 177.092 222.048 177.092C220.872 177.092 220.038 176.864 219.546 176.408C219.066 175.952 218.796 175.268 218.736 174.356H220.212C220.272 175.004 220.44 175.442 220.716 175.67C221.004 175.886 221.46 175.994 222.084 175.994C222.636 175.994 223.068 175.88 223.38 175.652C223.704 175.412 223.896 174.98 223.956 174.356H225.45ZM219.132 184.238C219.132 184.382 219.126 184.598 219.114 184.886C219.102 185.174 219.084 185.462 219.06 185.75C219.048 186.038 219.036 186.266 219.024 186.434L224.19 178.352H226.134V188H224.658V182.312C224.658 182.12 224.658 181.868 224.658 181.556C224.67 181.244 224.682 180.938 224.694 180.638C224.706 180.326 224.718 180.092 224.73 179.936L219.6 188H217.638V178.352H219.132V184.238ZM247.169 176.346H242.986L242.318 178.596C242.417 178.584 242.511 178.575 242.599 178.569C242.693 178.563 242.778 178.561 242.854 178.561C244.172 178.561 245.253 179.006 246.097 179.896C246.947 180.781 247.371 181.915 247.371 183.298C247.371 184.728 246.891 185.905 245.93 186.831C244.969 187.757 243.759 188.22 242.3 188.22C240.501 188.22 239.083 187.376 238.046 185.688L239.593 184.379C240.021 185.105 240.451 185.618 240.885 185.917C241.319 186.21 241.849 186.356 242.476 186.356C243.296 186.356 243.985 186.069 244.541 185.495C245.098 184.903 245.376 184.186 245.376 183.342C245.376 182.475 245.101 181.766 244.55 181.215C243.999 180.646 243.311 180.362 242.485 180.362C241.565 180.362 240.771 180.764 240.103 181.566H239.426L241.562 174.43H247.169V176.346ZM256.908 184.212H258.349V186.075H256.908V188H254.86V186.075H248.198L256.908 173.419V184.212ZM254.86 184.212V179.668L251.731 184.212H254.86ZM263.438 181.698V179.949C264.306 179.949 264.889 179.853 265.187 179.659C265.721 179.319 265.987 178.774 265.987 178.024C265.987 177.444 265.794 176.973 265.407 176.609C265.026 176.24 264.531 176.056 263.922 176.056C263.353 176.056 262.914 176.193 262.603 176.469C262.305 176.75 262.082 177.225 261.936 177.893H259.896C260.107 176.615 260.541 175.681 261.197 175.089C261.853 174.491 262.77 174.192 263.948 174.192C265.138 174.192 266.107 174.544 266.857 175.247C267.607 175.944 267.982 176.844 267.982 177.945C267.982 179.188 267.49 180.154 266.506 180.846C267.631 181.508 268.193 182.583 268.193 184.071C268.193 185.29 267.783 186.286 266.963 187.06C266.143 187.833 265.091 188.22 263.808 188.22C262.173 188.22 260.96 187.619 260.169 186.418C259.841 185.914 259.633 185.217 259.545 184.326H261.522C261.628 184.982 261.883 185.486 262.287 185.838C262.697 186.184 263.23 186.356 263.887 186.356C264.549 186.356 265.097 186.137 265.53 185.697C265.964 185.246 266.181 184.675 266.181 183.983C266.181 183.069 265.855 182.419 265.205 182.032C264.824 181.81 264.235 181.698 263.438 181.698ZM274.038 186.075H279.092V188H269.978L274.689 182.296C275.152 181.728 275.538 181.235 275.849 180.819C276.165 180.403 276.406 180.055 276.57 179.773C276.904 179.223 277.071 178.728 277.071 178.288C277.071 177.655 276.848 177.125 276.403 176.697C275.957 176.27 275.407 176.056 274.75 176.056C273.379 176.056 272.594 176.867 272.395 178.49H270.356C270.684 175.631 272.128 174.201 274.689 174.201C275.925 174.201 276.962 174.594 277.8 175.379C278.644 176.164 279.066 177.137 279.066 178.297C279.066 179.035 278.869 179.759 278.477 180.468C278.278 180.837 277.985 181.276 277.598 181.786C277.217 182.29 276.734 182.888 276.148 183.579L274.038 186.075Z" fill="white"/>
<defs>
<filter id="filter0_b" x="-100" y="-100" width="505" height="435.962" filterUnits="userSpaceOnUse" color-interpolation-filters="sRGB">
<feFlood flood-opacity="0" result="BackgroundImageFix"/>
<feGaussianBlur in="BackgroundImage" stdDeviation="50"/>
<feComposite in2="SourceAlpha" operator="in" result="effect1_backgroundBlur"/>
<feBlend mode="normal" in="SourceGraphic" in2="effect1_backgroundBlur" result="shape"/>
</filter>
</defs>
</svg>
