<svg width="305" height="236" viewBox="0 0 305 236" fill="none" xmlns="http://www.w3.org/2000/svg">
<g filter="url(#filter0_b)">
<mask id="path-1-inside-1" fill="white">
<path fill-rule="evenodd" clip-rule="evenodd" d="M305 50C305 22.3858 282.614 0 255 0H50C22.3858 0 0 22.3857 0 50V160.433C0 188.047 22.3857 210.433 50 210.433H199.843C208.268 210.433 215.882 215.454 219.201 223.198C226.495 240.217 250.623 240.217 257.917 223.198C261.236 215.454 268.851 210.433 277.276 210.433H279.923C293.773 210.433 305 199.206 305 185.356V50Z"/>
</mask>
<path fill-rule="evenodd" clip-rule="evenodd" d="M305 50C305 22.3858 282.614 0 255 0H50C22.3858 0 0 22.3857 0 50V160.433C0 188.047 22.3857 210.433 50 210.433H199.843C208.268 210.433 215.882 215.454 219.201 223.198C226.495 240.217 250.623 240.217 257.917 223.198C261.236 215.454 268.851 210.433 277.276 210.433H279.923C293.773 210.433 305 199.206 305 185.356V50Z" fill="#6974D1"/>
<path d="M50 5H255V-5H50V5ZM5 160.433V50H-5V160.433H5ZM199.843 205.433H50V215.433H199.843V205.433ZM279.923 205.433H277.276V215.433H279.923V205.433ZM300 50V185.356H310V50H300ZM279.923 215.433C296.534 215.433 310 201.967 310 185.356H300C300 196.444 291.011 205.433 279.923 205.433V215.433ZM262.513 225.167C265.044 219.262 270.851 215.433 277.276 215.433V205.433C266.85 205.433 257.428 211.646 253.322 221.228L262.513 225.167ZM214.605 225.167C223.631 246.227 253.487 246.227 262.513 225.167L253.322 221.228C247.759 234.207 229.359 234.207 223.797 221.228L214.605 225.167ZM199.843 215.433C206.268 215.433 212.074 219.262 214.605 225.167L223.797 221.228C219.69 211.646 210.268 205.433 199.843 205.433V215.433ZM-5 160.433C-5 190.809 19.6243 215.433 50 215.433V205.433C25.1472 205.433 5 185.286 5 160.433H-5ZM255 5C279.853 5 300 25.1472 300 50H310C310 19.6243 285.376 -5 255 -5V5ZM50 -5C19.6243 -5 -5 19.6243 -5 50H5C5 25.1472 25.1472 5 50 5V-5Z" fill="white" mask="url(#path-1-inside-1)"/>
</g>
<path d="M32.79 53.61H38.58L32.49 60.99L39.39 69H33.18L28.29 62.85V69H22.86V53.61H28.29V59.79L32.79 53.61ZM45.7277 61.26C45.7277 61.76 45.8177 62.23 45.9977 62.67C46.1777 63.09 46.4177 63.46 46.7177 63.78C47.0377 64.1 47.4077 64.35 47.8277 64.53C48.2677 64.71 48.7377 64.8 49.2377 64.8C49.7177 64.8 50.1677 64.71 50.5877 64.53C51.0277 64.35 51.3977 64.1 51.6977 63.78C52.0177 63.46 52.2677 63.09 52.4477 62.67C52.6477 62.25 52.7477 61.8 52.7477 61.32C52.7477 60.84 52.6477 60.39 52.4477 59.97C52.2677 59.53 52.0177 59.15 51.6977 58.83C51.3977 58.51 51.0277 58.26 50.5877 58.08C50.1677 57.9 49.7177 57.81 49.2377 57.81C48.7377 57.81 48.2677 57.9 47.8277 58.08C47.4077 58.26 47.0377 58.51 46.7177 58.83C46.4177 59.15 46.1777 59.52 45.9977 59.94C45.8177 60.34 45.7277 60.78 45.7277 61.26ZM52.5677 53.61H58.0277V69H52.5677V67.29C51.4077 68.75 49.8377 69.48 47.8577 69.48C46.7377 69.48 45.7077 69.28 44.7677 68.88C43.8277 68.46 43.0077 67.88 42.3077 67.14C41.6077 66.4 41.0577 65.53 40.6577 64.53C40.2777 63.53 40.0877 62.44 40.0877 61.26C40.0877 60.16 40.2777 59.12 40.6577 58.14C41.0377 57.14 41.5677 56.27 42.2477 55.53C42.9277 54.79 43.7377 54.21 44.6777 53.79C45.6177 53.35 46.6577 53.13 47.7977 53.13C49.7177 53.13 51.3077 53.8 52.5677 55.14V53.61ZM71.0529 53.61H76.8429L70.7529 60.99L77.6529 69H71.4429L66.5529 62.85V69H61.1229V53.61H66.5529V59.79L71.0529 53.61ZM104.926 69H99.4959V58.14H93.9759V69H88.5459V53.61H104.926V69ZM113.174 61.23C113.174 61.75 113.264 62.23 113.444 62.67C113.644 63.09 113.894 63.46 114.194 63.78C114.514 64.1 114.884 64.35 115.304 64.53C115.744 64.71 116.204 64.8 116.684 64.8C117.164 64.8 117.614 64.71 118.034 64.53C118.474 64.35 118.844 64.1 119.144 63.78C119.464 63.46 119.714 63.09 119.894 62.67C120.094 62.23 120.194 61.76 120.194 61.26C120.194 60.78 120.094 60.33 119.894 59.91C119.714 59.47 119.464 59.09 119.144 58.77C118.844 58.45 118.474 58.2 118.034 58.02C117.614 57.84 117.164 57.75 116.684 57.75C116.204 57.75 115.744 57.84 115.304 58.02C114.884 58.2 114.514 58.45 114.194 58.77C113.894 59.09 113.644 59.46 113.444 59.88C113.264 60.3 113.174 60.75 113.174 61.23ZM107.444 61.17C107.444 60.03 107.674 58.97 108.134 57.99C108.594 56.99 109.234 56.13 110.054 55.41C110.874 54.67 111.844 54.09 112.964 53.67C114.104 53.25 115.344 53.04 116.684 53.04C118.004 53.04 119.224 53.25 120.344 53.67C121.484 54.07 122.464 54.64 123.284 55.38C124.124 56.1 124.774 56.97 125.234 57.99C125.694 58.99 125.924 60.1 125.924 61.32C125.924 62.54 125.684 63.66 125.204 64.68C124.744 65.68 124.104 66.55 123.284 67.29C122.464 68.01 121.474 68.57 120.314 68.97C119.174 69.37 117.934 69.57 116.594 69.57C115.274 69.57 114.054 69.37 112.934 68.97C111.814 68.57 110.844 68 110.024 67.26C109.224 66.52 108.594 65.64 108.134 64.62C107.674 63.58 107.444 62.43 107.444 61.17ZM146.115 69L142.785 59.94L141.285 69H136.695L139.635 53.61H144.105L147.285 61.92L150.465 53.61H154.935L157.875 69H153.255L151.785 59.94L148.455 69H146.115ZM170.602 58.92V53.61H176.032V69H170.602V63.39H165.082V69H159.652V53.61H165.082V58.92H170.602ZM190.399 59.07C190.219 58.31 189.849 57.7 189.289 57.24C188.729 56.78 188.049 56.55 187.249 56.55C186.409 56.55 185.719 56.77 185.179 57.21C184.659 57.65 184.329 58.27 184.189 59.07H190.399ZM184.039 62.22C184.039 64.56 185.139 65.73 187.339 65.73C188.519 65.73 189.409 65.25 190.009 64.29H195.259C194.199 67.81 191.549 69.57 187.309 69.57C186.009 69.57 184.819 69.38 183.739 69C182.659 68.6 181.729 68.04 180.949 67.32C180.189 66.6 179.599 65.74 179.179 64.74C178.759 63.74 178.549 62.62 178.549 61.38C178.549 60.1 178.749 58.95 179.149 57.93C179.549 56.89 180.119 56.01 180.859 55.29C181.599 54.57 182.489 54.02 183.529 53.64C184.589 53.24 185.779 53.04 187.099 53.04C188.399 53.04 189.569 53.24 190.609 53.64C191.649 54.02 192.529 54.58 193.249 55.32C193.969 56.06 194.519 56.97 194.899 58.05C195.279 59.11 195.469 60.31 195.469 61.65V62.22H184.039ZM205.709 58.71H231.719V63.24H205.709V58.71ZM28.47 84.7C28.15 84.04 27.69 83.54 27.09 83.2C26.51 82.84 25.84 82.66 25.08 82.66C24.56 82.66 24.08 82.74 23.64 82.9C23.22 83.04 22.76 83.28 22.26 83.62V79C22.88 78.7 23.46 78.49 24 78.37C24.56 78.23 25.2 78.16 25.92 78.16C27.14 78.16 28.27 78.37 29.31 78.79C30.37 79.21 31.28 79.79 32.04 80.53C32.8 81.27 33.39 82.15 33.81 83.17C34.25 84.17 34.47 85.26 34.47 86.44C34.47 87.58 34.25 88.64 33.81 89.62C33.39 90.6 32.8 91.45 32.04 92.17C31.28 92.89 30.38 93.46 29.34 93.88C28.32 94.3 27.22 94.51 26.04 94.51C25.36 94.51 24.72 94.43 24.12 94.27C23.54 94.13 22.92 93.92 22.26 93.64V89.02C23.14 89.72 24.08 90.07 25.08 90.07C25.84 90.07 26.53 89.88 27.15 89.5C27.79 89.1 28.25 88.55 28.53 87.85H24.99V84.7H28.47ZM48.337 83.14H44.737V94H39.307V83.14H35.707V78.61H48.337V83.14ZM55.2959 86.23C55.2959 86.75 55.3859 87.23 55.5659 87.67C55.7659 88.09 56.0159 88.46 56.3159 88.78C56.6359 89.1 57.0059 89.35 57.4259 89.53C57.8659 89.71 58.3259 89.8 58.8059 89.8C59.2859 89.8 59.7359 89.71 60.1559 89.53C60.5959 89.35 60.9659 89.1 61.2659 88.78C61.5859 88.46 61.8359 88.09 62.0159 87.67C62.2159 87.23 62.3159 86.76 62.3159 86.26C62.3159 85.78 62.2159 85.33 62.0159 84.91C61.8359 84.47 61.5859 84.09 61.2659 83.77C60.9659 83.45 60.5959 83.2 60.1559 83.02C59.7359 82.84 59.2859 82.75 58.8059 82.75C58.3259 82.75 57.8659 82.84 57.4259 83.02C57.0059 83.2 56.6359 83.45 56.3159 83.77C56.0159 84.09 55.7659 84.46 55.5659 84.88C55.3859 85.3 55.2959 85.75 55.2959 86.23ZM49.5659 86.17C49.5659 85.03 49.7959 83.97 50.2559 82.99C50.7159 81.99 51.3559 81.13 52.1759 80.41C52.9959 79.67 53.9659 79.09 55.0859 78.67C56.2259 78.25 57.4659 78.04 58.8059 78.04C60.1259 78.04 61.3459 78.25 62.4659 78.67C63.6059 79.07 64.5859 79.64 65.4059 80.38C66.2459 81.1 66.8959 81.97 67.3559 82.99C67.8159 83.99 68.0459 85.1 68.0459 86.32C68.0459 87.54 67.8059 88.66 67.3259 89.68C66.8659 90.68 66.2259 91.55 65.4059 92.29C64.5859 93.01 63.5959 93.57 62.4359 93.97C61.2959 94.37 60.0559 94.57 58.7159 94.57C57.3959 94.57 56.1759 94.37 55.0559 93.97C53.9359 93.57 52.9659 93 52.1459 92.26C51.3459 91.52 50.7159 90.64 50.2559 89.62C49.7959 88.58 49.5659 87.43 49.5659 86.17ZM79.447 89.53C79.507 89.55 79.597 89.56 79.717 89.56C79.977 89.56 80.207 89.54 80.407 89.5C80.607 89.46 80.767 89.38 80.887 89.26C81.007 89.12 81.097 88.92 81.157 88.66C81.217 88.4 81.247 88.06 81.247 87.64V78.61H96.247V94H90.817V83.14H86.677V88.24C86.677 89.34 86.507 90.29 86.167 91.09C85.847 91.89 85.397 92.55 84.817 93.07C84.237 93.59 83.527 93.97 82.687 94.21C81.867 94.47 80.967 94.6 79.987 94.6H79.447V89.53ZM105.245 91.9L97.8047 78.61H104.105L108.215 86.5L112.205 78.61H118.445L106.085 101.68H99.9947L105.245 91.9ZM128.989 90.34C128.629 90.42 128.259 90.49 127.879 90.55C127.519 90.59 127.129 90.61 126.709 90.61C125.349 90.61 124.179 90.43 123.199 90.07C122.219 89.69 121.419 89.15 120.799 88.45C120.179 87.73 119.719 86.85 119.419 85.81C119.139 84.77 118.999 83.58 118.999 82.24V78.61H124.429V82.42C124.429 83.2 124.489 83.84 124.609 84.34C124.749 84.82 124.939 85.19 125.179 85.45C125.419 85.71 125.699 85.89 126.019 85.99C126.339 86.07 126.689 86.11 127.069 86.11C127.849 86.11 128.489 85.86 128.989 85.36V78.61H134.419V94H128.989V90.34ZM137.547 94V78.61H142.977V89.47H146.577V78.61H152.007V89.47H155.607V78.61H161.037V94H137.547ZM175.414 84.07C175.234 83.31 174.864 82.7 174.304 82.24C173.744 81.78 173.064 81.55 172.264 81.55C171.424 81.55 170.734 81.77 170.194 82.21C169.674 82.65 169.344 83.27 169.204 84.07H175.414ZM169.054 87.22C169.054 89.56 170.154 90.73 172.354 90.73C173.534 90.73 174.424 90.25 175.024 89.29H180.274C179.214 92.81 176.564 94.57 172.324 94.57C171.024 94.57 169.834 94.38 168.754 94C167.674 93.6 166.744 93.04 165.964 92.32C165.204 91.6 164.614 90.74 164.194 89.74C163.774 88.74 163.564 87.62 163.564 86.38C163.564 85.1 163.764 83.95 164.164 82.93C164.564 81.89 165.134 81.01 165.874 80.29C166.614 79.57 167.504 79.02 168.544 78.64C169.604 78.24 170.794 78.04 172.114 78.04C173.414 78.04 174.584 78.24 175.624 78.64C176.664 79.02 177.544 79.58 178.264 80.32C178.984 81.06 179.534 81.97 179.914 83.05C180.294 84.11 180.484 85.31 180.484 86.65V87.22H169.054ZM194.237 84.07C194.057 83.31 193.687 82.7 193.127 82.24C192.567 81.78 191.887 81.55 191.087 81.55C190.247 81.55 189.557 81.77 189.017 82.21C188.497 82.65 188.167 83.27 188.027 84.07H194.237ZM187.877 87.22C187.877 89.56 188.977 90.73 191.177 90.73C192.357 90.73 193.247 90.25 193.847 89.29H199.097C198.037 92.81 195.387 94.57 191.147 94.57C189.847 94.57 188.657 94.38 187.577 94C186.497 93.6 185.567 93.04 184.787 92.32C184.027 91.6 183.437 90.74 183.017 89.74C182.597 88.74 182.387 87.62 182.387 86.38C182.387 85.1 182.587 83.95 182.987 82.93C183.387 81.89 183.957 81.01 184.697 80.29C185.437 79.57 186.327 79.02 187.367 78.64C188.427 78.24 189.617 78.04 190.937 78.04C192.237 78.04 193.407 78.24 194.447 78.64C195.487 79.02 196.367 79.58 197.087 80.32C197.807 81.06 198.357 81.97 198.737 83.05C199.117 84.11 199.307 85.31 199.307 86.65V87.22H187.877ZM30.93 119L27.6 109.94L26.1 119H21.51L24.45 103.61H28.92L32.1 111.92L35.28 103.61H39.75L42.69 119H38.07L36.6 109.94L33.27 119H30.93ZM55.717 109.07C55.537 108.31 55.167 107.7 54.607 107.24C54.047 106.78 53.367 106.55 52.567 106.55C51.727 106.55 51.037 106.77 50.497 107.21C49.977 107.65 49.647 108.27 49.507 109.07H55.717ZM49.357 112.22C49.357 114.56 50.457 115.73 52.657 115.73C53.837 115.73 54.727 115.25 55.327 114.29H60.577C59.517 117.81 56.867 119.57 52.627 119.57C51.327 119.57 50.137 119.38 49.057 119C47.977 118.6 47.047 118.04 46.267 117.32C45.507 116.6 44.917 115.74 44.497 114.74C44.077 113.74 43.867 112.62 43.867 111.38C43.867 110.1 44.067 108.95 44.467 107.93C44.867 106.89 45.437 106.01 46.177 105.29C46.917 104.57 47.807 104.02 48.847 103.64C49.907 103.24 51.097 103.04 52.417 103.04C53.717 103.04 54.887 103.24 55.927 103.64C56.967 104.02 57.847 104.58 58.567 105.32C59.287 106.06 59.837 106.97 60.217 108.05C60.597 109.11 60.787 110.31 60.787 111.65V112.22H49.357ZM74.9009 108.59C73.9609 107.95 73.0109 107.63 72.0509 107.63C71.5309 107.63 71.0409 107.72 70.5809 107.9C70.1409 108.08 69.7509 108.34 69.4109 108.68C69.0709 109 68.8009 109.39 68.6009 109.85C68.4209 110.29 68.3309 110.79 68.3309 111.35C68.3309 111.89 68.4209 112.39 68.6009 112.85C68.8009 113.29 69.0609 113.68 69.3809 114.02C69.7209 114.34 70.1209 114.59 70.5809 114.77C71.0409 114.95 71.5309 115.04 72.0509 115.04C73.0709 115.04 74.0209 114.69 74.9009 113.99V118.61C73.5609 119.19 72.2909 119.48 71.0909 119.48C69.9709 119.48 68.9009 119.29 67.8809 118.91C66.8809 118.53 65.9909 117.99 65.2109 117.29C64.4509 116.57 63.8409 115.72 63.3809 114.74C62.9209 113.74 62.6909 112.63 62.6909 111.41C62.6909 110.19 62.9109 109.08 63.3509 108.08C63.7909 107.06 64.3909 106.19 65.1509 105.47C65.9109 104.73 66.8109 104.16 67.8509 103.76C68.9109 103.34 70.0409 103.13 71.2409 103.13C72.5609 103.13 73.7809 103.41 74.9009 103.97V108.59ZM88.7679 108.14H85.1679V119H79.7379V108.14H76.1379V103.61H88.7679V108.14ZM95.7267 111.23C95.7267 111.75 95.8167 112.23 95.9967 112.67C96.1967 113.09 96.4467 113.46 96.7467 113.78C97.0667 114.1 97.4367 114.35 97.8567 114.53C98.2967 114.71 98.7567 114.8 99.2367 114.8C99.7167 114.8 100.167 114.71 100.587 114.53C101.027 114.35 101.397 114.1 101.697 113.78C102.017 113.46 102.267 113.09 102.447 112.67C102.647 112.23 102.747 111.76 102.747 111.26C102.747 110.78 102.647 110.33 102.447 109.91C102.267 109.47 102.017 109.09 101.697 108.77C101.397 108.45 101.027 108.2 100.587 108.02C100.167 107.84 99.7167 107.75 99.2367 107.75C98.7567 107.75 98.2967 107.84 97.8567 108.02C97.4367 108.2 97.0667 108.45 96.7467 108.77C96.4467 109.09 96.1967 109.46 95.9967 109.88C95.8167 110.3 95.7267 110.75 95.7267 111.23ZM89.9967 111.17C89.9967 110.03 90.2267 108.97 90.6867 107.99C91.1467 106.99 91.7867 106.13 92.6067 105.41C93.4267 104.67 94.3967 104.09 95.5167 103.67C96.6567 103.25 97.8967 103.04 99.2367 103.04C100.557 103.04 101.777 103.25 102.897 103.67C104.037 104.07 105.017 104.64 105.837 105.38C106.677 106.1 107.327 106.97 107.787 107.99C108.247 108.99 108.477 110.1 108.477 111.32C108.477 112.54 108.237 113.66 107.757 114.68C107.297 115.68 106.657 116.55 105.837 117.29C105.017 118.01 104.027 118.57 102.867 118.97C101.727 119.37 100.487 119.57 99.1467 119.57C97.8267 119.57 96.6067 119.37 95.4867 118.97C94.3667 118.57 93.3967 118 92.5767 117.26C91.7767 116.52 91.1467 115.64 90.6867 114.62C90.2267 113.58 89.9967 112.43 89.9967 111.17ZM136.978 119H131.548V108.14H126.028V119H120.598V103.61H136.978V119ZM145.226 111.23C145.226 111.75 145.316 112.23 145.496 112.67C145.696 113.09 145.946 113.46 146.246 113.78C146.566 114.1 146.936 114.35 147.356 114.53C147.796 114.71 148.256 114.8 148.736 114.8C149.216 114.8 149.666 114.71 150.086 114.53C150.526 114.35 150.896 114.1 151.196 113.78C151.516 113.46 151.766 113.09 151.946 112.67C152.146 112.23 152.246 111.76 152.246 111.26C152.246 110.78 152.146 110.33 151.946 109.91C151.766 109.47 151.516 109.09 151.196 108.77C150.896 108.45 150.526 108.2 150.086 108.02C149.666 107.84 149.216 107.75 148.736 107.75C148.256 107.75 147.796 107.84 147.356 108.02C146.936 108.2 146.566 108.45 146.246 108.77C145.946 109.09 145.696 109.46 145.496 109.88C145.316 110.3 145.226 110.75 145.226 111.23ZM139.496 111.17C139.496 110.03 139.726 108.97 140.186 107.99C140.646 106.99 141.286 106.13 142.106 105.41C142.926 104.67 143.896 104.09 145.016 103.67C146.156 103.25 147.396 103.04 148.736 103.04C150.056 103.04 151.276 103.25 152.396 103.67C153.536 104.07 154.516 104.64 155.336 105.38C156.176 106.1 156.826 106.97 157.286 107.99C157.746 108.99 157.976 110.1 157.976 111.32C157.976 112.54 157.736 113.66 157.256 114.68C156.796 115.68 156.156 116.55 155.336 117.29C154.516 118.01 153.526 118.57 152.366 118.97C151.226 119.37 149.986 119.57 148.646 119.57C147.326 119.57 146.106 119.37 144.986 118.97C143.866 118.57 142.896 118 142.076 117.26C141.276 116.52 140.646 115.64 140.186 114.62C139.726 113.58 139.496 112.43 139.496 111.17ZM172.111 108.59C171.171 107.95 170.221 107.63 169.261 107.63C168.741 107.63 168.251 107.72 167.791 107.9C167.351 108.08 166.961 108.34 166.621 108.68C166.281 109 166.011 109.39 165.811 109.85C165.631 110.29 165.541 110.79 165.541 111.35C165.541 111.89 165.631 112.39 165.811 112.85C166.011 113.29 166.271 113.68 166.591 114.02C166.931 114.34 167.331 114.59 167.791 114.77C168.251 114.95 168.741 115.04 169.261 115.04C170.281 115.04 171.231 114.69 172.111 113.99V118.61C170.771 119.19 169.501 119.48 168.301 119.48C167.181 119.48 166.111 119.29 165.091 118.91C164.091 118.53 163.201 117.99 162.421 117.29C161.661 116.57 161.051 115.72 160.591 114.74C160.131 113.74 159.901 112.63 159.901 111.41C159.901 110.19 160.121 109.08 160.561 108.08C161.001 107.06 161.601 106.19 162.361 105.47C163.121 104.73 164.021 104.16 165.061 103.76C166.121 103.34 167.251 103.13 168.451 103.13C169.771 103.13 170.991 103.41 172.111 103.97V108.59ZM173.888 114.53C173.948 114.55 174.038 114.56 174.158 114.56C174.418 114.56 174.648 114.54 174.848 114.5C175.048 114.46 175.208 114.38 175.328 114.26C175.448 114.12 175.538 113.92 175.598 113.66C175.658 113.4 175.688 113.06 175.688 112.64V103.61H190.688V119H185.258V108.14H181.118V113.24C181.118 114.34 180.948 115.29 180.608 116.09C180.288 116.89 179.838 117.55 179.258 118.07C178.678 118.59 177.968 118.97 177.128 119.21C176.308 119.47 175.408 119.6 174.428 119.6H173.888V114.53ZM205.063 109.07C204.883 108.31 204.513 107.7 203.953 107.24C203.393 106.78 202.713 106.55 201.913 106.55C201.073 106.55 200.383 106.77 199.843 107.21C199.323 107.65 198.993 108.27 198.853 109.07H205.063ZM198.703 112.22C198.703 114.56 199.803 115.73 202.003 115.73C203.183 115.73 204.073 115.25 204.673 114.29H209.923C208.863 117.81 206.213 119.57 201.973 119.57C200.673 119.57 199.483 119.38 198.403 119C197.323 118.6 196.393 118.04 195.613 117.32C194.853 116.6 194.263 115.74 193.843 114.74C193.423 113.74 193.213 112.62 193.213 111.38C193.213 110.1 193.413 108.95 193.813 107.93C194.213 106.89 194.783 106.01 195.523 105.29C196.263 104.57 197.153 104.02 198.193 103.64C199.253 103.24 200.443 103.04 201.763 103.04C203.063 103.04 204.233 103.24 205.273 103.64C206.313 104.02 207.193 104.58 207.913 105.32C208.633 106.06 209.183 106.97 209.563 108.05C209.943 109.11 210.133 110.31 210.133 111.65V112.22H198.703ZM34.23 133.14H30.63V144H25.2V133.14H21.6V128.61H34.23V133.14ZM47.6311 134.07C47.4511 133.31 47.0811 132.7 46.5211 132.24C45.9611 131.78 45.2811 131.55 44.4811 131.55C43.6411 131.55 42.9511 131.77 42.4111 132.21C41.8911 132.65 41.5611 133.27 41.4211 134.07H47.6311ZM41.2711 137.22C41.2711 139.56 42.3711 140.73 44.5711 140.73C45.7511 140.73 46.6411 140.25 47.2411 139.29H52.4911C51.4311 142.81 48.7811 144.57 44.5411 144.57C43.2411 144.57 42.0511 144.38 40.9711 144C39.8911 143.6 38.9611 143.04 38.1811 142.32C37.4211 141.6 36.8311 140.74 36.4111 139.74C35.9911 138.74 35.7811 137.62 35.7811 136.38C35.7811 135.1 35.9811 133.95 36.3811 132.93C36.7811 131.89 37.3511 131.01 38.0911 130.29C38.8311 129.57 39.7211 129.02 40.7611 128.64C41.8211 128.24 43.0111 128.04 44.3311 128.04C45.6311 128.04 46.8011 128.24 47.8411 128.64C48.8811 129.02 49.7611 129.58 50.4811 130.32C51.2011 131.06 51.7511 131.97 52.1311 133.05C52.5111 134.11 52.7011 135.31 52.7011 136.65V137.22H41.2711ZM71.5849 144H66.1549V133.14H60.6349V144H55.2049V128.61H71.5849V144ZM73.9826 139.53C74.0426 139.55 74.1326 139.56 74.2526 139.56C74.5126 139.56 74.7426 139.54 74.9426 139.5C75.1426 139.46 75.3026 139.38 75.4226 139.26C75.5426 139.12 75.6326 138.92 75.6926 138.66C75.7526 138.4 75.7826 138.06 75.7826 137.64V128.61H90.7826V144H85.3526V133.14H81.2126V138.24C81.2126 139.34 81.0426 140.29 80.7026 141.09C80.3826 141.89 79.9326 142.55 79.3526 143.07C78.7726 143.59 78.0626 143.97 77.2226 144.21C76.4026 144.47 75.5026 144.6 74.5226 144.6H73.9826V139.53ZM99.0373 136.23C99.0373 136.75 99.1273 137.23 99.3073 137.67C99.5073 138.09 99.7573 138.46 100.057 138.78C100.377 139.1 100.747 139.35 101.167 139.53C101.607 139.71 102.067 139.8 102.547 139.8C103.027 139.8 103.477 139.71 103.897 139.53C104.337 139.35 104.707 139.1 105.007 138.78C105.327 138.46 105.577 138.09 105.757 137.67C105.957 137.23 106.057 136.76 106.057 136.26C106.057 135.78 105.957 135.33 105.757 134.91C105.577 134.47 105.327 134.09 105.007 133.77C104.707 133.45 104.337 133.2 103.897 133.02C103.477 132.84 103.027 132.75 102.547 132.75C102.067 132.75 101.607 132.84 101.167 133.02C100.747 133.2 100.377 133.45 100.057 133.77C99.7573 134.09 99.5073 134.46 99.3073 134.88C99.1273 135.3 99.0373 135.75 99.0373 136.23ZM93.3073 136.17C93.3073 135.03 93.5373 133.97 93.9973 132.99C94.4573 131.99 95.0973 131.13 95.9173 130.41C96.7373 129.67 97.7073 129.09 98.8273 128.67C99.9673 128.25 101.207 128.04 102.547 128.04C103.867 128.04 105.087 128.25 106.207 128.67C107.347 129.07 108.327 129.64 109.147 130.38C109.987 131.1 110.637 131.97 111.097 132.99C111.557 133.99 111.787 135.1 111.787 136.32C111.787 137.54 111.547 138.66 111.067 139.68C110.607 140.68 109.967 141.55 109.147 142.29C108.327 143.01 107.337 143.57 106.177 143.97C105.037 144.37 103.797 144.57 102.457 144.57C101.137 144.57 99.9173 144.37 98.7973 143.97C97.6773 143.57 96.7073 143 95.8873 142.26C95.0873 141.52 94.4573 140.64 93.9973 139.62C93.5373 138.58 93.3073 137.43 93.3073 136.17ZM119.743 128.61V137.22L126.193 128.61H131.623V144H126.193V135.42L119.713 144H114.313V128.61H119.743ZM128.833 120.45C128.653 124.23 126.683 126.12 122.923 126.12C119.143 126.12 117.163 124.23 116.983 120.45H120.463C120.663 122.09 121.483 122.91 122.923 122.91C124.323 122.91 125.143 122.09 125.383 120.45H128.833ZM154.274 128.61H160.064L153.974 135.99L160.874 144H154.664L149.774 137.85V144H144.344V128.61H149.774V134.79L154.274 128.61ZM174.441 136.35C174.441 135.87 174.351 135.42 174.171 135C174.011 134.56 173.771 134.18 173.451 133.86C173.131 133.54 172.751 133.29 172.311 133.11C171.891 132.91 171.431 132.81 170.931 132.81C170.451 132.81 170.001 132.9 169.581 133.08C169.161 133.26 168.791 133.51 168.471 133.83C168.171 134.15 167.921 134.53 167.721 134.97C167.541 135.39 167.451 135.84 167.451 136.32C167.451 136.8 167.541 137.25 167.721 137.67C167.901 138.09 168.151 138.46 168.471 138.78C168.791 139.08 169.161 139.33 169.581 139.53C170.021 139.71 170.481 139.8 170.961 139.8C171.441 139.8 171.891 139.71 172.311 139.53C172.731 139.35 173.091 139.1 173.391 138.78C173.711 138.46 173.961 138.09 174.141 137.67C174.341 137.25 174.441 136.81 174.441 136.35ZM167.601 151.68H162.171V128.61H167.601V130.32C168.761 128.86 170.341 128.13 172.341 128.13C173.441 128.13 174.461 128.35 175.401 128.79C176.361 129.21 177.191 129.79 177.891 130.53C178.591 131.27 179.131 132.14 179.511 133.14C179.911 134.14 180.111 135.21 180.111 136.35C180.111 137.49 179.911 138.55 179.511 139.53C179.131 140.51 178.591 141.37 177.891 142.11C177.211 142.85 176.401 143.43 175.461 143.85C174.521 144.27 173.501 144.48 172.401 144.48C170.481 144.48 168.881 143.82 167.601 142.5V151.68ZM187.736 136.23C187.736 136.75 187.826 137.23 188.006 137.67C188.206 138.09 188.456 138.46 188.756 138.78C189.076 139.1 189.446 139.35 189.866 139.53C190.306 139.71 190.766 139.8 191.246 139.8C191.726 139.8 192.176 139.71 192.596 139.53C193.036 139.35 193.406 139.1 193.706 138.78C194.026 138.46 194.276 138.09 194.456 137.67C194.656 137.23 194.756 136.76 194.756 136.26C194.756 135.78 194.656 135.33 194.456 134.91C194.276 134.47 194.026 134.09 193.706 133.77C193.406 133.45 193.036 133.2 192.596 133.02C192.176 132.84 191.726 132.75 191.246 132.75C190.766 132.75 190.306 132.84 189.866 133.02C189.446 133.2 189.076 133.45 188.756 133.77C188.456 134.09 188.206 134.46 188.006 134.88C187.826 135.3 187.736 135.75 187.736 136.23ZM182.006 136.17C182.006 135.03 182.236 133.97 182.696 132.99C183.156 131.99 183.796 131.13 184.616 130.41C185.436 129.67 186.406 129.09 187.526 128.67C188.666 128.25 189.906 128.04 191.246 128.04C192.566 128.04 193.786 128.25 194.906 128.67C196.046 129.07 197.026 129.64 197.846 130.38C198.686 131.1 199.336 131.97 199.796 132.99C200.256 133.99 200.486 135.1 200.486 136.32C200.486 137.54 200.246 138.66 199.766 139.68C199.306 140.68 198.666 141.55 197.846 142.29C197.026 143.01 196.036 143.57 194.876 143.97C193.736 144.37 192.496 144.57 191.156 144.57C189.836 144.57 188.616 144.37 187.496 143.97C186.376 143.57 185.406 143 184.586 142.26C183.786 141.52 183.156 140.64 182.696 139.62C182.236 138.58 182.006 137.43 182.006 136.17ZM211.052 140.22C211.472 140.22 211.792 140.1 212.012 139.86C212.232 139.62 212.342 139.3 212.342 138.9C212.342 138.04 211.912 137.61 211.052 137.61H208.082V140.22H211.052ZM210.662 134.55C211.242 134.55 211.532 134.18 211.532 133.44C211.532 132.7 211.242 132.33 210.662 132.33H208.082V134.55H210.662ZM203.012 128.61H211.172C212.692 128.61 213.842 128.96 214.622 129.66C215.422 130.34 215.822 131.33 215.822 132.63C215.822 133.39 215.702 134.01 215.462 134.49C215.222 134.97 214.812 135.38 214.232 135.72C216.332 136.14 217.382 137.41 217.382 139.53C217.382 140.95 216.842 142.05 215.762 142.83C214.702 143.61 213.232 144 211.352 144H203.012V128.61ZM224.562 136.26C224.562 136.76 224.652 137.23 224.832 137.67C225.012 138.09 225.252 138.46 225.552 138.78C225.872 139.1 226.242 139.35 226.662 139.53C227.102 139.71 227.572 139.8 228.072 139.8C228.552 139.8 229.002 139.71 229.422 139.53C229.862 139.35 230.232 139.1 230.532 138.78C230.852 138.46 231.102 138.09 231.282 137.67C231.482 137.25 231.582 136.8 231.582 136.32C231.582 135.84 231.482 135.39 231.282 134.97C231.102 134.53 230.852 134.15 230.532 133.83C230.232 133.51 229.862 133.26 229.422 133.08C229.002 132.9 228.552 132.81 228.072 132.81C227.572 132.81 227.102 132.9 226.662 133.08C226.242 133.26 225.872 133.51 225.552 133.83C225.252 134.15 225.012 134.52 224.832 134.94C224.652 135.34 224.562 135.78 224.562 136.26ZM231.402 128.61H236.862V144H231.402V142.29C230.242 143.75 228.672 144.48 226.692 144.48C225.572 144.48 224.542 144.28 223.602 143.88C222.662 143.46 221.842 142.88 221.142 142.14C220.442 141.4 219.892 140.53 219.492 139.53C219.112 138.53 218.922 137.44 218.922 136.26C218.922 135.16 219.112 134.12 219.492 133.14C219.872 132.14 220.402 131.27 221.082 130.53C221.762 129.79 222.572 129.21 223.512 128.79C224.452 128.35 225.492 128.13 226.632 128.13C228.552 128.13 230.142 128.8 231.402 130.14V128.61ZM251.327 133.14H247.727V144H242.297V133.14H238.697V128.61H251.327V133.14ZM258.586 128.61V137.22L265.036 128.61H270.466V144H265.036V135.42L258.556 144H253.156V128.61H258.586Z" fill="white"/>
<path d="M163.12 178.172C164.308 178.172 165.262 178.586 165.982 179.414C166.714 180.242 167.08 181.49 167.08 183.158C167.08 184.802 166.714 186.05 165.982 186.902C165.262 187.754 164.302 188.18 163.102 188.18C162.358 188.18 161.74 188.042 161.248 187.766C160.768 187.478 160.39 187.148 160.114 186.776H160.006C160.03 186.98 160.054 187.238 160.078 187.55C160.102 187.862 160.114 188.132 160.114 188.36V192.32H158.53V178.352H159.826L160.042 179.666H160.114C160.402 179.246 160.78 178.892 161.248 178.604C161.716 178.316 162.34 178.172 163.12 178.172ZM162.832 179.504C161.848 179.504 161.152 179.78 160.744 180.332C160.348 180.884 160.138 181.724 160.114 182.852V183.158C160.114 184.346 160.306 185.264 160.69 185.912C161.086 186.548 161.812 186.866 162.868 186.866C163.456 186.866 163.936 186.704 164.308 186.38C164.692 186.056 164.974 185.618 165.154 185.066C165.346 184.502 165.442 183.86 165.442 183.14C165.442 182.036 165.226 181.154 164.794 180.494C164.374 179.834 163.72 179.504 162.832 179.504ZM172.898 178.19C174.074 178.19 174.944 178.448 175.508 178.964C176.072 179.48 176.354 180.302 176.354 181.43V188H175.202L174.896 186.632H174.824C174.404 187.16 173.96 187.55 173.492 187.802C173.036 188.054 172.4 188.18 171.584 188.18C170.708 188.18 169.982 187.952 169.406 187.496C168.83 187.028 168.542 186.302 168.542 185.318C168.542 184.358 168.92 183.62 169.676 183.104C170.432 182.576 171.596 182.288 173.168 182.24L174.806 182.186V181.61C174.806 180.806 174.632 180.248 174.284 179.936C173.936 179.624 173.444 179.468 172.808 179.468C172.304 179.468 171.824 179.546 171.368 179.702C170.912 179.846 170.486 180.014 170.09 180.206L169.604 179.018C170.024 178.79 170.522 178.598 171.098 178.442C171.674 178.274 172.274 178.19 172.898 178.19ZM173.366 183.338C172.166 183.386 171.332 183.578 170.864 183.914C170.408 184.25 170.18 184.724 170.18 185.336C170.18 185.876 170.342 186.272 170.666 186.524C171.002 186.776 171.428 186.902 171.944 186.902C172.76 186.902 173.438 186.68 173.978 186.236C174.518 185.78 174.788 185.084 174.788 184.148V183.284L173.366 183.338ZM178.47 182.204C178.47 180.092 178.788 178.448 179.424 177.272C180.06 176.084 181.086 175.34 182.502 175.04C183.282 174.872 184.044 174.722 184.788 174.59C185.532 174.458 186.228 174.338 186.876 174.23L187.146 175.616C186.726 175.676 186.252 175.754 185.724 175.85C185.196 175.934 184.674 176.024 184.158 176.12C183.642 176.204 183.198 176.288 182.826 176.372C182.046 176.54 181.428 176.948 180.972 177.596C180.516 178.232 180.258 179.228 180.198 180.584H180.306C180.474 180.356 180.702 180.122 180.99 179.882C181.29 179.642 181.644 179.438 182.052 179.27C182.472 179.102 182.946 179.018 183.474 179.018C184.722 179.018 185.664 179.42 186.3 180.224C186.936 181.028 187.254 182.072 187.254 183.356C187.254 184.424 187.068 185.318 186.696 186.038C186.324 186.758 185.808 187.298 185.148 187.658C184.488 188.006 183.72 188.18 182.844 188.18C181.512 188.18 180.45 187.67 179.658 186.65C178.866 185.63 178.47 184.148 178.47 182.204ZM182.97 186.866C183.75 186.866 184.38 186.614 184.86 186.11C185.34 185.606 185.58 184.742 185.58 183.518C185.58 182.534 185.394 181.76 185.022 181.196C184.662 180.62 184.062 180.332 183.222 180.332C182.694 180.332 182.214 180.452 181.782 180.692C181.35 180.92 180.99 181.184 180.702 181.484C180.414 181.784 180.21 182.036 180.09 182.24C180.09 182.828 180.132 183.398 180.216 183.95C180.3 184.502 180.444 185 180.648 185.444C180.864 185.876 181.158 186.224 181.53 186.488C181.914 186.74 182.394 186.866 182.97 186.866ZM197.777 183.158C197.777 184.754 197.369 185.99 196.553 186.866C195.749 187.742 194.657 188.18 193.277 188.18C192.425 188.18 191.663 187.988 190.991 187.604C190.331 187.208 189.809 186.638 189.425 185.894C189.041 185.138 188.849 184.226 188.849 183.158C188.849 181.562 189.251 180.332 190.055 179.468C190.859 178.604 191.951 178.172 193.331 178.172C194.207 178.172 194.975 178.37 195.635 178.766C196.307 179.15 196.829 179.714 197.201 180.458C197.585 181.19 197.777 182.09 197.777 183.158ZM190.487 183.158C190.487 184.298 190.709 185.204 191.153 185.876C191.609 186.536 192.329 186.866 193.313 186.866C194.285 186.866 194.999 186.536 195.455 185.876C195.911 185.204 196.139 184.298 196.139 183.158C196.139 182.018 195.911 181.124 195.455 180.476C194.999 179.828 194.279 179.504 193.295 179.504C192.311 179.504 191.597 179.828 191.153 180.476C190.709 181.124 190.487 182.018 190.487 183.158ZM201.138 181.862C201.138 182.966 201.756 183.518 202.992 183.518C203.592 183.518 204.138 183.428 204.63 183.248C205.122 183.056 205.626 182.804 206.142 182.492V178.352H207.726V188H206.142V183.698C205.602 184.046 205.068 184.322 204.54 184.526C204.024 184.718 203.4 184.814 202.668 184.814C201.684 184.814 200.916 184.556 200.364 184.04C199.824 183.524 199.554 182.834 199.554 181.97V178.352H201.138V181.862ZM211.925 184.238C211.925 184.382 211.919 184.598 211.907 184.886C211.895 185.174 211.877 185.462 211.853 185.75C211.841 186.038 211.829 186.266 211.817 186.434L216.983 178.352H218.927V188H217.451V182.312C217.451 182.12 217.451 181.868 217.451 181.556C217.463 181.244 217.475 180.938 217.487 180.638C217.499 180.326 217.511 180.092 217.523 179.936L212.393 188H210.431V178.352H211.925V184.238ZM229.45 174.356C229.366 175.256 229.06 175.94 228.532 176.408C228.016 176.864 227.188 177.092 226.048 177.092C224.872 177.092 224.038 176.864 223.546 176.408C223.066 175.952 222.796 175.268 222.736 174.356H224.212C224.272 175.004 224.44 175.442 224.716 175.67C225.004 175.886 225.46 175.994 226.084 175.994C226.636 175.994 227.068 175.88 227.38 175.652C227.704 175.412 227.896 174.98 227.956 174.356H229.45ZM223.132 184.238C223.132 184.382 223.126 184.598 223.114 184.886C223.102 185.174 223.084 185.462 223.06 185.75C223.048 186.038 223.036 186.266 223.024 186.434L228.19 178.352H230.134V188H228.658V182.312C228.658 182.12 228.658 181.868 228.658 181.556C228.67 181.244 228.682 180.938 228.694 180.638C228.706 180.326 228.718 180.092 228.73 179.936L223.6 188H221.638V178.352H223.132V184.238ZM243.575 173.955L245.078 175.08L241.835 179.492C242.011 179.469 242.16 179.451 242.283 179.439C242.406 179.428 242.503 179.422 242.573 179.422C243.675 179.422 244.627 179.844 245.43 180.688C246.226 181.52 246.625 182.521 246.625 183.693C246.625 184.936 246.18 186.002 245.289 186.893C244.404 187.777 243.341 188.22 242.099 188.22C240.868 188.22 239.79 187.783 238.864 186.91C237.956 186.037 237.502 185.003 237.502 183.808C237.502 182.735 237.944 181.599 238.829 180.397L243.575 173.955ZM244.63 183.825C244.63 183.104 244.381 182.495 243.883 181.997C243.379 181.493 242.772 181.241 242.063 181.241C241.349 181.241 240.742 181.49 240.244 181.988C239.746 182.486 239.497 183.09 239.497 183.799C239.497 184.508 239.746 185.111 240.244 185.609C240.742 186.107 241.351 186.356 242.072 186.356C242.775 186.356 243.376 186.107 243.874 185.609C244.378 185.105 244.63 184.511 244.63 183.825ZM251.767 186.075H256.821V188H247.706L252.417 182.296C252.88 181.728 253.267 181.235 253.577 180.819C253.894 180.403 254.134 180.055 254.298 179.773C254.632 179.223 254.799 178.728 254.799 178.288C254.799 177.655 254.576 177.125 254.131 176.697C253.686 176.27 253.135 176.056 252.479 176.056C251.108 176.056 250.323 176.867 250.123 178.49H248.084C248.412 175.631 249.857 174.201 252.417 174.201C253.654 174.201 254.691 174.594 255.529 175.379C256.372 176.164 256.794 177.137 256.794 178.297C256.794 179.035 256.598 179.759 256.205 180.468C256.006 180.837 255.713 181.276 255.326 181.786C254.946 182.29 254.462 182.888 253.876 183.579L251.767 186.075ZM258.772 181.127C258.772 178.965 259.276 177.239 260.284 175.95C261.186 174.784 262.279 174.201 263.562 174.201C264.845 174.201 265.938 174.784 266.84 175.95C267.848 177.239 268.352 178.994 268.352 181.215C268.352 183.43 267.848 185.182 266.84 186.471C265.938 187.637 264.848 188.22 263.571 188.22C262.294 188.22 261.198 187.637 260.284 186.471C259.276 185.182 258.772 183.4 258.772 181.127ZM260.785 181.136C260.785 182.642 261.046 183.893 261.567 184.889C262.088 185.867 262.754 186.356 263.562 186.356C264.365 186.356 265.03 185.867 265.557 184.889C266.085 183.916 266.348 182.688 266.348 181.206C266.348 179.724 266.085 178.493 265.557 177.515C265.03 176.542 264.365 176.056 263.562 176.056C262.765 176.056 262.103 176.542 261.576 177.515C261.048 178.481 260.785 179.688 260.785 181.136ZM272.8 188.466L271.297 187.35L274.54 182.929C274.364 182.952 274.215 182.97 274.092 182.981C273.969 182.993 273.869 182.999 273.793 182.999C272.697 182.999 271.748 182.58 270.945 181.742C270.148 180.91 269.75 179.908 269.75 178.736C269.75 177.488 270.192 176.422 271.077 175.537C271.968 174.646 273.034 174.201 274.276 174.201C275.513 174.201 276.588 174.641 277.502 175.52C278.416 176.393 278.873 177.424 278.873 178.613C278.873 179.668 278.428 180.808 277.537 182.032L272.8 188.466ZM271.745 178.587C271.745 179.319 271.994 179.935 272.492 180.433C272.996 180.937 273.603 181.188 274.311 181.188C275.02 181.188 275.624 180.939 276.122 180.441C276.626 179.938 276.878 179.331 276.878 178.622C276.878 177.913 276.626 177.307 276.122 176.803C275.624 176.305 275.018 176.056 274.303 176.056C273.6 176.056 272.999 176.305 272.501 176.803C271.997 177.307 271.745 177.901 271.745 178.587Z" fill="white"/>
<defs>
<filter id="filter0_b" x="-100" y="-100" width="505" height="435.962" filterUnits="userSpaceOnUse" color-interpolation-filters="sRGB">
<feFlood flood-opacity="0" result="BackgroundImageFix"/>
<feGaussianBlur in="BackgroundImage" stdDeviation="50"/>
<feComposite in2="SourceAlpha" operator="in" result="effect1_backgroundBlur"/>
<feBlend mode="normal" in="SourceGraphic" in2="effect1_backgroundBlur" result="shape"/>
</filter>
</defs>
</svg>
