<svg width="305" height="236" viewBox="0 0 305 236" fill="none" xmlns="http://www.w3.org/2000/svg">
<g filter="url(#filter0_b)">
<mask id="path-1-inside-1" fill="white">
<path fill-rule="evenodd" clip-rule="evenodd" d="M305 50C305 22.3858 282.614 0 255 0H50C22.3858 0 0 22.3857 0 50V160.433C0 188.047 22.3857 210.433 50 210.433H199.843C208.268 210.433 215.882 215.454 219.201 223.198C226.495 240.217 250.623 240.217 257.917 223.198C261.236 215.454 268.851 210.433 277.276 210.433H279.923C293.773 210.433 305 199.206 305 185.356V50Z"/>
</mask>
<path fill-rule="evenodd" clip-rule="evenodd" d="M305 50C305 22.3858 282.614 0 255 0H50C22.3858 0 0 22.3857 0 50V160.433C0 188.047 22.3857 210.433 50 210.433H199.843C208.268 210.433 215.882 215.454 219.201 223.198C226.495 240.217 250.623 240.217 257.917 223.198C261.236 215.454 268.851 210.433 277.276 210.433H279.923C293.773 210.433 305 199.206 305 185.356V50Z" fill="#A7C5FF"/>
<path d="M50 5H255V-5H50V5ZM5 160.433V50H-5V160.433H5ZM199.843 205.433H50V215.433H199.843V205.433ZM279.923 205.433H277.276V215.433H279.923V205.433ZM300 50V185.356H310V50H300ZM279.923 215.433C296.534 215.433 310 201.967 310 185.356H300C300 196.444 291.011 205.433 279.923 205.433V215.433ZM262.513 225.167C265.044 219.262 270.851 215.433 277.276 215.433V205.433C266.85 205.433 257.428 211.646 253.322 221.228L262.513 225.167ZM214.605 225.167C223.631 246.227 253.487 246.227 262.513 225.167L253.322 221.228C247.759 234.207 229.359 234.207 223.797 221.228L214.605 225.167ZM199.843 215.433C206.268 215.433 212.074 219.262 214.605 225.167L223.797 221.228C219.69 211.646 210.268 205.433 199.843 205.433V215.433ZM-5 160.433C-5 190.809 19.6243 215.433 50 215.433V205.433C25.1472 205.433 5 185.286 5 160.433H-5ZM255 5C279.853 5 300 25.1472 300 50H310C310 19.6243 285.376 -5 255 -5V5ZM50 -5C19.6243 -5 -5 19.6243 -5 50H5C5 25.1472 25.1472 5 50 5V-5Z" fill="white" mask="url(#path-1-inside-1)"/>
</g>
<path d="M30.9 65.22C31.32 65.22 31.64 65.1 31.86 64.86C32.08 64.62 32.19 64.3 32.19 63.9C32.19 63.04 31.76 62.61 30.9 62.61H27.93V65.22H30.9ZM30.51 59.55C31.09 59.55 31.38 59.18 31.38 58.44C31.38 57.7 31.09 57.33 30.51 57.33H27.93V59.55H30.51ZM22.86 53.61H31.02C32.54 53.61 33.69 53.96 34.47 54.66C35.27 55.34 35.67 56.33 35.67 57.63C35.67 58.39 35.55 59.01 35.31 59.49C35.07 59.97 34.66 60.38 34.08 60.72C36.18 61.14 37.23 62.41 37.23 64.53C37.23 65.95 36.69 67.05 35.61 67.83C34.55 68.61 33.08 69 31.2 69H22.86V53.61ZM44.4994 61.23C44.4994 61.75 44.5894 62.23 44.7694 62.67C44.9694 63.09 45.2194 63.46 45.5194 63.78C45.8394 64.1 46.2094 64.35 46.6294 64.53C47.0694 64.71 47.5294 64.8 48.0094 64.8C48.4894 64.8 48.9394 64.71 49.3594 64.53C49.7994 64.35 50.1694 64.1 50.4694 63.78C50.7894 63.46 51.0394 63.09 51.2194 62.67C51.4194 62.23 51.5194 61.76 51.5194 61.26C51.5194 60.78 51.4194 60.33 51.2194 59.91C51.0394 59.47 50.7894 59.09 50.4694 58.77C50.1694 58.45 49.7994 58.2 49.3594 58.02C48.9394 57.84 48.4894 57.75 48.0094 57.75C47.5294 57.75 47.0694 57.84 46.6294 58.02C46.2094 58.2 45.8394 58.45 45.5194 58.77C45.2194 59.09 44.9694 59.46 44.7694 59.88C44.5894 60.3 44.4994 60.75 44.4994 61.23ZM38.7694 61.17C38.7694 60.03 38.9994 58.97 39.4594 57.99C39.9194 56.99 40.5594 56.13 41.3794 55.41C42.1994 54.67 43.1694 54.09 44.2894 53.67C45.4294 53.25 46.6694 53.04 48.0094 53.04C49.3294 53.04 50.5494 53.25 51.6694 53.67C52.8094 54.07 53.7894 54.64 54.6094 55.38C55.4494 56.1 56.0994 56.97 56.5594 57.99C57.0194 58.99 57.2494 60.1 57.2494 61.32C57.2494 62.54 57.0094 63.66 56.5294 64.68C56.0694 65.68 55.4294 66.55 54.6094 67.29C53.7894 68.01 52.7994 68.57 51.6394 68.97C50.4994 69.37 49.2594 69.57 47.9194 69.57C46.5994 69.57 45.3794 69.37 44.2594 68.97C43.1394 68.57 42.1694 68 41.3494 67.26C40.5494 66.52 39.9194 65.64 39.4594 64.62C38.9994 63.58 38.7694 62.43 38.7694 61.17ZM71.1452 58.14H67.5452V69H62.1152V58.14H58.5152V53.61H71.1452V58.14ZM74.0541 61.32V46.38H79.6941V61.32H74.0541ZM73.3641 66.12C73.3641 65.64 73.4541 65.19 73.6341 64.77C73.8141 64.33 74.0641 63.95 74.3841 63.63C74.7041 63.31 75.0741 63.06 75.4941 62.88C75.9341 62.7 76.3941 62.61 76.8741 62.61C77.3541 62.61 77.8041 62.7 78.2241 62.88C78.6641 63.06 79.0441 63.31 79.3641 63.63C79.6841 63.95 79.9341 64.33 80.1141 64.77C80.2941 65.19 80.3841 65.64 80.3841 66.12C80.3841 66.6 80.2941 67.06 80.1141 67.5C79.9341 67.92 79.6841 68.29 79.3641 68.61C79.0441 68.93 78.6641 69.18 78.2241 69.36C77.8041 69.54 77.3541 69.63 76.8741 69.63C76.3941 69.63 75.9341 69.54 75.4941 69.36C75.0741 69.18 74.7041 68.93 74.3841 68.61C74.0641 68.29 73.8141 67.92 73.6341 67.5C73.4541 67.06 73.3641 66.6 73.3641 66.12ZM28.47 84.7C28.15 84.04 27.69 83.54 27.09 83.2C26.51 82.84 25.84 82.66 25.08 82.66C24.56 82.66 24.08 82.74 23.64 82.9C23.22 83.04 22.76 83.28 22.26 83.62V79C22.88 78.7 23.46 78.49 24 78.37C24.56 78.23 25.2 78.16 25.92 78.16C27.14 78.16 28.27 78.37 29.31 78.79C30.37 79.21 31.28 79.79 32.04 80.53C32.8 81.27 33.39 82.15 33.81 83.17C34.25 84.17 34.47 85.26 34.47 86.44C34.47 87.58 34.25 88.64 33.81 89.62C33.39 90.6 32.8 91.45 32.04 92.17C31.28 92.89 30.38 93.46 29.34 93.88C28.32 94.3 27.22 94.51 26.04 94.51C25.36 94.51 24.72 94.43 24.12 94.27C23.54 94.13 22.92 93.92 22.26 93.64V89.02C23.14 89.72 24.08 90.07 25.08 90.07C25.84 90.07 26.53 89.88 27.15 89.5C27.79 89.1 28.25 88.55 28.53 87.85H24.99V84.7H28.47ZM48.337 83.14H44.737V94H39.307V83.14H35.707V78.61H48.337V83.14ZM55.2959 86.23C55.2959 86.75 55.3859 87.23 55.5659 87.67C55.7659 88.09 56.0159 88.46 56.3159 88.78C56.6359 89.1 57.0059 89.35 57.4259 89.53C57.8659 89.71 58.3259 89.8 58.8059 89.8C59.2859 89.8 59.7359 89.71 60.1559 89.53C60.5959 89.35 60.9659 89.1 61.2659 88.78C61.5859 88.46 61.8359 88.09 62.0159 87.67C62.2159 87.23 62.3159 86.76 62.3159 86.26C62.3159 85.78 62.2159 85.33 62.0159 84.91C61.8359 84.47 61.5859 84.09 61.2659 83.77C60.9659 83.45 60.5959 83.2 60.1559 83.02C59.7359 82.84 59.2859 82.75 58.8059 82.75C58.3259 82.75 57.8659 82.84 57.4259 83.02C57.0059 83.2 56.6359 83.45 56.3159 83.77C56.0159 84.09 55.7659 84.46 55.5659 84.88C55.3859 85.3 55.2959 85.75 55.2959 86.23ZM49.5659 86.17C49.5659 85.03 49.7959 83.97 50.2559 82.99C50.7159 81.99 51.3559 81.13 52.1759 80.41C52.9959 79.67 53.9659 79.09 55.0859 78.67C56.2259 78.25 57.4659 78.04 58.8059 78.04C60.1259 78.04 61.3459 78.25 62.4659 78.67C63.6059 79.07 64.5859 79.64 65.4059 80.38C66.2459 81.1 66.8959 81.97 67.3559 82.99C67.8159 83.99 68.0459 85.1 68.0459 86.32C68.0459 87.54 67.8059 88.66 67.3259 89.68C66.8659 90.68 66.2259 91.55 65.4059 92.29C64.5859 93.01 63.5959 93.57 62.4359 93.97C61.2959 94.37 60.0559 94.57 58.7159 94.57C57.3959 94.57 56.1759 94.37 55.0559 93.97C53.9359 93.57 52.9659 93 52.1459 92.26C51.3459 91.52 50.7159 90.64 50.2559 89.62C49.7959 88.58 49.5659 87.43 49.5659 86.17ZM88.747 82.57H87.067C86.547 82.57 86.137 82.72 85.837 83.02C85.537 83.3 85.387 83.69 85.387 84.19C85.387 84.71 85.537 85.12 85.837 85.42C86.137 85.7 86.547 85.84 87.067 85.84H88.747V82.57ZM83.137 88.78C82.257 88.5 81.577 87.95 81.097 87.13C80.617 86.31 80.377 85.3 80.377 84.1C80.377 83.34 80.497 82.63 80.737 81.97C80.997 81.29 81.377 80.71 81.877 80.23C82.377 79.73 82.997 79.34 83.737 79.06C84.477 78.76 85.337 78.61 86.317 78.61H94.177V94H88.747V89.2H87.817L85.177 94H79.447L83.137 88.78ZM123.267 94H117.837V83.14H112.317V94H106.887V78.61H123.267V94ZM131.515 86.23C131.515 86.75 131.605 87.23 131.785 87.67C131.985 88.09 132.235 88.46 132.535 88.78C132.855 89.1 133.225 89.35 133.645 89.53C134.085 89.71 134.545 89.8 135.025 89.8C135.505 89.8 135.955 89.71 136.375 89.53C136.815 89.35 137.185 89.1 137.485 88.78C137.805 88.46 138.055 88.09 138.235 87.67C138.435 87.23 138.535 86.76 138.535 86.26C138.535 85.78 138.435 85.33 138.235 84.91C138.055 84.47 137.805 84.09 137.485 83.77C137.185 83.45 136.815 83.2 136.375 83.02C135.955 82.84 135.505 82.75 135.025 82.75C134.545 82.75 134.085 82.84 133.645 83.02C133.225 83.2 132.855 83.45 132.535 83.77C132.235 84.09 131.985 84.46 131.785 84.88C131.605 85.3 131.515 85.75 131.515 86.23ZM125.785 86.17C125.785 85.03 126.015 83.97 126.475 82.99C126.935 81.99 127.575 81.13 128.395 80.41C129.215 79.67 130.185 79.09 131.305 78.67C132.445 78.25 133.685 78.04 135.025 78.04C136.345 78.04 137.565 78.25 138.685 78.67C139.825 79.07 140.805 79.64 141.625 80.38C142.465 81.1 143.115 81.97 143.575 82.99C144.035 83.99 144.265 85.1 144.265 86.32C144.265 87.54 144.025 88.66 143.545 89.68C143.085 90.68 142.445 91.55 141.625 92.29C140.805 93.01 139.815 93.57 138.655 93.97C137.515 94.37 136.275 94.57 134.935 94.57C133.615 94.57 132.395 94.37 131.275 93.97C130.155 93.57 129.185 93 128.365 92.26C127.565 91.52 126.935 90.64 126.475 89.62C126.015 88.58 125.785 87.43 125.785 86.17ZM157.74 83.92V78.61H163.17V94H157.74V88.39H152.22V94H146.79V78.61H152.22V83.92H157.74ZM171.718 78.61V87.22L178.168 78.61H183.598V94H178.168V85.42L171.688 94H166.288V78.61H171.718ZM194.793 94L191.463 84.94L189.963 94H185.373L188.313 78.61H192.783L195.963 86.92L199.143 78.61H203.613L206.553 94H201.933L200.463 84.94L197.133 94H194.793ZM213.37 86.26C213.37 86.76 213.46 87.23 213.64 87.67C213.82 88.09 214.06 88.46 214.36 88.78C214.68 89.1 215.05 89.35 215.47 89.53C215.91 89.71 216.38 89.8 216.88 89.8C217.36 89.8 217.81 89.71 218.23 89.53C218.67 89.35 219.04 89.1 219.34 88.78C219.66 88.46 219.91 88.09 220.09 87.67C220.29 87.25 220.39 86.8 220.39 86.32C220.39 85.84 220.29 85.39 220.09 84.97C219.91 84.53 219.66 84.15 219.34 83.83C219.04 83.51 218.67 83.26 218.23 83.08C217.81 82.9 217.36 82.81 216.88 82.81C216.38 82.81 215.91 82.9 215.47 83.08C215.05 83.26 214.68 83.51 214.36 83.83C214.06 84.15 213.82 84.52 213.64 84.94C213.46 85.34 213.37 85.78 213.37 86.26ZM220.21 78.61H225.67V94H220.21V92.29C219.05 93.75 217.48 94.48 215.5 94.48C214.38 94.48 213.35 94.28 212.41 93.88C211.47 93.46 210.65 92.88 209.95 92.14C209.25 91.4 208.7 90.53 208.3 89.53C207.92 88.53 207.73 87.44 207.73 86.26C207.73 85.16 207.92 84.12 208.3 83.14C208.68 82.14 209.21 81.27 209.89 80.53C210.57 79.79 211.38 79.21 212.32 78.79C213.26 78.35 214.3 78.13 215.44 78.13C217.36 78.13 218.95 78.8 220.21 80.14V78.61ZM242.175 86.23C242.175 86.75 242.265 87.23 242.445 87.67C242.645 88.09 242.895 88.46 243.195 88.78C243.515 89.1 243.885 89.35 244.305 89.53C244.745 89.71 245.205 89.8 245.685 89.8C246.165 89.8 246.615 89.71 247.035 89.53C247.475 89.35 247.855 89.1 248.175 88.78C248.495 88.46 248.745 88.09 248.925 87.67C249.105 87.23 249.195 86.76 249.195 86.26C249.195 85.78 249.095 85.33 248.895 84.91C248.715 84.47 248.465 84.09 248.145 83.77C247.845 83.45 247.475 83.2 247.035 83.02C246.615 82.84 246.165 82.75 245.685 82.75C245.205 82.75 244.745 82.84 244.305 83.02C243.885 83.2 243.515 83.45 243.195 83.77C242.895 84.09 242.645 84.46 242.445 84.88C242.265 85.3 242.175 85.75 242.175 86.23ZM234.195 94H228.765V78.61H234.195V83.92H236.745C237.005 83.04 237.415 82.24 237.975 81.52C238.535 80.78 239.205 80.16 239.985 79.66C240.765 79.14 241.635 78.74 242.595 78.46C243.575 78.18 244.605 78.04 245.685 78.04C247.025 78.04 248.265 78.25 249.405 78.67C250.545 79.09 251.525 79.67 252.345 80.41C253.165 81.15 253.805 82.03 254.265 83.05C254.725 84.05 254.955 85.14 254.955 86.32C254.955 87.54 254.715 88.66 254.235 89.68C253.775 90.68 253.135 91.55 252.315 92.29C251.495 93.01 250.505 93.57 249.345 93.97C248.205 94.37 246.965 94.57 245.625 94.57C244.505 94.57 243.445 94.42 242.445 94.12C241.465 93.84 240.585 93.43 239.805 92.89C239.025 92.35 238.365 91.7 237.825 90.94C237.285 90.18 236.905 89.33 236.685 88.39H234.195V94ZM34.23 108.14H30.63V119H25.2V108.14H21.6V103.61H34.23V108.14ZM41.6388 116.9L34.1988 103.61H40.4988L44.6088 111.5L48.5988 103.61H54.8388L42.4788 126.68H36.3888L41.6388 116.9ZM66.8735 108.59C65.9335 107.95 64.9835 107.63 64.0235 107.63C63.5035 107.63 63.0135 107.72 62.5535 107.9C62.1135 108.08 61.7235 108.34 61.3835 108.68C61.0435 109 60.7735 109.39 60.5735 109.85C60.3935 110.29 60.3035 110.79 60.3035 111.35C60.3035 111.89 60.3935 112.39 60.5735 112.85C60.7735 113.29 61.0335 113.68 61.3535 114.02C61.6935 114.34 62.0935 114.59 62.5535 114.77C63.0135 114.95 63.5035 115.04 64.0235 115.04C65.0435 115.04 65.9935 114.69 66.8735 113.99V118.61C65.5335 119.19 64.2635 119.48 63.0635 119.48C61.9435 119.48 60.8735 119.29 59.8535 118.91C58.8535 118.53 57.9635 117.99 57.1835 117.29C56.4235 116.57 55.8135 115.72 55.3535 114.74C54.8935 113.74 54.6635 112.63 54.6635 111.41C54.6635 110.19 54.8835 109.08 55.3235 108.08C55.7635 107.06 56.3635 106.19 57.1235 105.47C57.8835 104.73 58.7835 104.16 59.8235 103.76C60.8835 103.34 62.0135 103.13 63.2135 103.13C64.5335 103.13 65.7535 103.41 66.8735 103.97V108.59ZM74.4105 111.26C74.4105 111.76 74.5005 112.23 74.6805 112.67C74.8605 113.09 75.1005 113.46 75.4005 113.78C75.7205 114.1 76.0905 114.35 76.5105 114.53C76.9505 114.71 77.4205 114.8 77.9205 114.8C78.4005 114.8 78.8505 114.71 79.2705 114.53C79.7105 114.35 80.0805 114.1 80.3805 113.78C80.7005 113.46 80.9505 113.09 81.1305 112.67C81.3305 112.25 81.4305 111.8 81.4305 111.32C81.4305 110.84 81.3305 110.39 81.1305 109.97C80.9505 109.53 80.7005 109.15 80.3805 108.83C80.0805 108.51 79.7105 108.26 79.2705 108.08C78.8505 107.9 78.4005 107.81 77.9205 107.81C77.4205 107.81 76.9505 107.9 76.5105 108.08C76.0905 108.26 75.7205 108.51 75.4005 108.83C75.1005 109.15 74.8605 109.52 74.6805 109.94C74.5005 110.34 74.4105 110.78 74.4105 111.26ZM81.2505 103.61H86.7105V119H81.2505V117.29C80.0905 118.75 78.5205 119.48 76.5405 119.48C75.4205 119.48 74.3905 119.28 73.4505 118.88C72.5105 118.46 71.6905 117.88 70.9905 117.14C70.2905 116.4 69.7405 115.53 69.3405 114.53C68.9605 113.53 68.7705 112.44 68.7705 111.26C68.7705 110.16 68.9605 109.12 69.3405 108.14C69.7205 107.14 70.2505 106.27 70.9305 105.53C71.6105 104.79 72.4205 104.21 73.3605 103.79C74.3005 103.35 75.3405 103.13 76.4805 103.13C78.4005 103.13 79.9905 103.8 81.2505 105.14V103.61ZM91.4857 113.27H96.5857L91.0657 123.2H87.5857L91.4857 113.27ZM114.036 111.26C114.036 111.76 114.126 112.23 114.306 112.67C114.486 113.09 114.726 113.46 115.026 113.78C115.346 114.1 115.716 114.35 116.136 114.53C116.576 114.71 117.046 114.8 117.546 114.8C118.026 114.8 118.476 114.71 118.896 114.53C119.336 114.35 119.706 114.1 120.006 113.78C120.326 113.46 120.576 113.09 120.756 112.67C120.956 112.25 121.056 111.8 121.056 111.32C121.056 110.84 120.956 110.39 120.756 109.97C120.576 109.53 120.326 109.15 120.006 108.83C119.706 108.51 119.336 108.26 118.896 108.08C118.476 107.9 118.026 107.81 117.546 107.81C117.046 107.81 116.576 107.9 116.136 108.08C115.716 108.26 115.346 108.51 115.026 108.83C114.726 109.15 114.486 109.52 114.306 109.94C114.126 110.34 114.036 110.78 114.036 111.26ZM120.876 103.61H126.336V119H120.876V117.29C119.716 118.75 118.146 119.48 116.166 119.48C115.046 119.48 114.016 119.28 113.076 118.88C112.136 118.46 111.316 117.88 110.616 117.14C109.916 116.4 109.366 115.53 108.966 114.53C108.586 113.53 108.396 112.44 108.396 111.26C108.396 110.16 108.586 109.12 108.966 108.14C109.346 107.14 109.876 106.27 110.556 105.53C111.236 104.79 112.046 104.21 112.986 103.79C113.926 103.35 114.966 103.13 116.106 103.13C118.026 103.13 119.616 103.8 120.876 105.14V103.61ZM150.397 108.14H146.797V119H141.367V108.14H137.767V103.61H150.397V108.14ZM157.356 111.23C157.356 111.75 157.446 112.23 157.626 112.67C157.826 113.09 158.076 113.46 158.376 113.78C158.696 114.1 159.066 114.35 159.486 114.53C159.926 114.71 160.386 114.8 160.866 114.8C161.346 114.8 161.796 114.71 162.216 114.53C162.656 114.35 163.026 114.1 163.326 113.78C163.646 113.46 163.896 113.09 164.076 112.67C164.276 112.23 164.376 111.76 164.376 111.26C164.376 110.78 164.276 110.33 164.076 109.91C163.896 109.47 163.646 109.09 163.326 108.77C163.026 108.45 162.656 108.2 162.216 108.02C161.796 107.84 161.346 107.75 160.866 107.75C160.386 107.75 159.926 107.84 159.486 108.02C159.066 108.2 158.696 108.45 158.376 108.77C158.076 109.09 157.826 109.46 157.626 109.88C157.446 110.3 157.356 110.75 157.356 111.23ZM151.626 111.17C151.626 110.03 151.856 108.97 152.316 107.99C152.776 106.99 153.416 106.13 154.236 105.41C155.056 104.67 156.026 104.09 157.146 103.67C158.286 103.25 159.526 103.04 160.866 103.04C162.186 103.04 163.406 103.25 164.526 103.67C165.666 104.07 166.646 104.64 167.466 105.38C168.306 106.1 168.956 106.97 169.416 107.99C169.876 108.99 170.106 110.1 170.106 111.32C170.106 112.54 169.866 113.66 169.386 114.68C168.926 115.68 168.286 116.55 167.466 117.29C166.646 118.01 165.656 118.57 164.496 118.97C163.356 119.37 162.116 119.57 160.776 119.57C159.456 119.57 158.236 119.37 157.116 118.97C155.996 118.57 155.026 118 154.206 117.26C153.406 116.52 152.776 115.64 152.316 114.62C151.856 113.58 151.626 112.43 151.626 111.17ZM190.267 115.22C190.687 115.22 191.007 115.1 191.227 114.86C191.447 114.62 191.557 114.3 191.557 113.9C191.557 113.04 191.127 112.61 190.267 112.61H187.297V115.22H190.267ZM189.877 109.55C190.457 109.55 190.747 109.18 190.747 108.44C190.747 107.7 190.457 107.33 189.877 107.33H187.297V109.55H189.877ZM182.227 103.61H190.387C191.907 103.61 193.057 103.96 193.837 104.66C194.637 105.34 195.037 106.33 195.037 107.63C195.037 108.39 194.917 109.01 194.677 109.49C194.437 109.97 194.027 110.38 193.447 110.72C195.547 111.14 196.597 112.41 196.597 114.53C196.597 115.95 196.057 117.05 194.977 117.83C193.917 118.61 192.447 119 190.567 119H182.227V103.61ZM203.866 111.23C203.866 111.75 203.956 112.23 204.136 112.67C204.336 113.09 204.586 113.46 204.886 113.78C205.206 114.1 205.576 114.35 205.996 114.53C206.436 114.71 206.896 114.8 207.376 114.8C207.856 114.8 208.306 114.71 208.726 114.53C209.166 114.35 209.536 114.1 209.836 113.78C210.156 113.46 210.406 113.09 210.586 112.67C210.786 112.23 210.886 111.76 210.886 111.26C210.886 110.78 210.786 110.33 210.586 109.91C210.406 109.47 210.156 109.09 209.836 108.77C209.536 108.45 209.166 108.2 208.726 108.02C208.306 107.84 207.856 107.75 207.376 107.75C206.896 107.75 206.436 107.84 205.996 108.02C205.576 108.2 205.206 108.45 204.886 108.77C204.586 109.09 204.336 109.46 204.136 109.88C203.956 110.3 203.866 110.75 203.866 111.23ZM198.136 111.17C198.136 110.03 198.366 108.97 198.826 107.99C199.286 106.99 199.926 106.13 200.746 105.41C201.566 104.67 202.536 104.09 203.656 103.67C204.796 103.25 206.036 103.04 207.376 103.04C208.696 103.04 209.916 103.25 211.036 103.67C212.176 104.07 213.156 104.64 213.976 105.38C214.816 106.1 215.466 106.97 215.926 107.99C216.386 108.99 216.616 110.1 216.616 111.32C216.616 112.54 216.376 113.66 215.896 114.68C215.436 115.68 214.796 116.55 213.976 117.29C213.156 118.01 212.166 118.57 211.006 118.97C209.866 119.37 208.626 119.57 207.286 119.57C205.966 119.57 204.746 119.37 203.626 118.97C202.506 118.57 201.536 118 200.716 117.26C199.916 116.52 199.286 115.64 198.826 114.62C198.366 113.58 198.136 112.43 198.136 111.17ZM224.572 103.61V112.22L231.022 103.61H236.452V119H231.022V110.42L224.542 119H219.142V103.61H224.572ZM233.662 95.45C233.482 99.23 231.512 101.12 227.752 101.12C223.972 101.12 221.992 99.23 221.812 95.45H225.292C225.492 97.09 226.312 97.91 227.752 97.91C229.152 97.91 229.972 97.09 230.212 95.45H233.662ZM250.527 108.92V103.61H255.957V119H250.527V113.39H245.007V119H239.577V103.61H245.007V108.92H250.527ZM280.945 103.61V119H275.515V103.61H280.945ZM264.445 115.1H266.545C267.625 115.1 268.165 114.59 268.165 113.57C268.165 112.59 267.625 112.1 266.545 112.1H264.445V115.1ZM264.445 103.61V108.17H267.625C269.465 108.17 270.865 108.6 271.825 109.46C272.785 110.3 273.265 111.53 273.265 113.15C273.265 114.03 273.135 114.83 272.875 115.55C272.615 116.25 272.225 116.86 271.705 117.38C271.205 117.9 270.585 118.3 269.845 118.58C269.105 118.86 268.245 119 267.265 119H259.015V103.61H264.445ZM33.81 133.92V128.61H39.24V144H33.81V138.39H28.29V144H22.86V128.61H28.29V133.92H33.81ZM47.3977 136.26C47.3977 136.76 47.4877 137.23 47.6677 137.67C47.8477 138.09 48.0877 138.46 48.3877 138.78C48.7077 139.1 49.0777 139.35 49.4977 139.53C49.9377 139.71 50.4077 139.8 50.9077 139.8C51.3877 139.8 51.8377 139.71 52.2577 139.53C52.6977 139.35 53.0677 139.1 53.3677 138.78C53.6877 138.46 53.9377 138.09 54.1177 137.67C54.3177 137.25 54.4177 136.8 54.4177 136.32C54.4177 135.84 54.3177 135.39 54.1177 134.97C53.9377 134.53 53.6877 134.15 53.3677 133.83C53.0677 133.51 52.6977 133.26 52.2577 133.08C51.8377 132.9 51.3877 132.81 50.9077 132.81C50.4077 132.81 49.9377 132.9 49.4977 133.08C49.0777 133.26 48.7077 133.51 48.3877 133.83C48.0877 134.15 47.8477 134.52 47.6677 134.94C47.4877 135.34 47.3977 135.78 47.3977 136.26ZM54.2377 128.61H59.6977V144H54.2377V142.29C53.0777 143.75 51.5077 144.48 49.5277 144.48C48.4077 144.48 47.3777 144.28 46.4377 143.88C45.4977 143.46 44.6777 142.88 43.9777 142.14C43.2777 141.4 42.7277 140.53 42.3277 139.53C41.9477 138.53 41.7577 137.44 41.7577 136.26C41.7577 135.16 41.9477 134.12 42.3277 133.14C42.7077 132.14 43.2377 131.27 43.9177 130.53C44.5977 129.79 45.4077 129.21 46.3477 128.79C47.2877 128.35 48.3277 128.13 49.4677 128.13C51.3877 128.13 52.9777 128.8 54.2377 130.14V128.61ZM74.2528 133.14H70.1428V137.76C70.1428 138.16 70.1328 138.48 70.1128 138.72C70.0928 138.96 70.0628 139.21 70.0228 139.47H74.2528V133.14ZM63.2728 139.47C63.8128 139.47 64.1828 139.29 64.3828 138.93C64.5828 138.57 64.6828 138.01 64.6828 137.25V128.61H79.6828V139.47H81.5128V147.15H76.0828V144H67.9528V147.15H62.5228V139.47H63.2728ZM89.149 136.23C89.149 136.75 89.239 137.23 89.419 137.67C89.619 138.09 89.869 138.46 90.169 138.78C90.489 139.1 90.859 139.35 91.279 139.53C91.719 139.71 92.179 139.8 92.659 139.8C93.139 139.8 93.589 139.71 94.009 139.53C94.449 139.35 94.819 139.1 95.119 138.78C95.439 138.46 95.689 138.09 95.869 137.67C96.069 137.23 96.169 136.76 96.169 136.26C96.169 135.78 96.069 135.33 95.869 134.91C95.689 134.47 95.439 134.09 95.119 133.77C94.819 133.45 94.449 133.2 94.009 133.02C93.589 132.84 93.139 132.75 92.659 132.75C92.179 132.75 91.719 132.84 91.279 133.02C90.859 133.2 90.489 133.45 90.169 133.77C89.869 134.09 89.619 134.46 89.419 134.88C89.239 135.3 89.149 135.75 89.149 136.23ZM83.419 136.17C83.419 135.03 83.649 133.97 84.109 132.99C84.569 131.99 85.209 131.13 86.029 130.41C86.849 129.67 87.819 129.09 88.939 128.67C90.079 128.25 91.319 128.04 92.659 128.04C93.979 128.04 95.199 128.25 96.319 128.67C97.459 129.07 98.439 129.64 99.259 130.38C100.099 131.1 100.749 131.97 101.209 132.99C101.669 133.99 101.899 135.1 101.899 136.32C101.899 137.54 101.659 138.66 101.179 139.68C100.719 140.68 100.079 141.55 99.259 142.29C98.439 143.01 97.449 143.57 96.289 143.97C95.149 144.37 93.909 144.57 92.569 144.57C91.249 144.57 90.029 144.37 88.909 143.97C87.789 143.57 86.819 143 85.999 142.26C85.199 141.52 84.569 140.64 84.109 139.62C83.649 138.58 83.419 137.43 83.419 136.17ZM115.675 134.07C115.495 133.31 115.125 132.7 114.565 132.24C114.005 131.78 113.325 131.55 112.525 131.55C111.685 131.55 110.995 131.77 110.455 132.21C109.935 132.65 109.605 133.27 109.465 134.07H115.675ZM109.315 137.22C109.315 139.56 110.415 140.73 112.615 140.73C113.795 140.73 114.685 140.25 115.285 139.29H120.535C119.475 142.81 116.825 144.57 112.585 144.57C111.285 144.57 110.095 144.38 109.015 144C107.935 143.6 107.005 143.04 106.225 142.32C105.465 141.6 104.875 140.74 104.455 139.74C104.035 138.74 103.825 137.62 103.825 136.38C103.825 135.1 104.025 133.95 104.425 132.93C104.825 131.89 105.395 131.01 106.135 130.29C106.875 129.57 107.765 129.02 108.805 128.64C109.865 128.24 111.055 128.04 112.375 128.04C113.675 128.04 114.845 128.24 115.885 128.64C116.925 129.02 117.805 129.58 118.525 130.32C119.245 131.06 119.795 131.97 120.175 133.05C120.555 134.11 120.745 135.31 120.745 136.65V137.22H109.315ZM122.529 139.53C122.589 139.55 122.679 139.56 122.799 139.56C123.059 139.56 123.289 139.54 123.489 139.5C123.689 139.46 123.849 139.38 123.969 139.26C124.089 139.12 124.179 138.92 124.239 138.66C124.299 138.4 124.329 138.06 124.329 137.64V128.61H139.329V144H133.899V133.14H129.759V138.24C129.759 139.34 129.589 140.29 129.249 141.09C128.929 141.89 128.479 142.55 127.899 143.07C127.319 143.59 126.609 143.97 125.769 144.21C124.949 144.47 124.049 144.6 123.069 144.6H122.529V139.53ZM147.883 128.61V137.22L154.333 128.61H159.763V144H154.333V135.42L147.853 144H142.453V128.61H147.883ZM178.064 141.9L170.624 128.61H176.924L181.034 136.5L185.024 128.61H191.264L178.904 151.68H172.814L178.064 141.9ZM212.848 128.61H218.668L212.248 135.99L219.448 144H213.298L207.928 137.76V144H202.498V137.76L197.068 144H190.918L198.148 135.99L191.728 128.61H197.548L202.498 134.91V128.61H207.928V134.91L212.848 128.61ZM232.192 134.07C232.012 133.31 231.642 132.7 231.082 132.24C230.522 131.78 229.842 131.55 229.042 131.55C228.202 131.55 227.512 131.77 226.972 132.21C226.452 132.65 226.122 133.27 225.982 134.07H232.192ZM225.832 137.22C225.832 139.56 226.932 140.73 229.132 140.73C230.312 140.73 231.202 140.25 231.802 139.29H237.052C235.992 142.81 233.342 144.57 229.102 144.57C227.802 144.57 226.612 144.38 225.532 144C224.452 143.6 223.522 143.04 222.742 142.32C221.982 141.6 221.392 140.74 220.972 139.74C220.552 138.74 220.342 137.62 220.342 136.38C220.342 135.1 220.542 133.95 220.942 132.93C221.342 131.89 221.912 131.01 222.652 130.29C223.392 129.57 224.282 129.02 225.322 128.64C226.382 128.24 227.572 128.04 228.892 128.04C230.192 128.04 231.362 128.24 232.402 128.64C233.442 129.02 234.322 129.58 235.042 130.32C235.762 131.06 236.312 131.97 236.692 133.05C237.072 134.11 237.262 135.31 237.262 136.65V137.22H225.832Z" fill="white"/>
<path d="M166.4 188.18C165.548 188.18 164.786 188.006 164.114 187.658C163.454 187.31 162.932 186.77 162.548 186.038C162.176 185.306 161.99 184.37 161.99 183.23C161.99 182.042 162.188 181.076 162.584 180.332C162.98 179.588 163.514 179.042 164.186 178.694C164.87 178.346 165.644 178.172 166.508 178.172C167 178.172 167.474 178.226 167.93 178.334C168.386 178.43 168.758 178.55 169.046 178.694L168.56 180.008C168.272 179.9 167.936 179.798 167.552 179.702C167.168 179.606 166.808 179.558 166.472 179.558C164.576 179.558 163.628 180.776 163.628 183.212C163.628 184.376 163.856 185.27 164.312 185.894C164.78 186.506 165.47 186.812 166.382 186.812C166.91 186.812 167.372 186.758 167.768 186.65C168.176 186.542 168.548 186.41 168.884 186.254V187.658C168.56 187.826 168.2 187.952 167.804 188.036C167.42 188.132 166.952 188.18 166.4 188.18ZM179.206 183.158C179.206 184.754 178.798 185.99 177.982 186.866C177.178 187.742 176.086 188.18 174.706 188.18C173.854 188.18 173.092 187.988 172.42 187.604C171.76 187.208 171.238 186.638 170.854 185.894C170.47 185.138 170.278 184.226 170.278 183.158C170.278 181.562 170.68 180.332 171.484 179.468C172.288 178.604 173.38 178.172 174.76 178.172C175.636 178.172 176.404 178.37 177.064 178.766C177.736 179.15 178.258 179.714 178.63 180.458C179.014 181.19 179.206 182.09 179.206 183.158ZM171.916 183.158C171.916 184.298 172.138 185.204 172.582 185.876C173.038 186.536 173.758 186.866 174.742 186.866C175.714 186.866 176.428 186.536 176.884 185.876C177.34 185.204 177.568 184.298 177.568 183.158C177.568 182.018 177.34 181.124 176.884 180.476C176.428 179.828 175.708 179.504 174.724 179.504C173.74 179.504 173.026 179.828 172.582 180.476C172.138 181.124 171.916 182.018 171.916 183.158ZM188.701 188H187.099V179.666H184.255C184.099 181.694 183.883 183.332 183.607 184.58C183.331 185.816 182.965 186.716 182.509 187.28C182.053 187.844 181.477 188.126 180.781 188.126C180.625 188.126 180.469 188.114 180.313 188.09C180.169 188.078 180.049 188.048 179.953 188V186.812C180.025 186.836 180.103 186.854 180.187 186.866C180.271 186.878 180.355 186.884 180.439 186.884C181.087 186.884 181.603 186.194 181.987 184.814C182.383 183.434 182.683 181.28 182.887 178.352H188.701V188ZM195.057 178.19C196.233 178.19 197.103 178.448 197.667 178.964C198.231 179.48 198.513 180.302 198.513 181.43V188H197.361L197.055 186.632H196.983C196.563 187.16 196.119 187.55 195.651 187.802C195.195 188.054 194.559 188.18 193.743 188.18C192.867 188.18 192.141 187.952 191.565 187.496C190.989 187.028 190.701 186.302 190.701 185.318C190.701 184.358 191.079 183.62 191.835 183.104C192.591 182.576 193.755 182.288 195.327 182.24L196.965 182.186V181.61C196.965 180.806 196.791 180.248 196.443 179.936C196.095 179.624 195.603 179.468 194.967 179.468C194.463 179.468 193.983 179.546 193.527 179.702C193.071 179.846 192.645 180.014 192.249 180.206L191.763 179.018C192.183 178.79 192.681 178.598 193.257 178.442C193.833 178.274 194.433 178.19 195.057 178.19ZM195.525 183.338C194.325 183.386 193.491 183.578 193.023 183.914C192.567 184.25 192.339 184.724 192.339 185.336C192.339 185.876 192.501 186.272 192.825 186.524C193.161 186.776 193.587 186.902 194.103 186.902C194.919 186.902 195.597 186.68 196.137 186.236C196.677 185.78 196.947 185.084 196.947 184.148V183.284L195.525 183.338ZM208.297 178.352V186.668H209.701V191.348H208.171V188H201.457V191.348H199.945V186.668H200.719C201.547 185.528 202.165 184.232 202.573 182.78C202.993 181.316 203.209 179.84 203.221 178.352H208.297ZM204.625 179.594C204.577 180.41 204.451 181.256 204.247 182.132C204.043 182.996 203.779 183.824 203.455 184.616C203.143 185.408 202.777 186.092 202.357 186.668H206.767V179.594H204.625ZM214.886 178.19C216.062 178.19 216.932 178.448 217.496 178.964C218.06 179.48 218.342 180.302 218.342 181.43V188H217.19L216.884 186.632H216.812C216.392 187.16 215.948 187.55 215.48 187.802C215.024 188.054 214.388 188.18 213.572 188.18C212.696 188.18 211.97 187.952 211.394 187.496C210.818 187.028 210.53 186.302 210.53 185.318C210.53 184.358 210.908 183.62 211.664 183.104C212.42 182.576 213.584 182.288 215.156 182.24L216.794 182.186V181.61C216.794 180.806 216.62 180.248 216.272 179.936C215.924 179.624 215.432 179.468 214.796 179.468C214.292 179.468 213.812 179.546 213.356 179.702C212.9 179.846 212.474 180.014 212.078 180.206L211.592 179.018C212.012 178.79 212.51 178.598 213.086 178.442C213.662 178.274 214.262 178.19 214.886 178.19ZM215.354 183.338C214.154 183.386 213.32 183.578 212.852 183.914C212.396 184.25 212.168 184.724 212.168 185.336C212.168 185.876 212.33 186.272 212.654 186.524C212.99 186.776 213.416 186.902 213.932 186.902C214.748 186.902 215.426 186.68 215.966 186.236C216.506 185.78 216.776 185.084 216.776 184.148V183.284L215.354 183.338ZM227.622 179.684H224.472V188H222.906V179.684H219.792V178.352H227.622V179.684ZM238.786 181.127C238.786 178.965 239.29 177.239 240.298 175.95C241.2 174.784 242.293 174.201 243.576 174.201C244.86 174.201 245.952 174.784 246.855 175.95C247.863 177.239 248.366 178.994 248.366 181.215C248.366 183.43 247.863 185.182 246.855 186.471C245.952 187.637 244.863 188.22 243.585 188.22C242.308 188.22 241.212 187.637 240.298 186.471C239.29 185.182 238.786 183.4 238.786 181.127ZM240.799 181.136C240.799 182.642 241.06 183.893 241.581 184.889C242.103 185.867 242.768 186.356 243.576 186.356C244.379 186.356 245.044 185.867 245.572 184.889C246.099 183.916 246.363 182.688 246.363 181.206C246.363 179.724 246.099 178.493 245.572 177.515C245.044 176.542 244.379 176.056 243.576 176.056C242.78 176.056 242.117 176.542 241.59 177.515C241.063 178.481 240.799 179.688 240.799 181.136ZM249.536 181.127C249.536 178.965 250.04 177.239 251.047 175.95C251.95 174.784 253.043 174.201 254.326 174.201C255.609 174.201 256.702 174.784 257.604 175.95C258.612 177.239 259.116 178.994 259.116 181.215C259.116 183.43 258.612 185.182 257.604 186.471C256.702 187.637 255.612 188.22 254.335 188.22C253.057 188.22 251.962 187.637 251.047 186.471C250.04 185.182 249.536 183.4 249.536 181.127ZM251.548 181.136C251.548 182.642 251.809 183.893 252.331 184.889C252.852 185.867 253.517 186.356 254.326 186.356C255.129 186.356 255.794 185.867 256.321 184.889C256.848 183.916 257.112 182.688 257.112 181.206C257.112 179.724 256.848 178.493 256.321 177.515C255.794 176.542 255.129 176.056 254.326 176.056C253.529 176.056 252.867 176.542 252.339 177.515C251.812 178.481 251.548 179.688 251.548 181.136ZM263.563 188.466L262.061 187.35L265.304 182.929C265.128 182.952 264.978 182.97 264.855 182.981C264.732 182.993 264.633 182.999 264.557 182.999C263.461 182.999 262.512 182.58 261.709 181.742C260.912 180.91 260.514 179.908 260.514 178.736C260.514 177.488 260.956 176.422 261.841 175.537C262.731 174.646 263.798 174.201 265.04 174.201C266.276 174.201 267.352 174.641 268.266 175.52C269.18 176.393 269.637 177.424 269.637 178.613C269.637 179.668 269.191 180.808 268.301 182.032L263.563 188.466ZM262.509 178.587C262.509 179.319 262.758 179.935 263.256 180.433C263.76 180.937 264.366 181.188 265.075 181.188C265.784 181.188 266.388 180.939 266.886 180.441C267.39 179.938 267.642 179.331 267.642 178.622C267.642 177.913 267.39 177.307 266.886 176.803C266.388 176.305 265.781 176.056 265.066 176.056C264.363 176.056 263.763 176.305 263.265 176.803C262.761 177.307 262.509 177.901 262.509 178.587ZM273.399 180.942C272.403 180.239 271.905 179.281 271.905 178.068C271.905 176.967 272.283 176.047 273.038 175.309C273.8 174.57 274.746 174.201 275.877 174.201C277.002 174.201 277.94 174.57 278.69 175.309C279.44 176.041 279.815 176.964 279.815 178.077C279.815 179.243 279.32 180.195 278.329 180.934C278.874 181.227 279.302 181.654 279.613 182.217C279.929 182.779 280.087 183.412 280.087 184.115C280.087 185.316 279.695 186.301 278.909 187.068C278.124 187.836 277.119 188.22 275.895 188.22C274.641 188.22 273.607 187.833 272.792 187.06C271.972 186.286 271.562 185.313 271.562 184.142C271.562 182.618 272.174 181.552 273.399 180.942ZM273.829 178.06C273.829 178.64 274.026 179.126 274.418 179.519C274.817 179.917 275.297 180.116 275.86 180.116C276.416 180.116 276.894 179.917 277.292 179.519C277.691 179.12 277.89 178.643 277.89 178.086C277.89 177.529 277.691 177.052 277.292 176.653C276.894 176.255 276.416 176.056 275.86 176.056C275.303 176.056 274.826 176.255 274.427 176.653C274.029 177.052 273.829 177.521 273.829 178.06ZM273.575 184.071C273.575 184.698 273.791 185.237 274.225 185.688C274.664 186.134 275.198 186.356 275.825 186.356C276.446 186.356 276.976 186.137 277.415 185.697C277.855 185.252 278.075 184.719 278.075 184.098C278.075 183.471 277.855 182.938 277.415 182.498C276.976 182.059 276.446 181.839 275.825 181.839C275.209 181.839 274.679 182.059 274.234 182.498C273.794 182.938 273.575 183.462 273.575 184.071Z" fill="white"/>
<defs>
<filter id="filter0_b" x="-100" y="-100" width="505" height="435.962" filterUnits="userSpaceOnUse" color-interpolation-filters="sRGB">
<feFlood flood-opacity="0" result="BackgroundImageFix"/>
<feGaussianBlur in="BackgroundImage" stdDeviation="50"/>
<feComposite in2="SourceAlpha" operator="in" result="effect1_backgroundBlur"/>
<feBlend mode="normal" in="SourceGraphic" in2="effect1_backgroundBlur" result="shape"/>
</filter>
</defs>
</svg>
