<svg width="305" height="236" viewBox="0 0 305 236" fill="none" xmlns="http://www.w3.org/2000/svg">
<g filter="url(#filter0_b)">
<mask id="path-1-inside-1" fill="white">
<path fill-rule="evenodd" clip-rule="evenodd" d="M305 50C305 22.3858 282.614 0 255 0H50C22.3858 0 0 22.3857 0 50V160.433C0 188.047 22.3857 210.433 50 210.433H199.843C208.268 210.433 215.882 215.454 219.201 223.198V223.198C226.495 240.217 250.623 240.217 257.917 223.198V223.198C261.236 215.454 268.851 210.433 277.276 210.433H279.923C293.773 210.433 305 199.206 305 185.356V50Z"/>
</mask>
<path fill-rule="evenodd" clip-rule="evenodd" d="M305 50C305 22.3858 282.614 0 255 0H50C22.3858 0 0 22.3857 0 50V160.433C0 188.047 22.3857 210.433 50 210.433H199.843C208.268 210.433 215.882 215.454 219.201 223.198V223.198C226.495 240.217 250.623 240.217 257.917 223.198V223.198C261.236 215.454 268.851 210.433 277.276 210.433H279.923C293.773 210.433 305 199.206 305 185.356V50Z" fill="#B1B9FF"/>
<path d="M50 5H255V-5H50V5ZM5 160.433V50H-5V160.433H5ZM199.843 205.433H50V215.433H199.843V205.433ZM279.923 205.433H277.276V215.433H279.923V205.433ZM300 50V185.356H310V50H300ZM279.923 215.433C296.534 215.433 310 201.967 310 185.356H300C300 196.444 291.011 205.433 279.923 205.433V215.433ZM262.513 225.167C265.044 219.262 270.851 215.433 277.276 215.433V205.433C266.85 205.433 257.428 211.646 253.322 221.228L262.513 225.167ZM214.605 225.167C223.631 246.227 253.487 246.227 262.513 225.167L253.322 221.228C247.759 234.207 229.359 234.207 223.797 221.228L214.605 225.167ZM199.843 215.433C206.268 215.433 212.074 219.262 214.605 225.167L223.797 221.228C219.69 211.646 210.268 205.433 199.843 205.433V215.433ZM-5 160.433C-5 190.809 19.6243 215.433 50 215.433V205.433C25.1472 205.433 5 185.286 5 160.433H-5ZM255 5C279.853 5 300 25.1472 300 50H310C310 19.6243 285.376 -5 255 -5V5ZM50 -5C19.6243 -5 -5 19.6243 -5 50H5C5 25.1472 25.1472 5 50 5V-5Z" fill="white" mask="url(#path-1-inside-1)"/>
</g>
<path d="M27.9 61.26C27.9 61.76 27.99 62.23 28.17 62.67C28.35 63.09 28.59 63.46 28.89 63.78C29.21 64.1 29.58 64.35 30 64.53C30.44 64.71 30.91 64.8 31.41 64.8C31.89 64.8 32.34 64.71 32.76 64.53C33.2 64.35 33.57 64.1 33.87 63.78C34.19 63.46 34.44 63.09 34.62 62.67C34.82 62.25 34.92 61.8 34.92 61.32C34.92 60.84 34.82 60.39 34.62 59.97C34.44 59.53 34.19 59.15 33.87 58.83C33.57 58.51 33.2 58.26 32.76 58.08C32.34 57.9 31.89 57.81 31.41 57.81C30.91 57.81 30.44 57.9 30 58.08C29.58 58.26 29.21 58.51 28.89 58.83C28.59 59.15 28.35 59.52 28.17 59.94C27.99 60.34 27.9 60.78 27.9 61.26ZM34.74 53.61H40.2V69H34.74V67.29C33.58 68.75 32.01 69.48 30.03 69.48C28.91 69.48 27.88 69.28 26.94 68.88C26 68.46 25.18 67.88 24.48 67.14C23.78 66.4 23.23 65.53 22.83 64.53C22.45 63.53 22.26 62.44 22.26 61.26C22.26 60.16 22.45 59.12 22.83 58.14C23.21 57.14 23.74 56.27 24.42 55.53C25.1 54.79 25.91 54.21 26.85 53.79C27.79 53.35 28.83 53.13 29.97 53.13C31.89 53.13 33.48 53.8 34.74 55.14V53.61ZM43.2952 69V53.61H52.9252V58.14H48.6952V69H43.2952ZM59.8348 61.26C59.8348 61.76 59.9248 62.23 60.1048 62.67C60.2848 63.09 60.5248 63.46 60.8248 63.78C61.1448 64.1 61.5148 64.35 61.9348 64.53C62.3748 64.71 62.8448 64.8 63.3448 64.8C63.8248 64.8 64.2748 64.71 64.6948 64.53C65.1348 64.35 65.5048 64.1 65.8048 63.78C66.1248 63.46 66.3748 63.09 66.5548 62.67C66.7548 62.25 66.8548 61.8 66.8548 61.32C66.8548 60.84 66.7548 60.39 66.5548 59.97C66.3748 59.53 66.1248 59.15 65.8048 58.83C65.5048 58.51 65.1348 58.26 64.6948 58.08C64.2748 57.9 63.8248 57.81 63.3448 57.81C62.8448 57.81 62.3748 57.9 61.9348 58.08C61.5148 58.26 61.1448 58.51 60.8248 58.83C60.5248 59.15 60.2848 59.52 60.1048 59.94C59.9248 60.34 59.8348 60.78 59.8348 61.26ZM66.6748 53.61H72.1348V69H66.6748V67.29C65.5148 68.75 63.9448 69.48 61.9648 69.48C60.8448 69.48 59.8148 69.28 58.8748 68.88C57.9348 68.46 57.1148 67.88 56.4148 67.14C55.7148 66.4 55.1648 65.53 54.7648 64.53C54.3848 63.53 54.1948 62.44 54.1948 61.26C54.1948 60.16 54.3848 59.12 54.7648 58.14C55.1448 57.14 55.6748 56.27 56.3548 55.53C57.0348 54.79 57.8448 54.21 58.7848 53.79C59.7248 53.35 60.7648 53.13 61.9048 53.13C63.8248 53.13 65.4148 53.8 66.6748 55.14V53.61ZM76.9099 63.27H82.0099L76.4899 73.2H73.0099L76.9099 63.27ZM34.23 83.14H30.63V94H25.2V83.14H21.6V78.61H34.23V83.14ZM41.6388 91.9L34.1988 78.61H40.4988L44.6088 86.5L48.5988 78.61H54.8388L42.4788 101.68H36.3888L41.6388 91.9ZM67.4831 83.14H63.8831V94H58.4531V83.14H54.8531V78.61H67.4831V83.14ZM88.1773 90.34C87.8173 90.42 87.4473 90.49 87.0673 90.55C86.7073 90.59 86.3173 90.61 85.8973 90.61C84.5373 90.61 83.3673 90.43 82.3873 90.07C81.4073 89.69 80.6073 89.15 79.9873 88.45C79.3673 87.73 78.9073 86.85 78.6073 85.81C78.3273 84.77 78.1873 83.58 78.1873 82.24V78.61H83.6173V82.42C83.6173 83.2 83.6773 83.84 83.7973 84.34C83.9373 84.82 84.1273 85.19 84.3673 85.45C84.6073 85.71 84.8873 85.89 85.2073 85.99C85.5273 86.07 85.8773 86.11 86.2573 86.11C87.0373 86.11 87.6773 85.86 88.1773 85.36V78.61H93.6073V94H88.1773V90.34ZM108.105 83.14H104.505V94H99.075V83.14H95.475V78.61H108.105V83.14ZM115.064 86.23C115.064 86.75 115.154 87.23 115.334 87.67C115.534 88.09 115.784 88.46 116.084 88.78C116.404 89.1 116.774 89.35 117.194 89.53C117.634 89.71 118.094 89.8 118.574 89.8C119.054 89.8 119.504 89.71 119.924 89.53C120.364 89.35 120.734 89.1 121.034 88.78C121.354 88.46 121.604 88.09 121.784 87.67C121.984 87.23 122.084 86.76 122.084 86.26C122.084 85.78 121.984 85.33 121.784 84.91C121.604 84.47 121.354 84.09 121.034 83.77C120.734 83.45 120.364 83.2 119.924 83.02C119.504 82.84 119.054 82.75 118.574 82.75C118.094 82.75 117.634 82.84 117.194 83.02C116.774 83.2 116.404 83.45 116.084 83.77C115.784 84.09 115.534 84.46 115.334 84.88C115.154 85.3 115.064 85.75 115.064 86.23ZM109.334 86.17C109.334 85.03 109.564 83.97 110.024 82.99C110.484 81.99 111.124 81.13 111.944 80.41C112.764 79.67 113.734 79.09 114.854 78.67C115.994 78.25 117.234 78.04 118.574 78.04C119.894 78.04 121.114 78.25 122.234 78.67C123.374 79.07 124.354 79.64 125.174 80.38C126.014 81.1 126.664 81.97 127.124 82.99C127.584 83.99 127.814 85.1 127.814 86.32C127.814 87.54 127.574 88.66 127.094 89.68C126.634 90.68 125.994 91.55 125.174 92.29C124.354 93.01 123.364 93.57 122.204 93.97C121.064 94.37 119.824 94.57 118.484 94.57C117.164 94.57 115.944 94.37 114.824 93.97C113.704 93.57 112.734 93 111.914 92.26C111.114 91.52 110.484 90.64 110.024 89.62C109.564 88.58 109.334 87.43 109.334 86.17ZM128.48 83.71H137.09V88.24H128.48V83.71ZM149.723 83.14H146.123V94H140.693V83.14H137.093V78.61H149.723V83.14ZM156.682 86.23C156.682 86.75 156.772 87.23 156.952 87.67C157.152 88.09 157.402 88.46 157.702 88.78C158.022 89.1 158.392 89.35 158.812 89.53C159.252 89.71 159.712 89.8 160.192 89.8C160.672 89.8 161.122 89.71 161.542 89.53C161.982 89.35 162.352 89.1 162.652 88.78C162.972 88.46 163.222 88.09 163.402 87.67C163.602 87.23 163.702 86.76 163.702 86.26C163.702 85.78 163.602 85.33 163.402 84.91C163.222 84.47 162.972 84.09 162.652 83.77C162.352 83.45 161.982 83.2 161.542 83.02C161.122 82.84 160.672 82.75 160.192 82.75C159.712 82.75 159.252 82.84 158.812 83.02C158.392 83.2 158.022 83.45 157.702 83.77C157.402 84.09 157.152 84.46 156.952 84.88C156.772 85.3 156.682 85.75 156.682 86.23ZM150.952 86.17C150.952 85.03 151.182 83.97 151.642 82.99C152.102 81.99 152.742 81.13 153.562 80.41C154.382 79.67 155.352 79.09 156.472 78.67C157.612 78.25 158.852 78.04 160.192 78.04C161.512 78.04 162.732 78.25 163.852 78.67C164.992 79.07 165.972 79.64 166.792 80.38C167.632 81.1 168.282 81.97 168.742 82.99C169.202 83.99 169.432 85.1 169.432 86.32C169.432 87.54 169.192 88.66 168.712 89.68C168.252 90.68 167.612 91.55 166.792 92.29C165.972 93.01 164.982 93.57 163.822 93.97C162.682 94.37 161.442 94.57 160.102 94.57C158.782 94.57 157.562 94.37 156.442 93.97C155.322 93.57 154.352 93 153.532 92.26C152.732 91.52 152.102 90.64 151.642 89.62C151.182 88.58 150.952 87.43 150.952 86.17ZM190.133 82.57H188.453C187.933 82.57 187.523 82.72 187.223 83.02C186.923 83.3 186.773 83.69 186.773 84.19C186.773 84.71 186.923 85.12 187.223 85.42C187.523 85.7 187.933 85.84 188.453 85.84H190.133V82.57ZM184.523 88.78C183.643 88.5 182.963 87.95 182.483 87.13C182.003 86.31 181.763 85.3 181.763 84.1C181.763 83.34 181.883 82.63 182.123 81.97C182.383 81.29 182.763 80.71 183.263 80.23C183.763 79.73 184.383 79.34 185.123 79.06C185.863 78.76 186.723 78.61 187.703 78.61H195.563V94H190.133V89.2H189.203L186.563 94H180.833L184.523 88.78ZM206.718 90.22C207.138 90.22 207.458 90.1 207.678 89.86C207.898 89.62 208.008 89.3 208.008 88.9C208.008 88.04 207.578 87.61 206.718 87.61H203.748V90.22H206.718ZM206.328 84.55C206.908 84.55 207.198 84.18 207.198 83.44C207.198 82.7 206.908 82.33 206.328 82.33H203.748V84.55H206.328ZM198.678 78.61H206.838C208.358 78.61 209.508 78.96 210.288 79.66C211.088 80.34 211.488 81.33 211.488 82.63C211.488 83.39 211.368 84.01 211.128 84.49C210.888 84.97 210.478 85.38 209.898 85.72C211.998 86.14 213.048 87.41 213.048 89.53C213.048 90.95 212.508 92.05 211.428 92.83C210.368 93.61 208.898 94 207.018 94H198.678V78.61ZM226.137 83.92V78.61H231.567V94H226.137V88.39H220.617V94H215.187V78.61H220.617V83.92H226.137ZM239.815 86.23C239.815 86.75 239.905 87.23 240.085 87.67C240.285 88.09 240.535 88.46 240.835 88.78C241.155 89.1 241.525 89.35 241.945 89.53C242.385 89.71 242.845 89.8 243.325 89.8C243.805 89.8 244.255 89.71 244.675 89.53C245.115 89.35 245.485 89.1 245.785 88.78C246.105 88.46 246.355 88.09 246.535 87.67C246.735 87.23 246.835 86.76 246.835 86.26C246.835 85.78 246.735 85.33 246.535 84.91C246.355 84.47 246.105 84.09 245.785 83.77C245.485 83.45 245.115 83.2 244.675 83.02C244.255 82.84 243.805 82.75 243.325 82.75C242.845 82.75 242.385 82.84 241.945 83.02C241.525 83.2 241.155 83.45 240.835 83.77C240.535 84.09 240.285 84.46 240.085 84.88C239.905 85.3 239.815 85.75 239.815 86.23ZM234.085 86.17C234.085 85.03 234.315 83.97 234.775 82.99C235.235 81.99 235.875 81.13 236.695 80.41C237.515 79.67 238.485 79.09 239.605 78.67C240.745 78.25 241.985 78.04 243.325 78.04C244.645 78.04 245.865 78.25 246.985 78.67C248.125 79.07 249.105 79.64 249.925 80.38C250.765 81.1 251.415 81.97 251.875 82.99C252.335 83.99 252.565 85.1 252.565 86.32C252.565 87.54 252.325 88.66 251.845 89.68C251.385 90.68 250.745 91.55 249.925 92.29C249.105 93.01 248.115 93.57 246.955 93.97C245.815 94.37 244.575 94.57 243.235 94.57C241.915 94.57 240.695 94.37 239.575 93.97C238.455 93.57 237.485 93 236.665 92.26C235.865 91.52 235.235 90.64 234.775 89.62C234.315 88.58 234.085 87.43 234.085 86.17ZM28.29 103.61V112.22L34.74 103.61H40.17V119H34.74V110.42L28.26 119H22.86V103.61H28.29ZM54.2452 108.92V103.61H59.6752V119H54.2452V113.39H48.7252V119H43.2952V103.61H48.7252V108.92H54.2452ZM74.1628 108.14H70.5628V119H65.1328V108.14H61.5328V103.61H74.1628V108.14ZM87.5639 109.07C87.3839 108.31 87.0139 107.7 86.4539 107.24C85.8939 106.78 85.2139 106.55 84.4139 106.55C83.5739 106.55 82.8839 106.77 82.3439 107.21C81.8239 107.65 81.4939 108.27 81.3539 109.07H87.5639ZM81.2039 112.22C81.2039 114.56 82.3039 115.73 84.5039 115.73C85.6839 115.73 86.5739 115.25 87.1739 114.29H92.4239C91.3639 117.81 88.7139 119.57 84.4739 119.57C83.1739 119.57 81.9839 119.38 80.9039 119C79.8239 118.6 78.8939 118.04 78.1139 117.32C77.3539 116.6 76.7639 115.74 76.3439 114.74C75.9239 113.74 75.7139 112.62 75.7139 111.38C75.7139 110.1 75.9139 108.95 76.3139 107.93C76.7139 106.89 77.2839 106.01 78.0239 105.29C78.7639 104.57 79.6539 104.02 80.6939 103.64C81.7539 103.24 82.9439 103.04 84.2639 103.04C85.5639 103.04 86.7339 103.24 87.7739 103.64C88.8139 104.02 89.6939 104.58 90.4139 105.32C91.1339 106.06 91.6839 106.97 92.0639 108.05C92.4439 109.11 92.6339 110.31 92.6339 111.65V112.22H81.2039ZM107.408 111.35C107.408 110.87 107.318 110.42 107.138 110C106.978 109.56 106.738 109.18 106.418 108.86C106.098 108.54 105.718 108.29 105.278 108.11C104.858 107.91 104.398 107.81 103.898 107.81C103.418 107.81 102.968 107.9 102.548 108.08C102.128 108.26 101.758 108.51 101.438 108.83C101.138 109.15 100.888 109.53 100.688 109.97C100.508 110.39 100.418 110.84 100.418 111.32C100.418 111.8 100.508 112.25 100.688 112.67C100.868 113.09 101.118 113.46 101.438 113.78C101.758 114.08 102.128 114.33 102.548 114.53C102.988 114.71 103.448 114.8 103.928 114.8C104.408 114.8 104.858 114.71 105.278 114.53C105.698 114.35 106.058 114.1 106.358 113.78C106.678 113.46 106.928 113.09 107.108 112.67C107.308 112.25 107.408 111.81 107.408 111.35ZM100.568 126.68H95.1377V103.61H100.568V105.32C101.728 103.86 103.308 103.13 105.308 103.13C106.408 103.13 107.428 103.35 108.368 103.79C109.328 104.21 110.158 104.79 110.858 105.53C111.558 106.27 112.098 107.14 112.478 108.14C112.878 109.14 113.078 110.21 113.078 111.35C113.078 112.49 112.878 113.55 112.478 114.53C112.098 115.51 111.558 116.37 110.858 117.11C110.178 117.85 109.368 118.43 108.428 118.85C107.488 119.27 106.468 119.48 105.368 119.48C103.448 119.48 101.848 118.82 100.568 117.5V126.68ZM126.823 109.07C126.643 108.31 126.273 107.7 125.713 107.24C125.153 106.78 124.473 106.55 123.673 106.55C122.833 106.55 122.143 106.77 121.603 107.21C121.083 107.65 120.753 108.27 120.613 109.07H126.823ZM120.463 112.22C120.463 114.56 121.563 115.73 123.763 115.73C124.943 115.73 125.833 115.25 126.433 114.29H131.683C130.623 117.81 127.973 119.57 123.733 119.57C122.433 119.57 121.243 119.38 120.163 119C119.083 118.6 118.153 118.04 117.373 117.32C116.613 116.6 116.023 115.74 115.603 114.74C115.183 113.74 114.973 112.62 114.973 111.38C114.973 110.1 115.173 108.95 115.573 107.93C115.973 106.89 116.543 106.01 117.283 105.29C118.023 104.57 118.913 104.02 119.953 103.64C121.013 103.24 122.203 103.04 123.523 103.04C124.823 103.04 125.993 103.24 127.033 103.64C128.073 104.02 128.953 104.58 129.673 105.32C130.393 106.06 130.943 106.97 131.323 108.05C131.703 109.11 131.893 110.31 131.893 111.65V112.22H120.463ZM146.007 108.59C145.067 107.95 144.117 107.63 143.157 107.63C142.637 107.63 142.147 107.72 141.687 107.9C141.247 108.08 140.857 108.34 140.517 108.68C140.177 109 139.907 109.39 139.707 109.85C139.527 110.29 139.437 110.79 139.437 111.35C139.437 111.89 139.527 112.39 139.707 112.85C139.907 113.29 140.167 113.68 140.487 114.02C140.827 114.34 141.227 114.59 141.687 114.77C142.147 114.95 142.637 115.04 143.157 115.04C144.177 115.04 145.127 114.69 146.007 113.99V118.61C144.667 119.19 143.397 119.48 142.197 119.48C141.077 119.48 140.007 119.29 138.987 118.91C137.987 118.53 137.097 117.99 136.317 117.29C135.557 116.57 134.947 115.72 134.487 114.74C134.027 113.74 133.797 112.63 133.797 111.41C133.797 110.19 134.017 109.08 134.457 108.08C134.897 107.06 135.497 106.19 136.257 105.47C137.017 104.73 137.917 104.16 138.957 103.76C140.017 103.34 141.147 103.13 142.347 103.13C143.667 103.13 144.887 103.41 146.007 103.97V108.59ZM159.454 108.92V103.61H164.884V119H159.454V113.39H153.934V119H148.504V103.61H153.934V108.92H159.454ZM173.131 111.23C173.131 111.75 173.221 112.23 173.401 112.67C173.601 113.09 173.851 113.46 174.151 113.78C174.471 114.1 174.841 114.35 175.261 114.53C175.701 114.71 176.161 114.8 176.641 114.8C177.121 114.8 177.571 114.71 177.991 114.53C178.431 114.35 178.801 114.1 179.101 113.78C179.421 113.46 179.671 113.09 179.851 112.67C180.051 112.23 180.151 111.76 180.151 111.26C180.151 110.78 180.051 110.33 179.851 109.91C179.671 109.47 179.421 109.09 179.101 108.77C178.801 108.45 178.431 108.2 177.991 108.02C177.571 107.84 177.121 107.75 176.641 107.75C176.161 107.75 175.701 107.84 175.261 108.02C174.841 108.2 174.471 108.45 174.151 108.77C173.851 109.09 173.601 109.46 173.401 109.88C173.221 110.3 173.131 110.75 173.131 111.23ZM167.401 111.17C167.401 110.03 167.631 108.97 168.091 107.99C168.551 106.99 169.191 106.13 170.011 105.41C170.831 104.67 171.801 104.09 172.921 103.67C174.061 103.25 175.301 103.04 176.641 103.04C177.961 103.04 179.181 103.25 180.301 103.67C181.441 104.07 182.421 104.64 183.241 105.38C184.081 106.1 184.731 106.97 185.191 107.99C185.651 108.99 185.881 110.1 185.881 111.32C185.881 112.54 185.641 113.66 185.161 114.68C184.701 115.68 184.061 116.55 183.241 117.29C182.421 118.01 181.431 118.57 180.271 118.97C179.131 119.37 177.891 119.57 176.551 119.57C175.231 119.57 174.011 119.37 172.891 118.97C171.771 118.57 170.801 118 169.981 117.26C169.181 116.52 168.551 115.64 168.091 114.62C167.631 113.58 167.401 112.43 167.401 111.17ZM199.657 109.07C199.477 108.31 199.107 107.7 198.547 107.24C197.987 106.78 197.307 106.55 196.507 106.55C195.667 106.55 194.977 106.77 194.437 107.21C193.917 107.65 193.587 108.27 193.447 109.07H199.657ZM193.297 112.22C193.297 114.56 194.397 115.73 196.597 115.73C197.777 115.73 198.667 115.25 199.267 114.29H204.517C203.457 117.81 200.807 119.57 196.567 119.57C195.267 119.57 194.077 119.38 192.997 119C191.917 118.6 190.987 118.04 190.207 117.32C189.447 116.6 188.857 115.74 188.437 114.74C188.017 113.74 187.807 112.62 187.807 111.38C187.807 110.1 188.007 108.95 188.407 107.93C188.807 106.89 189.377 106.01 190.117 105.29C190.857 104.57 191.747 104.02 192.787 103.64C193.847 103.24 195.037 103.04 196.357 103.04C197.657 103.04 198.827 103.24 199.867 103.64C200.907 104.02 201.787 104.58 202.507 105.32C203.227 106.06 203.777 106.97 204.157 108.05C204.537 109.11 204.727 110.31 204.727 111.65V112.22H193.297ZM39.24 144H33.81V133.14H28.29V144H22.86V128.61H39.24V144ZM54.6277 136.35C54.6277 135.87 54.5377 135.42 54.3577 135C54.1977 134.56 53.9577 134.18 53.6377 133.86C53.3177 133.54 52.9377 133.29 52.4977 133.11C52.0777 132.91 51.6177 132.81 51.1177 132.81C50.6377 132.81 50.1877 132.9 49.7677 133.08C49.3477 133.26 48.9777 133.51 48.6577 133.83C48.3577 134.15 48.1077 134.53 47.9077 134.97C47.7277 135.39 47.6377 135.84 47.6377 136.32C47.6377 136.8 47.7277 137.25 47.9077 137.67C48.0877 138.09 48.3377 138.46 48.6577 138.78C48.9777 139.08 49.3477 139.33 49.7677 139.53C50.2077 139.71 50.6677 139.8 51.1477 139.8C51.6277 139.8 52.0777 139.71 52.4977 139.53C52.9177 139.35 53.2777 139.1 53.5777 138.78C53.8977 138.46 54.1477 138.09 54.3277 137.67C54.5277 137.25 54.6277 136.81 54.6277 136.35ZM47.7877 151.68H42.3577V128.61H47.7877V130.32C48.9477 128.86 50.5277 128.13 52.5277 128.13C53.6277 128.13 54.6477 128.35 55.5877 128.79C56.5477 129.21 57.3777 129.79 58.0777 130.53C58.7777 131.27 59.3177 132.14 59.6977 133.14C60.0977 134.14 60.2977 135.21 60.2977 136.35C60.2977 137.49 60.0977 138.55 59.6977 139.53C59.3177 140.51 58.7777 141.37 58.0777 142.11C57.3977 142.85 56.5877 143.43 55.6477 143.85C54.7077 144.27 53.6877 144.48 52.5877 144.48C50.6677 144.48 49.0677 143.82 47.7877 142.5V151.68ZM67.9228 136.23C67.9228 136.75 68.0128 137.23 68.1928 137.67C68.3928 138.09 68.6428 138.46 68.9428 138.78C69.2628 139.1 69.6328 139.35 70.0528 139.53C70.4928 139.71 70.9528 139.8 71.4328 139.8C71.9128 139.8 72.3628 139.71 72.7828 139.53C73.2228 139.35 73.5928 139.1 73.8928 138.78C74.2128 138.46 74.4628 138.09 74.6428 137.67C74.8428 137.23 74.9428 136.76 74.9428 136.26C74.9428 135.78 74.8428 135.33 74.6428 134.91C74.4628 134.47 74.2128 134.09 73.8928 133.77C73.5928 133.45 73.2228 133.2 72.7828 133.02C72.3628 132.84 71.9128 132.75 71.4328 132.75C70.9528 132.75 70.4928 132.84 70.0528 133.02C69.6328 133.2 69.2628 133.45 68.9428 133.77C68.6428 134.09 68.3928 134.46 68.1928 134.88C68.0128 135.3 67.9228 135.75 67.9228 136.23ZM62.1928 136.17C62.1928 135.03 62.4228 133.97 62.8828 132.99C63.3428 131.99 63.9828 131.13 64.8028 130.41C65.6228 129.67 66.5928 129.09 67.7128 128.67C68.8528 128.25 70.0928 128.04 71.4328 128.04C72.7528 128.04 73.9728 128.25 75.0928 128.67C76.2328 129.07 77.2128 129.64 78.0328 130.38C78.8728 131.1 79.5228 131.97 79.9828 132.99C80.4428 133.99 80.6728 135.1 80.6728 136.32C80.6728 137.54 80.4328 138.66 79.9528 139.68C79.4928 140.68 78.8528 141.55 78.0328 142.29C77.2128 143.01 76.2228 143.57 75.0628 143.97C73.9228 144.37 72.6828 144.57 71.3428 144.57C70.0228 144.57 68.8028 144.37 67.6828 143.97C66.5628 143.57 65.5928 143 64.7728 142.26C63.9728 141.52 63.3428 140.64 62.8828 139.62C62.4228 138.58 62.1928 137.43 62.1928 136.17ZM88.6287 128.61V137.22L95.0787 128.61H100.509V144H95.0787V135.42L88.5987 144H83.1987V128.61H88.6287ZM115.244 133.59C114.304 132.95 113.354 132.63 112.394 132.63C111.874 132.63 111.384 132.72 110.924 132.9C110.484 133.08 110.094 133.34 109.754 133.68C109.414 134 109.144 134.39 108.944 134.85C108.764 135.29 108.674 135.79 108.674 136.35C108.674 136.89 108.764 137.39 108.944 137.85C109.144 138.29 109.404 138.68 109.724 139.02C110.064 139.34 110.464 139.59 110.924 139.77C111.384 139.95 111.874 140.04 112.394 140.04C113.414 140.04 114.364 139.69 115.244 138.99V143.61C113.904 144.19 112.634 144.48 111.434 144.48C110.314 144.48 109.244 144.29 108.224 143.91C107.224 143.53 106.334 142.99 105.554 142.29C104.794 141.57 104.184 140.72 103.724 139.74C103.264 138.74 103.034 137.63 103.034 136.41C103.034 135.19 103.254 134.08 103.694 133.08C104.134 132.06 104.734 131.19 105.494 130.47C106.254 129.73 107.154 129.16 108.194 128.76C109.254 128.34 110.384 128.13 111.584 128.13C112.904 128.13 114.124 128.41 115.244 128.97V133.59ZM123.561 135.66L117.321 128.61H124.401L127.041 131.79L129.741 128.61H136.821L130.431 135.66L138.141 144H130.941L127.011 139.44L123.051 144H115.881L123.561 135.66ZM144.536 136.23C144.536 136.75 144.626 137.23 144.806 137.67C145.006 138.09 145.256 138.46 145.556 138.78C145.876 139.1 146.246 139.35 146.666 139.53C147.106 139.71 147.566 139.8 148.046 139.8C148.526 139.8 148.976 139.71 149.396 139.53C149.836 139.35 150.206 139.1 150.506 138.78C150.826 138.46 151.076 138.09 151.256 137.67C151.456 137.23 151.556 136.76 151.556 136.26C151.556 135.78 151.456 135.33 151.256 134.91C151.076 134.47 150.826 134.09 150.506 133.77C150.206 133.45 149.836 133.2 149.396 133.02C148.976 132.84 148.526 132.75 148.046 132.75C147.566 132.75 147.106 132.84 146.666 133.02C146.246 133.2 145.876 133.45 145.556 133.77C145.256 134.09 145.006 134.46 144.806 134.88C144.626 135.3 144.536 135.75 144.536 136.23ZM138.806 136.17C138.806 135.03 139.036 133.97 139.496 132.99C139.956 131.99 140.596 131.13 141.416 130.41C142.236 129.67 143.206 129.09 144.326 128.67C145.466 128.25 146.706 128.04 148.046 128.04C149.366 128.04 150.586 128.25 151.706 128.67C152.846 129.07 153.826 129.64 154.646 130.38C155.486 131.1 156.136 131.97 156.596 132.99C157.056 133.99 157.286 135.1 157.286 136.32C157.286 137.54 157.046 138.66 156.566 139.68C156.106 140.68 155.466 141.55 154.646 142.29C153.826 143.01 152.836 143.57 151.676 143.97C150.536 144.37 149.296 144.57 147.956 144.57C146.636 144.57 145.416 144.37 144.296 143.97C143.176 143.57 142.206 143 141.386 142.26C140.586 141.52 139.956 140.64 139.496 139.62C139.036 138.58 138.806 137.43 138.806 136.17ZM171.272 133.14H167.162V137.76C167.162 138.16 167.152 138.48 167.132 138.72C167.112 138.96 167.082 139.21 167.042 139.47H171.272V133.14ZM160.292 139.47C160.832 139.47 161.202 139.29 161.402 138.93C161.602 138.57 161.702 138.01 161.702 137.25V128.61H176.702V139.47H178.532V147.15H173.102V144H164.972V147.15H159.542V139.47H160.292ZM186.469 128.61V137.22L192.919 128.61H198.349V144H192.919V135.42L186.439 144H181.039V128.61H186.469ZM212.844 133.14H209.244V144H203.814V133.14H200.214V128.61H212.844V133.14Z" fill="white"/>
<path d="M157.12 178.172C158.308 178.172 159.262 178.586 159.982 179.414C160.714 180.242 161.08 181.49 161.08 183.158C161.08 184.802 160.714 186.05 159.982 186.902C159.262 187.754 158.302 188.18 157.102 188.18C156.358 188.18 155.74 188.042 155.248 187.766C154.768 187.478 154.39 187.148 154.114 186.776H154.006C154.03 186.98 154.054 187.238 154.078 187.55C154.102 187.862 154.114 188.132 154.114 188.36V192.32H152.53V178.352H153.826L154.042 179.666H154.114C154.402 179.246 154.78 178.892 155.248 178.604C155.716 178.316 156.34 178.172 157.12 178.172ZM156.832 179.504C155.848 179.504 155.152 179.78 154.744 180.332C154.348 180.884 154.138 181.724 154.114 182.852V183.158C154.114 184.346 154.306 185.264 154.69 185.912C155.086 186.548 155.812 186.866 156.868 186.866C157.456 186.866 157.936 186.704 158.308 186.38C158.692 186.056 158.974 185.618 159.154 185.066C159.346 184.502 159.442 183.86 159.442 183.14C159.442 182.036 159.226 181.154 158.794 180.494C158.374 179.834 157.72 179.504 156.832 179.504ZM166.898 178.19C168.074 178.19 168.944 178.448 169.508 178.964C170.072 179.48 170.354 180.302 170.354 181.43V188H169.202L168.896 186.632H168.824C168.404 187.16 167.96 187.55 167.492 187.802C167.036 188.054 166.4 188.18 165.584 188.18C164.708 188.18 163.982 187.952 163.406 187.496C162.83 187.028 162.542 186.302 162.542 185.318C162.542 184.358 162.92 183.62 163.676 183.104C164.432 182.576 165.596 182.288 167.168 182.24L168.806 182.186V181.61C168.806 180.806 168.632 180.248 168.284 179.936C167.936 179.624 167.444 179.468 166.808 179.468C166.304 179.468 165.824 179.546 165.368 179.702C164.912 179.846 164.486 180.014 164.09 180.206L163.604 179.018C164.024 178.79 164.522 178.598 165.098 178.442C165.674 178.274 166.274 178.19 166.898 178.19ZM167.366 183.338C166.166 183.386 165.332 183.578 164.864 183.914C164.408 184.25 164.18 184.724 164.18 185.336C164.18 185.876 164.342 186.272 164.666 186.524C165.002 186.776 165.428 186.902 165.944 186.902C166.76 186.902 167.438 186.68 167.978 186.236C168.518 185.78 168.788 185.084 168.788 184.148V183.284L167.366 183.338ZM172.47 182.204C172.47 180.092 172.788 178.448 173.424 177.272C174.06 176.084 175.086 175.34 176.502 175.04C177.282 174.872 178.044 174.722 178.788 174.59C179.532 174.458 180.228 174.338 180.876 174.23L181.146 175.616C180.726 175.676 180.252 175.754 179.724 175.85C179.196 175.934 178.674 176.024 178.158 176.12C177.642 176.204 177.198 176.288 176.826 176.372C176.046 176.54 175.428 176.948 174.972 177.596C174.516 178.232 174.258 179.228 174.198 180.584H174.306C174.474 180.356 174.702 180.122 174.99 179.882C175.29 179.642 175.644 179.438 176.052 179.27C176.472 179.102 176.946 179.018 177.474 179.018C178.722 179.018 179.664 179.42 180.3 180.224C180.936 181.028 181.254 182.072 181.254 183.356C181.254 184.424 181.068 185.318 180.696 186.038C180.324 186.758 179.808 187.298 179.148 187.658C178.488 188.006 177.72 188.18 176.844 188.18C175.512 188.18 174.45 187.67 173.658 186.65C172.866 185.63 172.47 184.148 172.47 182.204ZM176.97 186.866C177.75 186.866 178.38 186.614 178.86 186.11C179.34 185.606 179.58 184.742 179.58 183.518C179.58 182.534 179.394 181.76 179.022 181.196C178.662 180.62 178.062 180.332 177.222 180.332C176.694 180.332 176.214 180.452 175.782 180.692C175.35 180.92 174.99 181.184 174.702 181.484C174.414 181.784 174.21 182.036 174.09 182.24C174.09 182.828 174.132 183.398 174.216 183.95C174.3 184.502 174.444 185 174.648 185.444C174.864 185.876 175.158 186.224 175.53 186.488C175.914 186.74 176.394 186.866 176.97 186.866ZM191.777 183.158C191.777 184.754 191.369 185.99 190.553 186.866C189.749 187.742 188.657 188.18 187.277 188.18C186.425 188.18 185.663 187.988 184.991 187.604C184.331 187.208 183.809 186.638 183.425 185.894C183.041 185.138 182.849 184.226 182.849 183.158C182.849 181.562 183.251 180.332 184.055 179.468C184.859 178.604 185.951 178.172 187.331 178.172C188.207 178.172 188.975 178.37 189.635 178.766C190.307 179.15 190.829 179.714 191.201 180.458C191.585 181.19 191.777 182.09 191.777 183.158ZM184.487 183.158C184.487 184.298 184.709 185.204 185.153 185.876C185.609 186.536 186.329 186.866 187.313 186.866C188.285 186.866 188.999 186.536 189.455 185.876C189.911 185.204 190.139 184.298 190.139 183.158C190.139 182.018 189.911 181.124 189.455 180.476C188.999 179.828 188.279 179.504 187.295 179.504C186.311 179.504 185.597 179.828 185.153 180.476C184.709 181.124 184.487 182.018 184.487 183.158ZM195.138 181.862C195.138 182.966 195.756 183.518 196.992 183.518C197.592 183.518 198.138 183.428 198.63 183.248C199.122 183.056 199.626 182.804 200.142 182.492V178.352H201.726V188H200.142V183.698C199.602 184.046 199.068 184.322 198.54 184.526C198.024 184.718 197.4 184.814 196.668 184.814C195.684 184.814 194.916 184.556 194.364 184.04C193.824 183.524 193.554 182.834 193.554 181.97V178.352H195.138V181.862ZM205.925 184.238C205.925 184.382 205.919 184.598 205.907 184.886C205.895 185.174 205.877 185.462 205.853 185.75C205.841 186.038 205.829 186.266 205.817 186.434L210.983 178.352H212.927V188H211.451V182.312C211.451 182.12 211.451 181.868 211.451 181.556C211.463 181.244 211.475 180.938 211.487 180.638C211.499 180.326 211.511 180.092 211.523 179.936L206.393 188H204.431V178.352H205.925V184.238ZM223.45 174.356C223.366 175.256 223.06 175.94 222.532 176.408C222.016 176.864 221.188 177.092 220.048 177.092C218.872 177.092 218.038 176.864 217.546 176.408C217.066 175.952 216.796 175.268 216.736 174.356H218.212C218.272 175.004 218.44 175.442 218.716 175.67C219.004 175.886 219.46 175.994 220.084 175.994C220.636 175.994 221.068 175.88 221.38 175.652C221.704 175.412 221.896 174.98 221.956 174.356H223.45ZM217.132 184.238C217.132 184.382 217.126 184.598 217.114 184.886C217.102 185.174 217.084 185.462 217.06 185.75C217.048 186.038 217.036 186.266 217.024 186.434L222.19 178.352H224.134V188H222.658V182.312C222.658 182.12 222.658 181.868 222.658 181.556C222.67 181.244 222.682 180.938 222.694 180.638C222.706 180.326 222.718 180.092 222.73 179.936L217.6 188H215.638V178.352H217.132V184.238ZM240.212 186.075H245.266V188H236.152L240.863 182.296C241.325 181.728 241.712 181.235 242.023 180.819C242.339 180.403 242.579 180.055 242.743 179.773C243.077 179.223 243.244 178.728 243.244 178.288C243.244 177.655 243.022 177.125 242.576 176.697C242.131 176.27 241.58 176.056 240.924 176.056C239.553 176.056 238.768 176.867 238.569 178.49H236.53C236.858 175.631 238.302 174.201 240.863 174.201C242.099 174.201 243.136 174.594 243.974 175.379C244.818 176.164 245.239 177.137 245.239 178.297C245.239 179.035 245.043 179.759 244.651 180.468C244.451 180.837 244.158 181.276 243.772 181.786C243.391 182.29 242.907 182.888 242.322 183.579L240.212 186.075ZM255.919 176.346H251.735L251.067 178.596C251.167 178.584 251.26 178.575 251.348 178.569C251.442 178.563 251.527 178.561 251.603 178.561C252.921 178.561 254.003 179.006 254.846 179.896C255.696 180.781 256.121 181.915 256.121 183.298C256.121 184.728 255.64 185.905 254.679 186.831C253.718 187.757 252.508 188.22 251.049 188.22C249.251 188.22 247.833 187.376 246.796 185.688L248.342 184.379C248.77 185.105 249.201 185.618 249.634 185.917C250.068 186.21 250.598 186.356 251.225 186.356C252.046 186.356 252.734 186.069 253.291 185.495C253.847 184.903 254.126 184.186 254.126 183.342C254.126 182.475 253.85 181.766 253.299 181.215C252.749 180.646 252.06 180.362 251.234 180.362C250.314 180.362 249.52 180.764 248.852 181.566H248.175L250.311 174.43H255.919V176.346ZM261.245 188.466L259.742 187.35L262.985 182.929C262.81 182.952 262.66 182.97 262.537 182.981C262.414 182.993 262.314 182.999 262.238 182.999C261.143 182.999 260.193 182.58 259.391 181.742C258.594 180.91 258.195 179.908 258.195 178.736C258.195 177.488 258.638 176.422 259.522 175.537C260.413 174.646 261.479 174.201 262.722 174.201C263.958 174.201 265.033 174.641 265.947 175.52C266.861 176.393 267.318 177.424 267.318 178.613C267.318 179.668 266.873 180.808 265.982 182.032L261.245 188.466ZM260.19 178.587C260.19 179.319 260.439 179.935 260.937 180.433C261.441 180.937 262.048 181.188 262.757 181.188C263.466 181.188 264.069 180.939 264.567 180.441C265.071 179.938 265.323 179.331 265.323 178.622C265.323 177.913 265.071 177.307 264.567 176.803C264.069 176.305 263.463 176.056 262.748 176.056C262.045 176.056 261.444 176.305 260.946 176.803C260.442 177.307 260.19 177.901 260.19 178.587ZM272.46 186.075H277.514V188H268.4L273.111 182.296C273.574 181.728 273.96 181.235 274.271 180.819C274.587 180.403 274.827 180.055 274.992 179.773C275.326 179.223 275.493 178.728 275.493 178.288C275.493 177.655 275.27 177.125 274.825 176.697C274.379 176.27 273.828 176.056 273.172 176.056C271.801 176.056 271.016 176.867 270.817 178.49H268.778C269.106 175.631 270.55 174.201 273.111 174.201C274.347 174.201 275.384 174.594 276.222 175.379C277.066 176.164 277.488 177.137 277.488 178.297C277.488 179.035 277.291 179.759 276.899 180.468C276.7 180.837 276.407 181.276 276.02 181.786C275.639 182.29 275.156 182.888 274.57 183.579L272.46 186.075Z" fill="white"/>
<defs>
<filter id="filter0_b" x="-100" y="-100" width="505" height="435.962" filterUnits="userSpaceOnUse" color-interpolation-filters="sRGB">
<feFlood flood-opacity="0" result="BackgroundImageFix"/>
<feGaussianBlur in="BackgroundImage" stdDeviation="50"/>
<feComposite in2="SourceAlpha" operator="in" result="effect1_backgroundBlur"/>
<feBlend mode="normal" in="SourceGraphic" in2="effect1_backgroundBlur" result="shape"/>
</filter>
</defs>
</svg>
