<svg width="305" height="236" viewBox="0 0 305 236" fill="none" xmlns="http://www.w3.org/2000/svg">
<g filter="url(#filter0_b)">
<mask id="path-1-inside-1" fill="white">
<path fill-rule="evenodd" clip-rule="evenodd" d="M305 50C305 22.3858 282.614 0 255 0H50C22.3858 0 0 22.3857 0 50V160.433C0 188.047 22.3857 210.433 50 210.433H199.843C208.268 210.433 215.882 215.454 219.201 223.198V223.198C226.495 240.217 250.623 240.217 257.917 223.198V223.198C261.236 215.454 268.851 210.433 277.276 210.433H279.923C293.773 210.433 305 199.206 305 185.356V50Z"/>
</mask>
<path fill-rule="evenodd" clip-rule="evenodd" d="M305 50C305 22.3858 282.614 0 255 0H50C22.3858 0 0 22.3857 0 50V160.433C0 188.047 22.3857 210.433 50 210.433H199.843C208.268 210.433 215.882 215.454 219.201 223.198V223.198C226.495 240.217 250.623 240.217 257.917 223.198V223.198C261.236 215.454 268.851 210.433 277.276 210.433H279.923C293.773 210.433 305 199.206 305 185.356V50Z" fill="#B1B9FF"/>
<path d="M50 5H255V-5H50V5ZM5 160.433V50H-5V160.433H5ZM199.843 205.433H50V215.433H199.843V205.433ZM279.923 205.433H277.276V215.433H279.923V205.433ZM300 50V185.356H310V50H300ZM279.923 215.433C296.534 215.433 310 201.967 310 185.356H300C300 196.444 291.011 205.433 279.923 205.433V215.433ZM262.513 225.167C265.044 219.262 270.851 215.433 277.276 215.433V205.433C266.85 205.433 257.428 211.646 253.322 221.228L262.513 225.167ZM214.605 225.167C223.631 246.227 253.487 246.227 262.513 225.167L253.322 221.228C247.759 234.207 229.359 234.207 223.797 221.228L214.605 225.167ZM199.843 215.433C206.268 215.433 212.074 219.262 214.605 225.167L223.797 221.228C219.69 211.646 210.268 205.433 199.843 205.433V215.433ZM-5 160.433C-5 190.809 19.6243 215.433 50 215.433V205.433C25.1472 205.433 5 185.286 5 160.433H-5ZM255 5C279.853 5 300 25.1472 300 50H310C310 19.6243 285.376 -5 255 -5V5ZM50 -5C19.6243 -5 -5 19.6243 -5 50H5C5 25.1472 25.1472 5 50 5V-5Z" fill="white" mask="url(#path-1-inside-1)"/>
</g>
<path d="M32.13 65.34C31.77 65.42 31.4 65.49 31.02 65.55C30.66 65.59 30.27 65.61 29.85 65.61C28.49 65.61 27.32 65.43 26.34 65.07C25.36 64.69 24.56 64.15 23.94 63.45C23.32 62.73 22.86 61.85 22.56 60.81C22.28 59.77 22.14 58.58 22.14 57.24V53.61H27.57V57.42C27.57 58.2 27.63 58.84 27.75 59.34C27.89 59.82 28.08 60.19 28.32 60.45C28.56 60.71 28.84 60.89 29.16 60.99C29.48 61.07 29.83 61.11 30.21 61.11C30.99 61.11 31.63 60.86 32.13 60.36V53.61H37.56V69H32.13V65.34ZM52.0577 58.14H48.4577V69H43.0277V58.14H39.4277V53.61H52.0577V58.14ZM59.0166 61.23C59.0166 61.75 59.1066 62.23 59.2866 62.67C59.4866 63.09 59.7366 63.46 60.0366 63.78C60.3566 64.1 60.7266 64.35 61.1466 64.53C61.5866 64.71 62.0466 64.8 62.5266 64.8C63.0066 64.8 63.4566 64.71 63.8766 64.53C64.3166 64.35 64.6866 64.1 64.9866 63.78C65.3066 63.46 65.5566 63.09 65.7366 62.67C65.9366 62.23 66.0366 61.76 66.0366 61.26C66.0366 60.78 65.9366 60.33 65.7366 59.91C65.5566 59.47 65.3066 59.09 64.9866 58.77C64.6866 58.45 64.3166 58.2 63.8766 58.02C63.4566 57.84 63.0066 57.75 62.5266 57.75C62.0466 57.75 61.5866 57.84 61.1466 58.02C60.7266 58.2 60.3566 58.45 60.0366 58.77C59.7366 59.09 59.4866 59.46 59.2866 59.88C59.1066 60.3 59.0166 60.75 59.0166 61.23ZM53.2866 61.17C53.2866 60.03 53.5166 58.97 53.9766 57.99C54.4366 56.99 55.0766 56.13 55.8966 55.41C56.7166 54.67 57.6866 54.09 58.8066 53.67C59.9466 53.25 61.1866 53.04 62.5266 53.04C63.8466 53.04 65.0666 53.25 66.1866 53.67C67.3266 54.07 68.3066 54.64 69.1266 55.38C69.9666 56.1 70.6166 56.97 71.0766 57.99C71.5366 58.99 71.7666 60.1 71.7666 61.32C71.7666 62.54 71.5266 63.66 71.0466 64.68C70.5866 65.68 69.9466 66.55 69.1266 67.29C68.3066 68.01 67.3166 68.57 66.1566 68.97C65.0166 69.37 63.7766 69.57 62.4366 69.57C61.1166 69.57 59.8966 69.37 58.7766 68.97C57.6566 68.57 56.6866 68 55.8666 67.26C55.0666 66.52 54.4366 65.64 53.9766 64.62C53.5166 63.58 53.2866 62.43 53.2866 61.17ZM92.5277 57.75C92.0477 57.75 91.5877 57.84 91.1477 58.02C90.7277 58.2 90.3577 58.45 90.0377 58.77C89.7377 59.09 89.4877 59.46 89.2877 59.88C89.1077 60.3 89.0177 60.76 89.0177 61.26C89.0177 61.74 89.1077 62.2 89.2877 62.64C89.4677 63.06 89.7077 63.43 90.0077 63.75C90.3277 64.07 90.6977 64.33 91.1177 64.53C91.5577 64.71 92.0277 64.8 92.5277 64.8C93.0077 64.8 93.4577 64.71 93.8777 64.53C94.3177 64.33 94.6977 64.07 95.0177 63.75C95.3377 63.43 95.5877 63.06 95.7677 62.64C95.9477 62.2 96.0377 61.74 96.0377 61.26C96.0377 60.78 95.9477 60.33 95.7677 59.91C95.5877 59.47 95.3377 59.09 95.0177 58.77C94.6977 58.45 94.3177 58.2 93.8777 58.02C93.4577 57.84 93.0077 57.75 92.5277 57.75ZM98.5877 49.44C98.3077 49.7 98.0477 49.92 97.8077 50.1C97.5877 50.26 97.3177 50.41 96.9977 50.55C96.6777 50.69 96.2777 50.84 95.7977 51C95.3177 51.16 94.6877 51.36 93.9077 51.6C93.2277 51.82 92.6777 52 92.2577 52.14C91.8377 52.28 91.4977 52.41 91.2377 52.53C90.9777 52.65 90.7677 52.78 90.6077 52.92C90.4677 53.04 90.3277 53.19 90.1877 53.37L90.0077 53.61C90.4677 53.43 90.9277 53.29 91.3877 53.19C91.8677 53.09 92.4077 53.04 93.0077 53.04C94.2277 53.04 95.3677 53.25 96.4277 53.67C97.5077 54.09 98.4477 54.67 99.2477 55.41C100.048 56.15 100.668 57.03 101.108 58.05C101.568 59.07 101.798 60.19 101.798 61.41C101.798 62.59 101.568 63.68 101.108 64.68C100.668 65.68 100.038 66.54 99.2177 67.26C98.3977 67.98 97.3977 68.55 96.2177 68.97C95.0377 69.37 93.7177 69.57 92.2577 69.57C90.9177 69.57 89.6977 69.38 88.5977 69C87.4977 68.62 86.5477 68.03 85.7477 67.23C84.9677 66.43 84.3577 65.41 83.9177 64.17C83.4977 62.91 83.2877 61.41 83.2877 59.67C83.2877 56.87 83.8477 54.49 84.9677 52.53C86.0877 50.55 87.7077 49.11 89.8277 48.21C90.0877 48.09 90.2977 48.01 90.4577 47.97C90.6177 47.91 90.7877 47.86 90.9677 47.82C91.1677 47.76 91.4077 47.69 91.6877 47.61C91.9877 47.51 92.4177 47.37 92.9777 47.19C93.8577 46.91 94.5977 46.66 95.1977 46.44C95.7977 46.22 96.3077 46 96.7277 45.78C97.1477 45.54 97.4977 45.29 97.7777 45.03C98.0577 44.77 98.3277 44.46 98.5877 44.1V49.44ZM109.874 66.9L102.434 53.61H108.734L112.844 61.5L116.834 53.61H123.074L110.714 76.68H104.624L109.874 66.9ZM135.808 58.14H131.698V62.76C131.698 63.16 131.688 63.48 131.668 63.72C131.648 63.96 131.618 64.21 131.578 64.47H135.808V58.14ZM124.828 64.47C125.368 64.47 125.738 64.29 125.938 63.93C126.138 63.57 126.238 63.01 126.238 62.25V53.61H141.238V64.47H143.068V72.15H137.638V69H129.508V72.15H124.078V64.47H124.828ZM156.824 59.07C156.644 58.31 156.274 57.7 155.714 57.24C155.154 56.78 154.474 56.55 153.674 56.55C152.834 56.55 152.144 56.77 151.604 57.21C151.084 57.65 150.754 58.27 150.614 59.07H156.824ZM150.464 62.22C150.464 64.56 151.564 65.73 153.764 65.73C154.944 65.73 155.834 65.25 156.434 64.29H161.684C160.624 67.81 157.974 69.57 153.734 69.57C152.434 69.57 151.244 69.38 150.164 69C149.084 68.6 148.154 68.04 147.374 67.32C146.614 66.6 146.024 65.74 145.604 64.74C145.184 63.74 144.974 62.62 144.974 61.38C144.974 60.1 145.174 58.95 145.574 57.93C145.974 56.89 146.544 56.01 147.284 55.29C148.024 54.57 148.914 54.02 149.954 53.64C151.014 53.24 152.204 53.04 153.524 53.04C154.824 53.04 155.994 53.24 157.034 53.64C158.074 54.02 158.954 54.58 159.674 55.32C160.394 56.06 160.944 56.97 161.324 58.05C161.704 59.11 161.894 60.31 161.894 61.65V62.22H150.464ZM175.768 58.14H172.168V69H166.738V58.14H163.138V53.61H175.768V58.14ZM179.277 63.27H184.377L178.857 73.2H175.377L179.277 63.27ZM34.11 84.07C33.93 83.31 33.56 82.7 33 82.24C32.44 81.78 31.76 81.55 30.96 81.55C30.12 81.55 29.43 81.77 28.89 82.21C28.37 82.65 28.04 83.27 27.9 84.07H34.11ZM27.75 87.22C27.75 89.56 28.85 90.73 31.05 90.73C32.23 90.73 33.12 90.25 33.72 89.29H38.97C37.91 92.81 35.26 94.57 31.02 94.57C29.72 94.57 28.53 94.38 27.45 94C26.37 93.6 25.44 93.04 24.66 92.32C23.9 91.6 23.31 90.74 22.89 89.74C22.47 88.74 22.26 87.62 22.26 86.38C22.26 85.1 22.46 83.95 22.86 82.93C23.26 81.89 23.83 81.01 24.57 80.29C25.31 79.57 26.2 79.02 27.24 78.64C28.3 78.24 29.49 78.04 30.81 78.04C32.11 78.04 33.28 78.24 34.32 78.64C35.36 79.02 36.24 79.58 36.96 80.32C37.68 81.06 38.23 81.97 38.61 83.05C38.99 84.11 39.18 85.31 39.18 86.65V87.22H27.75ZM53.2938 83.59C52.3538 82.95 51.4038 82.63 50.4438 82.63C49.9238 82.63 49.4338 82.72 48.9738 82.9C48.5338 83.08 48.1438 83.34 47.8038 83.68C47.4638 84 47.1938 84.39 46.9938 84.85C46.8138 85.29 46.7238 85.79 46.7238 86.35C46.7238 86.89 46.8138 87.39 46.9938 87.85C47.1938 88.29 47.4538 88.68 47.7738 89.02C48.1138 89.34 48.5138 89.59 48.9738 89.77C49.4338 89.95 49.9238 90.04 50.4438 90.04C51.4638 90.04 52.4138 89.69 53.2938 88.99V93.61C51.9538 94.19 50.6838 94.48 49.4838 94.48C48.3638 94.48 47.2938 94.29 46.2738 93.91C45.2738 93.53 44.3838 92.99 43.6038 92.29C42.8438 91.57 42.2338 90.72 41.7738 89.74C41.3138 88.74 41.0838 87.63 41.0838 86.41C41.0838 85.19 41.3038 84.08 41.7438 83.08C42.1838 82.06 42.7838 81.19 43.5438 80.47C44.3038 79.73 45.2038 79.16 46.2438 78.76C47.3038 78.34 48.4338 78.13 49.6338 78.13C50.9538 78.13 52.1738 78.41 53.2938 78.97V83.59ZM55.0709 89.53C55.1309 89.55 55.2209 89.56 55.3409 89.56C55.6009 89.56 55.8309 89.54 56.0309 89.5C56.2309 89.46 56.3909 89.38 56.5109 89.26C56.6309 89.12 56.7209 88.92 56.7809 88.66C56.8409 88.4 56.8709 88.06 56.8709 87.64V78.61H71.8709V94H66.4409V83.14H62.3009V88.24C62.3009 89.34 62.1309 90.29 61.7909 91.09C61.4709 91.89 61.0209 92.55 60.4409 93.07C59.8609 93.59 59.1509 93.97 58.3109 94.21C57.4909 94.47 56.5909 94.6 55.6109 94.6H55.0709V89.53ZM80.4255 78.61V87.22L86.8755 78.61H92.3055V94H86.8755V85.42L80.3955 94H74.9955V78.61H80.4255ZM113.606 82.57H111.926C111.406 82.57 110.996 82.72 110.696 83.02C110.396 83.3 110.246 83.69 110.246 84.19C110.246 84.71 110.396 85.12 110.696 85.42C110.996 85.7 111.406 85.84 111.926 85.84H113.606V82.57ZM107.996 88.78C107.116 88.5 106.436 87.95 105.956 87.13C105.476 86.31 105.236 85.3 105.236 84.1C105.236 83.34 105.356 82.63 105.596 81.97C105.856 81.29 106.236 80.71 106.736 80.23C107.236 79.73 107.856 79.34 108.596 79.06C109.336 78.76 110.196 78.61 111.176 78.61H119.036V94H113.606V89.2H112.676L110.036 94H104.306L107.996 88.78ZM148.126 94H142.696V83.14H137.176V94H131.746V78.61H148.126V94ZM163.514 86.35C163.514 85.87 163.424 85.42 163.244 85C163.084 84.56 162.844 84.18 162.524 83.86C162.204 83.54 161.824 83.29 161.384 83.11C160.964 82.91 160.504 82.81 160.004 82.81C159.524 82.81 159.074 82.9 158.654 83.08C158.234 83.26 157.864 83.51 157.544 83.83C157.244 84.15 156.994 84.53 156.794 84.97C156.614 85.39 156.524 85.84 156.524 86.32C156.524 86.8 156.614 87.25 156.794 87.67C156.974 88.09 157.224 88.46 157.544 88.78C157.864 89.08 158.234 89.33 158.654 89.53C159.094 89.71 159.554 89.8 160.034 89.8C160.514 89.8 160.964 89.71 161.384 89.53C161.804 89.35 162.164 89.1 162.464 88.78C162.784 88.46 163.034 88.09 163.214 87.67C163.414 87.25 163.514 86.81 163.514 86.35ZM156.674 101.68H151.244V78.61H156.674V80.32C157.834 78.86 159.414 78.13 161.414 78.13C162.514 78.13 163.534 78.35 164.474 78.79C165.434 79.21 166.264 79.79 166.964 80.53C167.664 81.27 168.204 82.14 168.584 83.14C168.984 84.14 169.184 85.21 169.184 86.35C169.184 87.49 168.984 88.55 168.584 89.53C168.204 90.51 167.664 91.37 166.964 92.11C166.284 92.85 165.474 93.43 164.534 93.85C163.594 94.27 162.574 94.48 161.474 94.48C159.554 94.48 157.954 93.82 156.674 92.5V101.68ZM177.109 78.61V87.22L183.559 78.61H188.989V94H183.559V85.42L177.079 94H171.679V78.61H177.109ZM200.154 90.22C200.574 90.22 200.894 90.1 201.114 89.86C201.334 89.62 201.444 89.3 201.444 88.9C201.444 88.04 201.014 87.61 200.154 87.61H197.184V90.22H200.154ZM199.764 84.55C200.344 84.55 200.634 84.18 200.634 83.44C200.634 82.7 200.344 82.33 199.764 82.33H197.184V84.55H199.764ZM192.114 78.61H200.274C201.794 78.61 202.944 78.96 203.724 79.66C204.524 80.34 204.924 81.33 204.924 82.63C204.924 83.39 204.804 84.01 204.564 84.49C204.324 84.97 203.914 85.38 203.334 85.72C205.434 86.14 206.484 87.41 206.484 89.53C206.484 90.95 205.944 92.05 204.864 92.83C203.804 93.61 202.334 94 200.454 94H192.114V78.61ZM219.873 84.07C219.693 83.31 219.323 82.7 218.763 82.24C218.203 81.78 217.523 81.55 216.723 81.55C215.883 81.55 215.193 81.77 214.653 82.21C214.133 82.65 213.803 83.27 213.663 84.07H219.873ZM213.513 87.22C213.513 89.56 214.613 90.73 216.813 90.73C217.993 90.73 218.883 90.25 219.483 89.29H224.733C223.673 92.81 221.023 94.57 216.783 94.57C215.483 94.57 214.293 94.38 213.213 94C212.133 93.6 211.203 93.04 210.423 92.32C209.663 91.6 209.073 90.74 208.653 89.74C208.233 88.74 208.023 87.62 208.023 86.38C208.023 85.1 208.223 83.95 208.623 82.93C209.023 81.89 209.593 81.01 210.333 80.29C211.073 79.57 211.963 79.02 213.003 78.64C214.063 78.24 215.253 78.04 216.573 78.04C217.873 78.04 219.043 78.24 220.083 78.64C221.123 79.02 222.003 79.58 222.723 80.32C223.443 81.06 223.993 81.97 224.373 83.05C224.753 84.11 224.943 85.31 224.943 86.65V87.22H213.513ZM238.907 83.14H234.797V87.76C234.797 88.16 234.787 88.48 234.767 88.72C234.747 88.96 234.717 89.21 234.677 89.47H238.907V83.14ZM227.927 89.47C228.467 89.47 228.837 89.29 229.037 88.93C229.237 88.57 229.337 88.01 229.337 87.25V78.61H244.337V89.47H246.167V97.15H240.737V94H232.607V97.15H227.177V89.47H227.927ZM254.546 91.9L247.106 78.61H253.406L257.516 86.5L261.506 78.61H267.746L255.386 101.68H249.296L254.546 91.9ZM34.32 108.14H30.21V112.76C30.21 113.16 30.2 113.48 30.18 113.72C30.16 113.96 30.13 114.21 30.09 114.47H34.32V108.14ZM23.34 114.47C23.88 114.47 24.25 114.29 24.45 113.93C24.65 113.57 24.75 113.01 24.75 112.25V103.61H39.75V114.47H41.58V122.15H36.15V119H28.02V122.15H22.59V114.47H23.34ZM56.3562 111.35C56.3562 110.87 56.2662 110.42 56.0862 110C55.9262 109.56 55.6862 109.18 55.3662 108.86C55.0462 108.54 54.6662 108.29 54.2262 108.11C53.8062 107.91 53.3462 107.81 52.8462 107.81C52.3662 107.81 51.9162 107.9 51.4962 108.08C51.0762 108.26 50.7062 108.51 50.3862 108.83C50.0862 109.15 49.8362 109.53 49.6362 109.97C49.4562 110.39 49.3662 110.84 49.3662 111.32C49.3662 111.8 49.4562 112.25 49.6362 112.67C49.8162 113.09 50.0662 113.46 50.3862 113.78C50.7062 114.08 51.0762 114.33 51.4962 114.53C51.9362 114.71 52.3962 114.8 52.8762 114.8C53.3562 114.8 53.8062 114.71 54.2262 114.53C54.6462 114.35 55.0062 114.1 55.3062 113.78C55.6262 113.46 55.8762 113.09 56.0562 112.67C56.2562 112.25 56.3562 111.81 56.3562 111.35ZM49.5162 126.68H44.0862V103.61H49.5162V105.32C50.6762 103.86 52.2562 103.13 54.2562 103.13C55.3562 103.13 56.3762 103.35 57.3162 103.79C58.2762 104.21 59.1062 104.79 59.8062 105.53C60.5062 106.27 61.0462 107.14 61.4262 108.14C61.8262 109.14 62.0262 110.21 62.0262 111.35C62.0262 112.49 61.8262 113.55 61.4262 114.53C61.0462 115.51 60.5062 116.37 59.8062 117.11C59.1262 117.85 58.3162 118.43 57.3762 118.85C56.4362 119.27 55.4162 119.48 54.3162 119.48C52.3962 119.48 50.7962 118.82 49.5162 117.5V126.68ZM69.281 116.9L61.841 103.61H68.141L72.251 111.5L76.241 103.61H82.481L70.121 126.68H64.031L69.281 116.9ZM83.7553 119V103.61H93.3853V108.14H89.1553V119H83.7553ZM100.295 111.26C100.295 111.76 100.385 112.23 100.565 112.67C100.745 113.09 100.985 113.46 101.285 113.78C101.605 114.1 101.975 114.35 102.395 114.53C102.835 114.71 103.305 114.8 103.805 114.8C104.285 114.8 104.735 114.71 105.155 114.53C105.595 114.35 105.965 114.1 106.265 113.78C106.585 113.46 106.835 113.09 107.015 112.67C107.215 112.25 107.315 111.8 107.315 111.32C107.315 110.84 107.215 110.39 107.015 109.97C106.835 109.53 106.585 109.15 106.265 108.83C105.965 108.51 105.595 108.26 105.155 108.08C104.735 107.9 104.285 107.81 103.805 107.81C103.305 107.81 102.835 107.9 102.395 108.08C101.975 108.26 101.605 108.51 101.285 108.83C100.985 109.15 100.745 109.52 100.565 109.94C100.385 110.34 100.295 110.78 100.295 111.26ZM107.135 103.61H112.595V119H107.135V117.29C105.975 118.75 104.405 119.48 102.425 119.48C101.305 119.48 100.275 119.28 99.3349 118.88C98.3949 118.46 97.5749 117.88 96.8749 117.14C96.1749 116.4 95.6249 115.53 95.2249 114.53C94.8449 113.53 94.6549 112.44 94.6549 111.26C94.6549 110.16 94.8449 109.12 95.2249 108.14C95.6049 107.14 96.1349 106.27 96.8149 105.53C97.4949 104.79 98.3049 104.21 99.2449 103.79C100.185 103.35 101.225 103.13 102.365 103.13C104.285 103.13 105.875 103.8 107.135 105.14V103.61ZM117.37 113.27H122.47L116.95 123.2H113.47L117.37 113.27ZM144.811 103.61H150.601L144.511 110.99L151.411 119H145.201L140.311 112.85V119H134.881V103.61H140.311V109.79L144.811 103.61ZM157.838 111.23C157.838 111.75 157.928 112.23 158.108 112.67C158.308 113.09 158.558 113.46 158.858 113.78C159.178 114.1 159.548 114.35 159.968 114.53C160.408 114.71 160.868 114.8 161.348 114.8C161.828 114.8 162.278 114.71 162.698 114.53C163.138 114.35 163.508 114.1 163.808 113.78C164.128 113.46 164.378 113.09 164.558 112.67C164.758 112.23 164.858 111.76 164.858 111.26C164.858 110.78 164.758 110.33 164.558 109.91C164.378 109.47 164.128 109.09 163.808 108.77C163.508 108.45 163.138 108.2 162.698 108.02C162.278 107.84 161.828 107.75 161.348 107.75C160.868 107.75 160.408 107.84 159.968 108.02C159.548 108.2 159.178 108.45 158.858 108.77C158.558 109.09 158.308 109.46 158.108 109.88C157.928 110.3 157.838 110.75 157.838 111.23ZM152.108 111.17C152.108 110.03 152.338 108.97 152.798 107.99C153.258 106.99 153.898 106.13 154.718 105.41C155.538 104.67 156.508 104.09 157.628 103.67C158.768 103.25 160.008 103.04 161.348 103.04C162.668 103.04 163.888 103.25 165.008 103.67C166.148 104.07 167.128 104.64 167.948 105.38C168.788 106.1 169.438 106.97 169.898 107.99C170.358 108.99 170.588 110.1 170.588 111.32C170.588 112.54 170.348 113.66 169.868 114.68C169.408 115.68 168.768 116.55 167.948 117.29C167.128 118.01 166.138 118.57 164.978 118.97C163.838 119.37 162.598 119.57 161.258 119.57C159.938 119.57 158.718 119.37 157.598 118.97C156.478 118.57 155.508 118 154.688 117.26C153.888 116.52 153.258 115.64 152.798 114.62C152.338 113.58 152.108 112.43 152.108 111.17ZM184.484 108.14H180.884V119H175.454V108.14H171.854V103.61H184.484V108.14ZM191.443 111.23C191.443 111.75 191.533 112.23 191.713 112.67C191.913 113.09 192.163 113.46 192.463 113.78C192.783 114.1 193.153 114.35 193.573 114.53C194.013 114.71 194.473 114.8 194.953 114.8C195.433 114.8 195.883 114.71 196.303 114.53C196.743 114.35 197.113 114.1 197.413 113.78C197.733 113.46 197.983 113.09 198.163 112.67C198.363 112.23 198.463 111.76 198.463 111.26C198.463 110.78 198.363 110.33 198.163 109.91C197.983 109.47 197.733 109.09 197.413 108.77C197.113 108.45 196.743 108.2 196.303 108.02C195.883 107.84 195.433 107.75 194.953 107.75C194.473 107.75 194.013 107.84 193.573 108.02C193.153 108.2 192.783 108.45 192.463 108.77C192.163 109.09 191.913 109.46 191.713 109.88C191.533 110.3 191.443 110.75 191.443 111.23ZM185.713 111.17C185.713 110.03 185.943 108.97 186.403 107.99C186.863 106.99 187.503 106.13 188.323 105.41C189.143 104.67 190.113 104.09 191.233 103.67C192.373 103.25 193.613 103.04 194.953 103.04C196.273 103.04 197.493 103.25 198.613 103.67C199.753 104.07 200.733 104.64 201.553 105.38C202.393 106.1 203.043 106.97 203.503 107.99C203.963 108.99 204.193 110.1 204.193 111.32C204.193 112.54 203.953 113.66 203.473 114.68C203.013 115.68 202.373 116.55 201.553 117.29C200.733 118.01 199.743 118.57 198.583 118.97C197.443 119.37 196.203 119.57 194.863 119.57C193.543 119.57 192.323 119.37 191.203 118.97C190.083 118.57 189.113 118 188.293 117.26C187.493 116.52 186.863 115.64 186.403 114.62C185.943 113.58 185.713 112.43 185.713 111.17ZM218.989 111.35C218.989 110.87 218.899 110.42 218.719 110C218.559 109.56 218.319 109.18 217.999 108.86C217.679 108.54 217.299 108.29 216.859 108.11C216.439 107.91 215.979 107.81 215.479 107.81C214.999 107.81 214.549 107.9 214.129 108.08C213.709 108.26 213.339 108.51 213.019 108.83C212.719 109.15 212.469 109.53 212.269 109.97C212.089 110.39 211.999 110.84 211.999 111.32C211.999 111.8 212.089 112.25 212.269 112.67C212.449 113.09 212.699 113.46 213.019 113.78C213.339 114.08 213.709 114.33 214.129 114.53C214.569 114.71 215.029 114.8 215.509 114.8C215.989 114.8 216.439 114.71 216.859 114.53C217.279 114.35 217.639 114.1 217.939 113.78C218.259 113.46 218.509 113.09 218.689 112.67C218.889 112.25 218.989 111.81 218.989 111.35ZM212.149 126.68H206.719V103.61H212.149V105.32C213.309 103.86 214.889 103.13 216.889 103.13C217.989 103.13 219.009 103.35 219.949 103.79C220.909 104.21 221.739 104.79 222.439 105.53C223.139 106.27 223.679 107.14 224.059 108.14C224.459 109.14 224.659 110.21 224.659 111.35C224.659 112.49 224.459 113.55 224.059 114.53C223.679 115.51 223.139 116.37 222.439 117.11C221.759 117.85 220.949 118.43 220.009 118.85C219.069 119.27 218.049 119.48 216.949 119.48C215.029 119.48 213.429 118.82 212.149 117.5V126.68ZM249.024 103.61V119H243.594V103.61H249.024ZM232.524 115.1H234.624C235.704 115.1 236.244 114.59 236.244 113.57C236.244 112.59 235.704 112.1 234.624 112.1H232.524V115.1ZM232.524 103.61V108.17H235.704C237.544 108.17 238.944 108.6 239.904 109.46C240.864 110.3 241.344 111.53 241.344 113.15C241.344 114.03 241.214 114.83 240.954 115.55C240.694 116.25 240.304 116.86 239.784 117.38C239.284 117.9 238.664 118.3 237.924 118.58C237.184 118.86 236.324 119 235.344 119H227.094V103.61H232.524ZM257.56 103.61V112.22L264.01 103.61H269.44V119H264.01V110.42L257.53 119H252.13V103.61H257.56ZM266.65 95.45C266.47 99.23 264.5 101.12 260.74 101.12C256.96 101.12 254.98 99.23 254.8 95.45H258.28C258.48 97.09 259.3 97.91 260.74 97.91C262.14 97.91 262.96 97.09 263.2 95.45H266.65ZM33.81 133.92V128.61H39.24V144H33.81V138.39H28.29V144H22.86V128.61H28.29V133.92H33.81ZM53.6077 134.07C53.4277 133.31 53.0577 132.7 52.4977 132.24C51.9377 131.78 51.2577 131.55 50.4577 131.55C49.6177 131.55 48.9277 131.77 48.3877 132.21C47.8677 132.65 47.5377 133.27 47.3977 134.07H53.6077ZM47.2477 137.22C47.2477 139.56 48.3477 140.73 50.5477 140.73C51.7277 140.73 52.6177 140.25 53.2177 139.29H58.4677C57.4077 142.81 54.7577 144.57 50.5177 144.57C49.2177 144.57 48.0277 144.38 46.9477 144C45.8677 143.6 44.9377 143.04 44.1577 142.32C43.3977 141.6 42.8077 140.74 42.3877 139.74C41.9677 138.74 41.7577 137.62 41.7577 136.38C41.7577 135.1 41.9577 133.95 42.3577 132.93C42.7577 131.89 43.3277 131.01 44.0677 130.29C44.8077 129.57 45.6977 129.02 46.7377 128.64C47.7977 128.24 48.9877 128.04 50.3077 128.04C51.6077 128.04 52.7777 128.24 53.8177 128.64C54.8577 129.02 55.7377 129.58 56.4577 130.32C57.1777 131.06 57.7277 131.97 58.1077 133.05C58.4877 134.11 58.6777 135.31 58.6777 136.65V137.22H47.2477ZM87.1568 144H81.7268V133.14H76.2068V144H70.7768V128.61H87.1568V144ZM95.7345 140.1H97.8345C98.9145 140.1 99.4545 139.59 99.4545 138.57C99.4545 137.59 98.9145 137.1 97.8345 137.1H95.7345V140.1ZM95.7345 128.61V133.17H98.9145C100.754 133.17 102.154 133.6 103.114 134.46C104.074 135.3 104.554 136.53 104.554 138.15C104.554 139.03 104.424 139.83 104.164 140.55C103.904 141.25 103.514 141.86 102.994 142.38C102.494 142.9 101.874 143.3 101.134 143.58C100.394 143.86 99.5345 144 98.5545 144H90.3045V128.61H95.7345ZM118.005 134.07C117.825 133.31 117.455 132.7 116.895 132.24C116.335 131.78 115.655 131.55 114.855 131.55C114.015 131.55 113.325 131.77 112.785 132.21C112.265 132.65 111.935 133.27 111.795 134.07H118.005ZM111.645 137.22C111.645 139.56 112.745 140.73 114.945 140.73C116.125 140.73 117.015 140.25 117.615 139.29H122.865C121.805 142.81 119.155 144.57 114.915 144.57C113.615 144.57 112.425 144.38 111.345 144C110.265 143.6 109.335 143.04 108.555 142.32C107.795 141.6 107.205 140.74 106.785 139.74C106.365 138.74 106.155 137.62 106.155 136.38C106.155 135.1 106.355 133.95 106.755 132.93C107.155 131.89 107.725 131.01 108.465 130.29C109.205 129.57 110.095 129.02 111.135 128.64C112.195 128.24 113.385 128.04 114.705 128.04C116.005 128.04 117.175 128.24 118.215 128.64C119.255 129.02 120.135 129.58 120.855 130.32C121.575 131.06 122.125 131.97 122.505 133.05C122.885 134.11 123.075 135.31 123.075 136.65V137.22H111.645ZM136.948 133.14H133.348V144H127.918V133.14H124.318V128.61H136.948V133.14ZM143.157 136.41V130.56C143.397 130.6 143.617 130.64 143.817 130.68C144.017 130.7 144.207 130.71 144.387 130.71C144.927 130.71 145.437 130.64 145.917 130.5C146.397 130.34 146.807 130.13 147.147 129.87C147.507 129.61 147.787 129.3 147.987 128.94C148.187 128.56 148.287 128.15 148.287 127.71C148.287 127.11 148.087 126.59 147.687 126.15C147.287 125.71 146.747 125.49 146.067 125.49C145.447 125.49 144.947 125.7 144.567 126.12C144.207 126.54 144.027 127.09 144.027 127.77H138.057C138.057 126.75 138.257 125.82 138.657 124.98C139.077 124.12 139.647 123.38 140.367 122.76C141.107 122.12 141.967 121.63 142.947 121.29C143.947 120.93 145.027 120.75 146.187 120.75C147.367 120.75 148.437 120.95 149.397 121.35C150.377 121.73 151.217 122.25 151.917 122.91C152.617 123.57 153.157 124.33 153.537 125.19C153.917 126.05 154.107 126.94 154.107 127.86C154.107 130.86 152.297 132.99 148.677 134.25V136.41H143.157ZM142.557 141.12C142.557 140.64 142.647 140.19 142.827 139.77C143.007 139.33 143.257 138.95 143.577 138.63C143.897 138.31 144.267 138.06 144.687 137.88C145.127 137.7 145.587 137.61 146.067 137.61C146.547 137.61 146.997 137.7 147.417 137.88C147.857 138.06 148.237 138.31 148.557 138.63C148.877 138.95 149.127 139.33 149.307 139.77C149.487 140.19 149.577 140.64 149.577 141.12C149.577 141.6 149.487 142.06 149.307 142.5C149.127 142.92 148.877 143.29 148.557 143.61C148.237 143.93 147.857 144.18 147.417 144.36C146.997 144.54 146.547 144.63 146.067 144.63C145.587 144.63 145.127 144.54 144.687 144.36C144.267 144.18 143.897 143.93 143.577 143.61C143.257 143.29 143.007 142.92 142.827 142.5C142.647 142.06 142.557 141.6 142.557 141.12Z" fill="white"/>
<path d="M163.12 178.172C164.308 178.172 165.262 178.586 165.982 179.414C166.714 180.242 167.08 181.49 167.08 183.158C167.08 184.802 166.714 186.05 165.982 186.902C165.262 187.754 164.302 188.18 163.102 188.18C162.358 188.18 161.74 188.042 161.248 187.766C160.768 187.478 160.39 187.148 160.114 186.776H160.006C160.03 186.98 160.054 187.238 160.078 187.55C160.102 187.862 160.114 188.132 160.114 188.36V192.32H158.53V178.352H159.826L160.042 179.666H160.114C160.402 179.246 160.78 178.892 161.248 178.604C161.716 178.316 162.34 178.172 163.12 178.172ZM162.832 179.504C161.848 179.504 161.152 179.78 160.744 180.332C160.348 180.884 160.138 181.724 160.114 182.852V183.158C160.114 184.346 160.306 185.264 160.69 185.912C161.086 186.548 161.812 186.866 162.868 186.866C163.456 186.866 163.936 186.704 164.308 186.38C164.692 186.056 164.974 185.618 165.154 185.066C165.346 184.502 165.442 183.86 165.442 183.14C165.442 182.036 165.226 181.154 164.794 180.494C164.374 179.834 163.72 179.504 162.832 179.504ZM172.898 178.19C174.074 178.19 174.944 178.448 175.508 178.964C176.072 179.48 176.354 180.302 176.354 181.43V188H175.202L174.896 186.632H174.824C174.404 187.16 173.96 187.55 173.492 187.802C173.036 188.054 172.4 188.18 171.584 188.18C170.708 188.18 169.982 187.952 169.406 187.496C168.83 187.028 168.542 186.302 168.542 185.318C168.542 184.358 168.92 183.62 169.676 183.104C170.432 182.576 171.596 182.288 173.168 182.24L174.806 182.186V181.61C174.806 180.806 174.632 180.248 174.284 179.936C173.936 179.624 173.444 179.468 172.808 179.468C172.304 179.468 171.824 179.546 171.368 179.702C170.912 179.846 170.486 180.014 170.09 180.206L169.604 179.018C170.024 178.79 170.522 178.598 171.098 178.442C171.674 178.274 172.274 178.19 172.898 178.19ZM173.366 183.338C172.166 183.386 171.332 183.578 170.864 183.914C170.408 184.25 170.18 184.724 170.18 185.336C170.18 185.876 170.342 186.272 170.666 186.524C171.002 186.776 171.428 186.902 171.944 186.902C172.76 186.902 173.438 186.68 173.978 186.236C174.518 185.78 174.788 185.084 174.788 184.148V183.284L173.366 183.338ZM178.47 182.204C178.47 180.092 178.788 178.448 179.424 177.272C180.06 176.084 181.086 175.34 182.502 175.04C183.282 174.872 184.044 174.722 184.788 174.59C185.532 174.458 186.228 174.338 186.876 174.23L187.146 175.616C186.726 175.676 186.252 175.754 185.724 175.85C185.196 175.934 184.674 176.024 184.158 176.12C183.642 176.204 183.198 176.288 182.826 176.372C182.046 176.54 181.428 176.948 180.972 177.596C180.516 178.232 180.258 179.228 180.198 180.584H180.306C180.474 180.356 180.702 180.122 180.99 179.882C181.29 179.642 181.644 179.438 182.052 179.27C182.472 179.102 182.946 179.018 183.474 179.018C184.722 179.018 185.664 179.42 186.3 180.224C186.936 181.028 187.254 182.072 187.254 183.356C187.254 184.424 187.068 185.318 186.696 186.038C186.324 186.758 185.808 187.298 185.148 187.658C184.488 188.006 183.72 188.18 182.844 188.18C181.512 188.18 180.45 187.67 179.658 186.65C178.866 185.63 178.47 184.148 178.47 182.204ZM182.97 186.866C183.75 186.866 184.38 186.614 184.86 186.11C185.34 185.606 185.58 184.742 185.58 183.518C185.58 182.534 185.394 181.76 185.022 181.196C184.662 180.62 184.062 180.332 183.222 180.332C182.694 180.332 182.214 180.452 181.782 180.692C181.35 180.92 180.99 181.184 180.702 181.484C180.414 181.784 180.21 182.036 180.09 182.24C180.09 182.828 180.132 183.398 180.216 183.95C180.3 184.502 180.444 185 180.648 185.444C180.864 185.876 181.158 186.224 181.53 186.488C181.914 186.74 182.394 186.866 182.97 186.866ZM197.777 183.158C197.777 184.754 197.369 185.99 196.553 186.866C195.749 187.742 194.657 188.18 193.277 188.18C192.425 188.18 191.663 187.988 190.991 187.604C190.331 187.208 189.809 186.638 189.425 185.894C189.041 185.138 188.849 184.226 188.849 183.158C188.849 181.562 189.251 180.332 190.055 179.468C190.859 178.604 191.951 178.172 193.331 178.172C194.207 178.172 194.975 178.37 195.635 178.766C196.307 179.15 196.829 179.714 197.201 180.458C197.585 181.19 197.777 182.09 197.777 183.158ZM190.487 183.158C190.487 184.298 190.709 185.204 191.153 185.876C191.609 186.536 192.329 186.866 193.313 186.866C194.285 186.866 194.999 186.536 195.455 185.876C195.911 185.204 196.139 184.298 196.139 183.158C196.139 182.018 195.911 181.124 195.455 180.476C194.999 179.828 194.279 179.504 193.295 179.504C192.311 179.504 191.597 179.828 191.153 180.476C190.709 181.124 190.487 182.018 190.487 183.158ZM201.138 181.862C201.138 182.966 201.756 183.518 202.992 183.518C203.592 183.518 204.138 183.428 204.63 183.248C205.122 183.056 205.626 182.804 206.142 182.492V178.352H207.726V188H206.142V183.698C205.602 184.046 205.068 184.322 204.54 184.526C204.024 184.718 203.4 184.814 202.668 184.814C201.684 184.814 200.916 184.556 200.364 184.04C199.824 183.524 199.554 182.834 199.554 181.97V178.352H201.138V181.862ZM211.925 184.238C211.925 184.382 211.919 184.598 211.907 184.886C211.895 185.174 211.877 185.462 211.853 185.75C211.841 186.038 211.829 186.266 211.817 186.434L216.983 178.352H218.927V188H217.451V182.312C217.451 182.12 217.451 181.868 217.451 181.556C217.463 181.244 217.475 180.938 217.487 180.638C217.499 180.326 217.511 180.092 217.523 179.936L212.393 188H210.431V178.352H211.925V184.238ZM229.45 174.356C229.366 175.256 229.06 175.94 228.532 176.408C228.016 176.864 227.188 177.092 226.048 177.092C224.872 177.092 224.038 176.864 223.546 176.408C223.066 175.952 222.796 175.268 222.736 174.356H224.212C224.272 175.004 224.44 175.442 224.716 175.67C225.004 175.886 225.46 175.994 226.084 175.994C226.636 175.994 227.068 175.88 227.38 175.652C227.704 175.412 227.896 174.98 227.956 174.356H229.45ZM223.132 184.238C223.132 184.382 223.126 184.598 223.114 184.886C223.102 185.174 223.084 185.462 223.06 185.75C223.048 186.038 223.036 186.266 223.024 186.434L228.19 178.352H230.134V188H228.658V182.312C228.658 182.12 228.658 181.868 228.658 181.556C228.67 181.244 228.682 180.938 228.694 180.638C228.706 180.326 228.718 180.092 228.73 179.936L223.6 188H221.638V178.352H223.132V184.238ZM243.575 173.955L245.078 175.08L241.835 179.492C242.011 179.469 242.16 179.451 242.283 179.439C242.406 179.428 242.503 179.422 242.573 179.422C243.675 179.422 244.627 179.844 245.43 180.688C246.226 181.52 246.625 182.521 246.625 183.693C246.625 184.936 246.18 186.002 245.289 186.893C244.404 187.777 243.341 188.22 242.099 188.22C240.868 188.22 239.79 187.783 238.864 186.91C237.956 186.037 237.502 185.003 237.502 183.808C237.502 182.735 237.944 181.599 238.829 180.397L243.575 173.955ZM244.63 183.825C244.63 183.104 244.381 182.495 243.883 181.997C243.379 181.493 242.772 181.241 242.063 181.241C241.349 181.241 240.742 181.49 240.244 181.988C239.746 182.486 239.497 183.09 239.497 183.799C239.497 184.508 239.746 185.111 240.244 185.609C240.742 186.107 241.351 186.356 242.072 186.356C242.775 186.356 243.376 186.107 243.874 185.609C244.378 185.105 244.63 184.511 244.63 183.825ZM251.767 186.075H256.821V188H247.706L252.417 182.296C252.88 181.728 253.267 181.235 253.577 180.819C253.894 180.403 254.134 180.055 254.298 179.773C254.632 179.223 254.799 178.728 254.799 178.288C254.799 177.655 254.576 177.125 254.131 176.697C253.686 176.27 253.135 176.056 252.479 176.056C251.108 176.056 250.323 176.867 250.123 178.49H248.084C248.412 175.631 249.857 174.201 252.417 174.201C253.654 174.201 254.691 174.594 255.529 175.379C256.372 176.164 256.794 177.137 256.794 178.297C256.794 179.035 256.598 179.759 256.205 180.468C256.006 180.837 255.713 181.276 255.326 181.786C254.946 182.29 254.462 182.888 253.876 183.579L251.767 186.075ZM258.772 181.127C258.772 178.965 259.276 177.239 260.284 175.95C261.186 174.784 262.279 174.201 263.562 174.201C264.845 174.201 265.938 174.784 266.84 175.95C267.848 177.239 268.352 178.994 268.352 181.215C268.352 183.43 267.848 185.182 266.84 186.471C265.938 187.637 264.848 188.22 263.571 188.22C262.294 188.22 261.198 187.637 260.284 186.471C259.276 185.182 258.772 183.4 258.772 181.127ZM260.785 181.136C260.785 182.642 261.046 183.893 261.567 184.889C262.088 185.867 262.754 186.356 263.562 186.356C264.365 186.356 265.03 185.867 265.557 184.889C266.085 183.916 266.348 182.688 266.348 181.206C266.348 179.724 266.085 178.493 265.557 177.515C265.03 176.542 264.365 176.056 263.562 176.056C262.765 176.056 262.103 176.542 261.576 177.515C261.048 178.481 260.785 179.688 260.785 181.136ZM272.8 188.466L271.297 187.35L274.54 182.929C274.364 182.952 274.215 182.97 274.092 182.981C273.969 182.993 273.869 182.999 273.793 182.999C272.697 182.999 271.748 182.58 270.945 181.742C270.148 180.91 269.75 179.908 269.75 178.736C269.75 177.488 270.192 176.422 271.077 175.537C271.968 174.646 273.034 174.201 274.276 174.201C275.513 174.201 276.588 174.641 277.502 175.52C278.416 176.393 278.873 177.424 278.873 178.613C278.873 179.668 278.428 180.808 277.537 182.032L272.8 188.466ZM271.745 178.587C271.745 179.319 271.994 179.935 272.492 180.433C272.996 180.937 273.603 181.188 274.311 181.188C275.02 181.188 275.624 180.939 276.122 180.441C276.626 179.938 276.878 179.331 276.878 178.622C276.878 177.913 276.626 177.307 276.122 176.803C275.624 176.305 275.018 176.056 274.303 176.056C273.6 176.056 272.999 176.305 272.501 176.803C271.997 177.307 271.745 177.901 271.745 178.587Z" fill="white"/>
<defs>
<filter id="filter0_b" x="-100" y="-100" width="505" height="435.962" filterUnits="userSpaceOnUse" color-interpolation-filters="sRGB">
<feFlood flood-opacity="0" result="BackgroundImageFix"/>
<feGaussianBlur in="BackgroundImage" stdDeviation="50"/>
<feComposite in2="SourceAlpha" operator="in" result="effect1_backgroundBlur"/>
<feBlend mode="normal" in="SourceGraphic" in2="effect1_backgroundBlur" result="shape"/>
</filter>
</defs>
</svg>
