<svg width="305" height="236" viewBox="0 0 305 236" fill="none" xmlns="http://www.w3.org/2000/svg">
<g filter="url(#filter0_b)">
<mask id="path-1-inside-1" fill="white">
<path fill-rule="evenodd" clip-rule="evenodd" d="M305 50C305 22.3858 282.614 0 255 0H50C22.3858 0 0 22.3857 0 50V160.433C0 188.047 22.3857 210.433 50 210.433H199.843C208.268 210.433 215.882 215.454 219.201 223.198V223.198C226.495 240.217 250.623 240.217 257.917 223.198V223.198C261.236 215.454 268.851 210.433 277.276 210.433H279.923C293.773 210.433 305 199.206 305 185.356V50Z"/>
</mask>
<path fill-rule="evenodd" clip-rule="evenodd" d="M305 50C305 22.3858 282.614 0 255 0H50C22.3858 0 0 22.3857 0 50V160.433C0 188.047 22.3857 210.433 50 210.433H199.843C208.268 210.433 215.882 215.454 219.201 223.198V223.198C226.495 240.217 250.623 240.217 257.917 223.198V223.198C261.236 215.454 268.851 210.433 277.276 210.433H279.923C293.773 210.433 305 199.206 305 185.356V50Z" fill="#6974D1"/>
<path d="M50 5H255V-5H50V5ZM5 160.433V50H-5V160.433H5ZM199.843 205.433H50V215.433H199.843V205.433ZM279.923 205.433H277.276V215.433H279.923V205.433ZM300 50V185.356H310V50H300ZM279.923 215.433C296.534 215.433 310 201.967 310 185.356H300C300 196.444 291.011 205.433 279.923 205.433V215.433ZM262.513 225.167C265.044 219.262 270.851 215.433 277.276 215.433V205.433C266.85 205.433 257.428 211.646 253.322 221.228L262.513 225.167ZM214.605 225.167C223.631 246.227 253.487 246.227 262.513 225.167L253.322 221.228C247.759 234.207 229.359 234.207 223.797 221.228L214.605 225.167ZM199.843 215.433C206.268 215.433 212.074 219.262 214.605 225.167L223.797 221.228C219.69 211.646 210.268 205.433 199.843 205.433V215.433ZM-5 160.433C-5 190.809 19.6243 215.433 50 215.433V205.433C25.1472 205.433 5 185.286 5 160.433H-5ZM255 5C279.853 5 300 25.1472 300 50H310C310 19.6243 285.376 -5 255 -5V5ZM50 -5C19.6243 -5 -5 19.6243 -5 50H5C5 25.1472 25.1472 5 50 5V-5Z" fill="white" mask="url(#path-1-inside-1)"/>
</g>
<path d="M166.4 188.18C165.548 188.18 164.786 188.006 164.114 187.658C163.454 187.31 162.932 186.77 162.548 186.038C162.176 185.306 161.99 184.37 161.99 183.23C161.99 182.042 162.188 181.076 162.584 180.332C162.98 179.588 163.514 179.042 164.186 178.694C164.87 178.346 165.644 178.172 166.508 178.172C167 178.172 167.474 178.226 167.93 178.334C168.386 178.43 168.758 178.55 169.046 178.694L168.56 180.008C168.272 179.9 167.936 179.798 167.552 179.702C167.168 179.606 166.808 179.558 166.472 179.558C164.576 179.558 163.628 180.776 163.628 183.212C163.628 184.376 163.856 185.27 164.312 185.894C164.78 186.506 165.47 186.812 166.382 186.812C166.91 186.812 167.372 186.758 167.768 186.65C168.176 186.542 168.548 186.41 168.884 186.254V187.658C168.56 187.826 168.2 187.952 167.804 188.036C167.42 188.132 166.952 188.18 166.4 188.18ZM179.206 183.158C179.206 184.754 178.798 185.99 177.982 186.866C177.178 187.742 176.086 188.18 174.706 188.18C173.854 188.18 173.092 187.988 172.42 187.604C171.76 187.208 171.238 186.638 170.854 185.894C170.47 185.138 170.278 184.226 170.278 183.158C170.278 181.562 170.68 180.332 171.484 179.468C172.288 178.604 173.38 178.172 174.76 178.172C175.636 178.172 176.404 178.37 177.064 178.766C177.736 179.15 178.258 179.714 178.63 180.458C179.014 181.19 179.206 182.09 179.206 183.158ZM171.916 183.158C171.916 184.298 172.138 185.204 172.582 185.876C173.038 186.536 173.758 186.866 174.742 186.866C175.714 186.866 176.428 186.536 176.884 185.876C177.34 185.204 177.568 184.298 177.568 183.158C177.568 182.018 177.34 181.124 176.884 180.476C176.428 179.828 175.708 179.504 174.724 179.504C173.74 179.504 173.026 179.828 172.582 180.476C172.138 181.124 171.916 182.018 171.916 183.158ZM188.701 188H187.099V179.666H184.255C184.099 181.694 183.883 183.332 183.607 184.58C183.331 185.816 182.965 186.716 182.509 187.28C182.053 187.844 181.477 188.126 180.781 188.126C180.625 188.126 180.469 188.114 180.313 188.09C180.169 188.078 180.049 188.048 179.953 188V186.812C180.025 186.836 180.103 186.854 180.187 186.866C180.271 186.878 180.355 186.884 180.439 186.884C181.087 186.884 181.603 186.194 181.987 184.814C182.383 183.434 182.683 181.28 182.887 178.352H188.701V188ZM195.057 178.19C196.233 178.19 197.103 178.448 197.667 178.964C198.231 179.48 198.513 180.302 198.513 181.43V188H197.361L197.055 186.632H196.983C196.563 187.16 196.119 187.55 195.651 187.802C195.195 188.054 194.559 188.18 193.743 188.18C192.867 188.18 192.141 187.952 191.565 187.496C190.989 187.028 190.701 186.302 190.701 185.318C190.701 184.358 191.079 183.62 191.835 183.104C192.591 182.576 193.755 182.288 195.327 182.24L196.965 182.186V181.61C196.965 180.806 196.791 180.248 196.443 179.936C196.095 179.624 195.603 179.468 194.967 179.468C194.463 179.468 193.983 179.546 193.527 179.702C193.071 179.846 192.645 180.014 192.249 180.206L191.763 179.018C192.183 178.79 192.681 178.598 193.257 178.442C193.833 178.274 194.433 178.19 195.057 178.19ZM195.525 183.338C194.325 183.386 193.491 183.578 193.023 183.914C192.567 184.25 192.339 184.724 192.339 185.336C192.339 185.876 192.501 186.272 192.825 186.524C193.161 186.776 193.587 186.902 194.103 186.902C194.919 186.902 195.597 186.68 196.137 186.236C196.677 185.78 196.947 185.084 196.947 184.148V183.284L195.525 183.338ZM208.297 178.352V186.668H209.701V191.348H208.171V188H201.457V191.348H199.945V186.668H200.719C201.547 185.528 202.165 184.232 202.573 182.78C202.993 181.316 203.209 179.84 203.221 178.352H208.297ZM204.625 179.594C204.577 180.41 204.451 181.256 204.247 182.132C204.043 182.996 203.779 183.824 203.455 184.616C203.143 185.408 202.777 186.092 202.357 186.668H206.767V179.594H204.625ZM214.886 178.19C216.062 178.19 216.932 178.448 217.496 178.964C218.06 179.48 218.342 180.302 218.342 181.43V188H217.19L216.884 186.632H216.812C216.392 187.16 215.948 187.55 215.48 187.802C215.024 188.054 214.388 188.18 213.572 188.18C212.696 188.18 211.97 187.952 211.394 187.496C210.818 187.028 210.53 186.302 210.53 185.318C210.53 184.358 210.908 183.62 211.664 183.104C212.42 182.576 213.584 182.288 215.156 182.24L216.794 182.186V181.61C216.794 180.806 216.62 180.248 216.272 179.936C215.924 179.624 215.432 179.468 214.796 179.468C214.292 179.468 213.812 179.546 213.356 179.702C212.9 179.846 212.474 180.014 212.078 180.206L211.592 179.018C212.012 178.79 212.51 178.598 213.086 178.442C213.662 178.274 214.262 178.19 214.886 178.19ZM215.354 183.338C214.154 183.386 213.32 183.578 212.852 183.914C212.396 184.25 212.168 184.724 212.168 185.336C212.168 185.876 212.33 186.272 212.654 186.524C212.99 186.776 213.416 186.902 213.932 186.902C214.748 186.902 215.426 186.68 215.966 186.236C216.506 185.78 216.776 185.084 216.776 184.148V183.284L215.354 183.338ZM227.622 179.684H224.472V188H222.906V179.684H219.792V178.352H227.622V179.684ZM242.68 181.698V179.949C243.547 179.949 244.13 179.853 244.429 179.659C244.962 179.319 245.229 178.774 245.229 178.024C245.229 177.444 245.035 176.973 244.649 176.609C244.268 176.24 243.773 176.056 243.163 176.056C242.595 176.056 242.156 176.193 241.845 176.469C241.546 176.75 241.323 177.225 241.177 177.893H239.138C239.349 176.615 239.782 175.681 240.439 175.089C241.095 174.491 242.012 174.192 243.19 174.192C244.379 174.192 245.349 174.544 246.099 175.247C246.849 175.944 247.224 176.844 247.224 177.945C247.224 179.188 246.732 180.154 245.747 180.846C246.872 181.508 247.435 182.583 247.435 184.071C247.435 185.29 247.025 186.286 246.204 187.06C245.384 187.833 244.332 188.22 243.049 188.22C241.414 188.22 240.201 187.619 239.41 186.418C239.082 185.914 238.874 185.217 238.786 184.326H240.764C240.869 184.982 241.124 185.486 241.529 185.838C241.939 186.184 242.472 186.356 243.128 186.356C243.79 186.356 244.338 186.137 244.772 185.697C245.205 185.246 245.422 184.675 245.422 183.983C245.422 183.069 245.097 182.419 244.447 182.032C244.066 181.81 243.477 181.698 242.68 181.698ZM255.609 176.346H248.912V174.43H259.028L250.467 188.466L248.841 187.438L255.609 176.346ZM261.858 180.942C260.862 180.239 260.364 179.281 260.364 178.068C260.364 176.967 260.742 176.047 261.498 175.309C262.26 174.57 263.206 174.201 264.337 174.201C265.462 174.201 266.399 174.57 267.149 175.309C267.899 176.041 268.274 176.964 268.274 178.077C268.274 179.243 267.779 180.195 266.789 180.934C267.334 181.227 267.762 181.654 268.072 182.217C268.389 182.779 268.547 183.412 268.547 184.115C268.547 185.316 268.154 186.301 267.369 187.068C266.584 187.836 265.579 188.22 264.354 188.22C263.101 188.22 262.066 187.833 261.252 187.06C260.432 186.286 260.021 185.313 260.021 184.142C260.021 182.618 260.634 181.552 261.858 180.942ZM262.289 178.06C262.289 178.64 262.485 179.126 262.878 179.519C263.276 179.917 263.757 180.116 264.319 180.116C264.876 180.116 265.353 179.917 265.752 179.519C266.15 179.12 266.35 178.643 266.35 178.086C266.35 177.529 266.15 177.052 265.752 176.653C265.353 176.255 264.876 176.056 264.319 176.056C263.763 176.056 263.285 176.255 262.887 176.653C262.488 177.052 262.289 177.521 262.289 178.06ZM262.034 184.071C262.034 184.698 262.251 185.237 262.685 185.688C263.124 186.134 263.657 186.356 264.284 186.356C264.905 186.356 265.436 186.137 265.875 185.697C266.314 185.252 266.534 184.719 266.534 184.098C266.534 183.471 266.314 182.938 265.875 182.498C265.436 182.059 264.905 181.839 264.284 181.839C263.669 181.839 263.139 182.059 262.693 182.498C262.254 182.938 262.034 183.462 262.034 184.071ZM270.243 181.127C270.243 178.965 270.747 177.239 271.755 175.95C272.658 174.784 273.75 174.201 275.034 174.201C276.317 174.201 277.409 174.784 278.312 175.95C279.32 177.239 279.824 178.994 279.824 181.215C279.824 183.43 279.32 185.182 278.312 186.471C277.409 187.637 276.32 188.22 275.042 188.22C273.765 188.22 272.669 187.637 271.755 186.471C270.747 185.182 270.243 183.4 270.243 181.127ZM272.256 181.136C272.256 182.642 272.517 183.893 273.038 184.889C273.56 185.867 274.225 186.356 275.034 186.356C275.836 186.356 276.501 185.867 277.029 184.889C277.556 183.916 277.82 182.688 277.82 181.206C277.82 179.724 277.556 178.493 277.029 177.515C276.501 176.542 275.836 176.056 275.034 176.056C274.237 176.056 273.575 176.542 273.047 177.515C272.52 178.481 272.256 179.688 272.256 181.136Z" fill="white"/>
<path d="M30.44 67.9L23 54.61H29.3L33.41 62.5L37.4 54.61H43.64L31.28 77.68H25.19L30.44 67.9ZM57.1843 62.35C57.1843 61.87 57.0943 61.42 56.9143 61C56.7543 60.56 56.5143 60.18 56.1943 59.86C55.8743 59.54 55.4943 59.29 55.0543 59.11C54.6343 58.91 54.1743 58.81 53.6743 58.81C53.1943 58.81 52.7443 58.9 52.3243 59.08C51.9043 59.26 51.5343 59.51 51.2143 59.83C50.9143 60.15 50.6643 60.53 50.4643 60.97C50.2843 61.39 50.1943 61.84 50.1943 62.32C50.1943 62.8 50.2843 63.25 50.4643 63.67C50.6443 64.09 50.8943 64.46 51.2143 64.78C51.5343 65.08 51.9043 65.33 52.3243 65.53C52.7643 65.71 53.2243 65.8 53.7043 65.8C54.1843 65.8 54.6343 65.71 55.0543 65.53C55.4743 65.35 55.8343 65.1 56.1343 64.78C56.4543 64.46 56.7043 64.09 56.8843 63.67C57.0843 63.25 57.1843 62.81 57.1843 62.35ZM50.3443 77.68H44.9143V54.61H50.3443V56.32C51.5043 54.86 53.0843 54.13 55.0843 54.13C56.1843 54.13 57.2043 54.35 58.1443 54.79C59.1043 55.21 59.9343 55.79 60.6343 56.53C61.3343 57.27 61.8743 58.14 62.2543 59.14C62.6543 60.14 62.8543 61.21 62.8543 62.35C62.8543 63.49 62.6543 64.55 62.2543 65.53C61.8743 66.51 61.3343 67.37 60.6343 68.11C59.9543 68.85 59.1443 69.43 58.2043 69.85C57.2643 70.27 56.2443 70.48 55.1443 70.48C53.2243 70.48 51.6243 69.82 50.3443 68.5V77.68ZM70.3895 62.26C70.3895 62.76 70.4795 63.23 70.6595 63.67C70.8395 64.09 71.0795 64.46 71.3795 64.78C71.6995 65.1 72.0695 65.35 72.4895 65.53C72.9295 65.71 73.3995 65.8 73.8995 65.8C74.3795 65.8 74.8295 65.71 75.2495 65.53C75.6895 65.35 76.0595 65.1 76.3595 64.78C76.6795 64.46 76.9295 64.09 77.1095 63.67C77.3095 63.25 77.4095 62.8 77.4095 62.32C77.4095 61.84 77.3095 61.39 77.1095 60.97C76.9295 60.53 76.6795 60.15 76.3595 59.83C76.0595 59.51 75.6895 59.26 75.2495 59.08C74.8295 58.9 74.3795 58.81 73.8995 58.81C73.3995 58.81 72.9295 58.9 72.4895 59.08C72.0695 59.26 71.6995 59.51 71.3795 59.83C71.0795 60.15 70.8395 60.52 70.6595 60.94C70.4795 61.34 70.3895 61.78 70.3895 62.26ZM77.2295 54.61H82.6895V70H77.2295V68.29C76.0695 69.75 74.4995 70.48 72.5195 70.48C71.3995 70.48 70.3695 70.28 69.4295 69.88C68.4895 69.46 67.6695 68.88 66.9695 68.14C66.2695 67.4 65.7195 66.53 65.3195 65.53C64.9395 64.53 64.7495 63.44 64.7495 62.26C64.7495 61.16 64.9395 60.12 65.3195 59.14C65.6995 58.14 66.2295 57.27 66.9095 56.53C67.5895 55.79 68.3995 55.21 69.3395 54.79C70.2795 54.35 71.3195 54.13 72.4595 54.13C74.3795 54.13 75.9695 54.8 77.2295 56.14V54.61ZM87.4646 64.27H92.5646L87.0446 74.2H83.5646L87.4646 64.27ZM35.81 84.92V79.61H41.24V95H35.81V89.39H30.29V95H24.86V79.61H30.29V84.92H35.81ZM49.3977 87.26C49.3977 87.76 49.4877 88.23 49.6677 88.67C49.8477 89.09 50.0877 89.46 50.3877 89.78C50.7077 90.1 51.0777 90.35 51.4977 90.53C51.9377 90.71 52.4077 90.8 52.9077 90.8C53.3877 90.8 53.8377 90.71 54.2577 90.53C54.6977 90.35 55.0677 90.1 55.3677 89.78C55.6877 89.46 55.9377 89.09 56.1177 88.67C56.3177 88.25 56.4177 87.8 56.4177 87.32C56.4177 86.84 56.3177 86.39 56.1177 85.97C55.9377 85.53 55.6877 85.15 55.3677 84.83C55.0677 84.51 54.6977 84.26 54.2577 84.08C53.8377 83.9 53.3877 83.81 52.9077 83.81C52.4077 83.81 51.9377 83.9 51.4977 84.08C51.0777 84.26 50.7077 84.51 50.3877 84.83C50.0877 85.15 49.8477 85.52 49.6677 85.94C49.4877 86.34 49.3977 86.78 49.3977 87.26ZM56.2377 79.61H61.6977V95H56.2377V93.29C55.0777 94.75 53.5077 95.48 51.5277 95.48C50.4077 95.48 49.3777 95.28 48.4377 94.88C47.4977 94.46 46.6777 93.88 45.9777 93.14C45.2777 92.4 44.7277 91.53 44.3277 90.53C43.9477 89.53 43.7577 88.44 43.7577 87.26C43.7577 86.16 43.9477 85.12 44.3277 84.14C44.7077 83.14 45.2377 82.27 45.9177 81.53C46.5977 80.79 47.4077 80.21 48.3477 79.79C49.2877 79.35 50.3277 79.13 51.4677 79.13C53.3877 79.13 54.9777 79.8 56.2377 81.14V79.61ZM74.7228 79.61H80.5128L74.4228 86.99L81.3228 95H75.1128L70.2228 88.85V95H64.7928V79.61H70.2228V85.79L74.7228 79.61ZM87.7505 87.23C87.7505 87.75 87.8405 88.23 88.0205 88.67C88.2205 89.09 88.4705 89.46 88.7705 89.78C89.0905 90.1 89.4605 90.35 89.8805 90.53C90.3205 90.71 90.7805 90.8 91.2605 90.8C91.7405 90.8 92.1905 90.71 92.6105 90.53C93.0505 90.35 93.4205 90.1 93.7205 89.78C94.0405 89.46 94.2905 89.09 94.4705 88.67C94.6705 88.23 94.7705 87.76 94.7705 87.26C94.7705 86.78 94.6705 86.33 94.4705 85.91C94.2905 85.47 94.0405 85.09 93.7205 84.77C93.4205 84.45 93.0505 84.2 92.6105 84.02C92.1905 83.84 91.7405 83.75 91.2605 83.75C90.7805 83.75 90.3205 83.84 89.8805 84.02C89.4605 84.2 89.0905 84.45 88.7705 84.77C88.4705 85.09 88.2205 85.46 88.0205 85.88C87.8405 86.3 87.7505 86.75 87.7505 87.23ZM82.0205 87.17C82.0205 86.03 82.2505 84.97 82.7105 83.99C83.1705 82.99 83.8105 82.13 84.6305 81.41C85.4505 80.67 86.4205 80.09 87.5405 79.67C88.6805 79.25 89.9205 79.04 91.2605 79.04C92.5805 79.04 93.8005 79.25 94.9205 79.67C96.0605 80.07 97.0405 80.64 97.8605 81.38C98.7005 82.1 99.3505 82.97 99.8105 83.99C100.271 84.99 100.501 86.1 100.501 87.32C100.501 88.54 100.261 89.66 99.7805 90.68C99.3205 91.68 98.6805 92.55 97.8605 93.29C97.0405 94.01 96.0505 94.57 94.8905 94.97C93.7505 95.37 92.5105 95.57 91.1705 95.57C89.8505 95.57 88.6305 95.37 87.5105 94.97C86.3905 94.57 85.4205 94 84.6005 93.26C83.8005 92.52 83.1705 91.64 82.7105 90.62C82.2505 89.58 82.0205 88.43 82.0205 87.17ZM113.976 84.92V79.61H119.406V95H113.976V89.39H108.456V95H103.026V79.61H108.456V84.92H113.976ZM133.774 85.07C133.594 84.31 133.224 83.7 132.664 83.24C132.104 82.78 131.424 82.55 130.624 82.55C129.784 82.55 129.094 82.77 128.554 83.21C128.034 83.65 127.704 84.27 127.564 85.07H133.774ZM127.414 88.22C127.414 90.56 128.514 91.73 130.714 91.73C131.894 91.73 132.784 91.25 133.384 90.29H138.634C137.574 93.81 134.924 95.57 130.684 95.57C129.384 95.57 128.194 95.38 127.114 95C126.034 94.6 125.104 94.04 124.324 93.32C123.564 92.6 122.974 91.74 122.554 90.74C122.134 89.74 121.924 88.62 121.924 87.38C121.924 86.1 122.124 84.95 122.524 83.93C122.924 82.89 123.494 82.01 124.234 81.29C124.974 80.57 125.864 80.02 126.904 79.64C127.964 79.24 129.154 79.04 130.474 79.04C131.774 79.04 132.944 79.24 133.984 79.64C135.024 80.02 135.904 80.58 136.624 81.32C137.344 82.06 137.894 82.97 138.274 84.05C138.654 85.11 138.844 86.31 138.844 87.65V88.22H127.414ZM159.558 90.47V98.15H154.128V95H141.348V79.61H146.778V90.47H152.298V79.61H157.728V90.47H159.558ZM160.187 84.71H168.797V89.24H160.187V84.71ZM181.43 84.14H177.83V95H172.4V84.14H168.8V79.61H181.43V84.14ZM188.389 87.23C188.389 87.75 188.479 88.23 188.659 88.67C188.859 89.09 189.109 89.46 189.409 89.78C189.729 90.1 190.099 90.35 190.519 90.53C190.959 90.71 191.419 90.8 191.899 90.8C192.379 90.8 192.829 90.71 193.249 90.53C193.689 90.35 194.059 90.1 194.359 89.78C194.679 89.46 194.929 89.09 195.109 88.67C195.309 88.23 195.409 87.76 195.409 87.26C195.409 86.78 195.309 86.33 195.109 85.91C194.929 85.47 194.679 85.09 194.359 84.77C194.059 84.45 193.689 84.2 193.249 84.02C192.829 83.84 192.379 83.75 191.899 83.75C191.419 83.75 190.959 83.84 190.519 84.02C190.099 84.2 189.729 84.45 189.409 84.77C189.109 85.09 188.859 85.46 188.659 85.88C188.479 86.3 188.389 86.75 188.389 87.23ZM182.659 87.17C182.659 86.03 182.889 84.97 183.349 83.99C183.809 82.99 184.449 82.13 185.269 81.41C186.089 80.67 187.059 80.09 188.179 79.67C189.319 79.25 190.559 79.04 191.899 79.04C193.219 79.04 194.439 79.25 195.559 79.67C196.699 80.07 197.679 80.64 198.499 81.38C199.339 82.1 199.989 82.97 200.449 83.99C200.909 84.99 201.139 86.1 201.139 87.32C201.139 88.54 200.899 89.66 200.419 90.68C199.959 91.68 199.319 92.55 198.499 93.29C197.679 94.01 196.689 94.57 195.529 94.97C194.389 95.37 193.149 95.57 191.809 95.57C190.489 95.57 189.269 95.37 188.149 94.97C187.029 94.57 186.059 94 185.239 93.26C184.439 92.52 183.809 91.64 183.349 90.62C182.889 89.58 182.659 88.43 182.659 87.17ZM33.44 108.57H31.76C31.24 108.57 30.83 108.72 30.53 109.02C30.23 109.3 30.08 109.69 30.08 110.19C30.08 110.71 30.23 111.12 30.53 111.42C30.83 111.7 31.24 111.84 31.76 111.84H33.44V108.57ZM27.83 114.78C26.95 114.5 26.27 113.95 25.79 113.13C25.31 112.31 25.07 111.3 25.07 110.1C25.07 109.34 25.19 108.63 25.43 107.97C25.69 107.29 26.07 106.71 26.57 106.23C27.07 105.73 27.69 105.34 28.43 105.06C29.17 104.76 30.03 104.61 31.01 104.61H38.87V120H33.44V115.2H32.51L29.87 120H24.14L27.83 114.78ZM60.8499 116.34C60.4899 116.42 60.1199 116.49 59.7399 116.55C59.3799 116.59 58.9899 116.61 58.5699 116.61C57.2099 116.61 56.0399 116.43 55.0599 116.07C54.0799 115.69 53.2799 115.15 52.6599 114.45C52.0399 113.73 51.5799 112.85 51.2799 111.81C50.9999 110.77 50.8599 109.58 50.8599 108.24V104.61H56.2899V108.42C56.2899 109.2 56.3499 109.84 56.4699 110.34C56.6099 110.82 56.7999 111.19 57.0399 111.45C57.2799 111.71 57.5599 111.89 57.8799 111.99C58.1999 112.07 58.5499 112.11 58.9299 112.11C59.7099 112.11 60.3499 111.86 60.8499 111.36V104.61H66.2799V120H60.8499V116.34ZM80.7777 109.14H77.1777V120H71.7477V109.14H68.1477V104.61H80.7777V109.14ZM87.7365 112.23C87.7365 112.75 87.8265 113.23 88.0065 113.67C88.2065 114.09 88.4565 114.46 88.7565 114.78C89.0765 115.1 89.4465 115.35 89.8665 115.53C90.3065 115.71 90.7665 115.8 91.2465 115.8C91.7265 115.8 92.1765 115.71 92.5965 115.53C93.0365 115.35 93.4065 115.1 93.7065 114.78C94.0265 114.46 94.2765 114.09 94.4565 113.67C94.6565 113.23 94.7565 112.76 94.7565 112.26C94.7565 111.78 94.6565 111.33 94.4565 110.91C94.2765 110.47 94.0265 110.09 93.7065 109.77C93.4065 109.45 93.0365 109.2 92.5965 109.02C92.1765 108.84 91.7265 108.75 91.2465 108.75C90.7665 108.75 90.3065 108.84 89.8665 109.02C89.4465 109.2 89.0765 109.45 88.7565 109.77C88.4565 110.09 88.2065 110.46 88.0065 110.88C87.8265 111.3 87.7365 111.75 87.7365 112.23ZM82.0065 112.17C82.0065 111.03 82.2365 109.97 82.6965 108.99C83.1565 107.99 83.7965 107.13 84.6165 106.41C85.4365 105.67 86.4065 105.09 87.5265 104.67C88.6665 104.25 89.9065 104.04 91.2465 104.04C92.5665 104.04 93.7865 104.25 94.9065 104.67C96.0465 105.07 97.0265 105.64 97.8465 106.38C98.6865 107.1 99.3365 107.97 99.7965 108.99C100.256 109.99 100.486 111.1 100.486 112.32C100.486 113.54 100.246 114.66 99.7665 115.68C99.3065 116.68 98.6665 117.55 97.8465 118.29C97.0265 119.01 96.0365 119.57 94.8765 119.97C93.7365 120.37 92.4965 120.57 91.1565 120.57C89.8365 120.57 88.6165 120.37 87.4965 119.97C86.3765 119.57 85.4065 119 84.5865 118.26C83.7865 117.52 83.1565 116.64 82.6965 115.62C82.2365 114.58 82.0065 113.43 82.0065 112.17ZM101.152 109.71H109.762V114.24H101.152V109.71ZM122.396 109.14H118.796V120H113.366V109.14H109.766V104.61H122.396V109.14ZM129.354 112.23C129.354 112.75 129.444 113.23 129.624 113.67C129.824 114.09 130.074 114.46 130.374 114.78C130.694 115.1 131.064 115.35 131.484 115.53C131.924 115.71 132.384 115.8 132.864 115.8C133.344 115.8 133.794 115.71 134.214 115.53C134.654 115.35 135.024 115.1 135.324 114.78C135.644 114.46 135.894 114.09 136.074 113.67C136.274 113.23 136.374 112.76 136.374 112.26C136.374 111.78 136.274 111.33 136.074 110.91C135.894 110.47 135.644 110.09 135.324 109.77C135.024 109.45 134.654 109.2 134.214 109.02C133.794 108.84 133.344 108.75 132.864 108.75C132.384 108.75 131.924 108.84 131.484 109.02C131.064 109.2 130.694 109.45 130.374 109.77C130.074 110.09 129.824 110.46 129.624 110.88C129.444 111.3 129.354 111.75 129.354 112.23ZM123.624 112.17C123.624 111.03 123.854 109.97 124.314 108.99C124.774 107.99 125.414 107.13 126.234 106.41C127.054 105.67 128.024 105.09 129.144 104.67C130.284 104.25 131.524 104.04 132.864 104.04C134.184 104.04 135.404 104.25 136.524 104.67C137.664 105.07 138.644 105.64 139.464 106.38C140.304 107.1 140.954 107.97 141.414 108.99C141.874 109.99 142.104 111.1 142.104 112.32C142.104 113.54 141.864 114.66 141.384 115.68C140.924 116.68 140.284 117.55 139.464 118.29C138.644 119.01 137.654 119.57 136.494 119.97C135.354 120.37 134.114 120.57 132.774 120.57C131.454 120.57 130.234 120.37 129.114 119.97C127.994 119.57 127.024 119 126.204 118.26C125.404 117.52 124.774 116.64 124.314 115.62C123.854 114.58 123.624 113.43 123.624 112.17ZM164.156 104.61H169.946L163.856 111.99L170.756 120H164.546L159.656 113.85V120H154.226V104.61H159.656V110.79L164.156 104.61ZM184.323 112.35C184.323 111.87 184.233 111.42 184.053 111C183.893 110.56 183.653 110.18 183.333 109.86C183.013 109.54 182.633 109.29 182.193 109.11C181.773 108.91 181.313 108.81 180.813 108.81C180.333 108.81 179.883 108.9 179.463 109.08C179.043 109.26 178.673 109.51 178.353 109.83C178.053 110.15 177.803 110.53 177.603 110.97C177.423 111.39 177.333 111.84 177.333 112.32C177.333 112.8 177.423 113.25 177.603 113.67C177.783 114.09 178.033 114.46 178.353 114.78C178.673 115.08 179.043 115.33 179.463 115.53C179.903 115.71 180.363 115.8 180.843 115.8C181.323 115.8 181.773 115.71 182.193 115.53C182.613 115.35 182.973 115.1 183.273 114.78C183.593 114.46 183.843 114.09 184.023 113.67C184.223 113.25 184.323 112.81 184.323 112.35ZM177.483 127.68H172.053V104.61H177.483V106.32C178.643 104.86 180.223 104.13 182.223 104.13C183.323 104.13 184.343 104.35 185.283 104.79C186.243 105.21 187.073 105.79 187.773 106.53C188.473 107.27 189.013 108.14 189.393 109.14C189.793 110.14 189.993 111.21 189.993 112.35C189.993 113.49 189.793 114.55 189.393 115.53C189.013 116.51 188.473 117.37 187.773 118.11C187.093 118.85 186.283 119.43 185.343 119.85C184.403 120.27 183.383 120.48 182.283 120.48C180.363 120.48 178.763 119.82 177.483 118.5V127.68ZM197.619 112.23C197.619 112.75 197.709 113.23 197.889 113.67C198.089 114.09 198.339 114.46 198.639 114.78C198.959 115.1 199.329 115.35 199.749 115.53C200.189 115.71 200.649 115.8 201.129 115.8C201.609 115.8 202.059 115.71 202.479 115.53C202.919 115.35 203.289 115.1 203.589 114.78C203.909 114.46 204.159 114.09 204.339 113.67C204.539 113.23 204.639 112.76 204.639 112.26C204.639 111.78 204.539 111.33 204.339 110.91C204.159 110.47 203.909 110.09 203.589 109.77C203.289 109.45 202.919 109.2 202.479 109.02C202.059 108.84 201.609 108.75 201.129 108.75C200.649 108.75 200.189 108.84 199.749 109.02C199.329 109.2 198.959 109.45 198.639 109.77C198.339 110.09 198.089 110.46 197.889 110.88C197.709 111.3 197.619 111.75 197.619 112.23ZM191.889 112.17C191.889 111.03 192.119 109.97 192.579 108.99C193.039 107.99 193.679 107.13 194.499 106.41C195.319 105.67 196.289 105.09 197.409 104.67C198.549 104.25 199.789 104.04 201.129 104.04C202.449 104.04 203.669 104.25 204.789 104.67C205.929 105.07 206.909 105.64 207.729 106.38C208.569 107.1 209.219 107.97 209.679 108.99C210.139 109.99 210.369 111.1 210.369 112.32C210.369 113.54 210.129 114.66 209.649 115.68C209.189 116.68 208.549 117.55 207.729 118.29C206.909 119.01 205.919 119.57 204.759 119.97C203.619 120.37 202.379 120.57 201.039 120.57C199.719 120.57 198.499 120.37 197.379 119.97C196.259 119.57 195.289 119 194.469 118.26C193.669 117.52 193.039 116.64 192.579 115.62C192.119 114.58 191.889 113.43 191.889 112.17ZM220.964 120L217.634 110.94L216.134 120H211.544L214.484 104.61H218.954L222.134 112.92L225.314 104.61H229.784L232.724 120H228.104L226.634 110.94L223.304 120H220.964ZM245.751 110.07C245.571 109.31 245.201 108.7 244.641 108.24C244.081 107.78 243.401 107.55 242.601 107.55C241.761 107.55 241.071 107.77 240.531 108.21C240.011 108.65 239.681 109.27 239.541 110.07H245.751ZM239.391 113.22C239.391 115.56 240.491 116.73 242.691 116.73C243.871 116.73 244.761 116.25 245.361 115.29H250.611C249.551 118.81 246.901 120.57 242.661 120.57C241.361 120.57 240.171 120.38 239.091 120C238.011 119.6 237.081 119.04 236.301 118.32C235.541 117.6 234.951 116.74 234.531 115.74C234.111 114.74 233.901 113.62 233.901 112.38C233.901 111.1 234.101 109.95 234.501 108.93C234.901 107.89 235.471 107.01 236.211 106.29C236.951 105.57 237.841 105.02 238.881 104.64C239.941 104.24 241.131 104.04 242.451 104.04C243.751 104.04 244.921 104.24 245.961 104.64C247.001 105.02 247.881 105.58 248.601 106.32C249.321 107.06 249.871 107.97 250.251 109.05C250.631 110.11 250.821 111.31 250.821 112.65V113.22H239.391ZM24.59 129.4C25.09 129.3 25.58 129.22 26.06 129.16C26.56 129.08 27.09 129.04 27.65 129.04C28.63 129.04 29.54 129.15 30.38 129.37C31.22 129.59 31.94 129.9 32.54 130.3C33.16 130.7 33.64 131.17 33.98 131.71C34.32 132.25 34.49 132.83 34.49 133.45C34.49 134.13 34.28 134.75 33.86 135.31C33.46 135.85 32.81 136.35 31.91 136.81C32.99 137.15 33.77 137.62 34.25 138.22C34.75 138.8 35 139.54 35 140.44C35 141.18 34.82 141.87 34.46 142.51C34.12 143.13 33.62 143.67 32.96 144.13C32.32 144.57 31.55 144.92 30.65 145.18C29.75 145.44 28.76 145.57 27.68 145.57C27.16 145.57 26.63 145.54 26.09 145.48C25.55 145.42 25.05 145.32 24.59 145.18V140.8C24.87 140.9 25.19 140.98 25.55 141.04C25.93 141.08 26.29 141.1 26.63 141.1C27.35 141.1 27.96 141 28.46 140.8C28.98 140.58 29.24 140.32 29.24 140.02C29.24 139.68 28.95 139.39 28.37 139.15C27.79 138.89 27.03 138.76 26.09 138.76H25.85V135.58C26.93 135.56 27.71 135.46 28.19 135.28C28.69 135.1 28.94 134.84 28.94 134.5C28.94 134.18 28.77 133.94 28.43 133.78C28.09 133.62 27.63 133.54 27.05 133.54C26.63 133.54 26.2 133.58 25.76 133.66C25.32 133.72 24.93 133.8 24.59 133.9V129.4ZM48.7522 135.07C48.5722 134.31 48.2022 133.7 47.6422 133.24C47.0822 132.78 46.4022 132.55 45.6022 132.55C44.7622 132.55 44.0722 132.77 43.5322 133.21C43.0122 133.65 42.6822 134.27 42.5422 135.07H48.7522ZM42.3922 138.22C42.3922 140.56 43.4922 141.73 45.6922 141.73C46.8722 141.73 47.7622 141.25 48.3622 140.29H53.6122C52.5522 143.81 49.9022 145.57 45.6622 145.57C44.3622 145.57 43.1722 145.38 42.0922 145C41.0122 144.6 40.0822 144.04 39.3022 143.32C38.5422 142.6 37.9522 141.74 37.5322 140.74C37.1122 139.74 36.9022 138.62 36.9022 137.38C36.9022 136.1 37.1022 134.95 37.5022 133.93C37.9022 132.89 38.4722 132.01 39.2122 131.29C39.9522 130.57 40.8422 130.02 41.8822 129.64C42.9422 129.24 44.1322 129.04 45.4522 129.04C46.7522 129.04 47.9222 129.24 48.9622 129.64C50.0022 130.02 50.8822 130.58 51.6022 131.32C52.3222 132.06 52.8722 132.97 53.2522 134.05C53.6322 135.11 53.8222 136.31 53.8222 137.65V138.22H42.3922ZM64.396 145L61.066 135.94L59.566 145H54.976L57.916 129.61H62.386L65.566 137.92L68.746 129.61H73.216L76.156 145H71.536L70.066 135.94L66.736 145H64.396ZM77.213 140.53C77.273 140.55 77.363 140.56 77.483 140.56C77.743 140.56 77.973 140.54 78.173 140.5C78.373 140.46 78.533 140.38 78.653 140.26C78.773 140.12 78.863 139.92 78.923 139.66C78.983 139.4 79.013 139.06 79.013 138.64V129.61H94.013V145H88.583V134.14H84.443V139.24C84.443 140.34 84.273 141.29 83.933 142.09C83.613 142.89 83.163 143.55 82.583 144.07C82.003 144.59 81.293 144.97 80.453 145.21C79.633 145.47 78.733 145.6 77.753 145.6H77.213V140.53ZM102.568 129.61V138.22L109.018 129.61H114.448V145H109.018V136.42L102.538 145H97.1377V129.61H102.568ZM132.748 142.9L125.308 129.61H131.608L135.718 137.5L139.708 129.61H145.948L133.588 152.68H127.498L132.748 142.9ZM155.263 141.22C155.683 141.22 156.003 141.1 156.223 140.86C156.443 140.62 156.553 140.3 156.553 139.9C156.553 139.04 156.123 138.61 155.263 138.61H152.293V141.22H155.263ZM154.873 135.55C155.453 135.55 155.743 135.18 155.743 134.44C155.743 133.7 155.453 133.33 154.873 133.33H152.293V135.55H154.873ZM147.223 129.61H155.383C156.903 129.61 158.053 129.96 158.833 130.66C159.633 131.34 160.033 132.33 160.033 133.63C160.033 134.39 159.913 135.01 159.673 135.49C159.433 135.97 159.023 136.38 158.443 136.72C160.543 137.14 161.593 138.41 161.593 140.53C161.593 141.95 161.053 143.05 159.973 143.83C158.913 144.61 157.443 145 155.563 145H147.223V129.61ZM169.162 129.61V138.22L175.612 129.61H181.042V145H175.612V136.42L169.132 145H163.732V129.61H169.162ZM204.477 129.61H210.297L203.877 136.99L211.077 145H204.927L199.557 138.76V145H194.127V138.76L188.697 145H182.547L189.777 136.99L183.357 129.61H189.177L194.127 135.91V129.61H199.557V135.91L204.477 129.61ZM218.151 142.9L210.711 129.61H217.011L221.121 137.5L225.111 129.61H231.351L218.991 152.68H212.901L218.151 142.9Z" fill="white"/>
<defs>
<filter id="filter0_b" x="-100" y="-100" width="505" height="435.962" filterUnits="userSpaceOnUse" color-interpolation-filters="sRGB">
<feFlood flood-opacity="0" result="BackgroundImageFix"/>
<feGaussianBlur in="BackgroundImage" stdDeviation="50"/>
<feComposite in2="SourceAlpha" operator="in" result="effect1_backgroundBlur"/>
<feBlend mode="normal" in="SourceGraphic" in2="effect1_backgroundBlur" result="shape"/>
</filter>
</defs>
</svg>
