<svg width="305" height="236" viewBox="0 0 305 236" fill="none" xmlns="http://www.w3.org/2000/svg">
<g filter="url(#filter0_b)">
<mask id="path-1-inside-1" fill="white">
<path fill-rule="evenodd" clip-rule="evenodd" d="M305 50C305 22.3858 282.614 0 255 0H50C22.3858 0 0 22.3857 0 50V160.433C0 188.047 22.3857 210.433 50 210.433H199.843C208.268 210.433 215.882 215.454 219.201 223.198C226.495 240.217 250.623 240.217 257.917 223.198C261.236 215.454 268.851 210.433 277.276 210.433H279.923C293.773 210.433 305 199.206 305 185.356V50Z"/>
</mask>
<path fill-rule="evenodd" clip-rule="evenodd" d="M305 50C305 22.3858 282.614 0 255 0H50C22.3858 0 0 22.3857 0 50V160.433C0 188.047 22.3857 210.433 50 210.433H199.843C208.268 210.433 215.882 215.454 219.201 223.198C226.495 240.217 250.623 240.217 257.917 223.198C261.236 215.454 268.851 210.433 277.276 210.433H279.923C293.773 210.433 305 199.206 305 185.356V50Z" fill="#B1B9FF"/>
<path d="M50 5H255V-5H50V5ZM5 160.433V50H-5V160.433H5ZM199.843 205.433H50V215.433H199.843V205.433ZM279.923 205.433H277.276V215.433H279.923V205.433ZM300 50V185.356H310V50H300ZM279.923 215.433C296.534 215.433 310 201.967 310 185.356H300C300 196.444 291.011 205.433 279.923 205.433V215.433ZM262.513 225.167C265.044 219.262 270.851 215.433 277.276 215.433V205.433C266.85 205.433 257.428 211.646 253.322 221.228L262.513 225.167ZM214.605 225.167C223.631 246.227 253.487 246.227 262.513 225.167L253.322 221.228C247.759 234.207 229.359 234.207 223.797 221.228L214.605 225.167ZM199.843 215.433C206.268 215.433 212.074 219.262 214.605 225.167L223.797 221.228C219.69 211.646 210.268 205.433 199.843 205.433V215.433ZM-5 160.433C-5 190.809 19.6243 215.433 50 215.433V205.433C25.1472 205.433 5 185.286 5 160.433H-5ZM255 5C279.853 5 300 25.1472 300 50H310C310 19.6243 285.376 -5 255 -5V5ZM50 -5C19.6243 -5 -5 19.6243 -5 50H5C5 25.1472 25.1472 5 50 5V-5Z" fill="white" mask="url(#path-1-inside-1)"/>
</g>
<path d="M31.44 57.57H29.76C29.24 57.57 28.83 57.72 28.53 58.02C28.23 58.3 28.08 58.69 28.08 59.19C28.08 59.71 28.23 60.12 28.53 60.42C28.83 60.7 29.24 60.84 29.76 60.84H31.44V57.57ZM25.83 63.78C24.95 63.5 24.27 62.95 23.79 62.13C23.31 61.31 23.07 60.3 23.07 59.1C23.07 58.34 23.19 57.63 23.43 56.97C23.69 56.29 24.07 55.71 24.57 55.23C25.07 54.73 25.69 54.34 26.43 54.06C27.17 53.76 28.03 53.61 29.01 53.61H36.87V69H31.44V64.2H30.51L27.87 69H22.14L25.83 63.78ZM51.5946 58.59C50.6546 57.95 49.7046 57.63 48.7446 57.63C48.2246 57.63 47.7346 57.72 47.2746 57.9C46.8346 58.08 46.4446 58.34 46.1046 58.68C45.7646 59 45.4946 59.39 45.2946 59.85C45.1146 60.29 45.0246 60.79 45.0246 61.35C45.0246 61.89 45.1146 62.39 45.2946 62.85C45.4946 63.29 45.7546 63.68 46.0746 64.02C46.4146 64.34 46.8146 64.59 47.2746 64.77C47.7346 64.95 48.2246 65.04 48.7446 65.04C49.7646 65.04 50.7146 64.69 51.5946 63.99V68.61C50.2546 69.19 48.9846 69.48 47.7846 69.48C46.6646 69.48 45.5946 69.29 44.5746 68.91C43.5746 68.53 42.6846 67.99 41.9046 67.29C41.1446 66.57 40.5346 65.72 40.0746 64.74C39.6146 63.74 39.3846 62.63 39.3846 61.41C39.3846 60.19 39.6046 59.08 40.0446 58.08C40.4846 57.06 41.0846 56.19 41.8446 55.47C42.6046 54.73 43.5046 54.16 44.5446 53.76C45.6046 53.34 46.7346 53.13 47.9346 53.13C49.2546 53.13 50.4746 53.41 51.5946 53.97V58.59ZM65.0416 58.92V53.61H70.4716V69H65.0416V63.39H59.5216V69H54.0916V53.61H59.5216V58.92H65.0416ZM78.7193 61.23C78.7193 61.75 78.8093 62.23 78.9893 62.67C79.1893 63.09 79.4393 63.46 79.7393 63.78C80.0593 64.1 80.4293 64.35 80.8493 64.53C81.2893 64.71 81.7493 64.8 82.2293 64.8C82.7093 64.8 83.1593 64.71 83.5793 64.53C84.0193 64.35 84.3893 64.1 84.6893 63.78C85.0093 63.46 85.2593 63.09 85.4393 62.67C85.6393 62.23 85.7393 61.76 85.7393 61.26C85.7393 60.78 85.6393 60.33 85.4393 59.91C85.2593 59.47 85.0093 59.09 84.6893 58.77C84.3893 58.45 84.0193 58.2 83.5793 58.02C83.1593 57.84 82.7093 57.75 82.2293 57.75C81.7493 57.75 81.2893 57.84 80.8493 58.02C80.4293 58.2 80.0593 58.45 79.7393 58.77C79.4393 59.09 79.1893 59.46 78.9893 59.88C78.8093 60.3 78.7193 60.75 78.7193 61.23ZM72.9893 61.17C72.9893 60.03 73.2193 58.97 73.6793 57.99C74.1393 56.99 74.7793 56.13 75.5993 55.41C76.4193 54.67 77.3893 54.09 78.5093 53.67C79.6493 53.25 80.8893 53.04 82.2293 53.04C83.5493 53.04 84.7693 53.25 85.8893 53.67C87.0293 54.07 88.0093 54.64 88.8293 55.38C89.6693 56.1 90.3193 56.97 90.7793 57.99C91.2393 58.99 91.4693 60.1 91.4693 61.32C91.4693 62.54 91.2293 63.66 90.7493 64.68C90.2893 65.68 89.6493 66.55 88.8293 67.29C88.0093 68.01 87.0193 68.57 85.8593 68.97C84.7193 69.37 83.4793 69.57 82.1393 69.57C80.8193 69.57 79.5993 69.37 78.4793 68.97C77.3593 68.57 76.3893 68 75.5693 67.26C74.7693 66.52 74.1393 65.64 73.6793 64.62C73.2193 63.58 72.9893 62.43 72.9893 61.17ZM93.7252 66.12C93.7252 65.64 93.8152 65.19 93.9952 64.77C94.1752 64.33 94.4252 63.95 94.7452 63.63C95.0652 63.31 95.4352 63.06 95.8552 62.88C96.2952 62.7 96.7552 62.61 97.2352 62.61C97.7152 62.61 98.1652 62.7 98.5852 62.88C99.0252 63.06 99.4052 63.31 99.7252 63.63C100.045 63.95 100.295 64.33 100.475 64.77C100.655 65.19 100.745 65.64 100.745 66.12C100.745 66.6 100.655 67.06 100.475 67.5C100.295 67.92 100.045 68.29 99.7252 68.61C99.4052 68.93 99.0252 69.18 98.5852 69.36C98.1652 69.54 97.7152 69.63 97.2352 69.63C96.7552 69.63 96.2952 69.54 95.8552 69.36C95.4352 69.18 95.0652 68.93 94.7452 68.61C94.4252 68.29 94.1752 67.92 93.9952 67.5C93.8152 67.06 93.7252 66.6 93.7252 66.12ZM103.32 66.12C103.32 65.64 103.41 65.19 103.59 64.77C103.77 64.33 104.02 63.95 104.34 63.63C104.66 63.31 105.03 63.06 105.45 62.88C105.89 62.7 106.35 62.61 106.83 62.61C107.31 62.61 107.76 62.7 108.18 62.88C108.62 63.06 109 63.31 109.32 63.63C109.64 63.95 109.89 64.33 110.07 64.77C110.25 65.19 110.34 65.64 110.34 66.12C110.34 66.6 110.25 67.06 110.07 67.5C109.89 67.92 109.64 68.29 109.32 68.61C109 68.93 108.62 69.18 108.18 69.36C107.76 69.54 107.31 69.63 106.83 69.63C106.35 69.63 105.89 69.54 105.45 69.36C105.03 69.18 104.66 68.93 104.34 68.61C104.02 68.29 103.77 67.92 103.59 67.5C103.41 67.06 103.32 66.6 103.32 66.12ZM112.916 66.12C112.916 65.64 113.006 65.19 113.186 64.77C113.366 64.33 113.616 63.95 113.936 63.63C114.256 63.31 114.626 63.06 115.046 62.88C115.486 62.7 115.946 62.61 116.426 62.61C116.906 62.61 117.356 62.7 117.776 62.88C118.216 63.06 118.596 63.31 118.916 63.63C119.236 63.95 119.486 64.33 119.666 64.77C119.846 65.19 119.936 65.64 119.936 66.12C119.936 66.6 119.846 67.06 119.666 67.5C119.486 67.92 119.236 68.29 118.916 68.61C118.596 68.93 118.216 69.18 117.776 69.36C117.356 69.54 116.906 69.63 116.426 69.63C115.946 69.63 115.486 69.54 115.046 69.36C114.626 69.18 114.256 68.93 113.936 68.61C113.616 68.29 113.366 67.92 113.186 67.5C113.006 67.06 112.916 66.6 112.916 66.12ZM30.9 90.22C31.32 90.22 31.64 90.1 31.86 89.86C32.08 89.62 32.19 89.3 32.19 88.9C32.19 88.04 31.76 87.61 30.9 87.61H27.93V90.22H30.9ZM30.51 84.55C31.09 84.55 31.38 84.18 31.38 83.44C31.38 82.7 31.09 82.33 30.51 82.33H27.93V84.55H30.51ZM22.86 78.61H31.02C32.54 78.61 33.69 78.96 34.47 79.66C35.27 80.34 35.67 81.33 35.67 82.63C35.67 83.39 35.55 84.01 35.31 84.49C35.07 84.97 34.66 85.38 34.08 85.72C36.18 86.14 37.23 87.41 37.23 89.53C37.23 90.95 36.69 92.05 35.61 92.83C34.55 93.61 33.08 94 31.2 94H22.86V78.61ZM44.4994 86.23C44.4994 86.75 44.5894 87.23 44.7694 87.67C44.9694 88.09 45.2194 88.46 45.5194 88.78C45.8394 89.1 46.2094 89.35 46.6294 89.53C47.0694 89.71 47.5294 89.8 48.0094 89.8C48.4894 89.8 48.9394 89.71 49.3594 89.53C49.7994 89.35 50.1694 89.1 50.4694 88.78C50.7894 88.46 51.0394 88.09 51.2194 87.67C51.4194 87.23 51.5194 86.76 51.5194 86.26C51.5194 85.78 51.4194 85.33 51.2194 84.91C51.0394 84.47 50.7894 84.09 50.4694 83.77C50.1694 83.45 49.7994 83.2 49.3594 83.02C48.9394 82.84 48.4894 82.75 48.0094 82.75C47.5294 82.75 47.0694 82.84 46.6294 83.02C46.2094 83.2 45.8394 83.45 45.5194 83.77C45.2194 84.09 44.9694 84.46 44.7694 84.88C44.5894 85.3 44.4994 85.75 44.4994 86.23ZM38.7694 86.17C38.7694 85.03 38.9994 83.97 39.4594 82.99C39.9194 81.99 40.5594 81.13 41.3794 80.41C42.1994 79.67 43.1694 79.09 44.2894 78.67C45.4294 78.25 46.6694 78.04 48.0094 78.04C49.3294 78.04 50.5494 78.25 51.6694 78.67C52.8094 79.07 53.7894 79.64 54.6094 80.38C55.4494 81.1 56.0994 81.97 56.5594 82.99C57.0194 83.99 57.2494 85.1 57.2494 86.32C57.2494 87.54 57.0094 88.66 56.5294 89.68C56.0694 90.68 55.4294 91.55 54.6094 92.29C53.7894 93.01 52.7994 93.57 51.6394 93.97C50.4994 94.37 49.2594 94.57 47.9194 94.57C46.5994 94.57 45.3794 94.37 44.2594 93.97C43.1394 93.57 42.1694 93 41.3494 92.26C40.5494 91.52 39.9194 90.64 39.4594 89.62C38.9994 88.58 38.7694 87.43 38.7694 86.17ZM71.1452 83.14H67.5452V94H62.1152V83.14H58.5152V78.61H71.1452V83.14ZM93.9394 83.14H90.3394V94H84.9094V83.14H81.3094V78.61H93.9394V83.14ZM117.638 78.61V94H112.208V78.61H117.638ZM101.138 90.1H103.238C104.318 90.1 104.858 89.59 104.858 88.57C104.858 87.59 104.318 87.1 103.238 87.1H101.138V90.1ZM101.138 78.61V83.17H104.318C106.158 83.17 107.558 83.6 108.518 84.46C109.478 85.3 109.958 86.53 109.958 88.15C109.958 89.03 109.828 89.83 109.568 90.55C109.308 91.25 108.918 91.86 108.398 92.38C107.898 92.9 107.278 93.3 106.538 93.58C105.798 93.86 104.938 94 103.958 94H95.7082V78.61H101.138ZM130.34 94V78.61H139.97V83.14H135.74V94H130.34ZM153.299 83.14H149.189V87.76C149.189 88.16 149.179 88.48 149.159 88.72C149.139 88.96 149.109 89.21 149.069 89.47H153.299V83.14ZM142.319 89.47C142.859 89.47 143.229 89.29 143.429 88.93C143.629 88.57 143.729 88.01 143.729 87.25V78.61H158.729V89.47H160.559V97.15H155.129V94H146.999V97.15H141.569V89.47H142.319ZM174.315 84.07C174.135 83.31 173.765 82.7 173.205 82.24C172.645 81.78 171.965 81.55 171.165 81.55C170.325 81.55 169.635 81.77 169.095 82.21C168.575 82.65 168.245 83.27 168.105 84.07H174.315ZM167.955 87.22C167.955 89.56 169.055 90.73 171.255 90.73C172.435 90.73 173.325 90.25 173.925 89.29H179.175C178.115 92.81 175.465 94.57 171.225 94.57C169.925 94.57 168.735 94.38 167.655 94C166.575 93.6 165.645 93.04 164.865 92.32C164.105 91.6 163.515 90.74 163.095 89.74C162.675 88.74 162.465 87.62 162.465 86.38C162.465 85.1 162.665 83.95 163.065 82.93C163.465 81.89 164.035 81.01 164.775 80.29C165.515 79.57 166.405 79.02 167.445 78.64C168.505 78.24 169.695 78.04 171.015 78.04C172.315 78.04 173.485 78.24 174.525 78.64C175.565 79.02 176.445 79.58 177.165 80.32C177.885 81.06 178.435 81.97 178.815 83.05C179.195 84.11 179.385 85.31 179.385 86.65V87.22H167.955ZM183.569 88.27H188.669L183.149 98.2H179.669L183.569 88.27ZM27.9 111.26C27.9 111.76 27.99 112.23 28.17 112.67C28.35 113.09 28.59 113.46 28.89 113.78C29.21 114.1 29.58 114.35 30 114.53C30.44 114.71 30.91 114.8 31.41 114.8C31.89 114.8 32.34 114.71 32.76 114.53C33.2 114.35 33.57 114.1 33.87 113.78C34.19 113.46 34.44 113.09 34.62 112.67C34.82 112.25 34.92 111.8 34.92 111.32C34.92 110.84 34.82 110.39 34.62 109.97C34.44 109.53 34.19 109.15 33.87 108.83C33.57 108.51 33.2 108.26 32.76 108.08C32.34 107.9 31.89 107.81 31.41 107.81C30.91 107.81 30.44 107.9 30 108.08C29.58 108.26 29.21 108.51 28.89 108.83C28.59 109.15 28.35 109.52 28.17 109.94C27.99 110.34 27.9 110.78 27.9 111.26ZM34.74 103.61H40.2V119H34.74V117.29C33.58 118.75 32.01 119.48 30.03 119.48C28.91 119.48 27.88 119.28 26.94 118.88C26 118.46 25.18 117.88 24.48 117.14C23.78 116.4 23.23 115.53 22.83 114.53C22.45 113.53 22.26 112.44 22.26 111.26C22.26 110.16 22.45 109.12 22.83 108.14C23.21 107.14 23.74 106.27 24.42 105.53C25.1 104.79 25.91 104.21 26.85 103.79C27.79 103.35 28.83 103.13 29.97 103.13C31.89 103.13 33.48 103.8 34.74 105.14V103.61ZM61.4705 107.57H59.7905C59.2705 107.57 58.8605 107.72 58.5605 108.02C58.2605 108.3 58.1105 108.69 58.1105 109.19C58.1105 109.71 58.2605 110.12 58.5605 110.42C58.8605 110.7 59.2705 110.84 59.7905 110.84H61.4705V107.57ZM55.8605 113.78C54.9805 113.5 54.3005 112.95 53.8205 112.13C53.3405 111.31 53.1005 110.3 53.1005 109.1C53.1005 108.34 53.2205 107.63 53.4605 106.97C53.7205 106.29 54.1005 105.71 54.6005 105.23C55.1005 104.73 55.7205 104.34 56.4605 104.06C57.2005 103.76 58.0605 103.61 59.0405 103.61H66.9005V119H61.4705V114.2H60.5405L57.9005 119H52.1705L55.8605 113.78ZM90.9804 108.14H87.3804V119H81.9504V108.14H78.3504V103.61H90.9804V108.14ZM104.381 109.07C104.201 108.31 103.831 107.7 103.271 107.24C102.711 106.78 102.031 106.55 101.231 106.55C100.391 106.55 99.7015 106.77 99.1615 107.21C98.6415 107.65 98.3115 108.27 98.1715 109.07H104.381ZM98.0215 112.22C98.0215 114.56 99.1215 115.73 101.321 115.73C102.501 115.73 103.391 115.25 103.991 114.29H109.241C108.181 117.81 105.531 119.57 101.291 119.57C99.9915 119.57 98.8015 119.38 97.7215 119C96.6415 118.6 95.7115 118.04 94.9315 117.32C94.1715 116.6 93.5815 115.74 93.1615 114.74C92.7415 113.74 92.5315 112.62 92.5315 111.38C92.5315 110.1 92.7315 108.95 93.1315 107.93C93.5315 106.89 94.1015 106.01 94.8415 105.29C95.5815 104.57 96.4715 104.02 97.5115 103.64C98.5715 103.24 99.7615 103.04 101.081 103.04C102.381 103.04 103.551 103.24 104.591 103.64C105.631 104.02 106.511 104.58 107.231 105.32C107.951 106.06 108.501 106.97 108.881 108.05C109.261 109.11 109.451 110.31 109.451 111.65V112.22H98.0215ZM120.595 107.75C120.115 107.75 119.655 107.84 119.215 108.02C118.795 108.2 118.425 108.45 118.105 108.77C117.805 109.09 117.555 109.46 117.355 109.88C117.175 110.3 117.085 110.76 117.085 111.26C117.085 111.74 117.175 112.2 117.355 112.64C117.535 113.06 117.775 113.43 118.075 113.75C118.395 114.07 118.765 114.33 119.185 114.53C119.625 114.71 120.095 114.8 120.595 114.8C121.075 114.8 121.525 114.71 121.945 114.53C122.385 114.33 122.765 114.07 123.085 113.75C123.405 113.43 123.655 113.06 123.835 112.64C124.015 112.2 124.105 111.74 124.105 111.26C124.105 110.78 124.015 110.33 123.835 109.91C123.655 109.47 123.405 109.09 123.085 108.77C122.765 108.45 122.385 108.2 121.945 108.02C121.525 107.84 121.075 107.75 120.595 107.75ZM126.655 99.44C126.375 99.7 126.115 99.92 125.875 100.1C125.655 100.26 125.385 100.41 125.065 100.55C124.745 100.69 124.345 100.84 123.865 101C123.385 101.16 122.755 101.36 121.975 101.6C121.295 101.82 120.745 102 120.325 102.14C119.905 102.28 119.565 102.41 119.305 102.53C119.045 102.65 118.835 102.78 118.675 102.92C118.535 103.04 118.395 103.19 118.255 103.37L118.075 103.61C118.535 103.43 118.995 103.29 119.455 103.19C119.935 103.09 120.475 103.04 121.075 103.04C122.295 103.04 123.435 103.25 124.495 103.67C125.575 104.09 126.515 104.67 127.315 105.41C128.115 106.15 128.735 107.03 129.175 108.05C129.635 109.07 129.865 110.19 129.865 111.41C129.865 112.59 129.635 113.68 129.175 114.68C128.735 115.68 128.105 116.54 127.285 117.26C126.465 117.98 125.465 118.55 124.285 118.97C123.105 119.37 121.785 119.57 120.325 119.57C118.985 119.57 117.765 119.38 116.665 119C115.565 118.62 114.615 118.03 113.815 117.23C113.035 116.43 112.425 115.41 111.985 114.17C111.565 112.91 111.355 111.41 111.355 109.67C111.355 106.87 111.915 104.49 113.035 102.53C114.155 100.55 115.775 99.11 117.895 98.21C118.155 98.09 118.365 98.01 118.525 97.97C118.685 97.91 118.855 97.86 119.035 97.82C119.235 97.76 119.475 97.69 119.755 97.61C120.055 97.51 120.485 97.37 121.045 97.19C121.925 96.91 122.665 96.66 123.265 96.44C123.865 96.22 124.375 96 124.795 95.78C125.215 95.54 125.565 95.29 125.845 95.03C126.125 94.77 126.395 94.46 126.655 94.1V99.44ZM140.941 107.57H139.261C138.741 107.57 138.331 107.72 138.031 108.02C137.731 108.3 137.581 108.69 137.581 109.19C137.581 109.71 137.731 110.12 138.031 110.42C138.331 110.7 138.741 110.84 139.261 110.84H140.941V107.57ZM135.331 113.78C134.451 113.5 133.771 112.95 133.291 112.13C132.811 111.31 132.571 110.3 132.571 109.1C132.571 108.34 132.691 107.63 132.931 106.97C133.191 106.29 133.571 105.71 134.071 105.23C134.571 104.73 135.191 104.34 135.931 104.06C136.671 103.76 137.531 103.61 138.511 103.61H146.371V119H140.941V114.2H140.011L137.371 119H131.641L135.331 113.78ZM177.291 114.47V122.15H171.861V119H159.081V103.61H164.511V114.47H170.031V103.61H175.461V114.47H177.291ZM191.03 109.07C190.85 108.31 190.48 107.7 189.92 107.24C189.36 106.78 188.68 106.55 187.88 106.55C187.04 106.55 186.35 106.77 185.81 107.21C185.29 107.65 184.96 108.27 184.82 109.07H191.03ZM184.67 112.22C184.67 114.56 185.77 115.73 187.97 115.73C189.15 115.73 190.04 115.25 190.64 114.29H195.89C194.83 117.81 192.18 119.57 187.94 119.57C186.64 119.57 185.45 119.38 184.37 119C183.29 118.6 182.36 118.04 181.58 117.32C180.82 116.6 180.23 115.74 179.81 114.74C179.39 113.74 179.18 112.62 179.18 111.38C179.18 110.1 179.38 108.95 179.78 107.93C180.18 106.89 180.75 106.01 181.49 105.29C182.23 104.57 183.12 104.02 184.16 103.64C185.22 103.24 186.41 103.04 187.73 103.04C189.03 103.04 190.2 103.24 191.24 103.64C192.28 104.02 193.16 104.58 193.88 105.32C194.6 106.06 195.15 106.97 195.53 108.05C195.91 109.11 196.1 110.31 196.1 111.65V112.22H184.67ZM197.884 114.53C197.944 114.55 198.034 114.56 198.154 114.56C198.414 114.56 198.644 114.54 198.844 114.5C199.044 114.46 199.204 114.38 199.324 114.26C199.444 114.12 199.534 113.92 199.594 113.66C199.654 113.4 199.684 113.06 199.684 112.64V103.61H214.684V119H209.254V108.14H205.114V113.24C205.114 114.34 204.944 115.29 204.604 116.09C204.284 116.89 203.834 117.55 203.254 118.07C202.674 118.59 201.964 118.97 201.124 119.21C200.304 119.47 199.404 119.6 198.424 119.6H197.884V114.53ZM223.681 116.9L216.241 103.61H222.541L226.651 111.5L230.641 103.61H236.881L224.521 126.68H218.431L223.681 116.9ZM251.566 111.23C251.566 111.75 251.656 112.23 251.836 112.67C252.036 113.09 252.286 113.46 252.586 113.78C252.906 114.1 253.276 114.35 253.696 114.53C254.136 114.71 254.596 114.8 255.076 114.8C255.556 114.8 256.006 114.71 256.426 114.53C256.866 114.35 257.246 114.1 257.566 113.78C257.886 113.46 258.136 113.09 258.316 112.67C258.496 112.23 258.586 111.76 258.586 111.26C258.586 110.78 258.486 110.33 258.286 109.91C258.106 109.47 257.856 109.09 257.536 108.77C257.236 108.45 256.866 108.2 256.426 108.02C256.006 107.84 255.556 107.75 255.076 107.75C254.596 107.75 254.136 107.84 253.696 108.02C253.276 108.2 252.906 108.45 252.586 108.77C252.286 109.09 252.036 109.46 251.836 109.88C251.656 110.3 251.566 110.75 251.566 111.23ZM243.586 119H238.156V103.61H243.586V108.92H246.136C246.396 108.04 246.806 107.24 247.366 106.52C247.926 105.78 248.596 105.16 249.376 104.66C250.156 104.14 251.026 103.74 251.986 103.46C252.966 103.18 253.996 103.04 255.076 103.04C256.416 103.04 257.656 103.25 258.796 103.67C259.936 104.09 260.916 104.67 261.736 105.41C262.556 106.15 263.196 107.03 263.656 108.05C264.116 109.05 264.346 110.14 264.346 111.32C264.346 112.54 264.106 113.66 263.626 114.68C263.166 115.68 262.526 116.55 261.706 117.29C260.886 118.01 259.896 118.57 258.736 118.97C257.596 119.37 256.356 119.57 255.016 119.57C253.896 119.57 252.836 119.42 251.836 119.12C250.856 118.84 249.976 118.43 249.196 117.89C248.416 117.35 247.756 116.7 247.216 115.94C246.676 115.18 246.296 114.33 246.076 113.39H243.586V119ZM33.81 133.92V128.61H39.24V144H33.81V138.39H28.29V144H22.86V128.61H28.29V133.92H33.81ZM47.4877 136.23C47.4877 136.75 47.5777 137.23 47.7577 137.67C47.9577 138.09 48.2077 138.46 48.5077 138.78C48.8277 139.1 49.1977 139.35 49.6177 139.53C50.0577 139.71 50.5177 139.8 50.9977 139.8C51.4777 139.8 51.9277 139.71 52.3477 139.53C52.7877 139.35 53.1577 139.1 53.4577 138.78C53.7777 138.46 54.0277 138.09 54.2077 137.67C54.4077 137.23 54.5077 136.76 54.5077 136.26C54.5077 135.78 54.4077 135.33 54.2077 134.91C54.0277 134.47 53.7777 134.09 53.4577 133.77C53.1577 133.45 52.7877 133.2 52.3477 133.02C51.9277 132.84 51.4777 132.75 50.9977 132.75C50.5177 132.75 50.0577 132.84 49.6177 133.02C49.1977 133.2 48.8277 133.45 48.5077 133.77C48.2077 134.09 47.9577 134.46 47.7577 134.88C47.5777 135.3 47.4877 135.75 47.4877 136.23ZM41.7577 136.17C41.7577 135.03 41.9877 133.97 42.4477 132.99C42.9077 131.99 43.5477 131.13 44.3677 130.41C45.1877 129.67 46.1577 129.09 47.2777 128.67C48.4177 128.25 49.6577 128.04 50.9977 128.04C52.3177 128.04 53.5377 128.25 54.6577 128.67C55.7977 129.07 56.7777 129.64 57.5977 130.38C58.4377 131.1 59.0877 131.97 59.5477 132.99C60.0077 133.99 60.2377 135.1 60.2377 136.32C60.2377 137.54 59.9977 138.66 59.5177 139.68C59.0577 140.68 58.4177 141.55 57.5977 142.29C56.7777 143.01 55.7877 143.57 54.6277 143.97C53.4877 144.37 52.2477 144.57 50.9077 144.57C49.5877 144.57 48.3677 144.37 47.2477 143.97C46.1277 143.57 45.1577 143 44.3377 142.26C43.5377 141.52 42.9077 140.64 42.4477 139.62C41.9877 138.58 41.7577 137.43 41.7577 136.17ZM72.0335 140.34C71.6735 140.42 71.3035 140.49 70.9235 140.55C70.5635 140.59 70.1735 140.61 69.7535 140.61C68.3935 140.61 67.2235 140.43 66.2435 140.07C65.2635 139.69 64.4635 139.15 63.8435 138.45C63.2235 137.73 62.7635 136.85 62.4635 135.81C62.1835 134.77 62.0435 133.58 62.0435 132.24V128.61H67.4735V132.42C67.4735 133.2 67.5335 133.84 67.6535 134.34C67.7935 134.82 67.9835 135.19 68.2235 135.45C68.4635 135.71 68.7435 135.89 69.0635 135.99C69.3835 136.07 69.7335 136.11 70.1135 136.11C70.8935 136.11 71.5335 135.86 72.0335 135.36V128.61H77.4635V144H72.0335V140.34ZM86.0513 140.1H88.1513C89.2313 140.1 89.7713 139.59 89.7713 138.57C89.7713 137.59 89.2313 137.1 88.1513 137.1H86.0513V140.1ZM86.0513 128.61V133.17H89.2313C91.0713 133.17 92.4713 133.6 93.4313 134.46C94.3913 135.3 94.8713 136.53 94.8713 138.15C94.8713 139.03 94.7413 139.83 94.4813 140.55C94.2213 141.25 93.8313 141.86 93.3113 142.38C92.8113 142.9 92.1913 143.3 91.4513 143.58C90.7113 143.86 89.8513 144 88.8713 144H80.6213V128.61H86.0513ZM112.097 128.61V137.22L118.547 128.61H123.977V144H118.547V135.42L112.067 144H106.667V128.61H112.097ZM127.102 144V128.61H132.532V139.47H136.132V128.61H141.562V139.47H145.162V128.61H150.592V139.47H152.422V147.15H146.992V144H127.102ZM160.793 141.9L153.353 128.61H159.653L163.763 136.5L167.753 128.61H173.993L161.633 151.68H155.543L160.793 141.9Z" fill="white"/>
<path d="M181.4 188.18C180.548 188.18 179.786 188.006 179.114 187.658C178.454 187.31 177.932 186.77 177.548 186.038C177.176 185.306 176.99 184.37 176.99 183.23C176.99 182.042 177.188 181.076 177.584 180.332C177.98 179.588 178.514 179.042 179.186 178.694C179.87 178.346 180.644 178.172 181.508 178.172C182 178.172 182.474 178.226 182.93 178.334C183.386 178.43 183.758 178.55 184.046 178.694L183.56 180.008C183.272 179.9 182.936 179.798 182.552 179.702C182.168 179.606 181.808 179.558 181.472 179.558C179.576 179.558 178.628 180.776 178.628 183.212C178.628 184.376 178.856 185.27 179.312 185.894C179.78 186.506 180.47 186.812 181.382 186.812C181.91 186.812 182.372 186.758 182.768 186.65C183.176 186.542 183.548 186.41 183.884 186.254V187.658C183.56 187.826 183.2 187.952 182.804 188.036C182.42 188.132 181.952 188.18 181.4 188.18ZM189.472 178.19C190.648 178.19 191.518 178.448 192.082 178.964C192.646 179.48 192.928 180.302 192.928 181.43V188H191.776L191.47 186.632H191.398C190.978 187.16 190.534 187.55 190.066 187.802C189.61 188.054 188.974 188.18 188.158 188.18C187.282 188.18 186.556 187.952 185.98 187.496C185.404 187.028 185.116 186.302 185.116 185.318C185.116 184.358 185.494 183.62 186.25 183.104C187.006 182.576 188.17 182.288 189.742 182.24L191.38 182.186V181.61C191.38 180.806 191.206 180.248 190.858 179.936C190.51 179.624 190.018 179.468 189.382 179.468C188.878 179.468 188.398 179.546 187.942 179.702C187.486 179.846 187.06 180.014 186.664 180.206L186.178 179.018C186.598 178.79 187.096 178.598 187.672 178.442C188.248 178.274 188.848 178.19 189.472 178.19ZM189.94 183.338C188.74 183.386 187.906 183.578 187.438 183.914C186.982 184.25 186.754 184.724 186.754 185.336C186.754 185.876 186.916 186.272 187.24 186.524C187.576 186.776 188.002 186.902 188.518 186.902C189.334 186.902 190.012 186.68 190.552 186.236C191.092 185.78 191.362 185.084 191.362 184.148V183.284L189.94 183.338ZM205.898 178.352V188H204.476V181.844C204.476 181.592 204.482 181.328 204.494 181.052C204.518 180.776 204.542 180.506 204.566 180.242H204.512L201.362 188H200.03L196.97 180.242H196.916C196.952 180.782 196.97 181.334 196.97 181.898V188H195.548V178.352H197.654L200.696 186.11L203.792 178.352H205.898ZM214.324 178.352H216.052L211.93 182.996L216.394 188H214.558L210.202 183.104V188H208.618V178.352H210.202V183.032L214.324 178.352ZM221.439 178.19C222.615 178.19 223.485 178.448 224.049 178.964C224.613 179.48 224.895 180.302 224.895 181.43V188H223.743L223.437 186.632H223.365C222.945 187.16 222.501 187.55 222.033 187.802C221.577 188.054 220.941 188.18 220.125 188.18C219.249 188.18 218.523 187.952 217.947 187.496C217.371 187.028 217.083 186.302 217.083 185.318C217.083 184.358 217.461 183.62 218.217 183.104C218.973 182.576 220.137 182.288 221.709 182.24L223.347 182.186V181.61C223.347 180.806 223.173 180.248 222.825 179.936C222.477 179.624 221.985 179.468 221.349 179.468C220.845 179.468 220.365 179.546 219.909 179.702C219.453 179.846 219.027 180.014 218.631 180.206L218.145 179.018C218.565 178.79 219.063 178.598 219.639 178.442C220.215 178.274 220.815 178.19 221.439 178.19ZM221.907 183.338C220.707 183.386 219.873 183.578 219.405 183.914C218.949 184.25 218.721 184.724 218.721 185.336C218.721 185.876 218.883 186.272 219.207 186.524C219.543 186.776 219.969 186.902 220.485 186.902C221.301 186.902 221.979 186.68 222.519 186.236C223.059 185.78 223.329 185.084 223.329 184.148V183.284L221.907 183.338ZM240.883 186.075H245.937V188H236.823L241.534 182.296C241.997 181.728 242.383 181.235 242.694 180.819C243.01 180.403 243.251 180.055 243.415 179.773C243.749 179.223 243.916 178.728 243.916 178.288C243.916 177.655 243.693 177.125 243.248 176.697C242.802 176.27 242.251 176.056 241.595 176.056C240.224 176.056 239.439 176.867 239.24 178.49H237.201C237.529 175.631 238.973 174.201 241.534 174.201C242.77 174.201 243.807 174.594 244.645 175.379C245.489 176.164 245.911 177.137 245.911 178.297C245.911 179.035 245.714 179.759 245.322 180.468C245.123 180.837 244.83 181.276 244.443 181.786C244.062 182.29 243.579 182.888 242.993 183.579L240.883 186.075ZM251.633 186.075H256.686V188H247.572L252.283 182.296C252.746 181.728 253.133 181.235 253.443 180.819C253.76 180.403 254 180.055 254.164 179.773C254.498 179.223 254.665 178.728 254.665 178.288C254.665 177.655 254.442 177.125 253.997 176.697C253.552 176.27 253.001 176.056 252.345 176.056C250.974 176.056 250.188 176.867 249.989 178.49H247.95C248.278 175.631 249.723 174.201 252.283 174.201C253.519 174.201 254.557 174.594 255.394 175.379C256.238 176.164 256.66 177.137 256.66 178.297C256.66 179.035 256.464 179.759 256.071 180.468C255.872 180.837 255.579 181.276 255.192 181.786C254.811 182.29 254.328 182.888 253.742 183.579L251.633 186.075ZM266.627 184.212H268.069V186.075H266.627V188H264.579V186.075H257.917L266.627 173.419V184.212ZM264.579 184.212V179.668L261.45 184.212H264.579ZM272.543 188.466L271.04 187.35L274.283 182.929C274.107 182.952 273.958 182.97 273.835 182.981C273.712 182.993 273.612 182.999 273.536 182.999C272.44 182.999 271.491 182.58 270.688 181.742C269.891 180.91 269.493 179.908 269.493 178.736C269.493 177.488 269.935 176.422 270.82 175.537C271.711 174.646 272.777 174.201 274.019 174.201C275.255 174.201 276.331 174.641 277.245 175.52C278.159 176.393 278.616 177.424 278.616 178.613C278.616 179.668 278.171 180.808 277.28 182.032L272.543 188.466ZM271.488 178.587C271.488 179.319 271.737 179.935 272.235 180.433C272.739 180.937 273.345 181.188 274.054 181.188C274.763 181.188 275.367 180.939 275.865 180.441C276.369 179.938 276.621 179.331 276.621 178.622C276.621 177.913 276.369 177.307 275.865 176.803C275.367 176.305 274.76 176.056 274.046 176.056C273.342 176.056 272.742 176.305 272.244 176.803C271.74 177.307 271.488 177.901 271.488 178.587Z" fill="white"/>
<defs>
<filter id="filter0_b" x="-100" y="-100" width="505" height="435.962" filterUnits="userSpaceOnUse" color-interpolation-filters="sRGB">
<feFlood flood-opacity="0" result="BackgroundImageFix"/>
<feGaussianBlur in="BackgroundImage" stdDeviation="50"/>
<feComposite in2="SourceAlpha" operator="in" result="effect1_backgroundBlur"/>
<feBlend mode="normal" in="SourceGraphic" in2="effect1_backgroundBlur" result="shape"/>
</filter>
</defs>
</svg>
