<svg width="305" height="236" viewBox="0 0 305 236" fill="none" xmlns="http://www.w3.org/2000/svg">
<g filter="url(#filter0_b)">
<mask id="path-1-inside-1" fill="white">
<path fill-rule="evenodd" clip-rule="evenodd" d="M305 50C305 22.3858 282.614 0 255 0H50C22.3858 0 0 22.3857 0 50V160.433C0 188.047 22.3857 210.433 50 210.433H199.843C208.268 210.433 215.882 215.454 219.201 223.198V223.198C226.495 240.217 250.623 240.217 257.917 223.198V223.198C261.236 215.454 268.851 210.433 277.276 210.433H279.923C293.773 210.433 305 199.206 305 185.356V50Z"/>
</mask>
<path fill-rule="evenodd" clip-rule="evenodd" d="M305 50C305 22.3858 282.614 0 255 0H50C22.3858 0 0 22.3857 0 50V160.433C0 188.047 22.3857 210.433 50 210.433H199.843C208.268 210.433 215.882 215.454 219.201 223.198V223.198C226.495 240.217 250.623 240.217 257.917 223.198V223.198C261.236 215.454 268.851 210.433 277.276 210.433H279.923C293.773 210.433 305 199.206 305 185.356V50Z" fill="#B1B9FF"/>
<path d="M50 5H255V-5H50V5ZM5 160.433V50H-5V160.433H5ZM199.843 205.433H50V215.433H199.843V205.433ZM279.923 205.433H277.276V215.433H279.923V205.433ZM300 50V185.356H310V50H300ZM279.923 215.433C296.534 215.433 310 201.967 310 185.356H300C300 196.444 291.011 205.433 279.923 205.433V215.433ZM262.513 225.167C265.044 219.262 270.851 215.433 277.276 215.433V205.433C266.85 205.433 257.428 211.646 253.322 221.228L262.513 225.167ZM214.605 225.167C223.631 246.227 253.487 246.227 262.513 225.167L253.322 221.228C247.759 234.207 229.359 234.207 223.797 221.228L214.605 225.167ZM199.843 215.433C206.268 215.433 212.074 219.262 214.605 225.167L223.797 221.228C219.69 211.646 210.268 205.433 199.843 205.433V215.433ZM-5 160.433C-5 190.809 19.6243 215.433 50 215.433V205.433C25.1472 205.433 5 185.286 5 160.433H-5ZM255 5C279.853 5 300 25.1472 300 50H310C310 19.6243 285.376 -5 255 -5V5ZM50 -5C19.6243 -5 -5 19.6243 -5 50H5C5 25.1472 25.1472 5 50 5V-5Z" fill="white" mask="url(#path-1-inside-1)"/>
</g>
<path d="M34.23 58.14H30.63V69H25.2V58.14H21.6V53.61H34.23V58.14ZM41.4211 61.26C41.4211 61.76 41.5111 62.23 41.6911 62.67C41.8711 63.09 42.1111 63.46 42.4111 63.78C42.7311 64.1 43.1011 64.35 43.5211 64.53C43.9611 64.71 44.4311 64.8 44.9311 64.8C45.4111 64.8 45.8611 64.71 46.2811 64.53C46.7211 64.35 47.0911 64.1 47.3911 63.78C47.7111 63.46 47.9611 63.09 48.1411 62.67C48.3411 62.25 48.4411 61.8 48.4411 61.32C48.4411 60.84 48.3411 60.39 48.1411 59.97C47.9611 59.53 47.7111 59.15 47.3911 58.83C47.0911 58.51 46.7211 58.26 46.2811 58.08C45.8611 57.9 45.4111 57.81 44.9311 57.81C44.4311 57.81 43.9611 57.9 43.5211 58.08C43.1011 58.26 42.7311 58.51 42.4111 58.83C42.1111 59.15 41.8711 59.52 41.6911 59.94C41.5111 60.34 41.4211 60.78 41.4211 61.26ZM48.2611 53.61H53.7211V69H48.2611V67.29C47.1011 68.75 45.5311 69.48 43.5511 69.48C42.4311 69.48 41.4011 69.28 40.4611 68.88C39.5211 68.46 38.7011 67.88 38.0011 67.14C37.3011 66.4 36.7511 65.53 36.3511 64.53C35.9711 63.53 35.7811 62.44 35.7811 61.26C35.7811 60.16 35.9711 59.12 36.3511 58.14C36.7311 57.14 37.2611 56.27 37.9411 55.53C38.6211 54.79 39.4311 54.21 40.3711 53.79C41.3111 53.35 42.3511 53.13 43.4911 53.13C45.4111 53.13 47.0011 53.8 48.2611 55.14V53.61ZM61.8562 61.26C61.8562 61.76 61.9462 62.23 62.1262 62.67C62.3062 63.09 62.5462 63.46 62.8462 63.78C63.1662 64.1 63.5362 64.35 63.9562 64.53C64.3962 64.71 64.8662 64.8 65.3662 64.8C65.8462 64.8 66.2962 64.71 66.7162 64.53C67.1563 64.35 67.5263 64.1 67.8262 63.78C68.1462 63.46 68.3962 63.09 68.5763 62.67C68.7762 62.25 68.8762 61.8 68.8762 61.32C68.8762 60.84 68.7762 60.39 68.5763 59.97C68.3962 59.53 68.1462 59.15 67.8262 58.83C67.5263 58.51 67.1563 58.26 66.7162 58.08C66.2962 57.9 65.8462 57.81 65.3662 57.81C64.8662 57.81 64.3962 57.9 63.9562 58.08C63.5362 58.26 63.1662 58.51 62.8462 58.83C62.5462 59.15 62.3062 59.52 62.1262 59.94C61.9462 60.34 61.8562 60.78 61.8562 61.26ZM68.6963 53.61H74.1563V69H68.6963V67.29C67.5362 68.75 65.9662 69.48 63.9863 69.48C62.8662 69.48 61.8362 69.28 60.8962 68.88C59.9562 68.46 59.1362 67.88 58.4362 67.14C57.7362 66.4 57.1862 65.53 56.7862 64.53C56.4062 63.53 56.2162 62.44 56.2162 61.26C56.2162 60.16 56.4062 59.12 56.7862 58.14C57.1662 57.14 57.6962 56.27 58.3762 55.53C59.0562 54.79 59.8662 54.21 60.8062 53.79C61.7462 53.35 62.7862 53.13 63.9262 53.13C65.8462 53.13 67.4362 53.8 68.6963 55.14V53.61ZM82.2914 61.26C82.2914 61.76 82.3814 62.23 82.5614 62.67C82.7414 63.09 82.9814 63.46 83.2814 63.78C83.6014 64.1 83.9714 64.35 84.3914 64.53C84.8314 64.71 85.3014 64.8 85.8014 64.8C86.2814 64.8 86.7314 64.71 87.1514 64.53C87.5914 64.35 87.9614 64.1 88.2614 63.78C88.5814 63.46 88.8314 63.09 89.0114 62.67C89.2114 62.25 89.3114 61.8 89.3114 61.32C89.3114 60.84 89.2114 60.39 89.0114 59.97C88.8314 59.53 88.5814 59.15 88.2614 58.83C87.9614 58.51 87.5914 58.26 87.1514 58.08C86.7314 57.9 86.2814 57.81 85.8014 57.81C85.3014 57.81 84.8314 57.9 84.3914 58.08C83.9714 58.26 83.6014 58.51 83.2814 58.83C82.9814 59.15 82.7414 59.52 82.5614 59.94C82.3814 60.34 82.2914 60.78 82.2914 61.26ZM89.1314 53.61H94.5914V69H89.1314V67.29C87.9714 68.75 86.4014 69.48 84.4214 69.48C83.3014 69.48 82.2714 69.28 81.3314 68.88C80.3914 68.46 79.5714 67.88 78.8714 67.14C78.1714 66.4 77.6214 65.53 77.2214 64.53C76.8414 63.53 76.6514 62.44 76.6514 61.26C76.6514 60.16 76.8414 59.12 77.2214 58.14C77.6014 57.14 78.1314 56.27 78.8114 55.53C79.4914 54.79 80.3014 54.21 81.2414 53.79C82.1814 53.35 83.2214 53.13 84.3614 53.13C86.2814 53.13 87.8714 53.8 89.1314 55.14V53.61ZM107.617 53.61H113.407L107.317 60.99L114.217 69H108.007L103.117 62.85V69H97.6866V53.61H103.117V59.79L107.617 53.61ZM116.594 61.32V46.38H122.234V61.32H116.594ZM115.904 66.12C115.904 65.64 115.994 65.19 116.174 64.77C116.354 64.33 116.604 63.95 116.924 63.63C117.244 63.31 117.614 63.06 118.034 62.88C118.474 62.7 118.934 62.61 119.414 62.61C119.894 62.61 120.344 62.7 120.764 62.88C121.204 63.06 121.584 63.31 121.904 63.63C122.224 63.95 122.474 64.33 122.654 64.77C122.834 65.19 122.924 65.64 122.924 66.12C122.924 66.6 122.834 67.06 122.654 67.5C122.474 67.92 122.224 68.29 121.904 68.61C121.584 68.93 121.204 69.18 120.764 69.36C120.344 69.54 119.894 69.63 119.414 69.63C118.934 69.63 118.474 69.54 118.034 69.36C117.614 69.18 117.244 68.93 116.924 68.61C116.604 68.29 116.354 67.92 116.174 67.5C115.994 67.06 115.904 66.6 115.904 66.12ZM31.5 82.75C31.02 82.75 30.56 82.84 30.12 83.02C29.7 83.2 29.33 83.45 29.01 83.77C28.71 84.09 28.46 84.46 28.26 84.88C28.08 85.3 27.99 85.76 27.99 86.26C27.99 86.74 28.08 87.2 28.26 87.64C28.44 88.06 28.68 88.43 28.98 88.75C29.3 89.07 29.67 89.33 30.09 89.53C30.53 89.71 31 89.8 31.5 89.8C31.98 89.8 32.43 89.71 32.85 89.53C33.29 89.33 33.67 89.07 33.99 88.75C34.31 88.43 34.56 88.06 34.74 87.64C34.92 87.2 35.01 86.74 35.01 86.26C35.01 85.78 34.92 85.33 34.74 84.91C34.56 84.47 34.31 84.09 33.99 83.77C33.67 83.45 33.29 83.2 32.85 83.02C32.43 82.84 31.98 82.75 31.5 82.75ZM37.56 74.44C37.28 74.7 37.02 74.92 36.78 75.1C36.56 75.26 36.29 75.41 35.97 75.55C35.65 75.69 35.25 75.84 34.77 76C34.29 76.16 33.66 76.36 32.88 76.6C32.2 76.82 31.65 77 31.23 77.14C30.81 77.28 30.47 77.41 30.21 77.53C29.95 77.65 29.74 77.78 29.58 77.92C29.44 78.04 29.3 78.19 29.16 78.37L28.98 78.61C29.44 78.43 29.9 78.29 30.36 78.19C30.84 78.09 31.38 78.04 31.98 78.04C33.2 78.04 34.34 78.25 35.4 78.67C36.48 79.09 37.42 79.67 38.22 80.41C39.02 81.15 39.64 82.03 40.08 83.05C40.54 84.07 40.77 85.19 40.77 86.41C40.77 87.59 40.54 88.68 40.08 89.68C39.64 90.68 39.01 91.54 38.19 92.26C37.37 92.98 36.37 93.55 35.19 93.97C34.01 94.37 32.69 94.57 31.23 94.57C29.89 94.57 28.67 94.38 27.57 94C26.47 93.62 25.52 93.03 24.72 92.23C23.94 91.43 23.33 90.41 22.89 89.17C22.47 87.91 22.26 86.41 22.26 84.67C22.26 81.87 22.82 79.49 23.94 77.53C25.06 75.55 26.68 74.11 28.8 73.21C29.06 73.09 29.27 73.01 29.43 72.97C29.59 72.91 29.76 72.86 29.94 72.82C30.14 72.76 30.38 72.69 30.66 72.61C30.96 72.51 31.39 72.37 31.95 72.19C32.83 71.91 33.57 71.66 34.17 71.44C34.77 71.22 35.28 71 35.7 70.78C36.12 70.54 36.47 70.29 36.75 70.03C37.03 69.77 37.3 69.46 37.56 69.1V74.44ZM54.5159 84.07C54.3359 83.31 53.9659 82.7 53.4059 82.24C52.8459 81.78 52.1659 81.55 51.3659 81.55C50.5259 81.55 49.8359 81.77 49.2959 82.21C48.7759 82.65 48.4459 83.27 48.3059 84.07H54.5159ZM48.1559 87.22C48.1559 89.56 49.2559 90.73 51.4559 90.73C52.6359 90.73 53.5259 90.25 54.1259 89.29H59.3759C58.3159 92.81 55.6659 94.57 51.4259 94.57C50.1259 94.57 48.9359 94.38 47.8559 94C46.7759 93.6 45.8459 93.04 45.0659 92.32C44.3059 91.6 43.7159 90.74 43.2959 89.74C42.8759 88.74 42.6659 87.62 42.6659 86.38C42.6659 85.1 42.8659 83.95 43.2659 82.93C43.6659 81.89 44.2359 81.01 44.9759 80.29C45.7159 79.57 46.6059 79.02 47.6459 78.64C48.7059 78.24 49.8959 78.04 51.2159 78.04C52.5159 78.04 53.6859 78.24 54.7259 78.64C55.7659 79.02 56.6459 79.58 57.3659 80.32C58.0859 81.06 58.6359 81.97 59.0159 83.05C59.3959 84.11 59.5859 85.31 59.5859 86.65V87.22H48.1559ZM62.0897 94V78.61H71.7197V83.14H67.4897V94H62.0897ZM78.7193 86.23C78.7193 86.75 78.8093 87.23 78.9893 87.67C79.1893 88.09 79.4393 88.46 79.7393 88.78C80.0593 89.1 80.4293 89.35 80.8493 89.53C81.2893 89.71 81.7493 89.8 82.2293 89.8C82.7093 89.8 83.1593 89.71 83.5793 89.53C84.0193 89.35 84.3893 89.1 84.6893 88.78C85.0093 88.46 85.2593 88.09 85.4393 87.67C85.6393 87.23 85.7393 86.76 85.7393 86.26C85.7393 85.78 85.6393 85.33 85.4393 84.91C85.2593 84.47 85.0093 84.09 84.6893 83.77C84.3893 83.45 84.0193 83.2 83.5793 83.02C83.1593 82.84 82.7093 82.75 82.2293 82.75C81.7493 82.75 81.2893 82.84 80.8493 83.02C80.4293 83.2 80.0593 83.45 79.7393 83.77C79.4393 84.09 79.1893 84.46 78.9893 84.88C78.8093 85.3 78.7193 85.75 78.7193 86.23ZM72.9893 86.17C72.9893 85.03 73.2193 83.97 73.6793 82.99C74.1393 81.99 74.7793 81.13 75.5993 80.41C76.4193 79.67 77.3893 79.09 78.5093 78.67C79.6493 78.25 80.8893 78.04 82.2293 78.04C83.5493 78.04 84.7693 78.25 85.8893 78.67C87.0293 79.07 88.0093 79.64 88.8293 80.38C89.6693 81.1 90.3193 81.97 90.7793 82.99C91.2393 83.99 91.4693 85.1 91.4693 86.32C91.4693 87.54 91.2293 88.66 90.7493 89.68C90.2893 90.68 89.6493 91.55 88.8293 92.29C88.0093 93.01 87.0193 93.57 85.8593 93.97C84.7193 94.37 83.4793 94.57 82.1393 94.57C80.8193 94.57 79.5993 94.37 78.4793 93.97C77.3593 93.57 76.3893 93 75.5693 92.26C74.7693 91.52 74.1393 90.64 73.6793 89.62C73.2193 88.58 72.9893 87.43 72.9893 86.17ZM102.065 94L98.7352 84.94L97.2352 94H92.6452L95.5852 78.61H100.055L103.235 86.92L106.415 78.61H110.885L113.825 94H109.205L107.735 84.94L104.405 94H102.065ZM136.658 83.14H132.548V87.76C132.548 88.16 132.538 88.48 132.518 88.72C132.498 88.96 132.468 89.21 132.428 89.47H136.658V83.14ZM125.678 89.47C126.218 89.47 126.588 89.29 126.788 88.93C126.988 88.57 127.088 88.01 127.088 87.25V78.61H142.088V89.47H143.918V97.15H138.488V94H130.358V97.15H124.928V89.47H125.678ZM151.554 86.23C151.554 86.75 151.644 87.23 151.824 87.67C152.024 88.09 152.274 88.46 152.574 88.78C152.894 89.1 153.264 89.35 153.684 89.53C154.124 89.71 154.584 89.8 155.064 89.8C155.544 89.8 155.994 89.71 156.414 89.53C156.854 89.35 157.224 89.1 157.524 88.78C157.844 88.46 158.094 88.09 158.274 87.67C158.474 87.23 158.574 86.76 158.574 86.26C158.574 85.78 158.474 85.33 158.274 84.91C158.094 84.47 157.844 84.09 157.524 83.77C157.224 83.45 156.854 83.2 156.414 83.02C155.994 82.84 155.544 82.75 155.064 82.75C154.584 82.75 154.124 82.84 153.684 83.02C153.264 83.2 152.894 83.45 152.574 83.77C152.274 84.09 152.024 84.46 151.824 84.88C151.644 85.3 151.554 85.75 151.554 86.23ZM145.824 86.17C145.824 85.03 146.054 83.97 146.514 82.99C146.974 81.99 147.614 81.13 148.434 80.41C149.254 79.67 150.224 79.09 151.344 78.67C152.484 78.25 153.724 78.04 155.064 78.04C156.384 78.04 157.604 78.25 158.724 78.67C159.864 79.07 160.844 79.64 161.664 80.38C162.504 81.1 163.154 81.97 163.614 82.99C164.074 83.99 164.304 85.1 164.304 86.32C164.304 87.54 164.064 88.66 163.584 89.68C163.124 90.68 162.484 91.55 161.664 92.29C160.844 93.01 159.854 93.57 158.694 93.97C157.554 94.37 156.314 94.57 154.974 94.57C153.654 94.57 152.434 94.37 151.314 93.97C150.194 93.57 149.224 93 148.404 92.26C147.604 91.52 146.974 90.64 146.514 89.62C146.054 88.58 145.824 87.43 145.824 86.17ZM174.9 94L171.57 84.94L170.07 94H165.48L168.42 78.61H172.89L176.07 86.92L179.25 78.61H183.72L186.66 94H182.04L180.57 84.94L177.24 94H174.9ZM193.567 86.23C193.567 86.75 193.657 87.23 193.837 87.67C194.037 88.09 194.287 88.46 194.587 88.78C194.907 89.1 195.277 89.35 195.697 89.53C196.137 89.71 196.597 89.8 197.077 89.8C197.557 89.8 198.007 89.71 198.427 89.53C198.867 89.35 199.237 89.1 199.537 88.78C199.857 88.46 200.107 88.09 200.287 87.67C200.487 87.23 200.587 86.76 200.587 86.26C200.587 85.78 200.487 85.33 200.287 84.91C200.107 84.47 199.857 84.09 199.537 83.77C199.237 83.45 198.867 83.2 198.427 83.02C198.007 82.84 197.557 82.75 197.077 82.75C196.597 82.75 196.137 82.84 195.697 83.02C195.277 83.2 194.907 83.45 194.587 83.77C194.287 84.09 194.037 84.46 193.837 84.88C193.657 85.3 193.567 85.75 193.567 86.23ZM187.837 86.17C187.837 85.03 188.067 83.97 188.527 82.99C188.987 81.99 189.627 81.13 190.447 80.41C191.267 79.67 192.237 79.09 193.357 78.67C194.497 78.25 195.737 78.04 197.077 78.04C198.397 78.04 199.617 78.25 200.737 78.67C201.877 79.07 202.857 79.64 203.677 80.38C204.517 81.1 205.167 81.97 205.627 82.99C206.087 83.99 206.317 85.1 206.317 86.32C206.317 87.54 206.077 88.66 205.597 89.68C205.137 90.68 204.497 91.55 203.677 92.29C202.857 93.01 201.867 93.57 200.707 93.97C199.567 94.37 198.327 94.57 196.987 94.57C195.667 94.57 194.447 94.37 193.327 93.97C192.207 93.57 191.237 93 190.417 92.26C189.617 91.52 188.987 90.64 188.527 89.62C188.067 88.58 187.837 87.43 187.837 86.17ZM214.272 78.61V87.22L220.722 78.61H226.152V94H220.722V85.42L214.242 94H208.842V78.61H214.272ZM223.362 70.45C223.182 74.23 221.212 76.12 217.452 76.12C213.672 76.12 211.692 74.23 211.512 70.45H214.992C215.192 72.09 216.012 72.91 217.452 72.91C218.852 72.91 219.672 72.09 219.912 70.45H223.362ZM230.958 88.27H236.058L230.538 98.2H227.058L230.958 88.27ZM34.11 109.07C33.93 108.31 33.56 107.7 33 107.24C32.44 106.78 31.76 106.55 30.96 106.55C30.12 106.55 29.43 106.77 28.89 107.21C28.37 107.65 28.04 108.27 27.9 109.07H34.11ZM27.75 112.22C27.75 114.56 28.85 115.73 31.05 115.73C32.23 115.73 33.12 115.25 33.72 114.29H38.97C37.91 117.81 35.26 119.57 31.02 119.57C29.72 119.57 28.53 119.38 27.45 119C26.37 118.6 25.44 118.04 24.66 117.32C23.9 116.6 23.31 115.74 22.89 114.74C22.47 113.74 22.26 112.62 22.26 111.38C22.26 110.1 22.46 108.95 22.86 107.93C23.26 106.89 23.83 106.01 24.57 105.29C25.31 104.57 26.2 104.02 27.24 103.64C28.3 103.24 29.49 103.04 30.81 103.04C32.11 103.04 33.28 103.24 34.32 103.64C35.36 104.02 36.24 104.58 36.96 105.32C37.68 106.06 38.23 106.97 38.61 108.05C38.99 109.11 39.18 110.31 39.18 111.65V112.22H27.75ZM53.1438 108.14H49.0338V112.76C49.0338 113.16 49.0238 113.48 49.0038 113.72C48.9838 113.96 48.9538 114.21 48.9138 114.47H53.1438V108.14ZM42.1638 114.47C42.7038 114.47 43.0738 114.29 43.2738 113.93C43.4738 113.57 43.5738 113.01 43.5738 112.25V103.61H58.5738V114.47H60.4038V122.15H54.9738V119H46.8438V122.15H41.4138V114.47H42.1638ZM67.95 111.26C67.95 111.76 68.04 112.23 68.22 112.67C68.4 113.09 68.64 113.46 68.94 113.78C69.26 114.1 69.63 114.35 70.05 114.53C70.49 114.71 70.96 114.8 71.46 114.8C71.94 114.8 72.39 114.71 72.81 114.53C73.25 114.35 73.62 114.1 73.92 113.78C74.24 113.46 74.49 113.09 74.67 112.67C74.87 112.25 74.97 111.8 74.97 111.32C74.97 110.84 74.87 110.39 74.67 109.97C74.49 109.53 74.24 109.15 73.92 108.83C73.62 108.51 73.25 108.26 72.81 108.08C72.39 107.9 71.94 107.81 71.46 107.81C70.96 107.81 70.49 107.9 70.05 108.08C69.63 108.26 69.26 108.51 68.94 108.83C68.64 109.15 68.4 109.52 68.22 109.94C68.04 110.34 67.95 110.78 67.95 111.26ZM74.79 103.61H80.25V119H74.79V117.29C73.63 118.75 72.06 119.48 70.08 119.48C68.96 119.48 67.93 119.28 66.99 118.88C66.05 118.46 65.23 117.88 64.53 117.14C63.83 116.4 63.28 115.53 62.88 114.53C62.5 113.53 62.31 112.44 62.31 111.26C62.31 110.16 62.5 109.12 62.88 108.14C63.26 107.14 63.79 106.27 64.47 105.53C65.15 104.79 65.96 104.21 66.9 103.79C67.84 103.35 68.88 103.13 70.02 103.13C71.94 103.13 73.53 103.8 74.79 105.14V103.61ZM103.89 108.92V103.61H109.32V119H103.89V113.39H98.3705V119H92.9405V103.61H98.3705V108.92H103.89ZM117.478 111.26C117.478 111.76 117.568 112.23 117.748 112.67C117.928 113.09 118.168 113.46 118.468 113.78C118.788 114.1 119.158 114.35 119.578 114.53C120.018 114.71 120.488 114.8 120.988 114.8C121.468 114.8 121.918 114.71 122.338 114.53C122.778 114.35 123.148 114.1 123.448 113.78C123.768 113.46 124.018 113.09 124.198 112.67C124.398 112.25 124.498 111.8 124.498 111.32C124.498 110.84 124.398 110.39 124.198 109.97C124.018 109.53 123.768 109.15 123.448 108.83C123.148 108.51 122.778 108.26 122.338 108.08C121.918 107.9 121.468 107.81 120.988 107.81C120.488 107.81 120.018 107.9 119.578 108.08C119.158 108.26 118.788 108.51 118.468 108.83C118.168 109.15 117.928 109.52 117.748 109.94C117.568 110.34 117.478 110.78 117.478 111.26ZM124.318 103.61H129.778V119H124.318V117.29C123.158 118.75 121.588 119.48 119.608 119.48C118.488 119.48 117.458 119.28 116.518 118.88C115.578 118.46 114.758 117.88 114.058 117.14C113.358 116.4 112.808 115.53 112.408 114.53C112.028 113.53 111.838 112.44 111.838 111.26C111.838 110.16 112.028 109.12 112.408 108.14C112.788 107.14 113.318 106.27 113.998 105.53C114.678 104.79 115.488 104.21 116.428 103.79C117.368 103.35 118.408 103.13 119.548 103.13C121.468 103.13 123.058 103.8 124.318 105.14V103.61ZM154.079 108.59C153.139 107.95 152.189 107.63 151.229 107.63C150.709 107.63 150.219 107.72 149.759 107.9C149.319 108.08 148.929 108.34 148.589 108.68C148.249 109 147.979 109.39 147.779 109.85C147.599 110.29 147.509 110.79 147.509 111.35C147.509 111.89 147.599 112.39 147.779 112.85C147.979 113.29 148.239 113.68 148.559 114.02C148.899 114.34 149.299 114.59 149.759 114.77C150.219 114.95 150.709 115.04 151.229 115.04C152.249 115.04 153.199 114.69 154.079 113.99V118.61C152.739 119.19 151.469 119.48 150.269 119.48C149.149 119.48 148.079 119.29 147.059 118.91C146.059 118.53 145.169 117.99 144.389 117.29C143.629 116.57 143.019 115.72 142.559 114.74C142.099 113.74 141.869 112.63 141.869 111.41C141.869 110.19 142.089 109.08 142.529 108.08C142.969 107.06 143.569 106.19 144.329 105.47C145.089 104.73 145.989 104.16 147.029 103.76C148.089 103.34 149.219 103.13 150.419 103.13C151.739 103.13 152.959 103.41 154.079 103.97V108.59ZM167.946 108.14H164.346V119H158.916V108.14H155.316V103.61H167.946V108.14ZM174.904 111.23C174.904 111.75 174.994 112.23 175.174 112.67C175.374 113.09 175.624 113.46 175.924 113.78C176.244 114.1 176.614 114.35 177.034 114.53C177.474 114.71 177.934 114.8 178.414 114.8C178.894 114.8 179.344 114.71 179.764 114.53C180.204 114.35 180.574 114.1 180.874 113.78C181.194 113.46 181.444 113.09 181.624 112.67C181.824 112.23 181.924 111.76 181.924 111.26C181.924 110.78 181.824 110.33 181.624 109.91C181.444 109.47 181.194 109.09 180.874 108.77C180.574 108.45 180.204 108.2 179.764 108.02C179.344 107.84 178.894 107.75 178.414 107.75C177.934 107.75 177.474 107.84 177.034 108.02C176.614 108.2 176.244 108.45 175.924 108.77C175.624 109.09 175.374 109.46 175.174 109.88C174.994 110.3 174.904 110.75 174.904 111.23ZM169.174 111.17C169.174 110.03 169.404 108.97 169.864 107.99C170.324 106.99 170.964 106.13 171.784 105.41C172.604 104.67 173.574 104.09 174.694 103.67C175.834 103.25 177.074 103.04 178.414 103.04C179.734 103.04 180.954 103.25 182.074 103.67C183.214 104.07 184.194 104.64 185.014 105.38C185.854 106.1 186.504 106.97 186.964 107.99C187.424 108.99 187.654 110.1 187.654 111.32C187.654 112.54 187.414 113.66 186.934 114.68C186.474 115.68 185.834 116.55 185.014 117.29C184.194 118.01 183.204 118.57 182.044 118.97C180.904 119.37 179.664 119.57 178.324 119.57C177.004 119.57 175.784 119.37 174.664 118.97C173.544 118.57 172.574 118 171.754 117.26C170.954 116.52 170.324 115.64 169.864 114.62C169.404 113.58 169.174 112.43 169.174 111.17ZM189.46 114.53C189.52 114.55 189.61 114.56 189.73 114.56C189.99 114.56 190.22 114.54 190.42 114.5C190.62 114.46 190.78 114.38 190.9 114.26C191.02 114.12 191.11 113.92 191.17 113.66C191.23 113.4 191.26 113.06 191.26 112.64V103.61H206.26V119H200.83V108.14H196.69V113.24C196.69 114.34 196.52 115.29 196.18 116.09C195.86 116.89 195.41 117.55 194.83 118.07C194.25 118.59 193.54 118.97 192.7 119.21C191.88 119.47 190.98 119.6 190 119.6H189.46V114.53ZM220.635 109.07C220.455 108.31 220.085 107.7 219.525 107.24C218.965 106.78 218.285 106.55 217.485 106.55C216.645 106.55 215.955 106.77 215.415 107.21C214.895 107.65 214.565 108.27 214.425 109.07H220.635ZM214.275 112.22C214.275 114.56 215.375 115.73 217.575 115.73C218.755 115.73 219.645 115.25 220.245 114.29H225.495C224.435 117.81 221.785 119.57 217.545 119.57C216.245 119.57 215.055 119.38 213.975 119C212.895 118.6 211.965 118.04 211.185 117.32C210.425 116.6 209.835 115.74 209.415 114.74C208.995 113.74 208.785 112.62 208.785 111.38C208.785 110.1 208.985 108.95 209.385 107.93C209.785 106.89 210.355 106.01 211.095 105.29C211.835 104.57 212.725 104.02 213.765 103.64C214.825 103.24 216.015 103.04 217.335 103.04C218.635 103.04 219.805 103.24 220.845 103.64C221.885 104.02 222.765 104.58 223.485 105.32C224.205 106.06 224.755 106.97 225.135 108.05C225.515 109.11 225.705 110.31 225.705 111.65V112.22H214.275ZM30.9 140.22C31.32 140.22 31.64 140.1 31.86 139.86C32.08 139.62 32.19 139.3 32.19 138.9C32.19 138.04 31.76 137.61 30.9 137.61H27.93V140.22H30.9ZM30.51 134.55C31.09 134.55 31.38 134.18 31.38 133.44C31.38 132.7 31.09 132.33 30.51 132.33H27.93V134.55H30.51ZM22.86 128.61H31.02C32.54 128.61 33.69 128.96 34.47 129.66C35.27 130.34 35.67 131.33 35.67 132.63C35.67 133.39 35.55 134.01 35.31 134.49C35.07 134.97 34.66 135.38 34.08 135.72C36.18 136.14 37.23 137.41 37.23 139.53C37.23 140.95 36.69 142.05 35.61 142.83C34.55 143.61 33.08 144 31.2 144H22.86V128.61ZM50.9794 133.59C50.0394 132.95 49.0894 132.63 48.1294 132.63C47.6094 132.63 47.1194 132.72 46.6594 132.9C46.2194 133.08 45.8294 133.34 45.4894 133.68C45.1494 134 44.8794 134.39 44.6794 134.85C44.4994 135.29 44.4094 135.79 44.4094 136.35C44.4094 136.89 44.4994 137.39 44.6794 137.85C44.8794 138.29 45.1394 138.68 45.4594 139.02C45.7994 139.34 46.1994 139.59 46.6594 139.77C47.1194 139.95 47.6094 140.04 48.1294 140.04C49.1494 140.04 50.0994 139.69 50.9794 138.99V143.61C49.6394 144.19 48.3694 144.48 47.1694 144.48C46.0494 144.48 44.9794 144.29 43.9594 143.91C42.9594 143.53 42.0694 142.99 41.2894 142.29C40.5294 141.57 39.9194 140.72 39.4594 139.74C38.9994 138.74 38.7694 137.63 38.7694 136.41C38.7694 135.19 38.9894 134.08 39.4294 133.08C39.8694 132.06 40.4694 131.19 41.2294 130.47C41.9894 129.73 42.8894 129.16 43.9294 128.76C44.9894 128.34 46.1194 128.13 47.3194 128.13C48.6394 128.13 49.8594 128.41 50.9794 128.97V133.59ZM64.7264 134.07C64.5464 133.31 64.1764 132.7 63.6164 132.24C63.0564 131.78 62.3764 131.55 61.5764 131.55C60.7364 131.55 60.0464 131.77 59.5064 132.21C58.9864 132.65 58.6564 133.27 58.5164 134.07H64.7264ZM58.3664 137.22C58.3664 139.56 59.4664 140.73 61.6664 140.73C62.8464 140.73 63.7364 140.25 64.3364 139.29H69.5864C68.5264 142.81 65.8764 144.57 61.6364 144.57C60.3364 144.57 59.1464 144.38 58.0664 144C56.9864 143.6 56.0564 143.04 55.2764 142.32C54.5164 141.6 53.9264 140.74 53.5064 139.74C53.0864 138.74 52.8764 137.62 52.8764 136.38C52.8764 135.1 53.0764 133.95 53.4764 132.93C53.8764 131.89 54.4464 131.01 55.1864 130.29C55.9264 129.57 56.8164 129.02 57.8564 128.64C58.9164 128.24 60.1064 128.04 61.4264 128.04C62.7264 128.04 63.8964 128.24 64.9364 128.64C65.9764 129.02 66.8564 129.58 67.5764 130.32C68.2964 131.06 68.8464 131.97 69.2264 133.05C69.6064 134.11 69.7964 135.31 69.7964 136.65V137.22H58.3664ZM87.0255 136.23C87.0255 136.75 87.1155 137.23 87.2955 137.67C87.4955 138.09 87.7455 138.46 88.0455 138.78C88.3655 139.1 88.7355 139.35 89.1555 139.53C89.5955 139.71 90.0555 139.8 90.5355 139.8C91.0155 139.8 91.4655 139.71 91.8855 139.53C92.3255 139.35 92.6955 139.1 92.9955 138.78C93.3155 138.46 93.5655 138.09 93.7455 137.67C93.9455 137.23 94.0455 136.76 94.0455 136.26C94.0455 135.78 93.9455 135.33 93.7455 134.91C93.5655 134.47 93.3155 134.09 92.9955 133.77C92.6955 133.45 92.3255 133.2 91.8855 133.02C91.4655 132.84 91.0155 132.75 90.5355 132.75C90.0555 132.75 89.5955 132.84 89.1555 133.02C88.7355 133.2 88.3655 133.45 88.0455 133.77C87.7455 134.09 87.4955 134.46 87.2955 134.88C87.1155 135.3 87.0255 135.75 87.0255 136.23ZM81.2955 136.17C81.2955 135.03 81.5255 133.97 81.9855 132.99C82.4455 131.99 83.0855 131.13 83.9055 130.41C84.7255 129.67 85.6955 129.09 86.8155 128.67C87.9555 128.25 89.1955 128.04 90.5355 128.04C91.8555 128.04 93.0755 128.25 94.1955 128.67C95.3355 129.07 96.3155 129.64 97.1355 130.38C97.9755 131.1 98.6255 131.97 99.0855 132.99C99.5455 133.99 99.7755 135.1 99.7755 136.32C99.7755 137.54 99.5355 138.66 99.0555 139.68C98.5955 140.68 97.9555 141.55 97.1355 142.29C96.3155 143.01 95.3255 143.57 94.1655 143.97C93.0255 144.37 91.7855 144.57 90.4455 144.57C89.1255 144.57 87.9055 144.37 86.7855 143.97C85.6655 143.57 84.6955 143 83.8755 142.26C83.0755 141.52 82.4455 140.64 81.9855 139.62C81.5255 138.58 81.2955 137.43 81.2955 136.17ZM113.911 133.59C112.971 132.95 112.021 132.63 111.061 132.63C110.541 132.63 110.051 132.72 109.591 132.9C109.151 133.08 108.761 133.34 108.421 133.68C108.081 134 107.811 134.39 107.611 134.85C107.431 135.29 107.341 135.79 107.341 136.35C107.341 136.89 107.431 137.39 107.611 137.85C107.811 138.29 108.071 138.68 108.391 139.02C108.731 139.34 109.131 139.59 109.591 139.77C110.051 139.95 110.541 140.04 111.061 140.04C112.081 140.04 113.031 139.69 113.911 138.99V143.61C112.571 144.19 111.301 144.48 110.101 144.48C108.981 144.48 107.911 144.29 106.891 143.91C105.891 143.53 105.001 142.99 104.221 142.29C103.461 141.57 102.851 140.72 102.391 139.74C101.931 138.74 101.701 137.63 101.701 136.41C101.701 135.19 101.921 134.08 102.361 133.08C102.801 132.06 103.401 131.19 104.161 130.47C104.921 129.73 105.821 129.16 106.861 128.76C107.921 128.34 109.051 128.13 110.251 128.13C111.571 128.13 112.791 128.41 113.911 128.97V133.59ZM127.778 133.14H124.178V144H118.748V133.14H115.148V128.61H127.778V133.14ZM151.477 128.61V144H146.047V128.61H151.477ZM134.977 140.1H137.077C138.157 140.1 138.697 139.59 138.697 138.57C138.697 137.59 138.157 137.1 137.077 137.1H134.977V140.1ZM134.977 128.61V133.17H138.157C139.997 133.17 141.397 133.6 142.357 134.46C143.317 135.3 143.797 136.53 143.797 138.15C143.797 139.03 143.667 139.83 143.407 140.55C143.147 141.25 142.757 141.86 142.237 142.38C141.737 142.9 141.117 143.3 140.377 143.58C139.637 143.86 138.777 144 137.797 144H129.547V128.61H134.977ZM153.863 139.53C153.923 139.55 154.013 139.56 154.133 139.56C154.393 139.56 154.623 139.54 154.823 139.5C155.023 139.46 155.183 139.38 155.303 139.26C155.423 139.12 155.513 138.92 155.573 138.66C155.633 138.4 155.663 138.06 155.663 137.64V128.61H170.663V144H165.233V133.14H161.093V138.24C161.093 139.34 160.923 140.29 160.583 141.09C160.263 141.89 159.813 142.55 159.233 143.07C158.653 143.59 157.943 143.97 157.103 144.21C156.283 144.47 155.383 144.6 154.403 144.6H153.863V139.53ZM178.918 136.23C178.918 136.75 179.008 137.23 179.188 137.67C179.388 138.09 179.638 138.46 179.938 138.78C180.258 139.1 180.628 139.35 181.048 139.53C181.488 139.71 181.948 139.8 182.428 139.8C182.908 139.8 183.358 139.71 183.778 139.53C184.218 139.35 184.588 139.1 184.888 138.78C185.208 138.46 185.458 138.09 185.638 137.67C185.838 137.23 185.938 136.76 185.938 136.26C185.938 135.78 185.838 135.33 185.638 134.91C185.458 134.47 185.208 134.09 184.888 133.77C184.588 133.45 184.218 133.2 183.778 133.02C183.358 132.84 182.908 132.75 182.428 132.75C181.948 132.75 181.488 132.84 181.048 133.02C180.628 133.2 180.258 133.45 179.938 133.77C179.638 134.09 179.388 134.46 179.188 134.88C179.008 135.3 178.918 135.75 178.918 136.23ZM173.188 136.17C173.188 135.03 173.418 133.97 173.878 132.99C174.338 131.99 174.978 131.13 175.798 130.41C176.618 129.67 177.588 129.09 178.708 128.67C179.848 128.25 181.088 128.04 182.428 128.04C183.748 128.04 184.968 128.25 186.088 128.67C187.228 129.07 188.208 129.64 189.028 130.38C189.868 131.1 190.518 131.97 190.978 132.99C191.438 133.99 191.668 135.1 191.668 136.32C191.668 137.54 191.428 138.66 190.948 139.68C190.488 140.68 189.848 141.55 189.028 142.29C188.208 143.01 187.218 143.57 186.058 143.97C184.918 144.37 183.678 144.57 182.338 144.57C181.018 144.57 179.798 144.37 178.678 143.97C177.558 143.57 176.588 143 175.768 142.26C174.968 141.52 174.338 140.64 173.878 139.62C173.418 138.58 173.188 137.43 173.188 136.17ZM209.369 141.9L201.929 128.61H208.229L212.339 136.5L216.329 128.61H222.569L210.209 151.68H204.119L209.369 141.9ZM244.154 128.61H249.974L243.554 135.99L250.754 144H244.604L239.234 137.76V144H233.804V137.76L228.374 144H222.224L229.454 135.99L223.034 128.61H228.854L233.804 134.91V128.61H239.234V134.91L244.154 128.61ZM263.497 134.07C263.317 133.31 262.947 132.7 262.387 132.24C261.827 131.78 261.147 131.55 260.347 131.55C259.507 131.55 258.817 131.77 258.277 132.21C257.757 132.65 257.427 133.27 257.287 134.07H263.497ZM257.137 137.22C257.137 139.56 258.237 140.73 260.437 140.73C261.617 140.73 262.507 140.25 263.107 139.29H268.357C267.297 142.81 264.647 144.57 260.407 144.57C259.107 144.57 257.917 144.38 256.837 144C255.757 143.6 254.827 143.04 254.047 142.32C253.287 141.6 252.697 140.74 252.277 139.74C251.857 138.74 251.647 137.62 251.647 136.38C251.647 135.1 251.847 133.95 252.247 132.93C252.647 131.89 253.217 131.01 253.957 130.29C254.697 129.57 255.587 129.02 256.627 128.64C257.687 128.24 258.877 128.04 260.197 128.04C261.497 128.04 262.667 128.24 263.707 128.64C264.747 129.02 265.627 129.58 266.347 130.32C267.067 131.06 267.617 131.97 267.997 133.05C268.377 134.11 268.567 135.31 268.567 136.65V137.22H257.137Z" fill="white"/>
<path d="M189.88 178.352V188H188.458V181.844C188.458 181.592 188.464 181.328 188.476 181.052C188.5 180.776 188.524 180.506 188.548 180.242H188.494L185.344 188H184.012L180.952 180.242H180.898C180.934 180.782 180.952 181.334 180.952 181.898V188H179.53V178.352H181.636L184.678 186.11L187.774 178.352H189.88ZM196.254 178.19C197.43 178.19 198.3 178.448 198.864 178.964C199.428 179.48 199.71 180.302 199.71 181.43V188H198.558L198.252 186.632H198.18C197.76 187.16 197.316 187.55 196.848 187.802C196.392 188.054 195.756 188.18 194.94 188.18C194.064 188.18 193.338 187.952 192.762 187.496C192.186 187.028 191.898 186.302 191.898 185.318C191.898 184.358 192.276 183.62 193.032 183.104C193.788 182.576 194.952 182.288 196.524 182.24L198.162 182.186V181.61C198.162 180.806 197.988 180.248 197.64 179.936C197.292 179.624 196.8 179.468 196.164 179.468C195.66 179.468 195.18 179.546 194.724 179.702C194.268 179.846 193.842 180.014 193.446 180.206L192.96 179.018C193.38 178.79 193.878 178.598 194.454 178.442C195.03 178.274 195.63 178.19 196.254 178.19ZM196.722 183.338C195.522 183.386 194.688 183.578 194.22 183.914C193.764 184.25 193.536 184.724 193.536 185.336C193.536 185.876 193.698 186.272 194.022 186.524C194.358 186.776 194.784 186.902 195.3 186.902C196.116 186.902 196.794 186.68 197.334 186.236C197.874 185.78 198.144 185.084 198.144 184.148V183.284L196.722 183.338ZM208.99 179.684H205.84V188H204.274V179.684H201.16V178.352H208.99V179.684ZM216.236 178.352H217.964L213.842 182.996L218.306 188H216.47L212.114 183.104V188H210.53V178.352H212.114V183.032L216.236 178.352ZM223.351 178.19C224.527 178.19 225.397 178.448 225.961 178.964C226.525 179.48 226.807 180.302 226.807 181.43V188H225.655L225.349 186.632H225.277C224.857 187.16 224.413 187.55 223.945 187.802C223.489 188.054 222.853 188.18 222.037 188.18C221.161 188.18 220.435 187.952 219.859 187.496C219.283 187.028 218.995 186.302 218.995 185.318C218.995 184.358 219.373 183.62 220.129 183.104C220.885 182.576 222.049 182.288 223.621 182.24L225.259 182.186V181.61C225.259 180.806 225.085 180.248 224.737 179.936C224.389 179.624 223.897 179.468 223.261 179.468C222.757 179.468 222.277 179.546 221.821 179.702C221.365 179.846 220.939 180.014 220.543 180.206L220.057 179.018C220.477 178.79 220.975 178.598 221.551 178.442C222.127 178.274 222.727 178.19 223.351 178.19ZM223.819 183.338C222.619 183.386 221.785 183.578 221.317 183.914C220.861 184.25 220.633 184.724 220.633 185.336C220.633 185.876 220.795 186.272 221.119 186.524C221.455 186.776 221.881 186.902 222.397 186.902C223.213 186.902 223.891 186.68 224.431 186.236C224.971 185.78 225.241 185.084 225.241 184.148V183.284L223.819 183.338ZM239.051 181.127C239.051 178.965 239.555 177.239 240.563 175.95C241.465 174.784 242.558 174.201 243.841 174.201C245.125 174.201 246.217 174.784 247.12 175.95C248.127 177.239 248.631 178.994 248.631 181.215C248.631 183.43 248.127 185.182 247.12 186.471C246.217 187.637 245.127 188.22 243.85 188.22C242.573 188.22 241.477 187.637 240.563 186.471C239.555 185.182 239.051 183.4 239.051 181.127ZM241.064 181.136C241.064 182.642 241.325 183.893 241.846 184.889C242.368 185.867 243.033 186.356 243.841 186.356C244.644 186.356 245.309 185.867 245.836 184.889C246.364 183.916 246.627 182.688 246.627 181.206C246.627 179.724 246.364 178.493 245.836 177.515C245.309 176.542 244.644 176.056 243.841 176.056C243.044 176.056 242.382 176.542 241.855 177.515C241.328 178.481 241.064 179.688 241.064 181.136ZM249.801 181.127C249.801 178.965 250.305 177.239 251.312 175.95C252.215 174.784 253.308 174.201 254.591 174.201C255.874 174.201 256.967 174.784 257.869 175.95C258.877 177.239 259.381 178.994 259.381 181.215C259.381 183.43 258.877 185.182 257.869 186.471C256.967 187.637 255.877 188.22 254.599 188.22C253.322 188.22 252.226 187.637 251.312 186.471C250.305 185.182 249.801 183.4 249.801 181.127ZM251.813 181.136C251.813 182.642 252.074 183.893 252.596 184.889C253.117 185.867 253.782 186.356 254.591 186.356C255.393 186.356 256.058 185.867 256.586 184.889C257.113 183.916 257.377 182.688 257.377 181.206C257.377 179.724 257.113 178.493 256.586 177.515C256.058 176.542 255.393 176.056 254.591 176.056C253.794 176.056 253.132 176.542 252.604 177.515C252.077 178.481 251.813 179.688 251.813 181.136ZM260.55 181.127C260.55 178.965 261.054 177.239 262.062 175.95C262.964 174.784 264.057 174.201 265.34 174.201C266.623 174.201 267.716 174.784 268.618 175.95C269.626 177.239 270.13 178.994 270.13 181.215C270.13 183.43 269.626 185.182 268.618 186.471C267.716 187.637 266.626 188.22 265.349 188.22C264.072 188.22 262.976 187.637 262.062 186.471C261.054 185.182 260.55 183.4 260.55 181.127ZM262.563 181.136C262.563 182.642 262.823 183.893 263.345 184.889C263.866 185.867 264.531 186.356 265.34 186.356C266.143 186.356 266.808 185.867 267.335 184.889C267.863 183.916 268.126 182.688 268.126 181.206C268.126 179.724 267.863 178.493 267.335 177.515C266.808 176.542 266.143 176.056 265.34 176.056C264.543 176.056 263.881 176.542 263.354 177.515C262.826 178.481 262.563 179.688 262.563 181.136ZM274.024 176.346H271.677L272.802 174.43H276.072V188H274.024V176.346Z" fill="white"/>
<defs>
<filter id="filter0_b" x="-100" y="-100" width="505" height="435.962" filterUnits="userSpaceOnUse" color-interpolation-filters="sRGB">
<feFlood flood-opacity="0" result="BackgroundImageFix"/>
<feGaussianBlur in="BackgroundImage" stdDeviation="50"/>
<feComposite in2="SourceAlpha" operator="in" result="effect1_backgroundBlur"/>
<feBlend mode="normal" in="SourceGraphic" in2="effect1_backgroundBlur" result="shape"/>
</filter>
</defs>
</svg>
