<svg width="305" height="236" viewBox="0 0 305 236" fill="none" xmlns="http://www.w3.org/2000/svg">
<g filter="url(#filter0_b)">
<mask id="path-1-inside-1" fill="white">
<path fill-rule="evenodd" clip-rule="evenodd" d="M305 50C305 22.3858 282.614 0 255 0H50C22.3858 0 0 22.3857 0 50V160.433C0 188.047 22.3857 210.433 50 210.433H199.843C208.268 210.433 215.882 215.454 219.201 223.198C226.495 240.217 250.623 240.217 257.917 223.198C261.236 215.454 268.851 210.433 277.276 210.433H279.923C293.773 210.433 305 199.206 305 185.356V50Z"/>
</mask>
<path fill-rule="evenodd" clip-rule="evenodd" d="M305 50C305 22.3858 282.614 0 255 0H50C22.3858 0 0 22.3857 0 50V160.433C0 188.047 22.3857 210.433 50 210.433H199.843C208.268 210.433 215.882 215.454 219.201 223.198C226.495 240.217 250.623 240.217 257.917 223.198C261.236 215.454 268.851 210.433 277.276 210.433H279.923C293.773 210.433 305 199.206 305 185.356V50Z" fill="#A7C5FF"/>
<path d="M50 5H255V-5H50V5ZM5 160.433V50H-5V160.433H5ZM199.843 205.433H50V215.433H199.843V205.433ZM279.923 205.433H277.276V215.433H279.923V205.433ZM300 50V185.356H310V50H300ZM279.923 215.433C296.534 215.433 310 201.967 310 185.356H300C300 196.444 291.011 205.433 279.923 205.433V215.433ZM262.513 225.167C265.044 219.262 270.851 215.433 277.276 215.433V205.433C266.85 205.433 257.428 211.646 253.322 221.228L262.513 225.167ZM214.605 225.167C223.631 246.227 253.487 246.227 262.513 225.167L253.322 221.228C247.759 234.207 229.359 234.207 223.797 221.228L214.605 225.167ZM199.843 215.433C206.268 215.433 212.074 219.262 214.605 225.167L223.797 221.228C219.69 211.646 210.268 205.433 199.843 205.433V215.433ZM-5 160.433C-5 190.809 19.6243 215.433 50 215.433V205.433C25.1472 205.433 5 185.286 5 160.433H-5ZM255 5C279.853 5 300 25.1472 300 50H310C310 19.6243 285.376 -5 255 -5V5ZM50 -5C19.6243 -5 -5 19.6243 -5 50H5C5 25.1472 25.1472 5 50 5V-5Z" fill="white" mask="url(#path-1-inside-1)"/>
</g>
<path d="M170.4 188.18C169.548 188.18 168.786 188.006 168.114 187.658C167.454 187.31 166.932 186.77 166.548 186.038C166.176 185.306 165.99 184.37 165.99 183.23C165.99 182.042 166.188 181.076 166.584 180.332C166.98 179.588 167.514 179.042 168.186 178.694C168.87 178.346 169.644 178.172 170.508 178.172C171 178.172 171.474 178.226 171.93 178.334C172.386 178.43 172.758 178.55 173.046 178.694L172.56 180.008C172.272 179.9 171.936 179.798 171.552 179.702C171.168 179.606 170.808 179.558 170.472 179.558C168.576 179.558 167.628 180.776 167.628 183.212C167.628 184.376 167.856 185.27 168.312 185.894C168.78 186.506 169.47 186.812 170.382 186.812C170.91 186.812 171.372 186.758 171.768 186.65C172.176 186.542 172.548 186.41 172.884 186.254V187.658C172.56 187.826 172.2 187.952 171.804 188.036C171.42 188.132 170.952 188.18 170.4 188.18ZM183.206 183.158C183.206 184.754 182.798 185.99 181.982 186.866C181.178 187.742 180.086 188.18 178.706 188.18C177.854 188.18 177.092 187.988 176.42 187.604C175.76 187.208 175.238 186.638 174.854 185.894C174.47 185.138 174.278 184.226 174.278 183.158C174.278 181.562 174.68 180.332 175.484 179.468C176.288 178.604 177.38 178.172 178.76 178.172C179.636 178.172 180.404 178.37 181.064 178.766C181.736 179.15 182.258 179.714 182.63 180.458C183.014 181.19 183.206 182.09 183.206 183.158ZM175.916 183.158C175.916 184.298 176.138 185.204 176.582 185.876C177.038 186.536 177.758 186.866 178.742 186.866C179.714 186.866 180.428 186.536 180.884 185.876C181.34 185.204 181.568 184.298 181.568 183.158C181.568 182.018 181.34 181.124 180.884 180.476C180.428 179.828 179.708 179.504 178.724 179.504C177.74 179.504 177.026 179.828 176.582 180.476C176.138 181.124 175.916 182.018 175.916 183.158ZM192.701 188H191.099V179.666H188.255C188.099 181.694 187.883 183.332 187.607 184.58C187.331 185.816 186.965 186.716 186.509 187.28C186.053 187.844 185.477 188.126 184.781 188.126C184.625 188.126 184.469 188.114 184.313 188.09C184.169 188.078 184.049 188.048 183.953 188V186.812C184.025 186.836 184.103 186.854 184.187 186.866C184.271 186.878 184.355 186.884 184.439 186.884C185.087 186.884 185.603 186.194 185.987 184.814C186.383 183.434 186.683 181.28 186.887 178.352H192.701V188ZM199.057 178.19C200.233 178.19 201.103 178.448 201.667 178.964C202.231 179.48 202.513 180.302 202.513 181.43V188H201.361L201.055 186.632H200.983C200.563 187.16 200.119 187.55 199.651 187.802C199.195 188.054 198.559 188.18 197.743 188.18C196.867 188.18 196.141 187.952 195.565 187.496C194.989 187.028 194.701 186.302 194.701 185.318C194.701 184.358 195.079 183.62 195.835 183.104C196.591 182.576 197.755 182.288 199.327 182.24L200.965 182.186V181.61C200.965 180.806 200.791 180.248 200.443 179.936C200.095 179.624 199.603 179.468 198.967 179.468C198.463 179.468 197.983 179.546 197.527 179.702C197.071 179.846 196.645 180.014 196.249 180.206L195.763 179.018C196.183 178.79 196.681 178.598 197.257 178.442C197.833 178.274 198.433 178.19 199.057 178.19ZM199.525 183.338C198.325 183.386 197.491 183.578 197.023 183.914C196.567 184.25 196.339 184.724 196.339 185.336C196.339 185.876 196.501 186.272 196.825 186.524C197.161 186.776 197.587 186.902 198.103 186.902C198.919 186.902 199.597 186.68 200.137 186.236C200.677 185.78 200.947 185.084 200.947 184.148V183.284L199.525 183.338ZM212.297 178.352V186.668H213.701V191.348H212.171V188H205.457V191.348H203.945V186.668H204.719C205.547 185.528 206.165 184.232 206.573 182.78C206.993 181.316 207.209 179.84 207.221 178.352H212.297ZM208.625 179.594C208.577 180.41 208.451 181.256 208.247 182.132C208.043 182.996 207.779 183.824 207.455 184.616C207.143 185.408 206.777 186.092 206.357 186.668H210.767V179.594H208.625ZM218.886 178.19C220.062 178.19 220.932 178.448 221.496 178.964C222.06 179.48 222.342 180.302 222.342 181.43V188H221.19L220.884 186.632H220.812C220.392 187.16 219.948 187.55 219.48 187.802C219.024 188.054 218.388 188.18 217.572 188.18C216.696 188.18 215.97 187.952 215.394 187.496C214.818 187.028 214.53 186.302 214.53 185.318C214.53 184.358 214.908 183.62 215.664 183.104C216.42 182.576 217.584 182.288 219.156 182.24L220.794 182.186V181.61C220.794 180.806 220.62 180.248 220.272 179.936C219.924 179.624 219.432 179.468 218.796 179.468C218.292 179.468 217.812 179.546 217.356 179.702C216.9 179.846 216.474 180.014 216.078 180.206L215.592 179.018C216.012 178.79 216.51 178.598 217.086 178.442C217.662 178.274 218.262 178.19 218.886 178.19ZM219.354 183.338C218.154 183.386 217.32 183.578 216.852 183.914C216.396 184.25 216.168 184.724 216.168 185.336C216.168 185.876 216.33 186.272 216.654 186.524C216.99 186.776 217.416 186.902 217.932 186.902C218.748 186.902 219.426 186.68 219.966 186.236C220.506 185.78 220.776 185.084 220.776 184.148V183.284L219.354 183.338ZM231.622 179.684H228.472V188H226.906V179.684H223.792V178.352H231.622V179.684ZM245.704 184.212H247.145V186.075H245.704V188H243.656V186.075H236.994L245.704 173.419V184.212ZM243.656 184.212V179.668L240.527 184.212H243.656ZM254.643 173.955L256.146 175.08L252.903 179.492C253.078 179.469 253.228 179.451 253.351 179.439C253.474 179.428 253.571 179.422 253.641 179.422C254.742 179.422 255.695 179.844 256.497 180.688C257.294 181.52 257.693 182.521 257.693 183.693C257.693 184.936 257.247 186.002 256.357 186.893C255.472 187.777 254.408 188.22 253.166 188.22C251.936 188.22 250.858 187.783 249.932 186.91C249.024 186.037 248.57 185.003 248.57 183.808C248.57 182.735 249.012 181.599 249.897 180.397L254.643 173.955ZM255.698 183.825C255.698 183.104 255.448 182.495 254.95 181.997C254.447 181.493 253.84 181.241 253.131 181.241C252.416 181.241 251.81 181.49 251.312 181.988C250.814 182.486 250.565 183.09 250.565 183.799C250.565 184.508 250.814 185.111 251.312 185.609C251.81 186.107 252.419 186.356 253.14 186.356C253.843 186.356 254.444 186.107 254.942 185.609C255.446 185.105 255.698 184.511 255.698 183.825ZM265.058 176.346H258.361V174.43H268.477L259.917 188.466L258.291 187.438L265.058 176.346ZM271.308 180.942C270.311 180.239 269.813 179.281 269.813 178.068C269.813 176.967 270.191 176.047 270.947 175.309C271.709 174.57 272.655 174.201 273.786 174.201C274.911 174.201 275.849 174.57 276.599 175.309C277.349 176.041 277.724 176.964 277.724 178.077C277.724 179.243 277.228 180.195 276.238 180.934C276.783 181.227 277.211 181.654 277.521 182.217C277.838 182.779 277.996 183.412 277.996 184.115C277.996 185.316 277.603 186.301 276.818 187.068C276.033 187.836 275.028 188.22 273.804 188.22C272.55 188.22 271.516 187.833 270.701 187.06C269.881 186.286 269.471 185.313 269.471 184.142C269.471 182.618 270.083 181.552 271.308 180.942ZM271.738 178.06C271.738 178.64 271.935 179.126 272.327 179.519C272.726 179.917 273.206 180.116 273.769 180.116C274.325 180.116 274.803 179.917 275.201 179.519C275.6 179.12 275.799 178.643 275.799 178.086C275.799 177.529 275.6 177.052 275.201 176.653C274.803 176.255 274.325 176.056 273.769 176.056C273.212 176.056 272.734 176.255 272.336 176.653C271.937 177.052 271.738 177.521 271.738 178.06ZM271.483 184.071C271.483 184.698 271.7 185.237 272.134 185.688C272.573 186.134 273.106 186.356 273.733 186.356C274.354 186.356 274.885 186.137 275.324 185.697C275.764 185.252 275.983 184.719 275.983 184.098C275.983 183.471 275.764 182.938 275.324 182.498C274.885 182.059 274.354 181.839 273.733 181.839C273.118 181.839 272.588 182.059 272.143 182.498C271.703 182.938 271.483 183.462 271.483 184.071Z" fill="white"/>
<path d="M31.5 59.75C31.02 59.75 30.56 59.84 30.12 60.02C29.7 60.2 29.33 60.45 29.01 60.77C28.71 61.09 28.46 61.46 28.26 61.88C28.08 62.3 27.99 62.76 27.99 63.26C27.99 63.74 28.08 64.2 28.26 64.64C28.44 65.06 28.68 65.43 28.98 65.75C29.3 66.07 29.67 66.33 30.09 66.53C30.53 66.71 31 66.8 31.5 66.8C31.98 66.8 32.43 66.71 32.85 66.53C33.29 66.33 33.67 66.07 33.99 65.75C34.31 65.43 34.56 65.06 34.74 64.64C34.92 64.2 35.01 63.74 35.01 63.26C35.01 62.78 34.92 62.33 34.74 61.91C34.56 61.47 34.31 61.09 33.99 60.77C33.67 60.45 33.29 60.2 32.85 60.02C32.43 59.84 31.98 59.75 31.5 59.75ZM37.56 51.44C37.28 51.7 37.02 51.92 36.78 52.1C36.56 52.26 36.29 52.41 35.97 52.55C35.65 52.69 35.25 52.84 34.77 53C34.29 53.16 33.66 53.36 32.88 53.6C32.2 53.82 31.65 54 31.23 54.14C30.81 54.28 30.47 54.41 30.21 54.53C29.95 54.65 29.74 54.78 29.58 54.92C29.44 55.04 29.3 55.19 29.16 55.37L28.98 55.61C29.44 55.43 29.9 55.29 30.36 55.19C30.84 55.09 31.38 55.04 31.98 55.04C33.2 55.04 34.34 55.25 35.4 55.67C36.48 56.09 37.42 56.67 38.22 57.41C39.02 58.15 39.64 59.03 40.08 60.05C40.54 61.07 40.77 62.19 40.77 63.41C40.77 64.59 40.54 65.68 40.08 66.68C39.64 67.68 39.01 68.54 38.19 69.26C37.37 69.98 36.37 70.55 35.19 70.97C34.01 71.37 32.69 71.57 31.23 71.57C29.89 71.57 28.67 71.38 27.57 71C26.47 70.62 25.52 70.03 24.72 69.23C23.94 68.43 23.33 67.41 22.89 66.17C22.47 64.91 22.26 63.41 22.26 61.67C22.26 58.87 22.82 56.49 23.94 54.53C25.06 52.55 26.68 51.11 28.8 50.21C29.06 50.09 29.27 50.01 29.43 49.97C29.59 49.91 29.76 49.86 29.94 49.82C30.14 49.76 30.38 49.69 30.66 49.61C30.96 49.51 31.39 49.37 31.95 49.19C32.83 48.91 33.57 48.66 34.17 48.44C34.77 48.22 35.28 48 35.7 47.78C36.12 47.54 36.47 47.29 36.75 47.03C37.03 46.77 37.3 46.46 37.56 46.1V51.44ZM48.8459 68.9L41.4059 55.61H47.7059L51.8159 63.5L55.8059 55.61H62.0459L49.6859 78.68H43.5959L48.8459 68.9ZM71.3902 71L68.0602 61.94L66.5602 71H61.9702L64.9102 55.61H69.3802L72.5602 63.92L75.7402 55.61H80.2102L83.1502 71H78.5302L77.0602 61.94L73.7302 71H71.3902ZM103.137 66.47V74.15H97.7072V71H84.9272V55.61H90.3572V66.47H95.8772V55.61H101.307V66.47H103.137ZM123.861 59.75C123.381 59.75 122.921 59.84 122.481 60.02C122.061 60.2 121.691 60.45 121.371 60.77C121.071 61.09 120.821 61.46 120.621 61.88C120.441 62.3 120.351 62.76 120.351 63.26C120.351 63.74 120.441 64.2 120.621 64.64C120.801 65.06 121.041 65.43 121.341 65.75C121.661 66.07 122.031 66.33 122.451 66.53C122.891 66.71 123.361 66.8 123.861 66.8C124.341 66.8 124.791 66.71 125.211 66.53C125.651 66.33 126.031 66.07 126.351 65.75C126.671 65.43 126.921 65.06 127.101 64.64C127.281 64.2 127.371 63.74 127.371 63.26C127.371 62.78 127.281 62.33 127.101 61.91C126.921 61.47 126.671 61.09 126.351 60.77C126.031 60.45 125.651 60.2 125.211 60.02C124.791 59.84 124.341 59.75 123.861 59.75ZM129.921 51.44C129.641 51.7 129.381 51.92 129.141 52.1C128.921 52.26 128.651 52.41 128.331 52.55C128.011 52.69 127.611 52.84 127.131 53C126.651 53.16 126.021 53.36 125.241 53.6C124.561 53.82 124.011 54 123.591 54.14C123.171 54.28 122.831 54.41 122.571 54.53C122.311 54.65 122.101 54.78 121.941 54.92C121.801 55.04 121.661 55.19 121.521 55.37L121.341 55.61C121.801 55.43 122.261 55.29 122.721 55.19C123.201 55.09 123.741 55.04 124.341 55.04C125.561 55.04 126.701 55.25 127.761 55.67C128.841 56.09 129.781 56.67 130.581 57.41C131.381 58.15 132.001 59.03 132.441 60.05C132.901 61.07 133.131 62.19 133.131 63.41C133.131 64.59 132.901 65.68 132.441 66.68C132.001 67.68 131.371 68.54 130.551 69.26C129.731 69.98 128.731 70.55 127.551 70.97C126.371 71.37 125.051 71.57 123.591 71.57C122.251 71.57 121.031 71.38 119.931 71C118.831 70.62 117.881 70.03 117.081 69.23C116.301 68.43 115.691 67.41 115.251 66.17C114.831 64.91 114.621 63.41 114.621 61.67C114.621 58.87 115.181 56.49 116.301 54.53C117.421 52.55 119.041 51.11 121.161 50.21C121.421 50.09 121.631 50.01 121.791 49.97C121.951 49.91 122.121 49.86 122.301 49.82C122.501 49.76 122.741 49.69 123.021 49.61C123.321 49.51 123.751 49.37 124.311 49.19C125.191 48.91 125.931 48.66 126.531 48.44C127.131 48.22 127.641 48 128.061 47.78C128.481 47.54 128.831 47.29 129.111 47.03C129.391 46.77 129.661 46.46 129.921 46.1V51.44ZM141.207 68.9L133.767 55.61H140.067L144.177 63.5L148.167 55.61H154.407L142.047 78.68H135.957L141.207 68.9ZM163.751 71L160.421 61.94L158.921 71H154.331L157.271 55.61H161.741L164.921 63.92L168.101 55.61H172.571L175.511 71H170.891L169.421 61.94L166.091 71H163.751ZM195.499 66.47V74.15H190.069V71H177.289V55.61H182.719V66.47H188.239V55.61H193.669V66.47H195.499ZM34.23 85.14H30.63V96H25.2V85.14H21.6V80.61H34.23V85.14ZM41.4211 88.26C41.4211 88.76 41.5111 89.23 41.6911 89.67C41.8711 90.09 42.1111 90.46 42.4111 90.78C42.7311 91.1 43.1011 91.35 43.5211 91.53C43.9611 91.71 44.4311 91.8 44.9311 91.8C45.4111 91.8 45.8611 91.71 46.2811 91.53C46.7211 91.35 47.0911 91.1 47.3911 90.78C47.7111 90.46 47.9611 90.09 48.1411 89.67C48.3411 89.25 48.4411 88.8 48.4411 88.32C48.4411 87.84 48.3411 87.39 48.1411 86.97C47.9611 86.53 47.7111 86.15 47.3911 85.83C47.0911 85.51 46.7211 85.26 46.2811 85.08C45.8611 84.9 45.4111 84.81 44.9311 84.81C44.4311 84.81 43.9611 84.9 43.5211 85.08C43.1011 85.26 42.7311 85.51 42.4111 85.83C42.1111 86.15 41.8711 86.52 41.6911 86.94C41.5111 87.34 41.4211 87.78 41.4211 88.26ZM48.2611 80.61H53.7211V96H48.2611V94.29C47.1011 95.75 45.5311 96.48 43.5511 96.48C42.4311 96.48 41.4011 96.28 40.4611 95.88C39.5211 95.46 38.7011 94.88 38.0011 94.14C37.3011 93.4 36.7511 92.53 36.3511 91.53C35.9711 90.53 35.7811 89.44 35.7811 88.26C35.7811 87.16 35.9711 86.12 36.3511 85.14C36.7311 84.14 37.2611 83.27 37.9411 82.53C38.6211 81.79 39.4311 81.21 40.3711 80.79C41.3111 80.35 42.3511 80.13 43.4911 80.13C45.4111 80.13 47.0011 80.8 48.2611 82.14V80.61ZM67.7662 85.92V80.61H73.1963V96H67.7662V90.39H62.2462V96H56.8162V80.61H62.2462V85.92H67.7662ZM94.5239 91.47V99.15H89.0939V96H76.3139V80.61H81.7439V91.47H87.2639V80.61H92.6939V91.47H94.5239ZM118.883 80.61V96H113.453V80.61H118.883ZM102.383 92.1H104.483C105.563 92.1 106.103 91.59 106.103 90.57C106.103 89.59 105.563 89.1 104.483 89.1H102.383V92.1ZM102.383 80.61V85.17H105.563C107.403 85.17 108.803 85.6 109.763 86.46C110.723 87.3 111.203 88.53 111.203 90.15C111.203 91.03 111.073 91.83 110.813 92.55C110.553 93.25 110.163 93.86 109.643 94.38C109.143 94.9 108.523 95.3 107.783 95.58C107.043 95.86 106.183 96 105.203 96H96.9527V80.61H102.383ZM123.669 90.27H128.769L123.249 100.2H119.769L123.669 90.27ZM152.55 85.14H148.95V96H143.52V85.14H139.92V80.61H152.55V85.14ZM159.741 88.26C159.741 88.76 159.831 89.23 160.011 89.67C160.191 90.09 160.431 90.46 160.731 90.78C161.051 91.1 161.421 91.35 161.841 91.53C162.281 91.71 162.751 91.8 163.251 91.8C163.731 91.8 164.181 91.71 164.601 91.53C165.041 91.35 165.411 91.1 165.711 90.78C166.031 90.46 166.281 90.09 166.461 89.67C166.661 89.25 166.761 88.8 166.761 88.32C166.761 87.84 166.661 87.39 166.461 86.97C166.281 86.53 166.031 86.15 165.711 85.83C165.411 85.51 165.041 85.26 164.601 85.08C164.181 84.9 163.731 84.81 163.251 84.81C162.751 84.81 162.281 84.9 161.841 85.08C161.421 85.26 161.051 85.51 160.731 85.83C160.431 86.15 160.191 86.52 160.011 86.94C159.831 87.34 159.741 87.78 159.741 88.26ZM166.581 80.61H172.041V96H166.581V94.29C165.421 95.75 163.851 96.48 161.871 96.48C160.751 96.48 159.721 96.28 158.781 95.88C157.841 95.46 157.021 94.88 156.321 94.14C155.621 93.4 155.071 92.53 154.671 91.53C154.291 90.53 154.101 89.44 154.101 88.26C154.101 87.16 154.291 86.12 154.671 85.14C155.051 84.14 155.581 83.27 156.261 82.53C156.941 81.79 157.751 81.21 158.691 80.79C159.631 80.35 160.671 80.13 161.811 80.13C163.731 80.13 165.321 80.8 166.581 82.14V80.61ZM186.086 85.92V80.61H191.516V96H186.086V90.39H180.566V96H175.136V80.61H180.566V85.92H186.086ZM212.843 91.47V99.15H207.413V96H194.633V80.61H200.063V91.47H205.583V80.61H211.013V91.47H212.843ZM237.202 80.61V96H231.772V80.61H237.202ZM220.702 92.1H222.802C223.882 92.1 224.422 91.59 224.422 90.57C224.422 89.59 223.882 89.1 222.802 89.1H220.702V92.1ZM220.702 80.61V85.17H223.882C225.722 85.17 227.122 85.6 228.082 86.46C229.042 87.3 229.522 88.53 229.522 90.15C229.522 91.03 229.392 91.83 229.132 92.55C228.872 93.25 228.482 93.86 227.962 94.38C227.462 94.9 226.842 95.3 226.102 95.58C225.362 95.86 224.502 96 223.522 96H215.272V80.61H220.702ZM241.988 90.27H247.088L241.568 100.2H238.088L241.988 90.27ZM34.23 110.14H30.63V121H25.2V110.14H21.6V105.61H34.23V110.14ZM41.4211 113.26C41.4211 113.76 41.5111 114.23 41.6911 114.67C41.8711 115.09 42.1111 115.46 42.4111 115.78C42.7311 116.1 43.1011 116.35 43.5211 116.53C43.9611 116.71 44.4311 116.8 44.9311 116.8C45.4111 116.8 45.8611 116.71 46.2811 116.53C46.7211 116.35 47.0911 116.1 47.3911 115.78C47.7111 115.46 47.9611 115.09 48.1411 114.67C48.3411 114.25 48.4411 113.8 48.4411 113.32C48.4411 112.84 48.3411 112.39 48.1411 111.97C47.9611 111.53 47.7111 111.15 47.3911 110.83C47.0911 110.51 46.7211 110.26 46.2811 110.08C45.8611 109.9 45.4111 109.81 44.9311 109.81C44.4311 109.81 43.9611 109.9 43.5211 110.08C43.1011 110.26 42.7311 110.51 42.4111 110.83C42.1111 111.15 41.8711 111.52 41.6911 111.94C41.5111 112.34 41.4211 112.78 41.4211 113.26ZM48.2611 105.61H53.7211V121H48.2611V119.29C47.1011 120.75 45.5311 121.48 43.5511 121.48C42.4311 121.48 41.4011 121.28 40.4611 120.88C39.5211 120.46 38.7011 119.88 38.0011 119.14C37.3011 118.4 36.7511 117.53 36.3511 116.53C35.9711 115.53 35.7811 114.44 35.7811 113.26C35.7811 112.16 35.9711 111.12 36.3511 110.14C36.7311 109.14 37.2611 108.27 37.9411 107.53C38.6211 106.79 39.4311 106.21 40.3711 105.79C41.3111 105.35 42.3511 105.13 43.4911 105.13C45.4111 105.13 47.0011 105.8 48.2611 107.14V105.61ZM67.7662 110.92V105.61H73.1963V121H67.7662V115.39H62.2462V121H56.8162V105.61H62.2462V110.92H67.7662ZM94.5239 116.47V124.15H89.0939V121H76.3139V105.61H81.7439V116.47H87.2639V105.61H92.6939V116.47H94.5239ZM118.883 105.61V121H113.453V105.61H118.883ZM102.383 117.1H104.483C105.563 117.1 106.103 116.59 106.103 115.57C106.103 114.59 105.563 114.1 104.483 114.1H102.383V117.1ZM102.383 105.61V110.17H105.563C107.403 110.17 108.803 110.6 109.763 111.46C110.723 112.3 111.203 113.53 111.203 115.15C111.203 116.03 111.073 116.83 110.813 117.55C110.553 118.25 110.163 118.86 109.643 119.38C109.143 119.9 108.523 120.3 107.783 120.58C107.043 120.86 106.183 121 105.203 121H96.9527V105.61H102.383ZM137.014 105.61V114.22L143.464 105.61H148.894V121H143.464V112.42L136.984 121H131.584V105.61H137.014ZM173.225 110.59C172.285 109.95 171.335 109.63 170.375 109.63C169.855 109.63 169.365 109.72 168.905 109.9C168.465 110.08 168.075 110.34 167.735 110.68C167.395 111 167.125 111.39 166.925 111.85C166.745 112.29 166.655 112.79 166.655 113.35C166.655 113.89 166.745 114.39 166.925 114.85C167.125 115.29 167.385 115.68 167.705 116.02C168.045 116.34 168.445 116.59 168.905 116.77C169.365 116.95 169.855 117.04 170.375 117.04C171.395 117.04 172.345 116.69 173.225 115.99V120.61C171.885 121.19 170.615 121.48 169.415 121.48C168.295 121.48 167.225 121.29 166.205 120.91C165.205 120.53 164.315 119.99 163.535 119.29C162.775 118.57 162.165 117.72 161.705 116.74C161.245 115.74 161.015 114.63 161.015 113.41C161.015 112.19 161.235 111.08 161.675 110.08C162.115 109.06 162.715 108.19 163.475 107.47C164.235 106.73 165.135 106.16 166.175 105.76C167.235 105.34 168.365 105.13 169.565 105.13C170.885 105.13 172.105 105.41 173.225 105.97V110.59ZM183.762 117.22C184.182 117.22 184.502 117.1 184.722 116.86C184.942 116.62 185.052 116.3 185.052 115.9C185.052 115.04 184.622 114.61 183.762 114.61H180.792V117.22H183.762ZM183.372 111.55C183.952 111.55 184.242 111.18 184.242 110.44C184.242 109.7 183.952 109.33 183.372 109.33H180.792V111.55H183.372ZM175.722 105.61H183.882C185.402 105.61 186.552 105.96 187.332 106.66C188.132 107.34 188.532 108.33 188.532 109.63C188.532 110.39 188.412 111.01 188.172 111.49C187.932 111.97 187.522 112.38 186.942 112.72C189.042 113.14 190.092 114.41 190.092 116.53C190.092 117.95 189.552 119.05 188.472 119.83C187.412 120.61 185.942 121 184.062 121H175.722V105.61ZM197.361 113.23C197.361 113.75 197.451 114.23 197.631 114.67C197.831 115.09 198.081 115.46 198.381 115.78C198.701 116.1 199.071 116.35 199.491 116.53C199.931 116.71 200.391 116.8 200.871 116.8C201.351 116.8 201.801 116.71 202.221 116.53C202.661 116.35 203.031 116.1 203.331 115.78C203.651 115.46 203.901 115.09 204.081 114.67C204.281 114.23 204.381 113.76 204.381 113.26C204.381 112.78 204.281 112.33 204.081 111.91C203.901 111.47 203.651 111.09 203.331 110.77C203.031 110.45 202.661 110.2 202.221 110.02C201.801 109.84 201.351 109.75 200.871 109.75C200.391 109.75 199.931 109.84 199.491 110.02C199.071 110.2 198.701 110.45 198.381 110.77C198.081 111.09 197.831 111.46 197.631 111.88C197.451 112.3 197.361 112.75 197.361 113.23ZM191.631 113.17C191.631 112.03 191.861 110.97 192.321 109.99C192.781 108.99 193.421 108.13 194.241 107.41C195.061 106.67 196.031 106.09 197.151 105.67C198.291 105.25 199.531 105.04 200.871 105.04C202.191 105.04 203.411 105.25 204.531 105.67C205.671 106.07 206.651 106.64 207.471 107.38C208.311 108.1 208.961 108.97 209.421 109.99C209.881 110.99 210.111 112.1 210.111 113.32C210.111 114.54 209.871 115.66 209.391 116.68C208.931 117.68 208.291 118.55 207.471 119.29C206.651 120.01 205.661 120.57 204.501 120.97C203.361 121.37 202.121 121.57 200.781 121.57C199.461 121.57 198.241 121.37 197.121 120.97C196.001 120.57 195.031 120 194.211 119.26C193.411 118.52 192.781 117.64 192.321 116.62C191.861 115.58 191.631 114.43 191.631 113.17ZM224.097 110.14H219.987V114.76C219.987 115.16 219.977 115.48 219.957 115.72C219.937 115.96 219.907 116.21 219.867 116.47H224.097V110.14ZM213.117 116.47C213.657 116.47 214.027 116.29 214.227 115.93C214.427 115.57 214.527 115.01 214.527 114.25V105.61H229.527V116.47H231.357V124.15H225.927V121H217.797V124.15H212.367V116.47H213.117ZM239.293 105.61V114.22L245.743 105.61H251.173V121H245.743V112.42L239.263 121H233.863V105.61H239.293ZM265.668 110.14H262.068V121H256.638V110.14H253.038V105.61H265.668V110.14ZM30.93 146L27.6 136.94L26.1 146H21.51L24.45 130.61H28.92L32.1 138.92L35.28 130.61H39.75L42.69 146H38.07L36.6 136.94L33.27 146H30.93ZM50.047 143.9L42.607 130.61H48.907L53.017 138.5L57.007 130.61H63.247L50.887 153.68H44.797L50.047 143.9ZM64.2513 130.4C64.7513 130.3 65.2413 130.22 65.7213 130.16C66.2213 130.08 66.7513 130.04 67.3113 130.04C68.2913 130.04 69.2013 130.15 70.0413 130.37C70.8813 130.59 71.6013 130.9 72.2013 131.3C72.8213 131.7 73.3013 132.17 73.6413 132.71C73.9813 133.25 74.1513 133.83 74.1513 134.45C74.1513 135.13 73.9413 135.75 73.5213 136.31C73.1213 136.85 72.4713 137.35 71.5713 137.81C72.6513 138.15 73.4313 138.62 73.9113 139.22C74.4113 139.8 74.6613 140.54 74.6613 141.44C74.6613 142.18 74.4813 142.87 74.1213 143.51C73.7813 144.13 73.2813 144.67 72.6213 145.13C71.9813 145.57 71.2113 145.92 70.3113 146.18C69.4113 146.44 68.4213 146.57 67.3413 146.57C66.8213 146.57 66.2913 146.54 65.7513 146.48C65.2113 146.42 64.7113 146.32 64.2513 146.18V141.8C64.5313 141.9 64.8513 141.98 65.2113 142.04C65.5913 142.08 65.9513 142.1 66.2913 142.1C67.0113 142.1 67.6213 142 68.1213 141.8C68.6413 141.58 68.9013 141.32 68.9013 141.02C68.9013 140.68 68.6113 140.39 68.0313 140.15C67.4513 139.89 66.6913 139.76 65.7513 139.76H65.5113V136.58C66.5913 136.56 67.3713 136.46 67.8513 136.28C68.3513 136.1 68.6013 135.84 68.6013 135.5C68.6013 135.18 68.4313 134.94 68.0913 134.78C67.7513 134.62 67.2913 134.54 66.7113 134.54C66.2913 134.54 65.8613 134.58 65.4213 134.66C64.9813 134.72 64.5913 134.8 64.2513 134.9V130.4ZM99.0335 130.61V146H93.6035V130.61H99.0335ZM82.5335 142.1H84.6335C85.7135 142.1 86.2535 141.59 86.2535 140.57C86.2535 139.59 85.7135 139.1 84.6335 139.1H82.5335V142.1ZM82.5335 130.61V135.17H85.7135C87.5535 135.17 88.9535 135.6 89.9135 136.46C90.8735 137.3 91.3535 138.53 91.3535 140.15C91.3535 141.03 91.2235 141.83 90.9635 142.55C90.7035 143.25 90.3135 143.86 89.7935 144.38C89.2935 144.9 88.6735 145.3 87.9335 145.58C87.1935 145.86 86.3335 146 85.3535 146H77.1035V130.61H82.5335ZM112.07 130.61H117.86L111.77 137.99L118.67 146H112.46L107.57 139.85V146H102.14V130.61H107.57V136.79L112.07 130.61ZM125.007 138.26C125.007 138.76 125.097 139.23 125.277 139.67C125.457 140.09 125.697 140.46 125.997 140.78C126.317 141.1 126.687 141.35 127.107 141.53C127.547 141.71 128.017 141.8 128.517 141.8C128.997 141.8 129.447 141.71 129.867 141.53C130.307 141.35 130.677 141.1 130.977 140.78C131.297 140.46 131.547 140.09 131.727 139.67C131.927 139.25 132.027 138.8 132.027 138.32C132.027 137.84 131.927 137.39 131.727 136.97C131.547 136.53 131.297 136.15 130.977 135.83C130.677 135.51 130.307 135.26 129.867 135.08C129.447 134.9 128.997 134.81 128.517 134.81C128.017 134.81 127.547 134.9 127.107 135.08C126.687 135.26 126.317 135.51 125.997 135.83C125.697 136.15 125.457 136.52 125.277 136.94C125.097 137.34 125.007 137.78 125.007 138.26ZM131.847 130.61H137.307V146H131.847V144.29C130.687 145.75 129.117 146.48 127.137 146.48C126.017 146.48 124.987 146.28 124.047 145.88C123.107 145.46 122.287 144.88 121.587 144.14C120.887 143.4 120.337 142.53 119.937 141.53C119.557 140.53 119.367 139.44 119.367 138.26C119.367 137.16 119.557 136.12 119.937 135.14C120.317 134.14 120.847 133.27 121.527 132.53C122.207 131.79 123.017 131.21 123.957 130.79C124.897 130.35 125.937 130.13 127.077 130.13C128.997 130.13 130.587 130.8 131.847 132.14V130.61ZM161.608 135.59C160.668 134.95 159.718 134.63 158.758 134.63C158.238 134.63 157.748 134.72 157.288 134.9C156.848 135.08 156.458 135.34 156.118 135.68C155.778 136 155.508 136.39 155.308 136.85C155.128 137.29 155.038 137.79 155.038 138.35C155.038 138.89 155.128 139.39 155.308 139.85C155.508 140.29 155.768 140.68 156.088 141.02C156.428 141.34 156.828 141.59 157.288 141.77C157.748 141.95 158.238 142.04 158.758 142.04C159.778 142.04 160.728 141.69 161.608 140.99V145.61C160.268 146.19 158.998 146.48 157.798 146.48C156.678 146.48 155.608 146.29 154.588 145.91C153.588 145.53 152.698 144.99 151.918 144.29C151.158 143.57 150.548 142.72 150.088 141.74C149.628 140.74 149.398 139.63 149.398 138.41C149.398 137.19 149.618 136.08 150.058 135.08C150.498 134.06 151.098 133.19 151.858 132.47C152.618 131.73 153.518 131.16 154.558 130.76C155.618 130.34 156.748 130.13 157.948 130.13C159.268 130.13 160.488 130.41 161.608 130.97V135.59ZM179.28 143.9L171.84 130.61H178.14L182.25 138.5L186.24 130.61H192.48L180.12 153.68H174.03L179.28 143.9ZM201.825 146L198.495 136.94L196.995 146H192.405L195.345 130.61H199.815L202.995 138.92L206.175 130.61H210.645L213.585 146H208.965L207.495 136.94L204.165 146H201.825ZM220.402 138.26C220.402 138.76 220.492 139.23 220.672 139.67C220.852 140.09 221.092 140.46 221.392 140.78C221.712 141.1 222.082 141.35 222.502 141.53C222.942 141.71 223.412 141.8 223.912 141.8C224.392 141.8 224.842 141.71 225.262 141.53C225.702 141.35 226.072 141.1 226.372 140.78C226.692 140.46 226.942 140.09 227.122 139.67C227.322 139.25 227.422 138.8 227.422 138.32C227.422 137.84 227.322 137.39 227.122 136.97C226.942 136.53 226.692 136.15 226.372 135.83C226.072 135.51 225.702 135.26 225.262 135.08C224.842 134.9 224.392 134.81 223.912 134.81C223.412 134.81 222.942 134.9 222.502 135.08C222.082 135.26 221.712 135.51 221.392 135.83C221.092 136.15 220.852 136.52 220.672 136.94C220.492 137.34 220.402 137.78 220.402 138.26ZM227.242 130.61H232.702V146H227.242V144.29C226.082 145.75 224.512 146.48 222.532 146.48C221.412 146.48 220.382 146.28 219.442 145.88C218.502 145.46 217.682 144.88 216.982 144.14C216.282 143.4 215.732 142.53 215.332 141.53C214.952 140.53 214.762 139.44 214.762 138.26C214.762 137.16 214.952 136.12 215.332 135.14C215.712 134.14 216.242 133.27 216.922 132.53C217.602 131.79 218.412 131.21 219.352 130.79C220.292 130.35 221.332 130.13 222.472 130.13C224.392 130.13 225.982 130.8 227.242 132.14V130.61Z" fill="white"/>
<defs>
<filter id="filter0_b" x="-100" y="-100" width="505" height="435.962" filterUnits="userSpaceOnUse" color-interpolation-filters="sRGB">
<feFlood flood-opacity="0" result="BackgroundImageFix"/>
<feGaussianBlur in="BackgroundImage" stdDeviation="50"/>
<feComposite in2="SourceAlpha" operator="in" result="effect1_backgroundBlur"/>
<feBlend mode="normal" in="SourceGraphic" in2="effect1_backgroundBlur" result="shape"/>
</filter>
</defs>
</svg>
