<svg width="305" height="236" viewBox="0 0 305 236" fill="none" xmlns="http://www.w3.org/2000/svg">
<g filter="url(#filter0_b)">
<mask id="path-1-inside-1" fill="white">
<path fill-rule="evenodd" clip-rule="evenodd" d="M305 50C305 22.3858 282.614 0 255 0H50C22.3858 0 0 22.3857 0 50V160.433C0 188.047 22.3857 210.433 50 210.433H199.843C208.268 210.433 215.882 215.454 219.201 223.198V223.198C226.495 240.217 250.623 240.217 257.917 223.198V223.198C261.236 215.454 268.851 210.433 277.276 210.433H279.923C293.773 210.433 305 199.206 305 185.356V50Z"/>
</mask>
<path fill-rule="evenodd" clip-rule="evenodd" d="M305 50C305 22.3858 282.614 0 255 0H50C22.3858 0 0 22.3857 0 50V160.433C0 188.047 22.3857 210.433 50 210.433H199.843C208.268 210.433 215.882 215.454 219.201 223.198V223.198C226.495 240.217 250.623 240.217 257.917 223.198V223.198C261.236 215.454 268.851 210.433 277.276 210.433H279.923C293.773 210.433 305 199.206 305 185.356V50Z" fill="#A7C5FF"/>
<path d="M50 5H255V-5H50V5ZM5 160.433V50H-5V160.433H5ZM199.843 205.433H50V215.433H199.843V205.433ZM279.923 205.433H277.276V215.433H279.923V205.433ZM300 50V185.356H310V50H300ZM279.923 215.433C296.534 215.433 310 201.967 310 185.356H300C300 196.444 291.011 205.433 279.923 205.433V215.433ZM262.513 225.167C265.044 219.262 270.851 215.433 277.276 215.433V205.433C266.85 205.433 257.428 211.646 253.322 221.228L262.513 225.167ZM214.605 225.167C223.631 246.227 253.487 246.227 262.513 225.167L253.322 221.228C247.759 234.207 229.359 234.207 223.797 221.228L214.605 225.167ZM199.843 215.433C206.268 215.433 212.074 219.262 214.605 225.167L223.797 221.228C219.69 211.646 210.268 205.433 199.843 205.433V215.433ZM-5 160.433C-5 190.809 19.6243 215.433 50 215.433V205.433C25.1472 205.433 5 185.286 5 160.433H-5ZM255 5C279.853 5 300 25.1472 300 50H310C310 19.6243 285.376 -5 255 -5V5ZM50 -5C19.6243 -5 -5 19.6243 -5 50H5C5 25.1472 25.1472 5 50 5V-5Z" fill="white" mask="url(#path-1-inside-1)"/>
</g>
<path d="M170.4 188.18C169.548 188.18 168.786 188.006 168.114 187.658C167.454 187.31 166.932 186.77 166.548 186.038C166.176 185.306 165.99 184.37 165.99 183.23C165.99 182.042 166.188 181.076 166.584 180.332C166.98 179.588 167.514 179.042 168.186 178.694C168.87 178.346 169.644 178.172 170.508 178.172C171 178.172 171.474 178.226 171.93 178.334C172.386 178.43 172.758 178.55 173.046 178.694L172.56 180.008C172.272 179.9 171.936 179.798 171.552 179.702C171.168 179.606 170.808 179.558 170.472 179.558C168.576 179.558 167.628 180.776 167.628 183.212C167.628 184.376 167.856 185.27 168.312 185.894C168.78 186.506 169.47 186.812 170.382 186.812C170.91 186.812 171.372 186.758 171.768 186.65C172.176 186.542 172.548 186.41 172.884 186.254V187.658C172.56 187.826 172.2 187.952 171.804 188.036C171.42 188.132 170.952 188.18 170.4 188.18ZM183.206 183.158C183.206 184.754 182.798 185.99 181.982 186.866C181.178 187.742 180.086 188.18 178.706 188.18C177.854 188.18 177.092 187.988 176.42 187.604C175.76 187.208 175.238 186.638 174.854 185.894C174.47 185.138 174.278 184.226 174.278 183.158C174.278 181.562 174.68 180.332 175.484 179.468C176.288 178.604 177.38 178.172 178.76 178.172C179.636 178.172 180.404 178.37 181.064 178.766C181.736 179.15 182.258 179.714 182.63 180.458C183.014 181.19 183.206 182.09 183.206 183.158ZM175.916 183.158C175.916 184.298 176.138 185.204 176.582 185.876C177.038 186.536 177.758 186.866 178.742 186.866C179.714 186.866 180.428 186.536 180.884 185.876C181.34 185.204 181.568 184.298 181.568 183.158C181.568 182.018 181.34 181.124 180.884 180.476C180.428 179.828 179.708 179.504 178.724 179.504C177.74 179.504 177.026 179.828 176.582 180.476C176.138 181.124 175.916 182.018 175.916 183.158ZM192.701 188H191.099V179.666H188.255C188.099 181.694 187.883 183.332 187.607 184.58C187.331 185.816 186.965 186.716 186.509 187.28C186.053 187.844 185.477 188.126 184.781 188.126C184.625 188.126 184.469 188.114 184.313 188.09C184.169 188.078 184.049 188.048 183.953 188V186.812C184.025 186.836 184.103 186.854 184.187 186.866C184.271 186.878 184.355 186.884 184.439 186.884C185.087 186.884 185.603 186.194 185.987 184.814C186.383 183.434 186.683 181.28 186.887 178.352H192.701V188ZM199.057 178.19C200.233 178.19 201.103 178.448 201.667 178.964C202.231 179.48 202.513 180.302 202.513 181.43V188H201.361L201.055 186.632H200.983C200.563 187.16 200.119 187.55 199.651 187.802C199.195 188.054 198.559 188.18 197.743 188.18C196.867 188.18 196.141 187.952 195.565 187.496C194.989 187.028 194.701 186.302 194.701 185.318C194.701 184.358 195.079 183.62 195.835 183.104C196.591 182.576 197.755 182.288 199.327 182.24L200.965 182.186V181.61C200.965 180.806 200.791 180.248 200.443 179.936C200.095 179.624 199.603 179.468 198.967 179.468C198.463 179.468 197.983 179.546 197.527 179.702C197.071 179.846 196.645 180.014 196.249 180.206L195.763 179.018C196.183 178.79 196.681 178.598 197.257 178.442C197.833 178.274 198.433 178.19 199.057 178.19ZM199.525 183.338C198.325 183.386 197.491 183.578 197.023 183.914C196.567 184.25 196.339 184.724 196.339 185.336C196.339 185.876 196.501 186.272 196.825 186.524C197.161 186.776 197.587 186.902 198.103 186.902C198.919 186.902 199.597 186.68 200.137 186.236C200.677 185.78 200.947 185.084 200.947 184.148V183.284L199.525 183.338ZM212.297 178.352V186.668H213.701V191.348H212.171V188H205.457V191.348H203.945V186.668H204.719C205.547 185.528 206.165 184.232 206.573 182.78C206.993 181.316 207.209 179.84 207.221 178.352H212.297ZM208.625 179.594C208.577 180.41 208.451 181.256 208.247 182.132C208.043 182.996 207.779 183.824 207.455 184.616C207.143 185.408 206.777 186.092 206.357 186.668H210.767V179.594H208.625ZM218.886 178.19C220.062 178.19 220.932 178.448 221.496 178.964C222.06 179.48 222.342 180.302 222.342 181.43V188H221.19L220.884 186.632H220.812C220.392 187.16 219.948 187.55 219.48 187.802C219.024 188.054 218.388 188.18 217.572 188.18C216.696 188.18 215.97 187.952 215.394 187.496C214.818 187.028 214.53 186.302 214.53 185.318C214.53 184.358 214.908 183.62 215.664 183.104C216.42 182.576 217.584 182.288 219.156 182.24L220.794 182.186V181.61C220.794 180.806 220.62 180.248 220.272 179.936C219.924 179.624 219.432 179.468 218.796 179.468C218.292 179.468 217.812 179.546 217.356 179.702C216.9 179.846 216.474 180.014 216.078 180.206L215.592 179.018C216.012 178.79 216.51 178.598 217.086 178.442C217.662 178.274 218.262 178.19 218.886 178.19ZM219.354 183.338C218.154 183.386 217.32 183.578 216.852 183.914C216.396 184.25 216.168 184.724 216.168 185.336C216.168 185.876 216.33 186.272 216.654 186.524C216.99 186.776 217.416 186.902 217.932 186.902C218.748 186.902 219.426 186.68 219.966 186.236C220.506 185.78 220.776 185.084 220.776 184.148V183.284L219.354 183.338ZM231.622 179.684H228.472V188H226.906V179.684H223.792V178.352H231.622V179.684ZM245.704 184.212H247.145V186.075H245.704V188H243.656V186.075H236.994L245.704 173.419V184.212ZM243.656 184.212V179.668L240.527 184.212H243.656ZM254.643 173.955L256.146 175.08L252.903 179.492C253.078 179.469 253.228 179.451 253.351 179.439C253.474 179.428 253.571 179.422 253.641 179.422C254.742 179.422 255.695 179.844 256.497 180.688C257.294 181.52 257.693 182.521 257.693 183.693C257.693 184.936 257.247 186.002 256.357 186.893C255.472 187.777 254.408 188.22 253.166 188.22C251.936 188.22 250.858 187.783 249.932 186.91C249.024 186.037 248.57 185.003 248.57 183.808C248.57 182.735 249.012 181.599 249.897 180.397L254.643 173.955ZM255.698 183.825C255.698 183.104 255.448 182.495 254.95 181.997C254.447 181.493 253.84 181.241 253.131 181.241C252.416 181.241 251.81 181.49 251.312 181.988C250.814 182.486 250.565 183.09 250.565 183.799C250.565 184.508 250.814 185.111 251.312 185.609C251.81 186.107 252.419 186.356 253.14 186.356C253.843 186.356 254.444 186.107 254.942 185.609C255.446 185.105 255.698 184.511 255.698 183.825ZM265.058 176.346H258.361V174.43H268.477L259.917 188.466L258.291 187.438L265.058 176.346ZM271.308 180.942C270.311 180.239 269.813 179.281 269.813 178.068C269.813 176.967 270.191 176.047 270.947 175.309C271.709 174.57 272.655 174.201 273.786 174.201C274.911 174.201 275.849 174.57 276.599 175.309C277.349 176.041 277.724 176.964 277.724 178.077C277.724 179.243 277.228 180.195 276.238 180.934C276.783 181.227 277.211 181.654 277.521 182.217C277.838 182.779 277.996 183.412 277.996 184.115C277.996 185.316 277.603 186.301 276.818 187.068C276.033 187.836 275.028 188.22 273.804 188.22C272.55 188.22 271.516 187.833 270.701 187.06C269.881 186.286 269.471 185.313 269.471 184.142C269.471 182.618 270.083 181.552 271.308 180.942ZM271.738 178.06C271.738 178.64 271.935 179.126 272.327 179.519C272.726 179.917 273.206 180.116 273.769 180.116C274.325 180.116 274.803 179.917 275.201 179.519C275.6 179.12 275.799 178.643 275.799 178.086C275.799 177.529 275.6 177.052 275.201 176.653C274.803 176.255 274.325 176.056 273.769 176.056C273.212 176.056 272.734 176.255 272.336 176.653C271.937 177.052 271.738 177.521 271.738 178.06ZM271.483 184.071C271.483 184.698 271.7 185.237 272.134 185.688C272.573 186.134 273.106 186.356 273.733 186.356C274.354 186.356 274.885 186.137 275.324 185.697C275.764 185.252 275.983 184.719 275.983 184.098C275.983 183.471 275.764 182.938 275.324 182.498C274.885 182.059 274.354 181.839 273.733 181.839C273.118 181.839 272.588 182.059 272.143 182.498C271.703 182.938 271.483 183.462 271.483 184.071Z" fill="white"/>
<path d="M34.23 83.14H30.63V94H25.2V83.14H21.6V78.61H34.23V83.14ZM41.4211 86.26C41.4211 86.76 41.5111 87.23 41.6911 87.67C41.8711 88.09 42.1111 88.46 42.4111 88.78C42.7311 89.1 43.1011 89.35 43.5211 89.53C43.9611 89.71 44.4311 89.8 44.9311 89.8C45.4111 89.8 45.8611 89.71 46.2811 89.53C46.7211 89.35 47.0911 89.1 47.3911 88.78C47.7111 88.46 47.9611 88.09 48.1411 87.67C48.3411 87.25 48.4411 86.8 48.4411 86.32C48.4411 85.84 48.3411 85.39 48.1411 84.97C47.9611 84.53 47.7111 84.15 47.3911 83.83C47.0911 83.51 46.7211 83.26 46.2811 83.08C45.8611 82.9 45.4111 82.81 44.9311 82.81C44.4311 82.81 43.9611 82.9 43.5211 83.08C43.1011 83.26 42.7311 83.51 42.4111 83.83C42.1111 84.15 41.8711 84.52 41.6911 84.94C41.5111 85.34 41.4211 85.78 41.4211 86.26ZM48.2611 78.61H53.7211V94H48.2611V92.29C47.1011 93.75 45.5311 94.48 43.5511 94.48C42.4311 94.48 41.4011 94.28 40.4611 93.88C39.5211 93.46 38.7011 92.88 38.0011 92.14C37.3011 91.4 36.7511 90.53 36.3511 89.53C35.9711 88.53 35.7811 87.44 35.7811 86.26C35.7811 85.16 35.9711 84.12 36.3511 83.14C36.7311 82.14 37.2611 81.27 37.9411 80.53C38.6211 79.79 39.4311 79.21 40.3711 78.79C41.3111 78.35 42.3511 78.13 43.4911 78.13C45.4111 78.13 47.0011 78.8 48.2611 80.14V78.61ZM67.7662 83.92V78.61H73.1963V94H67.7662V88.39H62.2462V94H56.8162V78.61H62.2462V83.92H67.7662ZM94.5239 89.47V97.15H89.0939V94H76.3139V78.61H81.7439V89.47H87.2639V78.61H92.6939V89.47H94.5239ZM118.883 78.61V94H113.453V78.61H118.883ZM102.383 90.1H104.483C105.563 90.1 106.103 89.59 106.103 88.57C106.103 87.59 105.563 87.1 104.483 87.1H102.383V90.1ZM102.383 78.61V83.17H105.563C107.403 83.17 108.803 83.6 109.763 84.46C110.723 85.3 111.203 86.53 111.203 88.15C111.203 89.03 111.073 89.83 110.813 90.55C110.553 91.25 110.163 91.86 109.643 92.38C109.143 92.9 108.523 93.3 107.783 93.58C107.043 93.86 106.183 94 105.203 94H96.9527V78.61H102.383ZM123.669 88.27H128.769L123.249 98.2H119.769L123.669 88.27ZM152.55 83.14H148.95V94H143.52V83.14H139.92V78.61H152.55V83.14ZM159.741 86.26C159.741 86.76 159.831 87.23 160.011 87.67C160.191 88.09 160.431 88.46 160.731 88.78C161.051 89.1 161.421 89.35 161.841 89.53C162.281 89.71 162.751 89.8 163.251 89.8C163.731 89.8 164.181 89.71 164.601 89.53C165.041 89.35 165.411 89.1 165.711 88.78C166.031 88.46 166.281 88.09 166.461 87.67C166.661 87.25 166.761 86.8 166.761 86.32C166.761 85.84 166.661 85.39 166.461 84.97C166.281 84.53 166.031 84.15 165.711 83.83C165.411 83.51 165.041 83.26 164.601 83.08C164.181 82.9 163.731 82.81 163.251 82.81C162.751 82.81 162.281 82.9 161.841 83.08C161.421 83.26 161.051 83.51 160.731 83.83C160.431 84.15 160.191 84.52 160.011 84.94C159.831 85.34 159.741 85.78 159.741 86.26ZM166.581 78.61H172.041V94H166.581V92.29C165.421 93.75 163.851 94.48 161.871 94.48C160.751 94.48 159.721 94.28 158.781 93.88C157.841 93.46 157.021 92.88 156.321 92.14C155.621 91.4 155.071 90.53 154.671 89.53C154.291 88.53 154.101 87.44 154.101 86.26C154.101 85.16 154.291 84.12 154.671 83.14C155.051 82.14 155.581 81.27 156.261 80.53C156.941 79.79 157.751 79.21 158.691 78.79C159.631 78.35 160.671 78.13 161.811 78.13C163.731 78.13 165.321 78.8 166.581 80.14V78.61ZM186.086 83.92V78.61H191.516V94H186.086V88.39H180.566V94H175.136V78.61H180.566V83.92H186.086ZM212.843 89.47V97.15H207.413V94H194.633V78.61H200.063V89.47H205.583V78.61H211.013V89.47H212.843ZM237.202 78.61V94H231.772V78.61H237.202ZM220.702 90.1H222.802C223.882 90.1 224.422 89.59 224.422 88.57C224.422 87.59 223.882 87.1 222.802 87.1H220.702V90.1ZM220.702 78.61V83.17H223.882C225.722 83.17 227.122 83.6 228.082 84.46C229.042 85.3 229.522 86.53 229.522 88.15C229.522 89.03 229.392 89.83 229.132 90.55C228.872 91.25 228.482 91.86 227.962 92.38C227.462 92.9 226.842 93.3 226.102 93.58C225.362 93.86 224.502 94 223.522 94H215.272V78.61H220.702ZM34.23 108.14H30.63V119H25.2V108.14H21.6V103.61H34.23V108.14ZM41.4211 111.26C41.4211 111.76 41.5111 112.23 41.6911 112.67C41.8711 113.09 42.1111 113.46 42.4111 113.78C42.7311 114.1 43.1011 114.35 43.5211 114.53C43.9611 114.71 44.4311 114.8 44.9311 114.8C45.4111 114.8 45.8611 114.71 46.2811 114.53C46.7211 114.35 47.0911 114.1 47.3911 113.78C47.7111 113.46 47.9611 113.09 48.1411 112.67C48.3411 112.25 48.4411 111.8 48.4411 111.32C48.4411 110.84 48.3411 110.39 48.1411 109.97C47.9611 109.53 47.7111 109.15 47.3911 108.83C47.0911 108.51 46.7211 108.26 46.2811 108.08C45.8611 107.9 45.4111 107.81 44.9311 107.81C44.4311 107.81 43.9611 107.9 43.5211 108.08C43.1011 108.26 42.7311 108.51 42.4111 108.83C42.1111 109.15 41.8711 109.52 41.6911 109.94C41.5111 110.34 41.4211 110.78 41.4211 111.26ZM48.2611 103.61H53.7211V119H48.2611V117.29C47.1011 118.75 45.5311 119.48 43.5511 119.48C42.4311 119.48 41.4011 119.28 40.4611 118.88C39.5211 118.46 38.7011 117.88 38.0011 117.14C37.3011 116.4 36.7511 115.53 36.3511 114.53C35.9711 113.53 35.7811 112.44 35.7811 111.26C35.7811 110.16 35.9711 109.12 36.3511 108.14C36.7311 107.14 37.2611 106.27 37.9411 105.53C38.6211 104.79 39.4311 104.21 40.3711 103.79C41.3111 103.35 42.3511 103.13 43.4911 103.13C45.4111 103.13 47.0011 103.8 48.2611 105.14V103.61ZM67.7662 108.92V103.61H73.1963V119H67.7662V113.39H62.2462V119H56.8162V103.61H62.2462V108.92H67.7662ZM94.5239 114.47V122.15H89.0939V119H76.3139V103.61H81.7439V114.47H87.2639V103.61H92.6939V114.47H94.5239ZM118.883 103.61V119H113.453V103.61H118.883ZM102.383 115.1H104.483C105.563 115.1 106.103 114.59 106.103 113.57C106.103 112.59 105.563 112.1 104.483 112.1H102.383V115.1ZM102.383 103.61V108.17H105.563C107.403 108.17 108.803 108.6 109.763 109.46C110.723 110.3 111.203 111.53 111.203 113.15C111.203 114.03 111.073 114.83 110.813 115.55C110.553 116.25 110.163 116.86 109.643 117.38C109.143 117.9 108.523 118.3 107.783 118.58C107.043 118.86 106.183 119 105.203 119H96.9527V103.61H102.383ZM137.014 103.61V112.22L143.464 103.61H148.894V119H143.464V110.42L136.984 119H131.584V103.61H137.014ZM173.225 108.59C172.285 107.95 171.335 107.63 170.375 107.63C169.855 107.63 169.365 107.72 168.905 107.9C168.465 108.08 168.075 108.34 167.735 108.68C167.395 109 167.125 109.39 166.925 109.85C166.745 110.29 166.655 110.79 166.655 111.35C166.655 111.89 166.745 112.39 166.925 112.85C167.125 113.29 167.385 113.68 167.705 114.02C168.045 114.34 168.445 114.59 168.905 114.77C169.365 114.95 169.855 115.04 170.375 115.04C171.395 115.04 172.345 114.69 173.225 113.99V118.61C171.885 119.19 170.615 119.48 169.415 119.48C168.295 119.48 167.225 119.29 166.205 118.91C165.205 118.53 164.315 117.99 163.535 117.29C162.775 116.57 162.165 115.72 161.705 114.74C161.245 113.74 161.015 112.63 161.015 111.41C161.015 110.19 161.235 109.08 161.675 108.08C162.115 107.06 162.715 106.19 163.475 105.47C164.235 104.73 165.135 104.16 166.175 103.76C167.235 103.34 168.365 103.13 169.565 103.13C170.885 103.13 172.105 103.41 173.225 103.97V108.59ZM183.762 115.22C184.182 115.22 184.502 115.1 184.722 114.86C184.942 114.62 185.052 114.3 185.052 113.9C185.052 113.04 184.622 112.61 183.762 112.61H180.792V115.22H183.762ZM183.372 109.55C183.952 109.55 184.242 109.18 184.242 108.44C184.242 107.7 183.952 107.33 183.372 107.33H180.792V109.55H183.372ZM175.722 103.61H183.882C185.402 103.61 186.552 103.96 187.332 104.66C188.132 105.34 188.532 106.33 188.532 107.63C188.532 108.39 188.412 109.01 188.172 109.49C187.932 109.97 187.522 110.38 186.942 110.72C189.042 111.14 190.092 112.41 190.092 114.53C190.092 115.95 189.552 117.05 188.472 117.83C187.412 118.61 185.942 119 184.062 119H175.722V103.61ZM197.361 111.23C197.361 111.75 197.451 112.23 197.631 112.67C197.831 113.09 198.081 113.46 198.381 113.78C198.701 114.1 199.071 114.35 199.491 114.53C199.931 114.71 200.391 114.8 200.871 114.8C201.351 114.8 201.801 114.71 202.221 114.53C202.661 114.35 203.031 114.1 203.331 113.78C203.651 113.46 203.901 113.09 204.081 112.67C204.281 112.23 204.381 111.76 204.381 111.26C204.381 110.78 204.281 110.33 204.081 109.91C203.901 109.47 203.651 109.09 203.331 108.77C203.031 108.45 202.661 108.2 202.221 108.02C201.801 107.84 201.351 107.75 200.871 107.75C200.391 107.75 199.931 107.84 199.491 108.02C199.071 108.2 198.701 108.45 198.381 108.77C198.081 109.09 197.831 109.46 197.631 109.88C197.451 110.3 197.361 110.75 197.361 111.23ZM191.631 111.17C191.631 110.03 191.861 108.97 192.321 107.99C192.781 106.99 193.421 106.13 194.241 105.41C195.061 104.67 196.031 104.09 197.151 103.67C198.291 103.25 199.531 103.04 200.871 103.04C202.191 103.04 203.411 103.25 204.531 103.67C205.671 104.07 206.651 104.64 207.471 105.38C208.311 106.1 208.961 106.97 209.421 107.99C209.881 108.99 210.111 110.1 210.111 111.32C210.111 112.54 209.871 113.66 209.391 114.68C208.931 115.68 208.291 116.55 207.471 117.29C206.651 118.01 205.661 118.57 204.501 118.97C203.361 119.37 202.121 119.57 200.781 119.57C199.461 119.57 198.241 119.37 197.121 118.97C196.001 118.57 195.031 118 194.211 117.26C193.411 116.52 192.781 115.64 192.321 114.62C191.861 113.58 191.631 112.43 191.631 111.17ZM224.097 108.14H219.987V112.76C219.987 113.16 219.977 113.48 219.957 113.72C219.937 113.96 219.907 114.21 219.867 114.47H224.097V108.14ZM213.117 114.47C213.657 114.47 214.027 114.29 214.227 113.93C214.427 113.57 214.527 113.01 214.527 112.25V103.61H229.527V114.47H231.357V122.15H225.927V119H217.797V122.15H212.367V114.47H213.117ZM239.293 103.61V112.22L245.743 103.61H251.173V119H245.743V110.42L239.263 119H233.863V103.61H239.293ZM265.668 108.14H262.068V119H256.638V108.14H253.038V103.61H265.668V108.14ZM30.93 144L27.6 134.94L26.1 144H21.51L24.45 128.61H28.92L32.1 136.92L35.28 128.61H39.75L42.69 144H38.07L36.6 134.94L33.27 144H30.93ZM50.047 141.9L42.607 128.61H48.907L53.017 136.5L57.007 128.61H63.247L50.887 151.68H44.797L50.047 141.9ZM64.2513 128.4C64.7513 128.3 65.2413 128.22 65.7213 128.16C66.2213 128.08 66.7513 128.04 67.3113 128.04C68.2913 128.04 69.2013 128.15 70.0413 128.37C70.8813 128.59 71.6013 128.9 72.2013 129.3C72.8213 129.7 73.3013 130.17 73.6413 130.71C73.9813 131.25 74.1513 131.83 74.1513 132.45C74.1513 133.13 73.9413 133.75 73.5213 134.31C73.1213 134.85 72.4713 135.35 71.5713 135.81C72.6513 136.15 73.4313 136.62 73.9113 137.22C74.4113 137.8 74.6613 138.54 74.6613 139.44C74.6613 140.18 74.4813 140.87 74.1213 141.51C73.7813 142.13 73.2813 142.67 72.6213 143.13C71.9813 143.57 71.2113 143.92 70.3113 144.18C69.4113 144.44 68.4213 144.57 67.3413 144.57C66.8213 144.57 66.2913 144.54 65.7513 144.48C65.2113 144.42 64.7113 144.32 64.2513 144.18V139.8C64.5313 139.9 64.8513 139.98 65.2113 140.04C65.5913 140.08 65.9513 140.1 66.2913 140.1C67.0113 140.1 67.6213 140 68.1213 139.8C68.6413 139.58 68.9013 139.32 68.9013 139.02C68.9013 138.68 68.6113 138.39 68.0313 138.15C67.4513 137.89 66.6913 137.76 65.7513 137.76H65.5113V134.58C66.5913 134.56 67.3713 134.46 67.8513 134.28C68.3513 134.1 68.6013 133.84 68.6013 133.5C68.6013 133.18 68.4313 132.94 68.0913 132.78C67.7513 132.62 67.2913 132.54 66.7113 132.54C66.2913 132.54 65.8613 132.58 65.4213 132.66C64.9813 132.72 64.5913 132.8 64.2513 132.9V128.4ZM99.0335 128.61V144H93.6035V128.61H99.0335ZM82.5335 140.1H84.6335C85.7135 140.1 86.2535 139.59 86.2535 138.57C86.2535 137.59 85.7135 137.1 84.6335 137.1H82.5335V140.1ZM82.5335 128.61V133.17H85.7135C87.5535 133.17 88.9535 133.6 89.9135 134.46C90.8735 135.3 91.3535 136.53 91.3535 138.15C91.3535 139.03 91.2235 139.83 90.9635 140.55C90.7035 141.25 90.3135 141.86 89.7935 142.38C89.2935 142.9 88.6735 143.3 87.9335 143.58C87.1935 143.86 86.3335 144 85.3535 144H77.1035V128.61H82.5335ZM112.07 128.61H117.86L111.77 135.99L118.67 144H112.46L107.57 137.85V144H102.14V128.61H107.57V134.79L112.07 128.61ZM125.007 136.26C125.007 136.76 125.097 137.23 125.277 137.67C125.457 138.09 125.697 138.46 125.997 138.78C126.317 139.1 126.687 139.35 127.107 139.53C127.547 139.71 128.017 139.8 128.517 139.8C128.997 139.8 129.447 139.71 129.867 139.53C130.307 139.35 130.677 139.1 130.977 138.78C131.297 138.46 131.547 138.09 131.727 137.67C131.927 137.25 132.027 136.8 132.027 136.32C132.027 135.84 131.927 135.39 131.727 134.97C131.547 134.53 131.297 134.15 130.977 133.83C130.677 133.51 130.307 133.26 129.867 133.08C129.447 132.9 128.997 132.81 128.517 132.81C128.017 132.81 127.547 132.9 127.107 133.08C126.687 133.26 126.317 133.51 125.997 133.83C125.697 134.15 125.457 134.52 125.277 134.94C125.097 135.34 125.007 135.78 125.007 136.26ZM131.847 128.61H137.307V144H131.847V142.29C130.687 143.75 129.117 144.48 127.137 144.48C126.017 144.48 124.987 144.28 124.047 143.88C123.107 143.46 122.287 142.88 121.587 142.14C120.887 141.4 120.337 140.53 119.937 139.53C119.557 138.53 119.367 137.44 119.367 136.26C119.367 135.16 119.557 134.12 119.937 133.14C120.317 132.14 120.847 131.27 121.527 130.53C122.207 129.79 123.017 129.21 123.957 128.79C124.897 128.35 125.937 128.13 127.077 128.13C128.997 128.13 130.587 128.8 131.847 130.14V128.61ZM161.608 133.59C160.668 132.95 159.718 132.63 158.758 132.63C158.238 132.63 157.748 132.72 157.288 132.9C156.848 133.08 156.458 133.34 156.118 133.68C155.778 134 155.508 134.39 155.308 134.85C155.128 135.29 155.038 135.79 155.038 136.35C155.038 136.89 155.128 137.39 155.308 137.85C155.508 138.29 155.768 138.68 156.088 139.02C156.428 139.34 156.828 139.59 157.288 139.77C157.748 139.95 158.238 140.04 158.758 140.04C159.778 140.04 160.728 139.69 161.608 138.99V143.61C160.268 144.19 158.998 144.48 157.798 144.48C156.678 144.48 155.608 144.29 154.588 143.91C153.588 143.53 152.698 142.99 151.918 142.29C151.158 141.57 150.548 140.72 150.088 139.74C149.628 138.74 149.398 137.63 149.398 136.41C149.398 135.19 149.618 134.08 150.058 133.08C150.498 132.06 151.098 131.19 151.858 130.47C152.618 129.73 153.518 129.16 154.558 128.76C155.618 128.34 156.748 128.13 157.948 128.13C159.268 128.13 160.488 128.41 161.608 128.97V133.59ZM179.28 141.9L171.84 128.61H178.14L182.25 136.5L186.24 128.61H192.48L180.12 151.68H174.03L179.28 141.9ZM201.825 144L198.495 134.94L196.995 144H192.405L195.345 128.61H199.815L202.995 136.92L206.175 128.61H210.645L213.585 144H208.965L207.495 134.94L204.165 144H201.825ZM220.402 136.26C220.402 136.76 220.492 137.23 220.672 137.67C220.852 138.09 221.092 138.46 221.392 138.78C221.712 139.1 222.082 139.35 222.502 139.53C222.942 139.71 223.412 139.8 223.912 139.8C224.392 139.8 224.842 139.71 225.262 139.53C225.702 139.35 226.072 139.1 226.372 138.78C226.692 138.46 226.942 138.09 227.122 137.67C227.322 137.25 227.422 136.8 227.422 136.32C227.422 135.84 227.322 135.39 227.122 134.97C226.942 134.53 226.692 134.15 226.372 133.83C226.072 133.51 225.702 133.26 225.262 133.08C224.842 132.9 224.392 132.81 223.912 132.81C223.412 132.81 222.942 132.9 222.502 133.08C222.082 133.26 221.712 133.51 221.392 133.83C221.092 134.15 220.852 134.52 220.672 134.94C220.492 135.34 220.402 135.78 220.402 136.26ZM227.242 128.61H232.702V144H227.242V142.29C226.082 143.75 224.512 144.48 222.532 144.48C221.412 144.48 220.382 144.28 219.442 143.88C218.502 143.46 217.682 142.88 216.982 142.14C216.282 141.4 215.732 140.53 215.332 139.53C214.952 138.53 214.762 137.44 214.762 136.26C214.762 135.16 214.952 134.12 215.332 133.14C215.712 132.14 216.242 131.27 216.922 130.53C217.602 129.79 218.412 129.21 219.352 128.79C220.292 128.35 221.332 128.13 222.472 128.13C224.392 128.13 225.982 128.8 227.242 130.14V128.61Z" fill="white"/>
<defs>
<filter id="filter0_b" x="-100" y="-100" width="505" height="435.962" filterUnits="userSpaceOnUse" color-interpolation-filters="sRGB">
<feFlood flood-opacity="0" result="BackgroundImageFix"/>
<feGaussianBlur in="BackgroundImage" stdDeviation="50"/>
<feComposite in2="SourceAlpha" operator="in" result="effect1_backgroundBlur"/>
<feBlend mode="normal" in="SourceGraphic" in2="effect1_backgroundBlur" result="shape"/>
</filter>
</defs>
</svg>
