<svg width="305" height="236" viewBox="0 0 305 236" fill="none" xmlns="http://www.w3.org/2000/svg">
<g filter="url(#filter0_b)">
<mask id="path-1-inside-1" fill="white">
<path fill-rule="evenodd" clip-rule="evenodd" d="M305 50C305 22.3858 282.614 0 255 0H50C22.3858 0 0 22.3857 0 50V160.433C0 188.047 22.3857 210.433 50 210.433H199.843C208.268 210.433 215.882 215.454 219.201 223.198V223.198C226.495 240.217 250.623 240.217 257.917 223.198V223.198C261.236 215.454 268.851 210.433 277.276 210.433H279.923C293.773 210.433 305 199.206 305 185.356V50Z"/>
</mask>
<path fill-rule="evenodd" clip-rule="evenodd" d="M305 50C305 22.3858 282.614 0 255 0H50C22.3858 0 0 22.3857 0 50V160.433C0 188.047 22.3857 210.433 50 210.433H199.843C208.268 210.433 215.882 215.454 219.201 223.198V223.198C226.495 240.217 250.623 240.217 257.917 223.198V223.198C261.236 215.454 268.851 210.433 277.276 210.433H279.923C293.773 210.433 305 199.206 305 185.356V50Z" fill="#6974D1"/>
<path d="M50 5H255V-5H50V5ZM5 160.433V50H-5V160.433H5ZM199.843 205.433H50V215.433H199.843V205.433ZM279.923 205.433H277.276V215.433H279.923V205.433ZM300 50V185.356H310V50H300ZM279.923 215.433C296.534 215.433 310 201.967 310 185.356H300C300 196.444 291.011 205.433 279.923 205.433V215.433ZM262.513 225.167C265.044 219.262 270.851 215.433 277.276 215.433V205.433C266.85 205.433 257.428 211.646 253.322 221.228L262.513 225.167ZM214.605 225.167C223.631 246.227 253.487 246.227 262.513 225.167L253.322 221.228C247.759 234.207 229.359 234.207 223.797 221.228L214.605 225.167ZM199.843 215.433C206.268 215.433 212.074 219.262 214.605 225.167L223.797 221.228C219.69 211.646 210.268 205.433 199.843 205.433V215.433ZM-5 160.433C-5 190.809 19.6243 215.433 50 215.433V205.433C25.1472 205.433 5 185.286 5 160.433H-5ZM255 5C279.853 5 300 25.1472 300 50H310C310 19.6243 285.376 -5 255 -5V5ZM50 -5C19.6243 -5 -5 19.6243 -5 50H5C5 25.1472 25.1472 5 50 5V-5Z" fill="white" mask="url(#path-1-inside-1)"/>
</g>
<path d="M28.68 60.66L22.44 53.61H29.52L32.16 56.79L34.86 53.61H41.94L35.55 60.66L43.26 69H36.06L32.13 64.44L28.17 69H21L28.68 60.66ZM54.8381 59.07C54.6581 58.31 54.2881 57.7 53.7281 57.24C53.1681 56.78 52.4881 56.55 51.6881 56.55C50.8481 56.55 50.1581 56.77 49.6181 57.21C49.0981 57.65 48.7681 58.27 48.6281 59.07H54.8381ZM48.4781 62.22C48.4781 64.56 49.5781 65.73 51.7781 65.73C52.9581 65.73 53.8481 65.25 54.4481 64.29H59.6981C58.6381 67.81 55.9881 69.57 51.7481 69.57C50.4481 69.57 49.2581 69.38 48.1781 69C47.0981 68.6 46.1681 68.04 45.3881 67.32C44.6281 66.6 44.0381 65.74 43.6181 64.74C43.1981 63.74 42.9881 62.62 42.9881 61.38C42.9881 60.1 43.1881 58.95 43.5881 57.93C43.9881 56.89 44.5581 56.01 45.2981 55.29C46.0381 54.57 46.9281 54.02 47.9681 53.64C49.0281 53.24 50.2181 53.04 51.5381 53.04C52.8381 53.04 54.0081 53.24 55.0481 53.64C56.0881 54.02 56.9681 54.58 57.6881 55.32C58.4081 56.06 58.9581 56.97 59.3381 58.05C59.7181 59.11 59.9081 60.31 59.9081 61.65V62.22H48.4781ZM77.8273 60.66L71.5873 53.61H78.6673L81.3073 56.79L84.0073 53.61H91.0873L84.6973 60.66L92.4073 69H85.2073L81.2773 64.44L77.3173 69H70.1473L77.8273 60.66ZM103.985 59.07C103.805 58.31 103.435 57.7 102.875 57.24C102.315 56.78 101.635 56.55 100.835 56.55C99.9954 56.55 99.3054 56.77 98.7654 57.21C98.2454 57.65 97.9154 58.27 97.7754 59.07H103.985ZM97.6254 62.22C97.6254 64.56 98.7254 65.73 100.925 65.73C102.105 65.73 102.995 65.25 103.595 64.29H108.845C107.785 67.81 105.135 69.57 100.895 69.57C99.5954 69.57 98.4054 69.38 97.3254 69C96.2454 68.6 95.3154 68.04 94.5354 67.32C93.7754 66.6 93.1854 65.74 92.7654 64.74C92.3454 63.74 92.1354 62.62 92.1354 61.38C92.1354 60.1 92.3354 58.95 92.7354 57.93C93.1354 56.89 93.7054 56.01 94.4454 55.29C95.1854 54.57 96.0754 54.02 97.1154 53.64C98.1754 53.24 99.3654 53.04 100.685 53.04C101.985 53.04 103.155 53.24 104.195 53.64C105.235 54.02 106.115 54.58 106.835 55.32C107.555 56.06 108.105 56.97 108.485 58.05C108.865 59.11 109.055 60.31 109.055 61.65V62.22H97.6254ZM126.975 60.66L120.735 53.61H127.815L130.455 56.79L133.155 53.61H140.235L133.845 60.66L141.555 69H134.355L130.425 64.44L126.465 69H119.295L126.975 60.66ZM153.133 59.07C152.953 58.31 152.583 57.7 152.023 57.24C151.463 56.78 150.783 56.55 149.983 56.55C149.143 56.55 148.453 56.77 147.913 57.21C147.393 57.65 147.063 58.27 146.923 59.07H153.133ZM146.773 62.22C146.773 64.56 147.873 65.73 150.073 65.73C151.253 65.73 152.143 65.25 152.743 64.29H157.993C156.933 67.81 154.283 69.57 150.043 69.57C148.743 69.57 147.553 69.38 146.473 69C145.393 68.6 144.463 68.04 143.683 67.32C142.923 66.6 142.333 65.74 141.913 64.74C141.493 63.74 141.283 62.62 141.283 61.38C141.283 60.1 141.483 58.95 141.883 57.93C142.283 56.89 142.853 56.01 143.593 55.29C144.333 54.57 145.223 54.02 146.263 53.64C147.323 53.24 148.513 53.04 149.833 53.04C151.133 53.04 152.303 53.24 153.343 53.64C154.383 54.02 155.263 54.58 155.983 55.32C156.703 56.06 157.253 56.97 157.633 58.05C158.013 59.11 158.203 60.31 158.203 61.65V62.22H146.773ZM161.786 61.32V46.38H167.426V61.32H161.786ZM161.096 66.12C161.096 65.64 161.186 65.19 161.366 64.77C161.546 64.33 161.796 63.95 162.116 63.63C162.436 63.31 162.806 63.06 163.226 62.88C163.666 62.7 164.126 62.61 164.606 62.61C165.086 62.61 165.536 62.7 165.956 62.88C166.396 63.06 166.776 63.31 167.096 63.63C167.416 63.95 167.666 64.33 167.846 64.77C168.026 65.19 168.116 65.64 168.116 66.12C168.116 66.6 168.026 67.06 167.846 67.5C167.666 67.92 167.416 68.29 167.096 68.61C166.776 68.93 166.396 69.18 165.956 69.36C165.536 69.54 165.086 69.63 164.606 69.63C164.126 69.63 163.666 69.54 163.226 69.36C162.806 69.18 162.436 68.93 162.116 68.61C161.796 68.29 161.546 67.92 161.366 67.5C161.186 67.06 161.096 66.6 161.096 66.12ZM34.23 83.14H30.63V94H25.2V83.14H21.6V78.61H34.23V83.14ZM41.4211 86.26C41.4211 86.76 41.5111 87.23 41.6911 87.67C41.8711 88.09 42.1111 88.46 42.4111 88.78C42.7311 89.1 43.1011 89.35 43.5211 89.53C43.9611 89.71 44.4311 89.8 44.9311 89.8C45.4111 89.8 45.8611 89.71 46.2811 89.53C46.7211 89.35 47.0911 89.1 47.3911 88.78C47.7111 88.46 47.9611 88.09 48.1411 87.67C48.3411 87.25 48.4411 86.8 48.4411 86.32C48.4411 85.84 48.3411 85.39 48.1411 84.97C47.9611 84.53 47.7111 84.15 47.3911 83.83C47.0911 83.51 46.7211 83.26 46.2811 83.08C45.8611 82.9 45.4111 82.81 44.9311 82.81C44.4311 82.81 43.9611 82.9 43.5211 83.08C43.1011 83.26 42.7311 83.51 42.4111 83.83C42.1111 84.15 41.8711 84.52 41.6911 84.94C41.5111 85.34 41.4211 85.78 41.4211 86.26ZM48.2611 78.61H53.7211V94H48.2611V92.29C47.1011 93.75 45.5311 94.48 43.5511 94.48C42.4311 94.48 41.4011 94.28 40.4611 93.88C39.5211 93.46 38.7011 92.88 38.0011 92.14C37.3011 91.4 36.7511 90.53 36.3511 89.53C35.9711 88.53 35.7811 87.44 35.7811 86.26C35.7811 85.16 35.9711 84.12 36.3511 83.14C36.7311 82.14 37.2611 81.27 37.9411 80.53C38.6211 79.79 39.4311 79.21 40.3711 78.79C41.3111 78.35 42.3511 78.13 43.4911 78.13C45.4111 78.13 47.0011 78.8 48.2611 80.14V78.61ZM66.7462 78.61H72.5362L66.4462 85.99L73.3463 94H67.1362L62.2462 87.85V94H56.8162V78.61H62.2462V84.79L66.7462 78.61ZM79.774 86.23C79.774 86.75 79.864 87.23 80.044 87.67C80.244 88.09 80.494 88.46 80.794 88.78C81.114 89.1 81.484 89.35 81.904 89.53C82.344 89.71 82.804 89.8 83.284 89.8C83.764 89.8 84.214 89.71 84.634 89.53C85.074 89.35 85.444 89.1 85.744 88.78C86.064 88.46 86.314 88.09 86.494 87.67C86.694 87.23 86.794 86.76 86.794 86.26C86.794 85.78 86.694 85.33 86.494 84.91C86.314 84.47 86.064 84.09 85.744 83.77C85.444 83.45 85.074 83.2 84.634 83.02C84.214 82.84 83.764 82.75 83.284 82.75C82.804 82.75 82.344 82.84 81.904 83.02C81.484 83.2 81.114 83.45 80.794 83.77C80.494 84.09 80.244 84.46 80.044 84.88C79.864 85.3 79.774 85.75 79.774 86.23ZM74.044 86.17C74.044 85.03 74.274 83.97 74.734 82.99C75.194 81.99 75.834 81.13 76.654 80.41C77.474 79.67 78.444 79.09 79.564 78.67C80.704 78.25 81.944 78.04 83.284 78.04C84.604 78.04 85.824 78.25 86.944 78.67C88.084 79.07 89.064 79.64 89.884 80.38C90.724 81.1 91.374 81.97 91.834 82.99C92.294 83.99 92.524 85.1 92.524 86.32C92.524 87.54 92.284 88.66 91.804 89.68C91.344 90.68 90.704 91.55 89.884 92.29C89.064 93.01 88.074 93.57 86.914 93.97C85.774 94.37 84.534 94.57 83.194 94.57C81.874 94.57 80.654 94.37 79.534 93.97C78.414 93.57 77.444 93 76.624 92.26C75.824 91.52 75.194 90.64 74.734 89.62C74.274 88.58 74.044 87.43 74.044 86.17ZM95.0498 94V78.61H104.68V83.14H100.45V94H95.0498ZM111.679 86.23C111.679 86.75 111.769 87.23 111.949 87.67C112.149 88.09 112.399 88.46 112.699 88.78C113.019 89.1 113.389 89.35 113.809 89.53C114.249 89.71 114.709 89.8 115.189 89.8C115.669 89.8 116.119 89.71 116.539 89.53C116.979 89.35 117.349 89.1 117.649 88.78C117.969 88.46 118.219 88.09 118.399 87.67C118.599 87.23 118.699 86.76 118.699 86.26C118.699 85.78 118.599 85.33 118.399 84.91C118.219 84.47 117.969 84.09 117.649 83.77C117.349 83.45 116.979 83.2 116.539 83.02C116.119 82.84 115.669 82.75 115.189 82.75C114.709 82.75 114.249 82.84 113.809 83.02C113.389 83.2 113.019 83.45 112.699 83.77C112.399 84.09 112.149 84.46 111.949 84.88C111.769 85.3 111.679 85.75 111.679 86.23ZM105.949 86.17C105.949 85.03 106.179 83.97 106.639 82.99C107.099 81.99 107.739 81.13 108.559 80.41C109.379 79.67 110.349 79.09 111.469 78.67C112.609 78.25 113.849 78.04 115.189 78.04C116.509 78.04 117.729 78.25 118.849 78.67C119.989 79.07 120.969 79.64 121.789 80.38C122.629 81.1 123.279 81.97 123.739 82.99C124.199 83.99 124.429 85.1 124.429 86.32C124.429 87.54 124.189 88.66 123.709 89.68C123.249 90.68 122.609 91.55 121.789 92.29C120.969 93.01 119.979 93.57 118.819 93.97C117.679 94.37 116.439 94.57 115.099 94.57C113.779 94.57 112.559 94.37 111.439 93.97C110.319 93.57 109.349 93 108.529 92.26C107.729 91.52 107.099 90.64 106.639 89.62C106.179 88.58 105.949 87.43 105.949 86.17ZM148.011 83.14H143.901V87.76C143.901 88.16 143.891 88.48 143.871 88.72C143.851 88.96 143.821 89.21 143.781 89.47H148.011V83.14ZM137.031 89.47C137.571 89.47 137.941 89.29 138.141 88.93C138.341 88.57 138.441 88.01 138.441 87.25V78.61H153.441V89.47H155.271V97.15H149.841V94H141.711V97.15H136.281V89.47H137.031ZM165.817 90.22C166.237 90.22 166.557 90.1 166.777 89.86C166.997 89.62 167.107 89.3 167.107 88.9C167.107 88.04 166.677 87.61 165.817 87.61H162.847V90.22H165.817ZM165.427 84.55C166.007 84.55 166.297 84.18 166.297 83.44C166.297 82.7 166.007 82.33 165.427 82.33H162.847V84.55H165.427ZM157.777 78.61H165.937C167.457 78.61 168.607 78.96 169.387 79.66C170.187 80.34 170.587 81.33 170.587 82.63C170.587 83.39 170.467 84.01 170.227 84.49C169.987 84.97 169.577 85.38 168.997 85.72C171.097 86.14 172.147 87.41 172.147 89.53C172.147 90.95 171.607 92.05 170.527 92.83C169.467 93.61 167.997 94 166.117 94H157.777V78.61ZM179.716 78.61V87.22L186.166 78.61H191.596V94H186.166V85.42L179.686 94H174.286V78.61H179.716ZM215.031 78.61H220.851L214.431 85.99L221.631 94H215.481L210.111 87.76V94H204.681V87.76L199.251 94H193.101L200.331 85.99L193.911 78.61H199.731L204.681 84.91V78.61H210.111V84.91L215.031 78.61ZM228.165 86.26C228.165 86.76 228.255 87.23 228.435 87.67C228.615 88.09 228.855 88.46 229.155 88.78C229.475 89.1 229.845 89.35 230.265 89.53C230.705 89.71 231.175 89.8 231.675 89.8C232.155 89.8 232.605 89.71 233.025 89.53C233.465 89.35 233.835 89.1 234.135 88.78C234.455 88.46 234.705 88.09 234.885 87.67C235.085 87.25 235.185 86.8 235.185 86.32C235.185 85.84 235.085 85.39 234.885 84.97C234.705 84.53 234.455 84.15 234.135 83.83C233.835 83.51 233.465 83.26 233.025 83.08C232.605 82.9 232.155 82.81 231.675 82.81C231.175 82.81 230.705 82.9 230.265 83.08C229.845 83.26 229.475 83.51 229.155 83.83C228.855 84.15 228.615 84.52 228.435 84.94C228.255 85.34 228.165 85.78 228.165 86.26ZM235.005 78.61H240.465V94H235.005V92.29C233.845 93.75 232.275 94.48 230.295 94.48C229.175 94.48 228.145 94.28 227.205 93.88C226.265 93.46 225.445 92.88 224.745 92.14C224.045 91.4 223.495 90.53 223.095 89.53C222.715 88.53 222.525 87.44 222.525 86.26C222.525 85.16 222.715 84.12 223.095 83.14C223.475 82.14 224.005 81.27 224.685 80.53C225.365 79.79 226.175 79.21 227.115 78.79C228.055 78.35 229.095 78.13 230.235 78.13C232.155 78.13 233.745 78.8 235.005 80.14V78.61ZM28.44 116.9L21 103.61H27.3L31.41 111.5L35.4 103.61H41.64L29.28 126.68H23.19L28.44 116.9ZM63.4596 108.92V103.61H68.8896V119H63.4596V113.39H57.9396V119H52.5096V103.61H57.9396V108.92H63.4596ZM77.0473 111.26C77.0473 111.76 77.1373 112.23 77.3173 112.67C77.4973 113.09 77.7373 113.46 78.0373 113.78C78.3573 114.1 78.7273 114.35 79.1473 114.53C79.5873 114.71 80.0573 114.8 80.5573 114.8C81.0373 114.8 81.4873 114.71 81.9073 114.53C82.3473 114.35 82.7173 114.1 83.0173 113.78C83.3373 113.46 83.5873 113.09 83.7673 112.67C83.9673 112.25 84.0673 111.8 84.0673 111.32C84.0673 110.84 83.9673 110.39 83.7673 109.97C83.5873 109.53 83.3373 109.15 83.0173 108.83C82.7173 108.51 82.3473 108.26 81.9073 108.08C81.4873 107.9 81.0373 107.81 80.5573 107.81C80.0573 107.81 79.5873 107.9 79.1473 108.08C78.7273 108.26 78.3573 108.51 78.0373 108.83C77.7373 109.15 77.4973 109.52 77.3173 109.94C77.1373 110.34 77.0473 110.78 77.0473 111.26ZM83.8873 103.61H89.3473V119H83.8873V117.29C82.7273 118.75 81.1573 119.48 79.1773 119.48C78.0573 119.48 77.0273 119.28 76.0873 118.88C75.1473 118.46 74.3273 117.88 73.6273 117.14C72.9273 116.4 72.3773 115.53 71.9773 114.53C71.5973 113.53 71.4073 112.44 71.4073 111.26C71.4073 110.16 71.5973 109.12 71.9773 108.14C72.3573 107.14 72.8873 106.27 73.5673 105.53C74.2473 104.79 75.0573 104.21 75.9973 103.79C76.9373 103.35 77.9773 103.13 79.1173 103.13C81.0373 103.13 82.6273 103.8 83.8873 105.14V103.61ZM104.052 108.59C103.112 107.95 102.162 107.63 101.202 107.63C100.682 107.63 100.192 107.72 99.7324 107.9C99.2924 108.08 98.9024 108.34 98.5624 108.68C98.2224 109 97.9524 109.39 97.7524 109.85C97.5724 110.29 97.4824 110.79 97.4824 111.35C97.4824 111.89 97.5724 112.39 97.7524 112.85C97.9524 113.29 98.2124 113.68 98.5324 114.02C98.8724 114.34 99.2724 114.59 99.7324 114.77C100.192 114.95 100.682 115.04 101.202 115.04C102.222 115.04 103.172 114.69 104.052 113.99V118.61C102.712 119.19 101.442 119.48 100.242 119.48C99.1224 119.48 98.0524 119.29 97.0324 118.91C96.0324 118.53 95.1424 117.99 94.3624 117.29C93.6024 116.57 92.9924 115.72 92.5324 114.74C92.0724 113.74 91.8424 112.63 91.8424 111.41C91.8424 110.19 92.0624 109.08 92.5024 108.08C92.9424 107.06 93.5424 106.19 94.3024 105.47C95.0624 104.73 95.9624 104.16 97.0024 103.76C98.0624 103.34 99.1924 103.13 100.392 103.13C101.712 103.13 102.932 103.41 104.052 103.97V108.59ZM127.605 108.14H123.495V112.76C123.495 113.16 123.485 113.48 123.465 113.72C123.445 113.96 123.415 114.21 123.375 114.47H127.605V108.14ZM116.625 114.47C117.165 114.47 117.535 114.29 117.735 113.93C117.935 113.57 118.035 113.01 118.035 112.25V103.61H133.035V114.47H134.865V122.15H129.435V119H121.305V122.15H115.875V114.47H116.625ZM142.411 111.26C142.411 111.76 142.501 112.23 142.681 112.67C142.861 113.09 143.101 113.46 143.401 113.78C143.721 114.1 144.091 114.35 144.511 114.53C144.951 114.71 145.421 114.8 145.921 114.8C146.401 114.8 146.851 114.71 147.271 114.53C147.711 114.35 148.081 114.1 148.381 113.78C148.701 113.46 148.951 113.09 149.131 112.67C149.331 112.25 149.431 111.8 149.431 111.32C149.431 110.84 149.331 110.39 149.131 109.97C148.951 109.53 148.701 109.15 148.381 108.83C148.081 108.51 147.711 108.26 147.271 108.08C146.851 107.9 146.401 107.81 145.921 107.81C145.421 107.81 144.951 107.9 144.511 108.08C144.091 108.26 143.721 108.51 143.401 108.83C143.101 109.15 142.861 109.52 142.681 109.94C142.501 110.34 142.411 110.78 142.411 111.26ZM149.251 103.61H154.711V119H149.251V117.29C148.091 118.75 146.521 119.48 144.541 119.48C143.421 119.48 142.391 119.28 141.451 118.88C140.511 118.46 139.691 117.88 138.991 117.14C138.291 116.4 137.741 115.53 137.341 114.53C136.961 113.53 136.771 112.44 136.771 111.26C136.771 110.16 136.961 109.12 137.341 108.14C137.721 107.14 138.251 106.27 138.931 105.53C139.611 104.79 140.421 104.21 141.361 103.79C142.301 103.35 143.341 103.13 144.481 103.13C146.401 103.13 147.991 103.8 149.251 105.14V103.61ZM165.846 115.22C166.266 115.22 166.586 115.1 166.806 114.86C167.026 114.62 167.136 114.3 167.136 113.9C167.136 113.04 166.706 112.61 165.846 112.61H162.876V115.22H165.846ZM165.456 109.55C166.036 109.55 166.326 109.18 166.326 108.44C166.326 107.7 166.036 107.33 165.456 107.33H162.876V109.55H165.456ZM157.806 103.61H165.966C167.486 103.61 168.636 103.96 169.416 104.66C170.216 105.34 170.616 106.33 170.616 107.63C170.616 108.39 170.496 109.01 170.256 109.49C170.016 109.97 169.606 110.38 169.026 110.72C171.126 111.14 172.176 112.41 172.176 114.53C172.176 115.95 171.636 117.05 170.556 117.83C169.496 118.61 168.026 119 166.146 119H157.806V103.61ZM185.265 108.92V103.61H190.695V119H185.265V113.39H179.745V119H174.315V103.61H179.745V108.92H185.265ZM198.943 111.23C198.943 111.75 199.033 112.23 199.213 112.67C199.413 113.09 199.663 113.46 199.963 113.78C200.283 114.1 200.653 114.35 201.073 114.53C201.513 114.71 201.973 114.8 202.453 114.8C202.933 114.8 203.383 114.71 203.803 114.53C204.243 114.35 204.613 114.1 204.913 113.78C205.233 113.46 205.483 113.09 205.663 112.67C205.863 112.23 205.963 111.76 205.963 111.26C205.963 110.78 205.863 110.33 205.663 109.91C205.483 109.47 205.233 109.09 204.913 108.77C204.613 108.45 204.243 108.2 203.803 108.02C203.383 107.84 202.933 107.75 202.453 107.75C201.973 107.75 201.513 107.84 201.073 108.02C200.653 108.2 200.283 108.45 199.963 108.77C199.663 109.09 199.413 109.46 199.213 109.88C199.033 110.3 198.943 110.75 198.943 111.23ZM193.213 111.17C193.213 110.03 193.443 108.97 193.903 107.99C194.363 106.99 195.003 106.13 195.823 105.41C196.643 104.67 197.613 104.09 198.733 103.67C199.873 103.25 201.113 103.04 202.453 103.04C203.773 103.04 204.993 103.25 206.113 103.67C207.253 104.07 208.233 104.64 209.053 105.38C209.893 106.1 210.543 106.97 211.003 107.99C211.463 108.99 211.693 110.1 211.693 111.32C211.693 112.54 211.453 113.66 210.973 114.68C210.513 115.68 209.873 116.55 209.053 117.29C208.233 118.01 207.243 118.57 206.083 118.97C204.943 119.37 203.703 119.57 202.363 119.57C201.043 119.57 199.823 119.37 198.703 118.97C197.583 118.57 196.613 118 195.793 117.26C194.993 116.52 194.363 115.64 193.903 114.62C193.443 113.58 193.213 112.43 193.213 111.17ZM33.81 133.92V128.61H39.24V144H33.81V138.39H28.29V144H22.86V128.61H28.29V133.92H33.81ZM53.6077 134.07C53.4277 133.31 53.0577 132.7 52.4977 132.24C51.9377 131.78 51.2577 131.55 50.4577 131.55C49.6177 131.55 48.9277 131.77 48.3877 132.21C47.8677 132.65 47.5377 133.27 47.3977 134.07H53.6077ZM47.2477 137.22C47.2477 139.56 48.3477 140.73 50.5477 140.73C51.7277 140.73 52.6177 140.25 53.2177 139.29H58.4677C57.4077 142.81 54.7577 144.57 50.5177 144.57C49.2177 144.57 48.0277 144.38 46.9477 144C45.8677 143.6 44.9377 143.04 44.1577 142.32C43.3977 141.6 42.8077 140.74 42.3877 139.74C41.9677 138.74 41.7577 137.62 41.7577 136.38C41.7577 135.1 41.9577 133.95 42.3577 132.93C42.7577 131.89 43.3277 131.01 44.0677 130.29C44.8077 129.57 45.6977 129.02 46.7377 128.64C47.7977 128.24 48.9877 128.04 50.3077 128.04C51.6077 128.04 52.7777 128.24 53.8177 128.64C54.8577 129.02 55.7377 129.58 56.4577 130.32C57.1777 131.06 57.7277 131.97 58.1077 133.05C58.4877 134.11 58.6777 135.31 58.6777 136.65V137.22H47.2477ZM79.4168 132.75C78.9368 132.75 78.4768 132.84 78.0368 133.02C77.6168 133.2 77.2468 133.45 76.9268 133.77C76.6268 134.09 76.3768 134.46 76.1768 134.88C75.9968 135.3 75.9068 135.76 75.9068 136.26C75.9068 136.74 75.9968 137.2 76.1768 137.64C76.3568 138.06 76.5968 138.43 76.8968 138.75C77.2168 139.07 77.5868 139.33 78.0068 139.53C78.4468 139.71 78.9168 139.8 79.4168 139.8C79.8968 139.8 80.3468 139.71 80.7668 139.53C81.2068 139.33 81.5868 139.07 81.9068 138.75C82.2268 138.43 82.4768 138.06 82.6568 137.64C82.8368 137.2 82.9268 136.74 82.9268 136.26C82.9268 135.78 82.8368 135.33 82.6568 134.91C82.4768 134.47 82.2268 134.09 81.9068 133.77C81.5868 133.45 81.2068 133.2 80.7668 133.02C80.3468 132.84 79.8968 132.75 79.4168 132.75ZM85.4768 124.44C85.1968 124.7 84.9368 124.92 84.6968 125.1C84.4768 125.26 84.2068 125.41 83.8868 125.55C83.5668 125.69 83.1668 125.84 82.6868 126C82.2068 126.16 81.5768 126.36 80.7968 126.6C80.1168 126.82 79.5668 127 79.1468 127.14C78.7268 127.28 78.3868 127.41 78.1268 127.53C77.8668 127.65 77.6568 127.78 77.4968 127.92C77.3568 128.04 77.2168 128.19 77.0768 128.37L76.8968 128.61C77.3568 128.43 77.8168 128.29 78.2768 128.19C78.7568 128.09 79.2968 128.04 79.8968 128.04C81.1168 128.04 82.2568 128.25 83.3168 128.67C84.3968 129.09 85.3368 129.67 86.1368 130.41C86.9368 131.15 87.5568 132.03 87.9968 133.05C88.4568 134.07 88.6868 135.19 88.6868 136.41C88.6868 137.59 88.4568 138.68 87.9968 139.68C87.5568 140.68 86.9268 141.54 86.1068 142.26C85.2868 142.98 84.2868 143.55 83.1068 143.97C81.9268 144.37 80.6068 144.57 79.1468 144.57C77.8068 144.57 76.5868 144.38 75.4868 144C74.3868 143.62 73.4368 143.03 72.6368 142.23C71.8568 141.43 71.2468 140.41 70.8068 139.17C70.3868 137.91 70.1768 136.41 70.1768 134.67C70.1768 131.87 70.7368 129.49 71.8568 127.53C72.9768 125.55 74.5968 124.11 76.7168 123.21C76.9768 123.09 77.1868 123.01 77.3468 122.97C77.5068 122.91 77.6768 122.86 77.8568 122.82C78.0568 122.76 78.2968 122.69 78.5768 122.61C78.8768 122.51 79.3068 122.37 79.8668 122.19C80.7468 121.91 81.4868 121.66 82.0868 121.44C82.6868 121.22 83.1968 121 83.6168 120.78C84.0368 120.54 84.3868 120.29 84.6668 120.03C84.9468 119.77 85.2168 119.46 85.4768 119.1V124.44ZM113.053 128.61V144H107.623V128.61H113.053ZM96.5527 140.1H98.6527C99.7327 140.1 100.273 139.59 100.273 138.57C100.273 137.59 99.7327 137.1 98.6527 137.1H96.5527V140.1ZM96.5527 128.61V133.17H99.7327C101.573 133.17 102.973 133.6 103.933 134.46C104.893 135.3 105.373 136.53 105.373 138.15C105.373 139.03 105.243 139.83 104.983 140.55C104.723 141.25 104.333 141.86 103.813 142.38C103.313 142.9 102.693 143.3 101.953 143.58C101.213 143.86 100.353 144 99.3727 144H91.1227V128.61H96.5527ZM115.439 139.53C115.499 139.55 115.589 139.56 115.709 139.56C115.969 139.56 116.199 139.54 116.399 139.5C116.599 139.46 116.759 139.38 116.879 139.26C116.999 139.12 117.089 138.92 117.149 138.66C117.209 138.4 117.239 138.06 117.239 137.64V128.61H132.239V144H126.809V133.14H122.669V138.24C122.669 139.34 122.499 140.29 122.159 141.09C121.839 141.89 121.389 142.55 120.809 143.07C120.229 143.59 119.519 143.97 118.679 144.21C117.859 144.47 116.959 144.6 115.979 144.6H115.439V139.53ZM140.494 136.23C140.494 136.75 140.584 137.23 140.764 137.67C140.964 138.09 141.214 138.46 141.514 138.78C141.834 139.1 142.204 139.35 142.624 139.53C143.064 139.71 143.524 139.8 144.004 139.8C144.484 139.8 144.934 139.71 145.354 139.53C145.794 139.35 146.164 139.1 146.464 138.78C146.784 138.46 147.034 138.09 147.214 137.67C147.414 137.23 147.514 136.76 147.514 136.26C147.514 135.78 147.414 135.33 147.214 134.91C147.034 134.47 146.784 134.09 146.464 133.77C146.164 133.45 145.794 133.2 145.354 133.02C144.934 132.84 144.484 132.75 144.004 132.75C143.524 132.75 143.064 132.84 142.624 133.02C142.204 133.2 141.834 133.45 141.514 133.77C141.214 134.09 140.964 134.46 140.764 134.88C140.584 135.3 140.494 135.75 140.494 136.23ZM134.764 136.17C134.764 135.03 134.994 133.97 135.454 132.99C135.914 131.99 136.554 131.13 137.374 130.41C138.194 129.67 139.164 129.09 140.284 128.67C141.424 128.25 142.664 128.04 144.004 128.04C145.324 128.04 146.544 128.25 147.664 128.67C148.804 129.07 149.784 129.64 150.604 130.38C151.444 131.1 152.094 131.97 152.554 132.99C153.014 133.99 153.244 135.1 153.244 136.32C153.244 137.54 153.004 138.66 152.524 139.68C152.064 140.68 151.424 141.55 150.604 142.29C149.784 143.01 148.794 143.57 147.634 143.97C146.494 144.37 145.254 144.57 143.914 144.57C142.594 144.57 141.374 144.37 140.254 143.97C139.134 143.57 138.164 143 137.344 142.26C136.544 141.52 135.914 140.64 135.454 139.62C134.994 138.58 134.764 137.43 134.764 136.17ZM170.405 136.26C170.405 136.76 170.495 137.23 170.675 137.67C170.855 138.09 171.095 138.46 171.395 138.78C171.715 139.1 172.085 139.35 172.505 139.53C172.945 139.71 173.415 139.8 173.915 139.8C174.395 139.8 174.845 139.71 175.265 139.53C175.705 139.35 176.075 139.1 176.375 138.78C176.695 138.46 176.945 138.09 177.125 137.67C177.325 137.25 177.425 136.8 177.425 136.32C177.425 135.84 177.325 135.39 177.125 134.97C176.945 134.53 176.695 134.15 176.375 133.83C176.075 133.51 175.705 133.26 175.265 133.08C174.845 132.9 174.395 132.81 173.915 132.81C173.415 132.81 172.945 132.9 172.505 133.08C172.085 133.26 171.715 133.51 171.395 133.83C171.095 134.15 170.855 134.52 170.675 134.94C170.495 135.34 170.405 135.78 170.405 136.26ZM177.245 128.61H182.705V144H177.245V142.29C176.085 143.75 174.515 144.48 172.535 144.48C171.415 144.48 170.385 144.28 169.445 143.88C168.505 143.46 167.685 142.88 166.985 142.14C166.285 141.4 165.735 140.53 165.335 139.53C164.955 138.53 164.765 137.44 164.765 136.26C164.765 135.16 164.955 134.12 165.335 133.14C165.715 132.14 166.245 131.27 166.925 130.53C167.605 129.79 168.415 129.21 169.355 128.79C170.295 128.35 171.335 128.13 172.475 128.13C174.395 128.13 175.985 128.8 177.245 130.14V128.61ZM185.08 139.53C185.14 139.55 185.23 139.56 185.35 139.56C185.61 139.56 185.84 139.54 186.04 139.5C186.24 139.46 186.4 139.38 186.52 139.26C186.64 139.12 186.73 138.92 186.79 138.66C186.85 138.4 186.88 138.06 186.88 137.64V128.61H201.88V144H196.45V133.14H192.31V138.24C192.31 139.34 192.14 140.29 191.8 141.09C191.48 141.89 191.03 142.55 190.45 143.07C189.87 143.59 189.16 143.97 188.32 144.21C187.5 144.47 186.6 144.6 185.62 144.6H185.08V139.53ZM216.255 134.07C216.075 133.31 215.705 132.7 215.145 132.24C214.585 131.78 213.905 131.55 213.105 131.55C212.265 131.55 211.575 131.77 211.035 132.21C210.515 132.65 210.185 133.27 210.045 134.07H216.255ZM209.895 137.22C209.895 139.56 210.995 140.73 213.195 140.73C214.375 140.73 215.265 140.25 215.865 139.29H221.115C220.055 142.81 217.405 144.57 213.165 144.57C211.865 144.57 210.675 144.38 209.595 144C208.515 143.6 207.585 143.04 206.805 142.32C206.045 141.6 205.455 140.74 205.035 139.74C204.615 138.74 204.405 137.62 204.405 136.38C204.405 135.1 204.605 133.95 205.005 132.93C205.405 131.89 205.975 131.01 206.715 130.29C207.455 129.57 208.345 129.02 209.385 128.64C210.445 128.24 211.635 128.04 212.955 128.04C214.255 128.04 215.425 128.24 216.465 128.64C217.505 129.02 218.385 129.58 219.105 130.32C219.825 131.06 220.375 131.97 220.755 133.05C221.135 134.11 221.325 135.31 221.325 136.65V137.22H209.895ZM221.968 133.71H230.578V138.24H221.968V133.71ZM236.972 136.23C236.972 136.75 237.062 137.23 237.242 137.67C237.442 138.09 237.692 138.46 237.992 138.78C238.312 139.1 238.682 139.35 239.102 139.53C239.542 139.71 240.002 139.8 240.482 139.8C240.962 139.8 241.412 139.71 241.832 139.53C242.272 139.35 242.642 139.1 242.942 138.78C243.262 138.46 243.512 138.09 243.692 137.67C243.892 137.23 243.992 136.76 243.992 136.26C243.992 135.78 243.892 135.33 243.692 134.91C243.512 134.47 243.262 134.09 242.942 133.77C242.642 133.45 242.272 133.2 241.832 133.02C241.412 132.84 240.962 132.75 240.482 132.75C240.002 132.75 239.542 132.84 239.102 133.02C238.682 133.2 238.312 133.45 237.992 133.77C237.692 134.09 237.442 134.46 237.242 134.88C237.062 135.3 236.972 135.75 236.972 136.23ZM231.242 136.17C231.242 135.03 231.472 133.97 231.932 132.99C232.392 131.99 233.032 131.13 233.852 130.41C234.672 129.67 235.642 129.09 236.762 128.67C237.902 128.25 239.142 128.04 240.482 128.04C241.802 128.04 243.022 128.25 244.142 128.67C245.282 129.07 246.262 129.64 247.082 130.38C247.922 131.1 248.572 131.97 249.032 132.99C249.492 133.99 249.722 135.1 249.722 136.32C249.722 137.54 249.482 138.66 249.002 139.68C248.542 140.68 247.902 141.55 247.082 142.29C246.262 143.01 245.272 143.57 244.112 143.97C242.972 144.37 241.732 144.57 240.392 144.57C239.072 144.57 237.852 144.37 236.732 143.97C235.612 143.57 234.642 143 233.822 142.26C233.022 141.52 232.392 140.64 231.932 139.62C231.472 138.58 231.242 137.43 231.242 136.17ZM268.627 144H263.197V133.14H257.677V144H252.247V128.61H268.627V144Z" fill="white"/>
<path d="M166.4 188.18C165.548 188.18 164.786 188.006 164.114 187.658C163.454 187.31 162.932 186.77 162.548 186.038C162.176 185.306 161.99 184.37 161.99 183.23C161.99 182.042 162.188 181.076 162.584 180.332C162.98 179.588 163.514 179.042 164.186 178.694C164.87 178.346 165.644 178.172 166.508 178.172C167 178.172 167.474 178.226 167.93 178.334C168.386 178.43 168.758 178.55 169.046 178.694L168.56 180.008C168.272 179.9 167.936 179.798 167.552 179.702C167.168 179.606 166.808 179.558 166.472 179.558C164.576 179.558 163.628 180.776 163.628 183.212C163.628 184.376 163.856 185.27 164.312 185.894C164.78 186.506 165.47 186.812 166.382 186.812C166.91 186.812 167.372 186.758 167.768 186.65C168.176 186.542 168.548 186.41 168.884 186.254V187.658C168.56 187.826 168.2 187.952 167.804 188.036C167.42 188.132 166.952 188.18 166.4 188.18ZM179.206 183.158C179.206 184.754 178.798 185.99 177.982 186.866C177.178 187.742 176.086 188.18 174.706 188.18C173.854 188.18 173.092 187.988 172.42 187.604C171.76 187.208 171.238 186.638 170.854 185.894C170.47 185.138 170.278 184.226 170.278 183.158C170.278 181.562 170.68 180.332 171.484 179.468C172.288 178.604 173.38 178.172 174.76 178.172C175.636 178.172 176.404 178.37 177.064 178.766C177.736 179.15 178.258 179.714 178.63 180.458C179.014 181.19 179.206 182.09 179.206 183.158ZM171.916 183.158C171.916 184.298 172.138 185.204 172.582 185.876C173.038 186.536 173.758 186.866 174.742 186.866C175.714 186.866 176.428 186.536 176.884 185.876C177.34 185.204 177.568 184.298 177.568 183.158C177.568 182.018 177.34 181.124 176.884 180.476C176.428 179.828 175.708 179.504 174.724 179.504C173.74 179.504 173.026 179.828 172.582 180.476C172.138 181.124 171.916 182.018 171.916 183.158ZM188.701 188H187.099V179.666H184.255C184.099 181.694 183.883 183.332 183.607 184.58C183.331 185.816 182.965 186.716 182.509 187.28C182.053 187.844 181.477 188.126 180.781 188.126C180.625 188.126 180.469 188.114 180.313 188.09C180.169 188.078 180.049 188.048 179.953 188V186.812C180.025 186.836 180.103 186.854 180.187 186.866C180.271 186.878 180.355 186.884 180.439 186.884C181.087 186.884 181.603 186.194 181.987 184.814C182.383 183.434 182.683 181.28 182.887 178.352H188.701V188ZM195.057 178.19C196.233 178.19 197.103 178.448 197.667 178.964C198.231 179.48 198.513 180.302 198.513 181.43V188H197.361L197.055 186.632H196.983C196.563 187.16 196.119 187.55 195.651 187.802C195.195 188.054 194.559 188.18 193.743 188.18C192.867 188.18 192.141 187.952 191.565 187.496C190.989 187.028 190.701 186.302 190.701 185.318C190.701 184.358 191.079 183.62 191.835 183.104C192.591 182.576 193.755 182.288 195.327 182.24L196.965 182.186V181.61C196.965 180.806 196.791 180.248 196.443 179.936C196.095 179.624 195.603 179.468 194.967 179.468C194.463 179.468 193.983 179.546 193.527 179.702C193.071 179.846 192.645 180.014 192.249 180.206L191.763 179.018C192.183 178.79 192.681 178.598 193.257 178.442C193.833 178.274 194.433 178.19 195.057 178.19ZM195.525 183.338C194.325 183.386 193.491 183.578 193.023 183.914C192.567 184.25 192.339 184.724 192.339 185.336C192.339 185.876 192.501 186.272 192.825 186.524C193.161 186.776 193.587 186.902 194.103 186.902C194.919 186.902 195.597 186.68 196.137 186.236C196.677 185.78 196.947 185.084 196.947 184.148V183.284L195.525 183.338ZM208.297 178.352V186.668H209.701V191.348H208.171V188H201.457V191.348H199.945V186.668H200.719C201.547 185.528 202.165 184.232 202.573 182.78C202.993 181.316 203.209 179.84 203.221 178.352H208.297ZM204.625 179.594C204.577 180.41 204.451 181.256 204.247 182.132C204.043 182.996 203.779 183.824 203.455 184.616C203.143 185.408 202.777 186.092 202.357 186.668H206.767V179.594H204.625ZM214.886 178.19C216.062 178.19 216.932 178.448 217.496 178.964C218.06 179.48 218.342 180.302 218.342 181.43V188H217.19L216.884 186.632H216.812C216.392 187.16 215.948 187.55 215.48 187.802C215.024 188.054 214.388 188.18 213.572 188.18C212.696 188.18 211.97 187.952 211.394 187.496C210.818 187.028 210.53 186.302 210.53 185.318C210.53 184.358 210.908 183.62 211.664 183.104C212.42 182.576 213.584 182.288 215.156 182.24L216.794 182.186V181.61C216.794 180.806 216.62 180.248 216.272 179.936C215.924 179.624 215.432 179.468 214.796 179.468C214.292 179.468 213.812 179.546 213.356 179.702C212.9 179.846 212.474 180.014 212.078 180.206L211.592 179.018C212.012 178.79 212.51 178.598 213.086 178.442C213.662 178.274 214.262 178.19 214.886 178.19ZM215.354 183.338C214.154 183.386 213.32 183.578 212.852 183.914C212.396 184.25 212.168 184.724 212.168 185.336C212.168 185.876 212.33 186.272 212.654 186.524C212.99 186.776 213.416 186.902 213.932 186.902C214.748 186.902 215.426 186.68 215.966 186.236C216.506 185.78 216.776 185.084 216.776 184.148V183.284L215.354 183.338ZM227.622 179.684H224.472V188H222.906V179.684H219.792V178.352H227.622V179.684ZM242.9 176.346H240.553L241.678 174.43H244.948V188H242.9V176.346ZM251.355 188.466L249.852 187.35L253.095 182.929C252.92 182.952 252.77 182.97 252.647 182.981C252.524 182.993 252.424 182.999 252.348 182.999C251.253 182.999 250.303 182.58 249.501 181.742C248.704 180.91 248.305 179.908 248.305 178.736C248.305 177.488 248.748 176.422 249.632 175.537C250.523 174.646 251.589 174.201 252.832 174.201C254.068 174.201 255.143 174.641 256.057 175.52C256.971 176.393 257.428 177.424 257.428 178.613C257.428 179.668 256.983 180.808 256.092 182.032L251.355 188.466ZM250.3 178.587C250.3 179.319 250.549 179.935 251.047 180.433C251.551 180.937 252.158 181.188 252.867 181.188C253.576 181.188 254.179 180.939 254.677 180.441C255.181 179.938 255.433 179.331 255.433 178.622C255.433 177.913 255.181 177.307 254.677 176.803C254.179 176.305 253.573 176.056 252.858 176.056C252.155 176.056 251.554 176.305 251.056 176.803C250.552 177.307 250.3 177.901 250.3 178.587ZM262.104 188.466L260.602 187.35L263.845 182.929C263.669 182.952 263.519 182.97 263.396 182.981C263.273 182.993 263.174 182.999 263.098 182.999C262.002 182.999 261.053 182.58 260.25 181.742C259.453 180.91 259.055 179.908 259.055 178.736C259.055 177.488 259.497 176.422 260.382 175.537C261.272 174.646 262.339 174.201 263.581 174.201C264.817 174.201 265.893 174.641 266.807 175.52C267.721 176.393 268.178 177.424 268.178 178.613C268.178 179.668 267.732 180.808 266.842 182.032L262.104 188.466ZM261.05 178.587C261.05 179.319 261.299 179.935 261.797 180.433C262.301 180.937 262.907 181.188 263.616 181.188C264.325 181.188 264.929 180.939 265.427 180.441C265.931 179.938 266.183 179.331 266.183 178.622C266.183 177.913 265.931 177.307 265.427 176.803C264.929 176.305 264.322 176.056 263.607 176.056C262.904 176.056 262.304 176.305 261.806 176.803C261.302 177.307 261.05 177.901 261.05 178.587ZM273.32 186.075H278.373V188H269.259L273.97 182.296C274.433 181.728 274.82 181.235 275.13 180.819C275.447 180.403 275.687 180.055 275.851 179.773C276.185 179.223 276.352 178.728 276.352 178.288C276.352 177.655 276.129 177.125 275.684 176.697C275.239 176.27 274.688 176.056 274.032 176.056C272.66 176.056 271.875 176.867 271.676 178.49H269.637C269.965 175.631 271.409 174.201 273.97 174.201C275.206 174.201 276.243 174.594 277.081 175.379C277.925 176.164 278.347 177.137 278.347 178.297C278.347 179.035 278.151 179.759 277.758 180.468C277.559 180.837 277.266 181.276 276.879 181.786C276.498 182.29 276.015 182.888 275.429 183.579L273.32 186.075Z" fill="white"/>
<defs>
<filter id="filter0_b" x="-100" y="-100" width="505" height="435.962" filterUnits="userSpaceOnUse" color-interpolation-filters="sRGB">
<feFlood flood-opacity="0" result="BackgroundImageFix"/>
<feGaussianBlur in="BackgroundImage" stdDeviation="50"/>
<feComposite in2="SourceAlpha" operator="in" result="effect1_backgroundBlur"/>
<feBlend mode="normal" in="SourceGraphic" in2="effect1_backgroundBlur" result="shape"/>
</filter>
</defs>
</svg>
