<svg width="305" height="236" viewBox="0 0 305 236" fill="none" xmlns="http://www.w3.org/2000/svg">
<g filter="url(#filter0_b)">
<mask id="path-1-inside-1" fill="white">
<path fill-rule="evenodd" clip-rule="evenodd" d="M305 50C305 22.3858 282.614 0 255 0H50C22.3858 0 0 22.3857 0 50V160.433C0 188.047 22.3857 210.433 50 210.433H199.843C208.268 210.433 215.882 215.454 219.201 223.198V223.198C226.495 240.217 250.623 240.217 257.917 223.198V223.198C261.236 215.454 268.851 210.433 277.276 210.433H279.923C293.773 210.433 305 199.206 305 185.356V50Z"/>
</mask>
<path fill-rule="evenodd" clip-rule="evenodd" d="M305 50C305 22.3858 282.614 0 255 0H50C22.3858 0 0 22.3857 0 50V160.433C0 188.047 22.3857 210.433 50 210.433H199.843C208.268 210.433 215.882 215.454 219.201 223.198V223.198C226.495 240.217 250.623 240.217 257.917 223.198V223.198C261.236 215.454 268.851 210.433 277.276 210.433H279.923C293.773 210.433 305 199.206 305 185.356V50Z" fill="#A7C5FF"/>
<path d="M50 5H255V-5H50V5ZM5 160.433V50H-5V160.433H5ZM199.843 205.433H50V215.433H199.843V205.433ZM279.923 205.433H277.276V215.433H279.923V205.433ZM300 50V185.356H310V50H300ZM279.923 215.433C296.534 215.433 310 201.967 310 185.356H300C300 196.444 291.011 205.433 279.923 205.433V215.433ZM262.513 225.167C265.044 219.262 270.851 215.433 277.276 215.433V205.433C266.85 205.433 257.428 211.646 253.322 221.228L262.513 225.167ZM214.605 225.167C223.631 246.227 253.487 246.227 262.513 225.167L253.322 221.228C247.759 234.207 229.359 234.207 223.797 221.228L214.605 225.167ZM199.843 215.433C206.268 215.433 212.074 219.262 214.605 225.167L223.797 221.228C219.69 211.646 210.268 205.433 199.843 205.433V215.433ZM-5 160.433C-5 190.809 19.6243 215.433 50 215.433V205.433C25.1472 205.433 5 185.286 5 160.433H-5ZM255 5C279.853 5 300 25.1472 300 50H310C310 19.6243 285.376 -5 255 -5V5ZM50 -5C19.6243 -5 -5 19.6243 -5 50H5C5 25.1472 25.1472 5 50 5V-5Z" fill="white" mask="url(#path-1-inside-1)"/>
</g>
<path d="M32.79 79.61H38.58L32.49 86.99L39.39 95H33.18L28.29 88.85V95H22.86V79.61H28.29V85.79L32.79 79.61ZM45.7277 87.26C45.7277 87.76 45.8177 88.23 45.9977 88.67C46.1777 89.09 46.4177 89.46 46.7177 89.78C47.0377 90.1 47.4077 90.35 47.8277 90.53C48.2677 90.71 48.7377 90.8 49.2377 90.8C49.7177 90.8 50.1677 90.71 50.5877 90.53C51.0277 90.35 51.3977 90.1 51.6977 89.78C52.0177 89.46 52.2677 89.09 52.4477 88.67C52.6477 88.25 52.7477 87.8 52.7477 87.32C52.7477 86.84 52.6477 86.39 52.4477 85.97C52.2677 85.53 52.0177 85.15 51.6977 84.83C51.3977 84.51 51.0277 84.26 50.5877 84.08C50.1677 83.9 49.7177 83.81 49.2377 83.81C48.7377 83.81 48.2677 83.9 47.8277 84.08C47.4077 84.26 47.0377 84.51 46.7177 84.83C46.4177 85.15 46.1777 85.52 45.9977 85.94C45.8177 86.34 45.7277 86.78 45.7277 87.26ZM52.5677 79.61H58.0277V95H52.5677V93.29C51.4077 94.75 49.8377 95.48 47.8577 95.48C46.7377 95.48 45.7077 95.28 44.7677 94.88C43.8277 94.46 43.0077 93.88 42.3077 93.14C41.6077 92.4 41.0577 91.53 40.6577 90.53C40.2777 89.53 40.0877 88.44 40.0877 87.26C40.0877 86.16 40.2777 85.12 40.6577 84.14C41.0377 83.14 41.5677 82.27 42.2477 81.53C42.9277 80.79 43.7377 80.21 44.6777 79.79C45.6177 79.35 46.6577 79.13 47.7977 79.13C49.7177 79.13 51.3077 79.8 52.5677 81.14V79.61ZM81.4329 79.61H87.2529L80.8329 86.99L88.0329 95H81.8829L76.5129 88.76V95H71.0829V88.76L65.6529 95H59.5029L66.7329 86.99L60.3129 79.61H66.1329L71.0829 85.91V79.61H76.5129V85.91L81.4329 79.61ZM100.777 85.07C100.597 84.31 100.227 83.7 99.6668 83.24C99.1068 82.78 98.4268 82.55 97.6268 82.55C96.7868 82.55 96.0968 82.77 95.5568 83.21C95.0368 83.65 94.7068 84.27 94.5668 85.07H100.777ZM94.4168 88.22C94.4168 90.56 95.5168 91.73 97.7168 91.73C98.8968 91.73 99.7868 91.25 100.387 90.29H105.637C104.577 93.81 101.927 95.57 97.6868 95.57C96.3868 95.57 95.1968 95.38 94.1168 95C93.0368 94.6 92.1068 94.04 91.3268 93.32C90.5668 92.6 89.9768 91.74 89.5568 90.74C89.1368 89.74 88.9268 88.62 88.9268 87.38C88.9268 86.1 89.1268 84.95 89.5268 83.93C89.9268 82.89 90.4968 82.01 91.2368 81.29C91.9768 80.57 92.8668 80.02 93.9068 79.64C94.9668 79.24 96.1568 79.04 97.4768 79.04C98.7768 79.04 99.9468 79.24 100.987 79.64C102.027 80.02 102.907 80.58 103.627 81.32C104.347 82.06 104.897 82.97 105.277 84.05C105.657 85.11 105.847 86.31 105.847 87.65V88.22H94.4168ZM119.721 84.14H116.121V95H110.691V84.14H107.091V79.61H119.721V84.14ZM133.159 84.59C132.219 83.95 131.269 83.63 130.309 83.63C129.789 83.63 129.299 83.72 128.839 83.9C128.399 84.08 128.009 84.34 127.669 84.68C127.329 85 127.059 85.39 126.859 85.85C126.679 86.29 126.589 86.79 126.589 87.35C126.589 87.89 126.679 88.39 126.859 88.85C127.059 89.29 127.319 89.68 127.639 90.02C127.979 90.34 128.379 90.59 128.839 90.77C129.299 90.95 129.789 91.04 130.309 91.04C131.329 91.04 132.279 90.69 133.159 89.99V94.61C131.819 95.19 130.549 95.48 129.349 95.48C128.229 95.48 127.159 95.29 126.139 94.91C125.139 94.53 124.249 93.99 123.469 93.29C122.709 92.57 122.099 91.72 121.639 90.74C121.179 89.74 120.949 88.63 120.949 87.41C120.949 86.19 121.169 85.08 121.609 84.08C122.049 83.06 122.649 82.19 123.409 81.47C124.169 80.73 125.069 80.16 126.109 79.76C127.169 79.34 128.299 79.13 129.499 79.13C130.819 79.13 132.039 79.41 133.159 79.97V84.59ZM144.236 83.57H142.556C142.036 83.57 141.626 83.72 141.326 84.02C141.026 84.3 140.876 84.69 140.876 85.19C140.876 85.71 141.026 86.12 141.326 86.42C141.626 86.7 142.036 86.84 142.556 86.84H144.236V83.57ZM138.626 89.78C137.746 89.5 137.066 88.95 136.586 88.13C136.106 87.31 135.866 86.3 135.866 85.1C135.866 84.34 135.986 83.63 136.226 82.97C136.486 82.29 136.866 81.71 137.366 81.23C137.866 80.73 138.486 80.34 139.226 80.06C139.966 79.76 140.826 79.61 141.806 79.61H149.666V95H144.236V90.2H143.306L140.666 95H134.936L138.626 89.78ZM154.461 89.27H159.561L154.041 99.2H150.561L154.461 89.27ZM181.242 91.34C180.882 91.42 180.512 91.49 180.132 91.55C179.772 91.59 179.382 91.61 178.962 91.61C177.602 91.61 176.432 91.43 175.452 91.07C174.472 90.69 173.672 90.15 173.052 89.45C172.432 88.73 171.972 87.85 171.672 86.81C171.392 85.77 171.252 84.58 171.252 83.24V79.61H176.682V83.42C176.682 84.2 176.742 84.84 176.862 85.34C177.002 85.82 177.192 86.19 177.432 86.45C177.672 86.71 177.952 86.89 178.272 86.99C178.592 87.07 178.942 87.11 179.322 87.11C180.102 87.11 180.742 86.86 181.242 86.36V79.61H186.672V95H181.242V91.34ZM201.169 84.14H197.569V95H192.139V84.14H188.539V79.61H201.169V84.14ZM208.128 87.23C208.128 87.75 208.218 88.23 208.398 88.67C208.598 89.09 208.848 89.46 209.148 89.78C209.468 90.1 209.838 90.35 210.258 90.53C210.698 90.71 211.158 90.8 211.638 90.8C212.118 90.8 212.568 90.71 212.988 90.53C213.428 90.35 213.798 90.1 214.098 89.78C214.418 89.46 214.668 89.09 214.848 88.67C215.048 88.23 215.148 87.76 215.148 87.26C215.148 86.78 215.048 86.33 214.848 85.91C214.668 85.47 214.418 85.09 214.098 84.77C213.798 84.45 213.428 84.2 212.988 84.02C212.568 83.84 212.118 83.75 211.638 83.75C211.158 83.75 210.698 83.84 210.258 84.02C209.838 84.2 209.468 84.45 209.148 84.77C208.848 85.09 208.598 85.46 208.398 85.88C208.218 86.3 208.128 86.75 208.128 87.23ZM202.398 87.17C202.398 86.03 202.628 84.97 203.088 83.99C203.548 82.99 204.188 82.13 205.008 81.41C205.828 80.67 206.798 80.09 207.918 79.67C209.058 79.25 210.298 79.04 211.638 79.04C212.958 79.04 214.178 79.25 215.298 79.67C216.438 80.07 217.418 80.64 218.238 81.38C219.078 82.1 219.728 82.97 220.188 83.99C220.648 84.99 220.878 86.1 220.878 87.32C220.878 88.54 220.638 89.66 220.158 90.68C219.698 91.68 219.058 92.55 218.238 93.29C217.418 94.01 216.428 94.57 215.268 94.97C214.128 95.37 212.888 95.57 211.548 95.57C210.228 95.57 209.008 95.37 207.888 94.97C206.768 94.57 205.798 94 204.978 93.26C204.178 92.52 203.548 91.64 203.088 90.62C202.628 89.58 202.398 88.43 202.398 87.17ZM31.44 108.57H29.76C29.24 108.57 28.83 108.72 28.53 109.02C28.23 109.3 28.08 109.69 28.08 110.19C28.08 110.71 28.23 111.12 28.53 111.42C28.83 111.7 29.24 111.84 29.76 111.84H31.44V108.57ZM25.83 114.78C24.95 114.5 24.27 113.95 23.79 113.13C23.31 112.31 23.07 111.3 23.07 110.1C23.07 109.34 23.19 108.63 23.43 107.97C23.69 107.29 24.07 106.71 24.57 106.23C25.07 105.73 25.69 105.34 26.43 105.06C27.17 104.76 28.03 104.61 29.01 104.61H36.87V120H31.44V115.2H30.51L27.87 120H22.14L25.83 114.78ZM54.7099 112.23C54.7099 112.75 54.7999 113.23 54.9799 113.67C55.1799 114.09 55.4299 114.46 55.7299 114.78C56.0499 115.1 56.4199 115.35 56.8399 115.53C57.2799 115.71 57.7399 115.8 58.2199 115.8C58.6999 115.8 59.1499 115.71 59.5699 115.53C60.0099 115.35 60.3799 115.1 60.6799 114.78C60.9999 114.46 61.2499 114.09 61.4299 113.67C61.6299 113.23 61.7299 112.76 61.7299 112.26C61.7299 111.78 61.6299 111.33 61.4299 110.91C61.2499 110.47 60.9999 110.09 60.6799 109.77C60.3799 109.45 60.0099 109.2 59.5699 109.02C59.1499 108.84 58.6999 108.75 58.2199 108.75C57.7399 108.75 57.2799 108.84 56.8399 109.02C56.4199 109.2 56.0499 109.45 55.7299 109.77C55.4299 110.09 55.1799 110.46 54.9799 110.88C54.7999 111.3 54.7099 111.75 54.7099 112.23ZM48.9799 112.17C48.9799 111.03 49.2099 109.97 49.6699 108.99C50.1299 107.99 50.7699 107.13 51.5899 106.41C52.4099 105.67 53.3799 105.09 54.4999 104.67C55.6399 104.25 56.8799 104.04 58.2199 104.04C59.5399 104.04 60.7599 104.25 61.8799 104.67C63.0199 105.07 63.9999 105.64 64.8199 106.38C65.6599 107.1 66.3099 107.97 66.7699 108.99C67.2299 109.99 67.4599 111.1 67.4599 112.32C67.4599 113.54 67.2199 114.66 66.7399 115.68C66.2799 116.68 65.6399 117.55 64.8199 118.29C63.9999 119.01 63.0099 119.57 61.8499 119.97C60.7099 120.37 59.4699 120.57 58.1299 120.57C56.8099 120.57 55.5899 120.37 54.4699 119.97C53.3499 119.57 52.3799 119 51.5599 118.26C50.7599 117.52 50.1299 116.64 49.6699 115.62C49.2099 114.58 48.9799 113.43 48.9799 112.17ZM81.5958 109.59C80.6558 108.95 79.7058 108.63 78.7458 108.63C78.2258 108.63 77.7358 108.72 77.2758 108.9C76.8358 109.08 76.4458 109.34 76.1058 109.68C75.7658 110 75.4958 110.39 75.2958 110.85C75.1158 111.29 75.0258 111.79 75.0258 112.35C75.0258 112.89 75.1158 113.39 75.2958 113.85C75.4958 114.29 75.7558 114.68 76.0758 115.02C76.4158 115.34 76.8158 115.59 77.2758 115.77C77.7358 115.95 78.2258 116.04 78.7458 116.04C79.7658 116.04 80.7158 115.69 81.5958 114.99V119.61C80.2558 120.19 78.9858 120.48 77.7858 120.48C76.6658 120.48 75.5958 120.29 74.5758 119.91C73.5758 119.53 72.6858 118.99 71.9058 118.29C71.1458 117.57 70.5358 116.72 70.0758 115.74C69.6158 114.74 69.3858 113.63 69.3858 112.41C69.3858 111.19 69.6058 110.08 70.0458 109.08C70.4858 108.06 71.0858 107.19 71.8458 106.47C72.6058 105.73 73.5058 105.16 74.5458 104.76C75.6058 104.34 76.7358 104.13 77.9358 104.13C79.2558 104.13 80.4758 104.41 81.5958 104.97V109.59ZM95.4628 109.14H91.8628V120H86.4328V109.14H82.8328V104.61H95.4628V109.14ZM102.654 112.26C102.654 112.76 102.744 113.23 102.924 113.67C103.104 114.09 103.344 114.46 103.644 114.78C103.964 115.1 104.334 115.35 104.754 115.53C105.194 115.71 105.664 115.8 106.164 115.8C106.644 115.8 107.094 115.71 107.514 115.53C107.954 115.35 108.324 115.1 108.624 114.78C108.944 114.46 109.194 114.09 109.374 113.67C109.574 113.25 109.674 112.8 109.674 112.32C109.674 111.84 109.574 111.39 109.374 110.97C109.194 110.53 108.944 110.15 108.624 109.83C108.324 109.51 107.954 109.26 107.514 109.08C107.094 108.9 106.644 108.81 106.164 108.81C105.664 108.81 105.194 108.9 104.754 109.08C104.334 109.26 103.964 109.51 103.644 109.83C103.344 110.15 103.104 110.52 102.924 110.94C102.744 111.34 102.654 111.78 102.654 112.26ZM109.494 104.61H114.954V120H109.494V118.29C108.334 119.75 106.764 120.48 104.784 120.48C103.664 120.48 102.634 120.28 101.694 119.88C100.754 119.46 99.9339 118.88 99.2339 118.14C98.5339 117.4 97.9839 116.53 97.5839 115.53C97.2039 114.53 97.0139 113.44 97.0139 112.26C97.0139 111.16 97.2039 110.12 97.5839 109.14C97.9639 108.14 98.4939 107.27 99.1739 106.53C99.8539 105.79 100.664 105.21 101.604 104.79C102.544 104.35 103.584 104.13 104.724 104.13C106.644 104.13 108.234 104.8 109.494 106.14V104.61ZM131.459 112.23C131.459 112.75 131.549 113.23 131.729 113.67C131.929 114.09 132.179 114.46 132.479 114.78C132.799 115.1 133.169 115.35 133.589 115.53C134.029 115.71 134.489 115.8 134.969 115.8C135.449 115.8 135.899 115.71 136.319 115.53C136.759 115.35 137.139 115.1 137.459 114.78C137.779 114.46 138.029 114.09 138.209 113.67C138.389 113.23 138.479 112.76 138.479 112.26C138.479 111.78 138.379 111.33 138.179 110.91C137.999 110.47 137.749 110.09 137.429 109.77C137.129 109.45 136.759 109.2 136.319 109.02C135.899 108.84 135.449 108.75 134.969 108.75C134.489 108.75 134.029 108.84 133.589 109.02C133.169 109.2 132.799 109.45 132.479 109.77C132.179 110.09 131.929 110.46 131.729 110.88C131.549 111.3 131.459 111.75 131.459 112.23ZM123.479 120H118.049V104.61H123.479V109.92H126.029C126.289 109.04 126.699 108.24 127.259 107.52C127.819 106.78 128.489 106.16 129.269 105.66C130.049 105.14 130.919 104.74 131.879 104.46C132.859 104.18 133.889 104.04 134.969 104.04C136.309 104.04 137.549 104.25 138.689 104.67C139.829 105.09 140.809 105.67 141.629 106.41C142.449 107.15 143.089 108.03 143.549 109.05C144.009 110.05 144.239 111.14 144.239 112.32C144.239 113.54 143.999 114.66 143.519 115.68C143.059 116.68 142.419 117.55 141.599 118.29C140.779 119.01 139.789 119.57 138.629 119.97C137.489 120.37 136.249 120.57 134.909 120.57C133.789 120.57 132.729 120.42 131.729 120.12C130.749 119.84 129.869 119.43 129.089 118.89C128.309 118.35 127.649 117.7 127.109 116.94C126.569 116.18 126.189 115.33 125.969 114.39H123.479V120ZM158.327 109.59C157.387 108.95 156.437 108.63 155.477 108.63C154.957 108.63 154.467 108.72 154.007 108.9C153.567 109.08 153.177 109.34 152.837 109.68C152.497 110 152.227 110.39 152.027 110.85C151.847 111.29 151.757 111.79 151.757 112.35C151.757 112.89 151.847 113.39 152.027 113.85C152.227 114.29 152.487 114.68 152.807 115.02C153.147 115.34 153.547 115.59 154.007 115.77C154.467 115.95 154.957 116.04 155.477 116.04C156.497 116.04 157.447 115.69 158.327 114.99V119.61C156.987 120.19 155.717 120.48 154.517 120.48C153.397 120.48 152.327 120.29 151.307 119.91C150.307 119.53 149.417 118.99 148.637 118.29C147.877 117.57 147.267 116.72 146.807 115.74C146.347 114.74 146.117 113.63 146.117 112.41C146.117 111.19 146.337 110.08 146.777 109.08C147.217 108.06 147.817 107.19 148.577 106.47C149.337 105.73 150.237 105.16 151.277 104.76C152.337 104.34 153.467 104.13 154.667 104.13C155.987 104.13 157.207 104.41 158.327 104.97V109.59ZM166.284 116.1H168.384C169.464 116.1 170.004 115.59 170.004 114.57C170.004 113.59 169.464 113.1 168.384 113.1H166.284V116.1ZM166.284 104.61V109.17H169.464C171.304 109.17 172.704 109.6 173.664 110.46C174.624 111.3 175.104 112.53 175.104 114.15C175.104 115.03 174.974 115.83 174.714 116.55C174.454 117.25 174.064 117.86 173.544 118.38C173.044 118.9 172.424 119.3 171.684 119.58C170.944 119.86 170.084 120 169.104 120H160.854V104.61H166.284ZM186.629 104.4C187.129 104.3 187.619 104.22 188.099 104.16C188.599 104.08 189.129 104.04 189.689 104.04C190.669 104.04 191.579 104.15 192.419 104.37C193.259 104.59 193.979 104.9 194.579 105.3C195.199 105.7 195.679 106.17 196.019 106.71C196.359 107.25 196.529 107.83 196.529 108.45C196.529 109.13 196.319 109.75 195.899 110.31C195.499 110.85 194.849 111.35 193.949 111.81C195.029 112.15 195.809 112.62 196.289 113.22C196.789 113.8 197.039 114.54 197.039 115.44C197.039 116.18 196.859 116.87 196.499 117.51C196.159 118.13 195.659 118.67 194.999 119.13C194.359 119.57 193.589 119.92 192.689 120.18C191.789 120.44 190.799 120.57 189.719 120.57C189.199 120.57 188.669 120.54 188.129 120.48C187.589 120.42 187.089 120.32 186.629 120.18V115.8C186.909 115.9 187.229 115.98 187.589 116.04C187.969 116.08 188.329 116.1 188.669 116.1C189.389 116.1 189.999 116 190.499 115.8C191.019 115.58 191.279 115.32 191.279 115.02C191.279 114.68 190.989 114.39 190.409 114.15C189.829 113.89 189.069 113.76 188.129 113.76H187.889V110.58C188.969 110.56 189.749 110.46 190.229 110.28C190.729 110.1 190.979 109.84 190.979 109.5C190.979 109.18 190.809 108.94 190.469 108.78C190.129 108.62 189.669 108.54 189.089 108.54C188.669 108.54 188.239 108.58 187.799 108.66C187.359 108.72 186.969 108.8 186.629 108.9V104.4ZM211.001 109.14H206.891V113.76C206.891 114.16 206.881 114.48 206.861 114.72C206.841 114.96 206.811 115.21 206.771 115.47H211.001V109.14ZM200.021 115.47C200.561 115.47 200.931 115.29 201.131 114.93C201.331 114.57 201.431 114.01 201.431 113.25V104.61H216.431V115.47H218.261V123.15H212.831V120H204.701V123.15H199.271V115.47H200.021ZM232.017 110.07C231.837 109.31 231.467 108.7 230.907 108.24C230.347 107.78 229.667 107.55 228.867 107.55C228.027 107.55 227.337 107.77 226.797 108.21C226.277 108.65 225.947 109.27 225.807 110.07H232.017ZM225.657 113.22C225.657 115.56 226.757 116.73 228.957 116.73C230.137 116.73 231.027 116.25 231.627 115.29H236.877C235.817 118.81 233.167 120.57 228.927 120.57C227.627 120.57 226.437 120.38 225.357 120C224.277 119.6 223.347 119.04 222.567 118.32C221.807 117.6 221.217 116.74 220.797 115.74C220.377 114.74 220.167 113.62 220.167 112.38C220.167 111.1 220.367 109.95 220.767 108.93C221.167 107.89 221.737 107.01 222.477 106.29C223.217 105.57 224.107 105.02 225.147 104.64C226.207 104.24 227.397 104.04 228.717 104.04C230.017 104.04 231.187 104.24 232.227 104.64C233.267 105.02 234.147 105.58 234.867 106.32C235.587 107.06 236.137 107.97 236.517 109.05C236.897 110.11 237.087 111.31 237.087 112.65V113.22H225.657ZM251.201 109.59C250.261 108.95 249.311 108.63 248.351 108.63C247.831 108.63 247.341 108.72 246.881 108.9C246.441 109.08 246.051 109.34 245.711 109.68C245.371 110 245.101 110.39 244.901 110.85C244.721 111.29 244.631 111.79 244.631 112.35C244.631 112.89 244.721 113.39 244.901 113.85C245.101 114.29 245.361 114.68 245.681 115.02C246.021 115.34 246.421 115.59 246.881 115.77C247.341 115.95 247.831 116.04 248.351 116.04C249.371 116.04 250.321 115.69 251.201 114.99V119.61C249.861 120.19 248.591 120.48 247.391 120.48C246.271 120.48 245.201 120.29 244.181 119.91C243.181 119.53 242.291 118.99 241.511 118.29C240.751 117.57 240.141 116.72 239.681 115.74C239.221 114.74 238.991 113.63 238.991 112.41C238.991 111.19 239.211 110.08 239.651 109.08C240.091 108.06 240.691 107.19 241.451 106.47C242.211 105.73 243.111 105.16 244.151 104.76C245.211 104.34 246.341 104.13 247.541 104.13C248.861 104.13 250.081 104.41 251.201 104.97V109.59ZM259.158 116.1H261.258C262.338 116.1 262.878 115.59 262.878 114.57C262.878 113.59 262.338 113.1 261.258 113.1H259.158V116.1ZM259.158 104.61V109.17H262.338C264.178 109.17 265.578 109.6 266.538 110.46C267.498 111.3 267.978 112.53 267.978 114.15C267.978 115.03 267.848 115.83 267.588 116.55C267.328 117.25 266.938 117.86 266.418 118.38C265.918 118.9 265.298 119.3 264.558 119.58C263.818 119.86 262.958 120 261.978 120H253.728V104.61H259.158ZM43.17 129.61H48.99L42.57 136.99L49.77 145H43.62L38.25 138.76V145H32.82V138.76L27.39 145H21.24L28.47 136.99L22.05 129.61H27.87L32.82 135.91V129.61H38.25V135.91L43.17 129.61ZM56.6939 129.61V138.22L63.1439 129.61H68.5739V145H63.1439V136.42L56.6639 145H51.2639V129.61H56.6939ZM83.0691 134.14H79.4691V145H74.0391V134.14H70.4391V129.61H83.0691V134.14ZM90.3579 141.1H92.4579C93.5379 141.1 94.0779 140.59 94.0779 139.57C94.0779 138.59 93.5379 138.1 92.4579 138.1H90.3579V141.1ZM90.3579 129.61V134.17H93.5379C95.3779 134.17 96.7779 134.6 97.7379 135.46C98.6979 136.3 99.1779 137.53 99.1779 139.15C99.1779 140.03 99.0479 140.83 98.7879 141.55C98.5279 142.25 98.1379 142.86 97.6179 143.38C97.1179 143.9 96.4979 144.3 95.7579 144.58C95.0179 144.86 94.1579 145 93.1779 145H84.9279V129.61H90.3579ZM121.923 134.92V129.61H127.353V145H121.923V139.39H116.403V145H110.973V129.61H116.403V134.92H121.923ZM135.511 137.26C135.511 137.76 135.601 138.23 135.781 138.67C135.961 139.09 136.201 139.46 136.501 139.78C136.821 140.1 137.191 140.35 137.611 140.53C138.051 140.71 138.521 140.8 139.021 140.8C139.501 140.8 139.951 140.71 140.371 140.53C140.811 140.35 141.181 140.1 141.481 139.78C141.801 139.46 142.051 139.09 142.231 138.67C142.431 138.25 142.531 137.8 142.531 137.32C142.531 136.84 142.431 136.39 142.231 135.97C142.051 135.53 141.801 135.15 141.481 134.83C141.181 134.51 140.811 134.26 140.371 134.08C139.951 133.9 139.501 133.81 139.021 133.81C138.521 133.81 138.051 133.9 137.611 134.08C137.191 134.26 136.821 134.51 136.501 134.83C136.201 135.15 135.961 135.52 135.781 135.94C135.601 136.34 135.511 136.78 135.511 137.26ZM142.351 129.61H147.811V145H142.351V143.29C141.191 144.75 139.621 145.48 137.641 145.48C136.521 145.48 135.491 145.28 134.551 144.88C133.611 144.46 132.791 143.88 132.091 143.14C131.391 142.4 130.841 141.53 130.441 140.53C130.061 139.53 129.871 138.44 129.871 137.26C129.871 136.16 130.061 135.12 130.441 134.14C130.821 133.14 131.351 132.27 132.031 131.53C132.711 130.79 133.521 130.21 134.461 129.79C135.401 129.35 136.441 129.13 137.581 129.13C139.501 129.13 141.091 129.8 142.351 131.14V129.61ZM158.946 141.22C159.366 141.22 159.686 141.1 159.906 140.86C160.126 140.62 160.236 140.3 160.236 139.9C160.236 139.04 159.806 138.61 158.946 138.61H155.976V141.22H158.946ZM158.556 135.55C159.136 135.55 159.426 135.18 159.426 134.44C159.426 133.7 159.136 133.33 158.556 133.33H155.976V135.55H158.556ZM150.906 129.61H159.066C160.586 129.61 161.736 129.96 162.516 130.66C163.316 131.34 163.716 132.33 163.716 133.63C163.716 134.39 163.596 135.01 163.356 135.49C163.116 135.97 162.706 136.38 162.126 136.72C164.226 137.14 165.276 138.41 165.276 140.53C165.276 141.95 164.736 143.05 163.656 143.83C162.596 144.61 161.126 145 159.246 145H150.906V129.61ZM179.025 134.59C178.085 133.95 177.135 133.63 176.175 133.63C175.655 133.63 175.165 133.72 174.705 133.9C174.265 134.08 173.875 134.34 173.535 134.68C173.195 135 172.925 135.39 172.725 135.85C172.545 136.29 172.455 136.79 172.455 137.35C172.455 137.89 172.545 138.39 172.725 138.85C172.925 139.29 173.185 139.68 173.505 140.02C173.845 140.34 174.245 140.59 174.705 140.77C175.165 140.95 175.655 141.04 176.175 141.04C177.195 141.04 178.145 140.69 179.025 139.99V144.61C177.685 145.19 176.415 145.48 175.215 145.48C174.095 145.48 173.025 145.29 172.005 144.91C171.005 144.53 170.115 143.99 169.335 143.29C168.575 142.57 167.965 141.72 167.505 140.74C167.045 139.74 166.815 138.63 166.815 137.41C166.815 136.19 167.035 135.08 167.475 134.08C167.915 133.06 168.515 132.19 169.275 131.47C170.035 130.73 170.935 130.16 171.975 129.76C173.035 129.34 174.165 129.13 175.365 129.13C176.685 129.13 177.905 129.41 179.025 129.97V134.59ZM192.773 135.07C192.593 134.31 192.223 133.7 191.663 133.24C191.103 132.78 190.423 132.55 189.623 132.55C188.783 132.55 188.093 132.77 187.553 133.21C187.033 133.65 186.703 134.27 186.563 135.07H192.773ZM186.413 138.22C186.413 140.56 187.513 141.73 189.713 141.73C190.893 141.73 191.783 141.25 192.383 140.29H197.633C196.573 143.81 193.923 145.57 189.683 145.57C188.383 145.57 187.193 145.38 186.113 145C185.033 144.6 184.103 144.04 183.323 143.32C182.563 142.6 181.973 141.74 181.553 140.74C181.133 139.74 180.923 138.62 180.923 137.38C180.923 136.1 181.123 134.95 181.523 133.93C181.923 132.89 182.493 132.01 183.233 131.29C183.973 130.57 184.863 130.02 185.903 129.64C186.963 129.24 188.153 129.04 189.473 129.04C190.773 129.04 191.943 129.24 192.983 129.64C194.023 130.02 194.903 130.58 195.623 131.32C196.343 132.06 196.893 132.97 197.273 134.05C197.653 135.11 197.843 136.31 197.843 137.65V138.22H186.413ZM200.346 145V129.61H209.976V134.14H205.746V145H200.346ZM223.306 134.14H219.196V138.76C219.196 139.16 219.186 139.48 219.166 139.72C219.146 139.96 219.116 140.21 219.076 140.47H223.306V134.14ZM212.326 140.47C212.866 140.47 213.236 140.29 213.436 139.93C213.636 139.57 213.736 139.01 213.736 138.25V129.61H228.736V140.47H230.566V148.15H225.136V145H217.006V148.15H211.576V140.47H212.326ZM238.112 137.26C238.112 137.76 238.202 138.23 238.382 138.67C238.562 139.09 238.802 139.46 239.102 139.78C239.422 140.1 239.792 140.35 240.212 140.53C240.652 140.71 241.122 140.8 241.622 140.8C242.102 140.8 242.552 140.71 242.972 140.53C243.412 140.35 243.782 140.1 244.082 139.78C244.402 139.46 244.652 139.09 244.832 138.67C245.032 138.25 245.132 137.8 245.132 137.32C245.132 136.84 245.032 136.39 244.832 135.97C244.652 135.53 244.402 135.15 244.082 134.83C243.782 134.51 243.412 134.26 242.972 134.08C242.552 133.9 242.102 133.81 241.622 133.81C241.122 133.81 240.652 133.9 240.212 134.08C239.792 134.26 239.422 134.51 239.102 134.83C238.802 135.15 238.562 135.52 238.382 135.94C238.202 136.34 238.112 136.78 238.112 137.26ZM244.952 129.61H250.412V145H244.952V143.29C243.792 144.75 242.222 145.48 240.242 145.48C239.122 145.48 238.092 145.28 237.152 144.88C236.212 144.46 235.392 143.88 234.692 143.14C233.992 142.4 233.442 141.53 233.042 140.53C232.662 139.53 232.472 138.44 232.472 137.26C232.472 136.16 232.662 135.12 233.042 134.14C233.422 133.14 233.952 132.27 234.632 131.53C235.312 130.79 236.122 130.21 237.062 129.79C238.002 129.35 239.042 129.13 240.182 129.13C242.102 129.13 243.692 129.8 244.952 131.14V129.61Z" fill="white"/>
<path d="M181.4 188.18C180.548 188.18 179.786 188.006 179.114 187.658C178.454 187.31 177.932 186.77 177.548 186.038C177.176 185.306 176.99 184.37 176.99 183.23C176.99 182.042 177.188 181.076 177.584 180.332C177.98 179.588 178.514 179.042 179.186 178.694C179.87 178.346 180.644 178.172 181.508 178.172C182 178.172 182.474 178.226 182.93 178.334C183.386 178.43 183.758 178.55 184.046 178.694L183.56 180.008C183.272 179.9 182.936 179.798 182.552 179.702C182.168 179.606 181.808 179.558 181.472 179.558C179.576 179.558 178.628 180.776 178.628 183.212C178.628 184.376 178.856 185.27 179.312 185.894C179.78 186.506 180.47 186.812 181.382 186.812C181.91 186.812 182.372 186.758 182.768 186.65C183.176 186.542 183.548 186.41 183.884 186.254V187.658C183.56 187.826 183.2 187.952 182.804 188.036C182.42 188.132 181.952 188.18 181.4 188.18ZM189.472 178.19C190.648 178.19 191.518 178.448 192.082 178.964C192.646 179.48 192.928 180.302 192.928 181.43V188H191.776L191.47 186.632H191.398C190.978 187.16 190.534 187.55 190.066 187.802C189.61 188.054 188.974 188.18 188.158 188.18C187.282 188.18 186.556 187.952 185.98 187.496C185.404 187.028 185.116 186.302 185.116 185.318C185.116 184.358 185.494 183.62 186.25 183.104C187.006 182.576 188.17 182.288 189.742 182.24L191.38 182.186V181.61C191.38 180.806 191.206 180.248 190.858 179.936C190.51 179.624 190.018 179.468 189.382 179.468C188.878 179.468 188.398 179.546 187.942 179.702C187.486 179.846 187.06 180.014 186.664 180.206L186.178 179.018C186.598 178.79 187.096 178.598 187.672 178.442C188.248 178.274 188.848 178.19 189.472 178.19ZM189.94 183.338C188.74 183.386 187.906 183.578 187.438 183.914C186.982 184.25 186.754 184.724 186.754 185.336C186.754 185.876 186.916 186.272 187.24 186.524C187.576 186.776 188.002 186.902 188.518 186.902C189.334 186.902 190.012 186.68 190.552 186.236C191.092 185.78 191.362 185.084 191.362 184.148V183.284L189.94 183.338ZM205.898 178.352V188H204.476V181.844C204.476 181.592 204.482 181.328 204.494 181.052C204.518 180.776 204.542 180.506 204.566 180.242H204.512L201.362 188H200.03L196.97 180.242H196.916C196.952 180.782 196.97 181.334 196.97 181.898V188H195.548V178.352H197.654L200.696 186.11L203.792 178.352H205.898ZM214.324 178.352H216.052L211.93 182.996L216.394 188H214.558L210.202 183.104V188H208.618V178.352H210.202V183.032L214.324 178.352ZM221.439 178.19C222.615 178.19 223.485 178.448 224.049 178.964C224.613 179.48 224.895 180.302 224.895 181.43V188H223.743L223.437 186.632H223.365C222.945 187.16 222.501 187.55 222.033 187.802C221.577 188.054 220.941 188.18 220.125 188.18C219.249 188.18 218.523 187.952 217.947 187.496C217.371 187.028 217.083 186.302 217.083 185.318C217.083 184.358 217.461 183.62 218.217 183.104C218.973 182.576 220.137 182.288 221.709 182.24L223.347 182.186V181.61C223.347 180.806 223.173 180.248 222.825 179.936C222.477 179.624 221.985 179.468 221.349 179.468C220.845 179.468 220.365 179.546 219.909 179.702C219.453 179.846 219.027 180.014 218.631 180.206L218.145 179.018C218.565 178.79 219.063 178.598 219.639 178.442C220.215 178.274 220.815 178.19 221.439 178.19ZM221.907 183.338C220.707 183.386 219.873 183.578 219.405 183.914C218.949 184.25 218.721 184.724 218.721 185.336C218.721 185.876 218.883 186.272 219.207 186.524C219.543 186.776 219.969 186.902 220.485 186.902C221.301 186.902 221.979 186.68 222.519 186.236C223.059 185.78 223.329 185.084 223.329 184.148V183.284L221.907 183.338ZM240.883 186.075H245.937V188H236.823L241.534 182.296C241.997 181.728 242.383 181.235 242.694 180.819C243.01 180.403 243.251 180.055 243.415 179.773C243.749 179.223 243.916 178.728 243.916 178.288C243.916 177.655 243.693 177.125 243.248 176.697C242.802 176.27 242.251 176.056 241.595 176.056C240.224 176.056 239.439 176.867 239.24 178.49H237.201C237.529 175.631 238.973 174.201 241.534 174.201C242.77 174.201 243.807 174.594 244.645 175.379C245.489 176.164 245.911 177.137 245.911 178.297C245.911 179.035 245.714 179.759 245.322 180.468C245.123 180.837 244.83 181.276 244.443 181.786C244.062 182.29 243.579 182.888 242.993 183.579L240.883 186.075ZM256.59 176.346H252.406L251.738 178.596C251.838 178.584 251.932 178.575 252.019 178.569C252.113 178.563 252.198 178.561 252.274 178.561C253.593 178.561 254.674 179.006 255.517 179.896C256.367 180.781 256.792 181.915 256.792 183.298C256.792 184.728 256.311 185.905 255.35 186.831C254.39 187.757 253.18 188.22 251.721 188.22C249.922 188.22 248.504 187.376 247.467 185.688L249.014 184.379C249.441 185.105 249.872 185.618 250.306 185.917C250.739 186.21 251.269 186.356 251.896 186.356C252.717 186.356 253.405 186.069 253.962 185.495C254.518 184.903 254.797 184.186 254.797 183.342C254.797 182.475 254.521 181.766 253.971 181.215C253.42 180.646 252.731 180.362 251.905 180.362C250.985 180.362 250.191 180.764 249.523 181.566H248.847L250.982 174.43H256.59V176.346ZM266.328 184.212H267.77V186.075H266.328V188H264.281V186.075H257.618L266.328 173.419V184.212ZM264.281 184.212V179.668L261.152 184.212H264.281ZM275.267 173.955L276.77 175.08L273.527 179.492C273.703 179.469 273.852 179.451 273.975 179.439C274.098 179.428 274.195 179.422 274.265 179.422C275.367 179.422 276.319 179.844 277.122 180.688C277.919 181.52 278.317 182.521 278.317 183.693C278.317 184.936 277.872 186.002 276.981 186.893C276.096 187.777 275.033 188.22 273.791 188.22C272.56 188.22 271.482 187.783 270.556 186.91C269.648 186.037 269.194 185.003 269.194 183.808C269.194 182.735 269.636 181.599 270.521 180.397L275.267 173.955ZM276.322 183.825C276.322 183.104 276.073 182.495 275.575 181.997C275.071 181.493 274.464 181.241 273.755 181.241C273.041 181.241 272.434 181.49 271.936 181.988C271.438 182.486 271.189 183.09 271.189 183.799C271.189 184.508 271.438 185.111 271.936 185.609C272.434 186.107 273.044 186.356 273.764 186.356C274.467 186.356 275.068 186.107 275.566 185.609C276.07 185.105 276.322 184.511 276.322 183.825Z" fill="white"/>
<defs>
<filter id="filter0_b" x="-100" y="-100" width="505" height="435.962" filterUnits="userSpaceOnUse" color-interpolation-filters="sRGB">
<feFlood flood-opacity="0" result="BackgroundImageFix"/>
<feGaussianBlur in="BackgroundImage" stdDeviation="50"/>
<feComposite in2="SourceAlpha" operator="in" result="effect1_backgroundBlur"/>
<feBlend mode="normal" in="SourceGraphic" in2="effect1_backgroundBlur" result="shape"/>
</filter>
</defs>
</svg>
