<svg width="305" height="236" viewBox="0 0 305 236" fill="none" xmlns="http://www.w3.org/2000/svg">
<g filter="url(#filter0_b)">
<mask id="path-1-inside-1" fill="white">
<path fill-rule="evenodd" clip-rule="evenodd" d="M305 50C305 22.3858 282.614 0 255 0H50C22.3858 0 0 22.3857 0 50V160.433C0 188.047 22.3857 210.433 50 210.433H199.843C208.268 210.433 215.882 215.454 219.201 223.198C226.495 240.217 250.623 240.217 257.917 223.198C261.236 215.454 268.851 210.433 277.276 210.433H279.923C293.773 210.433 305 199.206 305 185.356V50Z"/>
</mask>
<path fill-rule="evenodd" clip-rule="evenodd" d="M305 50C305 22.3858 282.614 0 255 0H50C22.3858 0 0 22.3857 0 50V160.433C0 188.047 22.3857 210.433 50 210.433H199.843C208.268 210.433 215.882 215.454 219.201 223.198C226.495 240.217 250.623 240.217 257.917 223.198C261.236 215.454 268.851 210.433 277.276 210.433H279.923C293.773 210.433 305 199.206 305 185.356V50Z" fill="#A7C5FF"/>
<path d="M50 5H255V-5H50V5ZM5 160.433V50H-5V160.433H5ZM199.843 205.433H50V215.433H199.843V205.433ZM279.923 205.433H277.276V215.433H279.923V205.433ZM300 50V185.356H310V50H300ZM279.923 215.433C296.534 215.433 310 201.967 310 185.356H300C300 196.444 291.011 205.433 279.923 205.433V215.433ZM262.513 225.167C265.044 219.262 270.851 215.433 277.276 215.433V205.433C266.85 205.433 257.428 211.646 253.322 221.228L262.513 225.167ZM214.605 225.167C223.631 246.227 253.487 246.227 262.513 225.167L253.322 221.228C247.759 234.207 229.359 234.207 223.797 221.228L214.605 225.167ZM199.843 215.433C206.268 215.433 212.074 219.262 214.605 225.167L223.797 221.228C219.69 211.646 210.268 205.433 199.843 205.433V215.433ZM-5 160.433C-5 190.809 19.6243 215.433 50 215.433V205.433C25.1472 205.433 5 185.286 5 160.433H-5ZM255 5C279.853 5 300 25.1472 300 50H310C310 19.6243 285.376 -5 255 -5V5ZM50 -5C19.6243 -5 -5 19.6243 -5 50H5C5 25.1472 25.1472 5 50 5V-5Z" fill="white" mask="url(#path-1-inside-1)"/>
</g>
<path d="M34.32 60.14H30.21V64.76C30.21 65.16 30.2 65.48 30.18 65.72C30.16 65.96 30.13 66.21 30.09 66.47H34.32V60.14ZM23.34 66.47C23.88 66.47 24.25 66.29 24.45 65.93C24.65 65.57 24.75 65.01 24.75 64.25V55.61H39.75V66.47H41.58V74.15H36.15V71H28.02V74.15H22.59V66.47H23.34ZM49.1262 63.26C49.1262 63.76 49.2162 64.23 49.3962 64.67C49.5762 65.09 49.8162 65.46 50.1162 65.78C50.4362 66.1 50.8062 66.35 51.2262 66.53C51.6662 66.71 52.1362 66.8 52.6362 66.8C53.1162 66.8 53.5662 66.71 53.9862 66.53C54.4262 66.35 54.7962 66.1 55.0962 65.78C55.4162 65.46 55.6662 65.09 55.8462 64.67C56.0462 64.25 56.1462 63.8 56.1462 63.32C56.1462 62.84 56.0462 62.39 55.8462 61.97C55.6662 61.53 55.4162 61.15 55.0962 60.83C54.7962 60.51 54.4262 60.26 53.9862 60.08C53.5662 59.9 53.1162 59.81 52.6362 59.81C52.1362 59.81 51.6662 59.9 51.2262 60.08C50.8062 60.26 50.4362 60.51 50.1162 60.83C49.8162 61.15 49.5762 61.52 49.3962 61.94C49.2162 62.34 49.1262 62.78 49.1262 63.26ZM55.9662 55.61H61.4262V71H55.9662V69.29C54.8062 70.75 53.2362 71.48 51.2562 71.48C50.1362 71.48 49.1062 71.28 48.1662 70.88C47.2262 70.46 46.4062 69.88 45.7062 69.14C45.0062 68.4 44.4562 67.53 44.0562 66.53C43.6762 65.53 43.4862 64.44 43.4862 63.26C43.4862 62.16 43.6762 61.12 44.0562 60.14C44.4362 59.14 44.9662 58.27 45.6462 57.53C46.3262 56.79 47.1362 56.21 48.0762 55.79C49.0162 55.35 50.0562 55.13 51.1962 55.13C53.1162 55.13 54.7062 55.8 55.9662 57.14V55.61ZM65.6013 63.32V48.38H71.2413V63.32H65.6013ZM64.9113 68.12C64.9113 67.64 65.0013 67.19 65.1813 66.77C65.3613 66.33 65.6113 65.95 65.9313 65.63C66.2513 65.31 66.6213 65.06 67.0413 64.88C67.4813 64.7 67.9413 64.61 68.4213 64.61C68.9013 64.61 69.3513 64.7 69.7713 64.88C70.2113 65.06 70.5913 65.31 70.9113 65.63C71.2313 65.95 71.4813 66.33 71.6613 66.77C71.8413 67.19 71.9313 67.64 71.9313 68.12C71.9313 68.6 71.8413 69.06 71.6613 69.5C71.4813 69.92 71.2313 70.29 70.9113 70.61C70.5913 70.93 70.2113 71.18 69.7713 71.36C69.3513 71.54 68.9013 71.63 68.4213 71.63C67.9413 71.63 67.4813 71.54 67.0413 71.36C66.6213 71.18 66.2513 70.93 65.9313 70.61C65.6113 70.29 65.3613 69.92 65.1813 69.5C65.0013 69.06 64.9113 68.6 64.9113 68.12ZM32.79 80.61H38.58L32.49 87.99L39.39 96H33.18L28.29 89.85V96H22.86V80.61H28.29V86.79L32.79 80.61ZM45.7277 88.26C45.7277 88.76 45.8177 89.23 45.9977 89.67C46.1777 90.09 46.4177 90.46 46.7177 90.78C47.0377 91.1 47.4077 91.35 47.8277 91.53C48.2677 91.71 48.7377 91.8 49.2377 91.8C49.7177 91.8 50.1677 91.71 50.5877 91.53C51.0277 91.35 51.3977 91.1 51.6977 90.78C52.0177 90.46 52.2677 90.09 52.4477 89.67C52.6477 89.25 52.7477 88.8 52.7477 88.32C52.7477 87.84 52.6477 87.39 52.4477 86.97C52.2677 86.53 52.0177 86.15 51.6977 85.83C51.3977 85.51 51.0277 85.26 50.5877 85.08C50.1677 84.9 49.7177 84.81 49.2377 84.81C48.7377 84.81 48.2677 84.9 47.8277 85.08C47.4077 85.26 47.0377 85.51 46.7177 85.83C46.4177 86.15 46.1777 86.52 45.9977 86.94C45.8177 87.34 45.7277 87.78 45.7277 88.26ZM52.5677 80.61H58.0277V96H52.5677V94.29C51.4077 95.75 49.8377 96.48 47.8577 96.48C46.7377 96.48 45.7077 96.28 44.7677 95.88C43.8277 95.46 43.0077 94.88 42.3077 94.14C41.6077 93.4 41.0577 92.53 40.6577 91.53C40.2777 90.53 40.0877 89.44 40.0877 88.26C40.0877 87.16 40.2777 86.12 40.6577 85.14C41.0377 84.14 41.5677 83.27 42.2477 82.53C42.9277 81.79 43.7377 81.21 44.6777 80.79C45.6177 80.35 46.6577 80.13 47.7977 80.13C49.7177 80.13 51.3077 80.8 52.5677 82.14V80.61ZM81.4329 80.61H87.2529L80.8329 87.99L88.0329 96H81.8829L76.5129 89.76V96H71.0829V89.76L65.6529 96H59.5029L66.7329 87.99L60.3129 80.61H66.1329L71.0829 86.91V80.61H76.5129V86.91L81.4329 80.61ZM100.777 86.07C100.597 85.31 100.227 84.7 99.6668 84.24C99.1068 83.78 98.4268 83.55 97.6268 83.55C96.7868 83.55 96.0968 83.77 95.5568 84.21C95.0368 84.65 94.7068 85.27 94.5668 86.07H100.777ZM94.4168 89.22C94.4168 91.56 95.5168 92.73 97.7168 92.73C98.8968 92.73 99.7868 92.25 100.387 91.29H105.637C104.577 94.81 101.927 96.57 97.6868 96.57C96.3868 96.57 95.1968 96.38 94.1168 96C93.0368 95.6 92.1068 95.04 91.3268 94.32C90.5668 93.6 89.9768 92.74 89.5568 91.74C89.1368 90.74 88.9268 89.62 88.9268 88.38C88.9268 87.1 89.1268 85.95 89.5268 84.93C89.9268 83.89 90.4968 83.01 91.2368 82.29C91.9768 81.57 92.8668 81.02 93.9068 80.64C94.9668 80.24 96.1568 80.04 97.4768 80.04C98.7768 80.04 99.9468 80.24 100.987 80.64C102.027 81.02 102.907 81.58 103.627 82.32C104.347 83.06 104.897 83.97 105.277 85.05C105.657 86.11 105.847 87.31 105.847 88.65V89.22H94.4168ZM119.721 85.14H116.121V96H110.691V85.14H107.091V80.61H119.721V85.14ZM133.159 85.59C132.219 84.95 131.269 84.63 130.309 84.63C129.789 84.63 129.299 84.72 128.839 84.9C128.399 85.08 128.009 85.34 127.669 85.68C127.329 86 127.059 86.39 126.859 86.85C126.679 87.29 126.589 87.79 126.589 88.35C126.589 88.89 126.679 89.39 126.859 89.85C127.059 90.29 127.319 90.68 127.639 91.02C127.979 91.34 128.379 91.59 128.839 91.77C129.299 91.95 129.789 92.04 130.309 92.04C131.329 92.04 132.279 91.69 133.159 90.99V95.61C131.819 96.19 130.549 96.48 129.349 96.48C128.229 96.48 127.159 96.29 126.139 95.91C125.139 95.53 124.249 94.99 123.469 94.29C122.709 93.57 122.099 92.72 121.639 91.74C121.179 90.74 120.949 89.63 120.949 88.41C120.949 87.19 121.169 86.08 121.609 85.08C122.049 84.06 122.649 83.19 123.409 82.47C124.169 81.73 125.069 81.16 126.109 80.76C127.169 80.34 128.299 80.13 129.499 80.13C130.819 80.13 132.039 80.41 133.159 80.97V85.59ZM144.236 84.57H142.556C142.036 84.57 141.626 84.72 141.326 85.02C141.026 85.3 140.876 85.69 140.876 86.19C140.876 86.71 141.026 87.12 141.326 87.42C141.626 87.7 142.036 87.84 142.556 87.84H144.236V84.57ZM138.626 90.78C137.746 90.5 137.066 89.95 136.586 89.13C136.106 88.31 135.866 87.3 135.866 86.1C135.866 85.34 135.986 84.63 136.226 83.97C136.486 83.29 136.866 82.71 137.366 82.23C137.866 81.73 138.486 81.34 139.226 81.06C139.966 80.76 140.826 80.61 141.806 80.61H149.666V96H144.236V91.2H143.306L140.666 96H134.936L138.626 90.78ZM154.461 90.27H159.561L154.041 100.2H150.561L154.461 90.27ZM181.242 92.34C180.882 92.42 180.512 92.49 180.132 92.55C179.772 92.59 179.382 92.61 178.962 92.61C177.602 92.61 176.432 92.43 175.452 92.07C174.472 91.69 173.672 91.15 173.052 90.45C172.432 89.73 171.972 88.85 171.672 87.81C171.392 86.77 171.252 85.58 171.252 84.24V80.61H176.682V84.42C176.682 85.2 176.742 85.84 176.862 86.34C177.002 86.82 177.192 87.19 177.432 87.45C177.672 87.71 177.952 87.89 178.272 87.99C178.592 88.07 178.942 88.11 179.322 88.11C180.102 88.11 180.742 87.86 181.242 87.36V80.61H186.672V96H181.242V92.34ZM201.169 85.14H197.569V96H192.139V85.14H188.539V80.61H201.169V85.14ZM208.128 88.23C208.128 88.75 208.218 89.23 208.398 89.67C208.598 90.09 208.848 90.46 209.148 90.78C209.468 91.1 209.838 91.35 210.258 91.53C210.698 91.71 211.158 91.8 211.638 91.8C212.118 91.8 212.568 91.71 212.988 91.53C213.428 91.35 213.798 91.1 214.098 90.78C214.418 90.46 214.668 90.09 214.848 89.67C215.048 89.23 215.148 88.76 215.148 88.26C215.148 87.78 215.048 87.33 214.848 86.91C214.668 86.47 214.418 86.09 214.098 85.77C213.798 85.45 213.428 85.2 212.988 85.02C212.568 84.84 212.118 84.75 211.638 84.75C211.158 84.75 210.698 84.84 210.258 85.02C209.838 85.2 209.468 85.45 209.148 85.77C208.848 86.09 208.598 86.46 208.398 86.88C208.218 87.3 208.128 87.75 208.128 88.23ZM202.398 88.17C202.398 87.03 202.628 85.97 203.088 84.99C203.548 83.99 204.188 83.13 205.008 82.41C205.828 81.67 206.798 81.09 207.918 80.67C209.058 80.25 210.298 80.04 211.638 80.04C212.958 80.04 214.178 80.25 215.298 80.67C216.438 81.07 217.418 81.64 218.238 82.38C219.078 83.1 219.728 83.97 220.188 84.99C220.648 85.99 220.878 87.1 220.878 88.32C220.878 89.54 220.638 90.66 220.158 91.68C219.698 92.68 219.058 93.55 218.238 94.29C217.418 95.01 216.428 95.57 215.268 95.97C214.128 96.37 212.888 96.57 211.548 96.57C210.228 96.57 209.008 96.37 207.888 95.97C206.768 95.57 205.798 95 204.978 94.26C204.178 93.52 203.548 92.64 203.088 91.62C202.628 90.58 202.398 89.43 202.398 88.17ZM31.44 109.57H29.76C29.24 109.57 28.83 109.72 28.53 110.02C28.23 110.3 28.08 110.69 28.08 111.19C28.08 111.71 28.23 112.12 28.53 112.42C28.83 112.7 29.24 112.84 29.76 112.84H31.44V109.57ZM25.83 115.78C24.95 115.5 24.27 114.95 23.79 114.13C23.31 113.31 23.07 112.3 23.07 111.1C23.07 110.34 23.19 109.63 23.43 108.97C23.69 108.29 24.07 107.71 24.57 107.23C25.07 106.73 25.69 106.34 26.43 106.06C27.17 105.76 28.03 105.61 29.01 105.61H36.87V121H31.44V116.2H30.51L27.87 121H22.14L25.83 115.78ZM54.7099 113.23C54.7099 113.75 54.7999 114.23 54.9799 114.67C55.1799 115.09 55.4299 115.46 55.7299 115.78C56.0499 116.1 56.4199 116.35 56.8399 116.53C57.2799 116.71 57.7399 116.8 58.2199 116.8C58.6999 116.8 59.1499 116.71 59.5699 116.53C60.0099 116.35 60.3799 116.1 60.6799 115.78C60.9999 115.46 61.2499 115.09 61.4299 114.67C61.6299 114.23 61.7299 113.76 61.7299 113.26C61.7299 112.78 61.6299 112.33 61.4299 111.91C61.2499 111.47 60.9999 111.09 60.6799 110.77C60.3799 110.45 60.0099 110.2 59.5699 110.02C59.1499 109.84 58.6999 109.75 58.2199 109.75C57.7399 109.75 57.2799 109.84 56.8399 110.02C56.4199 110.2 56.0499 110.45 55.7299 110.77C55.4299 111.09 55.1799 111.46 54.9799 111.88C54.7999 112.3 54.7099 112.75 54.7099 113.23ZM48.9799 113.17C48.9799 112.03 49.2099 110.97 49.6699 109.99C50.1299 108.99 50.7699 108.13 51.5899 107.41C52.4099 106.67 53.3799 106.09 54.4999 105.67C55.6399 105.25 56.8799 105.04 58.2199 105.04C59.5399 105.04 60.7599 105.25 61.8799 105.67C63.0199 106.07 63.9999 106.64 64.8199 107.38C65.6599 108.1 66.3099 108.97 66.7699 109.99C67.2299 110.99 67.4599 112.1 67.4599 113.32C67.4599 114.54 67.2199 115.66 66.7399 116.68C66.2799 117.68 65.6399 118.55 64.8199 119.29C63.9999 120.01 63.0099 120.57 61.8499 120.97C60.7099 121.37 59.4699 121.57 58.1299 121.57C56.8099 121.57 55.5899 121.37 54.4699 120.97C53.3499 120.57 52.3799 120 51.5599 119.26C50.7599 118.52 50.1299 117.64 49.6699 116.62C49.2099 115.58 48.9799 114.43 48.9799 113.17ZM81.5958 110.59C80.6558 109.95 79.7058 109.63 78.7458 109.63C78.2258 109.63 77.7358 109.72 77.2758 109.9C76.8358 110.08 76.4458 110.34 76.1058 110.68C75.7658 111 75.4958 111.39 75.2958 111.85C75.1158 112.29 75.0258 112.79 75.0258 113.35C75.0258 113.89 75.1158 114.39 75.2958 114.85C75.4958 115.29 75.7558 115.68 76.0758 116.02C76.4158 116.34 76.8158 116.59 77.2758 116.77C77.7358 116.95 78.2258 117.04 78.7458 117.04C79.7658 117.04 80.7158 116.69 81.5958 115.99V120.61C80.2558 121.19 78.9858 121.48 77.7858 121.48C76.6658 121.48 75.5958 121.29 74.5758 120.91C73.5758 120.53 72.6858 119.99 71.9058 119.29C71.1458 118.57 70.5358 117.72 70.0758 116.74C69.6158 115.74 69.3858 114.63 69.3858 113.41C69.3858 112.19 69.6058 111.08 70.0458 110.08C70.4858 109.06 71.0858 108.19 71.8458 107.47C72.6058 106.73 73.5058 106.16 74.5458 105.76C75.6058 105.34 76.7358 105.13 77.9358 105.13C79.2558 105.13 80.4758 105.41 81.5958 105.97V110.59ZM95.4628 110.14H91.8628V121H86.4328V110.14H82.8328V105.61H95.4628V110.14ZM102.654 113.26C102.654 113.76 102.744 114.23 102.924 114.67C103.104 115.09 103.344 115.46 103.644 115.78C103.964 116.1 104.334 116.35 104.754 116.53C105.194 116.71 105.664 116.8 106.164 116.8C106.644 116.8 107.094 116.71 107.514 116.53C107.954 116.35 108.324 116.1 108.624 115.78C108.944 115.46 109.194 115.09 109.374 114.67C109.574 114.25 109.674 113.8 109.674 113.32C109.674 112.84 109.574 112.39 109.374 111.97C109.194 111.53 108.944 111.15 108.624 110.83C108.324 110.51 107.954 110.26 107.514 110.08C107.094 109.9 106.644 109.81 106.164 109.81C105.664 109.81 105.194 109.9 104.754 110.08C104.334 110.26 103.964 110.51 103.644 110.83C103.344 111.15 103.104 111.52 102.924 111.94C102.744 112.34 102.654 112.78 102.654 113.26ZM109.494 105.61H114.954V121H109.494V119.29C108.334 120.75 106.764 121.48 104.784 121.48C103.664 121.48 102.634 121.28 101.694 120.88C100.754 120.46 99.9339 119.88 99.2339 119.14C98.5339 118.4 97.9839 117.53 97.5839 116.53C97.2039 115.53 97.0139 114.44 97.0139 113.26C97.0139 112.16 97.2039 111.12 97.5839 110.14C97.9639 109.14 98.4939 108.27 99.1739 107.53C99.8539 106.79 100.664 106.21 101.604 105.79C102.544 105.35 103.584 105.13 104.724 105.13C106.644 105.13 108.234 105.8 109.494 107.14V105.61ZM131.459 113.23C131.459 113.75 131.549 114.23 131.729 114.67C131.929 115.09 132.179 115.46 132.479 115.78C132.799 116.1 133.169 116.35 133.589 116.53C134.029 116.71 134.489 116.8 134.969 116.8C135.449 116.8 135.899 116.71 136.319 116.53C136.759 116.35 137.139 116.1 137.459 115.78C137.779 115.46 138.029 115.09 138.209 114.67C138.389 114.23 138.479 113.76 138.479 113.26C138.479 112.78 138.379 112.33 138.179 111.91C137.999 111.47 137.749 111.09 137.429 110.77C137.129 110.45 136.759 110.2 136.319 110.02C135.899 109.84 135.449 109.75 134.969 109.75C134.489 109.75 134.029 109.84 133.589 110.02C133.169 110.2 132.799 110.45 132.479 110.77C132.179 111.09 131.929 111.46 131.729 111.88C131.549 112.3 131.459 112.75 131.459 113.23ZM123.479 121H118.049V105.61H123.479V110.92H126.029C126.289 110.04 126.699 109.24 127.259 108.52C127.819 107.78 128.489 107.16 129.269 106.66C130.049 106.14 130.919 105.74 131.879 105.46C132.859 105.18 133.889 105.04 134.969 105.04C136.309 105.04 137.549 105.25 138.689 105.67C139.829 106.09 140.809 106.67 141.629 107.41C142.449 108.15 143.089 109.03 143.549 110.05C144.009 111.05 144.239 112.14 144.239 113.32C144.239 114.54 143.999 115.66 143.519 116.68C143.059 117.68 142.419 118.55 141.599 119.29C140.779 120.01 139.789 120.57 138.629 120.97C137.489 121.37 136.249 121.57 134.909 121.57C133.789 121.57 132.729 121.42 131.729 121.12C130.749 120.84 129.869 120.43 129.089 119.89C128.309 119.35 127.649 118.7 127.109 117.94C126.569 117.18 126.189 116.33 125.969 115.39H123.479V121ZM158.327 110.59C157.387 109.95 156.437 109.63 155.477 109.63C154.957 109.63 154.467 109.72 154.007 109.9C153.567 110.08 153.177 110.34 152.837 110.68C152.497 111 152.227 111.39 152.027 111.85C151.847 112.29 151.757 112.79 151.757 113.35C151.757 113.89 151.847 114.39 152.027 114.85C152.227 115.29 152.487 115.68 152.807 116.02C153.147 116.34 153.547 116.59 154.007 116.77C154.467 116.95 154.957 117.04 155.477 117.04C156.497 117.04 157.447 116.69 158.327 115.99V120.61C156.987 121.19 155.717 121.48 154.517 121.48C153.397 121.48 152.327 121.29 151.307 120.91C150.307 120.53 149.417 119.99 148.637 119.29C147.877 118.57 147.267 117.72 146.807 116.74C146.347 115.74 146.117 114.63 146.117 113.41C146.117 112.19 146.337 111.08 146.777 110.08C147.217 109.06 147.817 108.19 148.577 107.47C149.337 106.73 150.237 106.16 151.277 105.76C152.337 105.34 153.467 105.13 154.667 105.13C155.987 105.13 157.207 105.41 158.327 105.97V110.59ZM166.284 117.1H168.384C169.464 117.1 170.004 116.59 170.004 115.57C170.004 114.59 169.464 114.1 168.384 114.1H166.284V117.1ZM166.284 105.61V110.17H169.464C171.304 110.17 172.704 110.6 173.664 111.46C174.624 112.3 175.104 113.53 175.104 115.15C175.104 116.03 174.974 116.83 174.714 117.55C174.454 118.25 174.064 118.86 173.544 119.38C173.044 119.9 172.424 120.3 171.684 120.58C170.944 120.86 170.084 121 169.104 121H160.854V105.61H166.284ZM186.629 105.4C187.129 105.3 187.619 105.22 188.099 105.16C188.599 105.08 189.129 105.04 189.689 105.04C190.669 105.04 191.579 105.15 192.419 105.37C193.259 105.59 193.979 105.9 194.579 106.3C195.199 106.7 195.679 107.17 196.019 107.71C196.359 108.25 196.529 108.83 196.529 109.45C196.529 110.13 196.319 110.75 195.899 111.31C195.499 111.85 194.849 112.35 193.949 112.81C195.029 113.15 195.809 113.62 196.289 114.22C196.789 114.8 197.039 115.54 197.039 116.44C197.039 117.18 196.859 117.87 196.499 118.51C196.159 119.13 195.659 119.67 194.999 120.13C194.359 120.57 193.589 120.92 192.689 121.18C191.789 121.44 190.799 121.57 189.719 121.57C189.199 121.57 188.669 121.54 188.129 121.48C187.589 121.42 187.089 121.32 186.629 121.18V116.8C186.909 116.9 187.229 116.98 187.589 117.04C187.969 117.08 188.329 117.1 188.669 117.1C189.389 117.1 189.999 117 190.499 116.8C191.019 116.58 191.279 116.32 191.279 116.02C191.279 115.68 190.989 115.39 190.409 115.15C189.829 114.89 189.069 114.76 188.129 114.76H187.889V111.58C188.969 111.56 189.749 111.46 190.229 111.28C190.729 111.1 190.979 110.84 190.979 110.5C190.979 110.18 190.809 109.94 190.469 109.78C190.129 109.62 189.669 109.54 189.089 109.54C188.669 109.54 188.239 109.58 187.799 109.66C187.359 109.72 186.969 109.8 186.629 109.9V105.4ZM211.001 110.14H206.891V114.76C206.891 115.16 206.881 115.48 206.861 115.72C206.841 115.96 206.811 116.21 206.771 116.47H211.001V110.14ZM200.021 116.47C200.561 116.47 200.931 116.29 201.131 115.93C201.331 115.57 201.431 115.01 201.431 114.25V105.61H216.431V116.47H218.261V124.15H212.831V121H204.701V124.15H199.271V116.47H200.021ZM232.017 111.07C231.837 110.31 231.467 109.7 230.907 109.24C230.347 108.78 229.667 108.55 228.867 108.55C228.027 108.55 227.337 108.77 226.797 109.21C226.277 109.65 225.947 110.27 225.807 111.07H232.017ZM225.657 114.22C225.657 116.56 226.757 117.73 228.957 117.73C230.137 117.73 231.027 117.25 231.627 116.29H236.877C235.817 119.81 233.167 121.57 228.927 121.57C227.627 121.57 226.437 121.38 225.357 121C224.277 120.6 223.347 120.04 222.567 119.32C221.807 118.6 221.217 117.74 220.797 116.74C220.377 115.74 220.167 114.62 220.167 113.38C220.167 112.1 220.367 110.95 220.767 109.93C221.167 108.89 221.737 108.01 222.477 107.29C223.217 106.57 224.107 106.02 225.147 105.64C226.207 105.24 227.397 105.04 228.717 105.04C230.017 105.04 231.187 105.24 232.227 105.64C233.267 106.02 234.147 106.58 234.867 107.32C235.587 108.06 236.137 108.97 236.517 110.05C236.897 111.11 237.087 112.31 237.087 113.65V114.22H225.657ZM251.201 110.59C250.261 109.95 249.311 109.63 248.351 109.63C247.831 109.63 247.341 109.72 246.881 109.9C246.441 110.08 246.051 110.34 245.711 110.68C245.371 111 245.101 111.39 244.901 111.85C244.721 112.29 244.631 112.79 244.631 113.35C244.631 113.89 244.721 114.39 244.901 114.85C245.101 115.29 245.361 115.68 245.681 116.02C246.021 116.34 246.421 116.59 246.881 116.77C247.341 116.95 247.831 117.04 248.351 117.04C249.371 117.04 250.321 116.69 251.201 115.99V120.61C249.861 121.19 248.591 121.48 247.391 121.48C246.271 121.48 245.201 121.29 244.181 120.91C243.181 120.53 242.291 119.99 241.511 119.29C240.751 118.57 240.141 117.72 239.681 116.74C239.221 115.74 238.991 114.63 238.991 113.41C238.991 112.19 239.211 111.08 239.651 110.08C240.091 109.06 240.691 108.19 241.451 107.47C242.211 106.73 243.111 106.16 244.151 105.76C245.211 105.34 246.341 105.13 247.541 105.13C248.861 105.13 250.081 105.41 251.201 105.97V110.59ZM259.158 117.1H261.258C262.338 117.1 262.878 116.59 262.878 115.57C262.878 114.59 262.338 114.1 261.258 114.1H259.158V117.1ZM259.158 105.61V110.17H262.338C264.178 110.17 265.578 110.6 266.538 111.46C267.498 112.3 267.978 113.53 267.978 115.15C267.978 116.03 267.848 116.83 267.588 117.55C267.328 118.25 266.938 118.86 266.418 119.38C265.918 119.9 265.298 120.3 264.558 120.58C263.818 120.86 262.958 121 261.978 121H253.728V105.61H259.158ZM43.17 130.61H48.99L42.57 137.99L49.77 146H43.62L38.25 139.76V146H32.82V139.76L27.39 146H21.24L28.47 137.99L22.05 130.61H27.87L32.82 136.91V130.61H38.25V136.91L43.17 130.61ZM56.6939 130.61V139.22L63.1439 130.61H68.5739V146H63.1439V137.42L56.6639 146H51.2639V130.61H56.6939ZM83.0691 135.14H79.4691V146H74.0391V135.14H70.4391V130.61H83.0691V135.14ZM90.3579 142.1H92.4579C93.5379 142.1 94.0779 141.59 94.0779 140.57C94.0779 139.59 93.5379 139.1 92.4579 139.1H90.3579V142.1ZM90.3579 130.61V135.17H93.5379C95.3779 135.17 96.7779 135.6 97.7379 136.46C98.6979 137.3 99.1779 138.53 99.1779 140.15C99.1779 141.03 99.0479 141.83 98.7879 142.55C98.5279 143.25 98.1379 143.86 97.6179 144.38C97.1179 144.9 96.4979 145.3 95.7579 145.58C95.0179 145.86 94.1579 146 93.1779 146H84.9279V130.61H90.3579ZM121.923 135.92V130.61H127.353V146H121.923V140.39H116.403V146H110.973V130.61H116.403V135.92H121.923ZM135.511 138.26C135.511 138.76 135.601 139.23 135.781 139.67C135.961 140.09 136.201 140.46 136.501 140.78C136.821 141.1 137.191 141.35 137.611 141.53C138.051 141.71 138.521 141.8 139.021 141.8C139.501 141.8 139.951 141.71 140.371 141.53C140.811 141.35 141.181 141.1 141.481 140.78C141.801 140.46 142.051 140.09 142.231 139.67C142.431 139.25 142.531 138.8 142.531 138.32C142.531 137.84 142.431 137.39 142.231 136.97C142.051 136.53 141.801 136.15 141.481 135.83C141.181 135.51 140.811 135.26 140.371 135.08C139.951 134.9 139.501 134.81 139.021 134.81C138.521 134.81 138.051 134.9 137.611 135.08C137.191 135.26 136.821 135.51 136.501 135.83C136.201 136.15 135.961 136.52 135.781 136.94C135.601 137.34 135.511 137.78 135.511 138.26ZM142.351 130.61H147.811V146H142.351V144.29C141.191 145.75 139.621 146.48 137.641 146.48C136.521 146.48 135.491 146.28 134.551 145.88C133.611 145.46 132.791 144.88 132.091 144.14C131.391 143.4 130.841 142.53 130.441 141.53C130.061 140.53 129.871 139.44 129.871 138.26C129.871 137.16 130.061 136.12 130.441 135.14C130.821 134.14 131.351 133.27 132.031 132.53C132.711 131.79 133.521 131.21 134.461 130.79C135.401 130.35 136.441 130.13 137.581 130.13C139.501 130.13 141.091 130.8 142.351 132.14V130.61ZM158.946 142.22C159.366 142.22 159.686 142.1 159.906 141.86C160.126 141.62 160.236 141.3 160.236 140.9C160.236 140.04 159.806 139.61 158.946 139.61H155.976V142.22H158.946ZM158.556 136.55C159.136 136.55 159.426 136.18 159.426 135.44C159.426 134.7 159.136 134.33 158.556 134.33H155.976V136.55H158.556ZM150.906 130.61H159.066C160.586 130.61 161.736 130.96 162.516 131.66C163.316 132.34 163.716 133.33 163.716 134.63C163.716 135.39 163.596 136.01 163.356 136.49C163.116 136.97 162.706 137.38 162.126 137.72C164.226 138.14 165.276 139.41 165.276 141.53C165.276 142.95 164.736 144.05 163.656 144.83C162.596 145.61 161.126 146 159.246 146H150.906V130.61ZM179.025 135.59C178.085 134.95 177.135 134.63 176.175 134.63C175.655 134.63 175.165 134.72 174.705 134.9C174.265 135.08 173.875 135.34 173.535 135.68C173.195 136 172.925 136.39 172.725 136.85C172.545 137.29 172.455 137.79 172.455 138.35C172.455 138.89 172.545 139.39 172.725 139.85C172.925 140.29 173.185 140.68 173.505 141.02C173.845 141.34 174.245 141.59 174.705 141.77C175.165 141.95 175.655 142.04 176.175 142.04C177.195 142.04 178.145 141.69 179.025 140.99V145.61C177.685 146.19 176.415 146.48 175.215 146.48C174.095 146.48 173.025 146.29 172.005 145.91C171.005 145.53 170.115 144.99 169.335 144.29C168.575 143.57 167.965 142.72 167.505 141.74C167.045 140.74 166.815 139.63 166.815 138.41C166.815 137.19 167.035 136.08 167.475 135.08C167.915 134.06 168.515 133.19 169.275 132.47C170.035 131.73 170.935 131.16 171.975 130.76C173.035 130.34 174.165 130.13 175.365 130.13C176.685 130.13 177.905 130.41 179.025 130.97V135.59ZM192.773 136.07C192.593 135.31 192.223 134.7 191.663 134.24C191.103 133.78 190.423 133.55 189.623 133.55C188.783 133.55 188.093 133.77 187.553 134.21C187.033 134.65 186.703 135.27 186.563 136.07H192.773ZM186.413 139.22C186.413 141.56 187.513 142.73 189.713 142.73C190.893 142.73 191.783 142.25 192.383 141.29H197.633C196.573 144.81 193.923 146.57 189.683 146.57C188.383 146.57 187.193 146.38 186.113 146C185.033 145.6 184.103 145.04 183.323 144.32C182.563 143.6 181.973 142.74 181.553 141.74C181.133 140.74 180.923 139.62 180.923 138.38C180.923 137.1 181.123 135.95 181.523 134.93C181.923 133.89 182.493 133.01 183.233 132.29C183.973 131.57 184.863 131.02 185.903 130.64C186.963 130.24 188.153 130.04 189.473 130.04C190.773 130.04 191.943 130.24 192.983 130.64C194.023 131.02 194.903 131.58 195.623 132.32C196.343 133.06 196.893 133.97 197.273 135.05C197.653 136.11 197.843 137.31 197.843 138.65V139.22H186.413ZM200.346 146V130.61H209.976V135.14H205.746V146H200.346ZM223.306 135.14H219.196V139.76C219.196 140.16 219.186 140.48 219.166 140.72C219.146 140.96 219.116 141.21 219.076 141.47H223.306V135.14ZM212.326 141.47C212.866 141.47 213.236 141.29 213.436 140.93C213.636 140.57 213.736 140.01 213.736 139.25V130.61H228.736V141.47H230.566V149.15H225.136V146H217.006V149.15H211.576V141.47H212.326ZM238.112 138.26C238.112 138.76 238.202 139.23 238.382 139.67C238.562 140.09 238.802 140.46 239.102 140.78C239.422 141.1 239.792 141.35 240.212 141.53C240.652 141.71 241.122 141.8 241.622 141.8C242.102 141.8 242.552 141.71 242.972 141.53C243.412 141.35 243.782 141.1 244.082 140.78C244.402 140.46 244.652 140.09 244.832 139.67C245.032 139.25 245.132 138.8 245.132 138.32C245.132 137.84 245.032 137.39 244.832 136.97C244.652 136.53 244.402 136.15 244.082 135.83C243.782 135.51 243.412 135.26 242.972 135.08C242.552 134.9 242.102 134.81 241.622 134.81C241.122 134.81 240.652 134.9 240.212 135.08C239.792 135.26 239.422 135.51 239.102 135.83C238.802 136.15 238.562 136.52 238.382 136.94C238.202 137.34 238.112 137.78 238.112 138.26ZM244.952 130.61H250.412V146H244.952V144.29C243.792 145.75 242.222 146.48 240.242 146.48C239.122 146.48 238.092 146.28 237.152 145.88C236.212 145.46 235.392 144.88 234.692 144.14C233.992 143.4 233.442 142.53 233.042 141.53C232.662 140.53 232.472 139.44 232.472 138.26C232.472 137.16 232.662 136.12 233.042 135.14C233.422 134.14 233.952 133.27 234.632 132.53C235.312 131.79 236.122 131.21 237.062 130.79C238.002 130.35 239.042 130.13 240.182 130.13C242.102 130.13 243.692 130.8 244.952 132.14V130.61Z" fill="white"/>
<path d="M181.4 188.18C180.548 188.18 179.786 188.006 179.114 187.658C178.454 187.31 177.932 186.77 177.548 186.038C177.176 185.306 176.99 184.37 176.99 183.23C176.99 182.042 177.188 181.076 177.584 180.332C177.98 179.588 178.514 179.042 179.186 178.694C179.87 178.346 180.644 178.172 181.508 178.172C182 178.172 182.474 178.226 182.93 178.334C183.386 178.43 183.758 178.55 184.046 178.694L183.56 180.008C183.272 179.9 182.936 179.798 182.552 179.702C182.168 179.606 181.808 179.558 181.472 179.558C179.576 179.558 178.628 180.776 178.628 183.212C178.628 184.376 178.856 185.27 179.312 185.894C179.78 186.506 180.47 186.812 181.382 186.812C181.91 186.812 182.372 186.758 182.768 186.65C183.176 186.542 183.548 186.41 183.884 186.254V187.658C183.56 187.826 183.2 187.952 182.804 188.036C182.42 188.132 181.952 188.18 181.4 188.18ZM189.472 178.19C190.648 178.19 191.518 178.448 192.082 178.964C192.646 179.48 192.928 180.302 192.928 181.43V188H191.776L191.47 186.632H191.398C190.978 187.16 190.534 187.55 190.066 187.802C189.61 188.054 188.974 188.18 188.158 188.18C187.282 188.18 186.556 187.952 185.98 187.496C185.404 187.028 185.116 186.302 185.116 185.318C185.116 184.358 185.494 183.62 186.25 183.104C187.006 182.576 188.17 182.288 189.742 182.24L191.38 182.186V181.61C191.38 180.806 191.206 180.248 190.858 179.936C190.51 179.624 190.018 179.468 189.382 179.468C188.878 179.468 188.398 179.546 187.942 179.702C187.486 179.846 187.06 180.014 186.664 180.206L186.178 179.018C186.598 178.79 187.096 178.598 187.672 178.442C188.248 178.274 188.848 178.19 189.472 178.19ZM189.94 183.338C188.74 183.386 187.906 183.578 187.438 183.914C186.982 184.25 186.754 184.724 186.754 185.336C186.754 185.876 186.916 186.272 187.24 186.524C187.576 186.776 188.002 186.902 188.518 186.902C189.334 186.902 190.012 186.68 190.552 186.236C191.092 185.78 191.362 185.084 191.362 184.148V183.284L189.94 183.338ZM205.898 178.352V188H204.476V181.844C204.476 181.592 204.482 181.328 204.494 181.052C204.518 180.776 204.542 180.506 204.566 180.242H204.512L201.362 188H200.03L196.97 180.242H196.916C196.952 180.782 196.97 181.334 196.97 181.898V188H195.548V178.352H197.654L200.696 186.11L203.792 178.352H205.898ZM214.324 178.352H216.052L211.93 182.996L216.394 188H214.558L210.202 183.104V188H208.618V178.352H210.202V183.032L214.324 178.352ZM221.439 178.19C222.615 178.19 223.485 178.448 224.049 178.964C224.613 179.48 224.895 180.302 224.895 181.43V188H223.743L223.437 186.632H223.365C222.945 187.16 222.501 187.55 222.033 187.802C221.577 188.054 220.941 188.18 220.125 188.18C219.249 188.18 218.523 187.952 217.947 187.496C217.371 187.028 217.083 186.302 217.083 185.318C217.083 184.358 217.461 183.62 218.217 183.104C218.973 182.576 220.137 182.288 221.709 182.24L223.347 182.186V181.61C223.347 180.806 223.173 180.248 222.825 179.936C222.477 179.624 221.985 179.468 221.349 179.468C220.845 179.468 220.365 179.546 219.909 179.702C219.453 179.846 219.027 180.014 218.631 180.206L218.145 179.018C218.565 178.79 219.063 178.598 219.639 178.442C220.215 178.274 220.815 178.19 221.439 178.19ZM221.907 183.338C220.707 183.386 219.873 183.578 219.405 183.914C218.949 184.25 218.721 184.724 218.721 185.336C218.721 185.876 218.883 186.272 219.207 186.524C219.543 186.776 219.969 186.902 220.485 186.902C221.301 186.902 221.979 186.68 222.519 186.236C223.059 185.78 223.329 185.084 223.329 184.148V183.284L221.907 183.338ZM240.883 186.075H245.937V188H236.823L241.534 182.296C241.997 181.728 242.383 181.235 242.694 180.819C243.01 180.403 243.251 180.055 243.415 179.773C243.749 179.223 243.916 178.728 243.916 178.288C243.916 177.655 243.693 177.125 243.248 176.697C242.802 176.27 242.251 176.056 241.595 176.056C240.224 176.056 239.439 176.867 239.24 178.49H237.201C237.529 175.631 238.973 174.201 241.534 174.201C242.77 174.201 243.807 174.594 244.645 175.379C245.489 176.164 245.911 177.137 245.911 178.297C245.911 179.035 245.714 179.759 245.322 180.468C245.123 180.837 244.83 181.276 244.443 181.786C244.062 182.29 243.579 182.888 242.993 183.579L240.883 186.075ZM256.59 176.346H252.406L251.738 178.596C251.838 178.584 251.932 178.575 252.019 178.569C252.113 178.563 252.198 178.561 252.274 178.561C253.593 178.561 254.674 179.006 255.517 179.896C256.367 180.781 256.792 181.915 256.792 183.298C256.792 184.728 256.311 185.905 255.35 186.831C254.39 187.757 253.18 188.22 251.721 188.22C249.922 188.22 248.504 187.376 247.467 185.688L249.014 184.379C249.441 185.105 249.872 185.618 250.306 185.917C250.739 186.21 251.269 186.356 251.896 186.356C252.717 186.356 253.405 186.069 253.962 185.495C254.518 184.903 254.797 184.186 254.797 183.342C254.797 182.475 254.521 181.766 253.971 181.215C253.42 180.646 252.731 180.362 251.905 180.362C250.985 180.362 250.191 180.764 249.523 181.566H248.847L250.982 174.43H256.59V176.346ZM266.328 184.212H267.77V186.075H266.328V188H264.281V186.075H257.618L266.328 173.419V184.212ZM264.281 184.212V179.668L261.152 184.212H264.281ZM275.267 173.955L276.77 175.08L273.527 179.492C273.703 179.469 273.852 179.451 273.975 179.439C274.098 179.428 274.195 179.422 274.265 179.422C275.367 179.422 276.319 179.844 277.122 180.688C277.919 181.52 278.317 182.521 278.317 183.693C278.317 184.936 277.872 186.002 276.981 186.893C276.096 187.777 275.033 188.22 273.791 188.22C272.56 188.22 271.482 187.783 270.556 186.91C269.648 186.037 269.194 185.003 269.194 183.808C269.194 182.735 269.636 181.599 270.521 180.397L275.267 173.955ZM276.322 183.825C276.322 183.104 276.073 182.495 275.575 181.997C275.071 181.493 274.464 181.241 273.755 181.241C273.041 181.241 272.434 181.49 271.936 181.988C271.438 182.486 271.189 183.09 271.189 183.799C271.189 184.508 271.438 185.111 271.936 185.609C272.434 186.107 273.044 186.356 273.764 186.356C274.467 186.356 275.068 186.107 275.566 185.609C276.07 185.105 276.322 184.511 276.322 183.825Z" fill="white"/>
<defs>
<filter id="filter0_b" x="-100" y="-100" width="505" height="435.962" filterUnits="userSpaceOnUse" color-interpolation-filters="sRGB">
<feFlood flood-opacity="0" result="BackgroundImageFix"/>
<feGaussianBlur in="BackgroundImage" stdDeviation="50"/>
<feComposite in2="SourceAlpha" operator="in" result="effect1_backgroundBlur"/>
<feBlend mode="normal" in="SourceGraphic" in2="effect1_backgroundBlur" result="shape"/>
</filter>
</defs>
</svg>
