<svg width="305" height="236" viewBox="0 0 305 236" fill="none" xmlns="http://www.w3.org/2000/svg">
<g filter="url(#filter0_b)">
<mask id="path-1-inside-1" fill="white">
<path fill-rule="evenodd" clip-rule="evenodd" d="M305 50C305 22.3858 282.614 0 255 0H50C22.3858 0 0 22.3857 0 50V160.433C0 188.047 22.3857 210.433 50 210.433H199.843C208.268 210.433 215.882 215.454 219.201 223.198V223.198C226.495 240.217 250.623 240.217 257.917 223.198V223.198C261.236 215.454 268.851 210.433 277.276 210.433H279.923C293.773 210.433 305 199.206 305 185.356V50Z"/>
</mask>
<path fill-rule="evenodd" clip-rule="evenodd" d="M305 50C305 22.3858 282.614 0 255 0H50C22.3858 0 0 22.3857 0 50V160.433C0 188.047 22.3857 210.433 50 210.433H199.843C208.268 210.433 215.882 215.454 219.201 223.198V223.198C226.495 240.217 250.623 240.217 257.917 223.198V223.198C261.236 215.454 268.851 210.433 277.276 210.433H279.923C293.773 210.433 305 199.206 305 185.356V50Z" fill="#A7C5FF"/>
<path d="M50 5H255V-5H50V5ZM5 160.433V50H-5V160.433H5ZM199.843 205.433H50V215.433H199.843V205.433ZM279.923 205.433H277.276V215.433H279.923V205.433ZM300 50V185.356H310V50H300ZM279.923 215.433C296.534 215.433 310 201.967 310 185.356H300C300 196.444 291.011 205.433 279.923 205.433V215.433ZM262.513 225.167C265.044 219.262 270.851 215.433 277.276 215.433V205.433C266.85 205.433 257.428 211.646 253.322 221.228L262.513 225.167ZM214.605 225.167C223.631 246.227 253.487 246.227 262.513 225.167L253.322 221.228C247.759 234.207 229.359 234.207 223.797 221.228L214.605 225.167ZM199.843 215.433C206.268 215.433 212.074 219.262 214.605 225.167L223.797 221.228C219.69 211.646 210.268 205.433 199.843 205.433V215.433ZM-5 160.433C-5 190.809 19.6243 215.433 50 215.433V205.433C25.1472 205.433 5 185.286 5 160.433H-5ZM255 5C279.853 5 300 25.1472 300 50H310C310 19.6243 285.376 -5 255 -5V5ZM50 -5C19.6243 -5 -5 19.6243 -5 50H5C5 25.1472 25.1472 5 50 5V-5Z" fill="white" mask="url(#path-1-inside-1)"/>
</g>
<path d="M170.4 188.18C169.548 188.18 168.786 188.006 168.114 187.658C167.454 187.31 166.932 186.77 166.548 186.038C166.176 185.306 165.99 184.37 165.99 183.23C165.99 182.042 166.188 181.076 166.584 180.332C166.98 179.588 167.514 179.042 168.186 178.694C168.87 178.346 169.644 178.172 170.508 178.172C171 178.172 171.474 178.226 171.93 178.334C172.386 178.43 172.758 178.55 173.046 178.694L172.56 180.008C172.272 179.9 171.936 179.798 171.552 179.702C171.168 179.606 170.808 179.558 170.472 179.558C168.576 179.558 167.628 180.776 167.628 183.212C167.628 184.376 167.856 185.27 168.312 185.894C168.78 186.506 169.47 186.812 170.382 186.812C170.91 186.812 171.372 186.758 171.768 186.65C172.176 186.542 172.548 186.41 172.884 186.254V187.658C172.56 187.826 172.2 187.952 171.804 188.036C171.42 188.132 170.952 188.18 170.4 188.18ZM183.206 183.158C183.206 184.754 182.798 185.99 181.982 186.866C181.178 187.742 180.086 188.18 178.706 188.18C177.854 188.18 177.092 187.988 176.42 187.604C175.76 187.208 175.238 186.638 174.854 185.894C174.47 185.138 174.278 184.226 174.278 183.158C174.278 181.562 174.68 180.332 175.484 179.468C176.288 178.604 177.38 178.172 178.76 178.172C179.636 178.172 180.404 178.37 181.064 178.766C181.736 179.15 182.258 179.714 182.63 180.458C183.014 181.19 183.206 182.09 183.206 183.158ZM175.916 183.158C175.916 184.298 176.138 185.204 176.582 185.876C177.038 186.536 177.758 186.866 178.742 186.866C179.714 186.866 180.428 186.536 180.884 185.876C181.34 185.204 181.568 184.298 181.568 183.158C181.568 182.018 181.34 181.124 180.884 180.476C180.428 179.828 179.708 179.504 178.724 179.504C177.74 179.504 177.026 179.828 176.582 180.476C176.138 181.124 175.916 182.018 175.916 183.158ZM192.701 188H191.099V179.666H188.255C188.099 181.694 187.883 183.332 187.607 184.58C187.331 185.816 186.965 186.716 186.509 187.28C186.053 187.844 185.477 188.126 184.781 188.126C184.625 188.126 184.469 188.114 184.313 188.09C184.169 188.078 184.049 188.048 183.953 188V186.812C184.025 186.836 184.103 186.854 184.187 186.866C184.271 186.878 184.355 186.884 184.439 186.884C185.087 186.884 185.603 186.194 185.987 184.814C186.383 183.434 186.683 181.28 186.887 178.352H192.701V188ZM199.057 178.19C200.233 178.19 201.103 178.448 201.667 178.964C202.231 179.48 202.513 180.302 202.513 181.43V188H201.361L201.055 186.632H200.983C200.563 187.16 200.119 187.55 199.651 187.802C199.195 188.054 198.559 188.18 197.743 188.18C196.867 188.18 196.141 187.952 195.565 187.496C194.989 187.028 194.701 186.302 194.701 185.318C194.701 184.358 195.079 183.62 195.835 183.104C196.591 182.576 197.755 182.288 199.327 182.24L200.965 182.186V181.61C200.965 180.806 200.791 180.248 200.443 179.936C200.095 179.624 199.603 179.468 198.967 179.468C198.463 179.468 197.983 179.546 197.527 179.702C197.071 179.846 196.645 180.014 196.249 180.206L195.763 179.018C196.183 178.79 196.681 178.598 197.257 178.442C197.833 178.274 198.433 178.19 199.057 178.19ZM199.525 183.338C198.325 183.386 197.491 183.578 197.023 183.914C196.567 184.25 196.339 184.724 196.339 185.336C196.339 185.876 196.501 186.272 196.825 186.524C197.161 186.776 197.587 186.902 198.103 186.902C198.919 186.902 199.597 186.68 200.137 186.236C200.677 185.78 200.947 185.084 200.947 184.148V183.284L199.525 183.338ZM212.297 178.352V186.668H213.701V191.348H212.171V188H205.457V191.348H203.945V186.668H204.719C205.547 185.528 206.165 184.232 206.573 182.78C206.993 181.316 207.209 179.84 207.221 178.352H212.297ZM208.625 179.594C208.577 180.41 208.451 181.256 208.247 182.132C208.043 182.996 207.779 183.824 207.455 184.616C207.143 185.408 206.777 186.092 206.357 186.668H210.767V179.594H208.625ZM218.886 178.19C220.062 178.19 220.932 178.448 221.496 178.964C222.06 179.48 222.342 180.302 222.342 181.43V188H221.19L220.884 186.632H220.812C220.392 187.16 219.948 187.55 219.48 187.802C219.024 188.054 218.388 188.18 217.572 188.18C216.696 188.18 215.97 187.952 215.394 187.496C214.818 187.028 214.53 186.302 214.53 185.318C214.53 184.358 214.908 183.62 215.664 183.104C216.42 182.576 217.584 182.288 219.156 182.24L220.794 182.186V181.61C220.794 180.806 220.62 180.248 220.272 179.936C219.924 179.624 219.432 179.468 218.796 179.468C218.292 179.468 217.812 179.546 217.356 179.702C216.9 179.846 216.474 180.014 216.078 180.206L215.592 179.018C216.012 178.79 216.51 178.598 217.086 178.442C217.662 178.274 218.262 178.19 218.886 178.19ZM219.354 183.338C218.154 183.386 217.32 183.578 216.852 183.914C216.396 184.25 216.168 184.724 216.168 185.336C216.168 185.876 216.33 186.272 216.654 186.524C216.99 186.776 217.416 186.902 217.932 186.902C218.748 186.902 219.426 186.68 219.966 186.236C220.506 185.78 220.776 185.084 220.776 184.148V183.284L219.354 183.338ZM231.622 179.684H228.472V188H226.906V179.684H223.792V178.352H231.622V179.684ZM244.456 176.346H237.759V174.43H247.875L239.314 188.466L237.688 187.438L244.456 176.346ZM252.797 173.955L254.3 175.08L251.057 179.492C251.233 179.469 251.382 179.451 251.505 179.439C251.628 179.428 251.725 179.422 251.795 179.422C252.897 179.422 253.849 179.844 254.652 180.688C255.448 181.52 255.847 182.521 255.847 183.693C255.847 184.936 255.402 186.002 254.511 186.893C253.626 187.777 252.563 188.22 251.321 188.22C250.09 188.22 249.012 187.783 248.086 186.91C247.178 186.037 246.724 185.003 246.724 183.808C246.724 182.735 247.166 181.599 248.051 180.397L252.797 173.955ZM253.852 183.825C253.852 183.104 253.603 182.495 253.105 181.997C252.601 181.493 251.994 181.241 251.285 181.241C250.571 181.241 249.964 181.49 249.466 181.988C248.968 182.486 248.719 183.09 248.719 183.799C248.719 184.508 248.968 185.111 249.466 185.609C249.964 186.107 250.573 186.356 251.294 186.356C251.997 186.356 252.598 186.107 253.096 185.609C253.6 185.105 253.852 184.511 253.852 183.825ZM259.609 180.942C258.613 180.239 258.115 179.281 258.115 178.068C258.115 176.967 258.493 176.047 259.249 175.309C260.01 174.57 260.957 174.201 262.088 174.201C263.213 174.201 264.15 174.57 264.9 175.309C265.65 176.041 266.025 176.964 266.025 178.077C266.025 179.243 265.53 180.195 264.54 180.934C265.085 181.227 265.512 181.654 265.823 182.217C266.139 182.779 266.297 183.412 266.297 184.115C266.297 185.316 265.905 186.301 265.12 187.068C264.335 187.836 263.33 188.22 262.105 188.22C260.851 188.22 259.817 187.833 259.003 187.06C258.182 186.286 257.772 185.313 257.772 184.142C257.772 182.618 258.384 181.552 259.609 180.942ZM260.04 178.06C260.04 178.64 260.236 179.126 260.629 179.519C261.027 179.917 261.507 180.116 262.07 180.116C262.627 180.116 263.104 179.917 263.503 179.519C263.901 179.12 264.1 178.643 264.1 178.086C264.1 177.529 263.901 177.052 263.503 176.653C263.104 176.255 262.627 176.056 262.07 176.056C261.513 176.056 261.036 176.255 260.637 176.653C260.239 177.052 260.04 177.521 260.04 178.06ZM259.785 184.071C259.785 184.698 260.002 185.237 260.435 185.688C260.875 186.134 261.408 186.356 262.035 186.356C262.656 186.356 263.186 186.137 263.626 185.697C264.065 185.252 264.285 184.719 264.285 184.098C264.285 183.471 264.065 182.938 263.626 182.498C263.186 182.059 262.656 181.839 262.035 181.839C261.42 181.839 260.889 182.059 260.444 182.498C260.004 182.938 259.785 183.462 259.785 184.071ZM270.358 180.942C269.362 180.239 268.864 179.281 268.864 178.068C268.864 176.967 269.242 176.047 269.998 175.309C270.76 174.57 271.706 174.201 272.837 174.201C273.962 174.201 274.899 174.57 275.649 175.309C276.399 176.041 276.774 176.964 276.774 178.077C276.774 179.243 276.279 180.195 275.289 180.934C275.834 181.227 276.262 181.654 276.572 182.217C276.889 182.779 277.047 183.412 277.047 184.115C277.047 185.316 276.654 186.301 275.869 187.068C275.084 187.836 274.079 188.22 272.854 188.22C271.601 188.22 270.566 187.833 269.752 187.06C268.932 186.286 268.521 185.313 268.521 184.142C268.521 182.618 269.134 181.552 270.358 180.942ZM270.789 178.06C270.789 178.64 270.985 179.126 271.378 179.519C271.776 179.917 272.257 180.116 272.819 180.116C273.376 180.116 273.853 179.917 274.252 179.519C274.65 179.12 274.85 178.643 274.85 178.086C274.85 177.529 274.65 177.052 274.252 176.653C273.853 176.255 273.376 176.056 272.819 176.056C272.263 176.056 271.785 176.255 271.387 176.653C270.988 177.052 270.789 177.521 270.789 178.06ZM270.534 184.071C270.534 184.698 270.751 185.237 271.185 185.688C271.624 186.134 272.157 186.356 272.784 186.356C273.405 186.356 273.936 186.137 274.375 185.697C274.814 185.252 275.034 184.719 275.034 184.098C275.034 183.471 274.814 182.938 274.375 182.498C273.936 182.059 273.405 181.839 272.784 181.839C272.169 181.839 271.639 182.059 271.193 182.498C270.754 182.938 270.534 183.462 270.534 184.071Z" fill="white"/>
<path d="M27.99 60.23C27.99 60.75 28.08 61.23 28.26 61.67C28.46 62.09 28.71 62.46 29.01 62.78C29.33 63.1 29.7 63.35 30.12 63.53C30.56 63.71 31.02 63.8 31.5 63.8C31.98 63.8 32.43 63.71 32.85 63.53C33.29 63.35 33.66 63.1 33.96 62.78C34.28 62.46 34.53 62.09 34.71 61.67C34.91 61.23 35.01 60.76 35.01 60.26C35.01 59.78 34.91 59.33 34.71 58.91C34.53 58.47 34.28 58.09 33.96 57.77C33.66 57.45 33.29 57.2 32.85 57.02C32.43 56.84 31.98 56.75 31.5 56.75C31.02 56.75 30.56 56.84 30.12 57.02C29.7 57.2 29.33 57.45 29.01 57.77C28.71 58.09 28.46 58.46 28.26 58.88C28.08 59.3 27.99 59.75 27.99 60.23ZM22.26 60.17C22.26 59.03 22.49 57.97 22.95 56.99C23.41 55.99 24.05 55.13 24.87 54.41C25.69 53.67 26.66 53.09 27.78 52.67C28.92 52.25 30.16 52.04 31.5 52.04C32.82 52.04 34.04 52.25 35.16 52.67C36.3 53.07 37.28 53.64 38.1 54.38C38.94 55.1 39.59 55.97 40.05 56.99C40.51 57.99 40.74 59.1 40.74 60.32C40.74 61.54 40.5 62.66 40.02 63.68C39.56 64.68 38.92 65.55 38.1 66.29C37.28 67.01 36.29 67.57 35.13 67.97C33.99 68.37 32.75 68.57 31.41 68.57C30.09 68.57 28.87 68.37 27.75 67.97C26.63 67.57 25.66 67 24.84 66.26C24.04 65.52 23.41 64.64 22.95 63.62C22.49 62.58 22.26 61.43 22.26 60.17ZM43.2659 68V52.61H52.8959V57.14H48.6659V68H43.2659ZM59.8955 60.23C59.8955 60.75 59.9855 61.23 60.1655 61.67C60.3655 62.09 60.6155 62.46 60.9155 62.78C61.2355 63.1 61.6055 63.35 62.0255 63.53C62.4655 63.71 62.9255 63.8 63.4055 63.8C63.8855 63.8 64.3355 63.71 64.7555 63.53C65.1955 63.35 65.5655 63.1 65.8655 62.78C66.1855 62.46 66.4355 62.09 66.6155 61.67C66.8155 61.23 66.9155 60.76 66.9155 60.26C66.9155 59.78 66.8155 59.33 66.6155 58.91C66.4355 58.47 66.1855 58.09 65.8655 57.77C65.5655 57.45 65.1955 57.2 64.7555 57.02C64.3355 56.84 63.8855 56.75 63.4055 56.75C62.9255 56.75 62.4655 56.84 62.0255 57.02C61.6055 57.2 61.2355 57.45 60.9155 57.77C60.6155 58.09 60.3655 58.46 60.1655 58.88C59.9855 59.3 59.8955 59.75 59.8955 60.23ZM54.1655 60.17C54.1655 59.03 54.3955 57.97 54.8555 56.99C55.3155 55.99 55.9555 55.13 56.7755 54.41C57.5955 53.67 58.5655 53.09 59.6855 52.67C60.8255 52.25 62.0655 52.04 63.4055 52.04C64.7255 52.04 65.9455 52.25 67.0655 52.67C68.2055 53.07 69.1855 53.64 70.0055 54.38C70.8455 55.1 71.4955 55.97 71.9555 56.99C72.4155 57.99 72.6455 59.1 72.6455 60.32C72.6455 61.54 72.4055 62.66 71.9255 63.68C71.4655 64.68 70.8255 65.55 70.0055 66.29C69.1855 67.01 68.1955 67.57 67.0355 67.97C65.8955 68.37 64.6555 68.57 63.3155 68.57C61.9955 68.57 60.7755 68.37 59.6555 67.97C58.5355 67.57 57.5655 67 56.7455 66.26C55.9455 65.52 55.3155 64.64 54.8555 63.62C54.3955 62.58 54.1655 61.43 54.1655 60.17ZM80.3013 60.23C80.3013 60.75 80.3913 61.23 80.5713 61.67C80.7713 62.09 81.0213 62.46 81.3213 62.78C81.6413 63.1 82.0113 63.35 82.4313 63.53C82.8713 63.71 83.3313 63.8 83.8113 63.8C84.2913 63.8 84.7413 63.71 85.1613 63.53C85.6013 63.35 85.9713 63.1 86.2713 62.78C86.5913 62.46 86.8413 62.09 87.0213 61.67C87.2213 61.23 87.3213 60.76 87.3213 60.26C87.3213 59.78 87.2213 59.33 87.0213 58.91C86.8413 58.47 86.5913 58.09 86.2713 57.77C85.9713 57.45 85.6013 57.2 85.1613 57.02C84.7413 56.84 84.2913 56.75 83.8113 56.75C83.3313 56.75 82.8713 56.84 82.4313 57.02C82.0113 57.2 81.6413 57.45 81.3213 57.77C81.0213 58.09 80.7713 58.46 80.5713 58.88C80.3913 59.3 80.3013 59.75 80.3013 60.23ZM74.5713 60.17C74.5713 59.03 74.8013 57.97 75.2613 56.99C75.7213 55.99 76.3613 55.13 77.1813 54.41C78.0013 53.67 78.9713 53.09 80.0913 52.67C81.2313 52.25 82.4713 52.04 83.8113 52.04C85.1313 52.04 86.3513 52.25 87.4713 52.67C88.6113 53.07 89.5913 53.64 90.4113 54.38C91.2513 55.1 91.9013 55.97 92.3613 56.99C92.8213 57.99 93.0513 59.1 93.0513 60.32C93.0513 61.54 92.8113 62.66 92.3313 63.68C91.8713 64.68 91.2313 65.55 90.4113 66.29C89.5913 67.01 88.6013 67.57 87.4413 67.97C86.3013 68.37 85.0613 68.57 83.7213 68.57C82.4013 68.57 81.1813 68.37 80.0613 67.97C78.9413 67.57 77.9713 67 77.1513 66.26C76.3513 65.52 75.7213 64.64 75.2613 63.62C74.8013 62.58 74.5713 61.43 74.5713 60.17ZM100.707 60.23C100.707 60.75 100.797 61.23 100.977 61.67C101.177 62.09 101.427 62.46 101.727 62.78C102.047 63.1 102.417 63.35 102.837 63.53C103.277 63.71 103.737 63.8 104.217 63.8C104.697 63.8 105.147 63.71 105.567 63.53C106.007 63.35 106.377 63.1 106.677 62.78C106.997 62.46 107.247 62.09 107.427 61.67C107.627 61.23 107.727 60.76 107.727 60.26C107.727 59.78 107.627 59.33 107.427 58.91C107.247 58.47 106.997 58.09 106.677 57.77C106.377 57.45 106.007 57.2 105.567 57.02C105.147 56.84 104.697 56.75 104.217 56.75C103.737 56.75 103.277 56.84 102.837 57.02C102.417 57.2 102.047 57.45 101.727 57.77C101.427 58.09 101.177 58.46 100.977 58.88C100.797 59.3 100.707 59.75 100.707 60.23ZM94.9772 60.17C94.9772 59.03 95.2072 57.97 95.6672 56.99C96.1272 55.99 96.7672 55.13 97.5872 54.41C98.4072 53.67 99.3772 53.09 100.497 52.67C101.637 52.25 102.877 52.04 104.217 52.04C105.537 52.04 106.757 52.25 107.877 52.67C109.017 53.07 109.997 53.64 110.817 54.38C111.657 55.1 112.307 55.97 112.767 56.99C113.227 57.99 113.457 59.1 113.457 60.32C113.457 61.54 113.217 62.66 112.737 63.68C112.277 64.68 111.637 65.55 110.817 66.29C109.997 67.01 109.007 67.57 107.847 67.97C106.707 68.37 105.467 68.57 104.127 68.57C102.807 68.57 101.587 68.37 100.467 67.97C99.3472 67.57 98.3772 67 97.5572 66.26C96.7572 65.52 96.1272 64.64 95.6672 63.62C95.2072 62.58 94.9772 61.43 94.9772 60.17ZM121.113 60.23C121.113 60.75 121.203 61.23 121.383 61.67C121.583 62.09 121.833 62.46 122.133 62.78C122.453 63.1 122.823 63.35 123.243 63.53C123.683 63.71 124.143 63.8 124.623 63.8C125.103 63.8 125.553 63.71 125.973 63.53C126.413 63.35 126.783 63.1 127.083 62.78C127.403 62.46 127.653 62.09 127.833 61.67C128.033 61.23 128.133 60.76 128.133 60.26C128.133 59.78 128.033 59.33 127.833 58.91C127.653 58.47 127.403 58.09 127.083 57.77C126.783 57.45 126.413 57.2 125.973 57.02C125.553 56.84 125.103 56.75 124.623 56.75C124.143 56.75 123.683 56.84 123.243 57.02C122.823 57.2 122.453 57.45 122.133 57.77C121.833 58.09 121.583 58.46 121.383 58.88C121.203 59.3 121.113 59.75 121.113 60.23ZM115.383 60.17C115.383 59.03 115.613 57.97 116.073 56.99C116.533 55.99 117.173 55.13 117.993 54.41C118.813 53.67 119.783 53.09 120.903 52.67C122.043 52.25 123.283 52.04 124.623 52.04C125.943 52.04 127.163 52.25 128.283 52.67C129.423 53.07 130.403 53.64 131.223 54.38C132.063 55.1 132.713 55.97 133.173 56.99C133.633 57.99 133.863 59.1 133.863 60.32C133.863 61.54 133.623 62.66 133.143 63.68C132.683 64.68 132.043 65.55 131.223 66.29C130.403 67.01 129.413 67.57 128.253 67.97C127.113 68.37 125.873 68.57 124.533 68.57C123.213 68.57 121.993 68.37 120.873 67.97C119.753 67.57 118.783 67 117.963 66.26C117.163 65.52 116.533 64.64 116.073 63.62C115.613 62.58 115.383 61.43 115.383 60.17ZM141.519 60.23C141.519 60.75 141.609 61.23 141.789 61.67C141.989 62.09 142.239 62.46 142.539 62.78C142.859 63.1 143.229 63.35 143.649 63.53C144.089 63.71 144.549 63.8 145.029 63.8C145.509 63.8 145.959 63.71 146.379 63.53C146.819 63.35 147.189 63.1 147.489 62.78C147.809 62.46 148.059 62.09 148.239 61.67C148.439 61.23 148.539 60.76 148.539 60.26C148.539 59.78 148.439 59.33 148.239 58.91C148.059 58.47 147.809 58.09 147.489 57.77C147.189 57.45 146.819 57.2 146.379 57.02C145.959 56.84 145.509 56.75 145.029 56.75C144.549 56.75 144.089 56.84 143.649 57.02C143.229 57.2 142.859 57.45 142.539 57.77C142.239 58.09 141.989 58.46 141.789 58.88C141.609 59.3 141.519 59.75 141.519 60.23ZM135.789 60.17C135.789 59.03 136.019 57.97 136.479 56.99C136.939 55.99 137.579 55.13 138.399 54.41C139.219 53.67 140.189 53.09 141.309 52.67C142.449 52.25 143.689 52.04 145.029 52.04C146.349 52.04 147.569 52.25 148.689 52.67C149.829 53.07 150.809 53.64 151.629 54.38C152.469 55.1 153.119 55.97 153.579 56.99C154.039 57.99 154.269 59.1 154.269 60.32C154.269 61.54 154.029 62.66 153.549 63.68C153.089 64.68 152.449 65.55 151.629 66.29C150.809 67.01 149.819 67.57 148.659 67.97C147.519 68.37 146.279 68.57 144.939 68.57C143.619 68.57 142.399 68.37 141.279 67.97C140.159 67.57 139.189 67 138.369 66.26C137.569 65.52 136.939 64.64 136.479 63.62C136.019 62.58 135.789 61.43 135.789 60.17ZM158.475 62.27H163.575L158.055 72.2H154.575L158.475 62.27ZM22.59 77.4C23.09 77.3 23.58 77.22 24.06 77.16C24.56 77.08 25.09 77.04 25.65 77.04C26.63 77.04 27.54 77.15 28.38 77.37C29.22 77.59 29.94 77.9 30.54 78.3C31.16 78.7 31.64 79.17 31.98 79.71C32.32 80.25 32.49 80.83 32.49 81.45C32.49 82.13 32.28 82.75 31.86 83.31C31.46 83.85 30.81 84.35 29.91 84.81C30.99 85.15 31.77 85.62 32.25 86.22C32.75 86.8 33 87.54 33 88.44C33 89.18 32.82 89.87 32.46 90.51C32.12 91.13 31.62 91.67 30.96 92.13C30.32 92.57 29.55 92.92 28.65 93.18C27.75 93.44 26.76 93.57 25.68 93.57C25.16 93.57 24.63 93.54 24.09 93.48C23.55 93.42 23.05 93.32 22.59 93.18V88.8C22.87 88.9 23.19 88.98 23.55 89.04C23.93 89.08 24.29 89.1 24.63 89.1C25.35 89.1 25.96 89 26.46 88.8C26.98 88.58 27.24 88.32 27.24 88.02C27.24 87.68 26.95 87.39 26.37 87.15C25.79 86.89 25.03 86.76 24.09 86.76H23.85V83.58C24.93 83.56 25.71 83.46 26.19 83.28C26.69 83.1 26.94 82.84 26.94 82.5C26.94 82.18 26.77 81.94 26.43 81.78C26.09 81.62 25.63 81.54 25.05 81.54C24.63 81.54 24.2 81.58 23.76 81.66C23.32 81.72 22.93 81.8 22.59 81.9V77.4ZM46.9622 82.14H42.8522V86.76C42.8522 87.16 42.8422 87.48 42.8222 87.72C42.8022 87.96 42.7722 88.21 42.7322 88.47H46.9622V82.14ZM35.9822 88.47C36.5222 88.47 36.8922 88.29 37.0922 87.93C37.2922 87.57 37.3922 87.01 37.3922 86.25V77.61H52.3922V88.47H54.2222V96.15H48.7922V93H40.6622V96.15H35.2322V88.47H35.9822ZM67.9784 83.07C67.7984 82.31 67.4284 81.7 66.8684 81.24C66.3084 80.78 65.6284 80.55 64.8284 80.55C63.9884 80.55 63.2984 80.77 62.7584 81.21C62.2384 81.65 61.9084 82.27 61.7684 83.07H67.9784ZM61.6184 86.22C61.6184 88.56 62.7184 89.73 64.9184 89.73C66.0984 89.73 66.9884 89.25 67.5884 88.29H72.8384C71.7784 91.81 69.1284 93.57 64.8884 93.57C63.5884 93.57 62.3984 93.38 61.3184 93C60.2384 92.6 59.3084 92.04 58.5284 91.32C57.7684 90.6 57.1784 89.74 56.7584 88.74C56.3384 87.74 56.1284 86.62 56.1284 85.38C56.1284 84.1 56.3284 82.95 56.7284 81.93C57.1284 80.89 57.6984 80.01 58.4384 79.29C59.1784 78.57 60.0684 78.02 61.1084 77.64C62.1684 77.24 63.3584 77.04 64.6784 77.04C65.9784 77.04 67.1484 77.24 68.1884 77.64C69.2284 78.02 70.1084 78.58 70.8284 79.32C71.5484 80.06 72.0984 80.97 72.4784 82.05C72.8584 83.11 73.0484 84.31 73.0484 85.65V86.22H61.6184ZM87.1622 82.59C86.2222 81.95 85.2722 81.63 84.3122 81.63C83.7922 81.63 83.3022 81.72 82.8422 81.9C82.4022 82.08 82.0122 82.34 81.6722 82.68C81.3322 83 81.0622 83.39 80.8622 83.85C80.6822 84.29 80.5922 84.79 80.5922 85.35C80.5922 85.89 80.6822 86.39 80.8622 86.85C81.0622 87.29 81.3222 87.68 81.6422 88.02C81.9822 88.34 82.3822 88.59 82.8422 88.77C83.3022 88.95 83.7922 89.04 84.3122 89.04C85.3322 89.04 86.2822 88.69 87.1622 87.99V92.61C85.8222 93.19 84.5522 93.48 83.3522 93.48C82.2322 93.48 81.1622 93.29 80.1422 92.91C79.1422 92.53 78.2522 91.99 77.4722 91.29C76.7122 90.57 76.1022 89.72 75.6422 88.74C75.1822 87.74 74.9522 86.63 74.9522 85.41C74.9522 84.19 75.1722 83.08 75.6122 82.08C76.0522 81.06 76.6522 80.19 77.4122 79.47C78.1722 78.73 79.0722 78.16 80.1122 77.76C81.1722 77.34 82.3022 77.13 83.5022 77.13C84.8222 77.13 86.0422 77.41 87.1622 77.97V82.59ZM95.1192 89.1H97.2192C98.2992 89.1 98.8392 88.59 98.8392 87.57C98.8392 86.59 98.2992 86.1 97.2192 86.1H95.1192V89.1ZM95.1192 77.61V82.17H98.2992C100.139 82.17 101.539 82.6 102.499 83.46C103.459 84.3 103.939 85.53 103.939 87.15C103.939 88.03 103.809 88.83 103.549 89.55C103.289 90.25 102.899 90.86 102.379 91.38C101.879 91.9 101.259 92.3 100.519 92.58C99.7792 92.86 98.9192 93 97.9392 93H89.6892V77.61H95.1192ZM127.105 82.14H123.505V93H118.075V82.14H114.475V77.61H127.105V82.14ZM134.296 85.26C134.296 85.76 134.386 86.23 134.566 86.67C134.746 87.09 134.986 87.46 135.286 87.78C135.606 88.1 135.976 88.35 136.396 88.53C136.836 88.71 137.306 88.8 137.806 88.8C138.286 88.8 138.736 88.71 139.156 88.53C139.596 88.35 139.966 88.1 140.266 87.78C140.586 87.46 140.836 87.09 141.016 86.67C141.216 86.25 141.316 85.8 141.316 85.32C141.316 84.84 141.216 84.39 141.016 83.97C140.836 83.53 140.586 83.15 140.266 82.83C139.966 82.51 139.596 82.26 139.156 82.08C138.736 81.9 138.286 81.81 137.806 81.81C137.306 81.81 136.836 81.9 136.396 82.08C135.976 82.26 135.606 82.51 135.286 82.83C134.986 83.15 134.746 83.52 134.566 83.94C134.386 84.34 134.296 84.78 134.296 85.26ZM141.136 77.61H146.596V93H141.136V91.29C139.976 92.75 138.406 93.48 136.426 93.48C135.306 93.48 134.276 93.28 133.336 92.88C132.396 92.46 131.576 91.88 130.876 91.14C130.176 90.4 129.626 89.53 129.226 88.53C128.846 87.53 128.656 86.44 128.656 85.26C128.656 84.16 128.846 83.12 129.226 82.14C129.606 81.14 130.136 80.27 130.816 79.53C131.496 78.79 132.306 78.21 133.246 77.79C134.186 77.35 135.226 77.13 136.366 77.13C138.286 77.13 139.876 77.8 141.136 79.14V77.61ZM159.621 77.61H165.411L159.321 84.99L166.221 93H160.011L155.121 86.85V93H149.691V77.61H155.121V83.79L159.621 77.61ZM187.044 77.61H192.834L186.744 84.99L193.644 93H187.434L182.544 86.85V93H177.114V77.61H182.544V83.79L187.044 77.61ZM207.212 85.35C207.212 84.87 207.122 84.42 206.942 84C206.782 83.56 206.542 83.18 206.222 82.86C205.902 82.54 205.522 82.29 205.082 82.11C204.662 81.91 204.202 81.81 203.702 81.81C203.222 81.81 202.772 81.9 202.352 82.08C201.932 82.26 201.562 82.51 201.242 82.83C200.942 83.15 200.692 83.53 200.492 83.97C200.312 84.39 200.222 84.84 200.222 85.32C200.222 85.8 200.312 86.25 200.492 86.67C200.672 87.09 200.922 87.46 201.242 87.78C201.562 88.08 201.932 88.33 202.352 88.53C202.792 88.71 203.252 88.8 203.732 88.8C204.212 88.8 204.662 88.71 205.082 88.53C205.502 88.35 205.862 88.1 206.162 87.78C206.482 87.46 206.732 87.09 206.912 86.67C207.112 86.25 207.212 85.81 207.212 85.35ZM200.372 100.68H194.942V77.61H200.372V79.32C201.532 77.86 203.112 77.13 205.112 77.13C206.212 77.13 207.232 77.35 208.172 77.79C209.132 78.21 209.962 78.79 210.662 79.53C211.362 80.27 211.902 81.14 212.282 82.14C212.682 83.14 212.882 84.21 212.882 85.35C212.882 86.49 212.682 87.55 212.282 88.53C211.902 89.51 211.362 90.37 210.662 91.11C209.982 91.85 209.172 92.43 208.232 92.85C207.292 93.27 206.272 93.48 205.172 93.48C203.252 93.48 201.652 92.82 200.372 91.5V100.68ZM220.136 90.9L212.696 77.61H218.996L223.106 85.5L227.096 77.61H233.336L220.976 100.68H214.886L220.136 90.9ZM245.981 82.14H242.381V93H236.951V82.14H233.351V77.61H245.981V82.14ZM252.94 85.23C252.94 85.75 253.03 86.23 253.21 86.67C253.41 87.09 253.66 87.46 253.96 87.78C254.28 88.1 254.65 88.35 255.07 88.53C255.51 88.71 255.97 88.8 256.45 88.8C256.93 88.8 257.38 88.71 257.8 88.53C258.24 88.35 258.61 88.1 258.91 87.78C259.23 87.46 259.48 87.09 259.66 86.67C259.86 86.23 259.96 85.76 259.96 85.26C259.96 84.78 259.86 84.33 259.66 83.91C259.48 83.47 259.23 83.09 258.91 82.77C258.61 82.45 258.24 82.2 257.8 82.02C257.38 81.84 256.93 81.75 256.45 81.75C255.97 81.75 255.51 81.84 255.07 82.02C254.65 82.2 254.28 82.45 253.96 82.77C253.66 83.09 253.41 83.46 253.21 83.88C253.03 84.3 252.94 84.75 252.94 85.23ZM247.21 85.17C247.21 84.03 247.44 82.97 247.9 81.99C248.36 80.99 249 80.13 249.82 79.41C250.64 78.67 251.61 78.09 252.73 77.67C253.87 77.25 255.11 77.04 256.45 77.04C257.77 77.04 258.99 77.25 260.11 77.67C261.25 78.07 262.23 78.64 263.05 79.38C263.89 80.1 264.54 80.97 265 81.99C265.46 82.99 265.69 84.1 265.69 85.32C265.69 86.54 265.45 87.66 264.97 88.68C264.51 89.68 263.87 90.55 263.05 91.29C262.23 92.01 261.24 92.57 260.08 92.97C258.94 93.37 257.7 93.57 256.36 93.57C255.04 93.57 253.82 93.37 252.7 92.97C251.58 92.57 250.61 92 249.79 91.26C248.99 90.52 248.36 89.64 247.9 88.62C247.44 87.58 247.21 86.43 247.21 85.17ZM34.47 107.59C33.53 106.95 32.58 106.63 31.62 106.63C31.1 106.63 30.61 106.72 30.15 106.9C29.71 107.08 29.32 107.34 28.98 107.68C28.64 108 28.37 108.39 28.17 108.85C27.99 109.29 27.9 109.79 27.9 110.35C27.9 110.89 27.99 111.39 28.17 111.85C28.37 112.29 28.63 112.68 28.95 113.02C29.29 113.34 29.69 113.59 30.15 113.77C30.61 113.95 31.1 114.04 31.62 114.04C32.64 114.04 33.59 113.69 34.47 112.99V117.61C33.13 118.19 31.86 118.48 30.66 118.48C29.54 118.48 28.47 118.29 27.45 117.91C26.45 117.53 25.56 116.99 24.78 116.29C24.02 115.57 23.41 114.72 22.95 113.74C22.49 112.74 22.26 111.63 22.26 110.41C22.26 109.19 22.48 108.08 22.92 107.08C23.36 106.06 23.96 105.19 24.72 104.47C25.48 103.73 26.38 103.16 27.42 102.76C28.48 102.34 29.61 102.13 30.81 102.13C32.13 102.13 33.35 102.41 34.47 102.97V107.59ZM53.347 118H47.917V107.14H42.397V118H36.967V102.61H53.347V118ZM61.5047 110.26C61.5047 110.76 61.5947 111.23 61.7747 111.67C61.9547 112.09 62.1947 112.46 62.4947 112.78C62.8147 113.1 63.1847 113.35 63.6047 113.53C64.0447 113.71 64.5147 113.8 65.0147 113.8C65.4947 113.8 65.9447 113.71 66.3647 113.53C66.8047 113.35 67.1747 113.1 67.4747 112.78C67.7947 112.46 68.0447 112.09 68.2247 111.67C68.4247 111.25 68.5247 110.8 68.5247 110.32C68.5247 109.84 68.4247 109.39 68.2247 108.97C68.0447 108.53 67.7947 108.15 67.4747 107.83C67.1747 107.51 66.8047 107.26 66.3647 107.08C65.9447 106.9 65.4947 106.81 65.0147 106.81C64.5147 106.81 64.0447 106.9 63.6047 107.08C63.1847 107.26 62.8147 107.51 62.4947 107.83C62.1947 108.15 61.9547 108.52 61.7747 108.94C61.5947 109.34 61.5047 109.78 61.5047 110.26ZM68.3447 102.61H73.8047V118H68.3447V116.29C67.1847 117.75 65.6147 118.48 63.6347 118.48C62.5147 118.48 61.4847 118.28 60.5447 117.88C59.6047 117.46 58.7847 116.88 58.0847 116.14C57.3847 115.4 56.8347 114.53 56.4347 113.53C56.0547 112.53 55.8647 111.44 55.8647 110.26C55.8647 109.16 56.0547 108.12 56.4347 107.14C56.8147 106.14 57.3447 105.27 58.0247 104.53C58.7047 103.79 59.5147 103.21 60.4547 102.79C61.3947 102.35 62.4347 102.13 63.5747 102.13C65.4947 102.13 67.0847 102.8 68.3447 104.14V102.61ZM88.5098 107.59C87.5698 106.95 86.6198 106.63 85.6598 106.63C85.1398 106.63 84.6498 106.72 84.1898 106.9C83.7498 107.08 83.3598 107.34 83.0198 107.68C82.6798 108 82.4098 108.39 82.2098 108.85C82.0298 109.29 81.9398 109.79 81.9398 110.35C81.9398 110.89 82.0298 111.39 82.2098 111.85C82.4098 112.29 82.6698 112.68 82.9898 113.02C83.3298 113.34 83.7298 113.59 84.1898 113.77C84.6498 113.95 85.1398 114.04 85.6598 114.04C86.6798 114.04 87.6298 113.69 88.5098 112.99V117.61C87.1698 118.19 85.8998 118.48 84.6998 118.48C83.5798 118.48 82.5098 118.29 81.4898 117.91C80.4898 117.53 79.5998 116.99 78.8198 116.29C78.0598 115.57 77.4498 114.72 76.9898 113.74C76.5298 112.74 76.2998 111.63 76.2998 110.41C76.2998 109.19 76.5198 108.08 76.9598 107.08C77.3998 106.06 77.9998 105.19 78.7598 104.47C79.5198 103.73 80.4198 103.16 81.4598 102.76C82.5198 102.34 83.6498 102.13 84.8498 102.13C86.1698 102.13 87.3898 102.41 88.5098 102.97V107.59ZM96.4369 102.61V111.22L102.887 102.61H108.317V118H102.887V109.42L96.4069 118H91.0069V102.61H96.4369ZM120.082 106.75C119.602 106.75 119.142 106.84 118.702 107.02C118.282 107.2 117.912 107.45 117.592 107.77C117.292 108.09 117.042 108.46 116.842 108.88C116.662 109.3 116.572 109.76 116.572 110.26C116.572 110.74 116.662 111.2 116.842 111.64C117.022 112.06 117.262 112.43 117.562 112.75C117.882 113.07 118.252 113.33 118.672 113.53C119.112 113.71 119.582 113.8 120.082 113.8C120.562 113.8 121.012 113.71 121.432 113.53C121.872 113.33 122.252 113.07 122.572 112.75C122.892 112.43 123.142 112.06 123.322 111.64C123.502 111.2 123.592 110.74 123.592 110.26C123.592 109.78 123.502 109.33 123.322 108.91C123.142 108.47 122.892 108.09 122.572 107.77C122.252 107.45 121.872 107.2 121.432 107.02C121.012 106.84 120.562 106.75 120.082 106.75ZM126.142 98.44C125.862 98.7 125.602 98.92 125.362 99.1C125.142 99.26 124.872 99.41 124.552 99.55C124.232 99.69 123.832 99.84 123.352 100C122.872 100.16 122.242 100.36 121.462 100.6C120.782 100.82 120.232 101 119.812 101.14C119.392 101.28 119.052 101.41 118.792 101.53C118.532 101.65 118.322 101.78 118.162 101.92C118.022 102.04 117.882 102.19 117.742 102.37L117.562 102.61C118.022 102.43 118.482 102.29 118.942 102.19C119.422 102.09 119.962 102.04 120.562 102.04C121.782 102.04 122.922 102.25 123.982 102.67C125.062 103.09 126.002 103.67 126.802 104.41C127.602 105.15 128.222 106.03 128.662 107.05C129.122 108.07 129.352 109.19 129.352 110.41C129.352 111.59 129.122 112.68 128.662 113.68C128.222 114.68 127.592 115.54 126.772 116.26C125.952 116.98 124.952 117.55 123.772 117.97C122.592 118.37 121.272 118.57 119.812 118.57C118.472 118.57 117.252 118.38 116.152 118C115.052 117.62 114.102 117.03 113.302 116.23C112.522 115.43 111.912 114.41 111.472 113.17C111.052 111.91 110.842 110.41 110.842 108.67C110.842 105.87 111.402 103.49 112.522 101.53C113.642 99.55 115.262 98.11 117.382 97.21C117.642 97.09 117.852 97.01 118.012 96.97C118.172 96.91 118.342 96.86 118.522 96.82C118.722 96.76 118.962 96.69 119.242 96.61C119.542 96.51 119.972 96.37 120.532 96.19C121.412 95.91 122.152 95.66 122.752 95.44C123.352 95.22 123.862 95 124.282 94.78C124.702 94.54 125.052 94.29 125.332 94.03C125.612 93.77 125.882 93.46 126.142 93.1V98.44ZM136.978 110.23C136.978 110.75 137.068 111.23 137.248 111.67C137.448 112.09 137.698 112.46 137.998 112.78C138.318 113.1 138.688 113.35 139.108 113.53C139.548 113.71 140.008 113.8 140.488 113.8C140.968 113.8 141.418 113.71 141.838 113.53C142.278 113.35 142.648 113.1 142.948 112.78C143.268 112.46 143.518 112.09 143.698 111.67C143.898 111.23 143.998 110.76 143.998 110.26C143.998 109.78 143.898 109.33 143.698 108.91C143.518 108.47 143.268 108.09 142.948 107.77C142.648 107.45 142.278 107.2 141.838 107.02C141.418 106.84 140.968 106.75 140.488 106.75C140.008 106.75 139.548 106.84 139.108 107.02C138.688 107.2 138.318 107.45 137.998 107.77C137.698 108.09 137.448 108.46 137.248 108.88C137.068 109.3 136.978 109.75 136.978 110.23ZM131.248 110.17C131.248 109.03 131.478 107.97 131.938 106.99C132.398 105.99 133.038 105.13 133.858 104.41C134.678 103.67 135.648 103.09 136.768 102.67C137.908 102.25 139.148 102.04 140.488 102.04C141.808 102.04 143.028 102.25 144.148 102.67C145.288 103.07 146.268 103.64 147.088 104.38C147.928 105.1 148.578 105.97 149.038 106.99C149.498 107.99 149.728 109.1 149.728 110.32C149.728 111.54 149.488 112.66 149.008 113.68C148.548 114.68 147.908 115.55 147.088 116.29C146.268 117.01 145.278 117.57 144.118 117.97C142.978 118.37 141.738 118.57 140.398 118.57C139.078 118.57 137.858 118.37 136.738 117.97C135.618 117.57 134.648 117 133.828 116.26C133.028 115.52 132.398 114.64 131.938 113.62C131.478 112.58 131.248 111.43 131.248 110.17ZM153.934 112.27H159.034L153.514 122.2H150.034L153.934 112.27ZM180.084 106.75C179.604 106.75 179.144 106.84 178.704 107.02C178.284 107.2 177.914 107.45 177.594 107.77C177.294 108.09 177.044 108.46 176.844 108.88C176.664 109.3 176.574 109.76 176.574 110.26C176.574 110.74 176.664 111.2 176.844 111.64C177.024 112.06 177.264 112.43 177.564 112.75C177.884 113.07 178.254 113.33 178.674 113.53C179.114 113.71 179.584 113.8 180.084 113.8C180.564 113.8 181.014 113.71 181.434 113.53C181.874 113.33 182.254 113.07 182.574 112.75C182.894 112.43 183.144 112.06 183.324 111.64C183.504 111.2 183.594 110.74 183.594 110.26C183.594 109.78 183.504 109.33 183.324 108.91C183.144 108.47 182.894 108.09 182.574 107.77C182.254 107.45 181.874 107.2 181.434 107.02C181.014 106.84 180.564 106.75 180.084 106.75ZM186.144 98.44C185.864 98.7 185.604 98.92 185.364 99.1C185.144 99.26 184.874 99.41 184.554 99.55C184.234 99.69 183.834 99.84 183.354 100C182.874 100.16 182.244 100.36 181.464 100.6C180.784 100.82 180.234 101 179.814 101.14C179.394 101.28 179.054 101.41 178.794 101.53C178.534 101.65 178.324 101.78 178.164 101.92C178.024 102.04 177.884 102.19 177.744 102.37L177.564 102.61C178.024 102.43 178.484 102.29 178.944 102.19C179.424 102.09 179.964 102.04 180.564 102.04C181.784 102.04 182.924 102.25 183.984 102.67C185.064 103.09 186.004 103.67 186.804 104.41C187.604 105.15 188.224 106.03 188.664 107.05C189.124 108.07 189.354 109.19 189.354 110.41C189.354 111.59 189.124 112.68 188.664 113.68C188.224 114.68 187.594 115.54 186.774 116.26C185.954 116.98 184.954 117.55 183.774 117.97C182.594 118.37 181.274 118.57 179.814 118.57C178.474 118.57 177.254 118.38 176.154 118C175.054 117.62 174.104 117.03 173.304 116.23C172.524 115.43 171.914 114.41 171.474 113.17C171.054 111.91 170.844 110.41 170.844 108.67C170.844 105.87 171.404 103.49 172.524 101.53C173.644 99.55 175.264 98.11 177.384 97.21C177.644 97.09 177.854 97.01 178.014 96.97C178.174 96.91 178.344 96.86 178.524 96.82C178.724 96.76 178.964 96.69 179.244 96.61C179.544 96.51 179.974 96.37 180.534 96.19C181.414 95.91 182.154 95.66 182.754 95.44C183.354 95.22 183.864 95 184.284 94.78C184.704 94.54 185.054 94.29 185.334 94.03C185.614 93.77 185.884 93.46 186.144 93.1V98.44ZM204.12 110.35C204.12 109.87 204.03 109.42 203.85 109C203.69 108.56 203.45 108.18 203.13 107.86C202.81 107.54 202.43 107.29 201.99 107.11C201.57 106.91 201.11 106.81 200.61 106.81C200.13 106.81 199.68 106.9 199.26 107.08C198.84 107.26 198.47 107.51 198.15 107.83C197.85 108.15 197.6 108.53 197.4 108.97C197.22 109.39 197.13 109.84 197.13 110.32C197.13 110.8 197.22 111.25 197.4 111.67C197.58 112.09 197.83 112.46 198.15 112.78C198.47 113.08 198.84 113.33 199.26 113.53C199.7 113.71 200.16 113.8 200.64 113.8C201.12 113.8 201.57 113.71 201.99 113.53C202.41 113.35 202.77 113.1 203.07 112.78C203.39 112.46 203.64 112.09 203.82 111.67C204.02 111.25 204.12 110.81 204.12 110.35ZM197.28 125.68H191.85V102.61H197.28V104.32C198.44 102.86 200.02 102.13 202.02 102.13C203.12 102.13 204.14 102.35 205.08 102.79C206.04 103.21 206.87 103.79 207.57 104.53C208.27 105.27 208.81 106.14 209.19 107.14C209.59 108.14 209.79 109.21 209.79 110.35C209.79 111.49 209.59 112.55 209.19 113.53C208.81 114.51 208.27 115.37 207.57 116.11C206.89 116.85 206.08 117.43 205.14 117.85C204.2 118.27 203.18 118.48 202.08 118.48C200.16 118.48 198.56 117.82 197.28 116.5V125.68ZM217.415 110.23C217.415 110.75 217.505 111.23 217.685 111.67C217.885 112.09 218.135 112.46 218.435 112.78C218.755 113.1 219.125 113.35 219.545 113.53C219.985 113.71 220.445 113.8 220.925 113.8C221.405 113.8 221.855 113.71 222.275 113.53C222.715 113.35 223.085 113.1 223.385 112.78C223.705 112.46 223.955 112.09 224.135 111.67C224.335 111.23 224.435 110.76 224.435 110.26C224.435 109.78 224.335 109.33 224.135 108.91C223.955 108.47 223.705 108.09 223.385 107.77C223.085 107.45 222.715 107.2 222.275 107.02C221.855 106.84 221.405 106.75 220.925 106.75C220.445 106.75 219.985 106.84 219.545 107.02C219.125 107.2 218.755 107.45 218.435 107.77C218.135 108.09 217.885 108.46 217.685 108.88C217.505 109.3 217.415 109.75 217.415 110.23ZM211.685 110.17C211.685 109.03 211.915 107.97 212.375 106.99C212.835 105.99 213.475 105.13 214.295 104.41C215.115 103.67 216.085 103.09 217.205 102.67C218.345 102.25 219.585 102.04 220.925 102.04C222.245 102.04 223.465 102.25 224.585 102.67C225.725 103.07 226.705 103.64 227.525 104.38C228.365 105.1 229.015 105.97 229.475 106.99C229.935 107.99 230.165 109.1 230.165 110.32C230.165 111.54 229.925 112.66 229.445 113.68C228.985 114.68 228.345 115.55 227.525 116.29C226.705 117.01 225.715 117.57 224.555 117.97C223.415 118.37 222.175 118.57 220.835 118.57C219.515 118.57 218.295 118.37 217.175 117.97C216.055 117.57 215.085 117 214.265 116.26C213.465 115.52 212.835 114.64 212.375 113.62C211.915 112.58 211.685 111.43 211.685 110.17ZM234.371 112.27H239.471L233.951 122.2H230.471L234.371 112.27ZM32.13 139.34C31.77 139.42 31.4 139.49 31.02 139.55C30.66 139.59 30.27 139.61 29.85 139.61C28.49 139.61 27.32 139.43 26.34 139.07C25.36 138.69 24.56 138.15 23.94 137.45C23.32 136.73 22.86 135.85 22.56 134.81C22.28 133.77 22.14 132.58 22.14 131.24V127.61H27.57V131.42C27.57 132.2 27.63 132.84 27.75 133.34C27.89 133.82 28.08 134.19 28.32 134.45C28.56 134.71 28.84 134.89 29.16 134.99C29.48 135.07 29.83 135.11 30.21 135.11C30.99 135.11 31.63 134.86 32.13 134.36V127.61H37.56V143H32.13V139.34ZM52.0577 132.14H48.4577V143H43.0277V132.14H39.4277V127.61H52.0577V132.14ZM59.0166 135.23C59.0166 135.75 59.1066 136.23 59.2866 136.67C59.4866 137.09 59.7366 137.46 60.0366 137.78C60.3566 138.1 60.7266 138.35 61.1466 138.53C61.5866 138.71 62.0466 138.8 62.5266 138.8C63.0066 138.8 63.4566 138.71 63.8766 138.53C64.3166 138.35 64.6866 138.1 64.9866 137.78C65.3066 137.46 65.5566 137.09 65.7366 136.67C65.9366 136.23 66.0366 135.76 66.0366 135.26C66.0366 134.78 65.9366 134.33 65.7366 133.91C65.5566 133.47 65.3066 133.09 64.9866 132.77C64.6866 132.45 64.3166 132.2 63.8766 132.02C63.4566 131.84 63.0066 131.75 62.5266 131.75C62.0466 131.75 61.5866 131.84 61.1466 132.02C60.7266 132.2 60.3566 132.45 60.0366 132.77C59.7366 133.09 59.4866 133.46 59.2866 133.88C59.1066 134.3 59.0166 134.75 59.0166 135.23ZM53.2866 135.17C53.2866 134.03 53.5166 132.97 53.9766 131.99C54.4366 130.99 55.0766 130.13 55.8966 129.41C56.7166 128.67 57.6866 128.09 58.8066 127.67C59.9466 127.25 61.1866 127.04 62.5266 127.04C63.8466 127.04 65.0666 127.25 66.1866 127.67C67.3266 128.07 68.3066 128.64 69.1266 129.38C69.9666 130.1 70.6166 130.97 71.0766 131.99C71.5366 132.99 71.7666 134.1 71.7666 135.32C71.7666 136.54 71.5266 137.66 71.0466 138.68C70.5866 139.68 69.9466 140.55 69.1266 141.29C68.3066 142.01 67.3166 142.57 66.1566 142.97C65.0166 143.37 63.7766 143.57 62.4366 143.57C61.1166 143.57 59.8966 143.37 58.7766 142.97C57.6566 142.57 56.6866 142 55.8666 141.26C55.0666 140.52 54.4366 139.64 53.9766 138.62C53.5166 137.58 53.2866 136.43 53.2866 135.17ZM100.268 143H94.8377V132.14H89.3177V143H83.8877V127.61H100.268V143ZM115.655 135.35C115.655 134.87 115.565 134.42 115.385 134C115.225 133.56 114.985 133.18 114.665 132.86C114.345 132.54 113.965 132.29 113.525 132.11C113.105 131.91 112.645 131.81 112.145 131.81C111.665 131.81 111.215 131.9 110.795 132.08C110.375 132.26 110.005 132.51 109.685 132.83C109.385 133.15 109.135 133.53 108.935 133.97C108.755 134.39 108.665 134.84 108.665 135.32C108.665 135.8 108.755 136.25 108.935 136.67C109.115 137.09 109.365 137.46 109.685 137.78C110.005 138.08 110.375 138.33 110.795 138.53C111.235 138.71 111.695 138.8 112.175 138.8C112.655 138.8 113.105 138.71 113.525 138.53C113.945 138.35 114.305 138.1 114.605 137.78C114.925 137.46 115.175 137.09 115.355 136.67C115.555 136.25 115.655 135.81 115.655 135.35ZM108.815 150.68H103.385V127.61H108.815V129.32C109.975 127.86 111.555 127.13 113.555 127.13C114.655 127.13 115.675 127.35 116.615 127.79C117.575 128.21 118.405 128.79 119.105 129.53C119.805 130.27 120.345 131.14 120.725 132.14C121.125 133.14 121.325 134.21 121.325 135.35C121.325 136.49 121.125 137.55 120.725 138.53C120.345 139.51 119.805 140.37 119.105 141.11C118.425 141.85 117.615 142.43 116.675 142.85C115.735 143.27 114.715 143.48 113.615 143.48C111.695 143.48 110.095 142.82 108.815 141.5V150.68ZM129.251 127.61V136.22L135.701 127.61H141.131V143H135.701V134.42L129.221 143H123.821V127.61H129.251ZM155.626 132.14H152.026V143H146.596V132.14H142.996V127.61H155.626V132.14ZM162.817 135.26C162.817 135.76 162.907 136.23 163.087 136.67C163.267 137.09 163.507 137.46 163.807 137.78C164.127 138.1 164.497 138.35 164.917 138.53C165.357 138.71 165.827 138.8 166.327 138.8C166.807 138.8 167.257 138.71 167.677 138.53C168.117 138.35 168.487 138.1 168.787 137.78C169.107 137.46 169.357 137.09 169.537 136.67C169.737 136.25 169.837 135.8 169.837 135.32C169.837 134.84 169.737 134.39 169.537 133.97C169.357 133.53 169.107 133.15 168.787 132.83C168.487 132.51 168.117 132.26 167.677 132.08C167.257 131.9 166.807 131.81 166.327 131.81C165.827 131.81 165.357 131.9 164.917 132.08C164.497 132.26 164.127 132.51 163.807 132.83C163.507 133.15 163.267 133.52 163.087 133.94C162.907 134.34 162.817 134.78 162.817 135.26ZM169.657 127.61H175.117V143H169.657V141.29C168.497 142.75 166.927 143.48 164.947 143.48C163.827 143.48 162.797 143.28 161.857 142.88C160.917 142.46 160.097 141.88 159.397 141.14C158.697 140.4 158.147 139.53 157.747 138.53C157.367 137.53 157.177 136.44 157.177 135.26C157.177 134.16 157.367 133.12 157.747 132.14C158.127 131.14 158.657 130.27 159.337 129.53C160.017 128.79 160.827 128.21 161.767 127.79C162.707 127.35 163.747 127.13 164.887 127.13C166.807 127.13 168.397 127.8 169.657 129.14V127.61ZM178.212 143V127.61H183.642V138.47H187.242V127.61H192.672V138.47H196.272V127.61H201.702V138.47H203.532V146.15H198.102V143H178.212ZM211.46 127.61V136.22L217.91 127.61H223.34V143H217.91V134.42L211.43 143H206.03V127.61H211.46ZM225.745 138.53C225.805 138.55 225.895 138.56 226.015 138.56C226.275 138.56 226.505 138.54 226.705 138.5C226.905 138.46 227.065 138.38 227.185 138.26C227.305 138.12 227.395 137.92 227.455 137.66C227.515 137.4 227.545 137.06 227.545 136.64V127.61H242.545V143H237.115V132.14H232.975V137.24C232.975 138.34 232.805 139.29 232.465 140.09C232.145 140.89 231.695 141.55 231.115 142.07C230.535 142.59 229.825 142.97 228.985 143.21C228.165 143.47 227.265 143.6 226.285 143.6H225.745V138.53Z" fill="white"/>
<defs>
<filter id="filter0_b" x="-100" y="-100" width="505" height="435.962" filterUnits="userSpaceOnUse" color-interpolation-filters="sRGB">
<feFlood flood-opacity="0" result="BackgroundImageFix"/>
<feGaussianBlur in="BackgroundImage" stdDeviation="50"/>
<feComposite in2="SourceAlpha" operator="in" result="effect1_backgroundBlur"/>
<feBlend mode="normal" in="SourceGraphic" in2="effect1_backgroundBlur" result="shape"/>
</filter>
</defs>
</svg>
