<svg width="1139" height="800" viewBox="0 0 1139 800" fill="none" xmlns="http://www.w3.org/2000/svg">
<path fill-rule="evenodd" clip-rule="evenodd" d="M856.292 -202.92C903.17 -199.325 952.497 -219.272 994.878 -198.896C1038 -178.163 1064.03 -133.96 1087.04 -91.9783C1109.72 -50.6218 1130.06 -5.67039 1126.62 41.3789C1123.25 87.2795 1093.54 125.432 1068.3 163.902C1044.27 200.521 1018.1 234.795 982.76 260.645C944.633 288.538 903.515 318.918 856.292 319C809.052 319.081 766.838 290.142 729.571 261.082C695.381 234.42 679.225 193.155 651.815 159.55C618.432 118.623 559.47 93.4239 550.368 41.3789C541.313 -10.405 579.179 -58.0688 605.838 -103.364C632.311 -148.342 656.407 -201.87 704.877 -221.137C752.942 -240.243 804.727 -206.875 856.292 -202.92Z" fill="#0038FF"/>
<path fill-rule="evenodd" clip-rule="evenodd" d="M852.962 -111.948C890.027 -109.103 929.028 -124.886 962.536 -108.764C996.634 -92.3594 1017.21 -57.3863 1035.41 -24.1697C1053.34 8.55197 1069.42 44.1179 1066.7 81.3438C1064.04 117.661 1040.54 147.848 1020.59 178.285C1001.59 207.259 980.894 234.376 952.956 254.829C922.81 276.898 890.3 300.935 852.962 301C815.612 301.064 782.235 278.167 752.77 255.175C725.737 234.08 712.963 201.431 691.291 174.842C664.897 142.46 618.278 122.522 611.082 81.3438C603.922 40.3719 633.861 2.65987 654.939 -33.1778C675.87 -68.7653 694.922 -111.117 733.246 -126.361C771.248 -141.478 812.192 -115.077 852.962 -111.948Z" fill="#533EA5"/>
<path fill-rule="evenodd" clip-rule="evenodd" d="M863.228 -115.536C897.13 -112.928 932.802 -127.395 963.451 -112.617C994.639 -97.5794 1013.46 -65.5208 1030.11 -35.0722C1046.5 -5.07736 1061.22 27.5248 1058.72 61.6484C1056.29 94.939 1034.8 122.61 1016.55 150.511C999.173 177.07 980.242 201.928 954.688 220.677C927.115 240.907 897.38 262.941 863.228 263C829.065 263.059 798.537 242.07 771.586 220.993C746.861 201.657 735.177 171.728 715.354 147.355C691.212 117.672 648.571 99.3953 641.99 61.6484C635.441 24.0909 662.825 -10.4785 682.104 -43.3297C701.249 -75.9515 718.675 -114.774 753.728 -128.748C788.487 -142.605 825.938 -118.404 863.228 -115.536Z" fill="#1F009D"/>
<path fill-rule="evenodd" clip-rule="evenodd" d="M254.481 226.187C315.861 210.744 390.132 224.145 436.576 267.144C483.059 310.179 479.117 383.557 491.549 445.671C500.673 491.263 488.81 537.338 499.698 582.542C515.072 646.365 590.779 702.011 568.138 763.631C546.896 821.444 463.801 826.06 404.332 842.09C355.226 855.327 305.337 848.67 254.481 848.178C204.139 847.692 148.912 866.008 106.293 839.21C63.7468 812.458 53.4668 756.133 34.2428 709.696C17.163 668.439 -0.914452 627.184 0.035919 582.542C0.975784 538.393 19.7287 497.915 39.5909 458.475C60.4107 417.133 87.1458 381.131 118.579 347.153C160.477 301.863 194.648 241.241 254.481 226.187Z" fill="#170B9B"/>
<path fill-rule="evenodd" clip-rule="evenodd" d="M204.534 286.978C253.867 274.552 313.561 285.335 350.889 319.933C388.249 354.56 385.081 413.601 395.073 463.579C402.406 500.264 392.871 537.337 401.623 573.709C413.979 625.063 474.828 669.836 456.63 719.418C439.557 765.935 372.771 769.649 324.974 782.547C285.506 793.198 245.408 787.841 204.534 787.446C164.073 787.055 119.685 801.793 85.4312 780.23C51.2352 758.704 42.9729 713.384 27.522 676.02C13.7944 642.824 -0.734973 609.629 0.0288692 573.709C0.784268 538.186 15.8566 505.616 31.8204 473.882C48.5539 440.618 70.0418 411.649 95.3057 384.31C128.98 347.869 156.445 299.091 204.534 286.978Z" fill="#1848C1"/>
<path fill-rule="evenodd" clip-rule="evenodd" d="M205.854 334.236C247.787 323.662 298.527 332.838 330.256 362.28C362.012 391.747 359.319 441.99 367.812 484.521C374.046 515.739 365.941 547.287 373.38 578.239C383.882 621.94 435.603 660.041 420.135 702.234C405.623 741.819 348.855 744.98 308.228 755.956C274.68 765.019 240.597 760.461 205.854 760.125C171.462 759.792 133.733 772.333 104.617 753.984C75.5499 735.666 68.527 697.099 55.3937 665.304C43.7252 637.054 31.3753 608.806 32.0245 578.239C32.6666 548.009 45.4781 520.293 59.0474 493.288C73.2708 464.981 91.5355 440.329 113.01 417.064C141.633 386.053 164.978 344.544 205.854 334.236Z" fill="#0019FE"/>
<path fill-rule="evenodd" clip-rule="evenodd" d="M205.854 334.236C247.787 323.662 298.527 332.838 330.256 362.28C362.012 391.747 359.319 441.99 367.812 484.521C374.046 515.739 365.941 547.287 373.38 578.239C383.882 621.94 435.603 660.041 420.135 702.234C405.623 741.819 348.855 744.98 308.228 755.956C274.68 765.019 240.597 760.461 205.854 760.125C171.462 759.792 133.733 772.333 104.617 753.984C75.5499 735.666 68.527 697.099 55.3937 665.304C43.7252 637.054 31.3753 608.806 32.0245 578.239C32.6666 548.009 45.4781 520.293 59.0474 493.288C73.2708 464.981 91.5355 440.329 113.01 417.064C141.633 386.053 164.978 344.544 205.854 334.236Z" fill="#0019FE"/>
<path fill-rule="evenodd" clip-rule="evenodd" d="M140.047 414.635C166.108 408.057 197.642 413.765 217.361 432.082C237.097 450.414 235.423 481.671 240.701 508.13C244.576 527.552 239.539 547.178 244.162 566.434C250.689 593.621 282.833 617.325 273.22 643.574C264.201 668.201 228.92 670.167 203.671 676.996C182.822 682.634 161.64 679.798 140.047 679.589C118.673 679.382 95.2251 687.184 77.13 675.769C59.0656 664.373 54.7009 640.38 46.5388 620.599C39.287 603.025 31.6117 585.451 32.0153 566.434C32.4143 547.628 40.3764 530.385 48.8095 513.585C57.6491 495.974 69.0003 480.638 82.3463 466.164C100.135 446.872 114.644 421.048 140.047 414.635Z" fill="#5DD7FD"/>
<path fill-rule="evenodd" clip-rule="evenodd" d="M887.163 416.213C918.182 365.231 952.693 305.205 1011.15 293.213C1069.62 281.219 1123.13 325.564 1173.57 357.458C1217.49 385.221 1269.74 413.753 1281.75 464.298C1293.34 513.082 1231.39 552.109 1231.72 602.249C1232.14 665.28 1322.16 729.139 1283.85 779.2C1247.1 827.24 1164.14 743.673 1107.43 764.709C1030.76 793.146 998.252 939.051 920.411 914.012C846.941 890.379 895.593 767.386 880.468 691.705C871.341 646.031 848.324 605.531 849.456 558.968C850.681 508.531 860.938 459.313 887.163 416.213Z" fill="#0E52D5"/>
<path fill-rule="evenodd" clip-rule="evenodd" d="M920.661 393.916C941.789 359.192 965.294 318.309 1005.11 310.141C1044.93 301.972 1081.38 332.175 1115.74 353.899C1145.64 372.808 1181.24 392.241 1189.41 426.667C1197.31 459.893 1155.11 486.475 1155.34 520.625C1155.63 563.556 1216.93 607.05 1190.85 641.147C1165.81 673.867 1109.31 616.949 1070.68 631.277C1018.47 650.645 996.324 750.021 943.307 732.967C893.266 716.871 926.403 633.1 916.102 581.553C909.885 550.445 894.209 522.861 894.979 491.146C895.814 456.794 902.8 423.272 920.661 393.916Z" fill="#1F009D"/>
<g filter="url(#filter0_b)">
<path d="M284.028 64.164C304.439 109.863 355.3 159.766 406.919 199.957C519.545 293.235 581.301 204.353 574.69 170.828C564.702 119.269 534.961 78.0275 468.56 37.029C439.113 18.6135 382.453 -4.16841 344.429 -5.76602C291.814 -8.07401 265.516 23.3424 284.028 64.164Z" fill="#0038FF"/>
</g>
<g filter="url(#filter1_b)">
<path d="M302.895 61.5686C319.752 99.3112 361.758 140.526 404.39 173.72C497.409 250.758 548.412 177.351 542.952 149.662C534.704 107.08 510.14 73.0185 455.3 39.1579C430.979 23.9485 384.184 5.1329 352.78 3.81343C309.325 1.90727 287.605 27.8541 302.895 61.5686Z" fill="#1F009D"/>
</g>
<g filter="url(#filter2_b)">
<path d="M319.992 63.3621C334.294 95.3825 369.932 130.349 406.1 158.511C485.016 223.869 528.287 161.59 523.655 138.1C516.657 101.973 495.817 73.076 449.291 44.349C428.658 31.4456 388.957 15.4826 362.315 14.3632C325.448 12.746 307.021 34.759 319.992 63.3621Z" fill="#1848C1"/>
</g>
<g filter="url(#filter3_b)">
<path d="M797.609 579.12C798.374 508.647 769.167 433.169 734.439 372.932C661.382 232.76 553.219 375.08 543.865 427.213C529.29 507.399 540.503 570.412 590.382 631.147C612.388 658.447 660.884 691.173 700.088 691.705C754.289 692.594 797.22 642.058 797.609 579.12Z" fill="#44B4B4"/>
</g>
<g filter="url(#filter4_b)">
<path d="M781.429 570.552C782.105 508.26 756.288 441.544 725.592 388.3C661.016 264.401 565.41 390.199 557.142 436.28C544.259 507.156 554.171 562.854 598.259 616.539C617.71 640.67 660.576 669.596 695.228 670.067C743.137 670.852 781.085 626.183 781.429 570.552Z" fill="#3907FF"/>
</g>
<g filter="url(#filter5_b)">
<path d="M767.018 546.879C767.567 496.316 746.611 442.162 721.694 398.943C669.278 298.373 591.673 400.485 584.962 437.889C574.505 495.42 582.55 540.631 618.337 584.207C634.126 603.794 668.921 627.274 697.048 627.656C735.936 628.293 766.739 592.035 767.018 546.879Z" fill="#0038FF"/>
</g>
<defs>
<filter id="filter0_b" x="178.117" y="-105.886" width="497.054" height="447.22" filterUnits="userSpaceOnUse" color-interpolation-filters="sRGB">
<feFlood flood-opacity="0" result="BackgroundImageFix"/>
<feGaussianBlur in="BackgroundImage" stdDeviation="50"/>
<feComposite in2="SourceAlpha" operator="in" result="effect1_backgroundBlur"/>
<feBlend mode="normal" in="SourceGraphic" in2="effect1_backgroundBlur" result="shape"/>
</filter>
<filter id="filter1_b" x="198.014" y="-96.2852" width="445.336" height="404.179" filterUnits="userSpaceOnUse" color-interpolation-filters="sRGB">
<feFlood flood-opacity="0" result="BackgroundImageFix"/>
<feGaussianBlur in="BackgroundImage" stdDeviation="50"/>
<feComposite in2="SourceAlpha" operator="in" result="effect1_backgroundBlur"/>
<feBlend mode="normal" in="SourceGraphic" in2="effect1_backgroundBlur" result="shape"/>
</filter>
<filter id="filter2_b" x="215.852" y="-85.7207" width="408.141" height="373.223" filterUnits="userSpaceOnUse" color-interpolation-filters="sRGB">
<feFlood flood-opacity="0" result="BackgroundImageFix"/>
<feGaussianBlur in="BackgroundImage" stdDeviation="50"/>
<feComposite in2="SourceAlpha" operator="in" result="effect1_backgroundBlur"/>
<feBlend mode="normal" in="SourceGraphic" in2="effect1_backgroundBlur" result="shape"/>
</filter>
<filter id="filter3_b" x="360" y="182" width="633.987" height="642.114" filterUnits="userSpaceOnUse" color-interpolation-filters="sRGB">
<feFlood flood-opacity="0" result="BackgroundImageFix"/>
<feGaussianBlur in="BackgroundImage" stdDeviation="50"/>
<feComposite in2="SourceAlpha" operator="in" result="effect1_backgroundBlur"/>
<feBlend mode="normal" in="SourceGraphic" in2="effect1_backgroundBlur" result="shape"/>
</filter>
<filter id="filter4_b" x="383.012" y="207.925" width="583.605" height="590.788" filterUnits="userSpaceOnUse" color-interpolation-filters="sRGB">
<feFlood flood-opacity="0" result="BackgroundImageFix"/>
<feGaussianBlur in="BackgroundImage" stdDeviation="50"/>
<feComposite in2="SourceAlpha" operator="in" result="effect1_backgroundBlur"/>
<feBlend mode="normal" in="SourceGraphic" in2="effect1_backgroundBlur" result="shape"/>
</filter>
<filter id="filter5_b" x="424.791" y="233.702" width="511.376" height="517.206" filterUnits="userSpaceOnUse" color-interpolation-filters="sRGB">
<feFlood flood-opacity="0" result="BackgroundImageFix"/>
<feGaussianBlur in="BackgroundImage" stdDeviation="50"/>
<feComposite in2="SourceAlpha" operator="in" result="effect1_backgroundBlur"/>
<feBlend mode="normal" in="SourceGraphic" in2="effect1_backgroundBlur" result="shape"/>
</filter>
</defs>
</svg>
